<?xml version="1.0" encoding="UTF-8" standalone="no"?>
<!-- Created with Inkscape (http://www.inkscape.org/) -->

<svg
   xmlns:dc="http://purl.org/dc/elements/1.1/"
   xmlns:cc="http://creativecommons.org/ns#"
   xmlns:rdf="http://www.w3.org/1999/02/22-rdf-syntax-ns#"
   xmlns:svg="http://www.w3.org/2000/svg"
   xmlns="http://www.w3.org/2000/svg"
   xmlns:sodipodi="http://sodipodi.sourceforge.net/DTD/sodipodi-0.dtd"
   xmlns:inkscape="http://www.inkscape.org/namespaces/inkscape"
   width="512"
   height="512"
   viewBox="0 0 512.00001 512.00001"
   id="svg5363"
   version="1.1"
   inkscape:version="0.91 r13725"
   sodipodi:docname="gilbert.svg">
  <defs
     id="defs5365" />
  <sodipodi:namedview
     id="base"
     pagecolor="#47a0f2"
     bordercolor="#666666"
     borderopacity="1.0"
     inkscape:pageopacity="0"
     inkscape:pageshadow="2"
     inkscape:zoom="0.98994949"
     inkscape:cx="668.99514"
     inkscape:cy="106.75876"
     inkscape:document-units="px"
     inkscape:current-layer="layer1"
     showgrid="false"
     units="px"
     fit-margin-top="6"
     fit-margin-left="6"
     fit-margin-right="6"
     fit-margin-bottom="6"
     inkscape:window-width="1920"
     inkscape:window-height="1135"
     inkscape:window-x="0"
     inkscape:window-y="0"
     inkscape:window-maximized="1"
     showguides="true"
     inkscape:guide-bbox="true">
    <sodipodi:guide
       position="442.44682,248.49753"
       orientation="0,1"
       id="guide5952" />
    <sodipodi:guide
       position="377.79706,459.61942"
       orientation="0,1"
       id="guide5954" />
    <sodipodi:guide
       position="410.12194,125.25892"
       orientation="0,1"
       id="guide5956" />
    <sodipodi:guide
       position="454.56865,26.263967"
       orientation="0,1"
       id="guide5958" />
    <sodipodi:guide
       position="251.52799,248.49753"
       orientation="1,0"
       id="guide5977" />
  </sodipodi:namedview>
  <metadata
     id="metadata5368">
    <rdf:RDF>
      <cc:Work
         rdf:about="">
        <dc:format>image/svg+xml</dc:format>
        <dc:type
           rdf:resource="http://purl.org/dc/dcmitype/StillImage" />
        <dc:title />
      </cc:Work>
    </rdf:RDF>
  </metadata>
  <g
     inkscape:label="Ebene 1"
     inkscape:groupmode="layer"
     id="layer1"
     transform="translate(782.11424,23.969541)">
    <g
       id="g9701"
       transform="matrix(1.204898,0,0,1.204898,78.680485,-99.996507)">
      <g
         transform="matrix(17.778338,0,0,17.778338,813.60229,-6622.8815)"
         id="g6291">
        <path
           style="color:#000000;font-style:normal;font-variant:normal;font-weight:normal;font-stretch:normal;font-size:medium;line-height:normal;font-family:sans-serif;text-indent:0;text-align:start;text-decoration:none;text-decoration-line:none;text-decoration-style:solid;text-decoration-color:#000000;letter-spacing:normal;word-spacing:normal;text-transform:none;direction:ltr;block-progression:tb;writing-mode:lr-tb;baseline-shift:baseline;text-anchor:start;white-space:normal;clip-rule:nonzero;display:inline;overflow:visible;visibility:visible;opacity:1;isolation:auto;mix-blend-mode:normal;color-interpolation:sRGB;color-interpolation-filters:linearRGB;solid-color:#000000;solid-opacity:1;fill:#ffffff;fill-opacity:1;fill-rule:nonzero;stroke:none;stroke-width:1;stroke-linecap:round;stroke-linejoin:bevel;stroke-miterlimit:4;stroke-dasharray:none;stroke-dashoffset:0;stroke-opacity:1;color-rendering:auto;image-rendering:auto;shape-rendering:auto;text-rendering:auto;enable-background:accumulate"
           d="m -76.687676,376.07451 c -1.09087,0.12569 -2.34267,0.62039 -2.901,1.51779 -1.04105,0.27028 -0.97179,1.23784 -1.6092,1.76789 -0.67228,1.12451 -1.46055,2.26457 -1.56974,3.59928 -0.39479,1.33248 -0.13625,2.75585 -0.10982,4.12523 0.3579,0.96592 -0.63738,1.68689 -0.33566,2.6502 0.30478,1.07813 0.70914,2.1545 0.62278,3.29867 -0.18722,0.81828 0.37406,1.52051 1.07923,1.63472 0.27473,1.12634 0.84404,2.15901 1.70877,2.94113 0.80128,0.64369 -0.68219,1.51482 0.0796,2.04483 0.14391,0.44401 0.59224,0.29219 0.95227,0.31321 3.34866,3e-5 6.69731,6e-5 10.04597,9e-5 0.79922,-0.34777 0.77662,-1.44498 0.39991,-2.11068 0.10794,-1.37791 0.7136,-2.66341 1.02365,-4.00394 0.30591,-0.62415 1.73166,-0.24924 1.8693,-1.3406 0.47102,-1.44171 1.03234,-3.07256 0.47692,-4.56835 -0.32501,-0.78995 -1.61474,-0.89169 -0.87325,-1.80076 0.3696,-0.36386 -0.5502,-0.96084 -0.0567,-0.69931 -0.1722,-0.90233 -0.0508,-2.1785 -0.44307,-3.19186 -0.52508,-1.09223 -1.4092,-1.96006 -2.05325,-2.98068 -1.26336,-1.55414 -3.07636,-2.66287 -5.01986,-3.127 -0.5076,0.24975 -1.11702,-0.14936 -1.63608,0.24836 -0.32613,0.0105 -1.91355,-0.55674 -1.4377,-0.11109 -0.0712,-0.0686 -0.14094,-0.14083 -0.21309,-0.20713 z m 2.25976,0.0664 c -0.19106,0.0446 -0.28048,0.0703 0,0 z m -4.13867,1.18946 c 0.0233,0.0213 -0.0166,0.0258 0,0 z"
           id="path4393"
           inkscape:connector-curvature="0" />
        <path
           inkscape:connector-curvature="0"
           id="path4488"
           d="m -76.692506,376.51722 c -0.54225,-0.006 -2.26073,0.71451 -2.26073,1.01029 0,0.0712 0.51485,0.0124 0.76744,-0.0872 0.13303,-0.0525 0.1301,-0.0587 -0.0362,-0.067 l -0.18247,-0.009 0.16905,-0.0671 c 0.093,-0.0373 0.21383,-0.1132 0.26968,-0.16904 0.0558,-0.0558 0.26036,-0.12486 0.45349,-0.15296 0.19312,-0.0281 0.42339,-0.0985 0.51252,-0.15563 0.10532,-0.0677 0.38725,-0.10721 0.80501,-0.1127 0.60695,-0.008 0.62315,-0.0115 0.27772,-0.0711 -0.20121,-0.0347 -0.41243,-0.0462 -0.46959,-0.0255 -0.0571,0.0207 -0.12588,0.002 -0.15295,-0.0416 -0.021,-0.0339 -0.0755,-0.0501 -0.15295,-0.051 z m 2.29292,0.0671 c -0.0161,0.007 -0.0188,0.0251 -0.0188,0.0483 0,0.034 0.30534,0.15122 0.67754,0.26162 0.37221,0.1104 0.78424,0.26444 0.91637,0.34079 0.13213,0.0763 0.4623,0.17321 0.73255,0.21601 0.4539,0.0718 0.52186,0.10762 0.89356,0.47227 0.22132,0.21712 0.56625,0.46466 0.76744,0.55009 0.41704,0.17706 0.69708,0.41098 0.69365,0.5796 -0.002,0.10363 -0.011,0.10312 -0.0912,10e-4 -0.2434,-0.3089 -0.83754,-0.51183 -0.73792,-0.25223 0.028,0.0731 -0.003,0.1094 -0.0939,0.11002 -0.28194,0.002 -0.37133,0.12956 -0.18381,0.26162 0.0943,0.0664 0.22976,0.25785 0.30188,0.42398 l 0.13149,0.30187 0.0523,-0.20125 c 0.056,-0.21266 0.14929,-0.26268 0.20528,-0.11001 0.0246,0.0671 0.056,0.0702 0.11941,0.0107 0.0657,-0.0616 0.0438,-0.13291 -0.0939,-0.29651 l -0.18113,-0.21467 0.32066,0.0738 c 0.23548,0.0546 0.3252,0.11341 0.34079,0.22272 0.0142,0.0993 0.16192,0.21747 0.44409,0.35421 0.47518,0.23029 0.85034,0.65229 1.43962,1.62343 0.51844,0.85442 1.00576,1.88211 0.90965,1.91591 -0.0576,0.0203 -0.0598,0.13939 -0.009,0.41055 0.039,0.20982 0.0518,0.6492 0.0295,0.97674 -0.0221,0.32754 -0.0182,0.61635 0.008,0.64266 0.33723,0.33729 0.51343,-0.85583 0.26699,-1.80857 -0.0646,-0.24981 -0.12583,-0.56892 -0.13551,-0.70975 -0.0256,-0.3699 -0.32253,-0.90388 -0.93783,-1.68917 -0.29673,-0.3787 -0.69359,-0.92507 -0.88282,-1.21288 -0.85281,-1.29703 -2.54218,-2.52138 -4.31886,-3.13013 -0.70087,-0.24014 -0.78484,-0.20044 -0.23479,0.11002 0.59635,0.33667 0.46249,0.33573 -0.45349,-10e-4 -0.65177,-0.23981 -0.82916,-0.30386 -0.87745,-0.28176 z m -0.34213,0.22004 c -0.41988,-0.0236 -0.87878,0.0145 -1.14713,0.12746 -0.12775,0.0539 0.003,0.0638 0.483,0.0362 0.44512,-0.0256 0.78925,-0.005 1.06127,0.0657 0.55748,0.14394 0.62449,0.14644 0.5152,0.0148 -0.11149,-0.13434 -0.49246,-0.22053 -0.91234,-0.24419 z m -1.95214,0.0979 c -0.0219,-0.0218 -0.10223,0.008 -0.17979,0.0671 -0.0775,0.0587 -0.10874,0.10809 -0.0684,0.10867 0.10871,0.002 0.29416,-0.1298 0.2482,-0.17576 z m 0.43471,0.17845 c -0.1446,0 -0.14289,0.005 0.0228,0.13953 0.24083,0.19526 0.17775,0.2161 -0.44946,0.14221 -0.59573,-0.0702 -1.1385,-0.0267 -1.21556,0.098 -0.034,0.055 0.12143,0.0628 0.52057,0.0255 0.51947,-0.0487 0.56567,-0.043 0.52192,0.0711 -0.0387,0.10082 -0.0167,0.11767 0.11672,0.0859 0.091,-0.0217 0.46297,-0.0998 0.82513,-0.17308 0.65219,-0.13213 0.65456,-0.13282 0.29248,-0.15563 -0.22144,-0.014 -0.38838,-0.0652 -0.42396,-0.1288 -0.0323,-0.0578 -0.1277,-0.10465 -0.21064,-0.10465 z m 2.05544,0.14624 c -0.18181,0 -0.009,0.26319 0.2254,0.34347 0.29763,0.10172 1.31618,0.12571 1.31618,0.0308 0,-0.0911 -0.24161,-0.14427 -0.89623,-0.19991 -0.31186,-0.0265 -0.56619,-0.0769 -0.56619,-0.11136 0,-0.0346 -0.0359,-0.0631 -0.0792,-0.0631 z m -0.96198,0.26833 c -0.0221,-0.0231 -0.0863,0.0102 -0.19723,0.0939 -0.1124,0.0848 -0.1582,0.17431 -0.1288,0.2509 0.0694,0.18097 0.16779,0.14267 0.26968,-0.10331 0.0578,-0.13942 0.0784,-0.21836 0.0563,-0.24151 z m 0.26297,0.19186 c -0.0163,0.0163 0.0405,0.11926 0.12612,0.22809 0.15772,0.20043 0.35825,0.22923 0.41458,0.0604 0.0289,-0.0866 -0.4742,-0.35489 -0.5407,-0.28846 z m -3.69229,0.0979 c -0.30852,-0.0261 -1.04017,0.25456 -1.43827,0.61448 -0.3,0.27127 -0.29673,0.29043 0.0376,0.29249 0.28158,0.001 0.84018,0.2144 0.92576,0.35286 0.0326,0.0526 -0.0665,0.0637 -0.30993,0.0349 -0.42191,-0.05 -0.58333,0.0806 -0.19052,0.1543 0.3205,0.0601 0.29631,0.22046 -0.0349,0.23077 -0.1434,0.004 -0.29936,0.0727 -0.3958,0.17307 l -0.15966,0.16637 0.20126,-0.0349 c 0.11066,-0.0193 0.20125,-0.0112 0.20125,0.0174 0,0.12765 -0.43459,0.63272 -0.62791,0.72987 -0.11747,0.059 -0.22711,0.11568 -0.24284,0.12612 -0.0158,0.0104 0.0157,0.0717 0.0698,0.13685 0.0866,0.10435 0.0775,0.11624 -0.0805,0.0939 -0.40269,-0.0568 -0.11601,-0.92926 0.54205,-1.65026 l 0.37566,-0.4119 -0.25626,0.051 c -0.45765,0.0907 -0.74355,0.49029 -1.9414,2.71688 -0.57788,1.07418 -0.66636,2.30394 -0.42665,5.90875 0.0415,0.62434 0.0362,0.64927 -0.18515,0.99417 -0.31179,0.48579 -0.30536,0.89967 0.0268,1.86896 0.30515,0.89046 0.40108,1.45248 0.41324,2.42173 0.014,1.11172 0.0332,1.16337 0.4508,1.21153 0.4575,0.0527 0.52523,0.13405 0.74597,0.89624 0.27402,0.94614 0.49638,1.32537 1.21825,2.07288 0.74637,0.77287 0.78111,0.89047 0.47092,1.62745 -0.0984,0.23379 -0.2168,0.57464 -0.26297,0.75805 -0.005,0.0223 -0.0192,0.0478 -0.0269,0.0711 l 0.16904,0 c 0.095,-0.24812 0.16464,-0.22112 0.27907,0 l 0.24016,0 c -0.11237,-0.25177 -0.13846,-0.50389 -0.0711,-0.75402 0.0444,-0.16476 0.0825,-0.42782 0.0845,-0.58497 0.004,-0.31868 0.0297,-0.33514 0.26297,-0.17173 0.45004,0.31523 0.081,-0.15956 -0.74329,-0.95528 -0.78245,-0.75532 -0.91805,-0.91951 -0.96332,-1.17128 -0.0289,-0.16095 -0.0853,-0.3573 -0.12612,-0.43604 -0.0408,-0.0787 -0.1337,-0.38181 -0.20661,-0.67353 -0.19412,-0.77679 -0.54806,-1.39469 -0.70707,-1.23568 -0.0289,0.0288 0.005,0.0843 0.0751,0.12344 0.16895,0.095 0.16849,0.30493 -0.001,0.2576 -0.0704,-0.0196 -0.20205,-0.0572 -0.29249,-0.0832 -0.2465,-0.0709 -0.28668,-0.36308 -0.10197,-0.7433 0.19944,-0.41068 0.1977,-0.43701 -0.055,-0.97137 -0.11615,-0.24559 -0.23453,-0.63266 -0.26297,-0.86001 -0.0284,-0.22736 -0.098,-0.45894 -0.15429,-0.5152 -0.18457,-0.18458 -0.40487,-1.06705 -0.38104,-1.52281 0.028,-0.53613 0.14417,-0.58352 0.2576,-0.10599 0.13668,0.57534 0.31262,0.78461 0.31262,0.37164 0,-0.4439 0.20089,-1.76407 0.3703,-2.4338 0.17339,-0.68419 0.17376,-0.64668 -0.004,-0.64668 -0.19711,0 -0.18471,-0.0493 0.0644,-0.25895 0.11594,-0.0976 0.22736,-0.26158 0.24687,-0.36359 0.0876,-0.45808 -0.25305,-0.16441 -0.63193,0.54472 -0.3186,0.5964 -0.32076,0.58609 -0.38238,-1.57378 l -0.0523,-1.80322 0.15831,0.0497 c 0.0944,0.0299 0.15832,0.0186 0.15832,-0.0282 0,-0.0429 -0.0496,-0.0778 -0.11002,-0.0778 -0.15531,0 -0.14668,-0.0271 0.24553,-0.84123 0.44083,-0.91518 0.56077,-1.03468 0.61717,-0.61449 0.0592,0.44103 -0.0136,0.77872 -0.17576,0.82111 -0.1694,0.0443 -0.28443,0.33278 -0.28443,0.71243 -10e-6,0.33306 0.0786,0.36855 0.22271,0.0993 0.0557,-0.10407 0.21966,-0.28342 0.36494,-0.39848 0.17333,-0.13728 0.29668,-0.31794 0.35823,-0.52459 0.25895,-0.8689 0.59932,-1.38595 1.48657,-2.26073 0.47307,-0.46643 0.86001,-0.88241 0.86001,-0.92575 0,-0.10432 -0.75775,-0.26906 -0.79024,-0.17174 -0.0285,0.0854 -0.23479,0.0207 -0.23479,-0.0738 0,-0.22735 1.00495,0.0236 1.23568,0.30858 0.12556,0.15508 0.44812,0.0805 0.44812,-0.10331 0,-0.10125 -0.5256,-0.28573 -1.04248,-0.36627 -0.45377,-0.0707 -0.72069,-0.26827 -0.36628,-0.27102 0.19848,-0.001 0.64465,-0.1733 0.66279,-0.25491 0.019,-0.0855 -0.0367,-0.12815 -0.13953,-0.13686 z m 6.25891,0.0322 c -0.17566,-0.009 -0.32603,0.01 -0.32603,0.0631 0,0.0376 0.0906,0.0825 0.20126,0.0993 0.53235,0.0806 0.80059,0.0548 0.60375,-0.0577 -0.10212,-0.0584 -0.30331,-0.0956 -0.47898,-0.10466 z m -5.14263,0.009 c -0.19719,-0.0297 -0.26645,0.0154 -0.19723,0.12747 0.0337,0.0545 0.0964,0.0507 0.20796,-0.0121 l 0.161,-0.0899 -0.17173,-0.0255 z m 5.8886,0.0174 c -0.0545,-0.008 -0.0159,0.0681 0.11808,0.24151 0.0784,0.10135 0.2266,0.0484 0.16099,-0.0577 -0.023,-0.0372 -0.11011,-0.10441 -0.1932,-0.14892 -0.0389,-0.0208 -0.0677,-0.0324 -0.0859,-0.0349 z m -2.21108,0.13954 c -0.0635,-0.0244 -0.17032,0.009 -0.23613,0.0751 -0.11089,0.11081 -0.10104,0.11941 0.11672,0.11941 0.24571,0 0.3183,-0.11823 0.11941,-0.19454 z m -2.98925,0.0349 c -0.0355,0.008 -0.0771,0.0352 -0.13014,0.0845 -0.15841,0.14755 -0.55866,0.21991 -0.7661,0.1382 -0.0735,-0.0289 -0.33011,-0.0522 -0.57155,-0.0523 -0.46745,-2e-4 -0.46143,0.004 0.29248,0.26431 0.54591,0.18827 0.51173,0.18612 0.62388,0.051 0.0517,-0.0622 0.1379,-0.0967 0.19052,-0.0765 0.0526,0.0202 0.11443,0.005 0.13819,-0.0335 0.0238,-0.0385 0.12317,-0.0698 0.22138,-0.0698 0.18792,0 0.23541,-0.13356 0.0966,-0.27236 -0.0304,-0.0304 -0.0598,-0.0416 -0.0953,-0.0335 z m 4.22225,0.0872 c -0.0955,0 -0.0846,0.0365 0.055,0.18516 0.17356,0.18475 0.3647,0.21411 0.41458,0.0644 0.0287,-0.0862 -0.27938,-0.24956 -0.46959,-0.24956 z m -0.36896,0.0912 c -0.0473,-0.007 -0.0899,0.0437 -0.0899,0.15832 0,0.123 0.0394,0.18918 0.11404,0.18918 0.0764,0 0.10676,-0.0541 0.0912,-0.15967 -0.0172,-0.11709 -0.0682,-0.18093 -0.11539,-0.18783 z m 1.22496,0.006 c -0.0322,6.9e-4 -0.0616,0.009 -0.0818,0.0295 -0.19844,0.19844 -0.0979,0.42134 0.22943,0.50715 0.4316,0.11317 0.46806,0.1129 0.57155,0.009 0.15659,-0.15658 0.10522,-0.29719 -0.0899,-0.24821 -0.21578,0.0541 -0.40787,-0.0123 -0.40787,-0.13953 0,-0.0866 -0.12484,-0.1605 -0.22137,-0.15832 z m -2.22719,0.20125 c -0.30862,-0.009 -0.78174,0.0492 -0.86001,0.12746 -0.0668,0.0668 0.0133,0.084 0.34883,0.0778 0.57439,-0.0114 0.9261,-0.0927 0.74463,-0.17174 -0.0458,-0.02 -0.13057,-0.0304 -0.23345,-0.0335 z m -1.80857,0.17576 c -0.0442,-0.0442 -1.23905,0.16732 -1.29606,0.22942 -0.0636,0.0692 0.90891,-0.0351 1.13774,-0.12209 0.10583,-0.0403 0.17673,-0.0889 0.15832,-0.10733 z m 5.89934,1.34033 c -0.16604,-0.0363 -0.29425,0.11322 -0.20796,0.33811 0.0531,0.1383 0.0473,0.13765 0.28175,0.0308 0.20899,-0.0952 0.22475,-0.14018 0.0979,-0.26699 -0.0573,-0.0573 -0.11639,-0.0899 -0.17174,-0.10197 z m 0.60241,0.16905 c -0.0801,0.0337 0.0528,0.38698 0.30054,0.6695 0.15707,0.17906 0.26663,0.12256 0.29383,-0.15295 0.0179,-0.18145 -0.005,-0.23211 -0.106,-0.23211 -0.0708,0 -0.21988,-0.0891 -0.33274,-0.19722 -0.0777,-0.0744 -0.12892,-0.0984 -0.15563,-0.0872 z m -4.75624,0.36494 c -0.0727,0 -0.113,0.0218 -0.0859,0.0657 0.0249,0.0403 0.15066,0.0712 0.27907,0.0684 0.19679,-0.004 0.21056,-0.0155 0.0872,-0.0684 -0.10211,-0.0439 -0.20771,-0.0657 -0.28042,-0.0657 z m 4.52547,0.0362 c -0.01,0.009 -0.0242,0.0275 -0.0416,0.055 -0.16444,0.26008 -0.0989,0.61121 0.18515,0.99821 0.28502,0.38827 0.44782,0.47932 0.36225,0.20259 -0.10678,-0.34535 -0.33267,-0.71377 -0.43738,-0.71377 -0.0862,0 -0.10033,-0.0657 -0.0671,-0.31127 0.0258,-0.19099 0.0287,-0.25636 -10e-4,-0.23077 z m -5.89129,0.10196 c -0.0852,0 -0.13482,0.0335 -0.11002,0.0738 0.0249,0.0402 0.0745,0.0725 0.11002,0.0725 0.0355,0 0.0839,-0.0322 0.10867,-0.0725 0.0249,-0.0402 -0.0234,-0.0738 -0.10867,-0.0738 z m 4.54426,0.24687 c -0.0373,-0.003 -0.0716,0.004 -0.0953,0.0188 -0.0585,0.0361 -0.0412,0.0697 0.055,0.10465 0.18546,0.0674 0.30443,-0.005 0.15027,-0.0912 -0.0329,-0.0184 -0.0727,-0.0297 -0.11001,-0.0322 z m 1.78844,0.15564 c -0.01,-0.001 -0.0174,0.003 -0.0214,0.0148 -0.0163,0.0481 0.007,0.15476 0.051,0.23748 0.0442,0.0827 0.11311,0.15161 0.15296,0.15161 0.0398,0 0.017,-0.10805 -0.051,-0.23882 -0.0509,-0.0981 -0.1021,-0.16015 -0.13149,-0.16503 z m 0.58095,0.0979 c -0.008,0.003 -0.0138,0.0145 -0.0188,0.0362 -0.0168,0.0736 0.01,0.23134 0.059,0.35017 0.12908,0.31164 0.16783,0.20793 0.0617,-0.16502 -0.0442,-0.15527 -0.079,-0.23025 -0.10197,-0.22138 z m -6.25623,0.1221 c -0.0501,3.6e-4 -0.0958,0.0111 -0.13417,0.0335 l 0,0.001 c -0.0927,0.0541 -0.0514,0.0698 0.17174,0.0684 0.25596,-0.002 0.27035,-0.0111 0.12075,-0.0711 -0.0539,-0.0218 -0.10822,-0.0326 -0.15832,-0.0322 z m -2.67262,0.22137 c -0.0324,0.009 -0.0924,0.0459 -0.18247,0.11002 l -0.24686,0.17576 0.17978,0.051 c 0.27483,0.0766 0.42199,0.0725 0.47495,-0.0134 0.0265,-0.0429 -0.0189,-0.0968 -0.10062,-0.11806 -0.10026,-0.0261 -0.13347,-0.077 -0.10331,-0.15563 0.0163,-0.0425 0.0109,-0.0591 -0.0214,-0.0497 z m 9.41991,0.0537 c -0.0984,-0.0328 -0.0371,0.12835 0.3931,1.04247 0.20448,0.43447 0.28234,0.54464 0.30322,0.42666 0.0631,-0.35655 -0.42079,-1.3773 -0.69632,-1.46913 z m -12.28438,0.17173 c -0.007,0.0166 -0.0107,0.0517 -0.0107,0.10196 0,0.10059 0.0159,0.14153 0.0362,0.0912 0.0203,-0.0503 0.0203,-0.13218 0,-0.18247 -0.0102,-0.0251 -0.0188,-0.0273 -0.0255,-0.0107 z m 11.64305,0.0483 c -0.15564,-0.06 -0.031,0.43995 0.37567,1.51744 0.0627,0.16619 0.24955,-0.11911 0.24955,-0.38103 0,-0.2625 -0.2915,-0.84359 -0.54069,-1.07603 -0.0336,-0.0314 -0.0623,-0.0518 -0.0845,-0.0604 z m -4.16724,0.13283 c -0.14634,0.004 -0.14634,0.004 0,0.067 0.21877,0.094 0.40169,0.094 0.25626,0 -0.0604,-0.0389 -0.17579,-0.0691 -0.25626,-0.067 z m 3.43066,0.161 c -0.022,0.022 0.0849,0.17727 0.23748,0.34615 0.27135,0.30041 0.40829,0.30182 0.24821,0.003 -0.091,-0.17012 -0.42489,-0.40963 -0.48569,-0.34883 z m -8.04602,0.0537 c -0.18867,10e-4 -0.97622,0.18998 -1.03309,0.24686 -0.0681,0.0682 0.11027,0.0508 0.62253,-0.059 0.46951,-0.10071 0.66396,-0.18989 0.41056,-0.18783 z m 0.55545,0.15966 c -0.0527,0 -0.10585,0.0144 -0.16502,0.0429 -0.14456,0.0697 -0.12404,0.0792 0.16502,0.0792 0.28906,0 0.30955,-0.009 0.16503,-0.0792 -0.0592,-0.0285 -0.11232,-0.0429 -0.16503,-0.0429 z m -2.1829,0.1516 c -0.18923,0.0345 -0.45886,0.16106 -0.57022,0.28578 -0.13554,0.1518 -0.13549,0.15311 0.0456,0.0979 0.32419,-0.0987 0.77114,-0.35192 0.67754,-0.38373 -0.0366,-0.0124 -0.0899,-0.0115 -0.15295,0 z m 8.20702,0.15698 c -0.0266,0.009 -0.0341,0.0602 0,0.14893 l 0,10e-4 c 0.0238,0.062 0.0792,0.1127 0.1221,0.1127 0.0543,0 0.0525,-0.0471 -0.004,-0.15295 -0.0454,-0.0849 -0.0915,-0.11897 -0.11807,-0.11001 z m 0.64669,0.007 c -0.0201,0.0201 0.0233,0.10284 0.0966,0.18381 0.0733,0.081 0.15033,0.13008 0.17039,0.11002 0.0201,-0.0201 -0.0233,-0.10282 -0.0966,-0.18381 -0.0733,-0.081 -0.15034,-0.13008 -0.1704,-0.11002 z m -3.09122,0.0671 c -0.12962,-0.009 -0.48499,0.0464 -0.72585,0.12611 -0.11428,0.0378 -0.018,0.0451 0.25627,0.0188 0.24143,-0.0231 0.47085,-0.0739 0.51117,-0.1127 0.0199,-0.0192 10e-4,-0.0291 -0.0416,-0.0322 z m 3.84122,0.15429 c -0.078,0.022 -0.17286,0.12875 -0.13551,0.18917 0.0624,0.10085 0.25089,0.0768 0.25089,-0.0322 0,-0.0537 -0.0218,-0.11838 -0.0483,-0.1449 -0.0165,-0.0165 -0.0411,-0.0194 -0.0671,-0.0121 z m 0.3703,0.055 c -0.0251,0.005 -0.0215,0.082 0.0335,0.22675 0.067,0.17615 0.0572,0.1932 -0.10733,0.1932 l -0.17979,0 0.17844,0.40384 c 0.0983,0.22247 0.16173,0.45206 0.13954,0.50983 -0.0379,0.0987 0.16688,0.80587 0.38774,1.33632 0.0545,0.13078 0.11962,0.23747 0.1449,0.23747 0.13435,0 -0.2314,-2.15151 -0.45885,-2.69945 -0.0597,-0.14384 -0.11304,-0.21259 -0.13819,-0.20796 z m 1.35107,0.12612 c -0.096,0 -0.0878,0.31266 0.0148,0.56216 0.07,0.17024 0.0903,0.183 0.11672,0.0711 0.0446,-0.18988 -0.0474,-0.63327 -0.13148,-0.63327 z m -3.79829,0.0174 c -0.0622,0.0124 0.0685,0.092 0.2898,0.17709 0.22132,0.0851 0.41288,0.15957 0.42531,0.16369 0.0124,0.005 10e-4,-0.0249 -0.0241,-0.0657 -0.0655,-0.106 -0.5566,-0.30183 -0.69096,-0.27504 z m -8.83762,0.35688 c -0.0132,-2.1e-4 -0.0188,0.0145 -0.0188,0.0443 0,0.045 -0.0198,0.13361 -0.0442,0.19722 l 0,0.001 c -0.0245,0.0638 -0.007,0.11538 0.0389,0.11538 0.12296,0 0.18436,-0.21681 0.0885,-0.31261 -0.0302,-0.0304 -0.0512,-0.0454 -0.0644,-0.0456 z m 13.06658,0.0349 c -0.0769,0.0475 -0.0315,0.46009 0.10197,0.92575 0.0432,0.15091 0.10829,0.27505 0.1449,0.27505 0.0361,0 0.0516,-0.057 0.0322,-0.12746 -0.0193,-0.0704 -0.0555,-0.26033 -0.0805,-0.42129 -0.0889,-0.57221 -0.1271,-0.69629 -0.19856,-0.65205 z m -1.09883,0.0308 c -0.0333,0 -0.0604,0.098 -0.0604,0.21869 0,0.12073 0.0126,0.22004 0.0282,0.22004 0.0157,0 0.0427,-0.0993 0.0604,-0.22004 0.0177,-0.12071 0.005,-0.21869 -0.0282,-0.21869 z m -12.83715,0.0698 c -0.0441,-0.009 -0.18285,0.13389 -0.30992,0.36224 -0.12456,0.2238 -0.19193,0.2865 -0.2348,0.21736 -0.0925,-0.14963 -0.17111,0.1303 -0.14624,0.52057 0.0145,0.22735 0.41744,-0.18973 0.49507,-0.51252 0.0242,-0.1006 0.0908,-0.27664 0.14893,-0.39177 0.0657,-0.13034 0.0734,-0.19048 0.047,-0.19588 z m 8.73163,0.25491 c -0.0585,-0.0225 -0.15733,0.01 -0.22004,0.0725 -0.12843,0.12843 -0.385,0.15232 -0.45348,0.0416 -0.10232,-0.16557 -0.6342,-0.0859 -0.60913,0.0912 0.0216,0.15245 0.0658,0.16664 0.59302,0.1865 0.3897,0.0146 0.55317,0.0457 0.51923,0.10062 -0.0551,0.0892 0.30943,0.0406 0.81305,-0.10867 l 0.2925,-0.0872 -0.43874,-0.0269 -0.43872,-0.0282 0.32871,-0.0939 0.33005,-0.0926 -0.30456,-0.007 c -0.16772,-0.004 -0.35343,-0.0258 -0.41189,-0.0483 z m 5.85641,0.13954 c 0.0129,0.0126 0.0174,0.0469 0.0174,0.10599 0,0.17664 -0.037,0.20428 -0.1127,0.0818 -0.0271,-0.0438 -0.0126,-0.11621 0.0322,-0.161 0.0299,-0.0299 0.0501,-0.0394 0.0631,-0.0269 z m -1.53353,0.0483 c -0.19811,0 0.15673,1.02384 0.47494,1.37119 0.24071,0.26279 0.22492,0.14387 -0.0483,-0.35688 -0.13983,-0.25632 -0.27708,-0.58971 -0.30456,-0.74061 -0.0275,-0.1509 -0.0829,-0.2737 -0.12209,-0.2737 z m -8.77725,0.0121 c -0.0473,-0.0123 -0.0838,-0.0142 -0.0993,10e-4 -0.0188,0.0188 0.0893,0.11575 0.24016,0.21601 0.30452,0.20235 0.33421,0.20764 0.27102,0.0429 -0.0333,-0.0869 -0.26992,-0.22339 -0.4119,-0.26029 z m 2.64444,0.0751 c -0.002,-0.0668 -0.28639,0.29678 -0.28845,0.36896 -6.9e-4,0.03 0.0251,0.055 0.059,0.055 0.0596,0 0.23286,-0.32008 0.22943,-0.42398 z m -3.1261,0.005 c -0.0837,0.0153 -0.12166,0.0702 -0.0403,0.1516 l 0,10e-4 c 0.0258,0.0257 0.14828,0.0457 0.27235,0.0443 0.21418,-0.002 0.21803,-0.008 0.0832,-0.11002 -0.10252,-0.0776 -0.23159,-0.10255 -0.3153,-0.0872 z m 9.74996,0.0161 c -0.02,6.9e-4 -0.0376,0.008 -0.0523,0.0228 -0.0916,0.0916 -0.0154,0.57142 0.10196,0.644 0.0559,0.0345 0.0655,-0.0146 0.0322,-0.161 -0.0556,-0.24374 0.0318,-0.15687 0.26699,0.26699 0.17048,0.30729 0.23042,0.23575 0.12613,-0.15161 -0.0853,-0.31658 -0.33524,-0.62712 -0.47496,-0.6212 z m -10.69316,0.0617 c -0.15367,0.0181 -0.33215,0.13822 -0.81037,0.50044 -0.27251,0.2064 -0.59655,0.41766 -0.72048,0.46959 -0.12391,0.0519 -0.26866,0.14517 -0.32066,0.20796 -0.08,0.0964 -0.073,0.11283 0.0429,0.10733 0.36735,-0.0188 0.86807,-0.18359 0.86807,-0.28578 0,-0.13684 0.92908,-0.63935 1.30008,-0.70303 0.33775,-0.058 0.41662,-0.15717 0.16637,-0.20931 -0.10226,-0.0213 -0.26887,-0.0554 -0.3703,-0.0765 -0.0557,-0.0116 -0.10441,-0.0168 -0.15564,-0.0107 z m 2.29292,0.0483 c -0.0403,0 -0.0138,0.0657 0.059,0.14624 0.0728,0.0805 0.16496,0.14624 0.20528,0.14624 0.0403,0 0.0138,-0.0657 -0.059,-0.14624 -0.0728,-0.0805 -0.16495,-0.14624 -0.20528,-0.14624 z m 4.18603,0.15832 c -0.38821,0.006 -0.35993,0.0805 0.12478,0.20259 0.70804,0.17829 1.18635,0.50372 1.42754,0.97406 0.0774,0.1509 0.19035,0.27504 0.25224,0.27504 0.0619,0 0.0933,-0.0335 0.0684,-0.0738 -0.0633,-0.10244 0.0616,-0.0914 0.16771,0.0148 0.0681,0.068 0.0872,0.0679 0.0872,0 0,-0.15921 -0.49414,-0.63837 -0.83318,-0.80769 -0.42804,-0.21379 -0.4829,-0.3051 -0.13551,-0.22674 0.31336,0.0707 0.42555,0.006 0.29249,-0.16905 -0.0711,-0.0936 -0.27877,-0.13217 -0.92576,-0.17174 -0.22041,-0.0135 -0.39653,-0.0196 -0.52594,-0.0174 z m -0.87074,0.28712 c -0.1006,-0.002 -0.23211,0.028 -0.29249,0.0671 -0.144,0.0931 0.11216,0.0931 0.32871,0 0.13398,-0.0576 0.1313,-0.0637 -0.0362,-0.0671 z m -8.40694,0.21332 c -0.0672,0 -0.29919,0.36636 -0.29919,0.47227 0,0.0738 0.12714,0.0416 0.20125,-0.051 0.11883,-0.14849 0.18219,-0.42129 0.0979,-0.42129 z m 12.92167,0.0832 c -0.0146,-0.003 -0.0293,0.0347 -0.0577,0.11136 -0.0988,0.26711 0.0766,1.19927 0.33676,1.79247 0.21928,0.49987 0.23733,0.5915 0.16905,0.83855 -0.10136,0.36708 -0.0403,0.7729 0.15832,1.05188 0.16568,0.23269 0.16293,0.87745 -0.004,0.87745 -0.0378,0 -0.0698,0.0832 -0.0698,0.18381 0,0.46184 0.27688,0.008 0.34481,-0.56485 0.0315,-0.26537 0.0126,-0.38455 -0.0765,-0.483 -0.0752,-0.0831 -0.13418,-0.32826 -0.16235,-0.67487 -0.0498,-0.61156 0.0326,-0.59396 0.22138,0.0483 0.0962,0.32724 0.33139,0.67551 0.33139,0.49105 0,-0.10357 -0.70246,-2.17286 -0.79829,-2.35196 -0.0555,-0.10377 -0.0587,-0.15966 -0.009,-0.15966 0.14175,0 0.0769,-0.42703 -0.0966,-0.63461 -0.0951,-0.11375 -0.1981,-0.28916 -0.22942,-0.38908 -0.0279,-0.0891 -0.0431,-0.13362 -0.0577,-0.13686 z m -9.38099,0.0523 0.17307,0.15161 c 0.095,0.0835 0.20169,0.15161 0.23748,0.15161 0.0786,0 0.0891,-0.21866 0.0107,-0.22004 -0.0302,-4.8e-4 -0.13688,-0.0203 -0.23747,-0.0429 l -0.18381,-0.0403 z m 3.38236,0.0282 c -0.047,0.0225 -0.0815,0.11217 -0.12611,0.27773 -0.0834,0.30957 -0.0877,0.30974 -0.45752,0.0537 -0.11426,-0.0791 -0.20125,-0.10421 -0.20125,-0.0577 0,0.14903 0.82656,1.79566 0.85734,1.70796 0.0216,-0.0614 0.11449,-0.0476 0.3287,0.0483 0.16485,0.0738 0.34828,0.11631 0.40653,0.0939 0.0743,-0.0285 0.043,-0.0677 -0.10331,-0.13014 -0.41317,-0.17638 -1.06974,-0.95929 -0.96466,-1.14982 0.079,-0.14332 0.0949,-0.14909 0.11807,-0.0389 0.0401,0.19108 0.33435,0.23187 0.72718,0.0993 l 0.35018,-0.11806 -0.22003,0.1771 c -0.35065,0.28275 -0.15464,0.30466 0.37701,0.0429 l 0.48971,-0.24016 0.26162,0.30456 c 0.33915,0.3943 0.56915,0.40452 0.86941,0.0403 l 0.21601,-0.26163 0.0442,0.18112 c 0.10483,0.4177 1.53678,1.17998 1.63819,0.8721 0.0192,-0.0582 -0.0119,-0.0754 -0.0859,-0.047 -0.16361,0.0628 -0.42338,-0.12272 -1.13908,-0.8144 -0.96487,-0.93247 -1.33892,-1.0108 -2.41502,-0.50581 l -0.58631,0.27639 -0.18247,-0.17174 c -0.22162,-0.20815 -0.22753,-0.26761 -0.0308,-0.33005 0.14439,-0.0458 0.14588,-0.0548 0.0255,-0.18783 -0.091,-0.10059 -0.15017,-0.14465 -0.19722,-0.1221 z m -1.37521,0.0563 c -0.12602,0.002 -0.28463,0.0312 -0.38372,0.0832 -0.19664,0.10317 -0.2751,0.22555 -0.41592,0.64803 -0.13884,0.41649 -0.31774,0.4496 -0.96199,0.17844 -1.04168,-0.43843 -2.54917,0.19869 -2.54917,1.07736 l 0,0.21065 0.28979,-0.14893 c 0.15937,-0.0813 0.36404,-0.14831 0.45617,-0.14893 l 0.16771,-0.001 -0.17576,-0.13551 c -0.24414,-0.18769 -0.16106,-0.34283 0.29786,-0.55545 l 0.38104,-0.17576 0.0845,0.16099 c 0.11565,0.21889 -0.0118,0.35639 -0.15295,0.16503 -0.0913,-0.12359 -0.10466,-0.12647 -0.10466,-0.0188 0,0.17063 0.26015,0.41591 0.44142,0.41591 0.23024,0 0.53185,-0.33901 0.49105,-0.55276 -0.0379,-0.19825 0.0407,-0.22264 0.34749,-0.106 0.1057,0.0402 0.17256,0.1053 0.14893,0.14356 -0.0237,0.0383 0.0226,0.10438 0.10331,0.14759 0.12024,0.0644 0.13976,0.0592 0.10465,-0.0322 -0.0345,-0.0899 0.022,-0.11136 0.29383,-0.11136 0.40502,0 0.40028,-0.051 0.0523,0.64133 -0.15628,0.31097 -0.33548,0.68899 -0.39848,0.83988 -0.16979,0.40677 -0.0504,0.33291 0.30189,-0.18649 0.36107,-0.53244 0.67011,-1.3488 0.67217,-1.77369 0.002,-0.3859 0.16795,-0.61986 0.44007,-0.61986 0.11605,0 0.23139,-0.0321 0.25626,-0.0724 0.0313,-0.0508 -0.0618,-0.0748 -0.18783,-0.0725 z m -6.21598,0.0724 c -0.0863,0 -0.1877,0.19927 -0.2509,0.49374 -0.0587,0.2731 -0.009,0.30931 0.1127,0.0818 0.13146,-0.24647 0.21083,-0.57558 0.1382,-0.57558 z m 14.73159,0.38506 c -0.0403,-0.004 -0.0698,0.10907 -0.0657,0.3797 0.003,0.22296 0.0302,0.40497 0.0604,0.40518 0.0302,2.4e-4 0.055,0.42815 0.055,0.95125 0,1.00567 0.056,1.14741 0.27235,0.69365 0.11506,-0.24144 0.11451,-0.2824 0,-0.63998 -0.0673,-0.21018 -0.13088,-0.65268 -0.14221,-0.98345 -0.016,-0.46713 -0.11266,-0.79937 -0.17979,-0.80635 z m -13.0062,0.0805 c -0.0195,-0.003 -0.0731,0.024 -0.17711,0.0778 -0.24057,0.12442 -0.44811,0.37931 -0.44811,0.54875 0,0.11799 0.47153,-0.30183 0.5957,-0.52997 0.0341,-0.0626 0.049,-0.0941 0.0295,-0.0966 z m 13.75888,0.0993 c -0.0317,-0.0593 -0.0899,0.12228 -0.10868,0.40921 -0.005,0.0728 0.0241,0.11208 0.0644,0.0872 0.0403,-0.0249 0.0692,-0.18288 0.0644,-0.35152 -0.002,-0.0783 -0.01,-0.12515 -0.0201,-0.1449 z m -5.53173,0.0201 c 0.0757,0 0.1576,0.0335 0.18247,0.0738 0.0264,0.0427 -0.049,0.0725 -0.18247,0.0725 -0.13343,0 -0.20898,-0.0297 -0.18247,-0.0725 0.0249,-0.0402 0.10676,-0.0738 0.18247,-0.0738 z m -1.0787,0.60912 c -0.0704,0.0183 -0.0134,0.0322 0.12745,0.0322 0.14081,0 0.19925,-0.0138 0.1288,-0.0322 -0.0704,-0.0184 -0.18581,-0.0184 -0.25625,0 z m -1.96288,0.18112 c -0.0275,-0.007 -0.0385,0.0299 -0.0228,0.12478 0.0132,0.0805 -0.002,0.18792 -0.0335,0.23882 -0.0363,0.0579 0.07,0.28519 0.28444,0.60777 0.42112,0.63344 0.45357,0.61334 0.2187,-0.13014 -0.12992,-0.41123 -0.3642,-0.82142 -0.44679,-0.84123 z m -5.81482,0.161 c -0.0781,0 -0.14221,0.0335 -0.14221,0.0738 0,0.0402 0.0835,0.0724 0.18649,0.0724 0.10629,0 0.16784,-0.0311 0.14222,-0.0724 -0.0249,-0.0402 -0.10839,-0.0738 -0.1865,-0.0738 z m 14.03259,0.11136 c -0.0687,-0.0102 -0.0704,0.0566 -0.0107,0.21199 0.0245,0.0638 0.0903,0.11538 0.14624,0.11538 0.15334,0 0.12258,-0.20319 -0.0442,-0.29249 -0.038,-0.0203 -0.0683,-0.0315 -0.0912,-0.0349 z m -9.01203,0.0657 c -0.0262,-0.013 -0.0706,-0.0104 -0.13283,0.008 -0.21993,0.0653 -0.30061,0.17849 -0.53667,0.75402 -0.44678,1.0893 -0.83608,1.82858 -1.19275,2.26743 -0.20699,0.25467 -0.35923,0.48869 -0.33944,0.52057 0.0484,0.0783 -0.34699,1.23248 -0.61181,1.78712 -0.12183,0.25513 -0.23277,0.63657 -0.25894,0.88684 -0.0702,0.67109 0.0879,0.3885 0.54472,-0.97003 0.53051,-1.57812 1.03528,-2.66016 0.73792,-1.58317 -0.0945,0.34211 -0.0641,0.37966 0.14758,0.18246 0.29789,-0.27754 0.43717,-0.0899 0.36225,0.48703 -0.007,0.0505 0.0646,0.0912 0.15967,0.0912 0.0945,0 0.28358,0.0819 0.41994,0.18247 0.32211,0.23768 0.87746,0.26422 0.87746,0.0416 0,-0.18488 -0.0671,-0.22122 -0.50984,-0.27371 -0.52965,-0.0627 -0.71054,-0.23163 -0.51387,-0.48166 0.17937,-0.22796 0.18279,-0.27294 0.0188,-0.27638 -0.20468,-0.004 0.26645,-0.35308 0.54874,-0.40653 0.27326,-0.0517 0.30197,-0.13596 0.0872,-0.25089 -0.26866,-0.14379 -0.5304,-0.0565 -0.72182,0.24016 -0.24663,0.38219 -0.47862,0.21036 -0.428,-0.31663 0.0414,-0.43069 0.7376,-1.93929 1.09884,-2.38148 0.23873,-0.29223 0.32161,-0.4695 0.24284,-0.50849 z m -1.52952,0.067 c -0.0475,-0.0475 -0.70706,0.22665 -0.70706,0.29383 0,0.1003 0.44758,-0.01 0.59973,-0.14758 0.0733,-0.0664 0.12141,-0.13216 0.10733,-0.14625 z m -4.59121,0.051 c 0.0476,-0.0114 0.0798,0.005 0.0792,0.051 -10e-4,0.16183 -0.35951,0.49252 -0.36225,0.33407 -10e-4,-0.0877 0.0482,-0.21184 0.11136,-0.27504 0.0606,-0.0606 0.1241,-0.0986 0.17173,-0.11002 z m 8.57867,0.38775 c -0.0353,-0.006 -0.0592,-3.1e-4 -0.0738,0.0148 -0.0945,0.0976 0.68646,0.69829 1.10688,0.85196 0.23262,0.085 0.44041,0.18497 0.46288,0.22138 0.0233,0.0378 0.0817,0.0326 0.13551,-0.0121 0.0517,-0.0429 0.14786,-0.0574 0.21333,-0.0322 0.0655,0.0251 0.11806,0.011 0.11806,-0.0308 0,-0.0418 0.0608,-0.0948 0.13417,-0.11807 0.30393,-0.0965 0.57723,-0.48032 0.34213,-0.48032 -0.0604,0 -0.11002,0.0485 -0.11002,0.10733 0,0.36867 -1.01668,0.28328 -1.64624,-0.13819 -0.368,-0.24638 -0.57704,-0.36526 -0.68291,-0.38372 z m 2.92888,0.0497 c -0.0393,0 -0.0923,0.0517 -0.11673,0.11539 -0.0273,0.0713 -0.0105,0.10506 0.0429,0.0872 0.10934,-0.0365 0.16995,-0.20259 0.0738,-0.20259 z m -7.75488,0.0188 c -0.11441,-0.0407 -1.33677,0.32807 -1.44097,0.4347 -0.0842,0.0862 -0.064,0.0811 0.87746,-0.20259 0.36216,-0.10913 0.61599,-0.21343 0.56351,-0.23211 z m 11.92078,0.12209 c -0.0676,-0.007 -0.071,0.0411 0.0242,0.14624 0.12617,0.1394 0.12333,0.15199 -0.0872,0.39177 -0.20886,0.23787 -0.66588,1.33052 -0.58899,1.40742 0.052,0.0519 0.22586,-0.23712 0.37835,-0.62656 0.37992,-0.97023 0.87296,-0.75596 0.9016,0.39177 0.0191,0.76428 -0.0146,0.75887 -0.11807,-0.0188 -0.0445,-0.33485 -0.1185,-0.58658 -0.19454,-0.65876 -0.11416,-0.10838 -0.11982,-0.10039 -0.0765,0.1033 0.14592,0.68626 0.13703,2.34387 -0.0148,2.7813 -0.0835,0.24058 -0.17113,0.55634 -0.19455,0.7017 -0.09,0.55889 -0.85538,0.80266 -1.12567,0.35822 l -0.1449,-0.23747 -0.1194,0.23211 c -0.0658,0.12731 -0.19871,0.26737 -0.29517,0.31126 -0.20776,0.0947 -0.29824,0.28086 -0.17308,0.35823 0.11101,0.0686 -0.026,0.58688 -0.19186,0.72451 -0.0835,0.0693 -0.09,0.12322 -0.0282,0.23881 0.0702,0.13108 0.0607,0.14458 -0.0711,0.11002 -0.12605,-0.033 -0.13723,-0.0193 -0.0725,0.0845 0.0596,0.0955 0.0257,0.22703 -0.15027,0.57558 -0.12536,0.24836 -0.22808,0.50619 -0.22808,0.57289 0,0.0979 -0.0498,0.11261 -0.25626,0.0792 -0.31322,-0.0508 -0.31968,-5.4e-4 -0.0362,0.267 0.26512,0.25017 0.27295,0.39701 0.0671,1.26385 -0.15746,0.66308 -0.15591,0.74168 0.0376,1.41681 0.11095,0.38721 0.10669,0.69659 0.008,0.96869 l 0.16637,0 c 0.16823,-0.48312 0.20417,-0.91654 0.0201,-1.21287 -0.22385,-0.36043 -0.15338,-0.9224 0.2992,-2.3949 0.16588,-0.53968 0.4069,-1.37146 0.53667,-1.84882 0.26654,-0.98058 0.27884,-0.99549 0.86135,-0.99687 0.7601,-0.002 0.971,-0.19458 1.27996,-1.17128 0.68635,-2.16981 0.66948,-3.64999 -0.0483,-4.13773 -0.1651,-0.11219 -0.29735,-0.17433 -0.36494,-0.18112 z m -5.53709,0.0631 c -0.0456,0.005 -0.0686,0.0168 -0.059,0.0322 0.0348,0.0563 0.53801,0.0812 0.53801,0.0269 0,-0.0159 -0.12955,-0.0414 -0.28711,-0.0563 -0.0788,-0.007 -0.14624,-0.008 -0.19186,-0.003 z m -3.70303,0.0308 c -0.0541,0.018 -0.10948,0.0919 -0.12343,0.16368 -0.0161,0.0834 0.009,0.11748 0.0725,0.0966 0.0541,-0.018 0.1109,-0.0906 0.12478,-0.16235 0.0161,-0.0834 -0.0108,-0.11882 -0.0738,-0.0979 z m -5.42975,0.20393 c -0.0604,0 -0.13078,0.0322 -0.15564,0.0725 -0.0248,0.0402 0.004,0.0738 0.0644,0.0738 0.0604,0 0.13077,-0.0335 0.15564,-0.0738 0.0249,-0.0402 -0.004,-0.0725 -0.0644,-0.0725 z m 0.46019,0.0322 c -0.0164,0.0177 0.0462,0.10381 0.18515,0.24956 0.34696,0.36398 0.33273,0.36129 0.33273,0.0657 0,-0.19595 -0.028,-0.23938 -0.16368,-0.24419 -0.0906,-0.003 -0.23079,-0.033 -0.31127,-0.0657 -0.0234,-0.009 -0.0374,-0.0113 -0.0429,-0.005 z m 2.49417,0.0134 -0.20125,0.18918 c -0.55116,0.51735 -1.41692,0.73802 -0.98881,0.25223 0.12424,-0.14087 0.12374,-0.14362 -0.0537,-0.0979 -0.1006,0.026 -0.24082,0.0477 -0.31127,0.0483 -0.0718,5.6e-4 -0.12877,0.0569 -0.13014,0.1288 -0.001,0.0704 -0.053,0.19456 -0.11404,0.27504 -0.10501,0.13813 -0.098,0.149 0.13014,0.19187 l 0,-10e-4 c 0.38714,0.0727 0.91498,0.0717 0.79963,-0.001 -0.18572,-0.11764 -0.007,-0.24432 0.27907,-0.19857 0.39401,0.063 0.59034,-0.0983 0.59034,-0.48434 l 0,-0.30188 z m 3.62923,0.39713 c -0.11565,0.11266 0.75506,1.6555 1.04115,1.84481 0.16009,0.10594 0.52476,0.46988 0.81036,0.80903 0.2856,0.33915 0.59284,0.66836 0.68292,0.73121 0.0901,0.0628 0.16369,0.11601 0.16369,0.11807 -1e-5,0.002 -0.003,-0.16841 -0.008,-0.37969 -0.009,-0.37344 -0.0163,-0.38575 -0.23614,-0.40787 -0.18585,-0.0187 -0.31124,-0.13175 -0.70706,-0.63864 -0.26484,-0.33918 -0.54798,-0.65285 -0.62925,-0.69633 -0.0813,-0.0435 -0.20688,-0.21687 -0.27907,-0.38506 -0.13779,-0.32118 -0.76573,-1.06648 -0.83854,-0.99553 z m -2.10106,0.6856 c -0.14368,-0.008 -0.35823,0.19212 -0.35823,0.40518 0,0.11037 0.11494,0.0931 0.22004,-0.0335 0.0501,-0.0605 0.13642,-0.11001 0.19186,-0.11001 0.11382,0 0.11851,-0.015 0.0563,-0.1771 -0.0216,-0.0563 -0.0621,-0.0819 -0.11001,-0.0845 z m 0.73658,0.33408 c -0.11143,0 -0.0823,0.16312 0.0751,0.42128 0.17643,0.28937 0.32239,0.32238 0.21869,0.0497 -0.11714,-0.30813 -0.21892,-0.47092 -0.29383,-0.47092 z m 0.91234,0.29919 c -0.10245,-0.006 -0.17608,0.0304 -0.20662,0.11002 -0.0775,0.20184 -0.0503,0.23938 0.1932,0.26968 0.70557,0.0876 0.81105,0.0249 0.39311,-0.23345 -0.14678,-0.0908 -0.27724,-0.13986 -0.37969,-0.14625 z m 7.79648,0.2026 c -0.0234,0.0399 -0.0362,0.20589 -0.0362,0.50446 0,0.27161 -0.0266,0.61849 -0.059,0.77147 l 0,10e-4 -0.059,0.27773 0.42531,-0.0228 c 0.48187,-0.025 0.6011,-0.20034 0.31395,-0.4602 -0.1502,-0.13599 -0.15212,-0.13567 -0.1932,0.0214 -0.0636,0.24326 -0.15891,0.1237 -0.20796,-0.26163 -0.0781,-0.61368 -0.14485,-0.89837 -0.18381,-0.83183 z m -1.52281,0.0698 c -0.0621,-0.063 -0.0241,1.39782 0.0403,1.55098 0.0254,0.0604 0.0786,-0.10133 0.11807,-0.35957 0.0688,-0.44886 -0.0104,-1.04129 -0.15832,-1.19141 z m -13.65825,0.0524 c -0.0559,0.003 -0.0575,0.11362 0.008,0.28443 0.0243,0.0634 0.074,0.0975 0.11001,0.0751 0.10003,-0.0618 0.0781,-0.22315 -0.0443,-0.32469 -0.0301,-0.0251 -0.0552,-0.0358 -0.0738,-0.0349 z m 8.18019,0.13416 c -0.0481,-0.015 -0.13096,0.0284 -0.28041,0.12075 -0.27808,0.17185 -0.26673,0.25869 0.0389,0.31261 0.28052,0.0495 0.33024,0.0163 0.31396,-0.20259 -0.0106,-0.14241 -0.0244,-0.21572 -0.0725,-0.23077 z m -1.24239,0.16101 c -0.0302,0.004 -0.0667,0.0158 -0.10733,0.0376 -0.1612,0.0863 -0.18018,0.21332 -0.0322,0.21332 0.13067,0 0.40787,0.44177 0.40787,0.64938 0,0.18667 -0.12135,0.20068 -0.30456,0.0349 -0.14871,-0.13459 -0.1707,-0.0578 -0.0631,0.22539 l 0,10e-4 c 0.15229,0.40055 0.4612,0.0365 0.42665,-0.50313 -0.0181,-0.28359 -0.0502,-0.34741 -0.18918,-0.38238 -0.12148,-0.0306 -0.14557,-0.066 -0.0912,-0.13148 0.0791,-0.0953 0.0438,-0.15662 -0.047,-0.1449 z m 7.51875,0.29248 c -0.1132,-0.07 -0.44544,0.28847 -0.44544,0.48032 0,0.089 0.007,0.14738 0.0174,0.13014 0.01,-0.0172 0.12869,-0.15059 0.26297,-0.29651 0.15176,-0.16488 0.21407,-0.28359 0.16503,-0.31395 z m -8.55989,0.18381 c -0.0631,-0.0123 -0.0873,0.0773 -0.0416,0.22137 0.0475,0.14975 0.0576,0.15249 0.12343,0.0349 0.0486,-0.0868 0.0469,-0.15431 -0.007,-0.20796 -0.0284,-0.0284 -0.0541,-0.0442 -0.0751,-0.0483 z m 2.05679,0.0416 c -0.0216,-0.003 -0.0488,0.003 -0.0792,0.0214 -0.0555,0.0345 -0.0768,0.10205 -0.047,0.15027 0.0361,0.0585 0.0788,0.0621 0.12746,0.0134 0.0799,-0.0799 0.0635,-0.17435 -0.001,-0.18516 z m -1.56573,0.0993 c -0.0631,0 -0.1552,0.0496 -0.20528,0.11002 -0.11589,0.13988 -0.007,0.1392 0.17844,-0.001 0.1137,-0.086 0.11871,-0.10867 0.0269,-0.10867 z m 8.11847,0.10734 c -0.0109,-0.0169 -0.0292,-0.002 -0.0563,0.0403 -0.0391,0.0604 -0.0711,0.20798 -0.0711,0.32871 0,0.16841 0.0167,0.19422 0.0711,0.11002 0.0391,-0.0604 0.0711,-0.20934 0.0711,-0.33006 0,-0.0842 -0.004,-0.13201 -0.0148,-0.14892 z m -6.18512,0.0537 c -0.2571,-0.0249 -0.31406,0.0803 -0.10867,0.19991 0.2079,0.12112 0.39777,0.0953 0.3703,-0.0497 -0.0159,-0.0843 -0.10543,-0.13529 -0.26163,-0.15026 z m 1.0076,0.059 c -0.0402,0 -0.0738,0.0674 -0.0738,0.15027 0,0.0828 0.0335,0.13086 0.0738,0.10599 0.0403,-0.0249 0.0724,-0.0922 0.0724,-0.15026 0,-0.058 -0.0321,-0.106 -0.0724,-0.106 z m 1.80724,0.23077 c -0.044,-0.0101 -0.0825,-0.005 -0.10734,0.0201 -0.12172,0.12171 0.48486,0.63659 0.93381,0.79293 0.45719,0.15915 0.53617,0.15182 0.63461,-0.0604 0.089,-0.19182 -0.15688,-0.20486 -0.27907,-0.0148 -0.10432,0.16231 -0.78138,-0.15718 -0.83318,-0.3931 -0.0333,-0.15136 -0.21692,-0.31447 -0.34883,-0.34481 z m 1.95482,0.12075 c -0.0273,0.008 -0.0682,0.0401 -0.12478,0.0966 -0.0657,0.0657 -0.10173,0.13709 -0.0805,0.15832 0.0212,0.0212 0.047,0.0902 0.0563,0.15429 0.009,0.064 0.0802,0.16498 0.15832,0.22406 0.27107,0.20504 0.29159,0.17026 0.1449,-0.24552 -0.0587,-0.16658 -0.10865,-0.31853 -0.11002,-0.33811 -0.003,-0.0399 -0.0169,-0.0573 -0.0442,-0.0497 z m -8.17618,0.0174 c -0.0324,-0.0111 -0.0722,-0.0102 -0.12075,0.007 -0.28419,0.0991 -0.40687,0.30434 -0.25625,0.42934 0.15049,0.1249 0.13556,0.31828 -0.0376,0.47495 -0.0805,0.0728 -0.14624,0.17664 -0.14624,0.23077 0,0.0605 -0.0849,0.098 -0.22003,0.098 -0.12073,0 -0.22004,0.0334 -0.22004,0.0738 0,0.1659 0.48551,0.0731 0.68023,-0.13015 0.38866,-0.40566 0.54719,-1.10542 0.32065,-1.18335 z m 9.0751,0 c -0.035,0 -0.0447,0.0235 -0.0161,0.0698 0.0249,0.0403 0.10098,0.073 0.16906,0.0725 0.10665,-6.9e-4 0.10932,-0.0114 0.0148,-0.0725 -0.0717,-0.0463 -0.13275,-0.0698 -0.16771,-0.0698 z m -13.3121,0.11002 c -0.0229,-0.015 -0.0514,-10e-4 -0.0966,0.0362 -0.0955,0.0792 -0.0937,0.1069 0.0148,0.22674 0.15409,0.17034 0.20501,0.12646 0.14223,-0.12343 -0.0201,-0.0802 -0.0374,-0.12455 -0.0604,-0.13954 z m 8.50353,0.0121 c -0.0446,-0.0157 -0.0725,-0.0166 -0.0725,10e-4 0,0.0832 0.36755,0.42749 0.51252,0.48031 0.18081,0.0658 0.2187,0.0565 0.2187,-0.0523 0,-0.16217 -0.0817,-0.33542 -0.15832,-0.33542 -0.0383,0 -0.0491,0.0322 -0.0242,0.0725 0.0705,0.11416 -0.0333,0.0868 -0.30188,-0.0791 -0.0678,-0.042 -0.12975,-0.0715 -0.17442,-0.0872 z m -0.8627,0.0912 c -0.0743,0.0222 0.0156,0.16872 0.27907,0.35957 0.43817,0.3174 0.81511,0.25164 0.55949,-0.0979 -0.071,-0.0971 -0.11394,-0.11002 -0.15296,-0.047 -0.0393,0.0635 -0.1424,0.0355 -0.37701,-0.10196 -0.16054,-0.0941 -0.26398,-0.12602 -0.30859,-0.11271 z m -2.89936,0.003 c -0.058,0 -0.12674,0.0321 -0.1516,0.0725 -0.0249,0.0403 0.0231,0.0738 0.10599,0.0738 0.0829,0 0.15026,-0.0335 0.15026,-0.0738 0,-0.0402 -0.0466,-0.0725 -0.10465,-0.0725 z m 9.48967,0.0456 c -0.013,-0.002 -0.0201,0.003 -0.0201,0.0161 0,0.0499 0.081,0.17227 0.17977,0.27103 0.15144,0.15186 0.33274,0.23675 0.33274,0.15697 0,-0.0122 -0.11543,-0.13452 -0.25626,-0.27102 -0.10563,-0.10236 -0.19712,-0.16782 -0.23613,-0.17307 z m -4.88906,0.0523 c -0.0234,0.007 -0.0165,0.0828 0.0362,0.22138 0.0404,0.10619 0.10803,0.1932 0.15027,0.1932 0.045,0 0.0284,-0.0941 -0.0403,-0.22674 -0.0691,-0.13364 -0.12283,-0.19491 -0.14624,-0.18784 z m 4.343,0.13819 c -0.0477,0.0159 -0.0995,0.0677 -0.11538,0.11539 -0.0439,0.13168 0.10728,0.10482 0.15832,-0.0282 0.0273,-0.0713 0.0105,-0.10506 -0.0429,-0.0872 z m -6.83449,0.15832 c -0.0695,-0.007 -0.13235,-0.007 -0.17442,0.007 -0.20936,0.0664 -0.18262,0.16949 0.0537,0.20528 l 0,-10e-4 c 0.38138,0.0579 0.60376,0.0525 0.60376,-0.0148 0,-0.0763 -0.27447,-0.1741 -0.48301,-0.19589 z m -1.45438,0.11807 c -0.1087,0 -0.33005,0.19344 -0.33005,0.28846 0,0.0323 0.11077,0.005 0.24687,-0.0604 0.24193,-0.11612 0.28309,-0.22809 0.0832,-0.22809 z m -1.73747,0.005 c -0.10036,0.01 -0.20259,0.0701 -0.20259,0.13685 0,0.0464 0.0719,0.0414 0.19186,-0.0134 0.10526,-0.0479 0.15349,-0.1 0.10733,-0.11538 -0.0291,-0.01 -0.0631,-0.0113 -0.0966,-0.008 z m 5.30901,0.0711 c -0.0605,3.9e-4 -0.0979,0.0362 -0.0979,0.10599 0,0.0756 0.0752,0.10871 0.23882,0.10734 0.22491,-0.002 0.22959,-0.008 0.0953,-0.11002 -0.0914,-0.0693 -0.17561,-0.1037 -0.23613,-0.10331 z m 1.87835,0.0322 c -0.0403,0.0249 -0.0738,0.11138 -0.0738,0.19186 0,0.0805 0.0335,0.12684 0.0738,0.10197 0.0402,-0.0249 0.0724,-0.11138 0.0724,-0.19186 0,-0.0805 -0.0322,-0.12683 -0.0724,-0.10197 z m -8.76248,0.003 c -0.0115,0.0194 -0.0141,0.0785 -0.0148,0.1865 -10e-4,0.1442 0.0221,0.28727 0.0523,0.31798 0.0869,0.0884 0.10932,-0.30546 0.0255,-0.44947 -0.0312,-0.0535 -0.0516,-0.0745 -0.0631,-0.055 z m -2.51162,0.0322 c 0.11963,0 0.15174,0.0437 0.14624,0.20125 -0.0213,0.58676 -0.15789,0.64774 -0.24687,0.11001 -0.0469,-0.28298 -0.0384,-0.31126 0.10063,-0.31126 z m 11.73563,0.0228 c -0.0757,-0.01 -0.1309,-0.01 -0.14489,0.004 -0.0227,0.0227 0.0523,0.0636 0.1677,0.0899 0.1154,0.0262 0.30863,0.0735 0.42934,0.10599 0.12072,0.0325 0.23041,0.0623 0.24284,0.0657 0.0124,0.003 0.003,-0.0229 -0.0188,-0.059 -0.0382,-0.0618 -0.4491,-0.17697 -0.67621,-0.20662 z m -10.50397,0.009 c -0.0203,-0.0203 -0.0727,0.0637 -0.11539,0.18649 -0.0455,0.13037 -0.049,0.22272 -0.009,0.22272 0.0757,0 0.18282,-0.35117 0.12478,-0.40921 z m 6.0107,0.0443 c -0.54421,-0.0204 -1.65027,0.18484 -1.79113,0.39982 -0.0607,0.0925 -0.29883,0.23479 -0.53802,0.322 -0.36842,0.13434 -0.80902,0.51004 -0.80902,0.68962 0,0.0186 0.23823,-0.0409 0.52995,-0.13282 0.29174,-0.0919 0.7429,-0.19064 1.00224,-0.22004 0.42006,-0.0476 0.45589,-0.0648 0.33542,-0.15294 -0.21401,-0.15648 -0.0762,-0.1743 2.30231,-0.29517 1.22512,-0.0622 1.82256,0.2224 1.64489,0.78219 -0.0297,0.0936 -0.005,0.15765 0.0698,0.1865 0.0631,0.0242 0.11797,0.13111 0.1221,0.23747 0.006,0.15748 0.0253,0.13457 0.10599,-0.12209 0.067,-0.21333 0.0767,-0.37189 0.0308,-0.49239 -0.0714,-0.18774 -0.027,-0.39982 0.0832,-0.39982 0.0359,0 0.0644,-0.0322 0.0644,-0.0725 0,-0.0402 -0.0698,-0.0738 -0.15563,-0.0738 -0.0858,0 -0.25826,-0.0615 -0.38372,-0.13685 -0.12732,-0.0764 -0.43895,-0.15495 -0.70438,-0.17844 -0.26156,-0.0231 -0.6152,-0.0922 -0.78623,-0.15296 -0.31439,-0.11159 -0.38712,-0.08 -0.22003,0.0966 0.0753,0.0797 0.0407,0.0885 -0.19991,0.0456 -0.35425,-0.0632 -0.4025,-0.0912 -0.4025,-0.22674 0,-0.065 -0.11913,-0.0965 -0.30053,-0.10331 z m 3.48568,0.0805 c -0.0634,0.0634 0.21752,0.7808 0.37298,0.95259 0.11317,0.12506 0.13464,0.12793 0.19186,0.0255 0.0863,-0.15413 -0.45373,-1.08919 -0.56484,-0.97809 z m -5.57467,0.0644 c -0.0403,0 -0.15102,0.0832 -0.24552,0.18381 -0.0945,0.10059 -0.13827,0.18247 -0.0979,0.18247 0.0403,0 0.15102,-0.0819 0.24553,-0.18247 0.0945,-0.1006 0.13827,-0.18381 0.0979,-0.18381 z m 1.98434,0.0255 c 0.0543,0.002 0.0918,0.009 0.10733,0.0228 0.0819,0.072 -0.23266,0.26663 -0.51923,0.322 -0.43131,0.0833 -1.1592,0.0832 -1.1592,0 0,-0.11611 1.19057,-0.35863 1.5711,-0.34482 z m -4.99774,0.12076 c -0.18589,0 -0.24557,0.0781 -0.14892,0.19454 0.12135,0.14624 0.28309,0.11852 0.28309,-0.0483 0,-0.0932 -0.0488,-0.14625 -0.13417,-0.14625 z m -0.92307,0.22674 c -0.0413,-0.006 -0.0328,0.019 -0.001,0.0698 0.026,0.042 0.007,0.1238 -0.0416,0.18246 -0.10104,0.12184 0.20719,0.14573 0.47898,0.0376 0.12901,-0.0513 0.11291,-0.0717 -0.13685,-0.1771 -0.1664,-0.0702 -0.25794,-0.10677 -0.29919,-0.11271 z m 11.11578,0.0792 c -0.15014,0.15011 0.34242,0.96436 0.65474,1.08273 0.2449,0.0928 0.22072,0.0303 -0.0979,-0.2576 -0.17694,-0.15987 -0.29919,-0.3358 -0.29919,-0.43068 0,-0.18596 -0.18417,-0.46789 -0.2576,-0.39445 z m -8.46329,0.29248 c -0.0756,-0.038 -0.22324,0.0112 -0.40116,0.16771 -0.16617,0.14617 -0.18063,0.18109 -0.0751,0.18247 0.0717,10e-4 0.14858,0.051 0.17173,0.11136 0.062,0.16151 0.12602,0.13678 0.27102,-0.10868 0.11201,-0.18962 0.10919,-0.31487 0.0335,-0.35286 z m 6.92305,0.0778 c -0.0211,0.0212 -0.0129,0.1328 0.0174,0.24821 0.0405,0.1547 0.0613,0.17402 0.0818,0.0765 0.0314,-0.14906 -0.0403,-0.38363 -0.0993,-0.32469 z m -4.16456,0.51118 c -0.44416,-0.0386 -0.53989,0.33183 -0.12478,0.483 0.28477,0.10369 0.34481,0.0665 0.34481,-0.21466 0,-0.22465 -0.0227,-0.25131 -0.22003,-0.26834 z m 4.11491,0.0188 0.0456,0.24687 c 0.0251,0.13581 0.0456,0.2922 0.0456,0.3475 0,0.0554 0.0695,0.10062 0.15429,0.10062 0.19466,0 0.13993,-0.32187 -0.0939,-0.54875 l -0.1516,-0.14624 z m 0.45617,0.0429 c -0.0598,0.0101 -0.0277,0.0705 0.0966,0.17979 0.13336,0.11732 0.2938,0.17978 0.4575,0.17978 0.35165,0 0.31436,-0.0947 -0.0952,-0.2415 -0.24697,-0.0886 -0.39909,-0.12819 -0.45886,-0.11807 z m 0.79159,0.006 c -0.0286,0.013 -0.0304,0.0429 0.009,0.0912 0.0575,0.0699 0.22256,0.18834 0.36627,0.26431 0.4138,0.21875 0.5102,0.15481 0.20259,-0.13417 -0.16569,-0.15567 -0.49246,-0.26035 -0.57826,-0.22137 z m -9.51516,0.0671 c -0.15713,0.005 -0.15706,0.008 -0.0174,0.0684 0.0805,0.0347 0.15359,0.0644 0.16368,0.0671 0.0101,0.003 0.0188,-0.0268 0.0188,-0.0671 0,-0.0403 -0.0745,-0.0712 -0.16503,-0.0684 z m 4.76429,0.0148 c -0.006,-0.009 -0.0251,0.009 -0.0563,0.0523 -0.1207,0.16897 -0.0942,0.60643 0.0483,0.80768 l 0.12746,0.18113 0.0242,-0.33005 c 0.0129,-0.181 0.0786,-0.39227 0.14625,-0.46959 0.1323,-0.15125 0.13479,-0.15105 -0.23749,0 -0.0781,0.0316 -0.0951,-2.4e-4 -0.0671,-0.12746 0.015,-0.0679 0.0209,-0.10492 0.0148,-0.11404 z m -1.49865,0.008 c -0.0563,-0.005 -0.11229,-0.003 -0.16235,0.0107 -0.1898,0.0504 -0.18783,0.0539 0.0979,0.1449 0.37669,0.12012 0.4025,0.12339 0.4025,0.0389 0,-0.0947 -0.16914,-0.18016 -0.3381,-0.19454 z m -1.23971,0.0657 c -0.0733,-6.9e-4 -0.15974,0.009 -0.26699,0.0255 -0.21245,0.0331 -0.43604,0.0526 -0.49643,0.0442 -0.23685,-0.0332 -0.43872,0.0609 -0.43872,0.20394 0,0.11065 0.0475,0.14231 0.20125,0.13819 0.11066,-0.003 0.15924,-0.0225 0.10867,-0.0429 -0.19677,-0.0793 0.01,-0.1704 0.38507,-0.1704 0.31917,0 0.43191,0.0344 0.59168,0.18248 0.28949,0.26827 0.50988,0.2549 0.36627,-0.0228 -0.1356,-0.26222 -0.23094,-0.3559 -0.4508,-0.35823 z m 5.91947,0.0912 c -0.0126,-0.009 -0.0188,0.007 -0.0201,0.047 -0.003,0.0671 0.0181,0.18056 0.0456,0.25223 0.0275,0.0718 0.0613,0.0954 0.0751,0.0537 0.0139,-0.0416 -0.007,-0.15506 -0.0456,-0.25223 -0.0233,-0.0584 -0.0424,-0.0915 -0.055,-0.10062 z m -1.15518,0.0349 c -0.058,0 -0.1254,0.0322 -0.15027,0.0725 -0.0249,0.0402 0.0231,0.0738 0.106,0.0738 0.0829,0 0.15026,-0.0335 0.15026,-0.0738 0,-0.0403 -0.0479,-0.0725 -0.10599,-0.0725 z m -3.57825,0.0872 c -0.0165,0.004 -0.0429,0.0345 -0.0859,0.0912 -0.0591,0.0781 -0.10737,0.19213 -0.106,0.25492 0.002,0.0911 0.0241,0.0867 0.11002,-0.0269 0.0591,-0.0781 0.10736,-0.19348 0.10599,-0.25626 -6.9e-4,-0.0455 -0.008,-0.0673 -0.0242,-0.0631 z m -3.73254,0.055 c -0.0361,-0.0295 -0.10472,0.10789 -0.11404,0.28175 -0.003,0.0526 0.0281,0.0759 0.0684,0.051 0.0403,-0.0249 0.0698,-0.13456 0.0671,-0.24285 -0.001,-0.0516 -0.009,-0.08 -0.0214,-0.0899 z m 0.44275,0.0604 c -0.0398,-0.0288 -0.11951,0.0609 -0.12209,0.18113 -6.1e-4,0.0301 0.0323,0.055 0.0725,0.055 0.0403,0 0.0738,-0.0745 0.0725,-0.16503 -2.6e-4,-0.0393 -0.01,-0.0615 -0.0228,-0.0711 z m 5.33853,0.0416 c -0.0291,0.0126 -0.0607,0.0396 -0.0926,0.0832 -0.0685,0.0936 -0.0743,0.17089 -0.0214,0.26968 0.0916,0.1712 0.18406,0.12121 0.23077,-0.12343 0.0333,-0.17439 -0.0295,-0.26717 -0.11672,-0.22943 z m 5.24193,0.007 c -0.0251,0.008 -0.0273,0.0463 0.0121,0.11001 0.0265,0.0429 0.0833,0.0778 0.12611,0.0778 0.0486,0 0.0429,-0.0418 -0.0148,-0.11136 -0.0502,-0.0605 -0.0983,-0.084 -0.12343,-0.0765 z m -3.37029,0.005 c -0.0264,0.008 -0.0157,0.0584 0.055,0.14356 0.0509,0.0613 0.12616,0.11136 0.16772,0.11136 0.0416,0 0.0154,-0.0655 -0.0577,-0.14624 -0.0756,-0.0836 -0.13857,-0.1171 -0.16503,-0.10868 z m -0.56216,0.11405 c -0.0631,-0.0268 -0.20549,0.0416 -0.33274,0.1771 -0.0945,0.1006 -0.13182,0.18381 -0.0832,0.18381 0.12,0 0.44946,-0.22144 0.44946,-0.30188 0,-0.0315 -0.0125,-0.0501 -0.0335,-0.059 z m 3.29247,0.0724 c -0.13751,5.4e-4 -0.28364,0.037 -0.37433,0.11002 -0.13375,0.10761 -0.12536,0.11109 0.12343,0.0711 0.1453,-0.0233 0.3426,-0.0123 0.43873,0.0241 0.21493,0.0812 0.26124,0.0487 0.13954,-0.0979 -0.0601,-0.0724 -0.18987,-0.10787 -0.32737,-0.10733 z m -5.89935,0.11807 c -0.0295,-0.004 -0.0447,6.9e-4 -0.0335,0.0188 0.0236,0.0383 -0.10508,0.13548 -0.28712,0.21601 -0.18202,0.0805 -0.33139,0.16837 -0.33139,0.19454 0,0.0591 0.705,-0.0341 0.94454,-0.12477 0.097,-0.0368 0.14676,-0.0923 0.11001,-0.12344 -0.088,-0.0745 -0.31378,-0.16893 -0.4025,-0.18113 z m 3.94184,0.0295 c -0.0523,0.003 0.0105,0.0514 0.1382,0.10733 0.1277,0.0559 0.2531,0.16928 0.27906,0.2509 0.0259,0.0816 0.0803,0.14758 0.12209,0.14758 0.0418,0 0.0566,-0.0518 0.0322,-0.11538 -0.0245,-0.0637 -0.0443,-0.12783 -0.0443,-0.14356 0,-0.0517 -0.42979,-0.25374 -0.52727,-0.24687 z m -6.9539,0.0684 c -0.18052,6.9e-4 -0.21073,0.0186 -0.12746,0.0724 0.14379,0.0929 0.36493,0.0929 0.36493,0 0,-0.0402 -0.10669,-0.073 -0.23747,-0.0724 z m 5.90606,0.0724 c -0.0113,-6e-5 -0.0186,0.006 -0.0214,0.0214 -0.0139,0.0724 0.028,0.21265 0.0926,0.31127 0.10806,0.16494 0.26028,0.24253 0.26028,0.13283 0,-0.13148 -0.25276,-0.46514 -0.33139,-0.46556 z m -6.37431,0.006 c -0.0376,-0.003 -0.0881,0.15044 -0.0939,0.38237 -0.003,0.11943 0.0259,0.18724 0.0684,0.161 0.0403,-0.0249 0.0712,-0.18287 0.0684,-0.35151 -0.002,-0.13117 -0.0203,-0.19012 -0.0429,-0.19186 z m 2.10375,0.003 c -0.007,0.008 4.1e-4,0.0366 0.0188,0.0886 0.026,0.0737 0.0502,0.17305 0.055,0.22003 0.005,0.047 0.025,0.0237 0.0442,-0.051 0.0193,-0.0747 -0.006,-0.17267 -0.0563,-0.21869 -0.0352,-0.0325 -0.0551,-0.0466 -0.0617,-0.0389 z m 6.2133,0.0322 c -0.0423,0.008 -0.0751,0.041 -0.0751,0.0939 0,0.0293 0.0639,0.0537 0.14221,0.0537 0.10696,0 0.12259,-0.0238 0.0644,-0.0939 -0.0379,-0.0456 -0.0892,-0.0618 -0.13149,-0.0537 z m -6.87206,0.003 c -0.12153,-0.0127 -0.34458,0.0382 -0.77549,0.14356 l -0.36494,0.0899 0.4441,0.008 c 0.37315,0.007 0.47218,0.0376 0.61583,0.19051 0.0941,0.10019 0.34752,0.24792 0.5635,0.32871 0.75853,0.28382 0.86762,0.41675 0.589,0.7178 l -0.16503,0.17845 0.25626,-0.055 c 0.31903,-0.0673 0.80501,-0.30856 0.80501,-0.39982 0,-0.0375 -0.32144,-0.16888 -0.71377,-0.29248 -0.98024,-0.30882 -1.03645,-0.34331 -1.08811,-0.66682 -0.0245,-0.15299 -0.0448,-0.23012 -0.16636,-0.24284 z m 8.16812,0.10599 c -0.0383,4.4e-4 -0.0396,0.037 0.0188,0.10733 0.0501,0.0604 0.14518,0.10871 0.21064,0.10734 0.1,-0.002 0.0965,-0.0198 -0.0228,-0.11002 -0.0926,-0.07 -0.16837,-0.10509 -0.20662,-0.10465 z m -2.31573,0.16368 c -0.01,0.0159 0.003,0.0675 0.0376,0.15698 0.0245,0.0637 0.0741,0.11538 0.11002,0.11538 0.10124,0 0.0773,-0.1191 -0.0442,-0.22003 -0.0596,-0.0495 -0.0933,-0.0683 -0.10331,-0.0523 z m -6.24148,0.12612 c -0.23544,0 -0.42263,0.0682 -0.42263,0.15295 0,0.0752 0.44445,0.001 0.54472,-0.0899 0.0409,-0.0374 -0.009,-0.0631 -0.12209,-0.0631 z m -2.22986,0.28444 c -0.0304,0.0183 -0.0356,0.0865 0.006,0.1932 0.0227,0.0591 0.093,0.10733 0.15563,0.10733 0.0996,0 0.0973,-0.0242 -0.0134,-0.1932 -0.0618,-0.0942 -0.11721,-0.1256 -0.14758,-0.10733 z m 5.58539,0.0134 c -0.15451,0.005 -0.15446,0.004 0.008,0.0698 0.0905,0.0364 0.16503,0.10066 0.16503,0.14222 0,0.0416 0.0731,0.0738 0.16368,0.0724 l 0.16502,-10e-4 -0.17307,-0.1449 c -0.095,-0.0791 -0.24263,-0.14094 -0.32871,-0.13819 z m 2.61895,0.0403 c -0.0203,0.0365 0.0218,0.16211 0.11941,0.38908 0.16969,0.39446 0.30879,0.44966 0.34615,0.13685 0.0161,-0.1349 -0.0417,-0.24025 -0.21064,-0.38238 -0.15244,-0.12827 -0.23463,-0.18011 -0.25492,-0.14355 z m 0.75939,0.0282 c -0.0486,0 -0.0429,0.0418 0.0148,0.11136 0.0509,0.0613 0.1077,0.0963 0.12611,0.0778 0.0507,-0.0507 -0.0525,-0.18918 -0.14087,-0.18918 z m -7.06123,0.004 c -0.0882,-0.003 -0.18041,0.0281 -0.20528,0.0684 -0.0535,0.0865 0.0187,0.0865 0.22003,0 0.14104,-0.0607 0.1398,-0.0636 -0.0148,-0.0684 z m 7.83403,0.0389 c -0.0106,0.0423 0.0295,0.174 0.1221,0.38909 0.0882,0.2051 0.17265,0.37164 0.18784,0.37164 0.0947,0 0.002,-0.45257 -0.12613,-0.61582 -0.11106,-0.14119 -0.17321,-0.18717 -0.18381,-0.14491 z m -2.64309,0.0604 c -0.0225,0.0225 0.0711,0.0896 0.20795,0.14893 0.28887,0.1254 0.28578,0.12323 0.28578,0.0778 0,-0.0617 -0.45155,-0.26892 -0.49373,-0.22675 z m -1.88908,0.11539 c -0.062,0 -0.0933,0.0335 -0.0684,0.0738 0.0249,0.0403 0.0762,0.0725 0.11404,0.0725 0.0379,0 0.0684,-0.0322 0.0684,-0.0725 0,-0.0402 -0.0513,-0.0738 -0.11404,-0.0738 z m -3.63729,0.0416 c -0.0338,-0.01 -0.0744,0.005 -0.13819,0.0389 -0.12261,0.0657 -0.13349,0.0949 -0.0523,0.14624 0.20351,0.1289 0.36988,0.0816 0.2831,-0.0805 -0.0328,-0.0613 -0.0587,-0.0951 -0.0926,-0.10465 z m 0.97674,0.0456 c -0.0433,-0.0144 -0.0778,0.0295 -0.0778,0.0966 0,0.067 0.0346,0.10968 0.0778,0.0953 0.0433,-0.0144 0.0792,-0.0571 0.0792,-0.0953 0,-0.0382 -0.0359,-0.0822 -0.0792,-0.0966 z m 4.23836,0.0201 c 0,-0.0216 -0.0658,-0.004 -0.14625,0.0389 -0.0805,0.0431 -0.14624,0.12614 -0.14624,0.18515 l 0,10e-4 c 0,0.0811 0.0356,0.0704 0.14624,-0.0403 0.0805,-0.0805 0.14625,-0.16365 0.14625,-0.18515 z m -0.6051,0.11941 c -0.026,3e-4 -0.0562,0.007 -0.0912,0.0201 -0.0646,0.0248 -0.0975,0.0775 -0.0725,0.11806 0.0593,0.0962 0.16199,0.0943 0.22271,-0.004 0.0505,-0.0817 0.0189,-0.13508 -0.059,-0.13417 z m -3.96465,0.0322 c -0.0274,-0.007 -0.0385,0.0673 -0.0389,0.24016 -6.7e-4,0.19178 0.0279,0.29715 0.0725,0.26968 0.0928,-0.0574 0.0928,-0.33268 0,-0.4763 -0.013,-0.0201 -0.0244,-0.031 -0.0335,-0.0335 z m 1.09481,0.0335 c -0.0604,0 -0.11002,0.0335 -0.11002,0.0738 0,0.0402 0.0497,0.0725 0.11002,0.0725 0.0604,0 0.11001,-0.0322 0.11001,-0.0725 0,-0.0402 -0.0496,-0.0738 -0.11001,-0.0738 z m 2.22316,0.0148 c -0.0532,0.0167 -0.11379,0.0938 -0.19858,0.23747 -0.13499,0.22888 -0.13731,0.25352 -0.0255,0.27907 0.17392,0.0398 0.23211,-0.005 0.23211,-0.17844 0,-0.12585 0.0185,-0.13632 0.11002,-0.0604 0.12801,0.10626 0.1405,0.0496 0.0335,-0.15026 -0.0537,-0.10024 -0.0985,-0.14414 -0.15161,-0.12746 z m 1.63684,0.0148 c -0.0652,0.0652 0.0732,0.20564 0.30053,0.30456 0.12594,0.0548 0.34307,0.10193 0.483,0.10331 l 0.25493,0.003 -0.2026,-0.20125 c -0.17023,-0.16974 -0.21229,-0.18515 -0.27102,-0.0926 -0.0611,0.0963 -0.0979,0.0943 -0.30054,-0.0201 -0.12693,-0.0716 -0.24562,-0.11529 -0.2643,-0.0966 z m -4.26385,0.0537 c -0.003,-0.009 -0.0437,0.0119 -0.12343,0.0537 -0.0883,0.0463 -0.18055,0.117 -0.20528,0.15698 -0.0845,0.1368 0.0871,0.0727 0.22675,-0.0845 0.0692,-0.0779 0.10463,-0.11696 0.10196,-0.12612 z m 4.02503,0.0362 c -0.0425,0.0318 -0.0725,0.1338 -0.0725,0.29248 0,0.14085 0.027,0.23944 0.0604,0.2187 0.0335,-0.0207 0.22204,0.12724 0.41994,0.32871 0.34925,0.35557 0.36126,0.36098 0.38373,0.17979 0.0128,-0.1027 0.0581,-0.18784 0.10062,-0.18784 0.13587,0 -0.10049,-0.22233 -0.39579,-0.37299 -0.15522,-0.0792 -0.31433,-0.22734 -0.35286,-0.32871 -0.047,-0.12351 -0.10113,-0.16193 -0.14357,-0.13014 z m -5.54514,0.051 c -0.1132,0.01 -0.12101,0.0992 -0.0443,0.2992 0.0568,0.14811 0.10007,0.14322 0.31395,-0.0349 0.20297,-0.16902 0.19649,-0.1802 -0.12075,-0.24821 -0.0619,-0.0132 -0.11119,-0.0194 -0.14892,-0.0161 z m 7.95613,0.0617 c -0.0319,0.0122 -0.0235,0.0934 0.0228,0.24418 0.0959,0.31235 0.0819,0.32693 -0.40116,0.43605 l -0.3864,0.0872 0.3287,0.11404 c 0.3599,0.12398 0.3732,0.11695 0.70975,-0.36628 0.10931,-0.15688 0.10504,-0.17856 -0.0537,-0.34749 -0.11642,-0.12393 -0.18811,-0.17995 -0.22003,-0.16771 z m -8.53306,0.0631 c -0.0288,-0.002 -0.0551,0.005 -0.0738,0.0242 -0.0241,0.0241 -0.003,0.0943 0.0483,0.15563 0.1187,0.14295 0.22138,0.14195 0.22138,-0.001 0,-0.0885 -0.1095,-0.17308 -0.19588,-0.17844 z m 3.40517,0.10197 c -0.0561,-0.005 -0.11189,6.8e-4 -0.15697,0.0161 -0.15207,0.0517 -0.14862,0.0574 0.0577,0.10466 0.42831,0.098 0.52657,0.0677 0.25224,-0.0792 -0.0415,-0.0222 -0.0969,-0.0371 -0.15295,-0.0416 z m 2.39222,0.059 c -0.0273,-0.0124 -0.088,-0.003 -0.19858,0.0214 -0.5359,0.11658 -0.59238,0.15932 -0.46556,0.35286 0.0626,0.0955 0.10491,0.2832 0.0939,0.41726 -0.0161,0.19672 0.0161,0.26171 0.16369,0.33811 0.19878,0.10285 0.30576,0.0956 0.34615,-0.0255 0.0142,-0.0427 -0.0418,-0.0954 -0.12343,-0.11673 -0.15206,-0.0398 -0.29651,-0.31776 -0.29651,-0.57021 0,-0.18535 0.0893,-0.17865 0.34212,0.0255 0.11817,0.0954 0.27759,0.15692 0.37165,0.14222 0.22775,-0.0357 0.20614,-0.12741 -0.0563,-0.23614 -0.17219,-0.0713 -0.21135,-0.12414 -0.17576,-0.23613 0.0207,-0.0651 0.026,-0.10026 -0.001,-0.11271 z m 3.88951,0.0604 c -0.0383,4.4e-4 -0.0383,0.0357 0.0201,0.10599 0.0501,0.0604 0.14518,0.10871 0.21064,0.10734 0.10004,-0.002 0.0965,-0.0198 -0.0228,-0.11002 -0.0926,-0.07 -0.16971,-0.10375 -0.20796,-0.10331 z m -5.59479,0.007 c -0.0112,-0.002 -0.0154,0.0184 -0.0161,0.0631 -0.003,0.13057 0.26515,0.31608 0.36627,0.25357 0.0848,-0.0524 0.21558,0.26934 0.21601,0.52862 1.6e-4,0.15857 0.017,0.17312 0.11405,0.0926 0.15574,-0.12924 0.10832,-0.51007 -0.0765,-0.6118 -0.0805,-0.0443 -0.16837,-0.11017 -0.19454,-0.14624 -0.0261,-0.0359 -0.099,-0.0457 -0.16235,-0.0214 -0.0679,0.026 -0.1449,-0.007 -0.18783,-0.0805 -0.0295,-0.0505 -0.0478,-0.0756 -0.059,-0.0778 z m -1.27727,0.14087 c -0.0441,-0.009 -0.11216,0.008 -0.18784,0.0563 -0.1,0.0634 0.053,0.24391 0.27639,0.32603 0.19296,0.071 0.26833,0.0549 0.26833,-0.0577 0,-0.0676 -0.0685,-0.11002 -0.17844,-0.11002 -0.12859,0 -0.16721,-0.031 -0.13685,-0.11002 0.0227,-0.0592 0.003,-0.0953 -0.0416,-0.10464 z m 6.70703,0.11002 c -0.0381,-0.0278 -0.12169,0.0378 -0.3287,0.23614 l -0.32738,0.31395 0.29249,-0.11673 c 0.36197,-0.14449 0.42374,-0.20341 0.39043,-0.37567 -0.005,-0.0286 -0.0142,-0.0484 -0.0269,-0.0577 z m -8.2513,0.0711 c -0.0559,-0.0147 -0.0174,0.0613 0.11672,0.23479 0.0389,0.0503 0.0987,0.0912 0.13283,0.0912 0.10371,0 -3.2e-4,-0.18057 -0.16234,-0.28176 -0.0396,-0.0247 -0.0686,-0.0394 -0.0872,-0.0442 z m 2.16815,0.0376 c -0.18953,0.004 -0.19417,0.0102 -0.0497,0.0684 0.0864,0.0349 0.17869,0.0992 0.20527,0.14222 0.0582,0.0942 0.1165,0.0958 0.2509,0.0107 0.13714,-0.0869 -0.12149,-0.22756 -0.40653,-0.22138 z m -2.4593,0.26834 c -0.0312,0.0101 -0.0523,0.04 -0.0523,0.0966 0,0.052 0.0618,0.0711 0.15429,0.047 0.14451,-0.0378 0.15109,-0.0213 0.10466,0.28845 -0.0456,0.30418 -0.0392,0.3251 0.0845,0.25895 0.0982,-0.0525 0.30059,-0.0177 0.75536,0.13282 0.83906,0.27767 1.02662,0.20622 0.27371,-0.10465 -0.17126,-0.0707 -0.3617,-0.15331 -0.42264,-0.18381 -0.0609,-0.0306 -0.21479,-0.0401 -0.34212,-0.0214 -0.21724,0.0319 -0.23287,0.0182 -0.25492,-0.21198 -0.0172,-0.17969 -0.20671,-0.3321 -0.30054,-0.30188 z m 3.30321,0.0308 c -0.1091,-0.013 -0.21947,0.0966 -0.25626,0.28041 -0.0497,0.24842 -0.11022,0.27387 -0.24955,0.10599 -0.0552,-0.0666 -0.15739,-0.0989 -0.24285,-0.0765 -0.0812,0.0212 -0.19035,0.003 -0.24284,-0.0403 -0.10468,-0.0869 -0.11568,-0.0367 -0.0483,0.21467 l -0.001,0 c 0.0344,0.12843 0.0671,0.14824 0.14222,0.0859 0.0711,-0.0593 0.16307,-0.0574 0.33944,0.005 0.30703,0.10917 0.66503,-0.005 0.59437,-0.18918 -0.0257,-0.0669 -4.6e-4,-0.1473 0.0563,-0.18247 0.0777,-0.048 0.0805,-0.0832 0.0148,-0.14892 -0.0332,-0.0332 -0.0696,-0.0507 -0.10599,-0.055 z m 5.61626,0.0818 c -0.0121,-0.0137 -0.0523,-0.006 -0.13014,0.0187 -0.21822,0.0671 -0.23281,0.0813 -0.17442,0.17576 0.0747,0.12091 0.17304,0.0929 0.26296,-0.0751 0.0374,-0.0698 0.0537,-0.1057 0.0416,-0.11941 z m -3.53934,0.0657 c -0.0131,0.003 -0.0185,0.0251 -0.0187,0.0644 -4.2e-4,0.0583 -0.0214,0.18048 -0.0456,0.27101 -0.0262,0.0975 -0.0114,0.16503 0.0362,0.16503 0.1171,0 0.19005,-0.36138 0.0926,-0.45885 -0.0306,-0.0306 -0.0512,-0.0453 -0.0644,-0.0416 z m -4.01832,0.0376 c -0.0165,1.5e-4 -0.0333,0.0146 -0.0456,0.047 -0.0257,0.0675 -0.0271,0.17173 -0.004,0.23211 0.051,0.13272 0.17499,0.14673 0.16771,0.0188 -0.009,-0.16899 -0.0683,-0.29832 -0.11807,-0.29785 z m 3.70839,0.0241 c -0.0403,0 -0.0738,0.0483 -0.0738,0.10868 0,0.0604 0.0335,0.11001 0.0738,0.11001 0.0402,0 0.0725,-0.0496 0.0725,-0.11001 0,-0.0605 -0.0322,-0.10868 -0.0725,-0.10868 z m -0.58631,0.46959 c -0.18727,0.023 -0.15759,0.22252 0.14088,0.42665 0.24445,0.16716 1.02852,0.1685 0.86135,10e-4 -0.0611,-0.0611 -0.30294,-0.13407 -0.53801,-0.161 -0.36204,-0.0416 -0.39913,-0.0584 -0.24419,-0.11135 0.1706,-0.0584 0.17292,-0.0651 0.0376,-0.1127 -0.10857,-0.0382 -0.19518,-0.0506 -0.25761,-0.0429 z m 4.28531,0.0416 c -0.11219,0 -0.11317,0.13076 -0.001,0.49373 0.0405,0.13136 0.15545,0.11238 0.21199,-0.0349 0.0281,-0.0731 0.005,-0.15777 -0.0537,-0.20125 -0.056,-0.0413 -0.088,-0.11608 -0.0711,-0.16637 0.017,-0.0503 -0.0214,-0.0912 -0.0859,-0.0912 z m -5.09032,0.0389 0,0.23748 c 0,0.13901 0.0616,0.29639 0.14759,0.38238 0.17658,0.17662 0.28102,0.18541 0.34078,0.0295 0.0289,-0.0752 -0.0492,-0.21018 -0.22138,-0.38238 l -0.26699,-0.267 z m -1.47718,0.0349 c -0.19981,1e-5 -0.15903,0.0683 0.10599,0.17979 0.13077,0.055 0.25364,0.0831 0.2737,0.0631 0.0574,-0.0573 -0.23305,-0.24285 -0.37969,-0.24285 z m 3.63057,0.0751 c -0.0928,0.002 -0.1771,0.0292 -0.1771,0.0805 0,0.0459 0.057,0.12637 0.12746,0.17844 0.10615,0.0784 0.13203,0.0762 0.15161,-0.0107 0.013,-0.0576 0.057,-0.10466 0.0966,-0.10466 0.0396,0 0.0517,-0.0321 0.0269,-0.0724 -0.0313,-0.0505 -0.13261,-0.0735 -0.2254,-0.0711 z m -2.46734,0.007 c -0.0141,-0.004 -0.0445,0.003 -0.0939,0.0241 -0.077,0.0323 -0.19789,0.0564 -0.26833,0.0537 -0.14694,-0.006 -0.17284,0.10397 -0.0362,0.15295 0.10701,0.0383 0.31636,-0.0578 0.39177,-0.17979 0.0186,-0.0301 0.0208,-0.0467 0.007,-0.051 z m 3.66546,0.0295 c -0.0278,-0.01 -0.058,0.003 -0.0993,0.0376 -0.0575,0.0474 -0.0865,0.11596 -0.0644,0.1516 0.0949,0.1535 0.33235,0.0714 0.24821,-0.0859 -0.0322,-0.06 -0.0567,-0.0936 -0.0845,-0.10331 z m -6.68423,0.10733 c -0.062,0 -0.0933,0.0335 -0.0684,0.0738 0.0249,0.0402 0.0762,0.0725 0.11405,0.0725 0.038,0 0.0684,-0.0322 0.0684,-0.0725 0,-0.0403 -0.0512,-0.0738 -0.11404,-0.0738 z m 2.17083,0.37299 -0.19052,0.005 0.21869,0.10062 c 0.24731,0.11327 0.74001,0.14075 0.79964,0.0443 0.0403,-0.0651 -0.48696,-0.16085 -0.82781,-0.15027 z m 2.78934,0.24151 c -0.0113,0.0137 -0.0141,0.0642 -0.0148,0.15966 -0.001,0.11471 0.0201,0.2244 0.047,0.26565 l 0.0617,0 c 0.033,-0.0703 0.0287,-0.25851 -0.0309,-0.36091 -0.0321,-0.0551 -0.0517,-0.0782 -0.0631,-0.0644 z m 0.45215,0.0161 c -0.0191,0.0113 -0.0308,0.0344 -0.0308,0.0671 0,0.0591 0.0497,0.10733 0.11001,0.10733 0.0604,0 0.11002,-0.0298 0.11002,-0.0657 0,-0.0359 -0.0497,-0.0842 -0.11002,-0.10733 -0.0334,-0.0129 -0.06,-0.0127 -0.0792,-10e-4 z m -4.34301,0.2576 c -0.0207,-0.003 -0.0392,10e-4 -0.0523,0.0148 -0.0216,0.0215 -0.0185,0.0738 0.008,0.11673 l 0.001,0 c 0.006,0.009 0.0136,0.0128 0.0201,0.0201 l 0.161,0 c 6.6e-4,-0.004 0.004,-0.006 0.004,-0.0107 0,-0.0648 -0.08,-0.13299 -0.14222,-0.14088 z"
           style="display:inline;fill:#000000;stroke:none;stroke-width:2;stroke-linecap:round;stroke-linejoin:bevel;stroke-miterlimit:4;stroke-dasharray:none;stroke-opacity:1" />
      </g>
    </g>
  </g>
</svg>
