<?xml version="1.0" encoding="UTF-8" standalone="no"?>
<!-- Created with Inkscape (http://www.inkscape.org/) -->

<svg
   xmlns:dc="http://purl.org/dc/elements/1.1/"
   xmlns:cc="http://creativecommons.org/ns#"
   xmlns:rdf="http://www.w3.org/1999/02/22-rdf-syntax-ns#"
   xmlns:svg="http://www.w3.org/2000/svg"
   xmlns="http://www.w3.org/2000/svg"
   xmlns:sodipodi="http://sodipodi.sourceforge.net/DTD/sodipodi-0.dtd"
   xmlns:inkscape="http://www.inkscape.org/namespaces/inkscape"
   id="svg4206"
   version="1.1"
   inkscape:version="0.91 r13725"
   width="827.09076"
   height="512"
   viewBox="0 0 827.09071 512"
   sodipodi:docname="aiRH-logo-white.svg"
   inkscape:export-filename="/home/m/RHDrive/Design/CI/Logos/staRHs/staRHs-Logo-vector.png"
   inkscape:export-xdpi="300"
   inkscape:export-ydpi="300">
  <metadata
     id="metadata4212">
    <rdf:RDF>
      <cc:Work
         rdf:about="">
        <dc:format>image/svg+xml</dc:format>
        <dc:type
           rdf:resource="http://purl.org/dc/dcmitype/StillImage" />
        <dc:title></dc:title>
      </cc:Work>
    </rdf:RDF>
  </metadata>
  <defs
     id="defs4210" />
  <sodipodi:namedview
     pagecolor="#ffffff"
     bordercolor="#666666"
     borderopacity="1"
     objecttolerance="10"
     gridtolerance="10"
     guidetolerance="10"
     inkscape:pageopacity="0"
     inkscape:pageshadow="2"
     inkscape:window-width="1920"
     inkscape:window-height="1135"
     id="namedview4208"
     showgrid="false"
     inkscape:snap-grids="false"
     inkscape:snap-to-guides="false"
     inkscape:zoom="0.8792305"
     inkscape:cx="368.39689"
     inkscape:cy="325.7924"
     inkscape:window-x="0"
     inkscape:window-y="0"
     inkscape:window-maximized="1"
     inkscape:current-layer="svg4206"
     showguides="true"
     inkscape:guide-bbox="true"
     fit-margin-top="6"
     fit-margin-left="6"
     fit-margin-right="6"
     fit-margin-bottom="6"
     inkscape:snap-text-baseline="false" />
  <path
     style="opacity:1;fill:#ffffff;fill-opacity:1;fill-rule:nonzero;stroke:none;stroke-width:6;stroke-linecap:round;stroke-linejoin:round;stroke-miterlimit:4;stroke-dasharray:none;stroke-dashoffset:0;stroke-opacity:1"
     d="M 255.99787,6 A 249.99942,249.99942 0 0 0 6,256 249.99942,249.99942 0 0 0 255.99787,506.00001 249.99942,249.99942 0 0 0 479.40727,368.041 l -12.7919,0 A 238.68111,238.68111 0 0 1 255.99787,494.68101 238.68111,238.68111 0 0 1 17.31691,256 238.68111,238.68111 0 0 1 255.99787,17.31904 238.68111,238.68111 0 0 1 466.54937,143.95899 l 12.6195,0 A 249.99942,249.99942 0 0 0 255.99787,6 Z"
     id="path4216-1"
     inkscape:connector-curvature="0" />
  <path
     d="m 722.86024,334.50691 -41.7981,-73.32174 c 15.64513,-3.50264 25.91949,-17.98018 25.91949,-37.12789 0,-21.71631 -13.77701,-38.52894 -34.32583,-38.52894 l -28.72157,0 0,148.97857 6.77181,0 0,-71.92069 23.11731,0 41.09754,71.92069 7.93935,0 z M 700.20992,224.05728 c 0,18.9142 -11.6755,32.2242 -27.55412,32.2242 l -21.94976,0 0,-64.68192 21.24929,0 c 16.3456,0 28.25459,13.54351 28.25459,32.45772 z"
     style="font-style:normal;font-variant:normal;font-weight:100;font-stretch:normal;font-size:medium;line-height:125%;font-family:Agenda;-inkscape-font-specification:'Agenda Thin';letter-spacing:0px;word-spacing:0px;fill:#0565c0;fill-opacity:1;stroke:none;stroke-width:1px;stroke-linecap:butt;stroke-linejoin:miter;stroke-opacity:1"
     id="path3722"
     inkscape:connector-curvature="0" />
  <path
     d="m 821.09076,334.50691 0,-148.97857 -7.0053,0 0,70.75314 -72.62118,0 0,-70.75314 -6.77171,0 0,148.97857 6.77171,0 0,-71.92069 72.62118,0 0,71.92069 7.0053,0 z"
     style="font-style:normal;font-variant:normal;font-weight:100;font-stretch:normal;font-size:medium;line-height:125%;font-family:Agenda;-inkscape-font-specification:'Agenda Thin';letter-spacing:0px;word-spacing:0px;fill:#0565c0;fill-opacity:1;stroke:none;stroke-width:1px;stroke-linecap:butt;stroke-linejoin:miter;stroke-opacity:1"
     id="path3724"
     inkscape:connector-curvature="0" />
  <g
     id="g4203"
     style="fill:#ffffff">
    <path
       d="m 651.85251,379.5942 -4.19344,-7.35608 c 1.56961,-0.3514 2.6004,-1.80387 2.6004,-3.72489 0,-2.17871 -1.38219,-3.86545 -3.44377,-3.86545 l -2.88152,0 0,14.94642 0.67938,0 0,-7.21551 2.31928,0 4.12315,7.21551 0.79652,0 z m -2.27242,-11.08097 c 0,1.89759 -1.17135,3.23293 -2.76439,3.23293 l -2.20214,0 0,-6.48928 2.13186,0 c 1.63989,0 2.83467,1.35877 2.83467,3.25635 z"
       style="font-style:normal;font-variant:normal;font-weight:100;font-stretch:normal;font-size:234.42227173px;line-height:125%;font-family:Agenda;-inkscape-font-specification:'Agenda, Thin';text-align:start;letter-spacing:0px;word-spacing:0px;writing-mode:lr-tb;text-anchor:start;fill:#ffffff;fill-opacity:1;stroke:none;stroke-width:1px;stroke-linecap:butt;stroke-linejoin:miter;stroke-opacity:1"
       id="path3728"
       inkscape:connector-curvature="0" />
    <path
       d="m 659.59915,379.5942 0,-0.6091 -5.88017,0 0,-6.60641 4.26371,0 0,-0.63253 -4.26371,0 0,-6.48928 5.24764,0 0,-0.6091 -5.92703,0 0,14.94642 6.55956,0 z"
       style="font-style:normal;font-variant:normal;font-weight:100;font-stretch:normal;font-size:234.42227173px;line-height:125%;font-family:Agenda;-inkscape-font-specification:'Agenda, Thin';text-align:start;letter-spacing:0px;word-spacing:0px;writing-mode:lr-tb;text-anchor:start;fill:#ffffff;fill-opacity:1;stroke:none;stroke-width:1px;stroke-linecap:butt;stroke-linejoin:miter;stroke-opacity:1"
       id="path3730"
       inkscape:connector-curvature="0" />
    <path
       d="m 667.39668,376.10358 c 0,-2.06158 -1.05421,-3.23293 -3.27978,-4.80253 -1.75702,-1.24164 -2.45983,-2.31928 -2.45983,-3.65462 0,-1.33533 0.8668,-2.50668 2.60039,-2.50668 0.84338,0 1.71017,0.32797 2.17871,0.72623 l 0.21085,-0.6091 c -0.5154,-0.37483 -1.40562,-0.72624 -2.41298,-0.72624 -2.20214,0 -3.25636,1.45248 -3.25636,3.16265 0,1.66331 0.81995,2.83466 2.95181,4.33399 1.92101,1.35877 2.78781,2.43641 2.78781,4.12315 0,1.89759 -1.31191,2.92838 -2.9518,2.92838 -1.42905,0 -2.43641,-0.53882 -3.25636,-1.26506 l 0.14057,0.8668 c 0.67938,0.53882 1.68674,1.03079 3.11579,1.03079 2.03815,0 3.63118,-1.28849 3.63118,-3.60776 z"
       style="font-style:normal;font-variant:normal;font-weight:100;font-stretch:normal;font-size:234.42227173px;line-height:125%;font-family:Agenda;-inkscape-font-specification:'Agenda, Thin';text-align:start;letter-spacing:0px;word-spacing:0px;writing-mode:lr-tb;text-anchor:start;fill:#ffffff;fill-opacity:1;stroke:none;stroke-width:1px;stroke-linecap:butt;stroke-linejoin:miter;stroke-opacity:1"
       id="path3732"
       inkscape:connector-curvature="0" />
    <path
       d="m 680.80351,372.12099 c 0,-4.38085 -2.45984,-7.66063 -5.88018,-7.66063 -3.42034,0 -5.92703,3.27978 -5.92703,7.66063 0,4.38085 2.50669,7.66063 5.92703,7.66063 3.42034,0 5.88018,-3.27978 5.88018,-7.66063 z m -0.67938,0 c 0,4.02944 -2.249,7.0281 -5.2008,7.0281 -2.97522,0 -5.22422,-2.99866 -5.22422,-7.0281 0,-4.02944 2.249,-7.0281 5.22422,-7.0281 2.9518,0 5.2008,2.99866 5.2008,7.0281 z"
       style="font-style:normal;font-variant:normal;font-weight:100;font-stretch:normal;font-size:234.42227173px;line-height:125%;font-family:Agenda;-inkscape-font-specification:'Agenda, Thin';text-align:start;letter-spacing:0px;word-spacing:0px;writing-mode:lr-tb;text-anchor:start;fill:#ffffff;fill-opacity:1;stroke:none;stroke-width:1px;stroke-linecap:butt;stroke-linejoin:miter;stroke-opacity:1"
       id="path3734"
       inkscape:connector-curvature="0" />
    <path
       d="m 691.72342,375.49448 0,-10.8467 -0.70281,0 0,10.79984 c 0,2.43641 -1.4759,3.70147 -3.63119,3.70147 -2.15528,0 -3.65461,-1.26506 -3.65461,-3.70147 l 0,-10.79984 -0.67938,0 0,10.8467 c 0,2.6941 1.63989,4.28714 4.33399,4.28714 2.69411,0 4.334,-1.59304 4.334,-4.28714 z"
       style="font-style:normal;font-variant:normal;font-weight:100;font-stretch:normal;font-size:234.42227173px;line-height:125%;font-family:Agenda;-inkscape-font-specification:'Agenda, Thin';text-align:start;letter-spacing:0px;word-spacing:0px;writing-mode:lr-tb;text-anchor:start;fill:#ffffff;fill-opacity:1;stroke:none;stroke-width:1px;stroke-linecap:butt;stroke-linejoin:miter;stroke-opacity:1"
       id="path3736"
       inkscape:connector-curvature="0" />
    <path
       d="m 702.41271,379.5942 -4.19343,-7.35608 c 1.56961,-0.3514 2.6004,-1.80387 2.6004,-3.72489 0,-2.17871 -1.38219,-3.86545 -3.44377,-3.86545 l -2.88152,0 0,14.94642 0.67938,0 0,-7.21551 2.31927,0 4.12316,7.21551 0.79651,0 z m -2.27241,-11.08097 c 0,1.89759 -1.17136,3.23293 -2.76439,3.23293 l -2.20214,0 0,-6.48928 2.13186,0 c 1.63989,0 2.83467,1.35877 2.83467,3.25635 z"
       style="font-style:normal;font-variant:normal;font-weight:100;font-stretch:normal;font-size:234.42227173px;line-height:125%;font-family:Agenda;-inkscape-font-specification:'Agenda, Thin';text-align:start;letter-spacing:0px;word-spacing:0px;writing-mode:lr-tb;text-anchor:start;fill:#ffffff;fill-opacity:1;stroke:none;stroke-width:1px;stroke-linecap:butt;stroke-linejoin:miter;stroke-opacity:1"
       id="path3738"
       inkscape:connector-curvature="0" />
    <path
       d="m 712.10929,365.35059 c -0.77309,-0.46854 -1.94444,-0.84337 -3.30321,-0.84337 -3.44377,0 -5.95045,3.23292 -5.95045,7.61377 0,4.38085 2.48326,7.61377 5.95045,7.61377 1.33534,0 2.43641,-0.30455 3.04551,-0.70281 l 0.11714,-0.74966 c -0.81994,0.53882 -1.85073,0.81994 -3.11579,0.81994 -3.02208,0 -5.2945,-2.97522 -5.2945,-6.98124 0,-4.00602 2.27242,-6.98124 5.2945,-6.98124 1.2182,0 2.41298,0.39826 3.06894,0.81994 l 0.18741,-0.6091 z"
       style="font-style:normal;font-variant:normal;font-weight:100;font-stretch:normal;font-size:234.42227173px;line-height:125%;font-family:Agenda;-inkscape-font-specification:'Agenda, Thin';text-align:start;letter-spacing:0px;word-spacing:0px;writing-mode:lr-tb;text-anchor:start;fill:#ffffff;fill-opacity:1;stroke:none;stroke-width:1px;stroke-linecap:butt;stroke-linejoin:miter;stroke-opacity:1"
       id="path3740"
       inkscape:connector-curvature="0" />
    <path
       d="m 720.82047,379.5942 0,-0.6091 -5.88018,0 0,-6.60641 4.26372,0 0,-0.63253 -4.26372,0 0,-6.48928 5.24765,0 0,-0.6091 -5.92702,0 0,14.94642 6.55955,0 z"
       style="font-style:normal;font-variant:normal;font-weight:100;font-stretch:normal;font-size:234.42227173px;line-height:125%;font-family:Agenda;-inkscape-font-specification:'Agenda, Thin';text-align:start;letter-spacing:0px;word-spacing:0px;writing-mode:lr-tb;text-anchor:start;fill:#ffffff;fill-opacity:1;stroke:none;stroke-width:1px;stroke-linecap:butt;stroke-linejoin:miter;stroke-opacity:1"
       id="path3742"
       inkscape:connector-curvature="0" />
    <path
       d="m 728.35701,365.25688 0,-0.6091 -5.99731,0 0,14.94642 0.67939,0 0,-7.21551 4.59168,0 0,-0.63253 -4.59168,0 0,-6.48928 5.31792,0 z"
       style="font-style:normal;font-variant:normal;font-weight:100;font-stretch:normal;font-size:234.42227173px;line-height:125%;font-family:Agenda;-inkscape-font-specification:'Agenda, Thin';text-align:start;letter-spacing:0px;word-spacing:0px;writing-mode:lr-tb;text-anchor:start;fill:#ffffff;fill-opacity:1;stroke:none;stroke-width:1px;stroke-linecap:butt;stroke-linejoin:miter;stroke-opacity:1"
       id="path3744"
       inkscape:connector-curvature="0" />
    <path
       d="m 738.5774,375.49448 0,-10.8467 -0.70281,0 0,10.79984 c 0,2.43641 -1.4759,3.70147 -3.63119,3.70147 -2.15528,0 -3.6546,-1.26506 -3.6546,-3.70147 l 0,-10.79984 -0.67939,0 0,10.8467 c 0,2.6941 1.63989,4.28714 4.33399,4.28714 2.69411,0 4.334,-1.59304 4.334,-4.28714 z"
       style="font-style:normal;font-variant:normal;font-weight:100;font-stretch:normal;font-size:234.42227173px;line-height:125%;font-family:Agenda;-inkscape-font-specification:'Agenda, Thin';text-align:start;letter-spacing:0px;word-spacing:0px;writing-mode:lr-tb;text-anchor:start;fill:#ffffff;fill-opacity:1;stroke:none;stroke-width:1px;stroke-linecap:butt;stroke-linejoin:miter;stroke-opacity:1"
       id="path3746"
       inkscape:connector-curvature="0" />
    <path
       d="m 747.74394,379.5942 0,-0.6091 -5.71619,0 0,-14.33732 -0.67938,0 0,14.94642 6.39557,0 z"
       style="font-style:normal;font-variant:normal;font-weight:100;font-stretch:normal;font-size:234.42227173px;line-height:125%;font-family:Agenda;-inkscape-font-specification:'Agenda, Thin';text-align:start;letter-spacing:0px;word-spacing:0px;writing-mode:lr-tb;text-anchor:start;fill:#ffffff;fill-opacity:1;stroke:none;stroke-width:1px;stroke-linecap:butt;stroke-linejoin:miter;stroke-opacity:1"
       id="path3748"
       inkscape:connector-curvature="0" />
    <path
       d="m 762.64497,379.5942 0,-14.94642 -0.7028,0 0,7.09838 -7.2858,0 0,-7.09838 -0.67938,0 0,14.94642 0.67938,0 0,-7.21551 7.2858,0 0,7.21551 0.7028,0 z"
       style="font-style:normal;font-variant:normal;font-weight:100;font-stretch:normal;font-size:234.42227173px;line-height:125%;font-family:Agenda;-inkscape-font-specification:'Agenda, Thin';text-align:start;letter-spacing:0px;word-spacing:0px;writing-mode:lr-tb;text-anchor:start;fill:#ffffff;fill-opacity:1;stroke:none;stroke-width:1px;stroke-linecap:butt;stroke-linejoin:miter;stroke-opacity:1"
       id="path3750"
       inkscape:connector-curvature="0" />
    <path
       d="m 774.08393,375.49448 0,-10.8467 -0.7028,0 0,10.79984 c 0,2.43641 -1.47591,3.70147 -3.63119,3.70147 -2.15529,0 -3.65461,-1.26506 -3.65461,-3.70147 l 0,-10.79984 -0.67938,0 0,10.8467 c 0,2.6941 1.63988,4.28714 4.33399,4.28714 2.69411,0 4.33399,-1.59304 4.33399,-4.28714 z"
       style="font-style:normal;font-variant:normal;font-weight:100;font-stretch:normal;font-size:234.42227173px;line-height:125%;font-family:Agenda;-inkscape-font-specification:'Agenda, Thin';text-align:start;letter-spacing:0px;word-spacing:0px;writing-mode:lr-tb;text-anchor:start;fill:#ffffff;fill-opacity:1;stroke:none;stroke-width:1px;stroke-linecap:butt;stroke-linejoin:miter;stroke-opacity:1"
       id="path3752"
       inkscape:connector-curvature="0" />
    <path
       d="m 789.20093,379.5942 -0.91366,-14.94642 -0.60909,0 -3.27979,9.30052 c -0.53882,1.49932 -1.07764,3.18607 -1.54617,4.68539 l -0.0469,0 c -0.49196,-1.52275 -1.03079,-3.25635 -1.52275,-4.66197 l -3.27978,-9.32394 -0.6091,0 -0.89023,14.94642 0.63253,0 0.53882,-9.15995 c 0.0937,-1.42905 0.16399,-3.02209 0.18741,-4.56827 l 0.0469,0 c 0.46854,1.45248 1.05422,3.35006 1.49933,4.63855 l 3.20949,9.1131 0.37484,0 3.2095,-9.1131 c 0.51539,-1.42905 1.10106,-3.13922 1.54618,-4.63855 l 0.0468,0 c 0.0234,1.56961 0.0937,3.02209 0.18741,4.56827 l 0.53883,9.15995 0.67938,0 z"
       style="font-style:normal;font-variant:normal;font-weight:100;font-stretch:normal;font-size:234.42227173px;line-height:125%;font-family:Agenda;-inkscape-font-specification:'Agenda, Thin';text-align:start;letter-spacing:0px;word-spacing:0px;writing-mode:lr-tb;text-anchor:start;fill:#ffffff;fill-opacity:1;stroke:none;stroke-width:1px;stroke-linecap:butt;stroke-linejoin:miter;stroke-opacity:1"
       id="path3754"
       inkscape:connector-curvature="0" />
    <path
       d="m 800.23286,379.5942 -4.49799,-15.08698 -0.42168,0 -4.49799,15.08698 0.65595,0 1.38221,-4.61512 5.27107,0 1.38219,4.61512 0.72624,0 z m -2.29585,-5.22422 -4.89625,0 1.68675,-5.85675 c 0.28112,-0.9605 0.51539,-1.99129 0.72623,-2.92837 l 0.0469,0 c 0.23427,0.93708 0.46854,1.99129 0.74967,2.9518 l 1.68674,5.83332 z"
       style="font-style:normal;font-variant:normal;font-weight:100;font-stretch:normal;font-size:234.42227173px;line-height:125%;font-family:Agenda;-inkscape-font-specification:'Agenda, Thin';text-align:start;letter-spacing:0px;word-spacing:0px;writing-mode:lr-tb;text-anchor:start;fill:#ffffff;fill-opacity:1;stroke:none;stroke-width:1px;stroke-linecap:butt;stroke-linejoin:miter;stroke-opacity:1"
       id="path3756"
       inkscape:connector-curvature="0" />
    <path
       d="m 811.9727,379.68791 0,-15.04013 -0.65595,0 0,9.08967 c 0,1.49933 0.0234,2.92838 0.0703,4.47456 l -0.0469,0 c -0.81994,-1.42905 -1.85073,-3.04551 -2.76439,-4.49798 l -5.73961,-9.06625 -0.63253,0 0,14.94642 0.65596,0 0,-9.18338 c 0,-1.59304 -0.0234,-3.11579 -0.0703,-4.56826 l 0.0469,-0.0234 c 0.74967,1.38219 1.94444,3.13922 2.9518,4.70882 l 5.8099,9.15996 0.37483,0 z"
       style="font-style:normal;font-variant:normal;font-weight:100;font-stretch:normal;font-size:234.42227173px;line-height:125%;font-family:Agenda;-inkscape-font-specification:'Agenda, Thin';text-align:start;letter-spacing:0px;word-spacing:0px;writing-mode:lr-tb;text-anchor:start;fill:#ffffff;fill-opacity:1;stroke:none;stroke-width:1px;stroke-linecap:butt;stroke-linejoin:miter;stroke-opacity:1"
       id="path3758"
       inkscape:connector-curvature="0" />
    <path
       d="m 821.09056,376.10358 c 0,-2.06158 -1.05421,-3.23293 -3.27978,-4.80253 -1.75702,-1.24164 -2.45983,-2.31928 -2.45983,-3.65462 0,-1.33533 0.8668,-2.50668 2.60039,-2.50668 0.84337,0 1.71018,0.32797 2.17872,0.72623 l 0.21084,-0.6091 c -0.5154,-0.37483 -1.40562,-0.72624 -2.41298,-0.72624 -2.20214,0 -3.25635,1.45248 -3.25635,3.16265 0,1.66331 0.81994,2.83466 2.9518,4.33399 1.92102,1.35877 2.78781,2.43641 2.78781,4.12315 0,1.89759 -1.31191,2.92838 -2.9518,2.92838 -1.42905,0 -2.4364,-0.53882 -3.25635,-1.26506 l 0.14056,0.8668 c 0.67939,0.53882 1.68674,1.03079 3.11579,1.03079 2.03815,0 3.63118,-1.28849 3.63118,-3.60776 z"
       style="font-style:normal;font-variant:normal;font-weight:100;font-stretch:normal;font-size:234.42227173px;line-height:125%;font-family:Agenda;-inkscape-font-specification:'Agenda, Thin';text-align:start;letter-spacing:0px;word-spacing:0px;writing-mode:lr-tb;text-anchor:start;fill:#ffffff;fill-opacity:1;stroke:none;stroke-width:1px;stroke-linecap:butt;stroke-linejoin:miter;stroke-opacity:1"
       id="path3760"
       inkscape:connector-curvature="0" />
  </g>
  <path
     inkscape:connector-curvature="0"
     id="path4169"
     style="font-style:normal;font-variant:normal;font-weight:100;font-stretch:normal;font-size:medium;line-height:125%;font-family:Agenda;-inkscape-font-specification:'Agenda, Thin';text-align:start;letter-spacing:0px;word-spacing:0px;writing-mode:lr-tb;text-anchor:start;fill:#ffffff;fill-opacity:1;stroke:none;stroke-width:1px;stroke-linecap:butt;stroke-linejoin:miter;stroke-opacity:1"
     d="m 569.54271,327.11094 c -7.76276,-1.94069 -16.81931,-8.40965 -16.81931,-23.61173 l 0,-84.09657 c 0,-24.58208 -18.43656,-38.16691 -42.04829,-38.16691 -13.90828,0 -24.58208,4.20483 -32.02139,9.70345 l 2.58759,7.76276 c 6.46896,-5.17517 17.46621,-9.38 29.11035,-9.38 18.76,0 33.31518,10.35035 33.31518,30.7276 l 0,22.96483 -32.34484,3.23448 c -20.70069,1.94069 -39.4607,14.87863 -39.4607,44.63588 0,24.90552 15.20208,42.04829 37.84346,42.04829 16.81932,0 32.66829,-11.3207 35.25587,-25.22898 0.32345,15.20208 10.0269,22.96484 18.43656,25.22898 l 6.14552,-5.82208 z m -25.87587,-38.49035 c 0,22.96483 -17.78966,36.22622 -33.63863,36.22622 -16.49587,0 -29.11035,-12.93794 -29.11035,-33.63863 0,-24.25863 14.23173,-34.93243 31.69794,-36.87312 l 31.05104,-3.23448 0,37.52001 z" />
  <path
     inkscape:connector-curvature="0"
     id="path4171"
     style="font-style:normal;font-variant:normal;font-weight:100;font-stretch:normal;font-size:medium;line-height:125%;font-family:Agenda;-inkscape-font-specification:'Agenda, Thin';text-align:start;letter-spacing:0px;word-spacing:0px;writing-mode:lr-tb;text-anchor:start;fill:#ffffff;fill-opacity:1;stroke:none;stroke-width:1px;stroke-linecap:butt;stroke-linejoin:miter;stroke-opacity:1"
     d="m 608.56878,146.95021 c 0,-2.91104 -6.46897,-9.05656 -9.38001,-9.05656 -2.91103,0 -9.05655,6.14552 -9.05655,9.05656 0,2.91103 6.14552,9.05655 9.05655,9.05655 2.91104,0 9.38001,-6.14552 9.38001,-9.05655 z m -4.85173,183.39522 0,-146.52211 -9.05655,0 0,146.52211 9.05655,0 z" />
</svg>
