<?xml version="1.0" encoding="UTF-8" standalone="no"?>
<!-- Created with Inkscape (http://www.inkscape.org/) -->

<svg
   xmlns:dc="http://purl.org/dc/elements/1.1/"
   xmlns:cc="http://creativecommons.org/ns#"
   xmlns:rdf="http://www.w3.org/1999/02/22-rdf-syntax-ns#"
   xmlns:svg="http://www.w3.org/2000/svg"
   xmlns="http://www.w3.org/2000/svg"
   xmlns:sodipodi="http://sodipodi.sourceforge.net/DTD/sodipodi-0.dtd"
   xmlns:inkscape="http://www.inkscape.org/namespaces/inkscape"
   id="svg4268"
   version="1.1"
   inkscape:version="0.91 r13725"
   width="1105.7495"
   height="512"
   viewBox="0 0 1105.7495 511.99999"
   sodipodi:docname="caRHds-Logo-vector.svg"
   inkscape:export-filename="/home/m/RHDrive/Design/CI/Logos/caRHds/caRHds-Logo-vector.png"
   inkscape:export-xdpi="300"
   inkscape:export-ydpi="300">
  <metadata
     id="metadata4274">
    <rdf:RDF>
      <cc:Work
         rdf:about="">
        <dc:format>image/svg+xml</dc:format>
        <dc:type
           rdf:resource="http://purl.org/dc/dcmitype/StillImage" />
        <dc:title></dc:title>
      </cc:Work>
    </rdf:RDF>
  </metadata>
  <defs
     id="defs4272" />
  <sodipodi:namedview
     pagecolor="#ffffff"
     bordercolor="#666666"
     borderopacity="1"
     objecttolerance="10"
     gridtolerance="10"
     guidetolerance="10"
     inkscape:pageopacity="0"
     inkscape:pageshadow="2"
     inkscape:window-width="3440"
     inkscape:window-height="1411"
     id="namedview4270"
     showgrid="false"
     fit-margin-top="6"
     fit-margin-left="6"
     fit-margin-right="6"
     fit-margin-bottom="6"
     inkscape:zoom="0.61609195"
     inkscape:cx="1045.1145"
     inkscape:cy="-45.297421"
     inkscape:window-x="0"
     inkscape:window-y="0"
     inkscape:window-maximized="1"
     inkscape:current-layer="svg4268" />
  <g
     id="g5723"
     transform="translate(-1049.0246,409.43038)">
    <path
       inkscape:connector-curvature="0"
       id="path4216-1"
       d="m 1305.0225,-403.43038 a 249.99942,249.99942 0 0 0 -249.9979,250.00001 249.99942,249.99942 0 0 0 249.9979,250.000002 249.99942,249.99942 0 0 0 223.4094,-137.959006 l -12.7919,0 a 238.68111,238.68111 0 0 1 -210.6175,126.640006 238.68111,238.68111 0 0 1 -238.681,-238.681002 238.68111,238.68111 0 0 1 238.681,-238.68097 238.68111,238.68111 0 0 1 210.5515,126.63995 l 12.6195,0 a 249.99942,249.99942 0 0 0 -223.171,-137.95899 z"
       style="opacity:1;fill:#3399ff;fill-opacity:1;fill-rule:nonzero;stroke:none;stroke-width:6;stroke-linecap:round;stroke-linejoin:round;stroke-miterlimit:4;stroke-dasharray:none;stroke-dashoffset:0;stroke-opacity:1" />
    <path
       d="m 1601.3695,-217.25627 c -7.7738,-5.18248 -20.0821,-9.71714 -34.334,-9.71714 -36.6012,0 -59.9223,30.44704 -59.9223,74.82201 0,45.02277 24.2928,75.145914 59.9223,75.145914 12.3084,0 22.9973,-1.943429 30.4471,-6.478096 l 1.6195,-9.717145 c -9.0693,5.830287 -19.1104,8.097621 -31.7426,8.097621 -31.0949,0 -51.177,-28.503624 -51.177,-66.724394 0,-38.22077 20.0821,-67.04829 51.177,-67.04829 11.6605,0 24.2928,4.85857 31.4187,10.04104 l 2.5913,-8.42152 z"
       style="font-style:normal;font-variant:normal;font-weight:100;font-stretch:normal;font-size:medium;line-height:125%;font-family:Agenda;-inkscape-font-specification:'Agenda Thin';text-align:start;letter-spacing:0px;word-spacing:0px;writing-mode:lr-tb;text-anchor:start;fill:#333333;fill-opacity:1;stroke:none;stroke-width:1px;stroke-linecap:butt;stroke-linejoin:miter;stroke-opacity:1"
       id="path4823"
       inkscape:connector-curvature="0" />
    <path
       d="m 1712.7876,-81.864057 c -7.7737,-1.943429 -16.843,-8.421526 -16.843,-23.645053 l 0,-84.21526 c 0,-24.61675 -18.4626,-38.22075 -42.1076,-38.22075 -13.9279,0 -24.6168,4.21075 -32.0666,9.71714 l 2.5912,7.77371 c 6.4781,-5.18248 17.4909,-9.39323 29.1515,-9.39323 18.7864,0 33.3622,10.36494 33.3622,30.77094 l 0,22.99725 -32.3905,3.23906 c -20.7299,1.94342 -39.5164,14.89961 -39.5164,44.69885 0,24.940673 15.2235,42.107629 37.8969,42.107629 16.843,0 32.7143,-11.336669 35.3056,-25.264579 0.3239,15.223529 10.041,22.997245 18.4626,25.264579 l 6.1541,-5.830286 z m -25.9123,-38.544673 c 0,22.997242 -17.8148,36.277338 -33.6861,36.277338 -16.5192,0 -29.1515,-12.956192 -29.1515,-33.686098 0,-24.29286 14.2518,-34.98172 31.7427,-36.92515 l 31.0949,-3.23905 0,37.57296 z"
       style="font-style:normal;font-variant:normal;font-weight:100;font-stretch:normal;font-size:medium;line-height:125%;font-family:Agenda;-inkscape-font-specification:'Agenda Thin';text-align:start;letter-spacing:0px;word-spacing:0px;writing-mode:lr-tb;text-anchor:start;fill:#333333;fill-opacity:1;stroke:none;stroke-width:1px;stroke-linecap:butt;stroke-linejoin:miter;stroke-opacity:1"
       id="path4825"
       inkscape:connector-curvature="0" />
    <g
       transform="translate(2.2954586,0)"
       id="g5076">
      <path
         inkscape:connector-curvature="0"
         id="path4829"
         style="font-style:normal;font-variant:normal;font-weight:100;font-stretch:normal;font-size:medium;line-height:125%;font-family:Agenda;-inkscape-font-specification:'Agenda Thin';text-align:start;letter-spacing:0px;word-spacing:0px;writing-mode:lr-tb;text-anchor:start;fill:#333333;fill-opacity:1;stroke:none;stroke-width:1px;stroke-linecap:butt;stroke-linejoin:miter;stroke-opacity:1"
         d="m 2045.7241,-78.625009 0,-222.846511 -9.0694,0 0,89.72163 c -6.802,-9.06933 -20.0821,-16.19523 -36.9251,-16.19523 -35.9534,0 -59.9224,32.71439 -59.9224,76.44152 0,43.72716 24.6168,75.469829 59.5985,75.469829 17.4908,0 31.4187,-8.097621 37.249,-17.49086 l 0.3239,0 0,14.899622 8.7455,0 z m -9.0694,-24.292861 c -6.802,9.393239 -20.7299,18.786478 -36.6012,18.786478 -29.4753,0 -51.177,-28.503628 -51.177,-67.372208 0,-39.19248 21.3778,-68.02 51.177,-68.02 15.8713,0 29.1514,8.09762 36.6012,17.81477 l 0,98.79096 z" />
      <path
         inkscape:connector-curvature="0"
         id="path4831"
         style="font-style:normal;font-variant:normal;font-weight:100;font-stretch:normal;font-size:medium;line-height:125%;font-family:Agenda;-inkscape-font-specification:'Agenda Thin';text-align:start;letter-spacing:0px;word-spacing:0px;writing-mode:lr-tb;text-anchor:start;fill:#333333;fill-opacity:1;stroke:none;stroke-width:1px;stroke-linecap:butt;stroke-linejoin:miter;stroke-opacity:1"
         d="m 2146.4787,-112.31111 c 0,-21.05381 -12.3084,-33.6861 -34.6578,-48.26181 -14.2518,-9.06935 -23.969,-16.84306 -23.969,-34.33391 0,-14.25183 10.0411,-23.64506 23.969,-23.64506 10.041,0 19.1104,4.21077 24.2929,8.42152 l 2.9151,-8.09761 c -4.8586,-3.88687 -15.5474,-8.42152 -27.5319,-8.42152 -18.4626,0 -32.7144,11.66057 -32.7144,31.74267 0,20.7299 10.365,31.09485 30.771,44.05104 15.8713,10.04106 27.5319,21.05382 27.5319,38.54468 0,17.49086 -13.2801,26.884099 -28.8276,26.884099 -13.604,0 -24.6167,-5.506381 -33.3622,-14.251812 l 1.9435,11.984479 c 7.1259,5.830287 16.843,10.364954 31.7426,10.364954 21.0539,0 37.8969,-11.984479 37.8969,-34.98172 z" />
    </g>
    <g
       transform="translate(-82.062605,0)"
       id="g4972">
      <g
         style="fill:#0565c0;fill-opacity:1"
         id="g4974"
         transform="matrix(0.99824713,0,0,0.99824713,476.42021,-947.80742)">
        <path
           d="m 1426.7889,874.41669 -41.8715,-73.45049 c 15.6726,-3.50879 25.965,-18.01175 25.965,-37.19309 0,-21.75444 -13.8012,-38.59659 -34.3861,-38.59659 l -28.772,0 0,149.24017 6.7837,0 0,-72.04698 23.1579,0 41.1697,72.04698 7.9533,0 z m -22.6901,-110.64358 c 0,18.94742 -11.696,32.28079 -27.6025,32.28079 l -21.9883,0 0,-64.7955 21.2866,0 c 16.3743,0 28.3042,13.56729 28.3042,32.51471 z"
           style="font-style:normal;font-variant:normal;font-weight:100;font-stretch:normal;font-size:medium;line-height:125%;font-family:Agenda;-inkscape-font-specification:'Agenda Thin';letter-spacing:0px;word-spacing:0px;fill:#0565c0;fill-opacity:1;stroke:none;stroke-width:1px;stroke-linecap:butt;stroke-linejoin:miter;stroke-opacity:1"
           id="path4976"
           inkscape:connector-curvature="0" />
        <path
           d="m 1525.1919,874.41669 0,-149.24017 -7.0176,0 0,70.87738 -72.7487,0 0,-70.87738 -6.7836,0 0,149.24017 6.7836,0 0,-72.04698 72.7487,0 0,72.04698 7.0176,0 z"
           style="font-style:normal;font-variant:normal;font-weight:100;font-stretch:normal;font-size:medium;line-height:125%;font-family:Agenda;-inkscape-font-specification:'Agenda Thin';letter-spacing:0px;word-spacing:0px;fill:#0565c0;fill-opacity:1;stroke:none;stroke-width:1px;stroke-linecap:butt;stroke-linejoin:miter;stroke-opacity:1"
           id="path4978"
           inkscape:connector-curvature="0" />
      </g>
      <g
         style="opacity:1;fill:#333333"
         transform="matrix(0.09993501,0,0,0.09993501,1773.0381,-27.967824)"
         id="g4980">
        <path
           inkscape:connector-curvature="0"
           id="path4982"
           style="font-style:normal;font-variant:normal;font-weight:100;font-stretch:normal;font-size:234.42227173px;line-height:125%;font-family:Agenda;-inkscape-font-specification:'Agenda, Thin';text-align:start;letter-spacing:0px;word-spacing:0px;writing-mode:lr-tb;text-anchor:start;fill:#333333;fill-opacity:1;stroke:none;stroke-width:1px;stroke-linecap:butt;stroke-linejoin:miter;stroke-opacity:1"
           d="M 566.99124,-18.695646 525.02965,-92.30424 c 15.7063,-3.516334 26.02088,-18.05051 26.02088,-37.27314 0,-21.80127 -13.83092,-38.67968 -34.46008,-38.67968 l -28.83394,0 0,149.561414 6.79825,0 0,-72.20206 23.2078,0 41.25832,72.20206 7.97036,0 z M 544.25228,-129.57738 c 0,18.9882 -11.72111,32.350273 -27.66183,32.350273 l -22.03569,0 0,-64.934973 21.33242,0 c 16.40956,0 28.3651,13.5965 28.3651,32.5847 z" />
        <path
           inkscape:connector-curvature="0"
           id="path4984"
           style="font-style:normal;font-variant:normal;font-weight:100;font-stretch:normal;font-size:234.42227173px;line-height:125%;font-family:Agenda;-inkscape-font-specification:'Agenda, Thin';text-align:start;letter-spacing:0px;word-spacing:0px;writing-mode:lr-tb;text-anchor:start;fill:#333333;fill-opacity:1;stroke:none;stroke-width:1px;stroke-linecap:butt;stroke-linejoin:miter;stroke-opacity:1"
           d="m 644.50809,-18.695646 0,-6.094979 -58.83999,0 0,-66.107081 42.66485,0 0,-6.329401 -42.66485,0 0,-64.934973 52.51059,0 0,-6.09498 -59.30884,0 0,149.561414 65.63824,0 z" />
        <path
           inkscape:connector-curvature="0"
           id="path4986"
           style="font-style:normal;font-variant:normal;font-weight:100;font-stretch:normal;font-size:234.42227173px;line-height:125%;font-family:Agenda;-inkscape-font-specification:'Agenda, Thin';text-align:start;letter-spacing:0px;word-spacing:0px;writing-mode:lr-tb;text-anchor:start;fill:#333333;fill-opacity:1;stroke:none;stroke-width:1px;stroke-linecap:butt;stroke-linejoin:miter;stroke-opacity:1"
           d="m 722.53408,-53.624565 c 0,-20.62916 -10.549,-32.350273 -32.81912,-48.056565 -17.58167,-12.42438 -24.61434,-23.20781 -24.61434,-36.56987 0,-13.36207 8.67363,-25.08319 26.02088,-25.08319 8.4392,0 17.11282,3.28191 21.80127,7.26709 l 2.1098,-6.09498 c -5.15729,-3.75075 -14.06534,-7.26709 -24.1455,-7.26709 -22.03569,0 -32.58469,14.53418 -32.58469,31.64701 0,16.64398 8.20478,28.36509 29.5372,43.36812 19.22263,13.596492 27.89626,24.379916 27.89626,41.25832 0,18.988204 -13.12765,29.302784 -29.53721,29.302784 -14.29976,0 -24.37992,-5.391713 -32.5847,-12.658803 l 1.40654,8.673624 c 6.79824,5.391712 16.8784,10.31458 31.17816,10.31458 20.39474,0 36.33545,-12.893225 36.33545,-36.10103 z" />
        <path
           inkscape:connector-curvature="0"
           id="path4988"
           style="font-style:normal;font-variant:normal;font-weight:100;font-stretch:normal;font-size:234.42227173px;line-height:125%;font-family:Agenda;-inkscape-font-specification:'Agenda, Thin';text-align:start;letter-spacing:0px;word-spacing:0px;writing-mode:lr-tb;text-anchor:start;fill:#333333;fill-opacity:1;stroke:none;stroke-width:1px;stroke-linecap:butt;stroke-linejoin:miter;stroke-opacity:1"
           d="m 856.68954,-93.476351 c 0,-43.836969 -24.61433,-76.656079 -58.83999,-76.656079 -34.22565,0 -59.30883,32.81911 -59.30883,76.656079 0,43.836965 25.08318,76.656083 59.30883,76.656083 34.22566,0 58.83999,-32.819118 58.83999,-76.656083 z m -6.79824,0 c 0,40.320631 -22.50454,70.326682 -52.04175,70.326682 -29.77162,0 -52.27616,-30.006051 -52.27616,-70.326682 0,-40.320629 22.50454,-70.326679 52.27616,-70.326679 29.53721,0 52.04175,30.00605 52.04175,70.326679 z" />
        <path
           inkscape:connector-curvature="0"
           id="path4990"
           style="font-style:normal;font-variant:normal;font-weight:100;font-stretch:normal;font-size:234.42227173px;line-height:125%;font-family:Agenda;-inkscape-font-specification:'Agenda, Thin';text-align:start;letter-spacing:0px;word-spacing:0px;writing-mode:lr-tb;text-anchor:start;fill:#333333;fill-opacity:1;stroke:none;stroke-width:1px;stroke-linecap:butt;stroke-linejoin:miter;stroke-opacity:1"
           d="m 965.95964,-59.719544 0,-108.537516 -7.03267,0 0,108.068672 c 0,24.379916 -14.7686,37.038719 -36.33545,37.038719 -21.56685,0 -36.56987,-12.658803 -36.56987,-37.038719 l 0,-108.068672 -6.79825,0 0,108.537516 c 0,26.958561 16.40956,42.899276 43.36812,42.899276 26.95856,0 43.36812,-15.940715 43.36812,-42.899276 z" />
        <path
           inkscape:connector-curvature="0"
           id="path4992"
           style="font-style:normal;font-variant:normal;font-weight:100;font-stretch:normal;font-size:234.42227173px;line-height:125%;font-family:Agenda;-inkscape-font-specification:'Agenda, Thin';text-align:start;letter-spacing:0px;word-spacing:0px;writing-mode:lr-tb;text-anchor:start;fill:#333333;fill-opacity:1;stroke:none;stroke-width:1px;stroke-linecap:butt;stroke-linejoin:miter;stroke-opacity:1"
           d="m 1072.9221,-18.695646 -41.9616,-73.608594 c 15.7063,-3.516334 26.0209,-18.05051 26.0209,-37.27314 0,-21.80127 -13.8309,-38.67968 -34.4601,-38.67968 l -28.83391,0 0,149.561414 6.79821,0 0,-72.20206 23.2078,0 41.2584,72.20206 7.9703,0 z m -22.7389,-110.881734 c 0,18.9882 -11.7212,32.350273 -27.6619,32.350273 l -22.0357,0 0,-64.934973 21.3325,0 c 16.4095,0 28.3651,13.5965 28.3651,32.5847 z" />
        <path
           inkscape:connector-curvature="0"
           id="path4994"
           style="font-style:normal;font-variant:normal;font-weight:100;font-stretch:normal;font-size:234.42227173px;line-height:125%;font-family:Agenda;-inkscape-font-specification:'Agenda, Thin';text-align:start;letter-spacing:0px;word-spacing:0px;writing-mode:lr-tb;text-anchor:start;fill:#333333;fill-opacity:1;stroke:none;stroke-width:1px;stroke-linecap:butt;stroke-linejoin:miter;stroke-opacity:1"
           d="m 1169.951,-161.22439 c -7.736,-4.68844 -19.4571,-8.4392 -33.0536,-8.4392 -34.4601,0 -59.5432,32.35027 -59.5432,76.187239 0,43.836965 24.8487,76.187238 59.5432,76.187238 13.3621,0 24.3799,-3.047489 30.4749,-7.032668 l 1.1721,-7.501513 c -8.2047,5.391713 -18.5193,8.20478 -31.1781,8.20478 -30.2405,0 -52.9795,-29.771629 -52.9795,-69.857837 0,-40.086209 22.739,-69.857839 52.9795,-69.857839 12.1899,0 24.1455,3.98518 30.7093,8.20478 l 1.8754,-6.09498 z" />
        <path
           inkscape:connector-curvature="0"
           id="path4996"
           style="font-style:normal;font-variant:normal;font-weight:100;font-stretch:normal;font-size:234.42227173px;line-height:125%;font-family:Agenda;-inkscape-font-specification:'Agenda, Thin';text-align:start;letter-spacing:0px;word-spacing:0px;writing-mode:lr-tb;text-anchor:start;fill:#333333;fill-opacity:1;stroke:none;stroke-width:1px;stroke-linecap:butt;stroke-linejoin:miter;stroke-opacity:1"
           d="m 1257.1194,-18.695646 0,-6.094979 -58.84,0 0,-66.107081 42.6649,0 0,-6.329401 -42.6649,0 0,-64.934973 52.5106,0 0,-6.09498 -59.3088,0 0,149.561414 65.6382,0 z" />
        <path
           inkscape:connector-curvature="0"
           id="path4998"
           style="font-style:normal;font-variant:normal;font-weight:100;font-stretch:normal;font-size:234.42227173px;line-height:125%;font-family:Agenda;-inkscape-font-specification:'Agenda, Thin';text-align:start;letter-spacing:0px;word-spacing:0px;writing-mode:lr-tb;text-anchor:start;fill:#333333;fill-opacity:1;stroke:none;stroke-width:1px;stroke-linecap:butt;stroke-linejoin:miter;stroke-opacity:1"
           d="m 1332.5338,-162.16208 0,-6.09498 -60.0121,0 0,149.561414 6.7983,0 0,-72.20206 45.9467,0 0,-6.329401 -45.9467,0 0,-64.934973 53.2138,0 z" />
        <path
           inkscape:connector-curvature="0"
           id="path5000"
           style="font-style:normal;font-variant:normal;font-weight:100;font-stretch:normal;font-size:234.42227173px;line-height:125%;font-family:Agenda;-inkscape-font-specification:'Agenda, Thin';text-align:start;letter-spacing:0px;word-spacing:0px;writing-mode:lr-tb;text-anchor:start;fill:#333333;fill-opacity:1;stroke:none;stroke-width:1px;stroke-linecap:butt;stroke-linejoin:miter;stroke-opacity:1"
           d="m 1434.8042,-59.719544 0,-108.537516 -7.0327,0 0,108.068672 c 0,24.379916 -14.7686,37.038719 -36.3355,37.038719 -21.5668,0 -36.5698,-12.658803 -36.5698,-37.038719 l 0,-108.068672 -6.7983,0 0,108.537516 c 0,26.958561 16.4096,42.899276 43.3681,42.899276 26.9586,0 43.3682,-15.940715 43.3682,-42.899276 z" />
        <path
           inkscape:connector-curvature="0"
           id="path5002"
           style="font-style:normal;font-variant:normal;font-weight:100;font-stretch:normal;font-size:234.42227173px;line-height:125%;font-family:Agenda;-inkscape-font-specification:'Agenda, Thin';text-align:start;letter-spacing:0px;word-spacing:0px;writing-mode:lr-tb;text-anchor:start;fill:#333333;fill-opacity:1;stroke:none;stroke-width:1px;stroke-linecap:butt;stroke-linejoin:miter;stroke-opacity:1"
           d="m 1526.5292,-18.695646 0,-6.094979 -57.1991,0 0,-143.466435 -6.7982,0 0,149.561414 63.9973,0 z" />
        <path
           inkscape:connector-curvature="0"
           id="path5004"
           style="font-style:normal;font-variant:normal;font-weight:100;font-stretch:normal;font-size:234.42227173px;line-height:125%;font-family:Agenda;-inkscape-font-specification:'Agenda, Thin';text-align:start;letter-spacing:0px;word-spacing:0px;writing-mode:lr-tb;text-anchor:start;fill:#333333;fill-opacity:1;stroke:none;stroke-width:1px;stroke-linecap:butt;stroke-linejoin:miter;stroke-opacity:1"
           d="m 1675.6364,-18.695646 0,-149.561414 -7.0326,0 0,71.029953 -72.9054,0 0,-71.029953 -6.7982,0 0,149.561414 6.7982,0 0,-72.20206 72.9054,0 0,72.20206 7.0326,0 z" />
        <path
           inkscape:connector-curvature="0"
           id="path5006"
           style="font-style:normal;font-variant:normal;font-weight:100;font-stretch:normal;font-size:234.42227173px;line-height:125%;font-family:Agenda;-inkscape-font-specification:'Agenda, Thin';text-align:start;letter-spacing:0px;word-spacing:0px;writing-mode:lr-tb;text-anchor:start;fill:#333333;fill-opacity:1;stroke:none;stroke-width:1px;stroke-linecap:butt;stroke-linejoin:miter;stroke-opacity:1"
           d="m 1790.1004,-59.719544 0,-108.537516 -7.0326,0 0,108.068672 c 0,24.379916 -14.7687,37.038719 -36.3355,37.038719 -21.5669,0 -36.5699,-12.658803 -36.5699,-37.038719 l 0,-108.068672 -6.7982,0 0,108.537516 c 0,26.958561 16.4095,42.899276 43.3681,42.899276 26.9586,0 43.3681,-15.940715 43.3681,-42.899276 z" />
        <path
           inkscape:connector-curvature="0"
           id="path5008"
           style="font-style:normal;font-variant:normal;font-weight:100;font-stretch:normal;font-size:234.42227173px;line-height:125%;font-family:Agenda;-inkscape-font-specification:'Agenda, Thin';text-align:start;letter-spacing:0px;word-spacing:0px;writing-mode:lr-tb;text-anchor:start;fill:#333333;fill-opacity:1;stroke:none;stroke-width:1px;stroke-linecap:butt;stroke-linejoin:miter;stroke-opacity:1"
           d="m 1941.3687,-18.695646 -9.1425,-149.561414 -6.0949,0 -32.8192,93.065646 c -5.3917,15.003026 -10.7834,31.881429 -15.4718,46.884455 l -0.4689,0 c -4.9228,-15.237448 -10.3146,-32.584696 -15.2374,-46.650033 l -32.8191,-93.300068 -6.095,0 -8.9081,149.561414 6.3294,0 5.3917,-91.659104 c 0.9377,-14.29976 1.641,-30.24048 1.8754,-45.71235 l 0.4689,0 c 4.6884,14.53418 10.549,33.52239 15.003,46.41561 l 32.1158,91.190266 3.7508,0 32.1159,-91.190266 c 5.1572,-14.29976 11.0178,-31.41258 15.4718,-46.41561 l 0.4689,0 c 0.2344,15.70629 0.9377,30.24048 1.8753,45.71235 l 5.3918,91.659104 6.7982,0 z" />
        <path
           inkscape:connector-curvature="0"
           id="path5010"
           style="font-style:normal;font-variant:normal;font-weight:100;font-stretch:normal;font-size:234.42227173px;line-height:125%;font-family:Agenda;-inkscape-font-specification:'Agenda, Thin';text-align:start;letter-spacing:0px;word-spacing:0px;writing-mode:lr-tb;text-anchor:start;fill:#333333;fill-opacity:1;stroke:none;stroke-width:1px;stroke-linecap:butt;stroke-linejoin:miter;stroke-opacity:1"
           d="m 2051.7597,-18.695646 -45.0091,-150.967944 -4.2196,0 -45.0091,150.967944 6.5638,0 13.831,-46.181188 52.745,0 13.8309,46.181188 7.2671,0 z m -22.9734,-52.276167 -48.9943,0 16.8784,-58.605567 c 2.8131,-9.61131 5.1573,-19.92589 7.2671,-29.30278 l 0.4689,0 c 2.3442,9.37689 4.6884,19.92589 7.5015,29.5372 l 16.8784,58.371147 z" />
        <path
           inkscape:connector-curvature="0"
           id="path5012"
           style="font-style:normal;font-variant:normal;font-weight:100;font-stretch:normal;font-size:234.42227173px;line-height:125%;font-family:Agenda;-inkscape-font-specification:'Agenda, Thin';text-align:start;letter-spacing:0px;word-spacing:0px;writing-mode:lr-tb;text-anchor:start;fill:#333333;fill-opacity:1;stroke:none;stroke-width:1px;stroke-linecap:butt;stroke-linejoin:miter;stroke-opacity:1"
           d="m 2169.2345,-17.757957 0,-150.499103 -6.5638,0 0,90.955846 c 0,15.003025 0.2344,29.302784 0.7032,44.774654 l -0.4688,0 c -8.2048,-14.299759 -18.5194,-30.474896 -27.6619,-45.009076 l -57.4334,-90.721424 -6.3294,0 0,149.561414 6.5638,0 0,-91.893534 c 0,-15.94071 -0.2344,-31.17816 -0.7033,-45.71234 l 0.4689,-0.23442 c 7.5015,13.83091 19.457,31.41258 29.5372,47.11887 l 58.1367,91.659113 3.7508,0 z" />
        <path
           inkscape:connector-curvature="0"
           id="path5014"
           style="font-style:normal;font-variant:normal;font-weight:100;font-stretch:normal;font-size:234.42227173px;line-height:125%;font-family:Agenda;-inkscape-font-specification:'Agenda, Thin';text-align:start;letter-spacing:0px;word-spacing:0px;writing-mode:lr-tb;text-anchor:start;fill:#333333;fill-opacity:1;stroke:none;stroke-width:1px;stroke-linecap:butt;stroke-linejoin:miter;stroke-opacity:1"
           d="m 2260.4724,-53.624565 c 0,-20.62916 -10.549,-32.350273 -32.8191,-48.056565 -17.5817,-12.42438 -24.6143,-23.20781 -24.6143,-36.56987 0,-13.36207 8.6736,-25.08319 26.0208,-25.08319 8.4392,0 17.1129,3.28191 21.8013,7.26709 l 2.1098,-6.09498 c -5.1573,-3.75075 -14.0653,-7.26709 -24.1455,-7.26709 -22.0357,0 -32.5847,14.53418 -32.5847,31.64701 0,16.64398 8.2048,28.36509 29.5372,43.36812 19.2227,13.596492 27.8963,24.379916 27.8963,41.25832 0,18.988204 -13.1277,29.302784 -29.5372,29.302784 -14.2998,0 -24.3799,-5.391713 -32.5847,-12.658803 l 1.4065,8.673624 c 6.7983,5.391712 16.8784,10.31458 31.1782,10.31458 20.3947,0 36.3354,-12.893225 36.3354,-36.10103 z" />
      </g>
    </g>
    <g
       transform="translate(488.51682,-5.5061433)"
       id="g5138">
      <g
         id="g5134"
         transform="translate(86.837686,86.634793)">
        <rect
           ry="21.921406"
           y="-298.16833"
           x="710.63232"
           height="217.87047"
           width="127.66932"
           id="rect5130"
           style="opacity:0.05;fill:#000000;fill-opacity:1;fill-rule:nonzero;stroke:none;stroke-width:3;stroke-linecap:butt;stroke-linejoin:miter;stroke-miterlimit:4;stroke-dasharray:none;stroke-dashoffset:0;stroke-opacity:1" />
        <rect
           style="opacity:0.05;fill:#000000;fill-opacity:1;fill-rule:nonzero;stroke:none;stroke-width:3;stroke-linecap:butt;stroke-linejoin:miter;stroke-miterlimit:4;stroke-dasharray:none;stroke-dashoffset:0;stroke-opacity:1"
           id="rect5132"
           width="125.12519"
           height="215.32634"
           x="713.17645"
           y="-298.16833"
           ry="21.665424" />
      </g>
      <rect
         ry="21.269815"
         y="-210.28004"
         x="802.68372"
         height="211.39449"
         width="121.19334"
         id="rect5090"
         style="opacity:1;fill:#ffffff;fill-opacity:1;fill-rule:nonzero;stroke:none;stroke-width:3;stroke-linecap:butt;stroke-linejoin:miter;stroke-miterlimit:4;stroke-dasharray:none;stroke-dashoffset:0;stroke-opacity:1" />
      <rect
         style="opacity:1;fill:#ec5d57;fill-opacity:1;fill-rule:nonzero;stroke:none;stroke-width:3;stroke-linecap:butt;stroke-linejoin:miter;stroke-miterlimit:4;stroke-dasharray:none;stroke-dashoffset:0;stroke-opacity:1"
         id="rect5084"
         width="100.84026"
         height="191.96655"
         x="812.86029"
         y="-201.49121"
         ry="13.434223" />
      <rect
         ry="21.921406"
         y="-298.16833"
         x="710.63232"
         height="217.87047"
         width="127.66932"
         id="rect5092"
         style="opacity:0.05;fill:#000000;fill-opacity:1;fill-rule:nonzero;stroke:none;stroke-width:3;stroke-linecap:butt;stroke-linejoin:miter;stroke-miterlimit:4;stroke-dasharray:none;stroke-dashoffset:0;stroke-opacity:1" />
      <rect
         style="opacity:0.05;fill:#000000;fill-opacity:1;fill-rule:nonzero;stroke:none;stroke-width:3;stroke-linecap:butt;stroke-linejoin:miter;stroke-miterlimit:4;stroke-dasharray:none;stroke-dashoffset:0;stroke-opacity:1"
         id="rect5094"
         width="125.12519"
         height="215.32634"
         x="713.17645"
         y="-298.16833"
         ry="21.665424" />
      <rect
         style="opacity:1;fill:#333333;fill-opacity:1;fill-rule:nonzero;stroke:none;stroke-width:3;stroke-linecap:butt;stroke-linejoin:miter;stroke-miterlimit:4;stroke-dasharray:none;stroke-dashoffset:0;stroke-opacity:1"
         id="rect5080"
         width="100.84026"
         height="191.96655"
         x="726.35968"
         y="-287.52924"
         ry="13.434223" />
      <rect
         style="opacity:1;fill:#ffffff;fill-opacity:1;fill-rule:nonzero;stroke:none;stroke-width:3;stroke-linecap:butt;stroke-linejoin:miter;stroke-miterlimit:4;stroke-dasharray:none;stroke-dashoffset:0;stroke-opacity:1"
         id="rect5086"
         width="121.19334"
         height="211.39449"
         x="716.18317"
         y="-297.24319"
         ry="21.269815" />
      <rect
         ry="13.434223"
         y="-287.52924"
         x="726.35968"
         height="191.96655"
         width="100.84026"
         id="rect5082"
         style="opacity:1;fill:#3399ff;fill-opacity:1;fill-rule:nonzero;stroke:none;stroke-width:3;stroke-linecap:butt;stroke-linejoin:miter;stroke-miterlimit:4;stroke-dasharray:none;stroke-dashoffset:0;stroke-opacity:1" />
    </g>
  </g>
</svg>
