<?xml version="1.0" encoding="UTF-8" standalone="no"?>
<!-- Created with Inkscape (http://www.inkscape.org/) -->

<svg
   xmlns:dc="http://purl.org/dc/elements/1.1/"
   xmlns:cc="http://creativecommons.org/ns#"
   xmlns:rdf="http://www.w3.org/1999/02/22-rdf-syntax-ns#"
   xmlns:svg="http://www.w3.org/2000/svg"
   xmlns="http://www.w3.org/2000/svg"
   xmlns:sodipodi="http://sodipodi.sourceforge.net/DTD/sodipodi-0.dtd"
   xmlns:inkscape="http://www.inkscape.org/namespaces/inkscape"
   id="svg4206"
   version="1.1"
   inkscape:version="0.91 r13725"
   width="1432.8796"
   height="512"
   viewBox="0 0 1432.8796 512"
   sodipodi:docname="netwoRHk-Logo-vector.svg"
   inkscape:export-filename="/home/m/RHDrive/Design/CI/Logos/netwoRHk/netwoRHk-Logo-vector.png"
   inkscape:export-xdpi="300"
   inkscape:export-ydpi="300">
  <metadata
     id="metadata4212">
    <rdf:RDF>
      <cc:Work
         rdf:about="">
        <dc:format>image/svg+xml</dc:format>
        <dc:type
           rdf:resource="http://purl.org/dc/dcmitype/StillImage" />
        <dc:title />
      </cc:Work>
    </rdf:RDF>
  </metadata>
  <defs
     id="defs4210" />
  <sodipodi:namedview
     pagecolor="#ffffff"
     bordercolor="#666666"
     borderopacity="1"
     objecttolerance="10"
     gridtolerance="10"
     guidetolerance="10"
     inkscape:pageopacity="0"
     inkscape:pageshadow="2"
     inkscape:window-width="3440"
     inkscape:window-height="1411"
     id="namedview4208"
     showgrid="false"
     inkscape:snap-grids="false"
     inkscape:snap-to-guides="false"
     inkscape:zoom="0.62170985"
     inkscape:cx="1206.0465"
     inkscape:cy="-51.519535"
     inkscape:window-x="0"
     inkscape:window-y="0"
     inkscape:window-maximized="1"
     inkscape:current-layer="svg4206"
     showguides="true"
     inkscape:guide-bbox="true"
     fit-margin-top="6"
     fit-margin-left="6"
     fit-margin-right="6"
     fit-margin-bottom="6"
     inkscape:snap-text-baseline="false" />
  <path
     style="color:#000000;font-style:normal;font-variant:normal;font-weight:normal;font-stretch:normal;font-size:medium;line-height:normal;font-family:sans-serif;text-indent:0;text-align:start;text-decoration:none;text-decoration-line:none;text-decoration-style:solid;text-decoration-color:#000000;letter-spacing:normal;word-spacing:normal;text-transform:none;direction:ltr;block-progression:tb;writing-mode:lr-tb;baseline-shift:baseline;text-anchor:start;white-space:normal;clip-rule:nonzero;display:inline;overflow:visible;visibility:visible;opacity:1;isolation:auto;mix-blend-mode:normal;color-interpolation:sRGB;color-interpolation-filters:linearRGB;solid-color:#000000;solid-opacity:1;fill:#333333;fill-opacity:1;fill-rule:evenodd;stroke:none;stroke-width:7;stroke-linecap:butt;stroke-linejoin:miter;stroke-miterlimit:4;stroke-dasharray:none;stroke-dashoffset:0;stroke-opacity:1;color-rendering:auto;image-rendering:auto;shape-rendering:auto;text-rendering:auto;enable-background:accumulate"
     d="m 192.19336,162.44922 c -1.73834,1.55506 -3.63242,2.93826 -5.6543,4.12695 l 48.61914,66.83985 a 30.761938,30.761938 0 0 1 5.6543,-4.12305 l -48.61914,-66.84375 z m 125.85937,32.24609 -41.83007,38.1543 a 30.761938,30.761938 0 0 1 4.70117,5.18555 l 41.85742,-38.17774 c -1.80132,-1.49522 -3.3918,-3.2344 -4.72852,-5.16211 z m -88.47656,76.98438 -45.91992,34.7539 c 1.68791,1.61971 3.11971,3.50212 4.21289,5.5918 l 45.92188,-34.75586 a 30.761938,30.761938 0 0 1 -4.21485,-5.58984 z m 47.65235,6.5664 a 30.761938,30.761938 0 0 1 -5.59571,4.20508 l 49.43164,64.94336 c 1.63772,-1.66673 3.50181,-3.10697 5.54102,-4.27734 l -49.37695,-64.8711 z"
     id="path4506"
     inkscape:connector-curvature="0" />
  <path
     style="fill:#3399ff;fill-opacity:1"
     d="M 256.00098,219.51367 A 36.486016,36.486016 0 0 0 219.5127,256 36.486016,36.486016 0 0 0 256.00098,292.48633 36.486016,36.486016 0 0 0 292.4873,256 36.486016,36.486016 0 0 0 256.00098,219.51367 Z m -0.002,11.34375 A 25.142994,25.142994 0 0 1 281.14355,256 25.142994,25.142994 0 0 1 255.99902,281.14258 25.142994,25.142994 0 0 1 230.85645,256 25.142994,25.142994 0 0 1 255.99902,230.85742 Z"
     id="path3546"
     inkscape:connector-curvature="0" />
  <path
     style="opacity:1;fill:#3399ff;fill-opacity:1;fill-rule:nonzero;stroke:none;stroke-width:6;stroke-linecap:round;stroke-linejoin:round;stroke-miterlimit:4;stroke-dasharray:none;stroke-dashoffset:0;stroke-opacity:1"
     d="M 255.99787,6 A 249.99942,249.99942 0 0 0 6,256 249.99942,249.99942 0 0 0 255.99787,505.99999 249.99942,249.99942 0 0 0 479.40729,368.041 l -12.79192,0 A 238.68111,238.68111 0 0 1 255.99787,494.68096 238.68111,238.68111 0 0 1 17.316912,256 238.68111,238.68111 0 0 1 255.99787,17.319036 238.68111,238.68111 0 0 1 466.5494,143.95899 l 12.61945,0 A 249.99942,249.99942 0 0 0 255.99787,6 Z"
     id="path4216"
     inkscape:connector-curvature="0" />
  <path
     inkscape:connector-curvature="0"
     id="path3381"
     style="font-style:normal;font-variant:normal;font-weight:100;font-stretch:normal;font-size:medium;line-height:125%;font-family:Agenda;-inkscape-font-specification:'Agenda Thin';letter-spacing:0px;word-spacing:0px;fill:#333333;fill-opacity:1;stroke:none;stroke-width:1px;stroke-linecap:butt;stroke-linejoin:miter;stroke-opacity:1"
     d="m 564.97586,330.73521 0,-108.3104 c 0,-25.54185 -18.75225,-40.73763 -44.94073,-40.73763 -23.27865,0 -36.21124,11.316 -38.79775,22.95533 l -0.32332,0 0,-20.36881 -9.0528,0 0,146.46151 9.0528,0 0,-107.66376 c 0,-21.01545 16.81237,-33.3014 38.15113,-33.3014 21.66207,0 36.85785,11.63931 36.85785,33.3014 l 0,107.66376 9.05282,0 z" />
  <path
     inkscape:connector-curvature="0"
     id="path3383"
     style="font-style:normal;font-variant:normal;font-weight:100;font-stretch:normal;font-size:medium;line-height:125%;font-family:Agenda;-inkscape-font-specification:'Agenda Thin';letter-spacing:0px;word-spacing:0px;fill:#333333;fill-opacity:1;stroke:none;stroke-width:1px;stroke-linecap:butt;stroke-linejoin:miter;stroke-opacity:1"
     d="m 694.8271,238.91386 c 0,-30.06826 -16.48911,-57.22668 -48.4972,-57.22668 -30.06825,0 -53.99353,31.68483 -53.99353,75.65562 0,44.61741 24.5719,75.97893 59.48988,75.97893 13.90252,0 24.24859,-3.23315 32.0082,-8.7295 l 1.29316,-10.34607 c -8.4062,6.4663 -19.72213,10.66939 -32.65473,10.66939 -32.33146,0 -52.70028,-33.62472 -50.43708,-68.5427 l 85.67839,0 6.46633,-6.7896 c 0.32329,-2.90984 0.64658,-6.4663 0.64658,-10.66939 z m -9.37606,0.64664 c 0,3.23313 0,6.7896 -0.32343,8.72948 l -82.76849,0 c 2.2632,-30.06825 20.0455,-58.19662 44.2941,-58.19662 26.51174,0 38.79782,25.21854 38.79782,49.46714 z" />
  <path
     inkscape:connector-curvature="0"
     id="path3385"
     style="font-style:normal;font-variant:normal;font-weight:100;font-stretch:normal;font-size:medium;line-height:125%;font-family:Agenda;-inkscape-font-specification:'Agenda Thin';letter-spacing:0px;word-spacing:0px;fill:#333333;fill-opacity:1;stroke:none;stroke-width:1px;stroke-linecap:butt;stroke-linejoin:miter;stroke-opacity:1"
     d="m 788.85103,184.2737 -44.29414,0 0,-37.18119 -9.05278,4.84972 0,32.33147 -24.24858,0 0,8.08286 24.24858,0 0,110.8969 c 0,19.07557 11.31607,28.45169 26.51175,28.45169 4.84974,0 10.34606,-0.96994 13.25594,-2.90983 l 1.29329,-8.40617 c -3.23316,2.2632 -8.4062,3.23313 -13.57923,3.23313 -10.34607,0 -18.42897,-5.81965 -18.42897,-21.01545 l 0,-110.25027 41.70755,0 2.58659,-8.08286 z" />
  <path
     inkscape:connector-curvature="0"
     id="path3387"
     style="font-style:normal;font-variant:normal;font-weight:100;font-stretch:normal;font-size:medium;line-height:125%;font-family:Agenda;-inkscape-font-specification:'Agenda Thin';letter-spacing:0px;word-spacing:0px;fill:#333333;fill-opacity:1;stroke:none;stroke-width:1px;stroke-linecap:butt;stroke-linejoin:miter;stroke-opacity:1"
     d="m 972.65038,184.2737 -8.40619,0 -25.54188,90.20476 c -3.87974,14.22585 -7.11291,29.42164 -10.34607,44.61742 l -0.64671,0 c -3.23303,-15.19578 -6.78948,-30.06825 -10.99265,-44.94073 l -24.89516,-89.88145 -9.05291,0 -24.89517,89.88145 c -3.87974,14.54916 -8.40619,31.0382 -11.31607,44.94073 l -0.64658,0 c -2.58644,-13.90253 -6.14303,-30.39157 -10.34606,-44.94073 l -25.54188,-89.88145 -9.69935,0 42.67742,149.37135 5.81975,0 25.86517,-91.49804 c 4.20303,-14.54916 8.08277,-31.36151 11.63922,-46.88061 l 0.64671,0 c 3.55646,15.5191 7.75948,31.68481 11.96265,46.5573 l 25.54188,91.82135 5.49632,0 42.67756,-149.37135 z" />
  <path
     inkscape:connector-curvature="0"
     id="path3389"
     style="font-style:normal;font-variant:normal;font-weight:100;font-stretch:normal;font-size:medium;line-height:125%;font-family:Agenda;-inkscape-font-specification:'Agenda Thin';letter-spacing:0px;word-spacing:0px;fill:#333333;fill-opacity:1;stroke:none;stroke-width:1px;stroke-linecap:butt;stroke-linejoin:miter;stroke-opacity:1"
     d="m 1107.5736,257.66611 c 0,-43.64748 -24.2486,-75.97893 -59.8133,-75.97893 -35.5646,0 -59.48992,32.33145 -59.48992,75.97893 0,43.64747 23.92532,75.65562 59.48992,75.65562 35.5647,0 59.8133,-32.00815 59.8133,-75.65562 z m -9.0529,0 c 0,38.79775 -21.662,67.57275 -50.7604,67.57275 -29.4216,0 -50.43701,-28.775 -50.43701,-67.57275 0,-39.12106 21.01541,-67.57275 50.43701,-67.57275 29.0984,0 50.7604,28.45169 50.7604,67.57275 z" />
  <g
     id="g3405"
     transform="matrix(0.99824713,0,0,0.99824713,-207.86667,-542.34722)"
     style="fill:#0565c0;fill-opacity:1">
    <path
       d="m 1426.7889,874.41669 -41.8715,-73.45049 c 15.6726,-3.50879 25.965,-18.01175 25.965,-37.19309 0,-21.75444 -13.8012,-38.59659 -34.3861,-38.59659 l -28.772,0 0,149.24017 6.7837,0 0,-72.04698 23.1579,0 41.1697,72.04698 7.9533,0 z m -22.6901,-110.64358 c 0,18.94742 -11.696,32.28079 -27.6025,32.28079 l -21.9883,0 0,-64.7955 21.2866,0 c 16.3743,0 28.3042,13.56729 28.3042,32.51471 z"
       style="font-style:normal;font-variant:normal;font-weight:100;font-stretch:normal;font-size:medium;line-height:125%;font-family:Agenda;-inkscape-font-specification:'Agenda Thin';letter-spacing:0px;word-spacing:0px;fill:#0565c0;fill-opacity:1;stroke:none;stroke-width:1px;stroke-linecap:butt;stroke-linejoin:miter;stroke-opacity:1"
       id="path3391"
       inkscape:connector-curvature="0" />
    <path
       d="m 1525.1919,874.41669 0,-149.24017 -7.0176,0 0,70.87738 -72.7487,0 0,-70.87738 -6.7836,0 0,149.24017 6.7836,0 0,-72.04698 72.7487,0 0,72.04698 7.0176,0 z"
       style="font-style:normal;font-variant:normal;font-weight:100;font-stretch:normal;font-size:medium;line-height:125%;font-family:Agenda;-inkscape-font-specification:'Agenda Thin';letter-spacing:0px;word-spacing:0px;fill:#0565c0;fill-opacity:1;stroke:none;stroke-width:1px;stroke-linecap:butt;stroke-linejoin:miter;stroke-opacity:1"
       id="path3393"
       inkscape:connector-curvature="0" />
  </g>
  <path
     inkscape:connector-curvature="0"
     id="path3395"
     style="font-style:normal;font-variant:normal;font-weight:100;font-stretch:normal;font-size:medium;line-height:125%;font-family:Agenda;-inkscape-font-specification:'Agenda Thin';letter-spacing:0px;word-spacing:0px;fill:#333333;fill-opacity:1;stroke:none;stroke-width:1px;stroke-linecap:butt;stroke-linejoin:miter;stroke-opacity:1"
     d="m 1426.8797,330.73521 -62.3997,-75.3323 57.8732,-71.12921 -10.6693,0 -57.2267,70.15926 -0.3233,0 0,-146.1382 -9.3762,0 0,222.44045 9.3762,0 0,-74.36236 0.3233,0 60.7831,74.36236 11.6394,0 z" />
  <g
     style="opacity:1;fill:#333333;fill-opacity:1"
     transform="matrix(0.09993501,0,0,0.09993501,1088.7512,377.49238)"
     id="g3419">
    <path
       inkscape:connector-curvature="0"
       id="path3421"
       style="font-style:normal;font-variant:normal;font-weight:100;font-stretch:normal;font-size:234.42227173px;line-height:125%;font-family:Agenda;-inkscape-font-specification:'Agenda, Thin';text-align:start;letter-spacing:0px;word-spacing:0px;writing-mode:lr-tb;text-anchor:start;fill:#333333;fill-opacity:1;stroke:none;stroke-width:1px;stroke-linecap:butt;stroke-linejoin:miter;stroke-opacity:1"
       d="M 566.99124,-18.695646 525.02965,-92.30424 c 15.7063,-3.516334 26.02088,-18.05051 26.02088,-37.27314 0,-21.80127 -13.83092,-38.67968 -34.46008,-38.67968 l -28.83394,0 0,149.561414 6.79825,0 0,-72.20206 23.2078,0 41.25832,72.20206 7.97036,0 z M 544.25228,-129.57738 c 0,18.9882 -11.72111,32.350273 -27.66183,32.350273 l -22.03569,0 0,-64.934973 21.33242,0 c 16.40956,0 28.3651,13.5965 28.3651,32.5847 z" />
    <path
       inkscape:connector-curvature="0"
       id="path3423"
       style="font-style:normal;font-variant:normal;font-weight:100;font-stretch:normal;font-size:234.42227173px;line-height:125%;font-family:Agenda;-inkscape-font-specification:'Agenda, Thin';text-align:start;letter-spacing:0px;word-spacing:0px;writing-mode:lr-tb;text-anchor:start;fill:#333333;fill-opacity:1;stroke:none;stroke-width:1px;stroke-linecap:butt;stroke-linejoin:miter;stroke-opacity:1"
       d="m 644.50809,-18.695646 0,-6.094979 -58.83999,0 0,-66.107081 42.66485,0 0,-6.329401 -42.66485,0 0,-64.934973 52.51059,0 0,-6.09498 -59.30884,0 0,149.561414 65.63824,0 z" />
    <path
       inkscape:connector-curvature="0"
       id="path3425"
       style="font-style:normal;font-variant:normal;font-weight:100;font-stretch:normal;font-size:234.42227173px;line-height:125%;font-family:Agenda;-inkscape-font-specification:'Agenda, Thin';text-align:start;letter-spacing:0px;word-spacing:0px;writing-mode:lr-tb;text-anchor:start;fill:#333333;fill-opacity:1;stroke:none;stroke-width:1px;stroke-linecap:butt;stroke-linejoin:miter;stroke-opacity:1"
       d="m 722.53408,-53.624565 c 0,-20.62916 -10.549,-32.350273 -32.81912,-48.056565 -17.58167,-12.42438 -24.61434,-23.20781 -24.61434,-36.56987 0,-13.36207 8.67363,-25.08319 26.02088,-25.08319 8.4392,0 17.11282,3.28191 21.80127,7.26709 l 2.1098,-6.09498 c -5.15729,-3.75075 -14.06534,-7.26709 -24.1455,-7.26709 -22.03569,0 -32.58469,14.53418 -32.58469,31.64701 0,16.64398 8.20478,28.36509 29.5372,43.36812 19.22263,13.596492 27.89626,24.379916 27.89626,41.25832 0,18.988204 -13.12765,29.302784 -29.53721,29.302784 -14.29976,0 -24.37992,-5.391713 -32.5847,-12.658803 l 1.40654,8.673624 c 6.79824,5.391712 16.8784,10.31458 31.17816,10.31458 20.39474,0 36.33545,-12.893225 36.33545,-36.10103 z" />
    <path
       inkscape:connector-curvature="0"
       id="path3427"
       style="font-style:normal;font-variant:normal;font-weight:100;font-stretch:normal;font-size:234.42227173px;line-height:125%;font-family:Agenda;-inkscape-font-specification:'Agenda, Thin';text-align:start;letter-spacing:0px;word-spacing:0px;writing-mode:lr-tb;text-anchor:start;fill:#333333;fill-opacity:1;stroke:none;stroke-width:1px;stroke-linecap:butt;stroke-linejoin:miter;stroke-opacity:1"
       d="m 856.68954,-93.476351 c 0,-43.836969 -24.61433,-76.656079 -58.83999,-76.656079 -34.22565,0 -59.30883,32.81911 -59.30883,76.656079 0,43.836965 25.08318,76.656083 59.30883,76.656083 34.22566,0 58.83999,-32.819118 58.83999,-76.656083 z m -6.79824,0 c 0,40.320631 -22.50454,70.326682 -52.04175,70.326682 -29.77162,0 -52.27616,-30.006051 -52.27616,-70.326682 0,-40.320629 22.50454,-70.326679 52.27616,-70.326679 29.53721,0 52.04175,30.00605 52.04175,70.326679 z" />
    <path
       inkscape:connector-curvature="0"
       id="path3429"
       style="font-style:normal;font-variant:normal;font-weight:100;font-stretch:normal;font-size:234.42227173px;line-height:125%;font-family:Agenda;-inkscape-font-specification:'Agenda, Thin';text-align:start;letter-spacing:0px;word-spacing:0px;writing-mode:lr-tb;text-anchor:start;fill:#333333;fill-opacity:1;stroke:none;stroke-width:1px;stroke-linecap:butt;stroke-linejoin:miter;stroke-opacity:1"
       d="m 965.95964,-59.719544 0,-108.537516 -7.03267,0 0,108.068672 c 0,24.379916 -14.7686,37.038719 -36.33545,37.038719 -21.56685,0 -36.56987,-12.658803 -36.56987,-37.038719 l 0,-108.068672 -6.79825,0 0,108.537516 c 0,26.958561 16.40956,42.899276 43.36812,42.899276 26.95856,0 43.36812,-15.940715 43.36812,-42.899276 z" />
    <path
       inkscape:connector-curvature="0"
       id="path3431"
       style="font-style:normal;font-variant:normal;font-weight:100;font-stretch:normal;font-size:234.42227173px;line-height:125%;font-family:Agenda;-inkscape-font-specification:'Agenda, Thin';text-align:start;letter-spacing:0px;word-spacing:0px;writing-mode:lr-tb;text-anchor:start;fill:#333333;fill-opacity:1;stroke:none;stroke-width:1px;stroke-linecap:butt;stroke-linejoin:miter;stroke-opacity:1"
       d="m 1072.9221,-18.695646 -41.9616,-73.608594 c 15.7063,-3.516334 26.0209,-18.05051 26.0209,-37.27314 0,-21.80127 -13.8309,-38.67968 -34.4601,-38.67968 l -28.83391,0 0,149.561414 6.79821,0 0,-72.20206 23.2078,0 41.2584,72.20206 7.9703,0 z m -22.7389,-110.881734 c 0,18.9882 -11.7212,32.350273 -27.6619,32.350273 l -22.0357,0 0,-64.934973 21.3325,0 c 16.4095,0 28.3651,13.5965 28.3651,32.5847 z" />
    <path
       inkscape:connector-curvature="0"
       id="path3433"
       style="font-style:normal;font-variant:normal;font-weight:100;font-stretch:normal;font-size:234.42227173px;line-height:125%;font-family:Agenda;-inkscape-font-specification:'Agenda, Thin';text-align:start;letter-spacing:0px;word-spacing:0px;writing-mode:lr-tb;text-anchor:start;fill:#333333;fill-opacity:1;stroke:none;stroke-width:1px;stroke-linecap:butt;stroke-linejoin:miter;stroke-opacity:1"
       d="m 1169.951,-161.22439 c -7.736,-4.68844 -19.4571,-8.4392 -33.0536,-8.4392 -34.4601,0 -59.5432,32.35027 -59.5432,76.187239 0,43.836965 24.8487,76.187238 59.5432,76.187238 13.3621,0 24.3799,-3.047489 30.4749,-7.032668 l 1.1721,-7.501513 c -8.2047,5.391713 -18.5193,8.20478 -31.1781,8.20478 -30.2405,0 -52.9795,-29.771629 -52.9795,-69.857837 0,-40.086209 22.739,-69.857839 52.9795,-69.857839 12.1899,0 24.1455,3.98518 30.7093,8.20478 l 1.8754,-6.09498 z" />
    <path
       inkscape:connector-curvature="0"
       id="path3435"
       style="font-style:normal;font-variant:normal;font-weight:100;font-stretch:normal;font-size:234.42227173px;line-height:125%;font-family:Agenda;-inkscape-font-specification:'Agenda, Thin';text-align:start;letter-spacing:0px;word-spacing:0px;writing-mode:lr-tb;text-anchor:start;fill:#333333;fill-opacity:1;stroke:none;stroke-width:1px;stroke-linecap:butt;stroke-linejoin:miter;stroke-opacity:1"
       d="m 1257.1194,-18.695646 0,-6.094979 -58.84,0 0,-66.107081 42.6649,0 0,-6.329401 -42.6649,0 0,-64.934973 52.5106,0 0,-6.09498 -59.3088,0 0,149.561414 65.6382,0 z" />
    <path
       inkscape:connector-curvature="0"
       id="path3437"
       style="font-style:normal;font-variant:normal;font-weight:100;font-stretch:normal;font-size:234.42227173px;line-height:125%;font-family:Agenda;-inkscape-font-specification:'Agenda, Thin';text-align:start;letter-spacing:0px;word-spacing:0px;writing-mode:lr-tb;text-anchor:start;fill:#333333;fill-opacity:1;stroke:none;stroke-width:1px;stroke-linecap:butt;stroke-linejoin:miter;stroke-opacity:1"
       d="m 1332.5338,-162.16208 0,-6.09498 -60.0121,0 0,149.561414 6.7983,0 0,-72.20206 45.9467,0 0,-6.329401 -45.9467,0 0,-64.934973 53.2138,0 z" />
    <path
       inkscape:connector-curvature="0"
       id="path3439"
       style="font-style:normal;font-variant:normal;font-weight:100;font-stretch:normal;font-size:234.42227173px;line-height:125%;font-family:Agenda;-inkscape-font-specification:'Agenda, Thin';text-align:start;letter-spacing:0px;word-spacing:0px;writing-mode:lr-tb;text-anchor:start;fill:#333333;fill-opacity:1;stroke:none;stroke-width:1px;stroke-linecap:butt;stroke-linejoin:miter;stroke-opacity:1"
       d="m 1434.8042,-59.719544 0,-108.537516 -7.0327,0 0,108.068672 c 0,24.379916 -14.7686,37.038719 -36.3355,37.038719 -21.5668,0 -36.5698,-12.658803 -36.5698,-37.038719 l 0,-108.068672 -6.7983,0 0,108.537516 c 0,26.958561 16.4096,42.899276 43.3681,42.899276 26.9586,0 43.3682,-15.940715 43.3682,-42.899276 z" />
    <path
       inkscape:connector-curvature="0"
       id="path3441"
       style="font-style:normal;font-variant:normal;font-weight:100;font-stretch:normal;font-size:234.42227173px;line-height:125%;font-family:Agenda;-inkscape-font-specification:'Agenda, Thin';text-align:start;letter-spacing:0px;word-spacing:0px;writing-mode:lr-tb;text-anchor:start;fill:#333333;fill-opacity:1;stroke:none;stroke-width:1px;stroke-linecap:butt;stroke-linejoin:miter;stroke-opacity:1"
       d="m 1526.5292,-18.695646 0,-6.094979 -57.1991,0 0,-143.466435 -6.7982,0 0,149.561414 63.9973,0 z" />
    <path
       inkscape:connector-curvature="0"
       id="path3443"
       style="font-style:normal;font-variant:normal;font-weight:100;font-stretch:normal;font-size:234.42227173px;line-height:125%;font-family:Agenda;-inkscape-font-specification:'Agenda, Thin';text-align:start;letter-spacing:0px;word-spacing:0px;writing-mode:lr-tb;text-anchor:start;fill:#333333;fill-opacity:1;stroke:none;stroke-width:1px;stroke-linecap:butt;stroke-linejoin:miter;stroke-opacity:1"
       d="m 1675.6364,-18.695646 0,-149.561414 -7.0326,0 0,71.029953 -72.9054,0 0,-71.029953 -6.7982,0 0,149.561414 6.7982,0 0,-72.20206 72.9054,0 0,72.20206 7.0326,0 z" />
    <path
       inkscape:connector-curvature="0"
       id="path3445"
       style="font-style:normal;font-variant:normal;font-weight:100;font-stretch:normal;font-size:234.42227173px;line-height:125%;font-family:Agenda;-inkscape-font-specification:'Agenda, Thin';text-align:start;letter-spacing:0px;word-spacing:0px;writing-mode:lr-tb;text-anchor:start;fill:#333333;fill-opacity:1;stroke:none;stroke-width:1px;stroke-linecap:butt;stroke-linejoin:miter;stroke-opacity:1"
       d="m 1790.1004,-59.719544 0,-108.537516 -7.0326,0 0,108.068672 c 0,24.379916 -14.7687,37.038719 -36.3355,37.038719 -21.5669,0 -36.5699,-12.658803 -36.5699,-37.038719 l 0,-108.068672 -6.7982,0 0,108.537516 c 0,26.958561 16.4095,42.899276 43.3681,42.899276 26.9586,0 43.3681,-15.940715 43.3681,-42.899276 z" />
    <path
       inkscape:connector-curvature="0"
       id="path3447"
       style="font-style:normal;font-variant:normal;font-weight:100;font-stretch:normal;font-size:234.42227173px;line-height:125%;font-family:Agenda;-inkscape-font-specification:'Agenda, Thin';text-align:start;letter-spacing:0px;word-spacing:0px;writing-mode:lr-tb;text-anchor:start;fill:#333333;fill-opacity:1;stroke:none;stroke-width:1px;stroke-linecap:butt;stroke-linejoin:miter;stroke-opacity:1"
       d="m 1941.3687,-18.695646 -9.1425,-149.561414 -6.0949,0 -32.8192,93.065646 c -5.3917,15.003026 -10.7834,31.881429 -15.4718,46.884455 l -0.4689,0 c -4.9228,-15.237448 -10.3146,-32.584696 -15.2374,-46.650033 l -32.8191,-93.300068 -6.095,0 -8.9081,149.561414 6.3294,0 5.3917,-91.659104 c 0.9377,-14.29976 1.641,-30.24048 1.8754,-45.71235 l 0.4689,0 c 4.6884,14.53418 10.549,33.52239 15.003,46.41561 l 32.1158,91.190266 3.7508,0 32.1159,-91.190266 c 5.1572,-14.29976 11.0178,-31.41258 15.4718,-46.41561 l 0.4689,0 c 0.2344,15.70629 0.9377,30.24048 1.8753,45.71235 l 5.3918,91.659104 6.7982,0 z" />
    <path
       inkscape:connector-curvature="0"
       id="path3449"
       style="font-style:normal;font-variant:normal;font-weight:100;font-stretch:normal;font-size:234.42227173px;line-height:125%;font-family:Agenda;-inkscape-font-specification:'Agenda, Thin';text-align:start;letter-spacing:0px;word-spacing:0px;writing-mode:lr-tb;text-anchor:start;fill:#333333;fill-opacity:1;stroke:none;stroke-width:1px;stroke-linecap:butt;stroke-linejoin:miter;stroke-opacity:1"
       d="m 2051.7597,-18.695646 -45.0091,-150.967944 -4.2196,0 -45.0091,150.967944 6.5638,0 13.831,-46.181188 52.745,0 13.8309,46.181188 7.2671,0 z m -22.9734,-52.276167 -48.9943,0 16.8784,-58.605567 c 2.8131,-9.61131 5.1573,-19.92589 7.2671,-29.30278 l 0.4689,0 c 2.3442,9.37689 4.6884,19.92589 7.5015,29.5372 l 16.8784,58.371147 z" />
    <path
       inkscape:connector-curvature="0"
       id="path3451"
       style="font-style:normal;font-variant:normal;font-weight:100;font-stretch:normal;font-size:234.42227173px;line-height:125%;font-family:Agenda;-inkscape-font-specification:'Agenda, Thin';text-align:start;letter-spacing:0px;word-spacing:0px;writing-mode:lr-tb;text-anchor:start;fill:#333333;fill-opacity:1;stroke:none;stroke-width:1px;stroke-linecap:butt;stroke-linejoin:miter;stroke-opacity:1"
       d="m 2169.2345,-17.757957 0,-150.499103 -6.5638,0 0,90.955846 c 0,15.003025 0.2344,29.302784 0.7032,44.774654 l -0.4688,0 c -8.2048,-14.299759 -18.5194,-30.474896 -27.6619,-45.009076 l -57.4334,-90.721424 -6.3294,0 0,149.561414 6.5638,0 0,-91.893534 c 0,-15.94071 -0.2344,-31.17816 -0.7033,-45.71234 l 0.4689,-0.23442 c 7.5015,13.83091 19.457,31.41258 29.5372,47.11887 l 58.1367,91.659113 3.7508,0 z" />
    <path
       inkscape:connector-curvature="0"
       id="path3453"
       style="font-style:normal;font-variant:normal;font-weight:100;font-stretch:normal;font-size:234.42227173px;line-height:125%;font-family:Agenda;-inkscape-font-specification:'Agenda, Thin';text-align:start;letter-spacing:0px;word-spacing:0px;writing-mode:lr-tb;text-anchor:start;fill:#333333;fill-opacity:1;stroke:none;stroke-width:1px;stroke-linecap:butt;stroke-linejoin:miter;stroke-opacity:1"
       d="m 2260.4724,-53.624565 c 0,-20.62916 -10.549,-32.350273 -32.8191,-48.056565 -17.5817,-12.42438 -24.6143,-23.20781 -24.6143,-36.56987 0,-13.36207 8.6736,-25.08319 26.0208,-25.08319 8.4392,0 17.1129,3.28191 21.8013,7.26709 l 2.1098,-6.09498 c -5.1573,-3.75075 -14.0653,-7.26709 -24.1455,-7.26709 -22.0357,0 -32.5847,14.53418 -32.5847,31.64701 0,16.64398 8.2048,28.36509 29.5372,43.36812 19.2227,13.596492 27.8963,24.379916 27.8963,41.25832 0,18.988204 -13.1277,29.302784 -29.5372,29.302784 -14.2998,0 -24.3799,-5.391713 -32.5847,-12.658803 l 1.4065,8.673624 c 6.7983,5.391712 16.8784,10.31458 31.1782,10.31458 20.3947,0 36.3354,-12.893225 36.3354,-36.10103 z" />
  </g>
  <circle
     style="fill:#333333;fill-opacity:1"
     id="path3563"
     cx="168.79973"
     cy="136.26994"
     r="31.637068" />
  <circle
     r="22.008537"
     cy="365.25204"
     cx="339.24249"
     id="circle3565"
     style="fill:#333333;fill-opacity:1" />
  <circle
     style="fill:#333333;fill-opacity:1"
     id="circle3567"
     cx="168.77534"
     cy="321.94922"
     r="18.034506" />
  <circle
     r="22.088634"
     cy="180.16536"
     cx="339.08994"
     id="circle3569"
     style="fill:#333333;fill-opacity:1" />
  <text
     xml:space="preserve"
     style="font-style:normal;font-variant:normal;font-weight:normal;font-stretch:normal;font-size:25px;line-height:125%;font-family:'Source Sans Pro';-inkscape-font-specification:'Source Sans Pro, Normal';text-align:start;letter-spacing:0px;word-spacing:0px;writing-mode:lr-tb;text-anchor:start;fill:#000000;fill-opacity:1;stroke:none;stroke-width:1px;stroke-linecap:butt;stroke-linejoin:miter;stroke-opacity:1"
     x="506.12439"
     y="-262.54092"
     id="text3367"
     sodipodi:linespacing="125%"><tspan
       sodipodi:role="line"
       id="tspan3369"
       x="506.12439"
       y="-262.54092" /></text>
</svg>
