<?xml version="1.0" encoding="UTF-8" standalone="no"?>
<!-- Created with Inkscape (http://www.inkscape.org/) -->

<svg
   xmlns:dc="http://purl.org/dc/elements/1.1/"
   xmlns:cc="http://creativecommons.org/ns#"
   xmlns:rdf="http://www.w3.org/1999/02/22-rdf-syntax-ns#"
   xmlns:svg="http://www.w3.org/2000/svg"
   xmlns="http://www.w3.org/2000/svg"
   xmlns:sodipodi="http://sodipodi.sourceforge.net/DTD/sodipodi-0.dtd"
   xmlns:inkscape="http://www.inkscape.org/namespaces/inkscape"
   width="512"
   height="285.13876"
   viewBox="0 0 512.00001 285.13877"
   id="svg5111"
   version="1.1"
   inkscape:version="0.91 r13725"
   sodipodi:docname="pyramid-3.svg">
  <defs
     id="defs5113" />
  <sodipodi:namedview
     id="base"
     pagecolor="#ffffff"
     bordercolor="#666666"
     borderopacity="1.0"
     inkscape:pageopacity="0.0"
     inkscape:pageshadow="2"
     inkscape:zoom="1.4"
     inkscape:cx="273.03913"
     inkscape:cy="190.11769"
     inkscape:document-units="px"
     inkscape:current-layer="layer1"
     showgrid="false"
     units="px"
     fit-margin-top="6"
     fit-margin-left="6"
     fit-margin-right="6"
     fit-margin-bottom="6"
     inkscape:window-width="1920"
     inkscape:window-height="1135"
     inkscape:window-x="0"
     inkscape:window-y="0"
     inkscape:window-maximized="1" />
  <metadata
     id="metadata5116">
    <rdf:RDF>
      <cc:Work
         rdf:about="">
        <dc:format>image/svg+xml</dc:format>
        <dc:type
           rdf:resource="http://purl.org/dc/dcmitype/StillImage" />
        <dc:title></dc:title>
      </cc:Work>
    </rdf:RDF>
  </metadata>
  <g
     inkscape:label="Ebene 1"
     inkscape:groupmode="layer"
     id="layer1"
     transform="translate(-580.92945,-1152.3932)">
    <path
       id="path4205"
       d="m 1081.8611,1425.6525 -260.06043,1.1203 -230.37425,-1.3447 123.97037,-128.1513 119.43959,-120.7224 107.46257,110.0081 z"
       inkscape:transform-center-y="-42.145553"
       style="color:#000000;clip-rule:nonzero;display:inline;overflow:visible;visibility:visible;opacity:1;isolation:auto;mix-blend-mode:normal;color-interpolation:sRGB;color-interpolation-filters:linearRGB;solid-color:#000000;solid-opacity:1;fill:#ffffff;fill-opacity:1;fill-rule:nonzero;stroke:none;stroke-width:10.23534393;stroke-linecap:round;stroke-linejoin:round;stroke-miterlimit:4;stroke-dasharray:none;stroke-dashoffset:0;stroke-opacity:1;color-rendering:auto;image-rendering:auto;shape-rendering:auto;text-rendering:auto;enable-background:accumulate"
       inkscape:connector-curvature="0"
       sodipodi:nodetypes="ccccccc" />
    <g
       id="g4393"
       transform="matrix(1.8523479,0,0,1.8523479,361.87523,63.518083)">
      <path
         id="path4365"
         d="m 245.71961,644.26056 a 7.0710678,7.0710678 0 0 1 -7.07107,7.07107 7.0710678,7.0710678 0 0 1 -7.07106,-7.07107 7.0710678,7.0710678 0 0 1 7.07106,-7.07107 7.0710678,7.0710678 0 0 1 7.07107,7.07107 z"
         style="color:#000000;clip-rule:nonzero;display:inline;overflow:visible;visibility:visible;opacity:1;isolation:auto;mix-blend-mode:normal;color-interpolation:sRGB;color-interpolation-filters:linearRGB;solid-color:#000000;solid-opacity:1;fill:#c82506;fill-opacity:1;fill-rule:nonzero;stroke:none;stroke-width:3.05073047;stroke-linecap:round;stroke-linejoin:round;stroke-miterlimit:4;stroke-dasharray:none;stroke-dashoffset:0;stroke-opacity:1;color-rendering:auto;image-rendering:auto;shape-rendering:auto;text-rendering:auto;enable-background:accumulate"
         inkscape:connector-curvature="0" />
      <path
         id="circle4367"
         d="m 226.27418,671.53467 a 7.0710678,7.0710678 0 0 1 -7.07107,7.07107 7.0710678,7.0710678 0 0 1 -7.07107,-7.07107 7.0710678,7.0710678 0 0 1 7.07107,-7.07107 7.0710678,7.0710678 0 0 1 7.07107,7.07107 z"
         style="color:#000000;clip-rule:nonzero;display:inline;overflow:visible;visibility:visible;opacity:1;isolation:auto;mix-blend-mode:normal;color-interpolation:sRGB;color-interpolation-filters:linearRGB;solid-color:#000000;solid-opacity:1;fill:#c82506;fill-opacity:1;fill-rule:nonzero;stroke:none;stroke-width:3.05073047;stroke-linecap:round;stroke-linejoin:round;stroke-miterlimit:4;stroke-dasharray:none;stroke-dashoffset:0;stroke-opacity:1;color-rendering:auto;image-rendering:auto;shape-rendering:auto;text-rendering:auto;enable-background:accumulate"
         inkscape:connector-curvature="0" />
      <path
         id="circle4369"
         d="m 295.72216,684.66663 a 7.0710678,7.0710678 0 0 1 -7.07107,7.07106 7.0710678,7.0710678 0 0 1 -7.07107,-7.07106 7.0710678,7.0710678 0 0 1 7.07107,-7.07107 7.0710678,7.0710678 0 0 1 7.07107,7.07107 z"
         style="color:#000000;clip-rule:nonzero;display:inline;overflow:visible;visibility:visible;opacity:1;isolation:auto;mix-blend-mode:normal;color-interpolation:sRGB;color-interpolation-filters:linearRGB;solid-color:#000000;solid-opacity:1;fill:#c82506;fill-opacity:1;fill-rule:nonzero;stroke:none;stroke-width:3.05073047;stroke-linecap:round;stroke-linejoin:round;stroke-miterlimit:4;stroke-dasharray:none;stroke-dashoffset:0;stroke-opacity:1;color-rendering:auto;image-rendering:auto;shape-rendering:auto;text-rendering:auto;enable-background:accumulate"
         inkscape:connector-curvature="0" />
      <path
         id="circle4371"
         d="m 308.60162,721.78973 a 7.0710678,7.0710678 0 0 1 -7.07107,7.07107 7.0710678,7.0710678 0 0 1 -7.07107,-7.07107 7.0710678,7.0710678 0 0 1 7.07107,-7.07106 7.0710678,7.0710678 0 0 1 7.07107,7.07106 z"
         style="color:#000000;clip-rule:nonzero;display:inline;overflow:visible;visibility:visible;opacity:1;isolation:auto;mix-blend-mode:normal;color-interpolation:sRGB;color-interpolation-filters:linearRGB;solid-color:#000000;solid-opacity:1;fill:#c82506;fill-opacity:1;fill-rule:nonzero;stroke:none;stroke-width:3.05073047;stroke-linecap:round;stroke-linejoin:round;stroke-miterlimit:4;stroke-dasharray:none;stroke-dashoffset:0;stroke-opacity:1;color-rendering:auto;image-rendering:auto;shape-rendering:auto;text-rendering:auto;enable-background:accumulate"
         inkscape:connector-curvature="0" />
      <path
         id="circle4373"
         d="m 269.20568,706.88995 a 7.0710678,7.0710678 0 0 1 -7.07107,7.07107 7.0710678,7.0710678 0 0 1 -7.07106,-7.07107 7.0710678,7.0710678 0 0 1 7.07106,-7.07106 7.0710678,7.0710678 0 0 1 7.07107,7.07106 z"
         style="color:#000000;clip-rule:nonzero;display:inline;overflow:visible;visibility:visible;opacity:1;isolation:auto;mix-blend-mode:normal;color-interpolation:sRGB;color-interpolation-filters:linearRGB;solid-color:#000000;solid-opacity:1;fill:#c82506;fill-opacity:1;fill-rule:nonzero;stroke:none;stroke-width:3.05073047;stroke-linecap:round;stroke-linejoin:round;stroke-miterlimit:4;stroke-dasharray:none;stroke-dashoffset:0;stroke-opacity:1;color-rendering:auto;image-rendering:auto;shape-rendering:auto;text-rendering:auto;enable-background:accumulate"
         inkscape:connector-curvature="0" />
      <path
         id="circle4375"
         d="m 185.11048,721.28461 a 7.0710678,7.0710678 0 0 1 -7.07107,7.07106 7.0710678,7.0710678 0 0 1 -7.07106,-7.07106 7.0710678,7.0710678 0 0 1 7.07106,-7.07107 7.0710678,7.0710678 0 0 1 7.07107,7.07107 z"
         style="color:#000000;clip-rule:nonzero;display:inline;overflow:visible;visibility:visible;opacity:1;isolation:auto;mix-blend-mode:normal;color-interpolation:sRGB;color-interpolation-filters:linearRGB;solid-color:#000000;solid-opacity:1;fill:#c82506;fill-opacity:1;fill-rule:nonzero;stroke:none;stroke-width:3.05073047;stroke-linecap:round;stroke-linejoin:round;stroke-miterlimit:4;stroke-dasharray:none;stroke-dashoffset:0;stroke-opacity:1;color-rendering:auto;image-rendering:auto;shape-rendering:auto;text-rendering:auto;enable-background:accumulate"
         inkscape:connector-curvature="0" />
      <path
         id="path4349"
         d="m 584.25939,818.70088 c -20.74878,-1.11895 -44.90688,0.0111 -68.10264,-0.0386 -1.00032,-0.002 -1.99855,-0.006 -2.99493,-0.0106 m 7.33876,-4.54445 c -3.68217,-0.1304 -7.49405,-0.22732 -11.41285,-0.30206 m -4.34808,-2.46395 c -10.81633,-0.73141 -20.90706,-0.61761 -30.70044,-0.12781 m 7.58228,5.19114 c -23.79348,0.23398 -45.27665,-0.72137 -69.15596,-2.14855 l -10e-6,0 c -23.88288,-1.42738 -42.22683,-0.81244 -59.98696,-2.46093 l -1e-5,0 c -9.02149,-0.83738 -20.84448,-0.238 -33.71204,1.14772 m 13.45536,-4.8121 c -22.62316,-0.68941 -47.50833,0.58656 -75.83618,1.75813 -3.38922,0.14016 -6.57924,0.23997 -9.60149,0.3054 -9.0216,0.19532 -16.54819,0.0844 -23.41538,-0.17338 m 17.42409,1.28189 c -14.13955,-0.21314 -29.49195,0.62632 -45.50179,2.25651 m 8.26361,5.84548 c -9.99585,0.29261 -20.50208,0.0252 -31.22731,-0.62218 m 0.13676,-8.98678 c -0.53637,0.036 -1.07089,0.0705 -1.60361,0.10357 m -0.0826,6.08345 c -20.57948,0.48134 -44.40233,-0.25189 -66.57928,-0.78147 l -1e-5,0 c -22.180272,-0.52965 -46.02222,-1.41336 -71.432279,-4.25781 -5.463005,-0.61154 -10.63693,-1.00567 -15.617071,-1.26733 m 14.207147,-1.67003 c -20.956438,0.31324 -43.177832,3.23595 -62.868173,9.72642 -16.381955,5.39995 -35.801638,-0.24833 -53.876128,-5.75494 1.951394,-4.34903 3.957749,-8.69228 6.055264,-12.93732 1.220074,-2.46924 2.400696,-4.7977 3.545703,-7.00225 m -9.747596,18.33103 c 11.304219,-20.15291 20.911251,-38.53637 29.461059,-57.84315 1.871833,-4.22688 4.012384,-8.4907 6.341312,-12.79383 m 2.851558,6.52087 c 10.485113,-18.59139 22.888303,-37.89326 35.320802,-55.96885 l 1e-6,0 c 12.43436342,-18.0783 22.269238,-40.65543 33.489582,-64.25846 0.04551,-0.0957 0.09101,-0.19133 0.136484,-0.28678 m -6.347333,20.97086 c 9.846557,-19.64587 19.538362,-40.0697 25.282017,-62.49174 2.065297,-8.06249 5.769971,-15.4178 10.368123,-22.50873 m -1.848779,7.24116 c 4.304475,-7.02667 8.574083,-13.95424 12.959387,-20.8805 m 1.528462,4.91862 c 6.416951,-10.90596 12.476876,-21.92391 18.406663,-33.26221 3.703953,-7.0823 7.357131,-14.28959 11.014828,-21.67265 m -3.423375,1.56078 c 10.146892,-20.88128 23.108122,-37.71888 36.024082,-55.46 l 0,0 c 12.91789,-17.74378 20.80358,-36.68417 29.07552,-52.30533 l 0,-10e-6 c 1.39067,-2.62621 2.94314,-5.5424 4.61683,-8.69684 m -4.25292,9.68001 c 10.49817,-19.59345 23.05646,-38.58828 35.8286,-58.03871 l 1e-5,0 c 12.77405,-19.45334 22.74841,-41.28162 34.89582,-66.13345 l 1e-5,-1e-5 c 8.87513,-18.15722 16.44641,-29.01191 23.91739,-39.11547 m -7.27518,17.98457 c 4.38271,-8.07509 8.84199,-15.99207 13.23872,-23.76337 6.10843,11.58065 12.09611,23.44248 17.5899,35.5521 l 10e-6,10e-6 c 9.44953,20.82901 22.65448,38.30235 34.62238,57.18814 l 10e-6,1e-5 c 9.58547,15.12622 18.36925,30.54901 27.67952,45.72813 m -5.3115,-15.31662 c 9.87317,19.87956 21.47896,38.10732 31.10233,56.55421 2.10687,4.03863 4.27132,8.17821 6.44658,12.39345 m -7.65979,-7.69785 c 10.8618,20.28283 20.78085,37.88962 29.03156,55.96809 7.39503,16.20353 19.89845,35.17452 31.32724,54.4033 1.32436,2.2282 2.63429,4.45987 3.92016,6.6911 0.19534,0.33894 0.3902,0.6771 0.5846,1.01451 m -0.24267,-8.6878 c 0.79033,1.38319 1.57882,2.75213 2.36586,4.10767 10.665,18.36868 21.06278,34.27806 32.13417,49.86829 l 0,10e-6 c 11.89021,16.74325 22.09714,38.78957 32.98177,58.63345 l 0,10e-6 c 4.89121,8.91722 9.65122,17.4453 14.21726,25.74732 m -13.32967,-9.25208 c 9.95157,20.12611 22.60729,35.94207 34.50073,50.10878 l 0,10e-6 c 11.89522,14.16883 22.33036,38.88619 33.64582,58.94595 l 10e-6,10e-6 c 9.06291,16.06649 19.26356,31.14707 30.90488,46.49533 m -7.08257,-11.84249 c 5.53775,7.9842 10.047,16.5859 13.88466,25.46839 -13.71962,0.4148 -28.48917,1.26858 -43.61098,1.90316 l -10e-6,0 c -27.22,1.14228 -43.39542,0.023 -63.54165,0.0781 l -1e-5,0 c -9.52526,0.0261 -20.13779,-0.7052 -31.17659,-2.17337 M -76.48356,795.93444 -9.1007465,679.22398 M 180.81572,350.27903 233.7454,258.60212 m -0.94454,-72.7897 57.61719,99.7959 M -31.565355,718.13383 60.231521,559.13698 M 255.06451,224.3742 329.67388,353.60142"
         inkscape:transform-center-y="-22.515492"
         style="color:#000000;clip-rule:nonzero;display:inline;overflow:visible;visibility:visible;opacity:1;isolation:auto;mix-blend-mode:normal;color-interpolation:sRGB;color-interpolation-filters:linearRGB;solid-color:#000000;solid-opacity:1;fill:none;fill-opacity:1;fill-rule:nonzero;stroke:#000000;stroke-width:10.23534393;stroke-linecap:round;stroke-linejoin:round;stroke-miterlimit:4;stroke-dasharray:none;stroke-dashoffset:0;stroke-opacity:1;color-rendering:auto;image-rendering:auto;shape-rendering:auto;text-rendering:auto;enable-background:accumulate"
         transform="matrix(0.38827684,0,0,0.22880278,156.7088,549.74525)"
         inkscape:connector-curvature="0" />
      <path
         id="path4353"
         d="m 294.90894,630.31725 c 0,0 0.0401,0.0153 -3.16378,0.0769 0.75064,0.33334 0.97862,0.66667 0.68394,1 1.74178,-0.0316 2.74038,-0.29927 2.92986,-0.56153 0.19788,-0.27389 -0.45002,-0.51532 -0.45002,-0.51532 z m -12.44248,0.23927 c 0,0 0.0769,0.0441 -1.42291,0.0729 -0.96972,0.0186 -1.86073,-0.22825 -3.0948,-0.47684 -1.2296,-0.24768 -2.80347,-0.49723 -3.66855,-0.47954 -1.03626,0.0212 -0.47361,0.28843 -0.3968,0.55508 0.0772,0.26808 -0.33314,0.53552 -1.82981,0.56424 -1.68852,0.0324 -2.77975,-0.19827 -4.09303,-0.43183 -1.30935,-0.23287 -2.84473,-0.46888 -4.08074,-0.44366 -1.41714,0.0289 -1.33325,0.27557 -1.63478,0.52115 -0.30312,0.24687 -0.99258,0.49269 -2.74246,0.52641 -1.95377,0.0376 -3.02614,-0.17591 -4.0573,-0.3965 -1.02812,-0.21994 -2.02583,-0.44763 -2.64445,-0.435 -0.8008,0.0163 -0.5201,0.26762 -0.61067,0.51722 -0.091,0.25084 -0.55361,0.5001 -1.51786,0.51864 -0.0591,0.33333 -0.64093,0.66667 -1.74539,1 1.02239,-0.0185 2.26664,-0.2678 3.1443,-0.51864 0.87331,-0.2496 1.38059,-0.50087 2.23267,-0.51722 1.15445,-0.0222 1.70207,0.2006 2.05049,0.42063 0.34945,0.22069 0.50192,0.43889 2.04369,0.41087 1.85561,-0.0337 3.31598,-0.27954 4.39327,-0.52641 1.07167,-0.24558 1.76126,-0.49223 3.26909,-0.52115 1.80465,-0.0346 2.8605,0.19652 3.45016,0.42949 0.59143,0.23366 0.71265,0.46891 1.97809,0.446 1.58674,-0.0287 2.8358,-0.29616 3.59926,-0.56424 0.75939,-0.26665 1.03483,-0.5339 2.13753,-0.55508 1.40289,-0.027 2.45225,0.21775 2.91617,0.46554 0.46559,0.24867 0.33971,0.50003 0.84798,0.49084 0.83132,-0.015 1.59868,-0.28191 1.7669,-0.54721 0.17626,-0.278 -0.29005,-0.52567 -0.29005,-0.52567 z m -38.78292,0.74583 c 0,0 -0.016,0.0281 -1.97752,0.0658 -1.21171,0.0233 -1.61894,-0.22942 -2.34813,-0.48462 -0.72642,-0.25424 -1.77702,-0.51124 -2.72484,-0.4918 -1.12124,0.023 -1.16042,0.30354 -1.74317,0.58358 -0.58623,0.28171 -1.71822,0.56285 -3.41283,0.59537 -1.89098,0.0363 -2.46097,-0.20314 -3.20244,-0.44701 -0.73903,-0.24307 -1.6555,-0.49107 -2.78861,-0.46788 -1.31012,0.0268 -1.68271,0.30449 -2.3577,0.57716 -0.67889,0.27425 -1.65848,0.54396 -2.63652,0.56271 -0.71443,0.33333 -1.95153,0.66667 -3.71129,1 1.03686,-0.0188 2.86225,-0.28846 4.40118,-0.56271 1.53009,-0.27267 2.77346,-0.55035 4.16766,-0.57716 1.71746,-0.033 2.1301,0.20983 2.11814,0.45302 -0.012,0.24399 -0.45051,0.4882 1.00383,0.46187 1.79659,-0.0325 3.81024,-0.31366 5.2799,-0.59537 1.46096,-0.28004 2.37992,-0.56059 3.57328,-0.58358 1.512,-0.0291 2.02692,0.22278 1.96769,0.47714 -0.0594,0.25531 -0.69776,0.5127 0.0432,0.49928 1.07963,-0.0196 2.54977,-0.28456 3.37536,-0.54702 0.84888,-0.26986 0.97277,-0.51877 0.97277,-0.51877 z m -27.8273,0.53514 c 0,0 0.42121,-0.23572 0.37775,-0.47885 -0.0425,-0.23792 -0.51867,-0.47522 -0.94373,-0.46653 0.23007,0.33333 -0.0625,0.66666 -0.87778,1 1.90349,-0.0366 1.44376,-0.0546 1.44376,-0.0546 z m -8.10022,0.15578 z"
         style="color:#000000;clip-rule:nonzero;display:inline;overflow:visible;visibility:visible;opacity:1;isolation:auto;mix-blend-mode:normal;color-interpolation:sRGB;color-interpolation-filters:linearRGB;solid-color:#000000;solid-opacity:1;fill:none;fill-opacity:1;fill-rule:nonzero;stroke:#000000;stroke-width:3.05073047;stroke-linecap:round;stroke-linejoin:round;stroke-miterlimit:4;stroke-dasharray:none;stroke-dashoffset:0;stroke-opacity:1;color-rendering:auto;image-rendering:auto;shape-rendering:auto;text-rendering:auto;enable-background:accumulate"
         inkscape:connector-curvature="0" />
      <path
         id="path4357"
         d="m 329.39685,666.25016 c 0,0 -0.0407,0.0152 -2.63472,-0.0153 -1.50568,-0.0177 -1.67025,-0.27753 -2.17779,-0.53572 -0.50908,-0.25896 -1.36075,-0.51633 -2.82909,-0.53297 -1.66358,-0.0188 -2.32795,0.22831 -3.32874,0.47654 -0.9986,0.24769 -2.3342,0.49653 -3.88174,0.47833 -1.73073,-0.0203 -2.10508,-0.28159 -2.53893,-0.53785 -0.43514,-0.25702 -0.92603,-0.50935 -1.48219,-0.51566 -0.75461,-0.009 -0.90691,0.23411 -1.50371,0.47648 -0.59542,0.24181 -1.63386,0.48329 -2.80078,0.46958 -0.64363,0.33333 -1.80994,0.66666 -3.49891,1 1.1239,0.0137 2.91962,-0.22777 4.27338,-0.46958 1.35688,-0.24237 2.27016,-0.48503 2.99794,-0.47648 1.02704,0.0121 0.96087,0.2672 0.58302,0.52425 -0.37674,0.2563 -1.06625,0.51461 0.13428,0.52926 1.49048,0.0182 3.60643,-0.23064 5.38178,-0.47833 1.77927,-0.24823 3.21869,-0.49538 4.82318,-0.47654 1.90506,0.0224 2.18268,0.28253 1.87266,0.54153 -0.30908,0.25821 -1.20294,0.51515 -0.21721,0.52716 1.27166,0.0155 3.35265,-0.23121 4.74869,-0.48095 1.42765,-0.25538 2.07888,-0.5038 2.07888,-0.5038 z m -31.24115,-0.36668 c 0,0 0.0518,-0.0336 -3.02102,-0.0696 -1.75078,-0.0205 -2.38857,-0.26463 -3.27911,-0.50669 -0.89316,-0.24276 -2.03844,-0.48358 -3.58221,-0.50108 -1.74968,-0.0198 -2.18938,0.21121 -2.73649,0.44535 -0.54593,0.23365 -1.20257,0.47059 -2.10079,0.46004 -1.08534,-0.0127 -1.44083,-0.27875 -2.08238,-0.54219 -0.64349,-0.26424 -1.57181,-0.52603 -2.30332,-0.5343 -0.92635,-0.0105 -0.78968,0.2489 -1.133,0.50826 -0.34247,0.25872 -1.16361,0.51739 -2.44852,0.50229 -1.4684,-0.0172 -2.07775,-0.28381 -2.88223,-0.54672 -0.80696,-0.26372 -1.80695,-0.524 -2.57708,-0.53272 -0.96794,-0.0109 -0.81017,0.2412 -1.08837,0.49354 -0.27752,0.25173 -0.99008,0.50363 -2.22416,0.48912 -1.42173,-0.0167 -2.08283,-0.27766 -3.10092,-0.53706 -1.02126,-0.26021 -2.39942,-0.51893 -3.83495,-0.5352 -1.63584,-0.0185 -1.7366,0.22681 -2.14011,0.47356 -0.4026,0.24619 -1.10883,0.49387 -2.52404,0.47723 -1.60258,-0.0188 -2.45746,-0.28308 -3.44892,-0.54309 -0.99452,-0.26082 -2.1232,-0.51765 -2.83215,-0.52569 -0.9146,-0.0104 -0.62996,0.21927 -0.60031,0.4503 0.0296,0.2305 -0.19656,0.46247 -0.90811,0.45412 -0.91022,-0.0107 -1.51772,-0.2486 -2.30957,-0.48395 -0.794,-0.236 -1.77112,-0.46955 -2.22121,-0.47465 -0.66064,-0.007 -0.22376,0.22081 -0.24598,0.4481 -0.0222,0.22679 -0.50141,0.45247 -1.80075,0.43724 -1.49469,-0.0175 -2.4798,-0.27835 -3.63632,-0.5355 -1.16005,-0.25793 -2.48972,-0.51241 -3.26603,-0.52119 -0.97922,-0.0111 -0.47593,0.24092 -0.30275,0.49433 0.17275,0.25277 0.0148,0.50703 -0.81487,0.49729 -1.01784,-0.0119 -1.81534,-0.27632 -2.84165,-0.53752 -1.02942,-0.26199 -2.28612,-0.52101 -2.7461,-0.52621 -0.66309,-0.008 0.0216,0.23876 0.31967,0.48556 0.29737,0.24619 0.20869,0.49293 -0.61279,0.48329 -1.01581,-0.0119 -1.86703,-0.26229 -2.89374,-0.50949 -1.02966,-0.24791 -2.23327,-0.49282 -2.63315,-0.49735 -0.60686,-0.007 0.12621,0.23775 0.41449,0.48217 0.28758,0.24383 0.13166,0.4874 -0.88785,0.47543 -1.21265,-0.0142 -2.22132,-0.27778 -3.67789,-0.5407 -1.46124,-0.26377 -3.37115,-0.52691 -4.93064,-0.54456 -1.76149,-0.0199 -1.41987,0.23317 -1.2966,0.48898 0.12297,0.25519 0.0253,0.51325 -1.08969,0.50015 -1.30343,-0.0153 -2.44361,-0.28248 -3.98169,-0.54829 -1.54307,-0.26667 -3.48431,-0.53204 -4.90109,-0.54808 -1.62091,-0.0184 -1.17123,0.22561 -0.98123,0.47143 0.18955,0.24525 0.11822,0.49246 -1.13456,0.47774 -1.44729,-0.017 -2.75241,-0.27196 -4.13315,-0.5224 -1.38488,-0.25119 -2.84317,-0.49812 -3.25751,-0.50282 -0.62657,-0.007 0.26841,0.22352 0.68352,0.45296 0.41416,0.22893 0.35052,0.45659 -0.98248,0.44095 -1.53557,-0.018 -2.96828,-0.26747 -4.60674,-0.51413 -1.64346,-0.24741 -3.49193,-0.49218 -4.58347,-0.50454 -1.30532,-0.0148 -0.58733,0.2222 0.12197,0.46372 0.73456,0.25011 1.37281,0.48627 1.37281,0.48627 0,0 0.0543,0.0199 2.61571,0.05 1.57101,0.0185 2.89916,0.26617 3.7598,0.51361 0.85803,0.24669 1.24992,0.49306 2.23583,0.50506 1.28398,0.0156 2.06155,-0.21202 2.3653,-0.44095 0.30445,-0.22944 0.13268,-0.46006 0.73698,-0.45296 0.91551,0.0108 1.84561,0.26064 2.43572,0.51186 0.58834,0.25047 0.83654,0.50235 1.73982,0.51336 1.20664,0.0147 2.05324,-0.23249 2.63277,-0.47774 0.5809,-0.24582 0.89629,-0.48978 2.45964,-0.47143 1.88097,0.0221 3.23457,0.29038 3.93393,0.55708 0.6971,0.26584 0.74303,0.52992 1.51063,0.53929 1.0739,0.0131 1.98087,-0.24496 2.65816,-0.50015 0.67894,-0.25581 1.13105,-0.5089 2.83005,-0.48898 2.01651,0.0237 3.34485,0.28972 3.9716,0.55351 0.62475,0.26296 0.55161,0.52344 1.23354,0.53175 0.98198,0.012 1.90174,-0.2316 2.3788,-0.47543 0.47822,-0.24442 0.5123,-0.48904 1.0976,-0.48217 0.89551,0.0105 1.57461,0.25833 1.81992,0.50627 0.2446,0.24724 0.0565,0.49457 0.54951,0.50057 0.79126,0.01 1.65371,-0.2371 2.12838,-0.48329 0.47587,-0.2468 0.56352,-0.49306 1.20309,-0.48556 0.95289,0.0112 1.63996,0.27308 1.84047,0.53511 0.19991,0.26124 -0.0855,0.52256 0.41139,0.52862 0.79916,0.01 1.75443,-0.24452 2.37437,-0.49729 0.62151,-0.25341 0.90849,-0.5054 1.85297,-0.49433 1.25657,0.0147 2.03029,0.2721 2.37433,0.53006 0.343,0.25718 0.25699,0.51497 1.21425,0.52663 1.25156,0.0152 2.43853,-0.21045 3.17192,-0.43724 0.73501,-0.22729 1.0141,-0.45559 1.65125,-0.4481 0.93844,0.011 1.42463,0.24747 1.47201,0.48349 0.0473,0.23538 -0.34281,0.4703 0.0526,0.47511 0.68537,0.008 1.63896,-0.22362 2.33224,-0.45412 0.69487,-0.23103 1.13036,-0.46066 2.01245,-0.4503 1.18736,0.014 1.75062,0.27366 1.92004,0.5345 0.16889,0.26005 -0.056,0.52128 1.00933,0.53428 1.36302,0.0166 2.84598,-0.23104 4.02065,-0.47723 1.17733,-0.24675 2.04747,-0.49209 3.62518,-0.47356 1.88586,0.0222 2.69144,0.28374 2.88956,0.54397 0.1975,0.25944 -0.20958,0.51739 0.68368,0.52829 1.1886,0.0145 2.69113,-0.23739 3.75808,-0.48912 1.06954,-0.25234 1.70252,-0.50449 2.6361,-0.49354 1.24256,0.0146 1.66444,0.27771 1.63715,0.54146 -0.0272,0.26294 -0.50291,0.52652 0.43702,0.53798 1.23757,0.0151 2.8699,-0.24357 4.02371,-0.50229 1.15669,-0.25936 1.83342,-0.51874 2.72693,-0.50826 1.20409,0.0141 1.54894,0.27874 1.35655,0.54301 -0.19181,0.26347 -0.91893,0.52651 -0.34677,0.53348 0.86516,0.0105 2.26485,-0.22639 3.54349,-0.46004 1.2814,-0.23414 2.44562,-0.46518 4.13312,-0.44535 1.98401,0.0233 2.61071,0.26696 2.73597,0.50975 0.12489,0.24209 -0.24963,0.48323 0.96498,0.49802 1.49852,0.0182 3.30945,-0.21482 4.41529,-0.45169 1.13417,-0.24294 1.47817,-0.4787 1.47817,-0.4787 z"
         style="color:#000000;clip-rule:nonzero;display:inline;overflow:visible;visibility:visible;opacity:1;isolation:auto;mix-blend-mode:normal;color-interpolation:sRGB;color-interpolation-filters:linearRGB;solid-color:#000000;solid-opacity:1;fill:none;fill-opacity:1;fill-rule:nonzero;stroke:#000000;stroke-width:3.05073047;stroke-linecap:round;stroke-linejoin:round;stroke-miterlimit:4;stroke-dasharray:none;stroke-dashoffset:0;stroke-opacity:1;color-rendering:auto;image-rendering:auto;shape-rendering:auto;text-rendering:auto;enable-background:accumulate"
         inkscape:connector-curvature="0" />
      <path
         id="path4361"
         d="m 358.58801,698.0741 c 0,0 -0.10691,0.0152 -2.71946,0.006 -1.35819,-0.005 -0.58681,-0.25859 -2.07477,-0.51044 -1.49541,-0.25312 -5.25001,-0.50428 -6.92438,-0.50963 -0.89141,-0.003 -0.64279,0.0595 -0.22518,0.15415 0.4501,0.10204 0.94224,0.21467 0.92474,0.34924 -0.017,0.13101 -0.53942,0.2508 -1.42546,0.34936 -0.85289,0.0949 -1.93566,0.1571 -2.68202,0.15455 -1.57731,-0.005 -0.99193,-0.25975 -2.37555,-0.51103 -1.3905,-0.25254 -4.74352,-0.50224 -5.46906,-0.50457 -0.63192,-0.002 2.04226,0.24324 2.41368,0.48983 0.36972,0.24546 -1.56077,0.49231 -2.87526,0.48782 -1.19941,-0.004 -0.59423,-0.25778 -2.23789,-0.50935 -1.6519,-0.25283 -5.55246,-0.50369 -7.0364,-0.50844 -1.40841,-0.005 0.91631,0.22496 1.29146,0.45579 0.37358,0.22986 -1.20184,0.46116 -2.8878,0.45542 -1.33148,0.33334 -5.92968,0.66667 -13.7946,1 1.57363,0.006 7.6825,-0.22556 11.81419,-0.45542 4.14919,-0.23083 6.32222,-0.4603 7.64227,-0.45579 1.88607,0.006 1.09763,0.2581 -2.21867,0.51095 -3.2998,0.25159 -9.12301,0.5044 -8.45603,0.50684 1.2265,0.004 7.99533,-0.24236 12.43667,-0.48782 4.46175,-0.24659 6.5948,-0.49185 7.18705,-0.48983 1.17393,0.004 -0.13983,0.25452 -3.71169,0.50707 -3.55418,0.2513 -9.3704,0.5048 -8.34978,0.50853 0.69638,0.003 2.99878,-0.0597 5.7113,-0.15455 2.81795,-0.0986 5.68821,-0.21835 8.27312,-0.34936 2.65509,-0.13457 4.37053,-0.2472 5.92031,-0.34924 1.4379,-0.0947 2.41106,-0.157 3.24662,-0.15415 2.0631,0.007 1.12215,0.259 -2.35621,0.51213 -3.46103,0.25187 -9.45493,0.50495 -8.63827,0.50794 1.38112,0.005 8.63719,-0.24772 13.22654,-0.49982 4.78672,-0.26295 6.37053,-0.50651 6.37053,-0.50651 z m -44.35023,-0.1511 c 0,0 -0.003,7.8e-4 -1.74792,-0.005 -1.29683,0.33333 -5.86037,0.66667 -13.69064,1 0.97732,0.004 7.1255,-0.24633 10.77649,-0.49519 3.83978,-0.26172 4.66207,-0.49964 4.66207,-0.49964 z m -7.16288,-0.0244 c 0,0 -0.10198,0.0281 -2.61158,0.0196 -1.299,0.33334 -5.86471,0.66667 -13.69714,1 0.56761,0.002 2.58419,-0.0604 4.88883,-0.1557 2.38826,-0.0987 4.77388,-0.21938 6.72114,-0.35088 1.95918,-0.1323 3.13141,-0.2519 3.84265,-0.35248 0.66387,-0.0939 0.8561,-0.16051 0.8561,-0.16051 z m -8.84416,-0.0301 c 0,0 -0.10506,0.0344 -2.51345,0.0262 -0.74182,-0.003 -0.98575,-0.071 -1.43533,-0.17273 -0.47874,-0.10832 -1.1062,-0.22971 -2.49702,-0.37105 -1.36537,-0.13876 -3.17739,-0.26529 -5.15233,-0.37092 -1.89772,-0.10151 -3.70122,-0.17009 -4.40095,-0.17232 -0.87214,-0.003 -0.22032,0.063 0.74975,0.16277 1.04149,0.10712 2.15659,0.2266 2.81727,0.36797 0.64614,0.13825 0.67737,0.26404 0.24339,0.36823 -0.41691,0.10009 -1.21187,0.16586 -1.8809,0.16357 -0.82965,-0.003 -1.17904,-0.0703 -1.69972,-0.17031 -0.5609,-0.10771 -1.2015,-0.22438 -2.55658,-0.36418 -1.32549,-0.13676 -3.00148,-0.25912 -4.76666,-0.36293 -1.68377,-0.099 -3.18725,-0.1655 -3.51457,-0.16655 -0.78904,-0.003 2.94061,0.23873 4.59802,0.48177 1.6498,0.24192 1.2269,0.48577 0.37416,0.48287 -0.75881,-0.003 -1.18079,-0.24236 -3.51043,-0.47992 -2.34062,-0.23868 -6.58737,-0.47532 -7.18628,-0.47723 -0.53415,-0.002 3.18363,0.23412 4.71895,0.47099 1.52848,0.23582 0.87842,0.47272 -0.54516,0.46788 -1.33961,-0.005 -2.15475,-0.24477 -4.80442,-0.48249 -2.66236,-0.23885 -7.15665,-0.47541 -8.07979,-0.47837 -0.853,-0.003 2.91338,0.23832 4.59881,0.48111 1.67769,0.24168 1.27427,0.48524 0.31307,0.48196 -0.23135,0.33333 -3.72943,0.66667 -10.49422,1 0.89696,0.003 6.07418,-0.24028 9.1335,-0.48196 3.07344,-0.24279 4.03159,-0.48384 4.83107,-0.48111 1.36755,0.005 1.45738,0.24205 -0.57401,0.48092 -2.02172,0.23774 -6.16427,0.47706 -5.37487,0.47994 1.32863,0.005 6.62202,-0.23206 9.71568,-0.46788 3.10748,-0.23687 4.01207,-0.4727 4.51272,-0.47099 1.06294,0.004 0.90348,0.24107 -1.44622,0.47977 -2.33867,0.23758 -6.8654,0.47647 -6.61749,0.47738 0.79589,0.003 5.99825,-0.24095 9.09023,-0.48287 3.10625,-0.24304 4.1051,-0.48429 4.84475,-0.48177 0.55582,0.002 0.94128,0.069 0.8032,0.16845 -0.1438,0.10357 -0.82558,0.22749 -2.1806,0.36356 -1.37525,0.13812 -3.12087,0.25797 -4.77492,0.36355 -1.55966,0.0996 -2.70789,0.16642 -2.16433,0.16841 0.6242,0.002 2.70833,-0.0635 5.08699,-0.16357 2.47603,-0.10419 4.91048,-0.22998 6.97409,-0.36823 2.11007,-0.14137 3.33691,-0.26085 4.39498,-0.36797 0.98551,-0.0998 1.62293,-0.16555 2.44059,-0.16277 0.905,0.003 1.54901,0.0723 1.57618,0.17422 0.0281,0.10558 -0.59538,0.23327 -1.95191,0.37155 -1.37447,0.14011 -3.21643,0.26376 -4.96918,0.37042 -1.66468,0.10129 -2.93743,0.16914 -2.47541,0.17083 0.54323,0.002 2.52178,-0.061 4.77767,-0.15688 2.33894,-0.0994 4.66601,-0.22075 6.54829,-0.35313 1.8934,-0.13316 3.00191,-0.25345 3.65783,-0.35467 0.61062,-0.0942 0.76556,-0.16149 0.76556,-0.16149 z m -40.33587,-0.13743 c 0,0 0.003,-0.0168 -1.56851,-0.0221 -0.86586,-0.003 -1.62585,-0.23936 -4.19226,-0.47346 -2.57841,-0.2352 -6.96115,-0.46826 -7.4987,-0.46998 -0.47688,-0.002 3.50777,0.23526 5.35359,0.4733 1.83749,0.23697 1.53892,0.47527 0.39801,0.47138 -1.02513,-0.003 -1.92121,-0.26412 -5.28488,-0.52283 -3.38133,-0.26006 -9.23315,-0.51833 -10.98294,-0.52391 -0.92604,-0.003 -0.1527,0.0614 1.05721,0.15916 1.308,0.10569 2.73013,0.22143 3.82972,0.36087 1.07238,0.136 1.53185,0.2589 1.51453,0.36168 -0.0166,0.0984 -0.47488,0.16332 -0.98887,0.16156 -0.67605,-0.002 -1.11693,-0.07 -1.88962,-0.17068 -0.82099,-0.10697 -1.85768,-0.22766 -3.70889,-0.3674 -1.82035,-0.13742 -4.04272,-0.26277 -6.34875,-0.36739 -2.216,-0.10054 -4.22179,-0.16847 -4.90102,-0.17063 -0.85174,-0.003 -0.0138,0.0604 1.26413,0.15621 1.37582,0.10314 2.87123,0.21731 4.05317,0.3534 1.15441,0.13291 1.69863,0.25357 1.73992,0.35384 0.0396,0.0962 -0.39728,0.15956 -0.9799,0.15757 -1.25092,-0.004 -2.55468,-0.26077 -5.89755,-0.51426 -3.36001,-0.2548 -8.75558,-0.50684 -9.33435,-0.50869 -0.48607,-0.002 4.19171,0.2384 6.60688,0.47941 2.4041,0.23992 2.55004,0.48094 1.10013,0.476 -1.34099,-0.005 -3.00464,-0.25715 -6.78228,-0.50727 -3.79693,-0.2514 -9.70736,-0.50053 -10.96688,-0.50455 -1.17046,-0.004 3.49293,0.23701 6.12877,0.47964 2.62369,0.24152 3.21932,0.48507 2.12927,0.48137 -0.99169,-0.003 -2.65773,-0.24516 -6.23399,-0.4846 -3.59362,-0.24061 -9.0965,-0.47904 -9.87459,-0.48153 -0.71102,-0.002 4.06879,0.23327 6.77601,0.4702 2.69496,0.23586 3.31955,0.47318 2.1183,0.4691 -1.1253,-0.004 -2.92923,-0.23675 -6.47881,-0.4674 -3.56627,-0.23175 -8.877,-0.46139 -9.71106,-0.46406 -0.77196,-0.002 4.03658,0.2377 6.54131,0.47882 2.4933,0.24001 2.68802,0.48099 0.82164,0.47462 -1.75646,-0.006 -3.91219,-0.25805 -7.89173,-0.50674 -3.99986,-0.24995 -9.81867,-0.49682 -10.42258,-0.49875 -0.52215,-0.002 4.61152,0.23687 7.65179,0.47694 3.02617,0.23896 3.9608,0.47955 3.0412,0.47642 -0.8084,-0.003 -2.73214,-0.25707 -7.04775,-0.50971 -4.33799,-0.25395 -11.07186,-0.50631 -12.75843,-0.51169 -1.58653,-0.005 3.52389,0.2387 6.6241,0.48462 3.08569,0.24477 4.1596,0.49189 2.95019,0.48778 -1.08273,-0.004 -3.4111,-0.2596 -7.85707,-0.51282 -4.469,-0.25453 -11.05481,-0.50659 -11.84633,-0.50911 -0.68666,-0.002 5.12203,0.24468 8.53134,0.49266 3.39313,0.2468 4.3921,0.49475 2.65452,0.48884 -1.61423,-0.005 -4.40358,-0.25996 -9.32485,-0.51188 -4.94707,-0.25325 -12.02648,-0.50415 -13.57489,-0.50908 8.84289,0.33333 14.41907,0.66666 16.72852,1 1.96902,0.007 4.3684,0.25842 4.33877,0.51168 -0.0295,0.25195 -2.48504,0.50552 -1.45028,0.50928 1.62188,0.006 5.48279,-0.24204 6.92702,-0.48884 1.45111,-0.24798 0.48106,-0.49484 1.12485,-0.49266 1.25804,0.004 3.14054,0.25716 2.6076,0.51171 -0.5302,0.25324 -3.47421,0.50825 -2.93427,0.51022 1.12882,0.004 4.89845,-0.24301 6.61037,-0.48778 1.71998,-0.24592 1.38737,-0.48968 2.87472,-0.48462 2.09531,0.007 4.11897,0.26032 3.4665,0.51428 -0.64911,0.25266 -3.96555,0.50608 -3.68012,0.50712 0.85826,0.003 4.63927,-0.23746 6.29675,-0.47642 1.6652,-0.24007 1.20694,-0.47861 1.69635,-0.47694 1.07784,0.004 2.29356,0.25137 1.38149,0.50134 -0.90744,0.24871 -3.94672,0.49987 -2.77512,0.50415 1.74167,0.006 6.27017,-0.23461 8.4812,-0.47462 2.22117,-0.24112 2.12004,-0.48129 2.84356,-0.47882 1.29132,0.004 2.33699,0.23488 1.34924,0.46664 -0.98314,0.23068 -3.99796,0.4627 -3.41625,0.46482 1.12127,0.004 5.14827,-0.23324 7.07618,-0.4691 1.93667,-0.23693 1.77363,-0.47247 2.44012,-0.4702 1.2394,0.004 2.30433,0.24349 1.16977,0.48411 -1.12909,0.23946 -4.45558,0.48035 -3.99755,0.48202 1.01745,0.004 5.19554,-0.23985 7.3056,-0.48137 2.11985,-0.24263 2.17502,-0.48337 3.27229,-0.47964 1.69079,0.006 2.95296,0.25571 1.80957,0.50712 -1.13759,0.25015 -4.67817,0.50184 -3.89237,0.5047 1.35322,0.005 5.93136,-0.23608 8.22962,-0.476 2.30885,-0.24101 2.33412,-0.48096 2.78975,-0.47941 1.05071,0.004 1.73979,0.25645 0.0928,0.51126 -1.63862,0.25351 -5.61479,0.50912 -4.91103,0.51169 0.54365,0.002 2.22175,-0.0613 4.06825,-0.15757 1.9241,-0.10027 3.74494,-0.22093 5.19564,-0.35384 1.4853,-0.13609 2.22775,-0.25026 2.87353,-0.3534 0.59982,-0.0958 0.99916,-0.15893 1.79764,-0.15621 0.8887,0.003 1.75013,0.0716 2.11595,0.17255 0.37888,0.10458 0.19281,0.23109 -0.68415,0.36803 -0.88748,0.13858 -2.2978,0.26139 -3.68798,0.36676 -1.32253,0.10025 -2.38525,0.16731 -1.98751,0.16876 0.47958,0.002 2.20963,-0.0631 4.15555,-0.16156 2.03177,-0.10278 3.98122,-0.22568 5.57439,-0.36168 1.6336,-0.13944 2.47989,-0.25518 3.24354,-0.36087 0.70638,-0.0978 1.19429,-0.16212 2.06245,-0.15916 2.14745,0.007 3.16966,0.26639 1.44043,0.52647 -1.7202,0.25873 -6.18414,0.51846 -5.68913,0.52027 1.0647,0.004 6.03391,-0.23441 8.84111,-0.47138 2.81994,-0.23804 3.47636,-0.47483 3.9233,-0.4733 1.00694,0.003 1.05449,0.23732 -0.98895,0.47254 -2.03393,0.23411 -6.15761,0.46964 -5.81176,0.4709 0.89272,0.003 5.88844,-0.24238 8.49325,-0.48693 2.78395,-0.26136 2.67057,-0.49093 2.67057,-0.49093 z M 153.63555,697.3758 Z"
         style="color:#000000;clip-rule:nonzero;display:inline;overflow:visible;visibility:visible;opacity:1;isolation:auto;mix-blend-mode:normal;color-interpolation:sRGB;color-interpolation-filters:linearRGB;solid-color:#000000;solid-opacity:1;fill:none;fill-opacity:1;fill-rule:nonzero;stroke:#000000;stroke-width:3.05073047;stroke-linecap:round;stroke-linejoin:round;stroke-miterlimit:4;stroke-dasharray:none;stroke-dashoffset:0;stroke-opacity:1;color-rendering:auto;image-rendering:auto;shape-rendering:auto;text-rendering:auto;enable-background:accumulate"
         inkscape:connector-curvature="0" />
    </g>
  </g>
</svg>
