<?xml version="1.0" encoding="UTF-8" standalone="no"?>
<!-- Created with Inkscape (http://www.inkscape.org/) -->

<svg
   xmlns:dc="http://purl.org/dc/elements/1.1/"
   xmlns:cc="http://creativecommons.org/ns#"
   xmlns:rdf="http://www.w3.org/1999/02/22-rdf-syntax-ns#"
   xmlns:svg="http://www.w3.org/2000/svg"
   xmlns="http://www.w3.org/2000/svg"
   xmlns:sodipodi="http://sodipodi.sourceforge.net/DTD/sodipodi-0.dtd"
   xmlns:inkscape="http://www.inkscape.org/namespaces/inkscape"
   id="svg4206"
   version="1.1"
   inkscape:version="0.91 r13725"
   width="1053.6154"
   height="512"
   viewBox="0 0 1053.6153 512"
   sodipodi:docname="staRHs-Logo-vector.svg"
   inkscape:export-filename="/home/m/RHDrive/Design/CI/Logos/staRHs/staRHs-Logo-vector.png"
   inkscape:export-xdpi="300"
   inkscape:export-ydpi="300">
  <metadata
     id="metadata4212">
    <rdf:RDF>
      <cc:Work
         rdf:about="">
        <dc:format>image/svg+xml</dc:format>
        <dc:type
           rdf:resource="http://purl.org/dc/dcmitype/StillImage" />
        <dc:title />
      </cc:Work>
    </rdf:RDF>
  </metadata>
  <defs
     id="defs4210" />
  <sodipodi:namedview
     pagecolor="#ffffff"
     bordercolor="#666666"
     borderopacity="1"
     objecttolerance="10"
     gridtolerance="10"
     guidetolerance="10"
     inkscape:pageopacity="0"
     inkscape:pageshadow="2"
     inkscape:window-width="3440"
     inkscape:window-height="1411"
     id="namedview4208"
     showgrid="false"
     inkscape:snap-grids="false"
     inkscape:snap-to-guides="false"
     inkscape:zoom="0.8792305"
     inkscape:cx="133.88338"
     inkscape:cy="523.08584"
     inkscape:window-x="0"
     inkscape:window-y="0"
     inkscape:window-maximized="1"
     inkscape:current-layer="svg4206"
     showguides="true"
     inkscape:guide-bbox="true"
     fit-margin-top="6"
     fit-margin-left="6"
     fit-margin-right="6"
     fit-margin-bottom="6"
     inkscape:snap-text-baseline="false" />
  <path
     style="opacity:1;fill:#3399ff;fill-opacity:1;fill-rule:nonzero;stroke:none;stroke-width:6;stroke-linecap:round;stroke-linejoin:round;stroke-miterlimit:4;stroke-dasharray:none;stroke-dashoffset:0;stroke-opacity:1"
     d="M 255.99787,6 A 249.99942,249.99942 0 0 0 6,256 249.99942,249.99942 0 0 0 255.99787,506.00001 249.99942,249.99942 0 0 0 479.40727,368.041 l -12.7919,0 A 238.68111,238.68111 0 0 1 255.99787,494.68101 238.68111,238.68111 0 0 1 17.31691,256 238.68111,238.68111 0 0 1 255.99787,17.31904 238.68111,238.68111 0 0 1 466.54937,143.95899 l 12.6195,0 A 249.99942,249.99942 0 0 0 255.99787,6 Z"
     id="path4216-1"
     inkscape:connector-curvature="0" />
  <g
     transform="matrix(0.99824713,0,0,0.99824713,-572.60441,-538.37704)"
     id="g3720"
     style="fill:#0565c0;fill-opacity:1">
    <path
       inkscape:connector-curvature="0"
       id="path3722"
       style="font-style:normal;font-variant:normal;font-weight:100;font-stretch:normal;font-size:medium;line-height:125%;font-family:Agenda;-inkscape-font-specification:'Agenda Thin';letter-spacing:0px;word-spacing:0px;fill:#0565c0;fill-opacity:1;stroke:none;stroke-width:1px;stroke-linecap:butt;stroke-linejoin:miter;stroke-opacity:1"
       d="m 1426.7889,874.41669 -41.8715,-73.45049 c 15.6726,-3.50879 25.965,-18.01175 25.965,-37.19309 0,-21.75444 -13.8012,-38.59659 -34.3861,-38.59659 l -28.772,0 0,149.24017 6.7837,0 0,-72.04698 23.1579,0 41.1697,72.04698 7.9533,0 z m -22.6901,-110.64358 c 0,18.94742 -11.696,32.28079 -27.6025,32.28079 l -21.9883,0 0,-64.7955 21.2866,0 c 16.3743,0 28.3042,13.56729 28.3042,32.51471 z" />
    <path
       inkscape:connector-curvature="0"
       id="path3724"
       style="font-style:normal;font-variant:normal;font-weight:100;font-stretch:normal;font-size:medium;line-height:125%;font-family:Agenda;-inkscape-font-specification:'Agenda Thin';letter-spacing:0px;word-spacing:0px;fill:#0565c0;fill-opacity:1;stroke:none;stroke-width:1px;stroke-linecap:butt;stroke-linejoin:miter;stroke-opacity:1"
       d="m 1525.1919,874.41669 0,-149.24017 -7.0176,0 0,70.87738 -72.7487,0 0,-70.87738 -6.7836,0 0,149.24017 6.7836,0 0,-72.04698 72.7487,0 0,72.04698 7.0176,0 z" />
  </g>
  <g
     id="g3726"
     transform="matrix(0.09993501,0,0,0.09993501,724.0135,381.46255)"
     style="opacity:1;fill:#333333">
    <path
       d="M 566.99124,-18.695646 525.02965,-92.30424 c 15.7063,-3.516334 26.02088,-18.05051 26.02088,-37.27314 0,-21.80127 -13.83092,-38.67968 -34.46008,-38.67968 l -28.83394,0 0,149.561414 6.79825,0 0,-72.20206 23.2078,0 41.25832,72.20206 7.97036,0 z M 544.25228,-129.57738 c 0,18.9882 -11.72111,32.350273 -27.66183,32.350273 l -22.03569,0 0,-64.934973 21.33242,0 c 16.40956,0 28.3651,13.5965 28.3651,32.5847 z"
       style="font-style:normal;font-variant:normal;font-weight:100;font-stretch:normal;font-size:234.42227173px;line-height:125%;font-family:Agenda;-inkscape-font-specification:'Agenda, Thin';text-align:start;letter-spacing:0px;word-spacing:0px;writing-mode:lr-tb;text-anchor:start;fill:#333333;fill-opacity:1;stroke:none;stroke-width:1px;stroke-linecap:butt;stroke-linejoin:miter;stroke-opacity:1"
       id="path3728"
       inkscape:connector-curvature="0" />
    <path
       d="m 644.50809,-18.695646 0,-6.094979 -58.83999,0 0,-66.107081 42.66485,0 0,-6.329401 -42.66485,0 0,-64.934973 52.51059,0 0,-6.09498 -59.30884,0 0,149.561414 65.63824,0 z"
       style="font-style:normal;font-variant:normal;font-weight:100;font-stretch:normal;font-size:234.42227173px;line-height:125%;font-family:Agenda;-inkscape-font-specification:'Agenda, Thin';text-align:start;letter-spacing:0px;word-spacing:0px;writing-mode:lr-tb;text-anchor:start;fill:#333333;fill-opacity:1;stroke:none;stroke-width:1px;stroke-linecap:butt;stroke-linejoin:miter;stroke-opacity:1"
       id="path3730"
       inkscape:connector-curvature="0" />
    <path
       d="m 722.53408,-53.624565 c 0,-20.62916 -10.549,-32.350273 -32.81912,-48.056565 -17.58167,-12.42438 -24.61434,-23.20781 -24.61434,-36.56987 0,-13.36207 8.67363,-25.08319 26.02088,-25.08319 8.4392,0 17.11282,3.28191 21.80127,7.26709 l 2.1098,-6.09498 c -5.15729,-3.75075 -14.06534,-7.26709 -24.1455,-7.26709 -22.03569,0 -32.58469,14.53418 -32.58469,31.64701 0,16.64398 8.20478,28.36509 29.5372,43.36812 19.22263,13.596492 27.89626,24.379916 27.89626,41.25832 0,18.988204 -13.12765,29.302784 -29.53721,29.302784 -14.29976,0 -24.37992,-5.391713 -32.5847,-12.658803 l 1.40654,8.673624 c 6.79824,5.391712 16.8784,10.31458 31.17816,10.31458 20.39474,0 36.33545,-12.893225 36.33545,-36.10103 z"
       style="font-style:normal;font-variant:normal;font-weight:100;font-stretch:normal;font-size:234.42227173px;line-height:125%;font-family:Agenda;-inkscape-font-specification:'Agenda, Thin';text-align:start;letter-spacing:0px;word-spacing:0px;writing-mode:lr-tb;text-anchor:start;fill:#333333;fill-opacity:1;stroke:none;stroke-width:1px;stroke-linecap:butt;stroke-linejoin:miter;stroke-opacity:1"
       id="path3732"
       inkscape:connector-curvature="0" />
    <path
       d="m 856.68954,-93.476351 c 0,-43.836969 -24.61433,-76.656079 -58.83999,-76.656079 -34.22565,0 -59.30883,32.81911 -59.30883,76.656079 0,43.836965 25.08318,76.656083 59.30883,76.656083 34.22566,0 58.83999,-32.819118 58.83999,-76.656083 z m -6.79824,0 c 0,40.320631 -22.50454,70.326682 -52.04175,70.326682 -29.77162,0 -52.27616,-30.006051 -52.27616,-70.326682 0,-40.320629 22.50454,-70.326679 52.27616,-70.326679 29.53721,0 52.04175,30.00605 52.04175,70.326679 z"
       style="font-style:normal;font-variant:normal;font-weight:100;font-stretch:normal;font-size:234.42227173px;line-height:125%;font-family:Agenda;-inkscape-font-specification:'Agenda, Thin';text-align:start;letter-spacing:0px;word-spacing:0px;writing-mode:lr-tb;text-anchor:start;fill:#333333;fill-opacity:1;stroke:none;stroke-width:1px;stroke-linecap:butt;stroke-linejoin:miter;stroke-opacity:1"
       id="path3734"
       inkscape:connector-curvature="0" />
    <path
       d="m 965.95964,-59.719544 0,-108.537516 -7.03267,0 0,108.068672 c 0,24.379916 -14.7686,37.038719 -36.33545,37.038719 -21.56685,0 -36.56987,-12.658803 -36.56987,-37.038719 l 0,-108.068672 -6.79825,0 0,108.537516 c 0,26.958561 16.40956,42.899276 43.36812,42.899276 26.95856,0 43.36812,-15.940715 43.36812,-42.899276 z"
       style="font-style:normal;font-variant:normal;font-weight:100;font-stretch:normal;font-size:234.42227173px;line-height:125%;font-family:Agenda;-inkscape-font-specification:'Agenda, Thin';text-align:start;letter-spacing:0px;word-spacing:0px;writing-mode:lr-tb;text-anchor:start;fill:#333333;fill-opacity:1;stroke:none;stroke-width:1px;stroke-linecap:butt;stroke-linejoin:miter;stroke-opacity:1"
       id="path3736"
       inkscape:connector-curvature="0" />
    <path
       d="m 1072.9221,-18.695646 -41.9616,-73.608594 c 15.7063,-3.516334 26.0209,-18.05051 26.0209,-37.27314 0,-21.80127 -13.8309,-38.67968 -34.4601,-38.67968 l -28.83391,0 0,149.561414 6.79821,0 0,-72.20206 23.2078,0 41.2584,72.20206 7.9703,0 z m -22.7389,-110.881734 c 0,18.9882 -11.7212,32.350273 -27.6619,32.350273 l -22.0357,0 0,-64.934973 21.3325,0 c 16.4095,0 28.3651,13.5965 28.3651,32.5847 z"
       style="font-style:normal;font-variant:normal;font-weight:100;font-stretch:normal;font-size:234.42227173px;line-height:125%;font-family:Agenda;-inkscape-font-specification:'Agenda, Thin';text-align:start;letter-spacing:0px;word-spacing:0px;writing-mode:lr-tb;text-anchor:start;fill:#333333;fill-opacity:1;stroke:none;stroke-width:1px;stroke-linecap:butt;stroke-linejoin:miter;stroke-opacity:1"
       id="path3738"
       inkscape:connector-curvature="0" />
    <path
       d="m 1169.951,-161.22439 c -7.736,-4.68844 -19.4571,-8.4392 -33.0536,-8.4392 -34.4601,0 -59.5432,32.35027 -59.5432,76.187239 0,43.836965 24.8487,76.187238 59.5432,76.187238 13.3621,0 24.3799,-3.047489 30.4749,-7.032668 l 1.1721,-7.501513 c -8.2047,5.391713 -18.5193,8.20478 -31.1781,8.20478 -30.2405,0 -52.9795,-29.771629 -52.9795,-69.857837 0,-40.086209 22.739,-69.857839 52.9795,-69.857839 12.1899,0 24.1455,3.98518 30.7093,8.20478 l 1.8754,-6.09498 z"
       style="font-style:normal;font-variant:normal;font-weight:100;font-stretch:normal;font-size:234.42227173px;line-height:125%;font-family:Agenda;-inkscape-font-specification:'Agenda, Thin';text-align:start;letter-spacing:0px;word-spacing:0px;writing-mode:lr-tb;text-anchor:start;fill:#333333;fill-opacity:1;stroke:none;stroke-width:1px;stroke-linecap:butt;stroke-linejoin:miter;stroke-opacity:1"
       id="path3740"
       inkscape:connector-curvature="0" />
    <path
       d="m 1257.1194,-18.695646 0,-6.094979 -58.84,0 0,-66.107081 42.6649,0 0,-6.329401 -42.6649,0 0,-64.934973 52.5106,0 0,-6.09498 -59.3088,0 0,149.561414 65.6382,0 z"
       style="font-style:normal;font-variant:normal;font-weight:100;font-stretch:normal;font-size:234.42227173px;line-height:125%;font-family:Agenda;-inkscape-font-specification:'Agenda, Thin';text-align:start;letter-spacing:0px;word-spacing:0px;writing-mode:lr-tb;text-anchor:start;fill:#333333;fill-opacity:1;stroke:none;stroke-width:1px;stroke-linecap:butt;stroke-linejoin:miter;stroke-opacity:1"
       id="path3742"
       inkscape:connector-curvature="0" />
    <path
       d="m 1332.5338,-162.16208 0,-6.09498 -60.0121,0 0,149.561414 6.7983,0 0,-72.20206 45.9467,0 0,-6.329401 -45.9467,0 0,-64.934973 53.2138,0 z"
       style="font-style:normal;font-variant:normal;font-weight:100;font-stretch:normal;font-size:234.42227173px;line-height:125%;font-family:Agenda;-inkscape-font-specification:'Agenda, Thin';text-align:start;letter-spacing:0px;word-spacing:0px;writing-mode:lr-tb;text-anchor:start;fill:#333333;fill-opacity:1;stroke:none;stroke-width:1px;stroke-linecap:butt;stroke-linejoin:miter;stroke-opacity:1"
       id="path3744"
       inkscape:connector-curvature="0" />
    <path
       d="m 1434.8042,-59.719544 0,-108.537516 -7.0327,0 0,108.068672 c 0,24.379916 -14.7686,37.038719 -36.3355,37.038719 -21.5668,0 -36.5698,-12.658803 -36.5698,-37.038719 l 0,-108.068672 -6.7983,0 0,108.537516 c 0,26.958561 16.4096,42.899276 43.3681,42.899276 26.9586,0 43.3682,-15.940715 43.3682,-42.899276 z"
       style="font-style:normal;font-variant:normal;font-weight:100;font-stretch:normal;font-size:234.42227173px;line-height:125%;font-family:Agenda;-inkscape-font-specification:'Agenda, Thin';text-align:start;letter-spacing:0px;word-spacing:0px;writing-mode:lr-tb;text-anchor:start;fill:#333333;fill-opacity:1;stroke:none;stroke-width:1px;stroke-linecap:butt;stroke-linejoin:miter;stroke-opacity:1"
       id="path3746"
       inkscape:connector-curvature="0" />
    <path
       d="m 1526.5292,-18.695646 0,-6.094979 -57.1991,0 0,-143.466435 -6.7982,0 0,149.561414 63.9973,0 z"
       style="font-style:normal;font-variant:normal;font-weight:100;font-stretch:normal;font-size:234.42227173px;line-height:125%;font-family:Agenda;-inkscape-font-specification:'Agenda, Thin';text-align:start;letter-spacing:0px;word-spacing:0px;writing-mode:lr-tb;text-anchor:start;fill:#333333;fill-opacity:1;stroke:none;stroke-width:1px;stroke-linecap:butt;stroke-linejoin:miter;stroke-opacity:1"
       id="path3748"
       inkscape:connector-curvature="0" />
    <path
       d="m 1675.6364,-18.695646 0,-149.561414 -7.0326,0 0,71.029953 -72.9054,0 0,-71.029953 -6.7982,0 0,149.561414 6.7982,0 0,-72.20206 72.9054,0 0,72.20206 7.0326,0 z"
       style="font-style:normal;font-variant:normal;font-weight:100;font-stretch:normal;font-size:234.42227173px;line-height:125%;font-family:Agenda;-inkscape-font-specification:'Agenda, Thin';text-align:start;letter-spacing:0px;word-spacing:0px;writing-mode:lr-tb;text-anchor:start;fill:#333333;fill-opacity:1;stroke:none;stroke-width:1px;stroke-linecap:butt;stroke-linejoin:miter;stroke-opacity:1"
       id="path3750"
       inkscape:connector-curvature="0" />
    <path
       d="m 1790.1004,-59.719544 0,-108.537516 -7.0326,0 0,108.068672 c 0,24.379916 -14.7687,37.038719 -36.3355,37.038719 -21.5669,0 -36.5699,-12.658803 -36.5699,-37.038719 l 0,-108.068672 -6.7982,0 0,108.537516 c 0,26.958561 16.4095,42.899276 43.3681,42.899276 26.9586,0 43.3681,-15.940715 43.3681,-42.899276 z"
       style="font-style:normal;font-variant:normal;font-weight:100;font-stretch:normal;font-size:234.42227173px;line-height:125%;font-family:Agenda;-inkscape-font-specification:'Agenda, Thin';text-align:start;letter-spacing:0px;word-spacing:0px;writing-mode:lr-tb;text-anchor:start;fill:#333333;fill-opacity:1;stroke:none;stroke-width:1px;stroke-linecap:butt;stroke-linejoin:miter;stroke-opacity:1"
       id="path3752"
       inkscape:connector-curvature="0" />
    <path
       d="m 1941.3687,-18.695646 -9.1425,-149.561414 -6.0949,0 -32.8192,93.065646 c -5.3917,15.003026 -10.7834,31.881429 -15.4718,46.884455 l -0.4689,0 c -4.9228,-15.237448 -10.3146,-32.584696 -15.2374,-46.650033 l -32.8191,-93.300068 -6.095,0 -8.9081,149.561414 6.3294,0 5.3917,-91.659104 c 0.9377,-14.29976 1.641,-30.24048 1.8754,-45.71235 l 0.4689,0 c 4.6884,14.53418 10.549,33.52239 15.003,46.41561 l 32.1158,91.190266 3.7508,0 32.1159,-91.190266 c 5.1572,-14.29976 11.0178,-31.41258 15.4718,-46.41561 l 0.4689,0 c 0.2344,15.70629 0.9377,30.24048 1.8753,45.71235 l 5.3918,91.659104 6.7982,0 z"
       style="font-style:normal;font-variant:normal;font-weight:100;font-stretch:normal;font-size:234.42227173px;line-height:125%;font-family:Agenda;-inkscape-font-specification:'Agenda, Thin';text-align:start;letter-spacing:0px;word-spacing:0px;writing-mode:lr-tb;text-anchor:start;fill:#333333;fill-opacity:1;stroke:none;stroke-width:1px;stroke-linecap:butt;stroke-linejoin:miter;stroke-opacity:1"
       id="path3754"
       inkscape:connector-curvature="0" />
    <path
       d="m 2051.7597,-18.695646 -45.0091,-150.967944 -4.2196,0 -45.0091,150.967944 6.5638,0 13.831,-46.181188 52.745,0 13.8309,46.181188 7.2671,0 z m -22.9734,-52.276167 -48.9943,0 16.8784,-58.605567 c 2.8131,-9.61131 5.1573,-19.92589 7.2671,-29.30278 l 0.4689,0 c 2.3442,9.37689 4.6884,19.92589 7.5015,29.5372 l 16.8784,58.371147 z"
       style="font-style:normal;font-variant:normal;font-weight:100;font-stretch:normal;font-size:234.42227173px;line-height:125%;font-family:Agenda;-inkscape-font-specification:'Agenda, Thin';text-align:start;letter-spacing:0px;word-spacing:0px;writing-mode:lr-tb;text-anchor:start;fill:#333333;fill-opacity:1;stroke:none;stroke-width:1px;stroke-linecap:butt;stroke-linejoin:miter;stroke-opacity:1"
       id="path3756"
       inkscape:connector-curvature="0" />
    <path
       d="m 2169.2345,-17.757957 0,-150.499103 -6.5638,0 0,90.955846 c 0,15.003025 0.2344,29.302784 0.7032,44.774654 l -0.4688,0 c -8.2048,-14.299759 -18.5194,-30.474896 -27.6619,-45.009076 l -57.4334,-90.721424 -6.3294,0 0,149.561414 6.5638,0 0,-91.893534 c 0,-15.94071 -0.2344,-31.17816 -0.7033,-45.71234 l 0.4689,-0.23442 c 7.5015,13.83091 19.457,31.41258 29.5372,47.11887 l 58.1367,91.659113 3.7508,0 z"
       style="font-style:normal;font-variant:normal;font-weight:100;font-stretch:normal;font-size:234.42227173px;line-height:125%;font-family:Agenda;-inkscape-font-specification:'Agenda, Thin';text-align:start;letter-spacing:0px;word-spacing:0px;writing-mode:lr-tb;text-anchor:start;fill:#333333;fill-opacity:1;stroke:none;stroke-width:1px;stroke-linecap:butt;stroke-linejoin:miter;stroke-opacity:1"
       id="path3758"
       inkscape:connector-curvature="0" />
    <path
       d="m 2260.4724,-53.624565 c 0,-20.62916 -10.549,-32.350273 -32.8191,-48.056565 -17.5817,-12.42438 -24.6143,-23.20781 -24.6143,-36.56987 0,-13.36207 8.6736,-25.08319 26.0208,-25.08319 8.4392,0 17.1129,3.28191 21.8013,7.26709 l 2.1098,-6.09498 c -5.1573,-3.75075 -14.0653,-7.26709 -24.1455,-7.26709 -22.0357,0 -32.5847,14.53418 -32.5847,31.64701 0,16.64398 8.2048,28.36509 29.5372,43.36812 19.2227,13.596492 27.8963,24.379916 27.8963,41.25832 0,18.988204 -13.1277,29.302784 -29.5372,29.302784 -14.2998,0 -24.3799,-5.391713 -32.5847,-12.658803 l 1.4065,8.673624 c 6.7983,5.391712 16.8784,10.31458 31.1782,10.31458 20.3947,0 36.3354,-12.893225 36.3354,-36.10103 z"
       style="font-style:normal;font-variant:normal;font-weight:100;font-stretch:normal;font-size:234.42227173px;line-height:125%;font-family:Agenda;-inkscape-font-specification:'Agenda, Thin';text-align:start;letter-spacing:0px;word-spacing:0px;writing-mode:lr-tb;text-anchor:start;fill:#333333;fill-opacity:1;stroke:none;stroke-width:1px;stroke-linecap:butt;stroke-linejoin:miter;stroke-opacity:1"
       id="path3760"
       inkscape:connector-curvature="0" />
  </g>
  <path
     inkscape:connector-curvature="0"
     id="path3702"
     style="font-style:normal;font-variant:normal;font-weight:100;font-stretch:normal;font-size:medium;line-height:125%;font-family:Agenda;-inkscape-font-specification:'Agenda, Thin';text-align:start;letter-spacing:0px;word-spacing:0px;writing-mode:lr-tb;text-anchor:start;fill:#333333;fill-opacity:1;stroke:none;stroke-width:1px;stroke-linecap:butt;stroke-linejoin:miter;stroke-opacity:1"
     d="m 543.3826,296.66384 c 0,-21.03564 -12.2978,-33.65702 -34.628,-48.22015 -14.2395,-9.0615 -23.9483,-16.8285 -23.9483,-34.30427 0,-14.23949 10.0324,-23.62463 23.9483,-23.62463 10.0324,0 19.0938,4.20714 24.272,8.41426 l 2.9126,-8.09063 c -4.8544,-3.8835 -15.534,-8.41426 -27.5082,-8.41426 -18.4467,0 -32.6862,11.6505 -32.6862,31.71526 0,20.71201 10.356,31.06802 30.7445,44.01303 15.8576,10.03237 27.508,21.03562 27.508,38.51139 0,17.47575 -13.2685,26.86087 -28.8025,26.86087 -13.5923,0 -24.5956,-5.50161 -33.3335,-14.23949 l 1.9419,11.97412 c 7.1196,5.82526 16.8284,10.356 31.7152,10.356 21.0355,0 37.8642,-11.97412 37.8642,-34.9515 z" />
  <path
     inkscape:connector-curvature="0"
     id="path3704"
     style="font-style:normal;font-variant:normal;font-weight:100;font-stretch:normal;font-size:medium;line-height:125%;font-family:Agenda;-inkscape-font-specification:'Agenda, Thin';text-align:start;letter-spacing:0px;word-spacing:0px;writing-mode:lr-tb;text-anchor:start;fill:#333333;fill-opacity:1;stroke:none;stroke-width:1px;stroke-linecap:butt;stroke-linejoin:miter;stroke-opacity:1"
     d="m 636.622,183.71866 -44.3366,0 0,-37.21688 -9.0617,4.85437 0,32.36251 -24.2718,0 0,8.09063 24.2718,0 0,111.00342 c 0,19.09389 11.3269,28.47902 26.5373,28.47902 4.8544,0 10.3561,-0.97088 13.2687,-2.91263 l 1.2945,-8.41426 c -3.2363,2.26538 -8.4143,3.23626 -13.5923,3.23626 -10.356,0 -18.4465,-5.82525 -18.4465,-21.03564 l 0,-110.35617 41.7476,0 2.589,-8.09063 z" />
  <path
     inkscape:connector-curvature="0"
     id="path3706"
     style="font-style:normal;font-variant:normal;font-weight:100;font-stretch:normal;font-size:medium;line-height:125%;font-family:Agenda;-inkscape-font-specification:'Agenda, Thin';text-align:start;letter-spacing:0px;word-spacing:0px;writing-mode:lr-tb;text-anchor:start;fill:#333333;fill-opacity:1;stroke:none;stroke-width:1px;stroke-linecap:butt;stroke-linejoin:miter;stroke-opacity:1"
     d="m 748.4445,327.0846 c -7.767,-1.94176 -16.8285,-8.41426 -16.8285,-23.62465 l 0,-84.14252 c 0,-24.5955 -18.4467,-38.18776 -42.0712,-38.18776 -13.9158,0 -24.5956,4.20712 -32.039,9.70875 l 2.589,7.767 c 6.4725,-5.178 17.4758,-9.38513 29.1263,-9.38513 18.7703,0 33.3335,10.35601 33.3335,30.74438 l 0,22.97739 -32.3626,3.23626 c -20.7119,1.94174 -39.4822,14.88675 -39.4822,44.66027 0,24.91913 15.2103,42.07126 37.8641,42.07126 16.8285,0 32.6862,-11.32688 35.2752,-25.24276 0.3236,15.21038 10.0324,22.97739 18.4465,25.24276 l 6.1489,-5.82525 z m -25.8899,-38.51139 c 0,22.97739 -17.7994,36.24602 -33.6571,36.24602 -16.5049,0 -29.1263,-12.94502 -29.1263,-33.65702 0,-24.27189 14.2395,-34.95152 31.7153,-36.89327 l 31.0681,-3.23625 0,37.54052 z" />
  <path
     inkscape:connector-curvature="0"
     id="path3712"
     style="font-style:normal;font-variant:normal;font-weight:100;font-stretch:normal;font-size:medium;line-height:125%;font-family:Agenda;-inkscape-font-specification:'Agenda, Thin';text-align:start;letter-spacing:0px;word-spacing:0px;writing-mode:lr-tb;text-anchor:start;fill:#333333;fill-opacity:1;stroke:none;stroke-width:1px;stroke-linecap:butt;stroke-linejoin:miter;stroke-opacity:1"
     d="m 1047.6154,296.66384 c 0,-21.03564 -12.2978,-33.65702 -34.628,-48.22015 -14.2395,-9.0615 -23.9481,-16.8285 -23.9481,-34.30427 0,-14.23949 10.0322,-23.62463 23.9481,-23.62463 10.0324,0 19.094,4.20714 24.272,8.41426 l 2.9126,-8.09063 c -4.8544,-3.8835 -15.534,-8.41426 -27.5082,-8.41426 -18.4465,0 -32.6861,11.6505 -32.6861,31.71526 0,20.71201 10.3561,31.06802 30.7445,44.01303 15.8575,10.03237 27.508,21.03562 27.508,38.51139 0,17.47575 -13.2686,26.86087 -28.8025,26.86087 -13.5923,0 -24.5956,-5.50161 -33.3335,-14.23949 l 1.9418,11.97412 c 7.1196,5.82526 16.8285,10.356 31.7152,10.356 21.0357,0 37.8642,-11.97412 37.8642,-34.9515 z" />
  <path
     style="color:#000000;font-style:normal;font-variant:normal;font-weight:normal;font-stretch:normal;font-size:medium;line-height:normal;font-family:sans-serif;text-indent:0;text-align:start;text-decoration:none;text-decoration-line:none;text-decoration-style:solid;text-decoration-color:#000000;letter-spacing:normal;word-spacing:normal;text-transform:none;direction:ltr;block-progression:tb;writing-mode:lr-tb;baseline-shift:baseline;text-anchor:start;white-space:normal;clip-rule:nonzero;display:inline;overflow:visible;visibility:visible;opacity:1;isolation:auto;mix-blend-mode:normal;color-interpolation:sRGB;color-interpolation-filters:linearRGB;solid-color:#000000;solid-opacity:1;fill:#333333;fill-opacity:1;fill-rule:evenodd;stroke:none;stroke-width:3;stroke-linecap:butt;stroke-linejoin:miter;stroke-miterlimit:4;stroke-dasharray:none;stroke-dashoffset:0;stroke-opacity:1;color-rendering:auto;image-rendering:auto;shape-rendering:auto;text-rendering:auto;enable-background:accumulate"
     d="m 231.36961,240.84194 -4.70534,1.03518 15.70635,71.45491 4.70534,-1.03517 -15.70635,-71.45492 z"
     id="path4660"
     inkscape:connector-curvature="0" />
  <path
     style="color:#000000;font-style:normal;font-variant:normal;font-weight:normal;font-stretch:normal;font-size:medium;line-height:normal;font-family:sans-serif;text-indent:0;text-align:start;text-decoration:none;text-decoration-line:none;text-decoration-style:solid;text-decoration-color:#000000;letter-spacing:normal;word-spacing:normal;text-transform:none;direction:ltr;block-progression:tb;writing-mode:lr-tb;baseline-shift:baseline;text-anchor:start;white-space:normal;clip-rule:nonzero;display:inline;overflow:visible;visibility:visible;opacity:1;isolation:auto;mix-blend-mode:normal;color-interpolation:sRGB;color-interpolation-filters:linearRGB;solid-color:#000000;solid-opacity:1;fill:#333333;fill-opacity:1;fill-rule:evenodd;stroke:none;stroke-width:3;stroke-linecap:butt;stroke-linejoin:miter;stroke-miterlimit:4;stroke-dasharray:none;stroke-dashoffset:0;stroke-opacity:1;color-rendering:auto;image-rendering:auto;shape-rendering:auto;text-rendering:auto;enable-background:accumulate"
     d="m 342.00096,291.59034 -63.91078,33.87827 2.25863,4.25674 63.90757,-33.87827 -2.25542,-4.25674 z"
     id="path4662"
     inkscape:connector-curvature="0" />
  <path
     style="color:#000000;font-style:normal;font-variant:normal;font-weight:normal;font-stretch:normal;font-size:medium;line-height:normal;font-family:sans-serif;text-indent:0;text-align:start;text-decoration:none;text-decoration-line:none;text-decoration-style:solid;text-decoration-color:#000000;letter-spacing:normal;word-spacing:normal;text-transform:none;direction:ltr;block-progression:tb;writing-mode:lr-tb;baseline-shift:baseline;text-anchor:start;white-space:normal;clip-rule:nonzero;display:inline;overflow:visible;visibility:visible;opacity:1;isolation:auto;mix-blend-mode:normal;color-interpolation:sRGB;color-interpolation-filters:linearRGB;solid-color:#000000;solid-opacity:1;fill:#333333;fill-opacity:1;fill-rule:evenodd;stroke:none;stroke-width:3;stroke-linecap:butt;stroke-linejoin:miter;stroke-miterlimit:4;stroke-dasharray:none;stroke-dashoffset:0;stroke-opacity:1;color-rendering:auto;image-rendering:auto;shape-rendering:auto;text-rendering:auto;enable-background:accumulate"
     d="m 257.09501,217.67297 -2.25847,4.25361 76.22604,40.50335 2.26169,-4.25674 -76.22926,-40.50022 z"
     id="path4664"
     inkscape:connector-curvature="0" />
  <path
     inkscape:connector-curvature="0"
     id="path4644"
     d="m 221.22496,116.31422 -3.03035,8.51348 -17.19936,48.30789 -60.203,1.60923 47.78719,36.7987 -17.07409,57.75303 49.76667,-34.07903 49.65038,34.08531 -17.03008,-57.85969 47.75891,-36.68891 -60.29389,-1.68137 -20.13238,-56.75864 z m -0.0161,19.18513 15.56517,43.87236 46.6234,1.3018 -36.9148,28.35736 13.17179,44.74442 -38.37971,-26.34663 -38.48636,26.35604 13.19685,-44.64404 -36.9556,-28.45774 46.53555,-1.24534 15.64371,-43.93823 z"
     style="color:#000000;font-style:normal;font-variant:normal;font-weight:normal;font-stretch:normal;font-size:medium;line-height:normal;font-family:sans-serif;text-indent:0;text-align:start;text-decoration:none;text-decoration-line:none;text-decoration-style:solid;text-decoration-color:#000000;letter-spacing:normal;word-spacing:normal;text-transform:none;direction:ltr;block-progression:tb;writing-mode:lr-tb;baseline-shift:baseline;text-anchor:start;white-space:normal;clip-rule:nonzero;display:inline;overflow:visible;visibility:visible;opacity:1;isolation:auto;mix-blend-mode:normal;color-interpolation:sRGB;color-interpolation-filters:linearRGB;solid-color:#000000;solid-opacity:1;fill:#333333;fill-opacity:1;fill-rule:nonzero;stroke:none;stroke-width:4;stroke-linecap:butt;stroke-linejoin:miter;stroke-miterlimit:4;stroke-dasharray:none;stroke-dashoffset:0;stroke-opacity:1;color-rendering:auto;image-rendering:auto;shape-rendering:auto;text-rendering:auto;enable-background:accumulate" />
  <path
     inkscape:connector-curvature="0"
     id="path4646"
     d="m 251.27939,294.75231 -3.03035,8.51663 -8.56668,24.05983 -34.52142,0.92224 27.39749,21.09864 -9.79019,33.11287 28.53299,-19.53646 28.46714,19.54274 -9.76192,-33.16934 27.38176,-21.03589 -34.56511,-0.96617 -11.54371,-32.54509 z m -0.0161,19.18513 6.97328,19.65882 20.89784,0.58346 -16.54391,12.70748 5.90363,20.05406 -17.19631,-11.80407 -17.24979,11.81033 5.91311,-20.00071 -16.56592,-12.75768 20.85399,-0.55524 7.01408,-19.69645 z"
     style="color:#000000;font-style:normal;font-variant:normal;font-weight:normal;font-stretch:normal;font-size:medium;line-height:normal;font-family:sans-serif;text-indent:0;text-align:start;text-decoration:none;text-decoration-line:none;text-decoration-style:solid;text-decoration-color:#000000;letter-spacing:normal;word-spacing:normal;text-transform:none;direction:ltr;block-progression:tb;writing-mode:lr-tb;baseline-shift:baseline;text-anchor:start;white-space:normal;clip-rule:nonzero;display:inline;overflow:visible;visibility:visible;opacity:1;isolation:auto;mix-blend-mode:normal;color-interpolation:sRGB;color-interpolation-filters:linearRGB;solid-color:#000000;solid-opacity:1;fill:#333333;fill-opacity:1;fill-rule:nonzero;stroke:none;stroke-width:4;stroke-linecap:butt;stroke-linejoin:miter;stroke-miterlimit:4;stroke-dasharray:none;stroke-dashoffset:0;stroke-opacity:1;color-rendering:auto;image-rendering:auto;shape-rendering:auto;text-rendering:auto;enable-background:accumulate" />
  <path
     inkscape:connector-curvature="0"
     id="path4648"
     d="m 368.66431,218.80225 -3.03019,8.51662 -11.51544,32.33807 -43.28581,1.1575 34.35825,26.45955 -12.27769,41.52598 35.78236,-24.50214 35.70077,24.50842 -12.24637,-41.60127 34.34248,-26.38113 -43.34842,-1.20769 -14.47994,-40.81391 z m -0.0161,19.18514 9.90631,27.92761 29.68101,0.82814 -23.49825,18.04959 8.38487,28.48598 -24.42688,-16.76975 -24.50221,16.77601 8.4006,-28.41382 -23.52651,-18.1186 29.62143,-0.79049 9.95963,-27.97467 z"
     style="color:#000000;font-style:normal;font-variant:normal;font-weight:normal;font-stretch:normal;font-size:medium;line-height:normal;font-family:sans-serif;text-indent:0;text-align:start;text-decoration:none;text-decoration-line:none;text-decoration-style:solid;text-decoration-color:#000000;letter-spacing:normal;word-spacing:normal;text-transform:none;direction:ltr;block-progression:tb;writing-mode:lr-tb;baseline-shift:baseline;text-anchor:start;white-space:normal;clip-rule:nonzero;display:inline;overflow:visible;visibility:visible;opacity:1;isolation:auto;mix-blend-mode:normal;color-interpolation:sRGB;color-interpolation-filters:linearRGB;solid-color:#000000;solid-opacity:1;fill:#333333;fill-opacity:1;fill-rule:nonzero;stroke:none;stroke-width:4;stroke-linecap:butt;stroke-linejoin:miter;stroke-miterlimit:4;stroke-dasharray:none;stroke-dashoffset:0;stroke-opacity:1;color-rendering:auto;image-rendering:auto;shape-rendering:auto;text-rendering:auto;enable-background:accumulate" />
</svg>
