<?xml version="1.0" encoding="UTF-8" standalone="no"?>
<!-- Created with Inkscape (http://www.inkscape.org/) -->

<svg
   xmlns:dc="http://purl.org/dc/elements/1.1/"
   xmlns:cc="http://creativecommons.org/ns#"
   xmlns:rdf="http://www.w3.org/1999/02/22-rdf-syntax-ns#"
   xmlns:svg="http://www.w3.org/2000/svg"
   xmlns="http://www.w3.org/2000/svg"
   xmlns:sodipodi="http://sodipodi.sourceforge.net/DTD/sodipodi-0.dtd"
   xmlns:inkscape="http://www.inkscape.org/namespaces/inkscape"
   width="512"
   height="512"
   viewBox="0 0 512.00001 512.00001"
   id="svg5363"
   version="1.1"
   inkscape:version="0.91 r13725"
   sodipodi:docname="dave.svg">
  <defs
     id="defs5365" />
  <sodipodi:namedview
     id="base"
     pagecolor="#47a0f2"
     bordercolor="#666666"
     borderopacity="1.0"
     inkscape:pageopacity="0"
     inkscape:pageshadow="2"
     inkscape:zoom="0.9899495"
     inkscape:cx="435.60483"
     inkscape:cy="129.68429"
     inkscape:document-units="px"
     inkscape:current-layer="layer1"
     showgrid="false"
     units="px"
     fit-margin-top="6"
     fit-margin-left="6"
     fit-margin-right="6"
     fit-margin-bottom="6"
     inkscape:window-width="1920"
     inkscape:window-height="1135"
     inkscape:window-x="0"
     inkscape:window-y="0"
     inkscape:window-maximized="1"
     showguides="true"
     inkscape:guide-bbox="true">
    <sodipodi:guide
       position="442.44682,248.49753"
       orientation="0,1"
       id="guide5952" />
    <sodipodi:guide
       position="377.79706,459.61942"
       orientation="0,1"
       id="guide5954" />
    <sodipodi:guide
       position="410.12194,125.25892"
       orientation="0,1"
       id="guide5956" />
    <sodipodi:guide
       position="454.56865,26.263967"
       orientation="0,1"
       id="guide5958" />
    <sodipodi:guide
       position="251.52799,248.49753"
       orientation="1,0"
       id="guide5977" />
  </sodipodi:namedview>
  <metadata
     id="metadata5368">
    <rdf:RDF>
      <cc:Work
         rdf:about="">
        <dc:format>image/svg+xml</dc:format>
        <dc:type
           rdf:resource="http://purl.org/dc/dcmitype/StillImage" />
        <dc:title />
      </cc:Work>
    </rdf:RDF>
  </metadata>
  <g
     inkscape:label="Ebene 1"
     inkscape:groupmode="layer"
     id="layer1"
     transform="translate(782.11424,23.969541)">
    <g
       id="g9731"
       transform="matrix(1.0540436,0,0,1.0540436,14.844552,-27.403477)">
      <path
         sodipodi:nodetypes="ccccccccccccccccccccccccccccc"
         inkscape:connector-curvature="0"
         id="path4387"
         d="m -514.50118,3.4937873 c -14.20214,-0.074551 -9.76543,17.4348567 -19.24235,2.4119094 -24.56733,-1.8846479 -46.54923,13.5938053 -68.28885,23.1790063 -28.09582,6.351927 -28.18193,39.479385 -49.34266,48.921262 -12.82593,25.335015 -32.0651,49.047995 -34.05543,78.456855 -4.41341,46.43256 10.09886,93.70439 38.464,130.5169 8.73626,28.97534 8.6002,60.54468 22.62044,88.13356 5.84572,16.81776 27.81924,42.04674 -4.40149,40.65468 -43.38623,9.05664 -81.40367,32.22446 -118.72834,55.01375 2.5502,9.16902 2.58636,21.62201 15.41508,17.36385 190.83476,0.004 269.0377,0.007 459.87246,0.011 1.65777,-26.39007 1.94547,-53.26072 1.81109,-80.63725 -8.21724,-15.26405 -22.40023,-26.36537 -28.63613,-40.27264 -9.31663,-16.5039 -25.83973,-27.65561 -39.20876,-30.57838 -12.50275,-10.98527 18.58835,-26.5433 13.531,-45.51037 -1.19095,-25.81643 5.68805,-47.75919 1.68671,-74.48254 3.89697,-29.78944 12.52754,-61.40407 -5.86492,-88.57509 -9.17294,-22.32801 -24.72464,-41.428151 -32.53496,-63.986335 -8.72657,-3.066466 -4.23319,26.275481 -4.31129,1.989579 5.64892,-14.064409 -21.57448,-50.707875 -36.13409,-26.858096 8.54521,-21.841004 -22.67598,-19.799799 -27.48414,-10.48354 -7.94713,-20.581652 -28.56774,-6.429087 -41.2509,-7.785542 -11.5157,19.344666 -20.99616,0.378346 -30.6054,-9.105093 -8.25242,1.263639 -1.96889,-10.3983655 -13.3107,-8.3774757 z m -12.23139,11.3203747 c 3.77694,3.22731 -4.33644,3.630817 0,0 z m -119.36165,58.751735 z"
         style="color:#000000;font-style:normal;font-variant:normal;font-weight:normal;font-stretch:normal;font-size:medium;line-height:normal;font-family:sans-serif;text-indent:0;text-align:start;text-decoration:none;text-decoration-line:none;text-decoration-style:solid;text-decoration-color:#000000;letter-spacing:normal;word-spacing:normal;text-transform:none;direction:ltr;block-progression:tb;writing-mode:lr-tb;baseline-shift:baseline;text-anchor:start;white-space:normal;clip-rule:nonzero;display:inline;overflow:visible;visibility:visible;opacity:1;isolation:auto;mix-blend-mode:normal;color-interpolation:sRGB;color-interpolation-filters:linearRGB;solid-color:#000000;solid-opacity:1;fill:#ffffff;fill-opacity:1;fill-rule:nonzero;stroke:none;stroke-width:1;stroke-linecap:round;stroke-linejoin:bevel;stroke-miterlimit:4;stroke-dasharray:none;stroke-dashoffset:0;stroke-opacity:1;color-rendering:auto;image-rendering:auto;shape-rendering:auto;text-rendering:auto;enable-background:accumulate" />
      <path
         id="path4480"
         transform="translate(-782.11424,-23.969541)"
         d="m 267.33984,35.705078 c -0.6691,-0.01864 -1.42907,0.09357 -2.125,0.375 -1.54134,0.611318 -1.07006,1.073273 1.17578,1.175781 2.03319,0.07455 3.1643,-0.384162 2.5254,-1.023437 -0.32057,-0.316841 -0.90708,-0.499387 -1.57618,-0.527344 z M 241.5332,37.40625 c -12.6608,0 -71.75247,27.81036 -78.84375,37.107422 -4.39814,5.765583 -16.6289,38.112268 -16.6289,43.986328 0,1.44629 1.99603,0.58269 4.82617,-2.07617 2.6501,-2.48982 4.82617,-6.05483 4.82617,-7.92774 0,-1.87253 0.85351,-3.92637 1.90039,-4.57421 1.04558,-0.64673 3.28332,-5.931482 4.97656,-11.753911 5.62766,-19.358271 19.31568,-28.961785 62.99024,-44.134766 20.19566,-7.016362 25.62834,-10.626953 15.95312,-10.626953 z m 33.6836,6.025391 c -1.22263,0 -2.44899,0.112999 -3.37696,0.351562 -1.85445,0.486444 -0.33251,0.898438 3.37696,0.898438 3.70854,0 5.23094,-0.413857 3.375,-0.898438 -0.92816,-0.240427 -2.15236,-0.351562 -3.375,-0.351562 z m 5.65039,5.460937 c -2.43064,0.133484 -6.67622,2.641065 -10.85157,6.816406 -4.16031,4.160129 -8.61704,6.751954 -11.6289,6.751954 -6.97834,0 -19.80469,4.13241 -19.80469,6.376953 0,3.029191 26.49102,-0.20891 35.43359,-4.326172 6.90342,-3.180343 7.31635,-3.680422 3.12696,-3.875 l -4.82617,-0.226563 5.30078,-3.951172 c 2.91513,-2.17521 5.30078,-4.753672 5.30078,-5.726562 0,-0.976617 -0.40931,-1.53753 -1.125,-1.75 -0.26762,-0.07991 -0.57855,-0.108913 -0.92578,-0.08984 z m -20.10352,0.08984 -9.65234,1.101562 c -17.00563,1.943915 -26.00586,4.849486 -26.00586,8.375 0,1.781768 -1.05377,4.281455 -2.32617,5.552735 -4.70323,4.703233 3.27642,2.225437 20.6289,-6.402344 l 17.35547,-8.626953 z m 72.39063,0.144531 0,0.0059 c -4.91663,0.149102 -4.91541,0.168016 0.84961,2.800782 8.03585,3.676666 12.76096,3.605261 7.82812,-0.13086 -2.05761,-1.556251 -5.96538,-2.778102 -8.67773,-2.675781 z m -18.42969,3.755859 c -1.06235,0 -0.61324,0.849455 0.97656,1.876954 1.5898,1.028803 3.74085,1.875 4.80078,1.875 1.06235,0 0.63863,-0.847688 -0.95117,-1.875 -1.5898,-1.028803 -3.76606,-1.876953 -4.82617,-1.876954 z m 52.03711,0 c -1.06236,0 -0.61324,0.849455 0.97656,1.876954 1.5898,1.028803 3.76411,1.875 4.82422,1.875 1.06049,0 0.61519,-0.847688 -0.97461,-1.875 -1.5898,-1.028803 -3.76606,-1.876953 -4.82617,-1.876954 z m -21.0293,6.427735 c -1.83768,0.01864 -1.9084,1.220641 0.75196,4.050781 2.45906,2.617484 5.16004,4.334752 6.02539,3.800781 1.65317,-1.021348 15.17759,6.973982 15.20312,9.001953 0.0129,0.648595 -2.1505,0.782337 -4.80078,0.275391 -2.6501,-0.505083 -4.80078,-0.412712 -4.80078,0.226563 0,1.727718 13.33706,7.056003 22.15625,8.851562 12.02059,2.449185 12.09569,2.319151 2.90039,-6.052734 -10.58306,-9.635337 -31.92075,-20.229966 -37.43359,-20.154297 l -0.002,0 z m -52.83594,0.574219 c -4.71963,-0.05591 -8.9391,0.636547 -9.45312,2.099609 -0.62437,1.779904 2.60593,2.375329 12.32812,2.349609 10.25914,-0.05591 12.40123,-0.527001 9.65235,-2.125 -2.57462,-1.49661 -7.80772,-2.272964 -12.52735,-2.324218 z m 25.55469,1.222656 c -1.66994,0.111826 0.91077,1.667461 9.22656,6.052734 7.11551,3.752708 13.76508,8.412679 14.80469,10.351563 1.97523,3.691203 29.19103,27.603095 49.21094,43.234375 10.16315,7.9352 16.5293,11.15067 16.5293,8.35352 0,-5.40606 -78.057,-66.319114 -86.7461,-67.691411 -1.44443,-0.229244 -2.46868,-0.341784 -3.02539,-0.300781 z m 73.91602,1.701172 c -0.34931,-0.01822 -0.61405,0.05592 -0.82422,0.27539 -1.53202,1.532022 8.47018,16.253903 12.62695,18.580078 4.70305,2.63165 4.85028,0.851678 0.47656,-6.226562 -4.25695,-6.8878 -9.82371,-12.4672 -12.27734,-12.628906 l -0.002,0 z m -185.95703,4.289062 c -1.0826,0.05057 -2.98241,1.479941 -6.06055,4.488282 -4.02221,3.931257 -5.35719,6.300781 -3.57617,6.300781 4.30718,0 11.49317,-6.551294 10.70312,-9.751953 -0.13026,-0.513569 -0.32518,-0.845562 -0.65039,-0.97461 l -0.002,0 c -0.12189,-0.04798 -0.26012,-0.06969 -0.41406,-0.0625 z m 106.11132,1.552735 c -1.72284,0.0114 -2.6088,0.693424 -2.04687,2.158203 0.87783,2.289459 -1.11113,4.5061 -7.37695,8.177734 -8.83951,5.180545 -10.40436,7.482819 -6.20118,9.177734 4.2783,1.723991 12.75197,1.332665 13.97852,-0.65039 0.65605,-1.058623 0.27424,-1.925781 -0.84961,-1.925781 -8.68966,0 3.87203,-6.650056 15.30273,-8.101563 l 4.82618,-0.625 -4.82618,-3.201172 c -3.79613,-2.536595 -7.87796,-4.236058 -10.82812,-4.800781 -0.73759,-0.141181 -1.40423,-0.212785 -1.97852,-0.208984 z m -32.8125,0.373047 c -1.23816,-0.09109 -4.0444,0.586577 -8.29296,2.085937 -4.53922,1.600981 -9.86617,2.925781 -11.85352,2.925781 -1.98641,0 -3.625,0.977002 -3.625,2.175782 0,3.086409 14.33813,0.89712 20.47852,-3.126954 3.45544,-2.264112 4.62695,-3.620492 3.72656,-3.974609 -0.11253,-0.04426 -0.25672,-0.07292 -0.4336,-0.08594 z m 103.45704,1.261718 c -0.46594,0 -0.94667,0.167546 -1.30079,0.525391 -0.70637,0.70637 -0.11195,1.300781 1.30079,1.300781 1.41833,0 1.98512,-0.590684 1.27539,-1.300781 -0.35411,-0.354117 -0.81131,-0.525391 -1.27539,-0.525391 z m -151.91407,0.675782 c -1.25321,0.01897 -3.46299,1.38191 -6.89648,4 -3.73183,2.846541 -13.30015,7.610066 -21.25586,10.578124 -7.95626,2.968061 -17.97235,8.160108 -22.25586,11.552735 -4.28388,3.392257 -7.77539,5.401137 -7.77539,4.451177 0,-2.62979 9.81087,-11.274846 16.85352,-14.82813 3.44518,-1.738901 6.27539,-3.498232 6.27539,-3.925782 0,-1.688579 -12.80982,2.999193 -17.35352,6.351563 -5.64406,4.163856 -13.50195,15.159789 -13.50195,18.904299 0,3.97879 2.5309,3.19078 11.57617,-3.65039 4.55525,-3.44537 9.80184,-7.406957 11.67773,-8.802737 1.87588,-1.395966 10.44741,-3.775515 19.05469,-5.277344 19.33292,-3.374921 22.58234,-5.050299 24.23047,-12.552734 0.90579,-4.117821 0.97541,-6.307214 -0.14844,-6.726563 l -0.002,0 c -0.14072,-0.05242 -0.29949,-0.07693 -0.47852,-0.07422 z m 67.80664,3.648437 c -5.34297,-0.338516 -37.97124,7.209718 -40.2207,9.503906 -3.38238,3.450591 23.49128,0.0037 33.10742,-4.25 4.90676,-2.170364 8.42309,-4.453858 7.80078,-5.076172 -0.0966,-0.09657 -0.3313,-0.155166 -0.6875,-0.177734 z m 21.01758,10.830078 c -0.76787,-0.07455 -1.69476,0.786829 -2.07422,1.925781 -0.40817,1.220772 2.13181,2.074219 6.20117,2.074219 3.79875,0 6.9004,-0.863155 6.9004,-1.923828 0,-1.058624 -2.15069,-1.925781 -4.80079,-1.925781 -2.65028,0 -5.45719,-0.09448 -6.22656,-0.150391 z m -34.60937,4.195313 c -0.81508,0.03937 -1.81255,0.168389 -3.02344,0.380859 -29.12277,5.095557 -40.93147,7.423651 -41.68555,8.177734 -1.61962,1.619619 10.30402,0.896161 17.00391,-1.02539 9.08235,-2.60481 9.3561,-1.272056 0.82617,4.000005 -4.9267,3.04373 -7.45172,3.72714 -7.97656,2.15039 -0.50881,-1.53016 -6.39708,-2.39213 -17.47852,-2.52539 -14.91932,-0.18824 -15.80545,-0.39107 -8.25195,-1.875005 19.13798,-3.759605 11.50073,-7.618827 -10.87891,-5.501953 -20.31662,1.921923 -25.09296,3.830138 -27.63086,11.103518 -1.00271,2.87506 -4.93288,6.85004 -8.90234,9.00195 -8.29547,4.49748 -42.68814,45.31055 -38.18359,45.31055 4.03526,0 3.81226,0.78214 -3.32618,11.37695 -7.76169,11.52278 -7.9463,37.41158 -0.32421,47.73633 7.05308,9.55352 8.06629,38.54915 1.15039,32.9336 -2.47994,-2.01213 -2.80529,-1.91828 -1.92578,0.47461 3.80676,10.35289 7.43649,25.93542 6.57617,28.18164 -0.58522,1.5227 0.18675,2.65039 1.80078,2.65039 1.72771,0 2.96085,2.06434 3.15039,5.30078 0.25534,4.34073 0.45599,4.07501 1.12695,-1.44922 0.45103,-3.71058 -0.13103,-19.01096 -1.27539,-34.00781 -5.50726,-71.74988 6.01829,-115.72157 36.0586,-137.48242 4.45534,-3.22769 8.10156,-7.26301 8.10156,-8.97657 0,-2.68215 0.46557,-2.75521 3.27539,-0.47656 1.847,1.49661 2.67125,1.661 1.90039,0.375 -2.47248,-4.12546 6.92534,-3.71236 21.80664,0.95117 17.44679,5.46664 26.50636,4.76545 48.78516,-3.82617 l 15.27929,-5.900395 9.40235,4.400395 c 11.26315,5.27523 14.33707,4.00433 4.70117,-1.951176 -3.76594,-2.327294 -6.82813,-5.583832 -6.82813,-7.226562 0,-1.155539 -0.36438,-1.83537 -1.32422,-2.125 l -0.002,0 c -0.47992,-0.144443 -1.11266,-0.195623 -1.92773,-0.15625 z m 40.06054,1.730468 c -2.16571,0 -4.54772,9.18825 -3.02539,11.65235 2.43055,3.93275 4.75196,1.53634 4.75196,-4.900396 0,-3.710214 -0.7835,-6.751954 -1.72657,-6.751954 z m 89.47071,3.201172 c -0.57964,-0.111827 -0.75508,1.556488 -0.25,5.476568 0.54981,4.26748 8.26575,22.01021 17.30468,39.75781 19.13294,37.56659 20.07844,41.79452 15.60352,70.26758 -3.47687,22.1256 -3.03909,46.87022 1.09961,61.21289 3.25545,11.27658 3.76161,7.81916 1.82422,-12.65234 -1.45561,-15.39384 -1.12643,-22.56606 1.97656,-41.38477 4.88831,-29.63232 4.77633,-34.19941 -1.20117,-46.86133 -2.75298,-5.831 -6.61511,-15.1581 -8.57617,-20.7539 -1.96088,-5.5956 -7.44492,-15.13943 -12.20313,-21.20508 -5.604,-7.14404 -9.40803,-14.37228 -10.77734,-20.50391 -1.7855,-8.002673 -3.83516,-13.159686 -4.80078,-13.353518 z m -77.79297,2.59961 c -5.71936,0 -8.07543,3.127698 -4.80078,6.402348 2.07885,2.07867 3.67698,1.53741 7.37695,-2.55078 3.41853,-3.791108 3.38306,-3.851568 -2.57617,-3.851568 z m 59.38867,0 c -0.38953,-0.01081 -0.71066,0.112999 -0.94922,0.351562 -0.3653,0.365299 3.41596,5.942506 8.37695,12.402346 10.07109,13.11351 13.01713,12.98424 5.2754,-0.22656 -3.88523,-6.62944 -9.97252,-12.451865 -12.70313,-12.527348 z m -14.97656,1.005859 c -0.0679,-0.0039 -0.11735,0.01188 -0.15039,0.04492 -0.52932,0.527448 3.2798,5.274619 8.47656,10.550779 5.19694,5.27653 10.31441,9.60351 11.37695,9.60351 1.06421,0 -2.74433,-4.77377 -8.47656,-10.57812 -5.37412,-5.44158 -10.20776,-9.562927 -11.22656,-9.621091 z m -238.20117,3.333989 c -2.13661,-0.0824 -8.4987,8.67603 -13.0586,18.74023 -3.12275,6.89336 -9.00652,17.74459 -13.07812,24.10547 -21.486713,33.56619 -13.09739,106.32697 16.97851,147.23438 11.04528,15.02351 12.62296,19.49645 16.6543,47.06054 3.90983,26.73154 8.35629,40.89584 22.35547,71.44141 13.4147,29.26964 13.43166,29.46787 4.12695,31.85742 -60.18982,15.45571 -69.37573,18.97627 -105.099608,40.33399 -11.82993,7.07246 -24.277524,14.3871 -32.958984,19.45508 l 12.503906,0 c 39.74665,-25.30595 94.169466,-49.92058 131.205076,-56.03711 15.75466,-2.60183 15.66751,-1.85311 3,-24.78125 -19.97816,-36.15796 -25.73681,-53.28419 -31.23047,-92.67188 -3.25322,-23.32215 -4.27519,-26.02353 -14.0039,-37.4082 -34.44086,-40.30243 -39.42056,-103.87002 -12.20313,-155.78711 8.54391,-16.29795 15.5293,-30.74515 15.5293,-32.13086 0,-0.65978 -0.113,-1.07783 -0.35156,-1.27539 -0.10309,-0.0863 -0.2267,-0.13123 -0.36914,-0.13672 z m 208.29492,2.13086 c -0.31308,0.0142 -0.63237,0.042 -0.95313,0.082 l 0.002,-0.002 c -3.84944,0.47899 -8.07813,2.81653 -8.07813,5.07617 0,2.10103 4.63693,2.3768 11.07813,0.65039 5.34493,-1.43138 5.58828,-3.92553 0.54882,-5.52539 -0.7674,-0.24322 -1.65842,-0.32371 -2.59765,-0.28125 z m -71.84375,1.23047 c -8.35791,0 -22.00391,4.26487 -22.00391,6.87695 0,1.30837 23.22789,-0.52987 29.43164,-2.32617 6.03248,-1.74636 1.44886,-4.55078 -7.42773,-4.55078 z m -61.51367,5.77539 c -2.87133,0 -4.53129,0.82783 -3.85157,1.92578 0.65419,1.05862 2.38683,1.92578 3.85157,1.92578 1.46493,0 3.19412,-0.86511 3.8496,-1.92578 0.67841,-1.0959 -0.97715,-1.92578 -3.8496,-1.92578 z m 118.12695,0.80469 c -3.11298,0.0824 -4.0703,3.00607 -1.875,7.82421 2.73266,5.99669 5.03049,6.13628 8.92578,0.57422 2.82921,-4.03898 2.7181,-4.44258 -2.02539,-6.92773 -1.68485,-0.88343 -3.16765,-1.34299 -4.375,-1.44922 -0.2264,-0.02 -0.44286,-0.027 -0.65039,-0.0215 z m -44.88477,1.12109 c -3.75178,0 -3.64752,2.80571 0.29883,8.82812 3.64275,5.55889 10.83687,5.71282 11.87891,0.24805 0.53863,-2.83033 -0.218,-3.22597 -4.30078,-2.19922 -4.17094,1.04558 -4.97657,0.58081 -4.97657,-2.82617 0,-2.32785 -1.24462,-4.05078 -2.90039,-4.05078 z m -100.88867,2.16797 c -0.0976,0.008 -0.14189,0.0422 -0.13476,0.10742 0.0186,0.26093 0.8881,1.00629 2.59961,2.40039 4.1577,3.38666 15.62451,4.10159 17.48046,1.09961 0.71755,-1.16113 -1.85626,-1.92383 -6.47656,-1.92383 -4.21641,0 -9.26144,-0.48083 -11.20312,-1.09961 -1.21053,-0.3858 -1.97278,-0.60757 -2.26563,-0.58398 z m 82.13867,2.21679 c -1.24358,0.005 -2.7982,0.0659 -4.68164,0.19727 -6.52377,0.44358 -13.44464,1.7981 -15.40234,3.02539 -2.81989,1.76686 -1.20456,1.98584 7.82617,1.00195 12.40043,-1.35123 18.93931,-3.51219 15.07813,-4.07617 l 0,-0.006 c -0.64393,-0.0941 -1.57674,-0.14723 -2.82032,-0.14258 z m -116.85742,1.39063 c -2.58114,0 -13.77734,9.52815 -13.77734,11.72852 0,2.85717 2.34919,2.03909 7.35156,-2.57618 l 4.70117,-4.32617 -1.30078,4.82617 c -0.89834,3.34678 -0.74314,3.93306 0.5,1.92579 3.10412,-5.02307 4.53183,-11.57813 2.52734,-11.57813 l -0.002,0 z m 208.09766,0.19922 c -7.71584,0.0127 -18.18058,1.60366 -20.05274,3.47656 -4.56065,4.56066 0.80247,11.94733 15.55274,21.4043 16.81609,10.78174 15.85351,10.33172 15.85351,7.50195 0,-1.16486 -2.72469,-4.67043 -6.05078,-7.77734 -3.32497,-3.10654 -5.50705,-6.17068 -4.85156,-6.82617 0.65419,-0.65419 -3.33241,-3.32866 -8.87695,-5.95118 -11.79899,-5.58069 -9.25444,-7.9647 3.77539,-3.52539 10.0202,3.41444 14.07812,3.83853 14.07812,1.47266 0,-0.87411 -3.25113,-2.57456 -7.22656,-3.77539 l -7.22656,-2.17578 8.20312,0.90039 c 8.97723,0.99152 11.36237,-2.12656 3.19922,-4.17578 -1.53761,-0.3858 -3.80495,-0.55442 -6.37695,-0.54883 z m -83.9668,3.0625 c -4.10563,0.0794 -8.98015,1.30079 -10.05469,3.03906 -0.80142,1.29905 0.40951,1.57495 3.40235,0.77539 2.55114,-0.68214 6.80107,-1.27469 9.45117,-1.30078 3.20327,-0.0373 4.00636,-0.5653 2.375,-1.60156 -0.77906,-0.49577 -2.02944,-0.77436 -3.47461,-0.875 l 0,0.002 c -0.54187,-0.037 -1.1127,-0.0504 -1.69922,-0.0391 z m -53.43945,1.80664 0,0.008 c -2.47025,0.007 -2.14445,2.10255 1.80078,4.40039 l 0,0.0195 c 4.36161,2.5325 13.39552,2.62912 14.92773,0.14844 0.67282,-1.08658 -0.88596,-1.94922 -3.59961,-1.94922 -2.64358,0 -7.0327,-0.842 -9.75195,-1.87695 -1.41274,-0.53863 -2.55354,-0.75186 -3.37695,-0.75 z m 89.07226,0.70703 -0.002,0.002 c -4.32116,0 -8.3927,9.63108 -6.15039,14.55274 3.08603,6.77333 5.43924,5.85508 4.55078,-1.77539 -0.41935,-3.58516 0.19043,-7.10872 1.35156,-7.82813 2.61898,-1.61962 2.79573,-4.95117 0.25,-4.95117 z m 71.92188,2.72852 c -0.18519,-0.002 -0.33761,0.0324 -0.45703,0.0996 -0.95425,0.53863 0.24046,3.27092 4.20117,7.875 2.61823,3.0441 8.28691,6.14869 13.97851,7.67773 11.46593,3.07653 18.22852,3.48641 18.22852,1.07617 0,-2.20335 -17.35721,-9.01107 -20.92969,-8.20312 -1.44256,0.32429 -4.48504,-1.06493 -6.75195,-3.09961 -4.09234,-3.67567 -6.9732,-5.4103 -8.26953,-5.42578 z m -129.47071,1.18359 c -0.19613,0.01 -0.40975,0.032 -0.64062,0.0664 l 0,-0.002 c -1.84514,0.27584 -4.72354,1.32 -7.40234,2.95118 l -4.82618,2.95117 5.77735,-1.22461 c 3.18071,-0.66537 6.62201,-2.01556 7.62695,-3 1.29975,-1.2704 0.83778,-1.81117 -0.53516,-1.74219 z m 29.01563,2.16406 0,0.002 c -1.36055,0.0186 -2.94637,0.14949 -4.82617,0.375 -12.51431,1.4817 -15.65185,3.83678 -7.17578,5.34961 3.71059,0.66164 11.07795,1.2614 16.3789,1.37695 l 9.65235,0.19922 -4.82617,-4.00196 c -2.94775,-2.45049 -5.1237,-3.37217 -9.20313,-3.30078 z m -28.73047,5.94141 c -0.10961,-0.002 -0.20066,0.0187 -0.27148,0.0625 l -0.004,0 c -0.28143,0.16774 -0.25655,0.72774 0.0547,1.64844 0.48831,1.47238 3.4092,3.20748 6.50195,3.87695 3.09293,0.66909 9.97836,1.20667 15.2793,1.19922 9.37534,-0.0129 9.27136,-0.0556 -3.90235,-2.27539 -7.44839,-1.24687 -14.71705,-2.98784 -16.15234,-3.875 -0.67375,-0.41655 -1.17702,-0.63008 -1.50586,-0.63672 z m 119.02734,3.41211 c -3.14996,0 -2.6014,1.35416 4.20118,10.60351 6.97462,9.48382 9.15039,10.60557 9.15039,4.67578 0,-4.15881 -9.71796,-15.27929 -13.35157,-15.27929 z m 13.95899,0.72265 c -2.62009,0.0706 7.29565,6.89935 20.99805,13.95508 8.78658,4.52449 17.70984,8.26486 19.83007,8.27735 2.56288,0.0186 1.17064,-1.42126 -4.17578,-4.25196 -4.42478,-2.34164 -12.50689,-6.66001 -17.95507,-9.62695 -5.44782,-2.96657 -12.22916,-6.27989 -15.07813,-7.35156 -1.30091,-0.48831 -2.26601,-0.79345 -2.92578,-0.92578 -0.2887,-0.0573 -0.51869,-0.0809 -0.69336,-0.0762 z m -149.74023,0.4004 c -7.29351,0.0932 -13.33892,2.18902 -11.67774,4.87695 0.57964,0.93934 9.45485,1.67798 19.72852,1.60156 19.85162,-0.13046 19.67512,-1.98609 -0.57422,-5.85156 -2.46894,-0.47153 -5.04546,-0.65668 -7.47656,-0.625 l 0,-0.002 z M 358.51172,147.25 c -2.12675,0 -0.74586,2.45563 4.40039,7.72656 8.06194,8.25596 8.67578,8.66963 8.67578,5.92578 0,-3.27968 -9.92882,-13.65234 -13.07617,-13.65234 z m -64.56641,2.02539 c -0.92257,0 -1.17866,0.6307 -0.42383,1.84961 0.65604,1.06048 2.65916,1.91306 4.45118,1.90039 2.80945,-0.0186 2.86509,-0.28897 0.37304,-1.90039 -1.88782,-1.22077 -3.47913,-1.84961 -4.40039,-1.84961 z m 105.44922,7.62695 c -0.53117,0 -0.0373,1.73012 1.09961,3.84961 1.13504,2.12097 2.49664,3.85157 3.02539,3.85157 0.52931,0 0.0373,-1.73209 -1.09961,-3.85157 -1.13503,-2.12079 -2.49533,-3.84961 -3.02539,-3.84961 z m -19.04101,0.36328 c -0.10695,0.008 -0.1963,0.0438 -0.26368,0.11133 -0.56845,0.56845 1.72027,4.18029 5.07618,8.00196 6.59478,7.51194 8.93014,8.95129 5.80273,3.57617 -3.18373,-5.47059 -9.01104,-11.8089 -10.61523,-11.68946 z m -236.95704,7.5254 c 0.41846,-0.0807 0.71229,1.08586 0.68946,2.86328 -0.0746,4.56662 -9.08379,41.17598 -9.37696,38.13281 -0.29075,-3.02342 7.34456,-39.7241 8.50196,-40.88281 0.0643,-0.0643 0.12577,-0.10176 0.18554,-0.11328 z m 276.125,0.49218 c -1.01689,-0.0207 -1.902,0.0274 -2.64648,0.13086 l 0,-0.01 c -4.46634,0.62064 -3.97247,3.26382 3.05078,5.22656 6.87062,1.91484 12.02105,1.85236 15.22656,-0.16797 3.53725,-2.2369 1.48508,-3.06345 -12.20117,-4.90039 -1.26438,-0.1696 -2.41279,-0.25856 -3.42969,-0.2793 z m -58.4375,0.33985 c -1.30526,0.042 -1.10649,2.61022 0.002,8.98437 l 1.44922,8.30274 2.70117,-6.45313 c 2.42905,-5.84125 2.34811,-6.71827 -0.77539,-9.00195 -1.163,-0.85175 -2.05887,-1.45134 -2.72461,-1.69922 -0.24963,-0.0934 -0.46588,-0.13881 -0.65235,-0.13281 z M 124.88086,170.375 c 7.3e-4,7.2e-4 -0.003,0.005 -0.002,0.006 0,0 0.002,0 0.002,0 l 0,-0.006 z m -0.002,0.006 c -0.0961,-0.09 -0.89819,0.50543 -2.42383,1.70117 -1.84886,1.45002 -3.36382,2.94089 -3.375,3.34961 l 0,0.0195 c 0.0186,1.53575 1.60149,0.53685 4.10156,-2.65039 1.1897,-1.51719 1.78705,-2.31123 1.69727,-2.41992 z m 273.14648,3.77148 c -0.055,0.009 -0.0985,0.0257 -0.13086,0.0527 l 0,0.002 c -0.7772,0.64859 4.88689,6.40055 12.20313,11.72852 6.3331,4.6121 10.64509,8.90423 9.60156,9.55078 -2.35339,1.45374 5.10695,8.66945 11.65234,11.27929 6.67566,2.66221 6.77463,2.62387 3.17774,-1.35156 -1.75382,-1.93851 -3.17774,-4.4383 -3.17774,-5.55078 0,-1.68299 -22.11498,-19.46501 -30.35547,-24.40625 -1.63521,-0.98011 -2.58547,-1.36786 -2.9707,-1.30469 z m -29.43945,2.625 c -0.59807,0.079 -0.84766,1.20334 -0.84766,3.50586 0,2.6857 0.65525,5.54251 1.44922,6.35157 0.7921,0.80888 1.71907,-0.45672 2.07617,-2.80079 0.35412,-2.34332 -0.27584,-5.2018 -1.42578,-6.35156 -0.37462,-0.37462 -0.70809,-0.59182 -0.97461,-0.67383 -0.0999,-0.031 -0.1919,-0.0425 -0.27734,-0.0312 z m 48.18945,1.65235 c -0.33648,-0.0185 -0.6458,-0.016 -0.92578,0.006 l 0,-0.002 c -0.63927,0.0559 -1.1171,0.21485 -1.40039,0.5 -0.59455,0.59455 1.73674,2.05356 5.17578,3.25196 3.43885,1.19841 9.85974,4.18895 14.2793,6.62695 10.59649,5.84442 11.15892,5.69314 3.77539,-1.02539 -4.85728,-4.41924 -15.85715,-9.08027 -20.9043,-9.35742 z m -34.35937,6.2539 c -0.23484,0.002 -0.44119,0.20006 -0.59961,0.625 -0.49017,1.31583 0.22229,5.6676 1.59961,9.65235 1.92249,5.55964 2.67093,6.30491 3.15234,3.25 0.65978,-4.19144 -2.50421,-13.53834 -4.15234,-13.52735 z m -15.92383,11.4668 c -0.0756,0.009 -0.14529,0.0457 -0.21094,0.11133 l 0.006,0 c -0.52372,0.52559 -0.4508,2.29032 0.16797,3.92578 1.66808,4.34446 3.00292,3.64442 1.80078,-0.94922 -0.49413,-1.89124 -1.23465,-3.15372 -1.76367,-3.08789 z m -248.26758,7.76172 c -0.0596,0.0116 -0.11541,0.0375 -0.16992,0.0762 -1.51525,1.08472 -1.02696,12.68018 1.09961,16.6543 1.09776,2.05034 2.38039,3.72656 2.85156,3.72656 1.46865,0 -1.40147,-18.21896 -3.17578,-20.1543 -0.22366,-0.24462 -0.42664,-0.3375 -0.60547,-0.30273 z m 300.07422,3.95312 c -1.06422,0.0932 0.70114,3.39747 5.22656,8.35157 6.69077,7.32537 7.82617,7.63408 7.82617,2.05078 0,-2.29692 -0.60107,-3.59852 -1.32422,-2.875 -0.72128,0.72128 -3.7632,-1.03941 -6.75195,-3.90235 -2.69557,-2.58189 -4.33821,-3.68147 -4.97656,-3.625 z m -51.45117,1.59766 c -0.26498,0.0351 -0.60743,0.18475 -1.03516,0.45313 -1.06235,0.65605 -1.87775,3.07952 -1.80078,5.40234 0.13047,4.07216 0.20352,4.0923 1.80078,0.375 1.71094,-3.97785 2.13105,-6.04149 1.27539,-6.22656 -0.0713,-0.014 -0.15191,-0.0156 -0.24023,-0.004 z m 26.72656,5.61133 c -0.15167,-0.0221 -0.28977,0.028 -0.40625,0.14453 -0.23237,0.23337 -0.37305,0.7185 -0.37305,1.42383 0,1.41833 0.56521,2.00939 1.27344,1.30078 0.70823,-0.70637 0.70823,-1.86505 0,-2.57422 -0.17706,-0.17705 -0.34248,-0.27279 -0.49414,-0.29492 z m 26.19922,1.56836 c -2.08923,0.009 -2.65178,15.12059 -0.75,20.08008 2.05183,5.34792 2.67578,3.35462 2.67578,-8.50196 0,-6.42156 -0.85283,-11.57235 -1.92383,-11.57812 l -0.002,0 z m -46.11133,1.92578 c -1.23651,0.004 -2.07422,4.30384 -2.07422,10.60352 0,10.86412 2.18949,13.48449 5.72656,6.875 2.88027,-5.38463 2.44301,-7.89471 -1.125,-6.5254 -2.60593,1.00085 -2.8956,0.21544 -1.77734,-4.87695 0.85317,-3.88268 0.58279,-6.07393 -0.74805,-6.07617 l -0.002,0 z m 18.15625,3.87695 c -0.52931,0 -0.95117,0.41804 -0.95117,0.94922 0,0.52931 0.42186,0.97461 0.95117,0.97461 0.52931,0 0.97461,-0.44716 0.97461,-0.97461 0,-0.52745 -0.44716,-0.94922 -0.97461,-0.94922 z m -260.66016,0.29883 c -0.26279,-0.0559 -0.31722,0.91864 -0.375,2.90039 -0.0559,2.2986 0.48391,5.76089 1.24805,7.70313 1.1425,2.90637 1.50004,3.00235 2.00195,0.52539 0.33548,-1.65689 -0.21933,-5.11706 -1.25,-7.70117 -0.89088,-2.23038 -1.36221,-3.35915 -1.625,-3.42774 z m 271.29883,9.24219 c -1.12274,-0.042 -1.2351,3.7786 -0.51172,12.13867 0.52931,6.09566 1.72185,11.07617 2.65039,11.07617 2.24677,0 2.12752,-17.55125 -0.15039,-21.15429 -0.71382,-1.12758 -1.30269,-1.80356 -1.75,-2 -0.0839,-0.0369 -0.16343,-0.0577 -0.23828,-0.0605 z m -12.26367,3.2539 c -0.12701,-9.7e-4 -0.26982,0.0192 -0.42578,0.0586 l 0,-0.002 c -0.83311,0.21061 -2.07051,0.99528 -3.72461,2.55078 -2.65066,2.48982 -4.77767,6.32696 -4.75195,8.52734 0.0559,3.68132 0.42277,3.57589 4.80078,-1.40039 4.65145,-5.27856 6.00663,-9.71969 4.10156,-9.73438 z m 22.11719,1.65821 0.0117,0.0273 0,-0.0273 -0.0117,0 z m 0.0117,0.0273 -0.12891,4.94922 c -0.0559,2.73882 0.49997,5.60498 1.27344,6.37695 l 0.0195,0 c 2.28759,2.28871 2.67925,-1.68827 0.67383,-6.70312 l -1.83789,-4.62305 z m 26.63281,0.52149 c -1.87552,-0.25907 -1.2493,7.8591 2,27.25781 l 4.22656,25.17969 -8.02734,16.1289 c -5.83137,11.71419 -7.82547,17.90605 -7.32618,22.65625 l 0.67383,6.52539 2.55078,-8.65234 c 3.34268,-11.36958 12.18304,-28.58531 13.17774,-25.67969 1.26364,3.69139 -6.78973,28.3533 -11.57813,35.48242 -8.72153,12.98454 -18.67711,8.47256 -18.7539,-8.50195 -0.0129,-3.3766 -0.87214,-7.43773 -1.90039,-9.02734 -1.31023,-2.02816 -1.87485,0.90889 -1.90039,9.85351 -0.0186,10.01089 0.84114,13.84059 3.97656,17.82813 11.93188,15.16832 32.60742,-11.49798 32.60742,-42.03516 0,-11.73805 -6.98886,-64.6002 -8.77734,-66.38867 -0.37089,-0.36903 -0.68279,-0.58772 -0.95118,-0.625 l 0.002,-0.002 z m -39.53516,6.85156 c -1.0549,0.18638 -2.61564,5.30835 -3.5,13.30469 -0.67282,6.09565 -0.46474,11.10156 0.47461,11.10156 2.05499,0 4.10156,-9.49094 4.10156,-18.95313 0,-3.88895 -0.44436,-5.56327 -1.07617,-5.45312 z m -7.38476,0.24805 c -0.0485,0.007 -0.10634,0.026 -0.16797,0.0527 -0.49791,0.2189 -1.42668,1.09638 -2.77539,2.625 -2.20894,2.50267 -4,7.0658 -4,10.12891 0,7.82598 3.15163,6.93145 4.70117,-1.32618 0.71196,-3.78589 1.74463,-8.34761 2.30078,-10.12695 0.29844,-0.95076 0.28421,-1.40198 -0.0586,-1.35351 z m -76.53125,1.29296 c -0.35745,-0.005 -0.73409,-0.001 -1.12891,0.01 -9.47598,0.26466 -29.22321,5.02525 -35.58203,9.55273 -2.82343,2.01175 -6.46354,3.65039 -8.07813,3.65039 -4.28873,0 -10.9345,9.36103 -10.80273,15.20508 0.0932,4.74107 0.24028,4.8045 2.40039,1.24805 6.49637,-10.69564 11.76447,-13.78356 29.2832,-17.25391 18.04319,-3.57434 27.95508,-7.48445 27.95508,-11.00195 0,-0.94912 -1.54473,-1.37696 -4.04687,-1.41016 z m 17.0039,3.91016 c -0.49539,0.0133 -1.59146,0.28591 -3.32812,0.75 -2.65048,0.7045 -5.64721,2.06093 -6.65235,3.00195 -3.25116,3.03721 3.78338,1.85086 7.72657,-1.30078 1.79854,-1.43697 2.69075,-2.15247 2.55078,-2.375 -0.0326,-0.0559 -0.13175,-0.0806 -0.29688,-0.0762 z m 9.13672,1.75586 c -0.11086,0.008 -0.19876,0.0309 -0.26367,0.0703 -0.51813,0.31498 0.42289,1.65368 2.65234,4.10156 2.17241,2.38489 5.05646,6.50486 6.42578,9.15235 1.54693,2.98987 2.8116,3.86929 3.32618,2.32422 1.60471,-4.81599 -1.42557,-11.31994 -6.32618,-13.55274 -3.12869,-1.42531 -5.03842,-2.14841 -5.81445,-2.0957 z m 66.60352,11.39844 c -1.59539,0 -3.8669,4.71556 -3.87696,8.00195 0.0127,1.0139 0.75509,1.39648 1.67579,0.82617 2.28852,-1.41274 4.13763,-8.82812 2.20117,-8.82812 z m -85.67578,0.0176 c -1.07951,-0.006 -2.17804,0.0379 -3.29493,0.13085 -8.93512,0.74365 -18.9632,4.63157 -28.48242,11.52735 -4.32116,3.12983 -7.87695,6.57467 -7.87695,7.62695 0,1.05304 4.38931,1.90039 9.75195,1.90039 6.01011,0 9.31171,-0.73651 8.57813,-1.92578 -0.65605,-1.05862 -2.53609,-1.92383 -4.15235,-1.92383 -4.4246,0 -2.32632,-3.56785 4.67774,-8.00195 l 6.22461,-3.95117 -0.47461,4.25 c -0.9468,8.15606 5.72251,9.48087 12.10351,2.40039 6.38604,-7.08588 9.55274,-7.95465 9.55274,-2.625 0,2.4613 1.71227,3.93629 5.30078,4.55078 2.91512,0.50135 6.81984,1.55741 8.67578,2.35156 5.07916,2.17242 4.15078,-1.91557 -2.02539,-8.82812 -4.44182,-4.97118 -11.00206,-7.4408 -18.55859,-7.48242 z m -140.76758,0.7539 c -7.67442,0.0141 -14.79601,0.54031 -18.86524,1.67774 -5.47353,1.53015 -7.14141,6.08139 -2.90039,7.92578 2.80908,1.22077 8.47354,0.44605 21.25586,-2.875 7.06109,-1.83396 12.42749,-1.87415 23.08008,-0.22657 16.1537,2.50025 17.67,2.02141 8.85156,-2.77539 -3.45227,-1.87738 -13.30009,-3.15533 -23.65429,-3.57617 l 0,0.002 c -2.58855,-0.1053 -5.20944,-0.15704 -7.76758,-0.15234 z m 112.70898,1.625 c -0.49334,0.0398 -1.1472,0.18079 -1.96875,0.42774 -13.34686,4.02314 -21.17969,8.65568 -21.17969,12.50195 0,5.34941 2.60977,4.97584 12.27735,-1.67578 8.51849,-5.86108 12.9595,-10.13695 11.8789,-11.07617 -0.18078,-0.15656 -0.51447,-0.21758 -1.00781,-0.17774 z m 129.86328,3.85547 c -0.4456,0.004 -0.86265,0.0286 -1.25195,0.0742 l 0,-0.002 c -4.67117,0.54422 -5.41419,4.14027 -3.92578,12.95312 0.79956,4.77052 1.24859,14.10475 0.97461,20.73047 -0.60759,14.6787 -0.57604,14.675 9.12695,1.125 6.96455,-9.72555 7.82813,-12.12945 7.82813,-22.00391 l 0,-11.07812 -7.95313,-1.32617 c -1.86932,-0.31591 -3.46203,-0.48489 -4.79883,-0.47266 z m -229.4082,7.20117 c -1.33344,0.002 -2.66009,0.0677 -3.97266,0.19727 -15.75094,1.55439 -29.50586,11.92351 -29.50586,25.03125 0,1.38478 1.26092,1.65277 3.375,0.72461 1.85445,-0.81633 6.59963,-1.85883 10.52735,-2.32422 6.66318,-0.79024 7.0629,-1.20262 6.05273,-6.25195 -0.84801,-4.24289 -0.16806,-5.90417 3.15039,-7.67774 5.10152,-2.73061 7.25788,-1.2061 3.95118,2.77734 -1.9933,2.40222 -1.5662,3.27297 2.5,5.125 7.66513,3.49253 11.48107,0.97095 10.55273,-6.97656 -1.11827,-9.57662 12.61297,-5.16124 22.35547,7.20117 3.74656,4.75523 4.94908,5.46886 4.97461,2.85157 0.0373,-6.52899 -5.69216,-14.77019 -11.10157,-15.95313 -2.89611,-0.63368 -7.77978,-1.92601 -10.85351,-2.90039 -3.94244,-1.24686 -8.00555,-1.82966 -12.00586,-1.82422 z m -10.62305,4.07227 0,0.002 5.10157,0.14844 -4.92774,1.5 c -2.71216,0.82379 -7.06393,2.53453 -9.65234,3.80078 l -4.70117,2.30078 4.55273,-3.97461 c 2.50305,-2.17968 6.82923,-3.87967 9.62695,-3.77734 z m 149.60938,2.21484 c -2.15988,-0.30563 -11.9539,4.85498 -13.42774,7.23828 -0.65978,1.06608 0.0374,1.95117 1.55078,1.95117 3.1468,0 13.5402,-7.71547 12.20313,-9.05273 l -0.002,0 c -0.0714,-0.0714 -0.18023,-0.11634 -0.32422,-0.13672 z m -125.12891,5.38867 c -1.12199,0.0373 -0.35838,1.31894 1.69922,2.875 2.05742,1.55625 4.6533,2.80093 5.77734,2.77539 1.12386,-0.0373 0.35643,-1.31875 -1.70117,-2.875 -2.05817,-1.55625 -4.65117,-2.80111 -5.77539,-2.77539 z m 130.95508,7.65235 -7.70117,1.44922 c -4.24065,0.79024 -14.89297,1.33349 -23.65625,1.20117 -15.64209,-0.23111 -19.92014,3.02102 -7.52735,5.72461 8.13611,1.77432 21.63126,-0.11051 30.20704,-4.22461 l 8.67773,-4.15039 z m -86.11914,6.30078 c -1.37547,0.0932 -2.90119,8.00993 -1.77734,11.05273 0.6896,1.86004 1.4846,0.8184 2.22656,-2.90039 0.63182,-3.18053 0.68813,-6.65456 0.13086,-7.70312 -0.18638,-0.34107 -0.37861,-0.46227 -0.57617,-0.44922 l -0.004,0 z m -40.98047,4.21094 c -0.23849,0.0107 -0.57495,0.0667 -1.00586,0.16601 -1.14808,0.26466 -2.98987,0.83931 -5.5,1.72461 -4.04644,1.42765 -13.94299,4.05787 -22.00586,5.85156 -8.06287,1.79295 -16.24212,4.4575 -18.17969,5.92578 -9.02328,6.83875 23.90819,0.54737 37.4336,-7.15039 7.87367,-4.48193 10.92725,-6.59234 9.25781,-6.51757 z m 66.16016,26.8457 c -0.88156,9.3e-4 -1.56169,0.1313 -2.02539,0.42578 -2.97608,1.83954 -1.6233,4.38602 3.67578,6.92578 12.96422,6.21345 -8.80701,30.45703 -27.35547,30.45703 -2.6926,0 -4.90234,0.97682 -4.90234,2.17578 0,9.8711 30.11857,-5.34066 39.50976,-19.95507 7.21858,-11.23371 4.66914,-11.51015 31.95703,3.57617 12.71093,7.02792 23.53944,12.34551 24.05664,11.82812 5.20458,-5.2044 -51.6806,-35.44626 -64.91601,-35.43359 z m -61.32422,13.60742 c -1.42628,-0.012 -3.71644,1.44972 -7.7168,4.09766 -15.22199,10.07332 -27.06837,31.50883 -21.2793,38.48437 3.50762,4.22667 5.79928,2.77223 8.65235,-5.52734 2.24417,-6.52768 6.90407,-14.15777 15.55273,-25.38086 2.97104,-3.85484 2.97384,-3.85484 5.97656,0 2.83349,3.63697 2.94896,3.44332 1.9004,-3.60156 -0.74179,-4.97423 -1.1572,-7.47485 -2.5254,-7.97657 -0.171,-0.0627 -0.35679,-0.094 -0.56054,-0.0957 z m 207.10156,9.69922 c -2.88709,0.10128 -3.03027,6.03089 -3.29492,21.70508 -0.64673,38.3833 -0.8765,42.86207 -2.19922,44.18554 -0.70637,0.7045 -1.27539,-0.37083 -1.27539,-2.40234 -0.005,-2.03207 -4.12202,3.46636 -9.15234,12.22852 -11.0628,19.27068 -31.83619,45.76852 -53.33594,69.66601 l 17.27734,0 c 15.46186,-21.80503 26.21509,-38.43409 34.58399,-53.78711 9.76301,-17.91292 9.77465,-14.5712 0.0176,6.85157 -5.28846,11.61876 -15.2109,28.07005 -28.08007,46.93554 l 7.75195,0 c 35.23259,-53.65673 45.87676,-85.32716 41.18359,-117.92773 -1.30464,-9.11571 -1.27362,-12.85184 0.14844,-12.37696 3.30931,1.10336 10.84303,17.25922 11.87891,25.50586 0.87971,7.01189 0.75832,7.25823 -1.34961,2.82618 -2.12079,-4.45945 -2.39941,-3.93196 -3.80078,7.375 -3.10691,25.06347 -15.43771,53.55456 -41.60938,94.59765 l 6.30078,0 c 14.69996,-24.43146 26.49644,-47.18723 34.85938,-68.24023 3.30857,-8.35436 4.27781,-9.69957 3.42383,-4.82617 -2.92538,16.68021 -14.49517,41.24564 -34.13282,73.0664 l 11.85352,0 c 27.32945,-61.29001 33.9993,-82.04887 33.30859,-99.57226 -0.18638,-4.50567 0.51266,-8.20313 1.55078,-8.20313 1.03998,0 1.38476,1.3118 0.77344,2.90235 -0.61877,1.61029 -0.0553,2.90039 1.27539,2.90039 9.73058,0 -3.29322,-25.90889 -19.15429,-38.08399 -4.33048,-3.32339 -7.06089,-5.37359 -8.79688,-5.32617 l -0.002,0 -0.004,0 z m 10.97461,14.61328 c 0.0831,-0.017 0.17743,-0.0109 0.2832,0.0156 l 0.002,-0.002 c 1.27296,0.3187 3.98733,3.66551 5.27539,7.05274 1.01203,2.69445 1.45733,5.29398 0.97461,5.77539 -0.85361,0.85361 -6.92578,-9.69447 -6.92579,-12.02735 0,-0.50881 0.14138,-0.76352 0.39063,-0.81445 z m 18.98828,1.26367 c -1.26177,-0.0186 1.65556,5.60274 9.55274,17.42969 11.51857,17.24929 23.20928,30.76115 40.9414,45.08398 l 0,-5.34961 c -9.51798,-8.54928 -16.88213,-17.50391 -26.8125,-30.30859 -13.55075,-17.47325 -22.06015,-26.82658 -23.68164,-26.85547 z m -119.30273,2.20117 c -3.11827,-0.0127 -10.36803,3.38213 -18.42774,8.90039 -7.07246,4.84135 -13.09208,7.77592 -13.7539,6.70313 -0.66164,-1.0698 -2.85937,0.0118 -5.00196,2.47461 l -3.80078,4.37695 1.17774,-4.32617 c 1.46866,-5.32779 -1.09953,-5.45749 -28.93164,-1.42578 -10.60114,1.53575 -20.47548,2.81173 -21.93164,2.82422 -2.13122,0.0186 -2.15865,0.59476 -0.22461,2.92578 3.60696,4.34651 25.78215,3.798 36.13281,-0.90039 8.11505,-3.69269 8.20312,-3.705 8.20312,0.0566 0,7.16957 -10.74848,11.45103 -28.93164,11.47656 -11.86273,0.0186 -15.57227,0.58517 -13.47851,2.02735 5.92605,4.08279 34.70362,1.04854 46.25976,-4.87696 11.10455,-5.69438 44.33594,-27.45449 44.33594,-29.03125 0,-0.80701 -0.58687,-1.19744 -1.625,-1.20117 l -0.002,-0.004 z m 33.41992,2.88282 c -0.15079,-0.0431 -0.33884,0.0576 -0.5625,0.29101 -1.01948,1.06049 -2.36385,7.56201 -2.97461,14.45313 -1.20958,13.68196 1.09028,9.14888 3.42578,-6.77539 0.67655,-4.61564 0.75508,-7.33591 0.25,-7.87696 -0.0419,-0.0466 -0.0884,-0.0774 -0.13867,-0.0918 z m -113.08789,3.34179 c -0.26093,0.0186 -1.00629,0.88988 -2.40039,2.60157 -1.6774,2.05798 -3.05078,4.44569 -3.05078,5.30078 0,0.8592 0.86492,1.57422 1.92578,1.57422 1.05862,0 1.92578,-0.80064 1.92578,-1.77539 0,-0.97289 0.50623,-3.35874 1.125,-5.30079 0.51254,-1.61589 0.73748,-2.42891 0.47656,-2.40039 l -0.002,0 z m -80.06836,8.27735 c -1.34378,1.34378 12.33549,27.16993 17.87891,33.75781 9.15112,10.87642 7.14646,5.02835 -5.125,-15.02734 -6.57372,-10.74261 -12.30958,-19.1746 -12.75391,-18.73047 z m 36.98437,3.12695 c -10.28654,0 -9.97492,2.93705 0.52539,4.82617 3.9704,0.71383 11.57834,3.30533 16.87891,5.77539 12.64365,5.89362 14.15464,5.85162 8.52734,-0.25 -6.25482,-6.78283 -15.20097,-10.35156 -25.93164,-10.35156 z m 227.30664,25.38477 c 0.15167,0.0221 0.31904,0.11786 0.4961,0.29492 0.70824,0.70637 0.70824,1.86487 0,2.57422 -0.70823,0.70637 -1.27539,0.13184 -1.27539,-1.27344 0,-0.7101 0.14948,-1.21819 0.375,-1.45117 0.11648,-0.11649 0.25263,-0.16666 0.40429,-0.14453 z m 33.375,5.7207 c -0.0822,0.0228 -0.12211,0.0736 -0.12109,0.15039 0.008,0.61505 2.67748,2.97571 8.02539,7.20312 6.38622,5.04785 10.07246,9.60872 10.92774,13.50196 1.75195,7.97862 5.699,7.71442 4.10156,-0.27539 -1.51711,-7.58202 -5.7889,-12.46401 -15.07813,-17.20508 -4.66312,-2.37852 -7.27978,-3.53482 -7.85547,-3.375 z m -9.0996,17.08008 c -1.06235,0 -1.92383,0.86511 -1.92383,1.92578 0,1.05862 0.86315,1.92578 1.92383,1.92578 1.06049,0 1.92578,-0.86511 1.92578,-1.92578 0,-1.05862 -0.86529,-1.92578 -1.92578,-1.92578 z m 20.18164,2.66992 c -0.1469,-0.002 -0.27254,0.0405 -0.37696,0.13086 -0.41748,0.35971 -0.52539,1.48535 -0.52539,3.55078 0,2.69185 -1.07711,5.34349 -2.40039,5.90039 -1.72585,0.725 -1.46428,1.62311 0.95117,3.15234 1.99312,1.26177 3.375,4.4998 3.375,7.92579 0,3.37511 0.8036,5.31822 1.92578,4.62695 3.13412,-1.93665 2.37007,-21.34951 -0.95117,-24.10547 -0.91558,-0.75902 -1.55735,-1.17456 -1.99804,-1.18164 z m -286.82813,4.46875 c -0.16389,-0.0147 -0.36642,0.0464 -0.61523,0.1875 -0.99339,0.56472 -2.70465,2.41472 -5.625,5.82617 -7.65284,8.94071 -12.26693,10.30773 -12.60352,3.72656 -0.18638,-3.43549 -0.40931,-3.61117 -1.125,-0.84961 -0.49204,1.9167 -0.43865,4.72133 0.14844,6.25 2.24622,5.85393 20.27347,0.69715 24.38086,-6.97656 1.98641,-3.71283 1.88007,-4.15436 -0.80078,-3.125 -2.27455,0.87225 -3.125,0.074 -3.125,-2.95117 0,-1.31536 -0.14308,-2.04384 -0.63477,-2.08789 z m 305.87891,2.71484 c -0.0382,-0.007 -0.0791,0.003 -0.12305,0.0234 -1.22263,0.61505 -4.70474,12.0176 -11.80273,37.33398 -1.49102,5.31642 -2.53044,9.53573 -3.80079,14.27735 l 9.67774,0 c 1.39783,-1.79108 2.84321,-3.13868 4.35156,-3.75 3.75402,-1.52084 3.73222,-1.611 -0.47656,-1.72656 -7.91917,-0.21992 -7.3288,-17.62424 0.65039,-19.10352 1.18975,-0.22074 2.27861,-0.55741 3.25781,-0.98242 l 0,-2.91016 c -1.93169,0.50467 -2.63041,-4.09031 -1.80664,-13.26172 0.56612,-6.30107 0.67091,-9.79256 0.0723,-9.90039 z m -54.78516,7.5 c -1.20959,0 -1.73562,1.25399 -1.15039,2.77539 0.58336,1.52271 -0.59964,4.87684 -2.625,7.45313 -2.02704,2.57592 -3.12324,5.22943 -2.45117,5.90039 2.22964,2.22944 4.42578,1.25377 4.42578,-1.95117 0,-1.7389 1.46381,-4.21083 3.22656,-5.5 3.41127,-2.4941 2.39402,-8.67774 -1.42578,-8.67774 z m -283.64258,4.56836 c -0.34771,0.026 -0.7588,0.15246 -1.24804,0.35938 -1.72213,0.73432 -6.16656,1.91728 -9.87696,2.59961 l -6.75195,1.22461 8.67773,5.22656 c 10.98676,6.61994 10.63374,6.71162 10.87696,-2.55078 0.13047,-4.88383 -0.11216,-6.71047 -1.35157,-6.85156 -0.1025,-0.014 -0.21026,-0.0165 -0.32617,-0.008 z m 312.69922,1.20899 c -1.06049,0 -1.87756,3.25095 -1.80078,7.22656 0.0932,5.7982 0.47191,6.46775 1.80078,3.375 2.30157,-5.35611 2.30157,-10.60156 0,-10.60156 z m -278.36914,4.65429 c -0.57833,0.0522 -1.60449,0.77009 -3.0957,2.1211 -2.96806,2.68663 -3.32035,3.87367 -1.45117,5.02734 1.53761,0.95053 2.95542,0.29331 3.77734,-1.77734 1.16948,-2.94718 1.57225,-4.66986 1.19922,-5.19922 -0.0937,-0.13186 -0.23691,-0.18928 -0.42969,-0.17188 z m 21.05859,4.17188 c -2.99341,-0.0559 -5.11328,3.01384 -7.67578,10.27734 -4.03097,11.42438 -3.72916,12.68917 2.05078,8.90235 6.80389,-4.45814 7.54229,-2.82498 3.20118,7.00195 -0.47899,1.08472 -0.68175,2.22491 -1.05079,3.35156 l 6.55274,0 c 0.4268,-9.71716 0.97607,-17.20617 1.69922,-17.92969 1.29346,-1.29346 1.95117,-0.25378 1.95117,3.15039 0,2.79958 0.7685,5.56015 1.72461,6.1504 0.51813,0.32057 1.14241,3.80191 1.75,8.6289 l 13.30273,0 c -8.49974,-14.51134 -16.70095,-26.62051 -20.17968,-28.48242 -1.24128,-0.6635 -2.32635,-1.03391 -3.32422,-1.04883 l -0.002,-0.002 z m -73.34961,3.05469 c -0.14776,0.0157 -0.20399,0.0652 -0.16601,0.15234 0.1491,0.34852 1.80786,1.32547 5.07617,3.20117 3.71059,2.12843 8.90208,3.80092 11.55274,3.77539 5.79354,-0.0932 -2.6099,-4.38731 -12.72852,-6.50195 -2.02391,-0.42215 -3.29109,-0.67422 -3.73438,-0.62695 z m 339.13672,0.002 c -1.94526,0.31695 -8.47656,11.99307 -8.47656,15.54687 -0.005,1.85632 0.39415,3.37696 0.875,3.37696 1.39038,0 8.90846,-17.84936 7.92774,-18.83008 -0.0856,-0.0856 -0.19649,-0.11488 -0.32618,-0.0937 z m -28.50586,0.40039 c -0.69093,0.0326 -1.17578,0.80616 -1.17578,2.04883 0,1.65131 0.8651,3.00195 1.92578,3.00195 1.06048,0 1.92579,-0.83091 1.92579,-1.82617 0,-0.99712 -0.86512,-2.34451 -1.92579,-3 -0.26558,-0.16401 -0.51969,-0.23547 -0.75,-0.22461 z m -341.52148,1.8125 c -0.11378,0.002 -0.20958,0.0377 -0.2832,0.11133 -0.58895,0.58895 0.40733,3.35142 2.22656,6.12695 1.81904,2.7759 3.81144,4.56551 4.40039,3.97656 0.58895,-0.58895 -0.43189,-3.35142 -2.25,-6.12695 -1.59003,-2.42875 -3.29732,-4.10206 -4.09375,-4.08789 z m 319.88672,0.0664 c -0.10507,0.007 -0.20548,0.0292 -0.29688,0.0644 -1.22289,0.47727 -1.21002,3.50966 0.625,7.90234 1.52643,3.65337 2.77539,8.39644 2.77539,10.55078 0,2.15471 0.97869,3.92579 2.17579,3.92579 2.84655,0 1.1166,-16.29223 -2.1504,-20.22852 -1.31606,-1.58514 -2.3888,-2.26173 -3.1289,-2.21484 z m -304.19727,1.50781 c -0.0788,0.0186 -0.15265,0.0589 -0.21875,0.125 -0.53304,0.52931 -0.41234,2.43808 0.27539,4.22656 0.68773,1.78735 1.67224,2.80544 2.20118,2.27539 0.53304,-0.52932 0.41234,-2.41269 -0.27539,-4.20117 -0.60177,-1.5623 -1.43045,-2.55582 -1.98243,-2.42578 z m 334.6211,0.0879 c -0.11495,-0.0261 -0.23506,-0.0191 -0.36133,0.0195 l -0.002,0 c -0.50508,0.1491 -1.11048,0.81803 -1.875,2.02539 -1.17417,1.85632 -3.38892,3.375 -4.92579,3.375 -2.87766,0 -4.12666,11.5282 -1.52539,14.12891 2.76826,2.76826 5.6802,0.85136 11.72852,-7.77735 5.0771,-7.24058 5.27021,-8.27734 1.60156,-8.27734 -1.5022,0 -3.17097,-1.07711 -3.72656,-2.40039 -0.27118,-0.64719 -0.56924,-1.0153 -0.91406,-1.09375 z m -278.35157,1.63867 c -1.93572,0 -3.40039,0.62706 -3.40039,1.85156 0,1.05676 2.83002,1.91269 6.27539,1.90039 4.75449,-0.0186 5.5708,-0.48075 3.37696,-1.90039 -1.89453,-1.2245 -4.31606,-1.85156 -6.25196,-1.85156 z m -43.91601,2.22461 c -2.46827,0.13383 -2.21584,2.34557 0.0234,8.25195 1.6103,4.23412 2.5026,4.70079 5.67773,3.00196 8.10126,-4.33588 7.22199,-8.37643 -2.30078,-10.72852 -1.45244,-0.35892 -2.56996,-0.56523 -3.39453,-0.52539 l -0.006,0 z m 153.83789,4.22266 c -2.23879,0.0436 -6.63614,0.86085 -13.32422,2.42968 -12.60787,2.95744 -13.55553,3.48484 -8.42773,4.62696 7.02232,1.56184 13.88523,0.3847 19.90429,-3.37696 3.57919,-2.23783 4.53191,-3.44705 2.67578,-3.65039 -0.23204,-0.0254 -0.50829,-0.0355 -0.82812,-0.0293 z m -120.42188,1.74804 c -0.66155,0.005 -1.27099,0.0255 -1.82812,0.0586 l 0,-0.002 c -6.68499,0.39698 -5.67442,2.69643 5.30078,4.45118 5.40812,0.86479 7.38709,2.00661 6.67774,3.85156 -1.43884,3.74936 2.86772,3.18461 8.47656,-1.125 6.22389,-4.78207 5.57075,-5.19019 -11.30274,-6.85156 -2.88889,-0.28377 -5.33954,-0.39889 -7.32422,-0.38282 z m 271.06055,1.35743 c -0.99712,0 -1.7761,2.38742 -1.75,5.30273 0.0559,5.02324 0.20171,5.11431 2.82422,1.64844 2.78672,-3.683 2.28504,-6.95117 -1.07422,-6.95117 z m -21.03125,1.92578 c -1.74076,0 -5.85156,6.06296 -5.85156,8.62695 0,0.63741 1.73207,0.23651 3.85156,-0.90039 3.92548,-2.10103 5.38182,-7.72656 2,-7.72656 z m -287.93945,1.00976 c -0.56842,-4e-4 -1.05837,0.64959 -1.75195,1.89063 -0.91885,1.64198 -0.0751,4.0487 1.69921,6.57617 l 10.60352,0 c -3.12349,-1.11454 -5.91579,-2.75624 -7.40234,-5.02539 -1.3736,-2.09525 -2.21825,-3.18681 -2.90039,-3.40039 l 0,-0.002 c -0.0853,-0.0268 -0.16685,-0.039 -0.24805,-0.0391 z m 333.53515,3.65625 c -0.9925,0.0194 -1.86121,0.62391 -2.13476,1.60938 -0.0932,0.37834 -0.60732,2.30208 -0.84961,3.20117 l 5.67578,0 c -0.43985,-2.51107 -0.99737,-4.36695 -1.67578,-4.62695 -0.34107,-0.13093 -0.68479,-0.19006 -1.01563,-0.1836 z m -298.71093,0.1836 c -0.55926,0.06 -1.04559,0.36242 -1.41797,0.94531 -0.82751,1.3121 -1.12153,2.50254 -1.375,3.67578 l 8.12695,0 c -1.13131,-2.41284 -3.10065,-4.33579 -4.75195,-4.60156 -0.20082,-0.0326 -0.39561,-0.0395 -0.58203,-0.0195 z"
         style="display:inline;fill:#000000;stroke:none;stroke-width:2;stroke-linecap:round;stroke-linejoin:bevel;stroke-miterlimit:4;stroke-dasharray:none;stroke-opacity:1"
         inkscape:connector-curvature="0" />
    </g>
  </g>
</svg>
