<?xml version="1.0" encoding="UTF-8" standalone="no"?>
<!-- Created with Inkscape (http://www.inkscape.org/) -->

<svg
   xmlns:dc="http://purl.org/dc/elements/1.1/"
   xmlns:cc="http://creativecommons.org/ns#"
   xmlns:rdf="http://www.w3.org/1999/02/22-rdf-syntax-ns#"
   xmlns:svg="http://www.w3.org/2000/svg"
   xmlns="http://www.w3.org/2000/svg"
   xmlns:sodipodi="http://sodipodi.sourceforge.net/DTD/sodipodi-0.dtd"
   xmlns:inkscape="http://www.inkscape.org/namespaces/inkscape"
   width="512"
   height="512"
   viewBox="0 0 512.00001 512.00001"
   id="svg5363"
   version="1.1"
   inkscape:version="0.91 r13725"
   sodipodi:docname="dave.svg">
  <defs
     id="defs5365" />
  <sodipodi:namedview
     id="base"
     pagecolor="#47a0f2"
     bordercolor="#666666"
     borderopacity="1.0"
     inkscape:pageopacity="0"
     inkscape:pageshadow="2"
     inkscape:zoom="1.979899"
     inkscape:cx="426.35655"
     inkscape:cy="188.51448"
     inkscape:document-units="px"
     inkscape:current-layer="layer1"
     showgrid="false"
     units="px"
     fit-margin-top="6"
     fit-margin-left="6"
     fit-margin-right="6"
     fit-margin-bottom="6"
     inkscape:window-width="1920"
     inkscape:window-height="1135"
     inkscape:window-x="0"
     inkscape:window-y="0"
     inkscape:window-maximized="1"
     showguides="true"
     inkscape:guide-bbox="true">
    <sodipodi:guide
       position="442.44682,248.49753"
       orientation="0,1"
       id="guide5952" />
    <sodipodi:guide
       position="377.79706,459.61942"
       orientation="0,1"
       id="guide5954" />
    <sodipodi:guide
       position="410.12194,125.25892"
       orientation="0,1"
       id="guide5956" />
    <sodipodi:guide
       position="454.56865,26.263967"
       orientation="0,1"
       id="guide5958" />
    <sodipodi:guide
       position="251.52799,248.49753"
       orientation="1,0"
       id="guide5977" />
  </sodipodi:namedview>
  <metadata
     id="metadata5368">
    <rdf:RDF>
      <cc:Work
         rdf:about="">
        <dc:format>image/svg+xml</dc:format>
        <dc:type
           rdf:resource="http://purl.org/dc/dcmitype/StillImage" />
        <dc:title />
      </cc:Work>
    </rdf:RDF>
  </metadata>
  <g
     inkscape:label="Ebene 1"
     inkscape:groupmode="layer"
     id="layer1"
     transform="translate(782.11424,23.969541)">
    <path
       style="color:#000000;font-style:normal;font-variant:normal;font-weight:normal;font-stretch:normal;font-size:medium;line-height:normal;font-family:sans-serif;text-indent:0;text-align:start;text-decoration:none;text-decoration-line:none;text-decoration-style:solid;text-decoration-color:#000000;letter-spacing:normal;word-spacing:normal;text-transform:none;direction:ltr;block-progression:tb;writing-mode:lr-tb;baseline-shift:baseline;text-anchor:start;white-space:normal;clip-rule:nonzero;display:inline;overflow:visible;visibility:visible;opacity:1;isolation:auto;mix-blend-mode:normal;color-interpolation:sRGB;color-interpolation-filters:linearRGB;solid-color:#000000;solid-opacity:1;fill:#ffffff;fill-opacity:1;fill-rule:nonzero;stroke:none;stroke-width:1;stroke-linecap:round;stroke-linejoin:bevel;stroke-miterlimit:4;stroke-dasharray:none;stroke-dashoffset:0;stroke-opacity:1;color-rendering:auto;image-rendering:auto;shape-rendering:auto;text-rendering:auto;enable-background:accumulate"
       d="m -514.50118,3.4937873 c -14.20214,-0.074551 -9.76543,17.4348567 -19.24235,2.4119094 -24.56733,-1.8846479 -46.54923,13.5938053 -68.28885,23.1790063 -28.09582,6.351927 -28.18193,39.479385 -49.34266,48.921262 -12.82593,25.335015 -32.0651,49.047995 -34.05543,78.456855 -4.41341,46.43256 10.09886,93.70439 38.464,130.5169 8.73626,28.97534 8.6002,60.54468 22.62044,88.13356 5.84572,16.81776 27.81924,42.04674 -4.40149,40.65468 -43.38623,9.05664 -81.40367,32.22446 -118.72834,55.01375 2.5502,9.16902 2.58636,21.62201 15.41508,17.36385 190.83476,0.004 269.0377,0.007 459.87246,0.011 1.65777,-26.39007 1.94547,-53.26072 1.81109,-80.63725 -8.21724,-15.26405 -22.40023,-26.36537 -28.63613,-40.27264 -9.31663,-16.5039 -25.83973,-27.65561 -39.20876,-30.57838 -12.50275,-10.98527 18.58835,-26.5433 13.531,-45.51037 -1.19095,-25.81643 5.68805,-47.75919 1.68671,-74.48254 3.89697,-29.78944 12.52754,-61.40407 -5.86492,-88.57509 -9.17294,-22.32801 -24.72464,-41.428151 -32.53496,-63.986335 -8.72657,-3.066466 -4.23319,26.275481 -4.31129,1.989579 5.64892,-14.064409 -21.57448,-50.707875 -36.13409,-26.858096 8.54521,-21.841004 -22.67598,-19.799799 -27.48414,-10.48354 -7.94713,-20.581652 -28.56774,-6.429087 -41.2509,-7.785542 -11.5157,19.344666 -20.99616,0.378346 -30.6054,-9.105093 -8.25242,1.263639 -1.96889,-10.3983655 -13.3107,-8.3774757 z m -12.23139,11.3203747 c 3.77694,3.22731 -4.33644,3.630817 0,0 z m -119.36165,58.751735 z"
       id="path4387"
       inkscape:connector-curvature="0"
       sodipodi:nodetypes="ccccccccccccccccccccccccccccc" />
    <path
       style="display:inline;fill:#000000;stroke:none;stroke-width:2;stroke-linecap:round;stroke-linejoin:bevel;stroke-miterlimit:4;stroke-dasharray:none;stroke-opacity:1"
       d="M 267.33984 35.705078 C 266.67074 35.686438 265.91077 35.79865 265.21484 36.080078 C 263.6735 36.691396 264.14478 37.153351 266.39062 37.255859 C 268.42381 37.330409 269.55492 36.871697 268.91602 36.232422 C 268.59545 35.915581 268.00894 35.733035 267.33984 35.705078 z M 241.5332 37.40625 C 228.8724 37.40625 169.78073 65.21661 162.68945 74.513672 C 158.29131 80.279255 146.06055 112.62594 146.06055 118.5 C 146.06055 119.94629 148.05658 119.08269 150.88672 116.42383 C 153.53682 113.93401 155.71289 110.369 155.71289 108.49609 C 155.71289 106.62356 156.5664 104.56972 157.61328 103.92188 C 158.65886 103.27515 160.8966 97.990398 162.58984 92.167969 C 168.2175 72.809698 181.90552 63.206184 225.58008 48.033203 C 245.77574 41.016841 251.20842 37.40625 241.5332 37.40625 z M 275.2168 43.431641 C 273.99417 43.431641 272.76781 43.54464 271.83984 43.783203 C 269.98539 44.269647 271.50733 44.681641 275.2168 44.681641 C 278.92534 44.681641 280.44774 44.267784 278.5918 43.783203 C 277.66364 43.542776 276.43944 43.431641 275.2168 43.431641 z M 280.86719 48.892578 C 278.43655 49.026062 274.19097 51.533643 270.01562 55.708984 C 265.85531 59.869113 261.39858 62.460938 258.38672 62.460938 C 251.40838 62.460938 238.58203 66.593348 238.58203 68.837891 C 238.58203 71.867082 265.07305 68.628981 274.01562 64.511719 C 280.91904 61.331376 281.33197 60.831297 277.14258 60.636719 L 272.31641 60.410156 L 277.61719 56.458984 C 280.53232 54.283774 282.91797 51.705312 282.91797 50.732422 C 282.91797 49.755805 282.50866 49.194892 281.79297 48.982422 C 281.52535 48.902513 281.21442 48.873509 280.86719 48.892578 z M 260.76367 48.982422 L 251.11133 50.083984 C 234.1057 52.027899 225.10547 54.93347 225.10547 58.458984 C 225.10547 60.240752 224.0517 62.740439 222.7793 64.011719 C 218.07607 68.714952 226.05572 66.237156 243.4082 57.609375 L 260.76367 48.982422 z M 333.1543 49.126953 L 333.1543 49.132812 C 328.23767 49.281914 328.23889 49.300828 334.00391 51.933594 C 342.03976 55.61026 346.76487 55.538855 341.83203 51.802734 C 339.77442 50.246483 335.86665 49.024632 333.1543 49.126953 z M 314.72461 52.882812 C 313.66226 52.882812 314.11137 53.732267 315.70117 54.759766 C 317.29097 55.788569 319.44202 56.634766 320.50195 56.634766 C 321.5643 56.634766 321.14058 55.787078 319.55078 54.759766 C 317.96098 53.730963 315.78472 52.882813 314.72461 52.882812 z M 366.76172 52.882812 C 365.69936 52.882812 366.14848 53.732267 367.73828 54.759766 C 369.32808 55.788569 371.50239 56.634766 372.5625 56.634766 C 373.62299 56.634766 373.17769 55.787078 371.58789 54.759766 C 369.99809 53.730963 367.82183 52.882813 366.76172 52.882812 z M 345.73242 59.310547 C 343.89474 59.329187 343.82402 60.531188 346.48438 63.361328 C 348.94344 65.978812 351.64442 67.69608 352.50977 67.162109 C 354.16294 66.140761 367.68736 74.136091 367.71289 76.164062 C 367.72579 76.812657 365.56239 76.946399 362.91211 76.439453 C 360.26201 75.93437 358.11133 76.026741 358.11133 76.666016 C 358.11133 78.393734 371.44839 83.722019 380.26758 85.517578 C 392.28817 87.966763 392.36327 87.836729 383.16797 79.464844 C 372.58491 69.829507 351.24722 59.234878 345.73438 59.310547 L 345.73242 59.310547 z M 292.89648 59.884766 C 288.17685 59.828856 283.95738 60.521313 283.44336 61.984375 C 282.81899 63.764279 286.04929 64.359704 295.77148 64.333984 C 306.03062 64.278074 308.17271 63.806983 305.42383 62.208984 C 302.84921 60.712374 297.61611 59.93602 292.89648 59.884766 z M 318.45117 61.107422 C 316.78123 61.219248 319.36194 62.774883 327.67773 67.160156 C 334.79324 70.912864 341.44281 75.572835 342.48242 77.511719 C 344.45765 81.202922 371.67345 105.11481 391.69336 120.74609 C 401.85651 128.68129 408.22266 131.89676 408.22266 129.09961 C 408.22266 123.69355 330.16566 62.7805 321.47656 61.408203 C 320.03213 61.178959 319.00788 61.066419 318.45117 61.107422 z M 392.36719 62.808594 C 392.01788 62.790377 391.75314 62.86451 391.54297 63.083984 C 390.01095 64.616006 400.01315 79.337887 404.16992 81.664062 C 408.87297 84.295712 409.0202 82.51574 404.64648 75.4375 C 400.38953 68.5497 394.82277 62.9703 392.36914 62.808594 L 392.36719 62.808594 z M 206.41016 67.097656 C 205.32756 67.148229 203.42775 68.577597 200.34961 71.585938 C 196.3274 75.517195 194.99242 77.886719 196.77344 77.886719 C 201.08062 77.886719 208.26661 71.335425 207.47656 68.134766 C 207.3463 67.621197 207.15138 67.289204 206.82617 67.160156 L 206.82422 67.160156 C 206.70233 67.112172 206.5641 67.090465 206.41016 67.097656 z M 312.52148 68.650391 C 310.79864 68.661794 309.91268 69.343815 310.47461 70.808594 C 311.35244 73.098053 309.36348 75.314694 303.09766 78.986328 C 294.25815 84.166873 292.6933 86.469147 296.89648 88.164062 C 301.17478 89.888053 309.64845 89.496727 310.875 87.513672 C 311.53105 86.455049 311.14924 85.587891 310.02539 85.587891 C 301.33573 85.587891 313.89742 78.937835 325.32812 77.486328 L 330.1543 76.861328 L 325.32812 73.660156 C 321.53199 71.123561 317.45016 69.424098 314.5 68.859375 C 313.76241 68.718194 313.09577 68.64659 312.52148 68.650391 z M 279.70898 69.023438 C 278.47082 68.932352 275.66458 69.610015 271.41602 71.109375 C 266.8768 72.710356 261.54985 74.035156 259.5625 74.035156 C 257.57609 74.035156 255.9375 75.012158 255.9375 76.210938 C 255.9375 79.297347 270.27563 77.108058 276.41602 73.083984 C 279.87146 70.819872 281.04297 69.463492 280.14258 69.109375 C 280.03005 69.06511 279.88586 69.03645 279.70898 69.023438 z M 383.16602 70.285156 C 382.70008 70.285156 382.21935 70.452702 381.86523 70.810547 C 381.15886 71.516917 381.75328 72.111328 383.16602 72.111328 C 384.58435 72.111328 385.15114 71.520644 384.44141 70.810547 C 384.0873 70.45643 383.6301 70.285156 383.16602 70.285156 z M 231.25195 70.960938 C 229.99874 70.979906 227.78896 72.342848 224.35547 74.960938 C 220.62364 77.807479 211.05532 82.571004 203.09961 85.539062 C 195.14335 88.507123 185.12726 93.69917 180.84375 97.091797 C 176.55987 100.48405 173.06836 102.49293 173.06836 101.54297 C 173.06836 98.913184 182.87923 90.268128 189.92188 86.714844 C 193.36706 84.975943 196.19727 83.216612 196.19727 82.789062 C 196.19727 81.100483 183.38745 85.788255 178.84375 89.140625 C 173.19969 93.304481 165.3418 104.30041 165.3418 108.04492 C 165.3418 112.02371 167.8727 111.2357 176.91797 104.39453 C 181.47322 100.94916 186.71981 96.987577 188.5957 95.591797 C 190.47158 94.195831 199.04311 91.816282 207.65039 90.314453 C 226.98331 86.939532 230.23273 85.264154 231.88086 77.761719 C 232.78665 73.643898 232.85627 71.454505 231.73242 71.035156 L 231.73047 71.035156 C 231.58975 70.982738 231.43098 70.958228 231.25195 70.960938 z M 299.05859 74.609375 C 293.71562 74.270859 261.08735 81.819093 258.83789 84.113281 C 255.45551 87.563872 282.32917 84.116962 291.94531 79.863281 C 296.85207 77.692917 300.3684 75.409423 299.74609 74.787109 C 299.64953 74.690543 299.41479 74.631943 299.05859 74.609375 z M 320.07617 85.439453 C 319.3083 85.364903 318.38141 86.226282 318.00195 87.365234 C 317.59378 88.586006 320.13376 89.439453 324.20312 89.439453 C 328.00187 89.439453 331.10352 88.576298 331.10352 87.515625 C 331.10352 86.457001 328.95283 85.589844 326.30273 85.589844 C 323.65245 85.589844 320.84554 85.495365 320.07617 85.439453 z M 285.4668 89.634766 C 284.65172 89.674138 283.65425 89.803155 282.44336 90.015625 C 253.32059 95.111182 241.51189 97.439276 240.75781 98.193359 C 239.13819 99.812978 251.06183 99.08952 257.76172 97.167969 C 266.84407 94.563159 267.11782 95.895913 258.58789 101.16797 C 253.66119 104.2117 251.13617 104.89511 250.61133 103.31836 C 250.10252 101.7882 244.21425 100.92623 233.13281 100.79297 C 218.21349 100.60473 217.32736 100.4019 224.88086 98.917969 C 244.01884 95.158364 236.38159 91.299142 214.00195 93.416016 C 193.68533 95.337939 188.90899 97.246154 186.37109 104.51953 C 185.36838 107.39459 181.43821 111.36957 177.46875 113.52148 C 169.17328 118.01896 134.78061 158.83203 139.28516 158.83203 C 143.32042 158.83203 143.09742 159.61417 135.95898 170.20898 C 128.19729 181.73176 128.01268 207.62056 135.63477 217.94531 C 142.68785 227.49883 143.70106 256.49446 136.78516 250.87891 C 134.30522 248.86678 133.97987 248.96063 134.85938 251.35352 C 138.66614 261.70641 142.29587 277.28894 141.43555 279.53516 C 140.85033 281.05786 141.6223 282.18555 143.23633 282.18555 C 144.96404 282.18555 146.19718 284.24989 146.38672 287.48633 C 146.64206 291.82706 146.84271 291.56134 147.51367 286.03711 C 147.9647 282.32653 147.38264 267.02615 146.23828 252.0293 C 140.73102 180.27942 152.25657 136.30773 182.29688 114.54688 C 186.75222 111.31919 190.39844 107.28387 190.39844 105.57031 C 190.39844 102.88816 190.86401 102.8151 193.67383 105.09375 C 195.52083 106.59036 196.34508 106.75475 195.57422 105.46875 C 193.10174 101.34329 202.49956 101.75639 217.38086 106.41992 C 234.82765 111.88656 243.88722 111.18537 266.16602 102.59375 L 281.44531 96.693359 L 290.84766 101.09375 C 302.11081 106.36898 305.18473 105.09808 295.54883 99.142578 C 291.78289 96.815284 288.7207 93.558746 288.7207 91.916016 C 288.7207 90.760477 288.35632 90.080646 287.39648 89.791016 L 287.39453 89.791016 C 286.91461 89.646573 286.28187 89.595393 285.4668 89.634766 z M 325.52734 91.365234 C 323.36163 91.365234 320.97962 100.55348 322.50195 103.01758 C 324.9325 106.95033 327.25391 104.55392 327.25391 98.117188 C 327.25391 94.406974 326.47041 91.365234 325.52734 91.365234 z M 414.99805 94.566406 C 414.41841 94.454579 414.24297 96.122894 414.74805 100.04297 C 415.29786 104.31045 423.0138 122.05318 432.05273 139.80078 C 451.18567 177.36737 452.13117 181.5953 447.65625 210.06836 C 444.17938 232.19396 444.61716 256.93858 448.75586 271.28125 C 452.01131 282.55783 452.51747 279.10041 450.58008 258.62891 C 449.12447 243.23507 449.45365 236.06285 452.55664 217.24414 C 457.44495 187.61182 457.33297 183.04473 451.35547 170.38281 C 448.60249 164.55181 444.74036 155.22471 442.7793 149.62891 C 440.81842 144.03331 435.33438 134.48948 430.57617 128.42383 C 424.97217 121.27979 421.16814 114.05155 419.79883 107.91992 C 418.01333 99.917251 415.96367 94.760238 414.99805 94.566406 z M 337.20508 97.166016 C 331.48572 97.166016 329.12965 100.29371 332.4043 103.56836 C 334.48315 105.64703 336.08128 105.10577 339.78125 101.01758 C 343.19978 97.226476 343.16431 97.166016 337.20508 97.166016 z M 396.59375 97.166016 C 396.20422 97.155206 395.88309 97.279015 395.64453 97.517578 C 395.27923 97.882877 399.06049 103.46008 404.02148 109.91992 C 414.09257 123.03343 417.03861 122.90416 409.29688 109.69336 C 405.41165 103.06392 399.32436 97.241499 396.59375 97.166016 z M 381.61719 98.171875 C 381.54927 98.167997 381.49984 98.18375 381.4668 98.216797 C 380.93748 98.744245 384.7466 103.49142 389.94336 108.76758 C 395.1403 114.04411 400.25777 118.37109 401.32031 118.37109 C 402.38452 118.37109 398.57598 113.59732 392.84375 107.79297 C 387.46963 102.35139 382.63599 98.230039 381.61719 98.171875 z M 143.41602 101.50586 C 141.27941 101.42348 134.91732 110.18189 130.35742 120.24609 C 127.23467 127.13945 121.3509 137.99068 117.2793 144.35156 C 95.792587 177.91775 104.18191 250.67853 134.25781 291.58594 C 145.30309 306.60945 146.88077 311.08239 150.91211 338.64648 C 154.82194 365.37802 159.2684 379.54232 173.26758 410.08789 C 186.68228 439.35753 186.69924 439.55576 177.39453 441.94531 C 117.20471 457.40102 108.0188 460.92158 72.294922 482.2793 C 60.464992 489.35176 48.017398 496.6664 39.335938 501.73438 L 51.839844 501.73438 C 91.586494 476.42843 146.00931 451.8138 183.04492 445.69727 C 198.79958 443.09544 198.71243 443.84416 186.04492 420.91602 C 166.06676 384.75806 160.30811 367.63183 154.81445 328.24414 C 151.56123 304.92199 150.53926 302.22061 140.81055 290.83594 C 106.36969 250.53351 101.38999 186.96592 128.60742 135.04883 C 137.15133 118.75088 144.13672 104.30368 144.13672 102.91797 C 144.13672 102.25819 144.02372 101.84014 143.78516 101.64258 C 143.68207 101.55626 143.55846 101.51135 143.41602 101.50586 z M 351.71094 103.63672 C 351.39786 103.65087 351.07857 103.67868 350.75781 103.71875 L 350.75977 103.7168 C 346.91033 104.19579 342.68164 106.53333 342.68164 108.79297 C 342.68164 110.894 347.31857 111.16977 353.75977 109.44336 C 359.1047 108.01198 359.34805 105.51783 354.30859 103.91797 C 353.54119 103.67475 352.65017 103.59426 351.71094 103.63672 z M 279.86719 104.86719 C 271.50928 104.86719 257.86328 109.13206 257.86328 111.74414 C 257.86328 113.05251 281.09117 111.21427 287.29492 109.41797 C 293.3274 107.67161 288.74378 104.86719 279.86719 104.86719 z M 218.35352 110.64258 C 215.48219 110.64258 213.82223 111.47041 214.50195 112.56836 C 215.15614 113.62698 216.88878 114.49414 218.35352 114.49414 C 219.81845 114.49414 221.54764 113.62903 222.20312 112.56836 C 222.88153 111.47246 221.22597 110.64258 218.35352 110.64258 z M 336.48047 111.44727 C 333.36749 111.52969 332.41017 114.45334 334.60547 119.27148 C 337.33813 125.26817 339.63596 125.40776 343.53125 119.8457 C 346.36046 115.80672 346.24935 115.40312 341.50586 112.91797 C 339.82101 112.03454 338.33821 111.57498 337.13086 111.46875 C 336.90446 111.44871 336.688 111.44177 336.48047 111.44727 z M 291.5957 112.56836 C 287.84392 112.56836 287.94818 115.37407 291.89453 121.39648 C 295.53728 126.95537 302.7314 127.1093 303.77344 121.64453 C 304.31207 118.8142 303.55544 118.41856 299.47266 119.44531 C 295.30172 120.49089 294.49609 120.02612 294.49609 116.61914 C 294.49609 114.29129 293.25147 112.56836 291.5957 112.56836 z M 190.70703 114.73633 C 190.60941 114.74419 190.56514 114.77852 190.57227 114.84375 C 190.59087 115.10468 191.46037 115.85004 193.17188 117.24414 C 197.32958 120.6308 208.79639 121.34573 210.65234 118.34375 C 211.36989 117.18262 208.79608 116.41992 204.17578 116.41992 C 199.95937 116.41992 194.91434 115.93909 192.97266 115.32031 C 191.76213 114.93451 190.99988 114.71274 190.70703 114.73633 z M 272.8457 116.95312 C 271.60212 116.95778 270.0475 117.019 268.16406 117.15039 C 261.64029 117.59397 254.71942 118.94849 252.76172 120.17578 C 249.94183 121.94264 251.55716 122.16162 260.58789 121.17773 C 272.98832 119.8265 279.5272 117.66554 275.66602 117.10156 L 275.66602 117.0957 C 275.02209 117.00158 274.08928 116.94847 272.8457 116.95312 z M 155.98828 118.34375 C 153.40714 118.34375 142.21094 127.8719 142.21094 130.07227 C 142.21094 132.92944 144.56013 132.11136 149.5625 127.49609 L 154.26367 123.16992 L 152.96289 127.99609 C 152.06455 131.34287 152.21975 131.92915 153.46289 129.92188 C 156.56701 124.89881 157.99472 118.34375 155.99023 118.34375 L 155.98828 118.34375 z M 364.08594 118.54297 C 356.3701 118.55564 345.90536 120.14663 344.0332 122.01953 C 339.47255 126.58019 344.83567 133.96686 359.58594 143.42383 C 376.40203 154.20557 375.43945 153.75555 375.43945 150.92578 C 375.43945 149.76092 372.71476 146.25535 369.38867 143.14844 C 366.0637 140.0419 363.88162 136.97776 364.53711 136.32227 C 365.1913 135.66808 361.2047 132.99361 355.66016 130.37109 C 343.86117 124.7904 346.40572 122.40639 359.43555 126.8457 C 369.45575 130.26014 373.51367 130.68423 373.51367 128.31836 C 373.51367 127.44425 370.26254 125.7438 366.28711 124.54297 L 359.06055 122.36719 L 367.26367 123.26758 C 376.2409 124.2591 378.62604 121.14102 370.46289 119.0918 C 368.92528 118.706 366.65794 118.53738 364.08594 118.54297 z M 280.11914 121.60547 C 276.01351 121.68489 271.13899 122.90626 270.06445 124.64453 C 269.26303 125.94358 270.47396 126.21948 273.4668 125.41992 C 276.01794 124.73778 280.26787 124.14523 282.91797 124.11914 C 286.12124 124.08184 286.92433 123.55384 285.29297 122.51758 C 284.51391 122.02181 283.26353 121.74322 281.81836 121.64258 L 281.81836 121.64453 C 281.27649 121.60749 280.70566 121.59412 280.11914 121.60547 z M 226.67969 123.41211 L 226.67969 123.41992 C 224.20944 123.42722 224.53524 125.52247 228.48047 127.82031 L 228.48047 127.83984 C 232.84208 130.37234 241.87599 130.46896 243.4082 127.98828 C 244.08102 126.9017 242.52224 126.03906 239.80859 126.03906 C 237.16501 126.03906 232.77589 125.19706 230.05664 124.16211 C 228.6439 123.62348 227.5031 123.41025 226.67969 123.41211 z M 315.75195 124.11914 L 315.75 124.12109 C 311.42884 124.12109 307.3573 133.75217 309.59961 138.67383 C 312.68564 145.44716 315.03885 144.52891 314.15039 136.89844 C 313.73104 133.31328 314.34082 129.78972 315.50195 129.07031 C 318.12093 127.45069 318.29768 124.11914 315.75195 124.11914 z M 387.67383 126.84766 C 387.48864 126.84544 387.33622 126.88003 387.2168 126.94727 C 386.26255 127.4859 387.45726 130.21819 391.41797 134.82227 C 394.0362 137.86637 399.70488 140.97096 405.39648 142.5 C 416.86241 145.57653 423.625 145.98641 423.625 143.57617 C 423.625 141.37282 406.26779 134.5651 402.69531 135.37305 C 401.25275 135.69734 398.21027 134.30812 395.94336 132.27344 C 391.85102 128.59777 388.97016 126.86314 387.67383 126.84766 z M 258.20312 128.03125 C 258.00699 128.0411 257.79337 128.06327 257.5625 128.09766 L 257.5625 128.0957 C 255.71736 128.37154 252.83896 129.4157 250.16016 131.04688 L 245.33398 133.99805 L 251.11133 132.77344 C 254.29204 132.10807 257.73334 130.75788 258.73828 129.77344 C 260.03803 128.50304 259.57606 127.96227 258.20312 128.03125 z M 287.21875 130.19531 L 287.21875 130.19727 C 285.8582 130.21587 284.27238 130.34676 282.39258 130.57227 C 269.87827 132.05397 266.74073 134.40905 275.2168 135.92188 C 278.92739 136.58352 286.29475 137.18328 291.5957 137.29883 L 301.24805 137.49805 L 296.42188 133.49609 C 293.47413 131.0456 291.29818 130.12392 287.21875 130.19531 z M 258.48828 136.13672 C 258.37867 136.13451 258.28762 136.15542 258.2168 136.19922 L 258.21289 136.19922 C 257.93146 136.36696 257.95634 136.92696 258.26758 137.84766 C 258.75589 139.32004 261.67678 141.05514 264.76953 141.72461 C 267.86246 142.3937 274.74789 142.93128 280.04883 142.92383 C 289.42417 142.91093 289.32019 142.86821 276.14648 140.64844 C 268.69809 139.40157 261.42943 137.6606 259.99414 136.77344 C 259.32039 136.35689 258.81712 136.14336 258.48828 136.13672 z M 377.51562 139.54883 C 374.36566 139.54883 374.91422 140.90299 381.7168 150.15234 C 388.69142 159.63616 390.86719 160.75791 390.86719 154.82812 C 390.86719 150.66931 381.14923 139.54883 377.51562 139.54883 z M 391.47461 140.27148 C 388.85452 140.34211 398.77026 147.17083 412.47266 154.22656 C 421.25924 158.75105 430.1825 162.49142 432.30273 162.50391 C 434.86561 162.52251 433.47337 161.08265 428.12695 158.25195 C 423.70217 155.91031 415.62006 151.59194 410.17188 148.625 C 404.72406 145.65843 397.94272 142.34511 395.09375 141.27344 C 393.79284 140.78513 392.82774 140.47999 392.16797 140.34766 C 391.87927 140.29035 391.64928 140.26678 391.47461 140.27148 z M 241.73438 140.67188 C 234.44087 140.76507 228.39546 142.8609 230.05664 145.54883 C 230.63628 146.48817 239.51149 147.22681 249.78516 147.15039 C 269.63678 147.01993 269.46028 145.1643 249.21094 141.29883 C 246.742 140.8273 244.16548 140.64215 241.73438 140.67383 L 241.73438 140.67188 z M 358.51172 147.25 C 356.38497 147.25 357.76586 149.70563 362.91211 154.97656 C 370.97405 163.23252 371.58789 163.64619 371.58789 160.90234 C 371.58789 157.62266 361.65907 147.25 358.51172 147.25 z M 293.94531 149.27539 C 293.02274 149.27539 292.76665 149.90609 293.52148 151.125 C 294.17752 152.18548 296.18064 153.03806 297.97266 153.02539 C 300.78211 153.00679 300.83775 152.73642 298.3457 151.125 C 296.45788 149.90423 294.86657 149.27539 293.94531 149.27539 z M 399.39453 156.90234 C 398.86336 156.90234 399.35721 158.63246 400.49414 160.75195 C 401.62918 162.87292 402.99078 164.60352 403.51953 164.60352 C 404.04884 164.60352 403.55685 162.87143 402.41992 160.75195 C 401.28489 158.63116 399.92459 156.90234 399.39453 156.90234 z M 380.35352 157.26562 C 380.24657 157.27359 380.15722 157.30941 380.08984 157.37695 C 379.52139 157.9454 381.81011 161.55724 385.16602 165.37891 C 391.7608 172.89085 394.09616 174.3302 390.96875 168.95508 C 387.78502 163.48449 381.95771 157.14618 380.35352 157.26562 z M 143.39648 164.79102 C 143.81494 164.71034 144.10877 165.87688 144.08594 167.6543 C 144.01134 172.22092 135.00215 208.83028 134.70898 205.78711 C 134.41823 202.76369 142.05354 166.06301 143.21094 164.9043 C 143.27524 164.84 143.33671 164.80254 143.39648 164.79102 z M 419.52148 165.2832 C 418.50459 165.26247 417.61948 165.31062 416.875 165.41406 L 416.875 165.4043 C 412.40866 166.02494 412.90253 168.66812 419.92578 170.63086 C 426.7964 172.5457 431.94683 172.48322 435.15234 170.46289 C 438.68959 168.22599 436.63742 167.39944 422.95117 165.5625 C 421.68679 165.3929 420.53838 165.30394 419.52148 165.2832 z M 361.08398 165.62305 C 359.77872 165.66503 359.97749 168.23327 361.08594 174.60742 L 362.53516 182.91016 L 365.23633 176.45703 C 367.66538 170.61578 367.58444 169.73876 364.46094 167.45508 C 363.29794 166.60333 362.40207 166.00374 361.73633 165.75586 C 361.4867 165.66244 361.27045 165.61705 361.08398 165.62305 z M 124.88086 170.375 C 124.88159 170.37572 124.87825 170.38006 124.87891 170.38086 C 124.87891 170.38086 124.88086 170.38086 124.88086 170.38086 L 124.88086 170.375 z M 124.87891 170.38086 C 124.78277 170.29091 123.98072 170.88629 122.45508 172.08203 C 120.60622 173.53205 119.09126 175.02292 119.08008 175.43164 L 119.08008 175.45117 C 119.09868 176.98692 120.68157 175.98802 123.18164 172.80078 C 124.37134 171.28359 124.96869 170.48955 124.87891 170.38086 z M 398.02539 174.15234 C 397.97036 174.16137 397.92689 174.17805 397.89453 174.20508 L 397.89453 174.20703 C 397.11733 174.85562 402.78142 180.60758 410.09766 185.93555 C 416.43076 190.54765 420.74275 194.83978 419.69922 195.48633 C 417.34583 196.94007 424.80617 204.15578 431.35156 206.76562 C 438.02722 209.42783 438.12619 209.38949 434.5293 205.41406 C 432.77548 203.47555 431.35156 200.97576 431.35156 199.86328 C 431.35156 198.18029 409.23658 180.39827 400.99609 175.45703 C 399.36088 174.47692 398.41062 174.08917 398.02539 174.15234 z M 368.58594 176.77734 C 367.98787 176.85631 367.73828 177.98068 367.73828 180.2832 C 367.73828 182.9689 368.39353 185.82571 369.1875 186.63477 C 369.9796 187.44365 370.90657 186.17805 371.26367 183.83398 C 371.61779 181.49066 370.98783 178.63218 369.83789 177.48242 C 369.46327 177.1078 369.1298 176.8906 368.86328 176.80859 C 368.76334 176.77761 368.67138 176.76606 368.58594 176.77734 z M 416.77539 178.42969 C 416.43891 178.41121 416.12959 178.41369 415.84961 178.43555 L 415.84961 178.43359 C 415.21034 178.48949 414.73251 178.64844 414.44922 178.93359 C 413.85467 179.52814 416.18596 180.98715 419.625 182.18555 C 423.06385 183.38396 429.48474 186.3745 433.9043 188.8125 C 444.50079 194.65692 445.06322 194.50564 437.67969 187.78711 C 432.82241 183.36787 421.82254 178.70684 416.77539 178.42969 z M 382.41602 184.68359 C 382.18118 184.68559 381.97483 184.88365 381.81641 185.30859 C 381.32624 186.62442 382.0387 190.97619 383.41602 194.96094 C 385.33851 200.52058 386.08695 201.26585 386.56836 198.21094 C 387.22814 194.0195 384.06415 184.6726 382.41602 184.68359 z M 366.49219 196.15039 C 366.41661 196.15979 366.3469 196.19609 366.28125 196.26172 L 366.28711 196.26172 C 365.76339 196.78731 365.83631 198.55204 366.45508 200.1875 C 368.12316 204.53196 369.458 203.83192 368.25586 199.23828 C 367.76173 197.34704 367.02121 196.08456 366.49219 196.15039 z M 118.22461 203.91211 C 118.165 203.9237 118.1092 203.94961 118.05469 203.98828 C 116.53944 205.073 117.02773 216.66846 119.1543 220.64258 C 120.25206 222.69292 121.53469 224.36914 122.00586 224.36914 C 123.47451 224.36914 120.60439 206.15018 118.83008 204.21484 C 118.60642 203.97022 118.40344 203.87734 118.22461 203.91211 z M 418.29883 207.86523 C 417.23461 207.95843 418.99997 211.2627 423.52539 216.2168 C 430.21616 223.54217 431.35156 223.85088 431.35156 218.26758 C 431.35156 215.97066 430.75049 214.66906 430.02734 215.39258 C 429.30606 216.11386 426.26414 214.35317 423.27539 211.49023 C 420.57982 208.90834 418.93718 207.80876 418.29883 207.86523 z M 366.84766 209.46289 C 366.58268 209.49802 366.24023 209.64764 365.8125 209.91602 C 364.75015 210.57207 363.93475 212.99554 364.01172 215.31836 C 364.14219 219.39052 364.21524 219.41066 365.8125 215.69336 C 367.52344 211.71551 367.94355 209.65187 367.08789 209.4668 C 367.0166 209.45282 366.93598 209.45118 366.84766 209.46289 z M 393.57422 215.07422 C 393.42255 215.05209 393.28445 215.10226 393.16797 215.21875 C 392.9356 215.45212 392.79492 215.93725 392.79492 216.64258 C 392.79492 218.06091 393.36013 218.65197 394.06836 217.94336 C 394.77659 217.23699 394.77659 216.07831 394.06836 215.36914 C 393.8913 215.19209 393.72588 215.09635 393.57422 215.07422 z M 419.77344 216.64258 C 417.68421 216.65171 417.12166 231.76317 419.02344 236.72266 C 421.07527 242.07058 421.69922 240.07728 421.69922 228.2207 C 421.69922 221.79914 420.84639 216.64835 419.77539 216.64258 L 419.77344 216.64258 z M 373.66211 218.56836 C 372.4256 218.57277 371.58789 222.8722 371.58789 229.17188 C 371.58789 240.036 373.77738 242.65637 377.31445 236.04688 C 380.19472 230.66225 379.75746 228.15217 376.18945 229.52148 C 373.58352 230.52233 373.29385 229.73692 374.41211 224.64453 C 375.26528 220.76185 374.9949 218.5706 373.66406 218.56836 L 373.66211 218.56836 z M 391.81836 222.44531 C 391.28905 222.44531 390.86719 222.86335 390.86719 223.39453 C 390.86719 223.92384 391.28905 224.36914 391.81836 224.36914 C 392.34767 224.36914 392.79297 223.92198 392.79297 223.39453 C 392.79297 222.86708 392.34581 222.44531 391.81836 222.44531 z M 131.1582 222.74414 C 130.89541 222.68824 130.84098 223.66278 130.7832 225.64453 C 130.7273 227.94313 131.26711 231.40542 132.03125 233.34766 C 133.17375 236.25403 133.53129 236.35001 134.0332 233.87305 C 134.36868 232.21616 133.81387 228.75599 132.7832 226.17188 C 131.89232 223.9415 131.42099 222.81273 131.1582 222.74414 z M 402.45703 231.98633 C 401.33429 231.94429 401.22193 235.76493 401.94531 244.125 C 402.47462 250.22066 403.66716 255.20117 404.5957 255.20117 C 406.84247 255.20117 406.72322 237.64992 404.44531 234.04688 C 403.73149 232.9193 403.14262 232.24332 402.69531 232.04688 C 402.61144 232.00995 402.53188 231.98913 402.45703 231.98633 z M 390.19336 235.24023 C 390.06635 235.23926 389.92354 235.2594 389.76758 235.29883 L 389.76758 235.29688 C 388.93447 235.50749 387.69707 236.29216 386.04297 237.84766 C 383.39231 240.33748 381.2653 244.17462 381.29102 246.375 C 381.34692 250.05632 381.71379 249.95089 386.0918 244.97461 C 390.74325 239.69605 392.09843 235.25492 390.19336 235.24023 z M 412.31055 236.89844 L 412.32227 236.92578 L 412.32227 236.89844 L 412.31055 236.89844 z M 412.32227 236.92578 L 412.19336 241.875 C 412.13746 244.61382 412.69333 247.47998 413.4668 248.25195 L 413.48633 248.25195 C 415.77392 250.54066 416.16558 246.56368 414.16016 241.54883 L 412.32227 236.92578 z M 438.95508 237.44727 C 437.07956 237.1882 437.70578 245.30637 440.95508 264.70508 L 445.18164 289.88477 L 437.1543 306.01367 C 431.32293 317.72786 429.32883 323.91972 429.82812 328.66992 L 430.50195 335.19531 L 433.05273 326.54297 C 436.39541 315.17339 445.23577 297.95766 446.23047 300.86328 C 447.49411 304.55467 439.44074 329.21658 434.65234 336.3457 C 425.93081 349.33024 415.97523 344.81826 415.89844 327.84375 C 415.88554 324.46715 415.0263 320.40602 413.99805 318.81641 C 412.68782 316.78825 412.1232 319.7253 412.09766 328.66992 C 412.07906 338.68081 412.9388 342.51051 416.07422 346.49805 C 428.0061 361.66637 448.68164 335.00007 448.68164 304.46289 C 448.68164 292.72484 441.69278 239.86269 439.9043 238.07422 C 439.53341 237.70519 439.22151 237.4865 438.95312 237.44922 L 438.95508 237.44727 z M 399.41992 244.29883 C 398.36502 244.48521 396.80428 249.60718 395.91992 257.60352 C 395.2471 263.69917 395.45518 268.70508 396.39453 268.70508 C 398.44952 268.70508 400.49609 259.21414 400.49609 249.75195 C 400.49609 245.863 400.05173 244.18868 399.41992 244.29883 z M 392.03516 244.54688 C 391.9867 244.55373 391.92882 244.57285 391.86719 244.59961 C 391.36928 244.81851 390.44051 245.69599 389.0918 247.22461 C 386.88286 249.72728 385.0918 254.29041 385.0918 257.35352 C 385.0918 265.1795 388.24343 264.28497 389.79297 256.02734 C 390.50493 252.24145 391.5376 247.67973 392.09375 245.90039 C 392.39219 244.94963 392.37796 244.49841 392.03516 244.54688 z M 315.50391 245.83984 C 315.14646 245.8351 314.76982 245.83866 314.375 245.84961 C 304.89902 246.11427 285.15179 250.87486 278.79297 255.40234 C 275.96954 257.41409 272.32943 259.05273 270.71484 259.05273 C 266.42611 259.05273 259.78034 268.41376 259.91211 274.25781 C 260.00531 278.99888 260.15239 279.06231 262.3125 275.50586 C 268.80887 264.81022 274.07697 261.7223 291.5957 258.25195 C 309.63889 254.67761 319.55078 250.7675 319.55078 247.25 C 319.55078 246.30088 318.00605 245.87304 315.50391 245.83984 z M 332.50781 249.75 C 332.01242 249.76328 330.91635 250.03591 329.17969 250.5 C 326.52921 251.2045 323.53248 252.56093 322.52734 253.50195 C 319.27618 256.53916 326.31072 255.35281 330.25391 252.20117 C 332.05245 250.7642 332.94466 250.0487 332.80469 249.82617 C 332.77207 249.77026 332.67294 249.74557 332.50781 249.75 z M 341.64453 251.50586 C 341.53367 251.51339 341.44577 251.53675 341.38086 251.57617 C 340.86273 251.89115 341.80375 253.22985 344.0332 255.67773 C 346.20561 258.06262 349.08966 262.18259 350.45898 264.83008 C 352.00591 267.81995 353.27058 268.69937 353.78516 267.1543 C 355.38987 262.33831 352.35959 255.83436 347.45898 253.60156 C 344.33029 252.17625 342.42056 251.45315 341.64453 251.50586 z M 408.24805 262.9043 C 406.65266 262.9043 404.38115 267.61986 404.37109 270.90625 C 404.38379 271.92015 405.12618 272.30273 406.04688 271.73242 C 408.3354 270.31968 410.18451 262.9043 408.24805 262.9043 z M 322.57227 262.92188 C 321.49276 262.91593 320.39423 262.9598 319.27734 263.05273 C 310.34222 263.79638 300.31414 267.6843 290.79492 274.58008 C 286.47376 277.70991 282.91797 281.15475 282.91797 282.20703 C 282.91797 283.26007 287.30728 284.10742 292.66992 284.10742 C 298.68003 284.10742 301.98163 283.37091 301.24805 282.18164 C 300.592 281.12302 298.71196 280.25781 297.0957 280.25781 C 292.6711 280.25781 294.76938 276.68996 301.77344 272.25586 L 307.99805 268.30469 L 307.52344 272.55469 C 306.57664 280.71075 313.24595 282.03556 319.62695 274.95508 C 326.01299 267.8692 329.17969 267.00043 329.17969 272.33008 C 329.17969 274.79138 330.89196 276.26637 334.48047 276.88086 C 337.39559 277.38221 341.30031 278.43827 343.15625 279.23242 C 348.23541 281.40484 347.30703 277.31685 341.13086 270.4043 C 336.68904 265.43312 330.1288 262.9635 322.57227 262.92188 z M 181.80469 263.67578 C 174.13027 263.68989 167.00868 264.21609 162.93945 265.35352 C 157.46592 266.88367 155.79804 271.43491 160.03906 273.2793 C 162.84814 274.50007 168.5126 273.72535 181.29492 270.4043 C 188.35601 268.57034 193.72241 268.53015 204.375 270.17773 C 220.5287 272.67798 222.045 272.19914 213.22656 267.40234 C 209.77429 265.52496 199.92647 264.24701 189.57227 263.82617 L 189.57227 263.82812 C 186.98372 263.72282 184.36283 263.67108 181.80469 263.67578 z M 294.51367 265.30078 C 294.02033 265.34062 293.36647 265.48157 292.54492 265.72852 C 279.19806 269.75166 271.36523 274.3842 271.36523 278.23047 C 271.36523 283.57988 273.975 283.20631 283.64258 276.55469 C 292.16107 270.69361 296.60208 266.41774 295.52148 265.47852 C 295.3407 265.32196 295.00701 265.26094 294.51367 265.30078 z M 424.37695 269.15625 C 423.93135 269.16033 423.5143 269.18481 423.125 269.23047 L 423.125 269.22852 C 418.45383 269.77274 417.71081 273.36879 419.19922 282.18164 C 419.99878 286.95216 420.44781 296.28639 420.17383 302.91211 C 419.56624 317.59081 419.59779 317.58711 429.30078 304.03711 C 436.26533 294.31156 437.12891 291.90766 437.12891 282.0332 L 437.12891 270.95508 L 429.17578 269.62891 C 427.30646 269.313 425.71375 269.14402 424.37695 269.15625 z M 194.96875 276.35742 C 193.63531 276.35924 192.30866 276.42511 190.99609 276.55469 C 175.24515 278.10908 161.49023 288.4782 161.49023 301.58594 C 161.49023 302.97072 162.75115 303.23871 164.86523 302.31055 C 166.71968 301.49422 171.46486 300.45172 175.39258 299.98633 C 182.05576 299.19609 182.45548 298.78371 181.44531 293.73438 C 180.5973 289.49149 181.27725 287.83021 184.5957 286.05664 C 189.69722 283.32603 191.85358 284.85054 188.54688 288.83398 C 186.55358 291.2362 186.98068 292.10695 191.04688 293.95898 C 198.71201 297.45151 202.52795 294.92993 201.59961 286.98242 C 200.48134 277.4058 214.21258 281.82118 223.95508 294.18359 C 227.70164 298.93882 228.90416 299.65245 228.92969 297.03516 C 228.96699 290.50617 223.23753 282.26497 217.82812 281.08203 C 214.93201 280.44835 210.04834 279.15602 206.97461 278.18164 C 203.03217 276.93478 198.96906 276.35198 194.96875 276.35742 z M 184.3457 280.42969 L 184.3457 280.43164 L 189.44727 280.58008 L 184.51953 282.08008 C 181.80737 282.90387 177.4556 284.61461 174.86719 285.88086 L 170.16602 288.18164 L 174.71875 284.20703 C 177.2218 282.02735 181.54798 280.32736 184.3457 280.42969 z M 333.95508 282.64453 C 331.7952 282.3389 322.00118 287.49951 320.52734 289.88281 C 319.86756 290.94889 320.56476 291.83398 322.07812 291.83398 C 325.22492 291.83398 335.61832 284.11851 334.28125 282.78125 L 334.2793 282.78125 C 334.20789 282.70984 334.09907 282.66491 333.95508 282.64453 z M 208.82617 288.0332 C 207.70418 288.0705 208.46779 289.35214 210.52539 290.9082 C 212.58281 292.46445 215.17869 293.70913 216.30273 293.68359 C 217.42659 293.64629 216.65916 292.36484 214.60156 290.80859 C 212.54339 289.25234 209.95039 288.00748 208.82617 288.0332 z M 339.78125 295.68555 L 332.08008 297.13477 C 327.83943 297.92501 317.18711 298.46826 308.42383 298.33594 C 292.78174 298.10483 288.50369 301.35696 300.89648 304.06055 C 309.03259 305.83487 322.52774 303.95004 331.10352 299.83594 L 339.78125 295.68555 z M 253.66211 301.98633 C 252.28664 302.07953 250.76092 309.99626 251.88477 313.03906 C 252.57437 314.8991 253.36937 313.85746 254.11133 310.13867 C 254.74315 306.95814 254.79946 303.48411 254.24219 302.43555 C 254.05581 302.09448 253.86358 301.97328 253.66602 301.98633 L 253.66211 301.98633 z M 212.68164 306.19727 C 212.44315 306.20795 212.10669 306.26399 211.67578 306.36328 C 210.5277 306.62794 208.68591 307.20259 206.17578 308.08789 C 202.12934 309.51554 192.23279 312.14576 184.16992 313.93945 C 176.10705 315.7324 167.9278 318.39695 165.99023 319.86523 C 156.96695 326.70398 189.89842 320.4126 203.42383 312.71484 C 211.2975 308.23291 214.35108 306.1225 212.68164 306.19727 z M 278.8418 333.04297 C 277.96024 333.0439 277.28011 333.17427 276.81641 333.46875 C 273.84033 335.30829 275.19311 337.85477 280.49219 340.39453 C 293.45641 346.60798 271.68518 370.85156 253.13672 370.85156 C 250.44412 370.85156 248.23438 371.82838 248.23438 373.02734 C 248.23438 382.89844 278.35295 367.68668 287.74414 353.07227 C 294.96272 341.83856 292.41328 341.56212 319.70117 356.64844 C 332.4121 363.67636 343.24061 368.99395 343.75781 368.47656 C 348.96239 363.27216 292.07721 333.0303 278.8418 333.04297 z M 217.51758 346.65039 C 216.0913 346.63843 213.80114 348.10011 209.80078 350.74805 C 194.57879 360.82137 182.73241 382.25688 188.52148 389.23242 C 192.0291 393.45909 194.32076 392.00465 197.17383 383.70508 C 199.418 377.1774 204.0779 369.54731 212.72656 358.32422 C 215.6976 354.46938 215.7004 354.46938 218.70312 358.32422 C 221.53661 361.96119 221.65208 361.76754 220.60352 354.72266 C 219.86173 349.74843 219.44632 347.24781 218.07812 346.74609 C 217.90712 346.68342 217.72133 346.6521 217.51758 346.65039 z M 424.61914 356.34961 C 421.73205 356.45089 421.58887 362.3805 421.32422 378.05469 C 420.67749 416.43799 420.44772 420.91676 419.125 422.24023 C 418.41863 422.94473 417.84961 421.8694 417.84961 419.83789 C 417.84461 417.80582 413.72759 423.30425 408.69727 432.06641 C 397.63447 451.33709 376.86108 477.83493 355.36133 501.73242 L 372.63867 501.73242 C 388.10053 479.92739 398.85376 463.29833 407.22266 447.94531 C 416.98567 430.03239 416.99731 433.37411 407.24023 454.79688 C 401.95177 466.41564 392.02933 482.86693 379.16016 501.73242 L 386.91211 501.73242 C 422.1447 448.07569 432.78887 416.40526 428.0957 383.80469 C 426.79106 374.68898 426.82208 370.95285 428.24414 371.42773 C 431.55345 372.53109 439.08717 388.68695 440.12305 396.93359 C 441.00276 403.94548 440.88137 404.19182 438.77344 399.75977 C 436.65265 395.30032 436.37403 395.82781 434.97266 407.13477 C 431.86575 432.19824 419.53495 460.68933 393.36328 501.73242 L 399.66406 501.73242 C 414.36402 477.30096 426.1605 454.54519 434.52344 433.49219 C 437.83201 425.13783 438.80125 423.79262 437.94727 428.66602 C 435.02189 445.34623 423.4521 469.91166 403.81445 501.73242 L 415.66797 501.73242 C 442.99742 440.44241 449.66727 419.68355 448.97656 402.16016 C 448.79018 397.65449 449.48922 393.95703 450.52734 393.95703 C 451.56732 393.95703 451.9121 395.26883 451.30078 396.85938 C 450.68201 398.46967 451.24545 399.75977 452.57617 399.75977 C 462.30675 399.75977 449.28295 373.85088 433.42188 361.67578 C 429.0914 358.35239 426.36099 356.30219 424.625 356.34961 L 424.62305 356.34961 L 424.61914 356.34961 z M 435.59375 370.96289 C 435.67683 370.94591 435.77118 370.95196 435.87695 370.97852 L 435.87891 370.97656 C 437.15187 371.29526 439.86624 374.64207 441.1543 378.0293 C 442.16633 380.72375 442.61163 383.32328 442.12891 383.80469 C 441.2753 384.6583 435.20313 374.11022 435.20312 371.77734 C 435.20312 371.26853 435.3445 371.01382 435.59375 370.96289 z M 454.58203 372.22656 C 453.32026 372.20796 456.23759 377.8293 464.13477 389.65625 C 475.65334 406.90554 487.34405 420.4174 505.07617 434.74023 L 505.07617 429.39062 C 495.55819 420.84134 488.19404 411.88671 478.26367 399.08203 C 464.71292 381.60878 456.20352 372.25545 454.58203 372.22656 z M 335.2793 374.42773 C 332.16103 374.41503 324.91127 377.80986 316.85156 383.32812 C 309.7791 388.16947 303.75948 391.10404 303.09766 390.03125 C 302.43602 388.96145 300.23829 390.04309 298.0957 392.50586 L 294.29492 396.88281 L 295.47266 392.55664 C 296.94132 387.22885 294.37313 387.09915 266.54102 391.13086 C 255.93988 392.66661 246.06554 393.94259 244.60938 393.95508 C 242.47816 393.97368 242.45073 394.54984 244.38477 396.88086 C 247.99173 401.22737 270.16692 400.67886 280.51758 395.98047 C 288.63263 392.28778 288.7207 392.27547 288.7207 396.03711 C 288.7207 403.20668 277.97222 407.48814 259.78906 407.51367 C 247.92633 407.53227 244.21679 408.09884 246.31055 409.54102 C 252.2366 413.62381 281.01417 410.58956 292.57031 404.66406 C 303.67486 398.96968 336.90625 377.20957 336.90625 375.63281 C 336.90625 374.8258 336.31938 374.43537 335.28125 374.43164 L 335.2793 374.42773 z M 368.69922 377.31055 C 368.54843 377.26747 368.36038 377.36812 368.13672 377.60156 C 367.11724 378.66205 365.77287 385.16357 365.16211 392.05469 C 363.95253 405.73665 366.25239 401.20357 368.58789 385.2793 C 369.26444 380.66366 369.34297 377.94339 368.83789 377.40234 C 368.79596 377.35575 368.74948 377.3249 368.69922 377.31055 z M 255.61133 380.65234 C 255.3504 380.67094 254.60504 381.54222 253.21094 383.25391 C 251.53354 385.31189 250.16016 387.6996 250.16016 388.55469 C 250.16016 389.41389 251.02508 390.12891 252.08594 390.12891 C 253.14456 390.12891 254.01172 389.32827 254.01172 388.35352 C 254.01172 387.38063 254.51795 384.99478 255.13672 383.05273 C 255.64926 381.43684 255.8742 380.62382 255.61328 380.65234 L 255.61133 380.65234 z M 175.54297 388.92969 C 174.19919 390.27347 187.87846 416.09962 193.42188 422.6875 C 202.573 433.56392 200.56834 427.71585 188.29688 407.66016 C 181.72316 396.91755 175.9873 388.48556 175.54297 388.92969 z M 212.52734 392.05664 C 202.2408 392.05664 202.55242 394.99369 213.05273 396.88281 C 217.02313 397.59664 224.63107 400.18814 229.93164 402.6582 C 242.57529 408.55182 244.08628 408.50982 238.45898 402.4082 C 232.20416 395.62537 223.25801 392.05664 212.52734 392.05664 z M 439.83398 417.44141 C 439.98565 417.46354 440.15302 417.55927 440.33008 417.73633 C 441.03832 418.4427 441.03832 419.6012 440.33008 420.31055 C 439.62185 421.01692 439.05469 420.44239 439.05469 419.03711 C 439.05469 418.32701 439.20417 417.81892 439.42969 417.58594 C 439.54617 417.46945 439.68232 417.41928 439.83398 417.44141 z M 473.20898 423.16211 C 473.12674 423.18494 473.08687 423.23567 473.08789 423.3125 C 473.09589 423.92755 475.76537 426.28821 481.11328 430.51562 C 487.4995 435.56347 491.18574 440.12434 492.04102 444.01758 C 493.79297 451.9962 497.74002 451.732 496.14258 443.74219 C 494.62547 436.16017 490.35368 431.27818 481.06445 426.53711 C 476.40133 424.15859 473.78467 423.00229 473.20898 423.16211 z M 464.10938 440.24219 C 463.04703 440.24219 462.18555 441.1073 462.18555 442.16797 C 462.18555 443.22659 463.0487 444.09375 464.10938 444.09375 C 465.16987 444.09375 466.03516 443.22864 466.03516 442.16797 C 466.03516 441.10935 465.16987 440.24219 464.10938 440.24219 z M 484.29102 442.91211 C 484.14412 442.90975 484.01848 442.95258 483.91406 443.04297 C 483.49658 443.40268 483.38867 444.52832 483.38867 446.59375 C 483.38867 449.2856 482.31156 451.93724 480.98828 452.49414 C 479.26243 453.21914 479.524 454.11725 481.93945 455.64648 C 483.93257 456.90825 485.31445 460.14628 485.31445 463.57227 C 485.31445 466.94738 486.11805 468.89049 487.24023 468.19922 C 490.37435 466.26257 489.6103 446.84971 486.28906 444.09375 C 485.37348 443.33473 484.73171 442.91919 484.29102 442.91211 z M 197.46289 447.38086 C 197.299 447.36618 197.09647 447.42727 196.84766 447.56836 C 195.85427 448.13308 194.14301 449.98308 191.22266 453.39453 C 183.56982 462.33524 178.95573 463.70226 178.61914 457.12109 C 178.43276 453.6856 178.20983 453.50992 177.49414 456.27148 C 177.0021 458.18818 177.05549 460.99281 177.64258 462.52148 C 179.8888 468.37541 197.91605 463.21863 202.02344 455.54492 C 204.00985 451.83209 203.90351 451.39056 201.22266 452.41992 C 198.94811 453.29217 198.09766 452.49397 198.09766 449.46875 C 198.09766 448.15339 197.95458 447.42491 197.46289 447.38086 z M 503.3418 450.0957 C 503.30364 450.08883 503.26269 450.09837 503.21875 450.11914 C 501.99612 450.73419 498.51401 462.13674 491.41602 487.45312 C 489.925 492.76954 488.88558 496.98885 487.61523 501.73047 L 497.29297 501.73047 C 498.6908 499.93939 500.13618 498.59179 501.64453 497.98047 C 505.39855 496.45963 505.37675 496.36947 501.16797 496.25391 C 493.2488 496.03399 493.83917 478.62967 501.81836 477.15039 C 503.00811 476.92965 504.09697 476.59298 505.07617 476.16797 L 505.07617 473.25781 C 503.14448 473.76248 502.44576 469.1675 503.26953 459.99609 C 503.83565 453.69502 503.94044 450.20353 503.3418 450.0957 z M 448.55664 457.5957 C 447.34705 457.5957 446.82102 458.84969 447.40625 460.37109 C 447.98961 461.8938 446.80661 465.24793 444.78125 467.82422 C 442.75421 470.40014 441.65801 473.05365 442.33008 473.72461 C 444.55972 475.95405 446.75586 474.97838 446.75586 471.77344 C 446.75586 470.03454 448.21967 467.56261 449.98242 466.27344 C 453.39369 463.77934 452.37644 457.5957 448.55664 457.5957 z M 164.91406 462.16406 C 164.56635 462.19009 164.15526 462.31652 163.66602 462.52344 C 161.94389 463.25776 157.49946 464.44072 153.78906 465.12305 L 147.03711 466.34766 L 155.71484 471.57422 C 166.7016 478.19416 166.34858 478.28584 166.5918 469.02344 C 166.72227 464.13961 166.47964 462.31297 165.24023 462.17188 C 165.13773 462.1579 165.02997 462.15539 164.91406 462.16406 z M 477.61328 463.37305 C 476.55279 463.37305 475.73572 466.624 475.8125 470.59961 C 475.9057 476.39781 476.28441 477.06736 477.61328 473.97461 C 479.91485 468.6185 479.91485 463.37305 477.61328 463.37305 z M 199.24414 468.02734 C 198.66581 468.07954 197.63965 468.79743 196.14844 470.14844 C 193.18038 472.83507 192.82809 474.02211 194.69727 475.17578 C 196.23488 476.12631 197.65269 475.46909 198.47461 473.39844 C 199.64409 470.45126 200.04686 468.72858 199.67383 468.19922 C 199.58017 468.06736 199.43692 468.00994 199.24414 468.02734 z M 220.30273 472.19922 C 217.30932 472.14332 215.18945 475.21306 212.62695 482.47656 C 208.59598 493.90094 208.89779 495.16573 214.67773 491.37891 C 221.48162 486.92077 222.22002 488.55393 217.87891 498.38086 C 217.39992 499.46558 217.19716 500.60577 216.82812 501.73242 L 223.38086 501.73242 C 223.80766 492.01526 224.35693 484.52625 225.08008 483.80273 C 226.37354 482.50927 227.03125 483.54895 227.03125 486.95312 C 227.03125 489.7527 227.79975 492.51327 228.75586 493.10352 C 229.27399 493.42409 229.89827 496.90543 230.50586 501.73242 L 243.80859 501.73242 C 235.30885 487.22108 227.10764 475.11191 223.62891 473.25 C 222.38763 472.5865 221.30256 472.21609 220.30469 472.20117 L 220.30273 472.19922 z M 146.95312 475.25391 C 146.80536 475.26966 146.74913 475.31912 146.78711 475.40625 C 146.93621 475.75477 148.59497 476.73172 151.86328 478.60742 C 155.57387 480.73585 160.76536 482.40834 163.41602 482.38281 C 169.20956 482.28961 160.80612 477.9955 150.6875 475.88086 C 148.66359 475.45871 147.39641 475.20664 146.95312 475.25391 z M 486.08984 475.25586 C 484.14458 475.57281 477.61328 487.24893 477.61328 490.80273 C 477.60828 492.65905 478.00743 494.17969 478.48828 494.17969 C 479.87866 494.17969 487.39674 476.33033 486.41602 475.34961 C 486.3304 475.26399 486.21953 475.23473 486.08984 475.25586 z M 457.58398 475.65625 C 456.89305 475.68884 456.4082 476.46241 456.4082 477.70508 C 456.4082 479.35639 457.2733 480.70703 458.33398 480.70703 C 459.39446 480.70703 460.25977 479.87612 460.25977 478.88086 C 460.25977 477.88374 459.39465 476.53635 458.33398 475.88086 C 458.0684 475.71685 457.81429 475.64539 457.58398 475.65625 z M 116.0625 477.46875 C 115.94872 477.47077 115.85292 477.50646 115.7793 477.58008 C 115.19035 478.16903 116.18663 480.9315 118.00586 483.70703 C 119.8249 486.48293 121.8173 488.27254 122.40625 487.68359 C 122.9952 487.09464 121.97436 484.33217 120.15625 481.55664 C 118.56622 479.12789 116.85893 477.45458 116.0625 477.46875 z M 435.94922 477.53516 C 435.84415 477.54181 435.74374 477.56434 435.65234 477.59961 C 434.42945 478.07688 434.44232 481.10927 436.27734 485.50195 C 437.80377 489.15532 439.05273 493.89839 439.05273 496.05273 C 439.05273 498.20744 440.03142 499.97852 441.22852 499.97852 C 444.07507 499.97852 442.34512 483.68629 439.07812 479.75 C 437.76206 478.16486 436.68932 477.48827 435.94922 477.53516 z M 131.75195 479.04297 C 131.6731 479.06155 131.5993 479.10187 131.5332 479.16797 C 131.00016 479.69728 131.12086 481.60605 131.80859 483.39453 C 132.49632 485.18188 133.48083 486.19997 134.00977 485.66992 C 134.54281 485.1406 134.42211 483.25723 133.73438 481.46875 C 133.13261 479.90645 132.30393 478.91293 131.75195 479.04297 z M 466.37305 479.13086 C 466.2581 479.10471 466.13799 479.11172 466.01172 479.15039 L 466.00977 479.15039 C 465.50469 479.29949 464.89929 479.96842 464.13477 481.17578 C 462.9606 483.0321 460.74585 484.55078 459.20898 484.55078 C 456.33132 484.55078 455.08232 496.07898 457.68359 498.67969 C 460.45185 501.44795 463.36379 499.53105 469.41211 490.90234 C 474.48921 483.66176 474.68232 482.625 471.01367 482.625 C 469.51147 482.625 467.8427 481.54789 467.28711 480.22461 C 467.01593 479.57742 466.71787 479.20931 466.37305 479.13086 z M 188.02148 480.76953 C 186.08576 480.76953 184.62109 481.39659 184.62109 482.62109 C 184.62109 483.67785 187.45111 484.53378 190.89648 484.52148 C 195.65097 484.50288 196.46728 484.04073 194.27344 482.62109 C 192.37891 481.39659 189.95738 480.76953 188.02148 480.76953 z M 144.10547 482.99414 C 141.6372 483.12797 141.88963 485.33971 144.12891 491.24609 C 145.73921 495.48021 146.63151 495.94688 149.80664 494.24805 C 157.9079 489.91217 157.02863 485.87162 147.50586 483.51953 C 146.05342 483.16061 144.9359 482.9543 144.11133 482.99414 L 144.10547 482.99414 z M 297.94336 487.2168 C 295.70457 487.2604 291.30722 488.07765 284.61914 489.64648 C 272.01127 492.60392 271.06361 493.13132 276.19141 494.27344 C 283.21373 495.83528 290.07664 494.65814 296.0957 490.89648 C 299.67489 488.65865 300.62761 487.44943 298.77148 487.24609 C 298.53944 487.2207 298.26319 487.21057 297.94336 487.2168 z M 177.52148 488.96484 C 176.85993 488.9702 176.25049 488.99036 175.69336 489.02344 L 175.69336 489.02148 C 169.00837 489.41846 170.01894 491.71791 180.99414 493.47266 C 186.40226 494.33745 188.38123 495.47927 187.67188 497.32422 C 186.23304 501.07358 190.5396 500.50883 196.14844 496.19922 C 202.37233 491.41715 201.71919 491.00903 184.8457 489.34766 C 181.95681 489.06389 179.50616 488.94877 177.52148 488.96484 z M 448.58203 490.32227 C 447.58491 490.32227 446.80593 492.70969 446.83203 495.625 C 446.88793 500.64824 447.03374 500.73931 449.65625 497.27344 C 452.44297 493.59044 451.94129 490.32227 448.58203 490.32227 z M 427.55078 492.24805 C 425.81002 492.24805 421.69922 498.31101 421.69922 500.875 C 421.69922 501.51241 423.43129 501.11151 425.55078 499.97461 C 429.47626 497.87358 430.9326 492.24805 427.55078 492.24805 z M 139.61133 493.25781 C 139.04291 493.25741 138.55296 493.9074 137.85938 495.14844 C 136.94053 496.79042 137.78423 499.19714 139.55859 501.72461 L 150.16211 501.72461 C 147.03862 500.61007 144.24632 498.96837 142.75977 496.69922 C 141.38617 494.60397 140.54152 493.51241 139.85938 493.29883 L 139.85938 493.29688 C 139.77411 493.27008 139.69253 493.25787 139.61133 493.25781 z M 473.14648 496.91406 C 472.15398 496.93346 471.28527 497.53797 471.01172 498.52344 C 470.91852 498.90178 470.4044 500.82552 470.16211 501.72461 L 475.83789 501.72461 C 475.39804 499.21354 474.84052 497.35766 474.16211 497.09766 C 473.82104 496.96673 473.47732 496.9076 473.14648 496.91406 z M 174.43555 497.09766 C 173.87629 497.15767 173.38996 497.46008 173.01758 498.04297 C 172.19007 499.35507 171.89605 500.54551 171.64258 501.71875 L 179.76953 501.71875 C 178.63822 499.30591 176.66888 497.38296 175.01758 497.11719 C 174.81676 497.08457 174.62197 497.07765 174.43555 497.09766 z "
       transform="translate(-782.11424,-23.969541)"
       id="path4480" />
  </g>
</svg>
