<?xml version="1.0" encoding="UTF-8" standalone="no"?>
<!-- Created with Inkscape (http://www.inkscape.org/) -->

<svg
   xmlns:dc="http://purl.org/dc/elements/1.1/"
   xmlns:cc="http://creativecommons.org/ns#"
   xmlns:rdf="http://www.w3.org/1999/02/22-rdf-syntax-ns#"
   xmlns:svg="http://www.w3.org/2000/svg"
   xmlns="http://www.w3.org/2000/svg"
   xmlns:sodipodi="http://sodipodi.sourceforge.net/DTD/sodipodi-0.dtd"
   xmlns:inkscape="http://www.inkscape.org/namespaces/inkscape"
   width="512"
   height="512"
   viewBox="0 0 512.00001 512.00001"
   id="svg5363"
   version="1.1"
   inkscape:version="0.91 r13725"
   sodipodi:docname="dave.svg">
  <defs
     id="defs5365" />
  <sodipodi:namedview
     id="base"
     pagecolor="#47a0f2"
     bordercolor="#666666"
     borderopacity="1.0"
     inkscape:pageopacity="0"
     inkscape:pageshadow="2"
     inkscape:zoom="0.98994949"
     inkscape:cx="895.26931"
     inkscape:cy="106.75876"
     inkscape:document-units="px"
     inkscape:current-layer="layer1"
     showgrid="false"
     units="px"
     fit-margin-top="6"
     fit-margin-left="6"
     fit-margin-right="6"
     fit-margin-bottom="6"
     inkscape:window-width="3440"
     inkscape:window-height="1411"
     inkscape:window-x="0"
     inkscape:window-y="0"
     inkscape:window-maximized="1"
     showguides="true"
     inkscape:guide-bbox="true">
    <sodipodi:guide
       position="442.44682,248.49753"
       orientation="0,1"
       id="guide5952" />
    <sodipodi:guide
       position="377.79706,459.61942"
       orientation="0,1"
       id="guide5954" />
    <sodipodi:guide
       position="410.12194,125.25892"
       orientation="0,1"
       id="guide5956" />
    <sodipodi:guide
       position="454.56865,26.263967"
       orientation="0,1"
       id="guide5958" />
    <sodipodi:guide
       position="251.52799,248.49753"
       orientation="1,0"
       id="guide5977" />
  </sodipodi:namedview>
  <metadata
     id="metadata5368">
    <rdf:RDF>
      <cc:Work
         rdf:about="">
        <dc:format>image/svg+xml</dc:format>
        <dc:type
           rdf:resource="http://purl.org/dc/dcmitype/StillImage" />
        <dc:title></dc:title>
      </cc:Work>
    </rdf:RDF>
  </metadata>
  <g
     inkscape:label="Ebene 1"
     inkscape:groupmode="layer"
     id="layer1"
     transform="translate(782.11424,23.969541)">
    <g
       id="g6022"
       transform="matrix(18.637736,0,0,18.637736,569.72052,-8040.0916)">
      <path
         inkscape:connector-curvature="0"
         id="path4387"
         d="m -58.173466,431.57524 c -0.76201,-0.004 -0.52396,0.93546 -1.03244,0.12941 -1.31815,-0.10112 -2.49758,0.72937 -3.66401,1.24366 -1.50747,0.34081 -1.51209,2.11825 -2.64746,2.62485 -0.68817,1.35934 -1.72044,2.63165 -1.82723,4.20957 -0.2368,2.49132 0.54185,5.02767 2.06377,7.00283 0.46874,1.55466 0.46144,3.2485 1.21369,4.72877 0.31365,0.90235 1.49263,2.256 -0.23616,2.18131 -2.32787,0.48593 -4.36768,1.72899 -6.37032,2.95174 0.13683,0.49196 0.13877,1.16012 0.82709,0.93165 10.23916,2e-4 20.47833,3.9e-4 30.71749,5.9e-4 0.63094,-1.02312 -0.41051,-1.3672 -1.23071,-1.77919 -2.25657,-1.30678 -4.77903,-2.44441 -6.2518,-4.70818 -0.49988,-0.88551 -1.38642,-1.48385 -2.10373,-1.64067 -0.67083,-0.58941 0.99735,-1.42417 0.726,-2.44184 -0.0639,-1.38517 0.30519,-2.5625 0.0905,-3.99633 0.20909,-1.59834 0.67216,-3.29461 -0.31468,-4.75246 -0.49217,-1.198 -1.32659,-2.22281 -1.74565,-3.43316 -0.46822,-0.16453 -0.22713,1.4098 -0.23132,0.10675 0.30309,-0.75462 -1.15757,-2.72071 -1.93876,-1.44106 0.45849,-1.17187 -1.21667,-1.06235 -1.47465,-0.56249 -0.4264,-1.1043 -1.53279,-0.34495 -2.2133,-0.41773 -0.61787,1.03793 -1.12654,0.0203 -1.64212,-0.48853 -0.44278,0.0678 -0.10564,-0.55792 -0.71418,-0.44949 z m -0.65627,0.60739 c 0.20265,0.17316 -0.23267,0.19481 0,0 z m -6.4043,3.1523 c 0,0 0,0 0,0 z"
         style="color:#000000;font-style:normal;font-variant:normal;font-weight:normal;font-stretch:normal;font-size:medium;line-height:normal;font-family:sans-serif;text-indent:0;text-align:start;text-decoration:none;text-decoration-line:none;text-decoration-style:solid;text-decoration-color:#000000;letter-spacing:normal;word-spacing:normal;text-transform:none;direction:ltr;block-progression:tb;writing-mode:lr-tb;baseline-shift:baseline;text-anchor:start;white-space:normal;clip-rule:nonzero;display:inline;overflow:visible;visibility:visible;opacity:1;isolation:auto;mix-blend-mode:normal;color-interpolation:sRGB;color-interpolation-filters:linearRGB;solid-color:#000000;solid-opacity:1;fill:#ffffff;fill-opacity:1;fill-rule:nonzero;stroke:none;stroke-width:1;stroke-linecap:round;stroke-linejoin:bevel;stroke-miterlimit:4;stroke-dasharray:none;stroke-dashoffset:0;stroke-opacity:1;color-rendering:auto;image-rendering:auto;shape-rendering:auto;text-rendering:auto;enable-background:accumulate" />
      <path
         style="display:inline;fill:#000000;stroke:none;stroke-width:2;stroke-linecap:round;stroke-linejoin:bevel;stroke-miterlimit:4;stroke-dasharray:none;stroke-opacity:1"
         d="m -58.188146,432.01749 c -0.0359,-0.001 -0.0767,0.005 -0.11404,0.0201 -0.0827,0.0328 -0.0574,0.0576 0.0631,0.0631 0.10909,0.004 0.16979,-0.0207 0.13551,-0.055 -0.0172,-0.017 -0.0486,-0.0267 -0.0845,-0.0282 z m -1.3846,0.0912 c -0.67931,0 -3.84983,1.49222 -4.23031,1.99105 -0.23598,0.30935 -0.89222,2.04483 -0.89222,2.36 0,0.0776 0.1071,0.0313 0.25895,-0.11136 0.14219,-0.13359 0.25894,-0.32482 0.25894,-0.42531 0,-0.10047 0.0458,-0.21076 0.10197,-0.24552 0.0561,-0.0347 0.17615,-0.31819 0.267,-0.63059 0.30195,-1.03866 1.03633,-1.55395 3.37967,-2.36805 1.08359,-0.37646 1.37512,-0.57022 0.856,-0.57022 z m 1.80723,0.32334 c -0.0656,0 -0.13134,0.006 -0.18113,0.0188 -0.0995,0.0261 -0.0179,0.0483 0.18113,0.0483 0.19898,0 0.28071,-0.0223 0.18113,-0.0483 -0.0498,-0.0129 -0.11553,-0.0188 -0.18113,-0.0188 z m -0.77549,0.29786 -0.51789,0.059 c -0.91243,0.1043 -1.39534,0.2603 -1.39534,0.44946 0,0.0956 -0.0565,0.22964 -0.12477,0.29785 -0.25235,0.25235 0.17584,0.11945 1.10688,-0.34347 l 0.93112,-0.46287 z m 1.12835,0 c -0.11487,-0.0343 -0.37589,0.10488 -0.63192,0.36091 -0.22322,0.22321 -0.46229,0.36225 -0.62389,0.36225 -0.37442,0 -1.0626,0.2217 -1.0626,0.34213 0,0.16253 1.42134,-0.0112 1.90115,-0.23211 0.3704,-0.17064 0.39249,-0.19752 0.16771,-0.20796 l -0.25895,-0.0121 0.28445,-0.21199 c 0.15641,-0.11671 0.28443,-0.25504 0.28443,-0.30724 0,-0.0524 -0.022,-0.0825 -0.0604,-0.0939 z m 2.75581,0.008 c -0.2638,0.008 -0.26372,0.009 0.0456,0.15026 0.43116,0.19727 0.68461,0.19346 0.41994,-0.007 -0.1104,-0.0835 -0.32002,-0.14906 -0.46555,-0.14357 z m -0.98882,0.20125 c -0.057,0 -0.033,0.0455 0.0523,0.10063 0.0853,0.0552 0.20073,0.10062 0.2576,0.10062 0.057,0 0.0343,-0.0455 -0.051,-0.10062 -0.0853,-0.0552 -0.20207,-0.10063 -0.25895,-0.10063 z m 2.79203,0 c -0.057,0 -0.033,0.0455 0.0523,0.10063 0.0853,0.0552 0.20206,0.10062 0.25894,0.10062 0.0569,0 0.033,-0.0455 -0.0523,-0.10062 -0.0853,-0.0552 -0.20206,-0.10063 -0.25894,-0.10063 z m -1.12835,0.34481 c -0.0986,10e-4 -0.10244,0.0655 0.0403,0.21735 0.13194,0.14044 0.27691,0.23259 0.32334,0.20394 0.0887,-0.0548 0.81437,0.37419 0.81574,0.483 6.9e-4,0.0348 -0.1154,0.042 -0.2576,0.0148 -0.14219,-0.0271 -0.2576,-0.0222 -0.2576,0.0121 0,0.0927 0.71553,0.37861 1.18872,0.47495 0.64496,0.13141 0.64901,0.12451 0.15564,-0.32468 -0.56783,-0.51698 -1.7127,-1.08545 -2.00849,-1.08139 z m -2.83496,0.0308 c -0.25323,-0.003 -0.47958,0.0342 -0.50716,0.1127 -0.0335,0.0955 0.13981,0.12749 0.66145,0.12611 0.55045,-0.003 0.66537,-0.0283 0.51788,-0.11404 -0.13814,-0.0803 -0.41894,-0.12202 -0.67217,-0.12477 z m 1.37119,0.0657 c -0.0896,0.006 0.0489,0.0894 0.49508,0.32469 0.38178,0.20135 0.73849,0.45142 0.79427,0.55545 0.10598,0.19805 1.56625,1.48106 2.64041,2.31975 0.5453,0.42576 0.88685,0.59821 0.88685,0.44813 0,-0.29006 -4.18806,-3.55829 -4.65427,-3.63192 -0.0775,-0.0123 -0.13247,-0.0183 -0.16234,-0.0161 z m 3.96599,0.0912 c -0.0188,-0.001 -0.033,0.003 -0.0443,0.0148 -0.0822,0.0822 0.45451,0.87205 0.67754,0.99686 0.25234,0.1412 0.26017,0.0457 0.0255,-0.33408 -0.22846,-0.36965 -0.52716,-0.669 -0.65876,-0.67754 z m -9.95523,0.23346 c -0.0525,-0.0208 -0.15874,0.053 -0.34749,0.23747 -0.21581,0.21093 -0.28743,0.3381 -0.19187,0.3381 0.2311,0 0.61663,-0.35152 0.57424,-0.52325 -0.007,-0.0276 -0.0174,-0.0454 -0.0349,-0.0523 z m 5.77726,0.0912 c -0.1583,-0.0303 -0.25622,-1.4e-4 -0.21602,0.10465 0.0471,0.12284 -0.0596,0.24172 -0.39579,0.43872 -0.47428,0.27796 -0.55825,0.40146 -0.33273,0.4924 0.22955,0.0925 0.68418,0.0715 0.74999,-0.0349 0.0352,-0.0568 0.0147,-0.1033 -0.0456,-0.1033 -0.46624,0 0.20779,-0.35683 0.8211,-0.43471 l 0.25894,-0.0335 -0.25894,-0.17173 c -0.20368,-0.1361 -0.42265,-0.2273 -0.58094,-0.2576 z m -1.84347,0.0134 c -0.0483,-0.019 -0.20772,0.0154 -0.46824,0.10734 -0.24355,0.0859 -0.52933,0.15698 -0.63596,0.15698 -0.10658,0 -0.19454,0.0524 -0.19454,0.11672 0,0.1656 0.76937,0.0482 1.09883,-0.16771 0.1854,-0.12148 0.24822,-0.19433 0.19991,-0.21333 z m 5.52771,0.0631 c -0.025,0 -0.0508,0.009 -0.0698,0.0282 -0.0379,0.0379 -0.006,0.0698 0.0698,0.0698 0.0761,0 0.10648,-0.0317 0.0684,-0.0698 -0.019,-0.019 -0.0435,-0.0282 -0.0684,-0.0282 z m -8.12519,0.0403 c -0.0604,-0.0225 -0.18526,0.0501 -0.3958,0.21064 -0.20023,0.15273 -0.71356,0.40828 -1.14042,0.56753 -0.42689,0.15925 -0.96426,0.43783 -1.19409,0.61986 -0.22985,0.18201 -0.41726,0.28978 -0.41726,0.23881 0,-0.1411 0.52642,-0.60496 0.90429,-0.79561 0.18485,-0.0933 0.33676,-0.1877 0.33676,-0.21064 0,-0.0906 -0.68734,0.16091 -0.93113,0.34078 -0.30283,0.22341 -0.7245,0.8134 -0.7245,1.01431 0,0.21348 0.13587,0.17117 0.62119,-0.19589 0.24441,-0.18486 0.52592,-0.39737 0.62657,-0.47226 0.10065,-0.0749 0.56053,-0.20252 1.02235,-0.2831 1.0373,-0.18108 1.21166,-0.27098 1.30009,-0.67352 0.0486,-0.22094 0.0523,-0.33841 -0.008,-0.36091 z m 3.64935,0.20125 c -0.0829,-0.0829 -2.06624,0.36915 -2.19498,0.50045 -0.18148,0.18514 1.26043,1.4e-4 1.77638,-0.22809 0.26327,-0.11645 0.45199,-0.23897 0.4186,-0.27236 z m 1.09079,0.57155 c -0.0412,-0.004 -0.091,0.0422 -0.11136,0.10331 -0.0219,0.0655 0.1144,0.11136 0.33274,0.11136 0.20382,0 0.3703,-0.0464 0.3703,-0.10331 0,-0.0568 -0.11542,-0.1033 -0.25761,-0.1033 -0.1422,0 -0.29279,-0.005 -0.33407,-0.008 z m -1.75357,0.23346 c -0.0515,-0.0155 -0.13571,-0.0107 -0.26565,0.0121 -1.56257,0.2734 -2.19612,0.39827 -2.23658,0.43873 -0.0869,0.0869 0.55286,0.0481 0.91234,-0.055 0.48731,-0.13976 0.50197,-0.0682 0.0443,0.21467 -0.26434,0.16331 -0.39984,0.19999 -0.428,0.11539 -0.0273,-0.0821 -0.34326,-0.12837 -0.93783,-0.13552 -0.80049,-0.0101 -0.84803,-0.021 -0.44275,-0.10062 1.02684,-0.20172 0.61714,-0.40875 -0.58363,-0.29517 -1.09008,0.10312 -1.34639,0.20546 -1.48256,0.59571 -0.0538,0.15426 -0.26465,0.36754 -0.47763,0.483 -0.44509,0.24131 -2.29043,2.43111 -2.04874,2.43111 0.21651,0 0.20457,0.042 -0.17844,0.61046 -0.41645,0.61825 -0.42636,2.00729 -0.0174,2.56126 0.37843,0.51259 0.43277,2.06829 0.0617,1.76699 -0.13306,-0.10796 -0.1505,-0.10289 -0.10331,0.0255 0.20425,0.55548 0.39903,1.39154 0.35287,1.51206 -0.0314,0.0817 0.01,0.14222 0.0966,0.14222 0.0927,0 0.15889,0.11078 0.16906,0.28443 0.0137,0.2329 0.0244,0.2186 0.0604,-0.0778 0.0242,-0.19909 -0.007,-1.02003 -0.0684,-1.82468 -0.29549,-3.84971 0.32289,-6.20896 1.93469,-7.37653 0.23905,-0.17318 0.43471,-0.38972 0.43471,-0.48166 0,-0.14391 0.025,-0.14776 0.17576,-0.0255 0.0991,0.0803 0.14332,0.0891 0.10196,0.0201 -0.13266,-0.22135 0.3715,-0.19922 1.16995,0.051 0.9361,0.29331 1.42224,0.25571 2.6176,-0.20527 l 0.81976,-0.31664 0.50448,0.23614 c 0.60432,0.28304 0.76924,0.21488 0.25223,-0.10466 -0.20206,-0.12487 -0.36628,-0.2996 -0.36628,-0.38774 0,-0.062 -0.0196,-0.0985 -0.0711,-0.11404 z m 2.04605,0.0845 c -0.1162,0 -0.24402,0.49301 -0.16234,0.62522 0.13041,0.21101 0.25492,0.0824 0.25492,-0.26296 0,-0.19907 -0.042,-0.36226 -0.0926,-0.36226 z m 4.80051,0.17174 c -0.0311,-0.006 -0.0405,0.0835 -0.0134,0.29383 0.0295,0.22897 0.44346,1.18101 0.92844,2.13325 1.02657,2.01562 1.07731,2.24241 0.83721,3.77012 -0.18655,1.18714 -0.16306,2.51487 0.059,3.28442 0.17467,0.60504 0.20185,0.4195 0.0979,-0.67889 -0.0781,-0.82595 -0.0605,-1.21077 0.10599,-2.22048 0.26228,-1.58991 0.25632,-1.83492 -0.0644,-2.51429 -0.14771,-0.31286 -0.35498,-0.81336 -0.4602,-1.1136 -0.10521,-0.30023 -0.39944,-0.81229 -0.65474,-1.13774 -0.30068,-0.38331 -0.50479,-0.77118 -0.57826,-1.10017 -0.0958,-0.42938 -0.20579,-0.70605 -0.2576,-0.71645 z m -4.17395,0.13953 c -0.30687,0 -0.4333,0.16777 -0.2576,0.34347 0.11154,0.11153 0.19727,0.0825 0.39579,-0.13685 0.18342,-0.20341 0.18155,-0.20662 -0.13819,-0.20662 z m 3.18648,0 c -0.0209,-5.8e-4 -0.0382,0.006 -0.051,0.0188 -0.0196,0.0196 0.18328,0.31887 0.44946,0.66547 0.54036,0.7036 0.69847,0.69672 0.28309,-0.0121 -0.20846,-0.3557 -0.53506,-0.66813 -0.68157,-0.67218 z m -0.81171,0.0563 c -0.0284,0.0283 0.176,0.2831 0.45483,0.56619 0.27884,0.28311 0.55345,0.5152 0.61046,0.5152 0.0571,0 -0.14726,-0.2561 -0.45482,-0.56753 -0.30757,-0.31143 -0.5821,-0.54223 -0.61047,-0.51386 z m -12.75262,0.18381 c -0.0885,-0.0741 -0.45952,0.42222 -0.72049,0.99821 -0.16755,0.36986 -0.48323,0.95208 -0.70169,1.29337 -1.15286,1.80098 -0.70271,5.70491 0.911,7.89978 0.59263,0.80608 0.67725,1.0461 0.89355,2.52504 0.20978,1.43427 0.44834,2.19425 1.19946,3.83316 0.71976,1.57045 0.72062,1.58109 0.22138,1.7093 -3.22946,0.82927 -3.72231,1.01818 -5.63906,2.16412 -0.63473,0.37947 -1.30253,0.77191 -1.76833,1.04383 l 0.67084,0 c 2.13259,-1.35778 5.05264,-2.67852 7.03977,-3.0067 0.84531,-0.1396 0.84067,-0.0994 0.161,-1.3296 -1.07192,-1.94004 -1.38099,-2.85891 -1.67575,-4.97224 -0.17455,-1.25134 -0.22935,-1.39631 -0.75134,-2.00715 -1.84791,-2.16241 -2.11508,-5.57305 -0.65474,-8.35864 0.45842,-0.87446 0.83318,-1.6497 0.83318,-1.72405 0,-0.0354 -0.006,-0.0578 -0.0188,-0.0684 z m 11.10505,0.11136 c -0.20654,0.0257 -0.43337,0.15112 -0.43337,0.27236 0,0.11273 0.24876,0.12753 0.59436,0.0349 0.28678,-0.0768 0.29989,-0.21067 0.0295,-0.29651 -0.0549,-0.0174 -0.12167,-0.0193 -0.19051,-0.0107 z m -3.80365,0.0617 c -0.44844,0 -1.18068,0.22881 -1.18068,0.36896 0,0.0702 1.24629,-0.0284 1.57915,-0.12478 0.32367,-0.0937 0.0778,-0.24418 -0.39847,-0.24418 z m -3.30053,0.30992 c -0.15406,0 -0.24309,0.0444 -0.20662,0.10331 0.0351,0.0568 0.12803,0.10331 0.20662,0.10331 0.0786,0 0.17145,-0.0464 0.20662,-0.10331 0.0364,-0.0588 -0.0525,-0.10331 -0.20662,-0.10331 z m 6.37296,0.0443 c -0.19436,-0.0172 -0.26115,0.14286 -0.13551,0.41861 0.14662,0.32175 0.26998,0.32923 0.47898,0.0308 0.1518,-0.21671 0.14583,-0.2383 -0.10868,-0.37164 -0.0904,-0.0474 -0.17001,-0.0721 -0.23479,-0.0778 z m -2.44319,0.059 c -0.2013,0 -0.19564,0.15048 0.0161,0.47361 0.19545,0.29826 0.58138,0.30661 0.63729,0.0134 0.0289,-0.15186 -0.0117,-0.17316 -0.23076,-0.11807 -0.22379,0.0561 -0.26699,0.0312 -0.26699,-0.1516 0,-0.1249 -0.0668,-0.21736 -0.15564,-0.21736 z m -5.42037,0.1221 c 10e-4,0.014 0.0477,0.054 0.13953,0.1288 0.22308,0.18171 0.83826,0.22007 0.93784,0.059 0.0385,-0.0623 -0.0996,-0.10331 -0.3475,-0.10331 -0.22623,0 -0.49689,-0.0258 -0.60107,-0.059 -0.0866,-0.0276 -0.13033,-0.0395 -0.1288,-0.0255 z m 4.56572,0.12075 c -0.0691,-0.0101 -0.20039,-0.0111 -0.4025,0.003 -0.35003,0.0238 -0.72143,0.0965 -0.82647,0.16235 -0.1513,0.0948 -0.0646,0.10649 0.41994,0.0537 0.66534,-0.0725 1.0162,-0.18844 0.80903,-0.2187 z m -6.42125,0.067 c -0.13849,0 -0.73927,0.51119 -0.73927,0.62925 0,0.1533 0.12605,0.10944 0.39445,-0.13819 l 0.25224,-0.23211 -0.0698,0.25894 c -0.0482,0.17957 -0.0398,0.21101 0.0269,0.10331 0.16655,-0.26951 0.24306,-0.6212 0.13551,-0.6212 z m 11.16541,0.0107 c -0.41399,6.8e-4 -0.97557,0.086 -1.07602,0.18649 -0.2447,0.2447 0.0431,0.64107 0.83452,1.14848 0.90226,0.57849 0.85063,0.55433 0.85063,0.4025 0,-0.0625 -0.14623,-0.25057 -0.32469,-0.41727 -0.1784,-0.16668 -0.29545,-0.3311 -0.26028,-0.36627 0.0351,-0.0351 -0.17881,-0.17861 -0.4763,-0.31932 -0.63307,-0.29943 -0.49652,-0.42736 0.20259,-0.18917 0.53763,0.1832 0.75537,0.20604 0.75537,0.0791 0,-0.0469 -0.17444,-0.13816 -0.38774,-0.20259 l -0.38775,-0.11672 0.44007,0.0483 c 0.48167,0.0532 0.60972,-0.11411 0.17173,-0.22406 -0.0825,-0.0207 -0.20413,-0.0298 -0.34213,-0.0295 z m -4.41411,0.16637 c -0.23259,-0.0159 -0.5647,0.0544 -0.63059,0.16099 -0.043,0.0697 0.0219,0.0845 0.18248,0.0416 0.13688,-0.0366 0.36496,-0.0684 0.50715,-0.0698 0.17187,-0.002 0.21498,-0.0303 0.12745,-0.0859 -0.0418,-0.0266 -0.10895,-0.0416 -0.18649,-0.047 z m -2.95839,0.0953 c -0.13254,3.9e-4 -0.11508,0.11285 0.0966,0.23614 l 0,0.001 c 0.23402,0.13588 0.71877,0.1411 0.80098,0.008 0.0361,-0.0583 -0.0476,-0.10465 -0.1932,-0.10465 -0.14184,0 -0.37736,-0.0451 -0.52326,-0.10063 -0.0758,-0.0289 -0.13694,-0.0404 -0.18112,-0.0403 z m 4.77905,0.0376 c -0.23185,0 -0.45037,0.51678 -0.33006,0.78085 0.16558,0.36342 0.29186,0.31411 0.24419,-0.0953 -0.0225,-0.19236 0.0102,-0.38134 0.0725,-0.41994 0.14052,-0.0869 0.14999,-0.26565 0.0134,-0.26565 z m 3.8345,0.15161 c -0.0512,0.0289 0.0129,0.17559 0.22541,0.42262 0.14048,0.16333 0.44461,0.32986 0.74999,0.4119 0.6152,0.16507 0.97808,0.18702 0.97808,0.0577 0,-0.11822 -0.9313,-0.48342 -1.12298,-0.44007 -0.0774,0.0174 -0.24062,-0.0572 -0.36225,-0.16637 -0.25094,-0.22539 -0.41699,-0.31464 -0.46825,-0.28578 z m -6.95658,0.0617 c -0.099,0.0148 -0.25341,0.0708 -0.39714,0.15832 l -0.25894,0.15832 0.30992,-0.0657 c 0.17066,-0.0357 0.3553,-0.10818 0.40922,-0.161 0.0797,-0.0779 0.036,-0.10466 -0.0631,-0.0899 z m 1.59123,0.1127 c -0.073,0.001 -0.15809,0.008 -0.25895,0.0201 -0.67145,0.0795 -0.83984,0.20595 -0.38506,0.28712 0.19909,0.0355 0.59438,0.0676 0.8788,0.0738 l 0.51789,0.0107 -0.25894,-0.21467 c -0.15816,-0.13148 -0.27486,-0.18094 -0.49374,-0.17711 z m -1.55635,0.32201 c -0.0151,0.009 -0.0137,0.0391 0.003,0.0885 0.0262,0.079 0.18289,0.17204 0.34883,0.20796 0.16595,0.0359 0.53535,0.0648 0.81977,0.0644 0.50303,-6.9e-4 0.49752,-0.003 -0.20931,-0.1221 -0.39964,-0.0669 -0.78971,-0.16035 -0.86672,-0.20795 -0.0482,-0.0298 -0.0801,-0.0402 -0.0953,-0.0308 z m 6.40114,0.17978 c -0.16901,0 -0.13959,0.0726 0.2254,0.56887 0.37422,0.50885 0.49105,0.56906 0.49105,0.2509 0,-0.22314 -0.52149,-0.81977 -0.71645,-0.81977 z m 0.78622,0.0429 c -0.24784,-0.0492 0.30523,0.34083 1.08944,0.74464 0.47144,0.24276 0.95019,0.44342 1.06395,0.44409 0.13751,10e-4 0.0628,-0.0762 -0.22406,-0.22808 -0.23741,-0.12564 -0.67101,-0.35736 -0.96333,-0.51655 -0.2923,-0.15917 -0.65616,-0.33695 -0.80902,-0.39445 -0.0698,-0.0262 -0.12158,-0.0426 -0.15698,-0.0497 z m -8.07152,0.0174 c -0.39133,0.005 -0.7157,0.11741 -0.62657,0.26163 0.0311,0.0504 0.50736,0.09 1.05859,0.0859 1.06513,-0.007 1.05567,-0.10655 -0.0308,-0.31395 -0.13247,-0.0253 -0.27073,-0.0352 -0.40117,-0.0335 z m 6.26563,0.35287 c -0.11411,0 -0.04,0.13176 0.23612,0.41457 0.43256,0.44297 0.46557,0.4652 0.46557,0.31798 0,-0.17597 -0.53282,-0.73255 -0.70169,-0.73255 z m -3.46421,0.10867 c -0.0495,0 -0.0633,0.0339 -0.0228,0.0993 0.0352,0.0569 0.14267,0.10264 0.23882,0.10196 0.15074,-0.001 0.15381,-0.0155 0.0201,-0.10196 -0.10129,-0.0655 -0.1867,-0.0993 -0.23613,-0.0993 z m 5.65784,0.40921 c -0.0285,0 -0.002,0.0929 0.059,0.20662 0.0609,0.1138 0.13397,0.20662 0.16234,0.20662 0.0284,0 0.002,-0.0929 -0.059,-0.20662 -0.0609,-0.11379 -0.1339,-0.20662 -0.16234,-0.20662 z m -1.03577,0.0255 c -0.0305,0.0305 0.0923,0.22428 0.27236,0.42933 0.35384,0.40305 0.47907,0.48026 0.31127,0.19186 -0.18221,-0.31309 -0.52579,-0.67917 -0.58363,-0.62119 z m -12.70969,0.40384 c 0.0276,-0.0276 0.0484,0.0386 0.047,0.14759 -0.004,0.24502 -0.48739,2.20933 -0.50312,2.04605 -0.0156,-0.16222 0.39407,-2.13147 0.45617,-2.19364 z m 14.68329,0.0269 c -0.23964,0.0333 -0.21314,0.1751 0.16369,0.28041 0.36864,0.10274 0.64508,0.0994 0.81707,-0.009 0.18979,-0.12002 0.0796,-0.16441 -0.65473,-0.26297 -0.13568,-0.0182 -0.24614,-0.0191 -0.32603,-0.008 z m -2.95839,0.0188 c -0.10715,-0.0401 -0.10287,0.0841 -0.0349,0.47496 l 0.0778,0.44543 0.1449,-0.34615 c 0.13033,-0.31341 0.12599,-0.36048 -0.0416,-0.48301 -0.0624,-0.0457 -0.11052,-0.0779 -0.14624,-0.0912 z m -12.70835,0.24821 c -0.005,-0.005 -0.0481,0.0269 -0.13014,0.0912 -0.0992,0.0778 -0.18053,0.15785 -0.18113,0.17978 0,0 0,10e-4 0,10e-4 0.001,0.0824 0.0859,0.0288 0.22004,-0.14221 0.0643,-0.082 0.0966,-0.12481 0.0912,-0.13014 z m 14.64841,0.20527 c -0.0417,0.0348 0.26219,0.34338 0.65474,0.62925 0.3398,0.24746 0.57119,0.47783 0.5152,0.51252 -0.12627,0.078 0.27403,0.46507 0.62522,0.6051 0.35818,0.14284 0.36339,0.1408 0.1704,-0.0725 -0.0941,-0.10401 -0.1704,-0.23816 -0.1704,-0.29785 0,-0.0903 -1.18665,-1.04436 -1.62879,-1.30948 -0.10027,-0.0601 -0.15248,-0.0787 -0.16637,-0.0671 z m -1.55768,0.13954 c -0.0429,-0.0133 -0.0604,0.0453 -0.0604,0.18649 0,0.1441 0.0352,0.29738 0.0778,0.34079 0.0425,0.0434 0.0922,-0.0245 0.11136,-0.15027 0.019,-0.12573 -0.0148,-0.2791 -0.0765,-0.34079 -0.0201,-0.0201 -0.038,-0.0318 -0.0523,-0.0362 z m 2.521,0.0872 c -0.0343,0.003 -0.0599,0.0116 -0.0751,0.0269 -0.0319,0.0319 0.0932,0.11011 0.27772,0.17441 0.18451,0.0643 0.52898,0.22474 0.76611,0.35555 0.56855,0.31358 0.59875,0.30548 0.20259,-0.055 -0.27799,-0.25292 -0.93093,-0.52054 -1.17129,-0.50178 z m -1.79382,0.33542 c -0.0126,9e-5 -0.0237,0.0107 -0.0322,0.0335 -0.0263,0.0706 0.012,0.30409 0.0859,0.51789 0.10315,0.2983 0.14322,0.33832 0.16905,0.17441 0.0354,-0.22489 -0.13429,-0.72643 -0.22272,-0.72584 z m -0.86537,0.62119 c -0.0281,0.0282 -0.0242,0.1229 0.009,0.21065 0.0895,0.2331 0.1611,0.19547 0.0966,-0.051 -0.0303,-0.11597 -0.0778,-0.18783 -0.10598,-0.15966 z m -13.31882,0.41459 c -0.0813,0.0582 -0.0551,0.68032 0.059,0.89355 0.0589,0.11001 0.12767,0.19991 0.15295,0.19991 0.0788,0 -0.0752,-0.97755 -0.1704,-1.08139 -0.016,-0.0175 -0.0299,-0.0204 -0.0416,-0.0121 z m 16.1095,0.20795 c -0.0571,0.005 0.0376,0.18232 0.28041,0.44813 0.35899,0.39304 0.41994,0.40958 0.41994,0.11001 0,-0.12324 -0.0323,-0.19311 -0.0711,-0.15429 -0.0387,0.0387 -0.20189,-0.0557 -0.36225,-0.20931 -0.14463,-0.13853 -0.23274,-0.19757 -0.26699,-0.19454 z m -2.74775,0.0859 c -0.0153,-0.003 -0.0378,0.005 -0.0684,0.0242 -0.057,0.0352 -0.10073,0.16517 -0.0966,0.2898 0.007,0.21849 0.0109,0.21955 0.0966,0.0201 0.0918,-0.21343 0.11431,-0.32414 0.0684,-0.33407 z m 1.39937,0.30859 c -0.0125,0.0125 -0.0201,0.0386 -0.0201,0.0765 0,0.0761 0.0304,0.10782 0.0684,0.0698 0.038,-0.0379 0.038,-0.10014 0,-0.13819 -0.019,-0.019 -0.0358,-0.0205 -0.0483,-0.008 z m 1.42754,0.0765 c -0.11218,0 -0.14237,0.81119 -0.0403,1.07737 0.11009,0.28694 0.14356,0.17999 0.14356,-0.45617 0,-0.34474 -0.0458,-0.6212 -0.10331,-0.6212 z m -2.47405,0.10331 c -0.0664,0 -0.11136,0.23069 -0.11136,0.56887 0,0.58291 0.11746,0.72359 0.30724,0.36896 0.15454,-0.28891 0.13104,-0.42364 -0.0604,-0.35017 -0.13982,0.0537 -0.1553,0.0116 -0.0953,-0.26163 0.0458,-0.20843 0.0312,-0.32603 -0.0403,-0.32603 z m 0.97406,0.20796 c -0.0284,0 -0.051,0.0225 -0.051,0.051 0,0.0284 0.0226,0.0523 0.051,0.0523 0.0284,0 0.0523,-0.024 0.0523,-0.0523 0,-0.0283 -0.024,-0.051 -0.0523,-0.051 z m -13.98563,0.0161 c -0.0141,-0.003 -0.017,0.0493 -0.0201,0.15563 -0.003,0.12333 0.026,0.30904 0.067,0.41325 0.0613,0.15594 0.0804,0.1611 0.10733,0.0282 0.018,-0.0889 -0.0117,-0.27458 -0.067,-0.41323 -0.0478,-0.11967 -0.0731,-0.18014 -0.0872,-0.18382 z m 14.56925,0.4991 c -0.072,-0.0317 -0.0817,0.16957 -0.0403,0.64803 0.0284,0.32706 0.0924,0.59437 0.14222,0.59437 0.12055,0 0.11422,-0.94174 -0.008,-1.13506 -0.0383,-0.0605 -0.0699,-0.0968 -0.0939,-0.10734 z m -0.69364,0.17442 c -0.0447,0.0113 -0.11116,0.0534 -0.19991,0.13686 -0.14222,0.13359 -0.2563,0.33944 -0.25492,0.4575 0.003,0.19752 0.0227,0.1919 0.2576,-0.0751 0.26621,-0.3021 0.33112,-0.55308 0.19723,-0.51923 z m 1.21019,0.0859 -0.007,0.26699 c -0.003,0.14695 0.0269,0.30071 0.0684,0.34213 l 0.001,0 c 0.12274,0.1228 0.1438,-0.0905 0.0362,-0.35957 l -0.0993,-0.24955 z m 1.42888,0.0295 c -0.10063,-0.0139 -0.067,0.42159 0.10734,1.46242 l 0.22674,1.35107 -0.43068,0.86538 c -0.31288,0.62852 -0.4199,0.96069 -0.39311,1.21556 l 0.0362,0.35017 0.13686,-0.46421 c 0.17935,-0.61003 0.65369,-1.53381 0.70706,-1.37791 0.0678,0.19806 -0.36428,1.52134 -0.6212,1.90385 -0.46795,0.69668 -1.00213,0.45458 -1.00625,-0.45618 -6.9e-4,-0.18117 -0.0468,-0.39905 -0.10197,-0.48434 -0.0703,-0.10882 -0.1006,0.0487 -0.10197,0.52862 -0.001,0.53713 0.0451,0.74267 0.21333,0.95662 0.6402,0.81385 1.74954,-0.6169 1.74954,-2.25536 0,-0.6298 -0.37496,-3.46619 -0.47092,-3.56215 -0.0199,-0.0198 -0.0366,-0.0315 -0.051,-0.0335 z m -2.12119,0.36761 c -0.0566,0.01 -0.14038,0.28474 -0.18783,0.71378 -0.0361,0.32706 -0.0249,0.5957 0.0255,0.5957 0.11026,0 0.22004,-0.50929 0.22004,-1.01698 0,-0.20866 -0.0238,-0.29841 -0.0577,-0.2925 z m -0.40519,0.0161 c -0.0267,0.0117 -0.0765,0.0588 -0.14892,0.14088 -0.11852,0.13428 -0.21466,0.37903 -0.21466,0.54338 0,0.4199 0.16908,0.37196 0.25222,-0.0711 0.0382,-0.20313 0.0936,-0.44792 0.12344,-0.54339 0.0183,-0.0583 0.0147,-0.0815 -0.0121,-0.0698 z m -4.15784,0.0671 c -0.50843,0.0142 -1.56803,0.2696 -1.90921,0.51252 -0.15149,0.10794 -0.34673,0.19589 -0.43336,0.19589 -0.23011,0 -0.58668,0.50218 -0.57961,0.81574 0.005,0.25438 0.0129,0.25782 0.1288,0.067 0.34856,-0.57387 0.63115,-0.73955 1.57111,-0.92575 0.9681,-0.19178 1.49999,-0.40161 1.49999,-0.59034 0,-0.0582 -0.10825,-0.0798 -0.27772,-0.0751 z m 0.98881,0.21333 c -0.007,-0.012 -0.0703,0.003 -0.19454,0.0362 -0.14221,0.0378 -0.30296,0.11051 -0.35689,0.161 -0.17444,0.16296 0.20301,0.0993 0.41458,-0.0698 0.0965,-0.0771 0.14436,-0.11551 0.13685,-0.12745 z m 0.46019,0.0939 c -0.0278,0.0169 0.0226,0.0887 0.14222,0.22004 0.11656,0.12796 0.27134,0.349 0.34481,0.49105 0.083,0.16042 0.15083,0.20768 0.17844,0.12478 0.0861,-0.2584 -0.0765,-0.60739 -0.33944,-0.72719 -0.19185,-0.0874 -0.29817,-0.1256 -0.32603,-0.10868 z m 3.58764,0.60778 c -0.0856,0 -0.20741,0.25301 -0.20795,0.42934 6.8e-4,0.0544 0.0405,0.0749 0.0899,0.0443 0.12279,-0.0758 0.22196,-0.47361 0.11806,-0.47361 z m -4.77368,0.008 c -0.47941,0.0399 -1.01742,0.24852 -1.52817,0.61851 -0.23185,0.16793 -0.42262,0.35275 -0.42262,0.40921 0,0.0565 0.23552,0.10197 0.52325,0.10197 0.32247,0 0.49956,-0.0395 0.4602,-0.10331 -0.0352,-0.0568 -0.136,-0.10331 -0.22272,-0.10331 -0.2374,0 -0.12491,-0.19142 0.25089,-0.42933 l 0.33408,-0.21199 -0.0255,0.22809 c -0.0508,0.43761 0.30701,0.5087 0.64938,0.1288 0.34264,-0.38019 0.51251,-0.42684 0.51251,-0.14088 0,0.13206 0.0919,0.21122 0.28444,0.24419 0.15641,0.0269 0.36598,0.0835 0.46556,0.12611 0.27252,0.11656 0.2227,-0.10272 -0.10868,-0.47361 -0.27237,-0.30483 -0.69321,-0.43434 -1.17262,-0.39445 z m -6.95927,0.0416 c -0.55555,-0.0226 -1.13777,4.4e-4 -1.42888,0.0818 -0.29368,0.0821 -0.38319,0.32635 -0.15564,0.42531 0.15072,0.0655 0.4546,0.0239 1.14043,-0.15429 0.37886,-0.0984 0.6668,-0.1005 1.23836,-0.0121 0.86672,0.13415 0.94811,0.10844 0.47496,-0.14893 -0.18523,-0.10073 -0.71368,-0.16928 -1.26923,-0.19186 z m 5.68468,0.0885 c -0.0194,-0.0168 -0.0715,-0.0131 -0.15966,0.0134 -0.71612,0.21586 -1.1364,0.46447 -1.1364,0.67084 0,0.28702 0.14006,0.26699 0.65877,-0.0899 0.45724,-0.3146 0.69553,-0.5441 0.63729,-0.59437 z m 6.84657,0.20126 c -0.25063,0.0292 -0.2905,0.22213 -0.21064,0.69498 0.0429,0.25596 0.067,0.75675 0.0523,1.11225 -0.0326,0.78758 -0.0309,0.78742 0.48971,0.0604 0.37368,-0.52182 0.41995,-0.65086 0.41995,-1.18067 l 0,-0.59436 -0.42665,-0.0711 c -0.13373,-0.0226 -0.24114,-0.0312 -0.32469,-0.0214 z m -12.45477,0.39311 c -0.84511,0.0834 -1.58318,0.63972 -1.58318,1.34301 0,0.0743 0.0677,0.0887 0.18113,0.0389 0.0995,-0.0438 0.3541,-0.0998 0.56484,-0.12477 0.35751,-0.0424 0.37889,-0.0645 0.32469,-0.33542 -0.0455,-0.22765 -0.009,-0.31674 0.16905,-0.4119 0.27372,-0.14651 0.3894,-0.0648 0.21198,0.14893 -0.10695,0.12889 -0.084,0.17567 0.13417,0.27504 0.41127,0.18739 0.616,0.0521 0.56619,-0.37432 -0.06,-0.51383 0.67673,-0.2769 1.19946,0.3864 0.20102,0.25514 0.26562,0.29338 0.26699,0.15295 0.002,-0.35031 -0.30547,-0.79252 -0.59571,-0.85599 -0.15539,-0.034 -0.41736,-0.10335 -0.58228,-0.15563 -0.28204,-0.0892 -0.57563,-0.11501 -0.85733,-0.0872 z m -0.35689,0.20796 0.27371,0.008 -0.26432,0.0805 c -0.14552,0.0442 -0.37901,0.13599 -0.51789,0.20393 l -0.25223,0.12343 0.24419,-0.21333 c 0.1343,-0.11695 0.36643,-0.20808 0.51654,-0.20259 z m 8.04469,0.12611 c -0.0613,-0.0613 -0.65357,0.24464 -0.73792,0.38104 -0.0354,0.0572 0.002,0.10465 0.0832,0.10465 0.16884,0 0.72648,-0.41394 0.65474,-0.48569 z m -6.73119,0.28176 c -0.0602,0.002 -0.0192,0.0708 0.0912,0.15429 0.11039,0.0835 0.24961,0.1503 0.30992,0.14893 0.0603,-0.002 0.0192,-0.0708 -0.0912,-0.1543 -0.11043,-0.0835 -0.24961,-0.1503 -0.30993,-0.14892 z m 7.02635,0.41055 -0.41323,0.0778 c -0.22753,0.0424 -0.79903,0.0715 -1.26922,0.0644 -0.83927,-0.0124 -1.06877,0.16218 -0.40384,0.30724 0.43654,0.0952 1.16061,-0.006 1.62074,-0.22674 l 0.46555,-0.22271 z m -4.62072,0.3381 c -0.0738,0.005 -0.1556,0.42976 -0.0953,0.59302 0.037,0.0998 0.0796,0.0439 0.11941,-0.15563 0.0339,-0.17065 0.0369,-0.35698 0.007,-0.41324 -0.01,-0.0183 -0.0203,-0.0249 -0.0309,-0.0242 z m -2.25268,0.23479 c -0.0616,0.0142 -0.16048,0.0451 -0.29516,0.0926 -0.21711,0.0766 -0.74807,0.21771 -1.18068,0.31395 -0.43261,0.0962 -0.87143,0.2392 -0.97539,0.31798 -0.48414,0.36693 1.28278,0.0293 2.00848,-0.38372 0.48281,-0.27483 0.62771,-0.38341 0.44275,-0.34079 z m 3.60375,1.43157 c -0.0473,5e-5 -0.0838,0.007 -0.10868,0.0228 -0.15968,0.0987 -0.0871,0.23537 0.19722,0.37164 0.69559,0.33338 -0.47258,1.63416 -1.46779,1.63416 -0.14447,0 -0.26297,0.0524 -0.26297,0.11673 0,0.52963 1.61597,-0.28653 2.11985,-1.07066 0.38731,-0.60274 0.25054,-0.61759 1.71466,0.19186 0.682,0.37708 1.26294,0.66237 1.29069,0.63461 0.27925,-0.27924 -2.77284,-1.90183 -3.48298,-1.90115 z m -3.26028,0.73524 c -0.0734,-0.0269 -0.19879,0.0523 -0.44409,0.21467 -0.81673,0.54048 -1.45238,1.69057 -1.14177,2.06484 0.1882,0.22678 0.31114,0.1488 0.46422,-0.29651 0.12041,-0.35024 0.37049,-0.75964 0.83453,-1.36181 0.15941,-0.20683 0.15954,-0.20683 0.32065,0 0.15203,0.19514 0.15823,0.18479 0.10197,-0.1932 -0.0398,-0.26689 -0.0621,-0.40107 -0.13551,-0.42799 z m 11.08224,0.5152 c -0.15522,0.005 -0.16289,0.323 -0.1771,1.16458 -0.0347,2.05944 -0.0471,2.29973 -0.11807,2.37074 -0.0379,0.0378 -0.0684,-0.0198 -0.0684,-0.1288 -2.8e-4,-0.10903 -0.22115,0.18595 -0.49105,0.65608 -0.59357,1.03396 -1.70823,2.4557 -2.86179,3.73791 l 0.9271,0 c 0.8296,-1.16994 1.4065,-2.06219 1.85553,-2.88595 0.52383,-0.96111 0.52451,-0.78181 10e-4,0.36762 -0.28375,0.6234 -0.81621,1.50611 -1.5067,2.51833 l 0.41592,0 c 1.89039,-2.87893 2.46155,-4.57818 2.20974,-6.32735 -0.07,-0.4891 -0.0683,-0.68961 0.008,-0.66413 0.17756,0.0592 0.58172,0.92604 0.6373,1.36851 0.0472,0.37622 0.0407,0.38941 -0.0724,0.15161 -0.11379,-0.23927 -0.12874,-0.21088 -0.20393,0.39579 -0.1667,1.34477 -0.82832,2.87342 -2.23255,5.07557 l 0.3381,0 c 0.78872,-1.31086 1.42159,-2.53185 1.8703,-3.66144 0.17752,-0.44825 0.22962,-0.52043 0.1838,-0.25895 -0.15696,0.89497 -0.77773,2.21306 -1.83138,3.92039 l 0.63595,0 c 1.46635,-3.28849 1.82417,-4.40235 1.78711,-5.34256 -0.01,-0.24175 0.0275,-0.44007 0.0832,-0.44007 0.0558,0 0.0744,0.0703 0.0416,0.15564 -0.0332,0.0864 -0.003,0.15563 0.0684,0.15563 0.52209,0 -0.1767,-1.39012 -1.02772,-2.04337 -0.23259,-0.1785 -0.37914,-0.28856 -0.47227,-0.28578 z m 0.60375,0.78489 c 0.0683,0.0171 0.21399,0.19661 0.2831,0.37835 0.0543,0.14457 0.0782,0.28409 0.0523,0.30992 -0.0458,0.0458 -0.37164,-0.52017 -0.37164,-0.64534 0,-0.0364 0.0135,-0.0486 0.0362,-0.0429 z m 1.00358,0.067 c -0.0677,-0.001 0.0888,0.30058 0.51252,0.93515 1.33281,1.99591 2.70588,3.05906 7.28932,5.63772 0.27811,0.15648 0.41776,0.24418 0.64803,0.37567 l 0.56351,0 c -0.27076,-0.15729 -0.5035,-0.29918 -0.79696,-0.46288 -5.03861,-2.81064 -5.44016,-3.10318 -6.94586,-5.0447 -0.72706,-0.93752 -1.18356,-1.43941 -1.27056,-1.44096 z m -6.40114,0.11807 c -0.16731,-6.8e-4 -0.55637,0.18156 -0.98881,0.47764 -0.37947,0.25976 -0.70241,0.41713 -0.73792,0.35957 -0.0355,-0.0574 -0.15338,6.8e-4 -0.26834,0.13282 l -0.20393,0.23479 0.0631,-0.23211 c 0.0788,-0.28586 -0.059,-0.29282 -1.55232,-0.0765 -0.5688,0.0824 -1.09852,0.15094 -1.17665,0.15161 -0.11435,10e-4 -0.11587,0.0319 -0.0121,0.15697 0.19353,0.23321 1.38336,0.20379 1.93872,-0.0483 0.43541,-0.19813 0.44007,-0.19883 0.44007,0.003 0,0.38468 -0.5767,0.61445 -1.55231,0.61582 -0.63649,0.001 -0.83551,0.0313 -0.72317,0.10868 0.31796,0.21906 1.86206,0.0563 2.4821,-0.26163 0.59581,-0.30553 2.37879,-1.47308 2.37879,-1.55768 0,-0.0433 -0.0315,-0.0642 -0.0872,-0.0644 z m 1.80054,0.15966 c -0.009,-0.01 -0.0216,-0.006 -0.0376,0.0107 -0.0547,0.0569 -0.12689,0.40575 -0.15966,0.77549 -0.0649,0.7341 0.0585,0.49081 0.18381,-0.3636 0.0363,-0.24765 0.0405,-0.39359 0.0134,-0.42262 z m -6.07511,0.17441 c -0.014,0.001 -0.054,0.0477 -0.1288,0.13954 -0.09,0.11042 -0.16369,0.23855 -0.16369,0.28443 0,0.0461 0.0464,0.0845 0.10332,0.0845 0.0568,0 0.1033,-0.043 0.1033,-0.0953 0,-0.0522 0.0272,-0.18024 0.0604,-0.28444 0.0275,-0.0867 0.0395,-0.13033 0.0255,-0.1288 z m -4.29605,0.4441 c -0.0721,0.0721 0.66187,1.45779 0.9593,1.81126 0.491,0.58357 0.38338,0.26974 -0.27504,-0.80634 -0.35271,-0.57639 -0.66042,-1.02875 -0.68426,-1.00492 z m 1.98434,0.16771 c -0.55192,0 -0.53519,0.15758 0.0282,0.25894 0.21303,0.0383 0.62124,0.1774 0.90564,0.30993 0.67839,0.31622 0.75943,0.31398 0.4575,-0.0134 -0.3356,-0.36393 -0.81556,-0.55545 -1.39131,-0.55545 z m 12.17437,1.36985 c 0.0125,-0.0125 0.0293,-0.011 0.0483,0.008 0.038,0.0379 0.038,0.10013 0,0.13819 -0.038,0.0379 -0.0684,0.007 -0.0684,-0.0684 0,-0.0381 0.008,-0.0653 0.0201,-0.0778 z m 1.80589,0.30725 c 4.4e-4,0.033 0.14374,0.15958 0.43068,0.3864 0.34265,0.27084 0.54042,0.51561 0.58631,0.7245 0.094,0.42809 0.30575,0.41389 0.22004,-0.0148 -0.0814,-0.40681 -0.31063,-0.66869 -0.80904,-0.92307 -0.28594,-0.14585 -0.42843,-0.20606 -0.42799,-0.17308 z m -0.48166,0.90831 c -0.057,0 -0.10331,0.0464 -0.10331,0.10331 0,0.0568 0.0464,0.10331 0.10331,0.10331 0.0569,0 0.1033,-0.0464 0.1033,-0.10331 0,-0.0568 -0.0464,-0.10331 -0.1033,-0.10331 z m 1.06261,0.15027 c -0.0224,0.0193 -0.0282,0.0797 -0.0282,0.19052 0,0.14443 -0.0578,0.28675 -0.1288,0.31663 -0.0926,0.0389 -0.0786,0.087 0.051,0.16905 0.10694,0.0677 0.18113,0.24149 0.18113,0.42531 0,0.18109 0.0431,0.28531 0.10331,0.24822 0.16816,-0.10391 0.1272,-1.14551 -0.051,-1.29338 -0.0655,-0.0543 -0.10504,-0.0757 -0.12745,-0.0563 z m -15.40244,0.24284 c -0.0533,0.0303 -0.14519,0.12957 -0.30188,0.31261 -0.41061,0.47971 -0.65814,0.55302 -0.6762,0.19991 -0.01,-0.18433 -0.022,-0.19377 -0.0604,-0.0456 -0.0264,0.10284 -0.0235,0.25339 0.008,0.33541 0.12052,0.31409 1.08776,0.0374 1.30814,-0.37433 0.10658,-0.19921 0.10094,-0.22294 -0.0429,-0.16771 -0.12204,0.0468 -0.1677,0.004 -0.1677,-0.15832 0,-0.0941 -0.0137,-0.13224 -0.0671,-0.10196 z m 16.43821,0.13685 c -0.0656,0.033 -0.25244,0.64478 -0.63328,2.00312 -0.08,0.28525 -0.13577,0.51169 -0.20393,0.7661 l 0.51923,0 c 0.075,-0.0961 0.15252,-0.16845 0.23345,-0.20125 0.20142,-0.0816 0.20032,-0.0864 -0.0255,-0.0926 -0.4249,-0.0118 -0.39322,-0.94567 0.0349,-1.02504 0.27866,-0.0517 0.45961,-0.21698 0.45618,-0.41591 -0.003,-0.14771 -0.0162,-0.14664 -0.10868,0.0121 -0.22807,0.39145 -0.33322,0.19087 -0.26968,-0.51655 0.0324,-0.36062 0.0367,-0.54976 -0.003,-0.52996 z m -2.9329,0.40116 c -0.0649,0 -0.0931,0.0673 -0.0617,0.14893 0.0313,0.0817 -0.0322,0.26159 -0.14087,0.39982 -0.10876,0.13821 -0.16755,0.28064 -0.13149,0.31664 0.11963,0.11962 0.23748,0.0673 0.23748,-0.10466 0,-0.0933 0.0785,-0.226 0.17308,-0.29517 0.18303,-0.13382 0.12845,-0.46556 -0.0765,-0.46556 z m -15.20119,0.24553 c -0.022,-0.003 -0.0495,0.004 -0.0845,0.0188 -0.0924,0.0394 -0.33087,0.10292 -0.52995,0.13953 l -0.36225,0.0657 0.46555,0.28041 c 0.58949,0.35519 0.57058,0.36012 0.58363,-0.13685 0.007,-0.26204 -0.006,-0.36005 -0.0725,-0.36762 z m 16.76021,0.0644 c -0.0569,0 -0.10072,0.17444 -0.0966,0.38775 0.005,0.3111 0.0253,0.34707 0.0966,0.18113 0.12349,-0.28738 0.12349,-0.56888 0,-0.56888 z m 2.31171,0.14088 c -0.06,-0.005 -0.10701,-0.001 -0.12478,0.0161 -0.0201,0.0196 -0.005,0.0857 0.0322,0.14625 0.0819,0.1326 0.57289,0.14865 0.57289,0.0188 0,-0.0672 -0.30016,-0.1656 -0.48032,-0.18112 z m -17.22443,0.11807 c -0.0201,-0.0283 -0.0825,0.008 -0.18918,0.10465 -0.15925,0.14415 -0.17809,0.20778 -0.0778,0.26968 0.0825,0.051 0.1585,0.0158 0.2026,-0.0953 0.0628,-0.15826 0.0845,-0.25075 0.0644,-0.27907 z m 1.10688,0.21467 c -0.16061,-0.003 -0.2744,0.1617 -0.41189,0.55142 -0.21628,0.61297 -0.2001,0.68082 0.11002,0.47764 0.36506,-0.2392 0.40465,-0.15159 0.17173,0.37567 -0.0257,0.0582 -0.0365,0.11934 -0.0563,0.17979 l 0.35152,0 c 0.0229,-0.52137 0.0524,-0.92316 0.0912,-0.96198 0.0694,-0.0694 0.10465,-0.0136 0.10465,0.16905 0,0.15021 0.0413,0.29838 0.0926,0.33005 0.0278,0.0172 0.0613,0.20389 0.0939,0.46288 l 0.71377,0 c -0.45605,-0.7786 -0.89608,-1.42827 -1.08273,-1.52817 -0.0666,-0.0356 -0.12491,-0.0555 -0.17845,-0.0563 z m 16.79778,0.059 c -0.0338,0.008 -0.0621,0.0281 -0.0832,0.0604 -0.0356,0.0545 -0.16987,0.15406 -0.29785,0.22138 -0.14526,0.0765 -0.23211,0.21792 -0.23211,0.37701 0,0.27816 0.008,0.28551 0.25224,0.19186 0.13003,-0.0499 0.14017,-0.0954 0.0456,-0.2093 -0.13989,-0.16854 -0.12389,-0.19278 0.19991,-0.29249 0.18375,-0.0565 0.25161,-0.029 0.2898,0.11673 0.0528,0.20185 0.5568,0.50052 0.5568,0.33005 0,-0.35938 -0.4946,-0.85143 -0.73121,-0.79562 z m -2.51967,0.11002 c -0.0735,-0.0735 -0.47227,0.62576 -0.47227,0.82915 -2.7e-4,0.0996 0.0212,0.18113 0.047,0.18113 0.0746,0 0.47793,-0.95766 0.42531,-1.01028 z m -18.22263,0.003 c 0.008,0.0187 0.097,0.0711 0.27236,0.17174 0.19909,0.1142 0.47763,0.20396 0.61985,0.20259 0.31085,-0.005 -0.14,-0.23538 -0.68291,-0.34884 -0.14479,-0.0302 -0.21745,-0.0442 -0.2093,-0.0255 z m 16.71593,0.0255 c -0.057,-0.0352 -0.10331,0.009 -0.10331,0.0979 0,0.0886 0.0464,0.16101 0.10331,0.16101 0.0569,0 0.10331,-0.0445 0.10331,-0.0979 0,-0.0535 -0.0464,-0.12583 -0.10331,-0.161 z m -18.37961,0.0912 c -0.0316,0.0316 0.0218,0.17979 0.11941,0.32871 0.0976,0.14894 0.20453,0.24492 0.23613,0.21332 0.0316,-0.0316 -0.0232,-0.17979 -0.12075,-0.32871 -0.0975,-0.14893 -0.20319,-0.24492 -0.23479,-0.21332 z m 17.16271,0.001 c -0.0657,0.0255 -0.065,0.18818 0.0335,0.42397 0.0819,0.19602 0.14892,0.4506 0.14892,0.56619 0,0.11561 0.0525,0.21064 0.11673,0.21064 0.15273,0 0.0599,-0.87421 -0.11539,-1.08541 -0.0807,-0.0972 -0.14436,-0.1307 -0.1838,-0.11539 z m 1.62879,0.0832 c -0.0271,0.008 -0.0596,0.0439 -0.10062,0.10868 -0.063,0.0996 -0.18185,0.18113 -0.26431,0.18113 -0.1544,0 -0.22137,0.61851 -0.0818,0.75805 0.14853,0.14853 0.30472,0.0457 0.62924,-0.41727 0.27241,-0.38849 0.28274,-0.44409 0.0859,-0.44409 -0.0806,0 -0.1701,-0.0578 -0.19991,-0.1288 -0.0194,-0.0463 -0.0413,-0.066 -0.0684,-0.0577 z m -17.94624,0.001 c -0.0286,0.0284 -0.0221,0.13078 0.0148,0.22674 0.0369,0.0959 0.0897,0.15053 0.11808,0.12209 0.0286,-0.0284 0.0221,-0.12944 -0.0148,-0.2254 -0.0369,-0.0958 -0.0897,-0.1518 -0.11807,-0.12343 z m 3.03084,0.0859 c -0.10386,0 -0.18247,0.0336 -0.18247,0.0993 0,0.0567 0.1519,0.10263 0.33676,0.10197 0.2551,-0.001 0.29884,-0.0258 0.18113,-0.10197 -0.10165,-0.0657 -0.23155,-0.0993 -0.33542,-0.0993 z m -2.35598,0.11941 c -0.13279,0.007 -0.11925,0.12558 10e-4,0.44275 0.0864,0.22718 0.1342,0.25215 0.30456,0.161 0.43467,-0.23264 0.38751,-0.44938 -0.12343,-0.57558 -0.0781,-0.0193 -0.1382,-0.0304 -0.18247,-0.0282 z m 19.80313,0.11001 c -0.0511,10e-4 -0.10786,0.0109 -0.16637,0.0295 -0.1725,0.0548 -0.18884,0.0886 -0.0765,0.15966 l 0,10e-4 c 0.19035,0.12004 0.50448,0.11788 0.50448,-0.004 0,-0.11952 -0.10827,-0.19026 -0.26163,-0.1865 z m -11.50487,0.11807 c -0.0996,-0.0109 -0.34928,0.0326 -0.75939,0.1288 -0.67647,0.15868 -0.72727,0.18693 -0.45214,0.24821 0.37678,0.0838 0.74502,0.0207 1.06797,-0.18113 0.19204,-0.12007 0.24315,-0.18497 0.14356,-0.19588 z m -6.60373,0.0953 c -0.35868,0.0213 -0.30443,0.14466 0.28444,0.23881 0.29017,0.0464 0.39628,0.10764 0.35822,0.20663 -0.0772,0.20117 0.15389,0.17083 0.45483,-0.0604 0.33394,-0.25658 0.29891,-0.27848 -0.60643,-0.36762 -0.20667,-0.0203 -0.37149,-0.0245 -0.49106,-0.0174 z m 14.64171,0.0698 c -0.0535,0 -0.0953,0.12802 -0.0939,0.28444 0.003,0.26952 0.0109,0.27446 0.15161,0.0885 0.14952,-0.19761 0.12254,-0.37299 -0.0577,-0.37299 z m -1.12835,0.10331 c -0.0934,0 -0.31396,0.32531 -0.31396,0.46288 0,0.0342 0.0929,0.0127 0.20662,-0.0483 0.21062,-0.11273 0.28879,-0.41458 0.10734,-0.41458 z m -15.43598,0.0563 c -0.0366,-0.0115 -0.0648,0.0232 -0.10733,0.0993 -0.0493,0.0881 -0.004,0.21726 0.0912,0.35287 l 0.56887,0 c -0.16759,-0.0598 -0.31737,-0.14793 -0.39713,-0.26968 -0.0737,-0.11242 -0.11904,-0.17101 -0.15564,-0.18247 z m 22.41806,0.0657 c -0.27367,-0.0328 -0.5425,0.15874 -0.56485,0.3864 l 0.28712,0 c 0.0701,-0.0367 0.11554,-0.0521 0.22137,-0.11941 l 0.36226,-0.22943 -0.3059,-0.0376 z m -4.4812,0.13819 c -0.0732,-0.0281 -0.14948,0.006 -0.16905,0.0765 -0.005,0.0203 -0.0326,0.12349 -0.0456,0.17173 l 0.30456,0 c -0.0236,-0.13473 -0.0535,-0.23426 -0.0899,-0.24821 z m -16.05046,0.001 c -0.0431,-0.007 -0.0807,0.008 -0.10734,0.0497 -0.0444,0.0704 -0.0602,0.13428 -0.0738,0.19723 l 0.43605,0 c -0.0607,-0.12946 -0.16632,-0.23261 -0.25492,-0.24687 z m 18.56476,0.0228 c -0.2363,0.0452 -0.30644,0.14302 -0.19857,0.22407 l 0.73256,0 c -0.0856,-0.0381 -0.16766,-0.09 -0.19857,-0.14357 -0.0428,-0.0736 -0.18624,-0.10907 -0.33542,-0.0805 z m 1.11225,0.0657 c -0.0108,0.0109 -0.0187,0.0471 -0.0215,0.10734 l 0.001,0 c -6.9e-4,0.023 0.004,0.0327 0.005,0.051 l 0.0765,0 c 10e-4,-0.0359 -0.005,-0.0767 -0.0201,-0.11405 -0.0164,-0.0412 -0.0308,-0.0552 -0.0416,-0.0443 z"
         id="path4480"
         inkscape:connector-curvature="0" />
    </g>
  </g>
</svg>
