<?xml version="1.0" encoding="UTF-8" standalone="no"?>
<!-- Created with Inkscape (http://www.inkscape.org/) -->

<svg
   xmlns:dc="http://purl.org/dc/elements/1.1/"
   xmlns:cc="http://creativecommons.org/ns#"
   xmlns:rdf="http://www.w3.org/1999/02/22-rdf-syntax-ns#"
   xmlns:svg="http://www.w3.org/2000/svg"
   xmlns="http://www.w3.org/2000/svg"
   xmlns:sodipodi="http://sodipodi.sourceforge.net/DTD/sodipodi-0.dtd"
   xmlns:inkscape="http://www.inkscape.org/namespaces/inkscape"
   width="512"
   height="512"
   viewBox="0 0 512.00001 512.00001"
   id="svg5363"
   version="1.1"
   inkscape:version="0.91 r13725"
   sodipodi:docname="frank.svg">
  <defs
     id="defs5365" />
  <sodipodi:namedview
     id="base"
     pagecolor="#47a0f2"
     bordercolor="#666666"
     borderopacity="1.0"
     inkscape:pageopacity="0"
     inkscape:pageshadow="2"
     inkscape:zoom="0.98994949"
     inkscape:cx="895.26931"
     inkscape:cy="106.75876"
     inkscape:document-units="px"
     inkscape:current-layer="layer1"
     showgrid="false"
     units="px"
     fit-margin-top="6"
     fit-margin-left="6"
     fit-margin-right="6"
     fit-margin-bottom="6"
     inkscape:window-width="3440"
     inkscape:window-height="1411"
     inkscape:window-x="0"
     inkscape:window-y="0"
     inkscape:window-maximized="1"
     showguides="true"
     inkscape:guide-bbox="true">
    <sodipodi:guide
       position="442.44682,248.49753"
       orientation="0,1"
       id="guide5952" />
    <sodipodi:guide
       position="377.79706,459.61942"
       orientation="0,1"
       id="guide5954" />
    <sodipodi:guide
       position="410.12194,125.25892"
       orientation="0,1"
       id="guide5956" />
    <sodipodi:guide
       position="454.56865,26.263967"
       orientation="0,1"
       id="guide5958" />
    <sodipodi:guide
       position="251.52799,248.49753"
       orientation="1,0"
       id="guide5977" />
  </sodipodi:namedview>
  <metadata
     id="metadata5368">
    <rdf:RDF>
      <cc:Work
         rdf:about="">
        <dc:format>image/svg+xml</dc:format>
        <dc:type
           rdf:resource="http://purl.org/dc/dcmitype/StillImage" />
        <dc:title></dc:title>
      </cc:Work>
    </rdf:RDF>
  </metadata>
  <g
     inkscape:label="Ebene 1"
     inkscape:groupmode="layer"
     id="layer1"
     transform="translate(782.11424,23.969541)">
    <g
       id="g6063"
       transform="matrix(17.434547,0,0,17.434547,-3071.5164,-6895.4035)">
      <path
         inkscape:connector-curvature="0"
         id="path4391"
         d="m 147.91085,397.00296 c -1.32564,0.0462 -2.46749,0.63254 -3.7491,0.55058 -0.77036,0.47398 -0.18938,1.32594 -1.31829,1.42868 -0.97634,0.42594 -0.39623,0.97047 -0.80133,1.66959 -0.12173,0.48763 -1.22363,-0.46475 -1.3057,0.63465 0.15946,0.74477 0.78007,1.54805 0.64612,2.45574 -0.29996,1.63367 -0.66115,3.32168 -0.51303,4.97351 -0.64824,1.54192 -0.33095,3.34278 -0.30441,4.99829 0.1362,1.84304 0.28416,3.70533 0.79863,5.4881 -1.69423,0.0615 -2.78563,1.05076 -4.05273,1.93945 -0.87746,1.00204 -2.95528,0.65392 -3.49363,1.60914 -0.0845,0.73546 0.39109,0.80431 1.00276,0.71117 11.19487,0 22.38975,0 33.58462,0 0.80203,-0.77723 -0.0556,-1.47485 -0.85742,-1.79296 -2.17544,-1.02061 -4.57677,-1.49166 -6.88875,-1.97887 -0.73815,-0.82875 -2.5726,-0.8217 -3.32421,-0.95897 -0.50172,0.46916 -0.67577,0.002 -1.51008,0.16404 -1.36863,-0.45788 -1.78671,-2.78236 0.004,-2.92765 1.60666,-1.37561 1.73685,-3.63032 1.98044,-5.57754 0.6212,-1.91174 1.01044,-3.89517 1.37755,-5.86553 -0.0579,-1.46576 -1.22275,-2.59109 -1.89328,-3.81879 0.10739,-0.56364 -0.20413,-1.33059 -0.91248,-1.30187 -1.43653,-0.54966 -2.79139,-1.90878 -4.42327,-1.52605 -0.99755,-0.27932 -2.27812,-0.95115 -3.38627,-0.70137 0.0302,0.072 -0.22535,-0.12819 -0.66014,-0.17334 z"
         style="color:#000000;font-style:normal;font-variant:normal;font-weight:normal;font-stretch:normal;font-size:medium;line-height:normal;font-family:sans-serif;text-indent:0;text-align:start;text-decoration:none;text-decoration-line:none;text-decoration-style:solid;text-decoration-color:#000000;letter-spacing:normal;word-spacing:normal;text-transform:none;direction:ltr;block-progression:tb;writing-mode:lr-tb;baseline-shift:baseline;text-anchor:start;white-space:normal;clip-rule:nonzero;display:inline;overflow:visible;visibility:visible;opacity:1;isolation:auto;mix-blend-mode:normal;color-interpolation:sRGB;color-interpolation-filters:linearRGB;solid-color:#000000;solid-opacity:1;fill:#ffffff;fill-opacity:1;fill-rule:nonzero;stroke:none;stroke-width:1;stroke-linecap:round;stroke-linejoin:bevel;stroke-miterlimit:4;stroke-dasharray:none;stroke-dashoffset:0;stroke-opacity:1;color-rendering:auto;image-rendering:auto;shape-rendering:auto;text-rendering:auto;enable-background:accumulate" />
      <path
         style="display:inline;fill:#000000;stroke:none;stroke-width:2;stroke-linecap:round;stroke-linejoin:bevel;stroke-miterlimit:4;stroke-dasharray:none;stroke-opacity:1"
         d="m 147.901,397.44546 c -0.34321,-0.007 -1.04378,0.0509 -1.15652,0.11404 -0.0684,0.0384 0.10718,0.0638 0.44947,0.0644 0.58962,0.001 0.89624,-0.0491 0.89624,-0.14759 0,-0.0187 -0.0748,-0.0286 -0.18919,-0.0308 z m 0.74464,0.11136 c -0.11184,0.003 -0.1957,0.035 -0.24687,0.0966 -0.0689,0.083 0.0264,0.10904 0.53399,0.1449 0.74801,0.0528 1.64344,0.2457 1.99909,0.43202 l 0.26163,0.13685 -0.35823,0.004 c -0.55216,0.005 -1.17531,0.37891 -1.17531,0.70573 0,0.0826 0.19462,0.0462 0.34079,-0.0644 0.0798,-0.0605 0.22144,-0.11133 0.31395,-0.11271 0.11683,-10e-4 0.16771,-0.0477 0.16771,-0.15026 0,-0.12986 0.0245,-0.13805 0.20393,-0.0698 0.54909,0.20876 1.104,-0.0481 0.75,-0.34749 -0.54246,-0.45878 -1.93265,-0.93717 -2.07155,-0.71243 -0.0499,0.0806 -0.11191,0.085 -0.3059,0.0174 -0.16192,-0.0564 -0.30139,-0.0832 -0.41323,-0.0805 z m -2.05411,0.25358 c -0.16206,-0.002 -0.34383,0.002 -0.53264,0.0134 -0.54646,0.0332 -0.88881,0.0923 -1.08408,0.18784 l -0.28578,0.13953 0.4119,-0.0416 c 0.22614,-0.0228 0.54528,-0.0606 0.70975,-0.0845 0.23428,-0.034 0.28057,-0.0236 0.21332,0.0483 -0.0473,0.0504 -0.34516,0.12019 -0.66144,0.15563 -0.71179,0.0798 -0.85317,0.12248 -1.06529,0.31664 -0.20621,0.18879 -0.2208,0.31052 -0.0242,0.20528 0.19924,-0.10666 0.26322,-0.0974 0.16234,0.0242 -0.0466,0.0561 -0.2405,0.12403 -0.43201,0.15027 -0.42789,0.0587 -0.86283,0.30814 -1.25716,0.72182 l -0.001,0.001 -0.29785,0.31261 0.26163,-0.13015 c 0.14391,-0.0719 0.48862,-0.27804 0.76744,-0.4575 0.60402,-0.38878 0.55913,-0.38015 0.51654,-0.0899 -0.0462,0.31523 0.23853,0.26645 0.90027,-0.15429 0.54205,-0.34461 0.63567,-0.3343 0.28175,0.0308 -0.30724,0.31699 -0.23616,0.42685 0.13685,0.21332 0.15143,-0.0867 0.38426,-0.18172 0.51789,-0.21064 0.13362,-0.029 0.24284,-0.0983 0.24284,-0.15429 0,-0.13327 -0.12639,-0.20852 -0.18649,-0.11136 -0.0596,0.0962 -0.18784,0.098 -0.18784,0.003 0,-0.16882 0.54625,-0.59723 0.94856,-0.74463 0.23894,-0.0876 0.48572,-0.17969 0.54741,-0.20394 0.19452,-0.0764 -0.11621,-0.13515 -0.60242,-0.14087 z m -2.06483,0.0751 c -0.15483,0.0451 -0.39848,0.21392 -0.39848,0.30724 0,0.085 0.0329,0.0944 0.13148,0.0403 0.25867,-0.14218 0.42778,-0.29538 0.3797,-0.34347 -0.0195,-0.0195 -0.0611,-0.019 -0.1127,-0.004 z m 4.15785,0.0832 c -0.16781,0.0137 -0.29517,0.1146 -0.29517,0.25894 0,0.0851 0.0512,0.14624 0.12075,0.14624 0.0773,0 0.10364,-0.0397 0.0751,-0.11405 -0.0354,-0.0921 0.008,-0.11136 0.21333,-0.0939 0.30233,0.0256 0.34873,-0.10509 0.0644,-0.18113 -0.0618,-0.0165 -0.12251,-0.0207 -0.17845,-0.0161 z m -1.1364,0.19185 c -0.17301,-0.0187 -0.53345,0.0612 -0.64266,0.1704 -0.10729,0.10736 -0.10271,0.11806 0.0456,0.11806 0.14037,0 0.31664,0.18807 0.31664,0.33676 0,0.0827 -0.33025,-0.049 -0.49105,-0.19588 -0.20386,-0.18616 -0.58267,0.13284 -0.40787,0.34347 0.15615,0.18814 1.27324,0.11283 1.27324,-0.0859 0,-0.0587 -0.0571,-0.0968 -0.13014,-0.0845 -0.0985,0.0166 -0.13677,-0.0374 -0.15429,-0.21869 l -0.0242,-0.24016 0.35957,0.15832 c 0.19781,0.0868 0.3687,0.17962 0.37969,0.20662 0.0109,0.0269 0.13715,0.22654 0.28042,0.44409 0.3217,0.48848 0.3227,0.48481 -0.0188,0.34213 l -0.2804,-0.11672 0.24687,0.25357 c 0.24544,0.25324 0.24982,0.25571 1.1109,0.30188 0.62645,0.0336 0.88722,0.0752 0.94856,0.15429 0.0466,0.06 0.16959,0.12436 0.27237,0.14222 0.32611,0.0567 0.37298,0.0543 0.37298,-0.0174 0,-0.0385 -0.16578,-0.16043 -0.36896,-0.27102 -0.38194,-0.20788 -0.58889,-0.45963 -0.30322,-0.36896 0.0832,0.0264 0.14893,0.0135 0.14893,-0.0295 0,-0.10199 -0.3227,-0.27249 -0.35287,-0.18649 -0.0934,0.26583 -0.16218,0.28647 -0.35286,0.10734 -0.32512,-0.30544 -0.25503,-0.72156 0.17309,-1.02371 l 0.27101,-0.19186 -0.26162,0.0456 c -0.24795,0.0429 -0.51938,0.27267 -0.72048,0.61181 -0.0801,0.13516 -0.0898,0.1324 -0.17979,-0.0617 -0.14777,-0.31862 -0.21997,-0.24562 -0.22272,0.22405 -0.002,0.39423 -0.012,0.41753 -0.1127,0.28445 -0.0604,-0.0798 -0.11002,-0.22045 -0.11002,-0.31262 0,-0.1019 -0.058,-0.18581 -0.14892,-0.21466 -0.0823,-0.0261 -0.15027,-0.0937 -0.15027,-0.15027 0,-0.13958 -0.29278,-0.33542 -0.50178,-0.33542 -0.0936,0 -0.1704,-0.038 -0.1704,-0.0845 0,-0.0306 -0.0363,-0.0488 -0.0939,-0.055 z m 4.85149,0.0497 c -0.17101,0.002 -0.30311,0.04 -0.39042,0.11672 -0.12016,0.10561 -0.18054,0.19317 -0.13417,0.19454 0.0464,0.001 0.12592,-0.0484 0.1771,-0.11001 0.16558,-0.19952 1.63031,0.28252 2.3372,0.76878 0.20527,0.1412 0.49506,0.30654 0.64401,0.36761 0.14893,0.0611 0.42275,0.20558 0.60777,0.32067 0.18502,0.11507 0.50417,0.23329 0.70975,0.26296 0.36311,0.0524 0.36867,0.0566 0.20527,0.16637 -0.24646,0.16552 -0.20681,0.37211 0.15832,0.83855 0.17903,0.22868 0.39654,0.57858 0.48435,0.77817 0.0878,0.1996 0.34117,0.62111 0.56216,0.93649 0.76087,1.08587 0.83214,1.36089 0.60376,2.32647 -0.0632,0.26725 -0.23577,1.09129 -0.38238,1.83138 -0.15865,0.80095 -0.39697,1.71627 -0.59034,2.26207 -0.27355,0.77219 -0.33786,1.06423 -0.40518,1.84614 -0.14061,1.63286 -0.71959,3.33306 -1.38596,4.07064 -0.23151,0.25628 -0.30377,0.28894 -0.71243,0.32603 -1.04438,0.0947 -1.35768,1.31262 -0.7728,3.00669 l 0.36225,1.04651 0.0201,1.98166 c 0.007,0.63917 0.0119,1.05183 0.0187,1.35643 l 0.29114,0 c -0.0529,-0.23228 -0.0806,-0.70341 -0.12746,-1.63685 -0.0511,-1.0176 -0.11246,-1.9649 -0.13684,-2.10508 -0.0396,-0.22734 -0.0292,-0.24861 0.0966,-0.19991 0.25515,0.0987 0.92156,0.13701 0.70171,0.0403 -0.93649,-0.41221 -1.1483,-0.70427 -1.1847,-1.63282 -0.0438,-1.11603 0.14848,-1.51768 0.7634,-1.60197 1.11827,-0.15327 2.11655,-2.14942 2.25939,-4.51742 0.0402,-0.66603 0.10268,-0.96921 0.3703,-1.77503 0.17753,-0.5345 0.42861,-1.52174 0.5568,-2.19364 0.12819,-0.67189 0.31527,-1.5393 0.41592,-1.92665 0.30406,-1.17024 0.23479,-1.49903 -0.56619,-2.68603 -0.21305,-0.31573 -0.46415,-0.74644 -0.55814,-0.95796 -0.094,-0.21151 -0.3099,-0.54122 -0.47898,-0.73255 -0.35702,-0.40399 -0.35367,-0.39246 -0.15295,-0.60778 l 0.15429,-0.16502 -0.19588,-0.16906 c -0.10749,-0.0925 -0.26189,-0.16771 -0.34347,-0.16771 -0.16925,0 -0.48106,-0.14965 -1.48792,-0.71511 -1.11092,-0.62383 -1.98113,-0.95007 -2.49417,-0.94454 z m -7.27322,0.24284 c 0.0354,-0.002 0.0483,0.0177 0.0483,0.059 0,0.0346 -0.0837,0.1008 -0.18649,0.14759 -0.21964,0.10006 -0.25648,-0.0178 -0.0416,-0.13282 0.0876,-0.0469 0.1444,-0.0715 0.17978,-0.0738 z m 7.59925,0.23211 c -0.63873,-0.0525 -1.39641,0.24119 -1.08407,0.58631 0.26397,0.29165 0.13441,0.49885 -0.14356,0.22942 -0.22189,-0.21506 -0.82998,-0.43824 -0.92844,-0.34078 -0.11927,0.11809 0.0889,0.48439 0.21198,0.37299 0.12675,-0.11471 0.15588,-0.11026 0.44008,0.0778 0.21747,0.14392 0.36458,0.1902 0.51251,0.16101 0.17574,-0.0347 0.26228,0.0177 0.57961,0.34615 0.41346,0.42802 0.88075,0.6888 1.37253,0.76744 0.36344,0.0581 0.47293,0.21093 0.26297,0.36493 -0.11932,0.0877 -0.15716,0.0866 -0.2576,-0.004 -0.13708,-0.12361 -0.33862,-0.13856 -0.40519,-0.0308 -0.0254,0.0411 4.7e-4,0.0738 0.0577,0.0738 0.0572,0 0.21265,0.13474 0.34481,0.29919 0.26999,0.33596 0.45751,0.38842 0.45751,0.12746 0,-0.22262 0.1323,-0.35152 0.36225,-0.35152 0.174,0 0.17672,-0.007 0.0577,-0.13819 -0.069,-0.0763 -0.10602,-0.19066 -0.0818,-0.25358 0.0323,-0.0842 -0.0403,-0.14154 -0.27773,-0.21735 -0.21679,-0.0692 -0.32082,-0.14259 -0.31395,-0.2254 0.006,-0.0754 -0.13325,-0.2009 -0.35822,-0.32334 l -0.36629,-0.19992 0.0483,0.19321 c 0.0486,0.19363 -0.0252,0.25128 -0.15832,0.12477 -0.039,-0.0371 -0.13318,-0.0783 -0.20931,-0.0926 -0.33396,-0.0626 0.21361,-0.43661 0.82916,-0.56619 0.65499,-0.13787 0.67247,-0.14595 0.57289,-0.24552 -0.11735,-0.11736 -0.92348,0.0469 -1.35106,0.27504 l -0.3864,0.20662 -0.38909,-0.39446 c -0.42573,-0.43251 -0.43637,-0.50634 -0.0604,-0.40384 0.52597,0.1434 1.48093,-0.0438 1.2169,-0.23882 -0.14271,-0.10544 -0.34255,-0.16228 -0.55546,-0.17979 z m -6.08583,0.51386 -0.23077,0.003 0.18649,0.10733 c 0.13608,0.0777 0.15243,0.1073 0.0604,0.10867 -0.0695,10e-4 -0.14587,0.0354 -0.17039,0.0751 -0.0279,0.0452 0.13118,0.0564 0.42531,0.0295 0.25854,-0.0236 0.5873,-0.008 0.73121,0.0335 0.3428,0.0997 0.37433,0.10185 0.37433,0.0242 0,-0.15375 -0.27456,-0.27224 -0.64669,-0.27773 -0.21967,-0.003 -0.42191,-0.0275 -0.44946,-0.055 -0.0275,-0.0276 -0.15363,-0.0497 -0.28041,-0.0483 z m 2.37073,0.003 c 0.0506,-0.0253 0.18895,0.0348 0.39311,0.19051 0.14117,0.10767 0.25626,0.22543 0.25626,0.26163 0,0.14942 -0.37114,0.0564 -0.51789,-0.13014 -0.14554,-0.18503 -0.18212,-0.29669 -0.13148,-0.322 z m -4.57645,0.44811 c -0.008,-0.0108 -0.0421,-0.007 -0.10867,0.0188 -0.07,0.0269 -0.31153,0.10224 -0.53667,0.16771 -0.22515,0.0655 -0.38978,0.14984 -0.36629,0.18783 0.0649,0.10504 0.26261,0.0811 0.60376,-0.0738 0.22841,-0.10379 0.4326,-0.2681 0.40787,-0.30053 z m 2.92754,0.0832 c -0.1131,-0.0161 -0.16771,0.015 -0.16771,0.0939 0,0.0808 -0.0706,0.11673 -0.22675,0.11673 -0.26494,0 -0.70209,0.16925 -0.78488,0.30322 -0.0587,0.095 0.0561,0.0832 0.48032,-0.047 0.12815,-0.0394 0.16452,-0.0299 0.12612,0.0322 -0.0315,0.051 0.003,0.10459 0.0818,0.13014 0.0746,0.024 0.20355,0.0756 0.28578,0.11405 0.0822,0.0384 0.38437,0.11633 0.67218,0.17307 0.64794,0.12782 0.88269,0.14037 0.82244,0.0429 -0.0254,-0.0411 -0.12163,-0.0751 -0.21466,-0.0751 -0.25381,0 -0.84641,-0.21915 -0.95796,-0.3542 -0.0869,-0.10521 -0.0725,-0.11256 0.12612,-0.0698 0.58981,0.12704 1.3826,0.19047 1.72003,0.13819 0.35831,-0.0556 0.34257,-0.0607 -0.36091,-0.1127 -1.02902,-0.0761 -1.48021,-0.18011 -1.45438,-0.33676 0.0132,-0.08 -0.0393,-0.13354 -0.14758,-0.14893 z m 7.5657,0.009 c -0.037,-0.032 -0.11314,0.005 -0.24418,0.0966 -0.19598,0.13727 -0.17469,0.28635 0.10599,0.72182 0.21808,0.3384 0.31399,0.35858 0.26968,0.0563 -0.0181,-0.12334 -0.0644,-0.22406 -0.10331,-0.22406 -0.0416,0 -0.0511,-0.1392 -0.0214,-0.33675 0.0272,-0.18159 0.0303,-0.28193 -0.007,-0.31395 z m -0.80098,0.0295 c -0.0512,-0.002 -0.11644,0.001 -0.19857,0.009 -0.36745,0.035 -0.38968,0.11348 -0.0617,0.21869 0.33532,0.10754 0.33254,0.10786 0.38371,-0.0255 0.0534,-0.13908 0.0303,-0.19604 -0.12343,-0.20259 z m -9.12473,0.0134 c -0.0497,-0.0344 -0.23582,0.0447 -0.53667,0.25223 -0.77581,0.53516 -1.06641,1.2892 -0.6373,1.65026 0.26033,0.21905 0.30054,0.23598 0.30054,0.12746 0,-0.0398 -0.0889,-0.1196 -0.19857,-0.1771 l -0.19991,-0.10465 0.21869,-0.13551 c 0.4763,-0.29631 1.09535,-1.04413 0.74866,-0.90429 -0.0658,0.0265 -0.17892,0.0702 -0.25089,0.0966 -0.072,0.0264 0.053,-0.14235 0.27772,-0.37432 0.24109,-0.24888 0.32743,-0.39631 0.27773,-0.43068 z m 1.08273,0.051 c -0.0336,0.003 -0.0837,0.017 -0.15027,0.0403 -0.31059,0.10826 -0.74991,0.5794 -0.61717,0.66144 0.08,0.0495 0.0687,0.0734 -0.051,0.11136 -0.2894,0.0919 -0.54492,0.35748 -0.7661,0.79561 -0.29094,0.57636 -0.28375,0.63849 0.0778,0.69633 0.28309,0.0453 0.42631,0.19455 0.1865,0.19455 -0.67952,0 0.0695,0.20361 1.12163,0.30456 0.52841,0.0507 0.94324,0.12741 1.01028,0.18649 0.0758,0.0668 0.15053,0.0774 0.22407,0.0308 0.0607,-0.0384 0.74481,-0.0705 1.52012,-0.0711 1.22203,-6.9e-4 1.40446,-0.0168 1.36716,-0.11405 -0.0658,-0.17141 0.0364,-0.13846 0.61851,0.19857 0.29488,0.17071 0.71017,0.35326 0.92442,0.40519 l 0.001,0 c 0.90801,0.22008 1.07354,0.0974 0.25625,-0.18918 -0.8201,-0.28754 -0.81383,-0.28359 -0.71108,-0.44812 0.0734,-0.11753 0.0736,-0.16924 0.001,-0.2415 -0.0723,-0.0723 -0.0926,-0.0641 -0.0926,0.0362 0,0.22991 -0.21089,0.13277 -0.45751,-0.21065 -0.16586,-0.23097 -0.26004,-0.30893 -0.2992,-0.24553 -0.0428,0.0692 -0.10091,0.0541 -0.22942,-0.0631 -0.29619,-0.26999 -0.65742,-0.41349 -0.65742,-0.26028 0,0.0361 0.0926,0.10434 0.20662,0.1516 0.11401,0.0473 0.35797,0.21942 0.54203,0.38238 l 0.33408,0.29651 -0.48569,-0.0456 c -0.29988,-0.0278 -0.85602,0.005 -1.44766,0.0845 -1.01363,0.1365 -1.42259,0.12215 -2.47674,-0.0859 -1.15671,-0.22825 -1.91188,-0.98235 -1.09346,-1.09212 0.33305,-0.0447 1.16209,-0.39972 1.28801,-0.55143 0.16112,-0.19414 -0.18181,-0.11335 -0.81574,0.19321 -0.33702,0.16297 -0.6118,0.26776 -0.6118,0.23211 0,-0.0631 0.60577,-0.48751 0.96332,-0.67487 0.13837,-0.0725 0.15448,-0.10793 0.0751,-0.15698 -0.0807,-0.0499 -0.0593,-0.10797 0.10197,-0.27638 0.19489,-0.20343 0.24299,-0.28553 0.14221,-0.27505 z m -2.78398,0.41592 c -0.026,-6.9e-4 -0.0562,0.004 -0.0832,0.0148 -0.0596,0.0239 -0.0415,0.0408 0.0456,0.0442 0.0788,0.003 0.12274,-0.0141 0.0979,-0.0389 -0.0124,-0.0122 -0.0344,-0.0191 -0.0604,-0.0201 z m -0.61851,0.0631 c -0.0445,-0.0142 -0.15347,0.31436 -0.26834,0.88148 -0.21633,1.06805 -0.28938,1.2881 -0.30456,0.91502 -0.0127,-0.31198 -0.0434,-0.24267 -0.11538,0.26163 l -0.0537,0.37433 -0.0979,-0.22406 c -0.1609,-0.36567 -0.12633,-0.60701 0.1288,-0.89758 0.27451,-0.31262 0.26811,-0.32661 -0.11404,-0.27907 l -0.2898,0.0362 0.0389,0.60777 c 0.026,0.41048 0.0914,0.71661 0.20259,0.94454 l 0.16503,0.33677 -0.22674,1.15786 c -0.22339,1.14471 -0.32887,1.98218 -0.42398,3.36358 -0.0752,1.0923 -0.003,0.81261 0.37165,-1.44901 l 0.34481,-2.08362 0.6051,-1.11225 c 0.46948,-0.86477 0.60939,-1.19291 0.62925,-1.47182 0.0141,-0.19737 0.0603,-0.45164 0.1033,-0.56484 0.20731,-0.54525 -0.0444,-0.66539 -0.48032,-0.22943 l -0.26565,0.26431 0.0497,-0.41458 c 0.0326,-0.27686 0.028,-0.40874 0.001,-0.41726 z m 12.88545,0.0617 c -0.39394,0.0112 -0.40007,0.1018 -0.0429,0.65608 0.1837,0.28517 0.29906,0.53115 0.25626,0.54606 -0.0429,0.0149 0.0319,0.1404 0.16637,0.27907 0.32271,0.33296 0.33267,0.30486 0.1838,-0.52191 -0.15055,-0.83612 -0.22911,-0.96878 -0.5635,-0.9593 z m -4.74416,0.0214 c -0.0289,0.005 -0.0416,0.0243 -0.0416,0.0563 0,0.13384 0.92773,0.71274 1.3457,0.83988 0.59446,0.18083 0.44225,0.0258 -0.52325,-0.53398 -0.46288,-0.26833 -0.69418,-0.37799 -0.78086,-0.36226 z m -1.19946,0.0631 0.27772,0.15296 c 0.15292,0.0841 0.3162,0.22847 0.3636,0.32065 0.0474,0.0922 0.17268,0.26035 0.27773,0.37299 0.26879,0.2882 0.14941,0.34292 -0.20797,0.0953 -0.2975,-0.20618 -0.38136,-0.3381 -0.21466,-0.3381 0.049,0 0.0284,-0.0642 -0.0483,-0.14893 -0.18933,-0.20921 -0.2643,-0.18905 -0.54607,0.15027 -0.24048,0.28956 -0.2429,0.29782 -0.0751,0.29919 0.22878,0.002 0.77015,0.25251 1.04248,0.48166 0.12029,0.10122 0.26457,0.16561 0.322,0.14356 0.0574,-0.0221 0.28336,0.081 0.50179,0.22809 0.21845,0.1471 0.44046,0.26699 0.4924,0.26699 0.16683,0 0.0996,-0.20669 -0.0818,-0.25223 -0.27701,-0.0695 -1.31401,-1.31753 -1.09481,-1.31753 0.24335,0 -0.34861,-0.37067 -0.6534,-0.40921 l -0.35554,-0.0456 z m 5.92349,0.106 c 0.0514,-0.0208 0.13646,-0.0208 0.18784,0 0.0514,0.0207 0.009,0.0376 -0.0939,0.0376 -0.10279,0 -0.1453,-0.0168 -0.0939,-0.0376 z m -6.13011,0.0188 c -0.0736,-0.021 -0.20428,0.0365 -0.37433,0.20662 -0.0967,0.0967 -0.22101,0.19089 -0.27638,0.2093 -0.0806,0.0269 -0.0754,0.0721 0.0269,0.22808 0.17723,0.27049 0.0426,0.31624 -0.26163,0.0886 -0.58764,-0.4399 -1.24282,-0.60859 -1.5617,-0.40251 -0.0808,0.0521 -0.008,0.0731 0.26162,0.0751 0.38535,0.003 0.82829,0.17193 1.15786,0.44141 0.30035,0.24558 0.47036,0.19619 0.8466,-0.24418 0.2684,-0.31417 0.30376,-0.56735 0.18113,-0.60242 z m -5.4311,0.25492 c 0.037,0 0.0684,0.0807 0.0684,0.17844 0,0.17899 -0.16413,0.3806 -0.24418,0.30054 -0.0602,-0.0602 0.0934,-0.47898 0.17576,-0.47898 z m 8.42841,0 c -0.3016,0 -0.32411,0.12638 -0.0322,0.18113 0.13941,0.0262 0.29452,0.0964 0.34481,0.15697 0.11646,0.14013 0.22272,0.14183 0.22272,0.003 0,-0.15278 -0.29515,-0.34079 -0.53533,-0.34079 z m -9.15426,0.0537 c 0.0261,0.0503 -0.10229,0.26144 -0.31395,0.48837 -0.23155,0.2487 -0.34998,0.26807 -0.23076,0.0376 0.11703,-0.2263 0.29755,-0.42869 0.46421,-0.51789 0.0456,-0.0244 0.0718,-0.0248 0.0805,-0.008 z m -1.85822,0.18784 c -0.009,-0.008 -0.0341,0.0254 -0.0832,0.0926 -0.0577,0.079 -0.10599,0.18927 -0.10599,0.24553 0,0.17277 0.13017,0.0339 0.17173,-0.18381 0.0183,-0.096 0.0262,-0.14609 0.0174,-0.15429 z m 10.07733,0.23211 c -0.0191,0.0191 0.24392,0.39622 0.58497,0.8372 l 0.61985,0.80098 0.0899,-0.22003 c 0.16632,-0.4076 0.56278,-0.50079 1.1847,-0.27907 0.14395,0.0513 0.14439,0.0476 0.0161,-0.0885 -0.0733,-0.0778 -0.24069,-0.17824 -0.37298,-0.22406 -0.14831,-0.0513 -0.23764,-0.12985 -0.23077,-0.20527 0.0158,-0.18645 -0.39222,-0.16666 -0.44141,0.0214 -0.0438,0.16767 -0.3542,0.13243 -0.3542,-0.0403 0,-0.10218 -1.0302,-0.66835 -1.09615,-0.60241 z m 4.97091,0.0134 c -0.0352,0.0213 -0.016,0.16369 0.0631,0.43068 0.0663,0.22414 0.22362,0.48046 0.42531,0.69096 0.45294,0.47273 0.47862,0.41968 0.11538,-0.24418 -0.33569,-0.61329 -0.54504,-0.91296 -0.60375,-0.87746 z m -1.62075,0.14893 c -0.0601,0.0601 0.23714,0.34403 0.51252,0.48971 0.29918,0.15826 0.37433,0.17387 0.37433,0.0765 0,-0.0829 -0.83622,-0.61682 -0.88685,-0.56619 z m -0.54204,0.12612 c -0.0613,0.003 -0.0667,0.0769 -0.0523,0.22272 0.0202,0.20503 0.0952,0.28128 0.54606,0.55545 0.54207,0.32961 0.68165,0.36271 0.44812,0.10465 -0.0749,-0.0827 -0.11621,-0.16957 -0.0926,-0.1932 0.0796,-0.0796 0.31433,0.10491 0.95125,0.74865 0.70529,0.71288 0.8056,0.76891 0.63461,0.35957 -0.16596,-0.39729 -0.39834,-0.61278 -1.10151,-1.02504 -0.33878,-0.19863 -0.76409,-0.45691 -0.94589,-0.57424 -0.20933,-0.13512 -0.32637,-0.20194 -0.38774,-0.19856 z m -11.23116,0.0483 c 0.0161,0.009 0.0255,0.0317 0.0255,0.0684 0,0.0771 -0.35136,0.74689 -0.54874,1.04517 -0.27674,0.4182 -0.33443,0.3299 -0.16235,-0.24955 0.11423,-0.38463 0.57251,-0.93051 0.6856,-0.86405 z m 9.04691,0.19589 c 0.0563,0.0137 0.17135,0.0988 0.33677,0.25491 0.28093,0.26508 0.30141,0.30587 0.15966,0.30725 -0.17295,0.002 -0.34715,-0.13871 -0.47898,-0.38507 -0.0713,-0.13316 -0.0737,-0.19079 -0.0174,-0.17709 z m 1.10823,0.63729 0.29919,0.14759 c 0.16446,0.0816 0.34763,0.14889 0.40787,0.15026 0.24211,0.004 -0.1225,-0.22772 -0.41323,-0.26296 l -0.29383,-0.0349 z m 3.57422,0.18113 c -0.0354,0.0168 0.0122,0.1813 0.14088,0.58094 0.17351,0.53875 0.20979,0.57789 0.36091,0.3958 0.11658,-0.14047 -0.0703,-0.60632 -0.34749,-0.86673 -0.0818,-0.0768 -0.13304,-0.1201 -0.1543,-0.11001 z m -3.72583,0.0443 c -0.12447,0 -0.15322,0.33741 -0.0349,0.41055 0.0411,0.0254 0.0738,-0.005 0.0738,-0.0698 0,-0.20875 0.43334,0.0128 0.92174,0.47093 l 0.21064,0.19723 -0.18381,0.0376 -0.18381,0.0376 0.32737,0.89758 c 0.1803,0.49338 0.38176,1.041 0.44812,1.21824 0.15048,0.4023 0.21015,0.36592 0.11001,-0.0684 -0.10995,-0.47701 -0.10498,-0.55392 0.0322,-0.44006 0.15134,0.12558 0.14156,0.0571 -0.0362,-0.24419 -0.0819,-0.13875 -0.21342,-0.43684 -0.29115,-0.66278 l -0.14087,-0.41056 0.1771,-0.17039 c 0.34011,-0.32735 -0.70081,-1.20349 -1.43023,-1.20349 z m 1.93872,0.14087 c -0.0642,-0.0103 -0.10465,-0.008 -0.10465,0.009 0,0.0363 0.075,0.11844 0.16637,0.18246 0.17205,0.12052 0.74247,0.1678 0.61448,0.051 -0.0874,-0.0797 -0.48379,-0.21202 -0.6762,-0.24284 z m -9.56212,0.008 c -0.0376,0 0.0572,0.249 0.26431,0.6923 0.0529,0.1132 0.10908,0.19415 0.12344,0.17979 0.0349,-0.0349 -0.33733,-0.87209 -0.38775,-0.87209 z m 9.37429,0.41324 c -0.0554,0.0424 0.0196,0.22901 0.24552,0.6601 l 0.106,0.20259 0.1771,-0.18917 c 0.19687,-0.20956 0.31569,-0.2288 0.66413,-0.10734 0.27348,0.0953 0.31071,0.21732 0.0671,0.2187 -0.33827,0.002 -0.40004,0.13308 -0.0885,0.18783 0.37754,0.0663 0.82271,0.32378 1.15249,0.66681 l 0.001,0 c 0.30081,0.31291 0.38537,0.2352 0.15295,-0.14087 -0.41709,-0.67487 -1.08797,-1.09756 -2.38013,-1.49731 -0.0464,-0.0144 -0.0795,-0.0155 -0.0979,-10e-4 z m -8.6404,0.60375 c -0.007,0.017 -0.0121,0.0532 -0.0121,0.10465 0,0.10279 0.0181,0.1453 0.0389,0.0939 0.0207,-0.0514 0.0207,-0.13512 0,-0.1865 -0.0104,-0.0257 -0.02,-0.029 -0.0269,-0.0121 z m 11.11847,0.23479 c -0.11372,-0.0317 -0.0999,0.0519 0.0711,0.20662 0.0823,0.0744 0.15027,0.19 0.15027,0.2576 0,0.0677 0.0403,0.16373 0.0899,0.21333 0.0704,0.0704 0.10556,0.0648 0.15831,-0.0295 0.096,-0.17156 -0.0368,-0.41631 -0.31395,-0.57692 -0.0654,-0.0379 -0.11772,-0.0605 -0.15563,-0.0711 z m 0.94051,0.18784 c -0.0181,0.0136 -0.0446,0.11502 -0.0791,0.3059 -0.0355,0.19588 -0.026,0.27227 0.0282,0.23882 0.0438,-0.0271 0.0792,-0.16965 0.0792,-0.31798 0,-0.16495 -0.01,-0.24034 -0.0282,-0.22674 z m -2.3761,0.14355 c -0.0923,0.002 0.0328,0.093 0.4669,0.38238 0.56108,0.37413 0.79555,0.62797 0.68426,0.73927 -0.0638,0.0638 -0.007,0.13468 0.22808,0.28443 0.17283,0.11001 0.36079,0.25597 0.41726,0.32468 0.27906,0.33968 0.29459,0.10064 0.0214,-0.33004 -0.46549,-0.73401 -1.10529,-1.26522 -1.65697,-1.37656 -0.0755,-0.0153 -0.13021,-0.0247 -0.16099,-0.0242 z m -0.41055,0.29115 c -0.0358,4.4e-4 -0.0622,0.006 -0.0751,0.0188 -0.0246,0.0246 0.18272,0.29909 0.4602,0.60911 0.27747,0.31004 0.47179,0.56351 0.43201,0.56351 -0.0398,0 -0.13353,-0.068 -0.20795,-0.15026 -0.38476,-0.42515 -0.20583,-0.0659 0.22406,0.44945 0.51091,0.61257 0.5439,0.70882 0.15026,0.44813 -0.35717,-0.23656 -0.3721,-0.17485 -0.047,0.19454 0.19951,0.22665 0.39723,0.58712 0.58094,1.06126 0.37887,0.97771 0.39521,0.76478 0.055,-0.70974 -0.27358,-1.18579 -0.2991,-1.25417 -0.59972,-1.58855 l -0.3153,-0.35018 0.23748,0.0282 c 0.19874,0.0231 0.21677,0.0134 0.10599,-0.0563 -0.0729,-0.0459 -0.11376,-0.11379 -0.0912,-0.15027 0.0621,-0.1005 -0.65924,-0.37072 -0.90966,-0.36762 z m 1.82601,1.18201 c -0.0442,-0.0102 -0.0935,0.0201 -0.14355,0.0993 -0.0372,0.0589 -0.0177,0.12929 0.0497,0.17978 0.0781,0.0585 0.11136,0.22706 0.11136,0.5729 0,0.26964 0.0244,0.55259 0.055,0.6279 0.0342,0.0843 0.0767,-0.12256 0.11002,-0.53667 0.0417,-0.51863 -0.0497,-0.91238 -0.18248,-0.9432 z m -2.02995,0.047 c -0.017,-0.0112 -0.035,-0.007 -0.0563,0.007 -0.0905,0.0559 -0.017,0.55228 0.14088,0.9499 0.15983,0.40247 0.20351,0.28571 0.0993,-0.26296 -0.0925,-0.48711 -0.13294,-0.66005 -0.18381,-0.69365 z m 0.50044,0.66144 c -0.0792,0.0792 0.20389,0.56804 0.38372,0.6628 0.0845,0.0445 0.22932,0.16142 0.322,0.26028 0.22477,0.23971 0.36552,0.14851 0.17576,-0.11404 -0.23996,-0.33201 -0.82336,-0.86715 -0.88148,-0.80904 z m -0.91904,0.0859 -0.001,0.19455 c -2e-4,0.10733 0.0255,0.35977 0.0563,0.56082 l 0.0563,0.36628 0.0242,-0.29786 c 0.0133,-0.16393 0.05,-0.31567 0.0818,-0.33676 0.0318,-0.0211 -0.005,-0.13962 -0.0805,-0.26296 l -0.13685,-0.22407 z m -0.72987,0.66547 c -0.0205,0.0205 -0.0134,0.15991 0.0148,0.30993 0.0281,0.15003 0.068,0.25668 0.0885,0.23614 0.0205,-0.0205 0.0134,-0.15991 -0.0148,-0.30993 -0.0282,-0.15002 -0.068,-0.25668 -0.0885,-0.23614 z m 1.29203,0.19858 c -0.0547,-0.008 -0.12431,0.0618 -0.1865,0.21198 -0.1279,0.30878 -0.0332,0.85727 0.24285,1.4101 0.24929,0.4991 0.28623,0.52183 0.57558,0.35152 l 0.18783,-0.11002 -0.22405,0.0188 c -0.25232,0.0216 -0.49531,-0.36203 -0.60242,-0.95393 l -0.0537,-0.29785 0.16771,0.20929 c 0.25541,0.31871 1.27325,0.79706 1.27325,0.59839 0,-0.0292 -0.15174,-0.19239 -0.33676,-0.36225 -0.2811,-0.25811 -0.33676,-0.35369 -0.33676,-0.58229 0,-0.15917 -0.0363,-0.2737 -0.0872,-0.2737 -0.0482,0 -0.14887,-0.0554 -0.22406,-0.12343 -0.17771,-0.16078 -0.19094,0.003 -0.0255,0.32066 0.11925,0.22857 0.14873,0.47704 0.0563,0.47361 -0.12721,-0.005 -0.33273,-0.39988 -0.33273,-0.63864 0,-0.159 -0.0393,-0.24444 -0.0939,-0.25223 z m 1.06529,0.67083 c -0.11374,-0.005 0.0293,0.19526 0.22272,0.31261 0.11158,0.0677 0.21803,0.10665 0.23747,0.0872 0.0385,-0.0385 -0.37234,-0.3957 -0.46019,-0.39982 z m -14.32775,0.0335 c -0.078,0.0133 -0.12019,0.0584 -0.1932,0.1449 -0.0839,0.0994 -0.23207,0.20388 -0.32872,0.23212 -0.12226,0.0356 -0.151,0.0744 -0.0966,0.1288 0.0544,0.0543 0.17939,0.0503 0.41189,-0.0148 0.2681,-0.0753 0.39018,-0.0758 0.61985,0 0.15741,0.0519 0.47123,0.11832 0.69768,0.14759 0.61381,0.0792 0.67351,0.08 0.67351,0.001 10e-6,-0.11617 -0.28212,-0.23393 -0.50446,-0.21064 -0.15552,0.0163 -0.20338,-0.01 -0.19589,-0.10734 0.0111,-0.14331 -0.042,-0.16573 -0.67889,-0.27906 -0.21313,-0.0379 -0.32721,-0.0562 -0.40518,-0.0429 z m 12.72445,0.0631 c -0.0208,0.0208 0.0203,0.12442 0.0899,0.23077 0.17389,0.26542 0.21379,0.24353 0.0684,-0.0376 -0.0657,-0.12723 -0.1375,-0.21402 -0.15832,-0.1932 z m -0.51252,0.2992 c -0.0564,-0.0171 -0.0377,0.10047 0.0563,0.35689 l 0.0939,0.25357 0.0242,-0.21467 c 0.0146,-0.12602 -0.0236,-0.26507 -0.0926,-0.33407 -0.0355,-0.0355 -0.0631,-0.0561 -0.0818,-0.0618 z m -13.04108,0.33542 c -0.0104,10e-4 -0.0228,0.008 -0.0362,0.0214 -0.56511,0.56512 -0.18528,7.43894 0.54472,9.85998 l 0.12478,0.41189 0.0214,-0.34079 c 0.0122,-0.187 -0.0764,-0.79261 -0.19722,-1.3457 -0.53171,-2.43365 -0.69634,-5.23921 -0.44946,-7.67438 0.0665,-0.65594 0.0652,-0.94267 -0.008,-0.93247 z m 6.32734,0.1449 c -0.1681,-0.001 -0.2884,0.0199 -0.30859,0.0725 -0.0233,0.0606 0.0255,0.0953 0.13148,0.0953 0.0923,0 0.24523,0.0548 0.33944,0.12075 0.0942,0.066 0.26142,0.14647 0.37165,0.17979 0.34985,0.10557 0.911,0.0513 0.911,-0.0886 0,-0.16845 -0.94071,-0.37554 -1.44498,-0.37969 z m -4.69855,0.45214 c -0.4147,-0.004 -0.73741,0.12457 -0.93783,0.38373 -0.12945,0.16734 -0.11622,0.25314 0.0295,0.19722 0.0687,-0.0264 0.14883,-0.009 0.17844,0.0389 0.035,0.0567 0.0719,0.03 0.10599,-0.0778 0.0482,-0.15173 0.0845,-0.16151 0.42934,-0.11405 0.28007,0.0385 0.39257,0.0261 0.44141,-0.0497 0.0545,-0.0845 0.0775,-0.0825 0.14087,0.0107 0.0661,0.0972 0.0912,0.0927 0.1865,-0.0322 0.0605,-0.0792 0.12476,-0.13029 0.14221,-0.1127 0.37361,0.37657 0.56132,0.74194 0.38104,0.74194 -0.0617,0 -0.11271,0.034 -0.11271,0.0751 1e-5,0.0411 0.11773,0.0751 0.26163,0.0751 0.27079,0 0.34105,-0.11514 0.17308,-0.28309 -0.0487,-0.0486 -0.0623,-0.11351 -0.0308,-0.1449 0.0687,-0.0687 0.26967,0.18585 0.26967,0.34213 0,0.20529 -0.64075,0.72691 -1.33228,1.08407 -0.3779,0.19518 -0.68694,0.36913 -0.68694,0.38774 0,0.1144 0.4401,-0.007 0.95393,-0.26431 1.23948,-0.62039 1.66263,-1.49304 0.89758,-1.85151 -0.56867,-0.26647 -1.0759,-0.40259 -1.4906,-0.40653 z m 13.72936,0.0537 c -0.1104,10e-4 -0.22057,0.0284 -0.23747,0.0792 -0.016,0.0479 0.0793,0.0786 0.23613,0.0751 0.14482,-0.003 0.25235,-0.0394 0.23882,-0.0805 -0.0166,-0.0504 -0.12708,-0.0751 -0.23748,-0.0738 z m -7.32152,0.059 c -0.20624,0.0153 -0.0383,0.11704 0.44812,0.21064 0.2496,0.048 0.49528,0.14489 0.55814,0.22004 0.0617,0.0738 0.21341,0.14785 0.33675,0.16502 0.62494,0.0871 0.71745,-0.006 0.21467,-0.21601 -0.13888,-0.058 -0.25223,-0.15476 -0.25223,-0.21467 0,-0.0747 -0.0762,-0.10611 -0.24285,-0.10062 -0.13362,0.005 -0.46263,-0.0165 -0.72987,-0.047 -0.15402,-0.0176 -0.26399,-0.0225 -0.33273,-0.0174 z m 5.87251,0.13953 c 10e-4,0.0102 0.0342,0.0385 0.10063,0.0926 0.16843,0.13724 0.23898,0.14817 0.30322,0.0442 0.0254,-0.0411 -0.003,-0.0751 -0.0644,-0.0751 -0.0607,0 -0.17155,-0.019 -0.24686,-0.0429 -0.0627,-0.0199 -0.0937,-0.0289 -0.0926,-0.0187 z m -0.40518,0.0993 c -0.0151,-0.0107 -0.0363,-0.01 -0.0604,0.005 -0.0996,0.0615 -0.0534,1.44129 0.0536,1.60867 0.0454,0.0709 0.0846,-0.089 0.12075,-0.48434 0.0671,-0.73488 0.37958,-0.86256 0.6118,-0.25089 0.0429,0.11306 0.11843,0.20527 0.16637,0.20527 0.11617,0 0.34668,-0.3587 0.2898,-0.4508 -0.0265,-0.0429 0.10149,-0.0751 0.31396,-0.0778 0.57892,-0.008 0.68945,-0.0803 0.43335,-0.28175 -0.25668,-0.20236 -0.49909,-0.26827 -0.74999,-0.20528 -0.23179,0.0582 -0.17073,0.1932 0.0872,0.1932 0.10559,0 0.16698,0.0329 0.14088,0.0751 -0.15591,0.25225 -1.38327,0.0117 -1.38327,-0.27102 0,-0.0322 -0.009,-0.055 -0.0242,-0.0657 z m -12.10326,0.21064 c -0.13445,-0.0384 -0.15189,0.0459 -0.0282,0.23479 0.13343,0.20365 0.27025,0.23518 0.49911,0.1127 0.16718,-0.0895 0.19769,-0.23772 0.0362,-0.17576 -0.0596,0.0229 -0.20988,-0.0179 -0.33408,-0.0912 -0.0696,-0.0411 -0.12826,-0.0677 -0.17307,-0.0805 z m 5.22851,0.18917 c -0.0481,-0.0113 -0.2028,0.0271 -0.46959,0.12747 -0.27004,0.10159 -0.52338,0.16432 -0.5635,0.13953 -0.10356,-0.064 -0.29114,0.11055 -0.29114,0.27102 0,0.15662 0.20144,0.12026 0.71109,-0.1288 0.47852,-0.23385 0.6934,-0.39041 0.61314,-0.40922 z m 0.55545,0.17979 c -0.436,-0.0409 -0.74766,0.0909 -1.0948,0.3797 -0.2537,0.21102 -0.2455,0.23586 0.0939,0.30858 0.208,0.0445 0.24285,0.0319 0.24285,-0.0912 0,-0.34667 0.24817,-0.39889 0.44007,-0.0926 0.21104,0.33691 0.49271,0.51623 0.61583,0.39311 0.0946,-0.0946 0.0258,-0.24419 -0.11271,-0.24419 -0.0521,0 -0.17672,-0.088 -0.27638,-0.19588 l -0.18112,-0.19588 0.18649,0.0523 c 0.10279,0.0291 0.28326,0.12172 0.40116,0.20528 0.16416,0.11639 0.29115,0.14369 0.54204,0.11538 0.37465,-0.0422 0.39235,-0.0236 0.15965,0.1771 l -0.1677,0.14625 0.41055,-0.0443 c 0.2663,-0.028 0.52943,-0.004 0.74731,0.0657 0.85237,0.27442 0.77425,0.12275 -0.16771,-0.32468 -0.84301,-0.40044 -1.40344,-0.61383 -1.83944,-0.65474 z m 1.01163,0.0107 c -0.0416,0.0158 0.0958,0.10015 0.47227,0.29918 0.65506,0.34634 0.9126,0.42878 0.75939,0.24419 -0.12648,-0.1524 -0.83971,-0.49109 -1.13238,-0.53801 -0.0517,-0.008 -0.0854,-0.0106 -0.0993,-0.005 z m -0.8949,0.1677 c 0.0155,-0.01 0.0578,-0.007 0.13417,0.008 0.10376,0.0199 0.2071,0.0657 0.22942,0.10196 0.0667,0.1079 -0.24093,0.0744 -0.33273,-0.0362 -0.0342,-0.0412 -0.0464,-0.064 -0.0308,-0.0738 z m 8.06213,0.14759 c -0.20201,-0.0317 -0.63945,0.3452 -0.90429,0.85733 -0.1624,0.31407 -0.0121,0.26716 0.26431,-0.0818 0.19347,-0.24434 0.28379,-0.29786 0.4924,-0.29786 0.24808,0 0.25626,-0.009 0.25626,-0.29919 0,-0.11149 -0.0414,-0.16787 -0.10868,-0.17844 z m -13.72668,0.0282 c -0.0387,0 -0.0698,0.034 -0.0698,0.0751 0,0.0411 0.0526,0.0751 0.11673,0.0751 0.0634,0 0.0952,-0.034 0.0698,-0.0751 -0.0254,-0.0411 -0.0781,-0.0751 -0.11672,-0.0751 z m 8.19763,0.0255 c -0.0269,-0.006 -0.0443,2.2e-4 -0.0443,0.0228 0,0.0291 0.0554,0.11399 0.12344,0.18918 0.15043,0.16622 0.26256,0.17896 0.20259,0.0228 -0.0347,-0.0904 -0.20111,-0.21611 -0.28175,-0.23478 z m 3.99283,0.0497 c -0.0411,0 -0.0751,0.0696 -0.0751,0.15429 0,0.0846 0.034,0.13276 0.0751,0.10734 0.0411,-0.0254 0.0751,-0.095 0.0751,-0.15429 0,-0.0593 -0.034,-0.10734 -0.0751,-0.10734 z m -8.40962,0.33945 0.13953,0.22271 c 0.31221,0.49489 0.53087,0.73433 0.856,0.94052 0.18767,0.11902 0.37635,0.21735 0.41859,0.21735 0.0933,0 -0.87627,-0.99374 -1.19006,-1.21958 l -0.22406,-0.161 z m -3.98076,0.11001 c -0.13362,-6.3e-4 -0.24283,0.0326 -0.24283,0.0738 0,0.0949 0.22606,0.0949 0.37298,0 0.0851,-0.055 0.0542,-0.0731 -0.13015,-0.0738 z m 12.48832,0.0442 c -0.007,0.017 -0.0121,0.0532 -0.0121,0.10466 0,0.10279 0.0168,0.14395 0.0376,0.0926 0.0207,-0.0514 0.0207,-0.13511 0,-0.18649 -0.0104,-0.0257 -0.0187,-0.0277 -0.0255,-0.0107 z m 1.35912,0.0308 c -0.043,-10e-4 -0.0821,0.27537 -0.0926,0.65205 -0.0142,0.50944 6.9e-4,0.62303 0.0657,0.51387 0.10576,-0.17809 0.12824,-1.16249 0.0269,-1.16592 z m -4.826,0.0349 c -0.10334,0.0148 -0.1035,0.094 0.0604,0.13685 0.072,0.0188 0.21518,0.0368 0.31797,0.0403 0.22342,0.008 0.0815,-0.0906 -0.24284,-0.16771 -0.0553,-0.0131 -0.10107,-0.0143 -0.13551,-0.009 z m -2.79338,0.18918 c -0.20689,-10e-4 -0.42167,0.0213 -0.4508,0.0684 -0.0238,0.0385 0.0668,0.0842 0.20125,0.10062 0.13442,0.0163 0.28865,0.0178 0.34347,0.004 0.0548,-0.0137 0.1483,-0.0242 0.20662,-0.0242 0.0583,0 0.10599,-0.034 0.10599,-0.0751 0,-0.0473 -0.19963,-0.0726 -0.40653,-0.0738 z m 5.66993,0.16771 c -0.0237,0.0236 -0.005,0.11281 0.0403,0.19856 0.0811,0.15169 0.30188,0.21933 0.30188,0.0926 0,-0.093 -0.29191,-0.34136 -0.34213,-0.29114 z m 0.81036,0.39847 c -0.015,0.009 -0.034,0.03 -0.059,0.0631 -0.13593,0.17979 -0.15102,1.09272 -0.0201,1.22361 0.12578,0.12574 0.50849,0.1158 0.50849,-0.0134 0,-0.0569 -0.0837,-0.15942 -0.18649,-0.22674 -0.16824,-0.11021 -0.18711,-0.17261 -0.18918,-0.62522 -10e-4,-0.34384 -0.009,-0.44672 -0.0536,-0.42129 z m -5.06079,0.0322 c -0.0434,10e-4 0.0463,0.11883 0.19991,0.26163 0.36314,0.3376 0.45927,0.33683 0.13148,-10e-4 -0.13948,-0.14391 -0.28804,-0.26166 -0.33139,-0.26029 z m 3.75132,0.20259 0.0537,0.36494 c 0.03,0.20087 0.10144,0.4779 0.15832,0.61448 0.14694,0.35274 0.24392,0.23559 0.23211,-0.28041 -0.009,-0.40441 -0.03,-0.45449 -0.22809,-0.57155 l -0.21601,-0.12746 z m -10.37249,0.46824 c -0.0934,0 -0.51793,0.6578 -0.95393,1.47719 -0.1805,0.33921 -0.37011,0.61717 -0.42129,0.61717 -0.1393,0 -0.3996,0.30733 -0.45751,0.5407 -0.0664,0.26757 -0.007,0.26048 0.267,-0.0362 l 0.22405,-0.24283 -0.0483,0.22405 c -0.0831,0.38657 0.13867,0.0869 0.66413,-0.89758 0.26333,-0.49338 0.55131,-1.0153 0.63998,-1.1592 0.17117,-0.27775 0.21133,-0.52326 0.0859,-0.52326 z m 11.22312,0.0751 c -0.0758,0 -0.15904,0.26578 -0.15162,0.48569 0.004,0.11686 0.0284,0.10151 0.10868,-0.0738 0.12027,-0.26263 0.13547,-0.4119 0.0429,-0.4119 z m -8.10239,0.61985 c -0.0423,-0.0119 -0.0389,0.14892 -0.007,0.52996 0.0662,0.78328 -0.0841,0.89003 -0.92843,0.65743 -0.72729,-0.20037 -1.31333,0.12076 -0.78355,0.42933 0.21953,0.12788 0.37586,0.0219 0.16235,-0.11002 -0.15718,-0.0971 0.0477,-0.15575 0.43604,-0.12477 0.40913,0.0326 0.51094,0.1179 0.22809,0.19186 -0.32983,0.0863 -0.0707,0.12419 0.30188,0.0442 0.74369,-0.15949 1.05487,-0.77283 0.72048,-1.4195 -0.0631,-0.12208 -0.10477,-0.19138 -0.13015,-0.19856 z m 8.34523,0.0631 c -0.0318,-0.0131 -0.0871,0.0171 -0.14625,0.098 -0.0583,0.0797 -0.10599,0.17058 -0.10599,0.20259 0,0.0983 0.20993,-0.0152 0.2576,-0.13954 0.0348,-0.0908 0.0265,-0.14787 -0.005,-0.161 z m 0.77012,0.23479 c -0.0111,-0.002 -0.0275,0.004 -0.0497,0.0174 -0.0411,0.0254 -0.0725,0.11922 -0.0698,0.2093 0.005,0.15793 0.008,0.15891 0.0698,0.0148 0.0663,-0.15435 0.0828,-0.23434 0.0497,-0.2415 z m -1.76296,0.0604 c -0.0707,-0.007 -0.10852,0.12921 -0.13954,0.45215 -0.044,0.45848 0.0794,0.45025 0.21869,-0.0148 0.0675,-0.22497 0.0676,-0.32014 0.003,-0.38505 -0.0318,-0.0318 -0.0583,-0.0502 -0.0818,-0.0523 z m 1.1431,0.14357 c -0.0157,0 -0.0282,0.0667 -0.0282,0.14893 0,0.0823 0.0311,0.15026 0.0684,0.15026 0.0373,0 0.0497,-0.0681 0.0282,-0.15026 -0.0216,-0.0823 -0.0527,-0.14893 -0.0684,-0.14893 z m -0.50446,0.37298 c -0.23725,0 -0.35116,0.1527 -0.40117,0.53935 l -0.0416,0.32067 0.30725,-0.33542 c 0.352,-0.38603 0.38782,-0.5246 0.13551,-0.5246 z m -10.5174,0.15027 c -0.0387,0 -0.0698,0.034 -0.0698,0.0751 0,0.0411 0.0526,0.0738 0.11672,0.0738 0.0635,10e-6 0.0952,-0.0326 0.0698,-0.0738 -0.0254,-0.0411 -0.0781,-0.0751 -0.11673,-0.0751 z m 9.25756,0.26565 c -0.0717,0.005 -0.0815,0.0594 -0.008,0.13283 0.0725,0.0725 0.24955,0.0611 0.24955,-0.0161 0,-0.0363 -0.068,-0.0831 -0.15026,-0.10466 -0.0368,-0.01 -0.0673,-0.014 -0.0912,-0.0121 z m -9.52858,0.37702 c -0.007,0.017 -0.0121,0.0532 -0.0121,0.10464 0,0.10278 0.0168,0.1453 0.0376,0.0939 0.0208,-0.0514 0.0208,-0.13645 0,-0.18783 -0.0104,-0.0257 -0.0187,-0.0277 -0.0255,-0.0107 z m 0.13954,0.71242 c -0.064,-0.0374 -0.0928,0.0676 -0.0148,0.21333 0.10271,0.19196 0.32402,0.17032 0.36359,-0.0349 0.0238,-0.12392 0.0113,-0.13161 -0.0859,-0.051 -0.0949,0.0788 -0.12835,0.0723 -0.19052,-0.0389 -0.0267,-0.0477 -0.0511,-0.0761 -0.0725,-0.0885 z m -1.45304,0.73792 c -0.28501,0.001 -0.62876,1.06023 -0.47495,1.46109 0.0949,0.24725 0.2343,0.0475 0.29248,-0.41861 0.0328,-0.2628 0.10802,-0.53243 0.16771,-0.59838 0.13303,-0.14702 0.14283,-0.4447 0.0148,-0.4441 z m 0.78354,0.16368 c -0.44085,0.0284 -0.47132,0.19016 -0.0725,0.38507 0.1773,0.0866 0.28041,0.18802 0.28041,0.27773 0,0.15875 0.42146,0.40508 0.87746,0.51251 0.39999,0.0943 0.42362,0.0927 0.58496,-0.0255 0.14311,-0.10486 0.14188,-0.10809 -0.0134,-0.31663 -0.23908,-0.32105 -0.43245,-0.32961 -0.36359,-0.0161 0.0799,0.36386 -0.24206,0.13627 -0.46691,-0.33005 -0.20142,-0.41776 -0.36726,-0.51657 -0.82647,-0.48703 z m 0.97674,0.0899 c -0.0602,0.0602 0.23016,0.17667 0.66279,0.26565 0.27597,0.0567 0.53726,0.17623 0.75536,0.34615 0.18776,0.14628 0.47709,0.28848 0.66145,0.32469 0.70137,0.13778 1.38244,0.0338 0.72048,-0.11002 -0.13363,-0.0291 -0.81121,-0.23386 -1.50537,-0.45616 -0.69416,-0.22231 -1.27616,-0.38886 -1.29471,-0.37031 z m -0.59436,0.22004 c 0.0205,-0.0205 0.0958,0.0507 0.16637,0.15831 0.0705,0.10764 0.11043,0.21158 0.0899,0.23212 -0.0205,0.0205 -0.0945,-0.0507 -0.16503,-0.15832 -0.0705,-0.10764 -0.11177,-0.21157 -0.0912,-0.23211 z m 1.61135,0.42396 c -0.0767,0 -0.09,0.17562 -0.0188,0.24687 0.0263,0.0264 0.0751,0.0302 0.10868,0.009 0.0754,-0.0466 0.002,-0.25626 -0.0899,-0.25626 z m 8.22715,0.43336 c -0.0444,-0.009 -0.0504,0.14076 -0.0483,0.61718 0.005,1.12619 -0.35289,2.35247 -1.19677,4.19273 l 0.35018,0 c 0.4251,-0.8786 0.6407,-1.50902 0.83318,-2.35732 0.20587,-0.90731 0.27005,-2.19758 0.1194,-2.39624 -0.0247,-0.0326 -0.0429,-0.0532 -0.0577,-0.0563 z m -11.62427,0.77818 c -0.0206,0.0205 -0.0159,0.0943 0.0107,0.16368 0.0266,0.0693 0.0653,0.10909 0.0859,0.0885 0.0206,-0.0205 0.0159,-0.0943 -0.0107,-0.16368 -0.0266,-0.0693 -0.0653,-0.10909 -0.0859,-0.0885 z m 15.22801,0.30054 -0.34749,0.0255 0.39445,0.0631 c 0.67263,0.10802 0.42882,0.22847 -0.51252,0.25224 -0.68226,0.0172 -0.97181,-0.01 -1.43827,-0.13551 -0.79474,-0.21408 -0.81784,-0.1791 -0.27505,0.40116 0.80051,0.85574 1.15831,1.04512 0.51521,0.27236 -0.42502,-0.51064 -0.43186,-0.55602 -0.0631,-0.43604 0.14118,0.046 0.57674,0.10345 0.96734,0.1288 l 0.70975,0.047 -0.0242,0.48569 c -0.0469,0.93417 0.2341,1.80055 0.8305,2.56394 0.0216,0.0277 0.027,0.0396 0.0456,0.0631 l 0.42531,0 c -0.60271,-0.44697 -0.97553,-1.13929 -1.07066,-2.04337 -0.12636,-1.20095 0.29103,-1.47241 1.81663,-1.178 0.43829,0.0846 0.81305,0.1382 0.83318,0.11808 0.11098,-0.11099 -2.34735,-0.66102 -2.80679,-0.62791 z m -1.26385,0.0805 c -0.0719,0.0188 -0.0124,0.0349 0.13148,0.0349 0.14388,0 0.20212,-0.0161 0.13014,-0.0349 -0.0719,-0.0188 -0.18964,-0.0188 -0.26162,0 z m -14.22177,0.29115 c -0.26125,0.0112 -0.64103,0.10547 -1.25178,0.25491 -1.35137,0.33067 -1.62611,0.44908 -1.62611,0.7017 0,0.15114 -0.0818,0.22633 -0.44945,0.41056 -0.24731,0.12391 -0.68015,0.38587 -0.96065,0.58228 -0.74643,0.52267 -1.15488,0.70807 -2.01922,0.91637 -0.58972,0.14211 -1.103,0.30051 -1.63684,0.49373 l 0.66949,0 c 0.28558,-0.0925 0.57579,-0.19627 0.84928,-0.27504 1.52207,-0.4384 1.80344,-0.55471 2.27549,-0.93247 0.16446,-0.13161 0.54723,-0.37513 0.85062,-0.54203 0.36429,-0.20042 0.60217,-0.38863 0.69901,-0.55278 0.16019,-0.27149 0.11577,-0.25469 1.63684,-0.62387 1.17612,-0.28546 1.21434,-0.27394 1.5966,0.46019 0.15714,0.30178 0.47865,0.8849 0.71377,1.29606 0.15959,0.27907 0.35581,0.69849 0.56485,1.16994 l 0.35957,0 c -0.31957,-0.72161 -0.61231,-1.33343 -0.7916,-1.5711 -0.16667,-0.22095 -0.4525,-0.68419 -0.63595,-1.02907 -0.30162,-0.56699 -0.40849,-0.77806 -0.84392,-0.75938 z m 17.0205,0.18247 c -0.15119,10e-4 -0.0927,0.10275 0.0282,0.30321 0.49962,0.82831 1.48284,1.83712 2.77593,2.87387 l 0.50983,0 c -0.20552,-0.17369 -0.39157,-0.33521 -0.644,-0.53935 -1.33419,-1.07896 -2.50605,-2.24001 -2.2567,-2.23658 0.0118,1.8e-4 0.49046,0.0839 1.06395,0.18649 1.75129,0.31337 1.67581,0.22101 -0.24553,-0.29784 -0.71926,-0.19424 -1.08046,-0.29138 -1.23166,-0.2898 z m -14.23249,0.0295 c -0.0958,0 -0.18001,0.0237 -0.2093,0.0711 -0.0281,0.0455 0.0804,0.0744 0.27639,0.0738 0.23552,-6.9e-4 0.29129,-0.0208 0.20929,-0.0738 -0.0734,-0.0474 -0.18057,-0.0711 -0.27638,-0.0711 z m 10.36578,0.18515 c -0.0354,0.0435 0.11568,0.32899 0.50179,1.03175 0.61059,1.11134 0.74617,1.25903 0.42799,0.46422 -0.15673,-0.39152 -0.18055,-0.51607 -0.10599,-0.56216 0.11982,-0.0741 -0.18248,-0.49286 -0.56887,-0.78757 -0.14489,-0.11051 -0.23369,-0.17235 -0.25492,-0.14624 z m -13.2638,0.055 c -0.15901,-0.0261 -0.45658,0.0442 -0.89892,0.21065 -0.58627,0.22065 -0.41778,0.27134 0.24553,0.0738 0.61871,-0.18431 0.71893,-0.19025 0.65876,-0.0416 -0.0249,0.0617 -0.065,0.16237 -0.0899,0.22406 -0.0795,0.19649 0.0361,0.12028 0.14893,-0.0979 0.11395,-0.22036 0.0946,-0.34286 -0.0644,-0.36896 z m 16.52139,0.0657 c -0.0444,0.0444 0.2665,0.69143 0.34883,0.72584 0.0327,0.0137 0.0643,0.13144 0.0698,0.26163 0.008,0.17588 0.0188,0.19342 0.0429,0.0684 0.0415,-0.21554 0.10434,-0.21283 0.32067,0.0174 0.27608,0.29385 0.26321,0.15976 -0.0255,-0.27505 -0.27804,-0.41874 -0.69584,-0.85923 -0.7567,-0.79829 z m -17.08758,0.51385 c -0.21685,6.9e-4 -0.67246,0.1587 -0.63461,0.22004 0.0477,0.0773 0.55058,-0.0286 0.66144,-0.13953 0.0576,-0.0576 0.0506,-0.0808 -0.0268,-0.0805 z m 22.78165,0.32067 c -0.0764,0.007 0.15268,0.12308 0.74463,0.34212 1.64232,0.60772 2.73408,1.16215 3.28979,1.66503 l 0.37969,0 c -0.45954,-0.67078 -1.3082,-1.01022 -3.32333,-1.69723 -0.63176,-0.21536 -1.01432,-0.31695 -1.09078,-0.30992 z m -10.10416,0.25223 c -0.008,-0.002 -0.0192,0.008 -0.0322,0.0282 -0.0861,0.13487 -0.48319,1.20995 -0.55814,1.51072 -0.0844,0.33858 0.0863,0.23466 0.18515,-0.11269 0.0497,-0.17475 0.15804,-0.39349 0.24016,-0.48569 0.10193,-0.11444 0.15887,-0.30318 0.17845,-0.59705 0.0151,-0.22712 0.0113,-0.3374 -0.0134,-0.34346 z m -10.03573,0.4186 c -0.0729,0.0232 0.0677,0.16806 0.38238,0.37701 0.24389,0.16194 0.62406,0.53408 1.02906,0.95931 l 0.31529,0 c -0.15424,-0.16941 -0.24636,-0.28265 -0.42128,-0.47093 -0.39386,-0.42397 -0.84463,-0.75368 -1.15921,-0.8466 -0.0731,-0.0216 -0.12195,-0.0265 -0.14624,-0.0188 z m 3.52995,0.30993 c -0.17495,0.001 -0.33752,0.0589 -0.29517,0.12746 0.0519,0.084 0.41086,0.084 0.54338,0 0.0753,-0.0477 0.0565,-0.0753 -0.0765,-0.10867 -0.0541,-0.0136 -0.11341,-0.0192 -0.17173,-0.0188 z m 8.09969,0.0698 c -0.0393,0.0375 -0.0626,0.16664 -0.0818,0.39848 -0.0258,0.31186 -0.0701,0.43266 -0.19991,0.55814 l 0.30456,0 0.0228,-0.15296 c 0.0266,-0.18872 0.0937,-0.37483 0.14892,-0.41323 0.0833,-0.0579 0.0807,-0.0992 -0.0134,-0.24285 -0.086,-0.13129 -0.14184,-0.18511 -0.18112,-0.14758 z m 4.58317,0.28712 c -0.0619,-0.0261 -0.10711,0.0508 -0.0618,0.16905 0.0243,0.0634 0.0797,0.11538 0.1221,0.11538 0.0945,0 0.0956,-0.0767 0.004,-0.22138 -0.0216,-0.0341 -0.0438,-0.0543 -0.0644,-0.0631 z m -14.37203,0.1355 c -0.1135,0.004 -0.21869,0.0383 -0.21869,0.0993 0,0.0548 0.0238,0.12303 0.0523,0.15161 0.0286,0.0285 0.0819,-0.001 0.11807,-0.0657 0.0432,-0.0772 0.11796,-0.10044 0.2187,-0.0684 0.10217,0.0326 0.13617,0.0217 0.10196,-0.0335 -0.0369,-0.0597 -0.15886,-0.0871 -0.27236,-0.0832 z m 21.02674,0.0751 c -0.092,0 -0.0881,0.0263 0.0228,0.14892 0.0744,0.0823 0.18517,0.15027 0.24686,0.15027 0.092,0 0.0882,-0.0277 -0.0228,-0.15027 -0.0744,-0.0823 -0.18517,-0.14892 -0.24686,-0.14892 z m 0.88684,0.32334 c -0.0741,-0.012 -0.16185,0.0437 -0.26162,0.13552 l 0.4508,0 c -0.008,-0.009 -0.0102,-0.0146 -0.0188,-0.0242 -0.0576,-0.0636 -0.11162,-0.1019 -0.1704,-0.11136 z"
         id="path4484"
         inkscape:connector-curvature="0" />
    </g>
  </g>
</svg>
