<?xml version="1.0" encoding="UTF-8" standalone="no"?>
<!-- Created with Inkscape (http://www.inkscape.org/) -->

<svg
   xmlns:dc="http://purl.org/dc/elements/1.1/"
   xmlns:cc="http://creativecommons.org/ns#"
   xmlns:rdf="http://www.w3.org/1999/02/22-rdf-syntax-ns#"
   xmlns:svg="http://www.w3.org/2000/svg"
   xmlns="http://www.w3.org/2000/svg"
   xmlns:sodipodi="http://sodipodi.sourceforge.net/DTD/sodipodi-0.dtd"
   xmlns:inkscape="http://www.inkscape.org/namespaces/inkscape"
   width="512"
   height="512"
   viewBox="0 0 512.00001 512.00001"
   id="svg5363"
   version="1.1"
   inkscape:version="0.91 r13725"
   sodipodi:docname="gary.svg">
  <defs
     id="defs5365" />
  <sodipodi:namedview
     id="base"
     pagecolor="#47a0f2"
     bordercolor="#666666"
     borderopacity="1.0"
     inkscape:pageopacity="0"
     inkscape:pageshadow="2"
     inkscape:zoom="0.98994949"
     inkscape:cx="284.74847"
     inkscape:cy="357.35972"
     inkscape:document-units="px"
     inkscape:current-layer="layer1"
     showgrid="false"
     units="px"
     fit-margin-top="6"
     fit-margin-left="6"
     fit-margin-right="6"
     fit-margin-bottom="6"
     inkscape:window-width="1920"
     inkscape:window-height="1135"
     inkscape:window-x="0"
     inkscape:window-y="0"
     inkscape:window-maximized="1" />
  <metadata
     id="metadata5368">
    <rdf:RDF>
      <cc:Work
         rdf:about="">
        <dc:format>image/svg+xml</dc:format>
        <dc:type
           rdf:resource="http://purl.org/dc/dcmitype/StillImage" />
        <dc:title />
      </cc:Work>
    </rdf:RDF>
  </metadata>
  <g
     inkscape:label="Ebene 1"
     inkscape:groupmode="layer"
     id="layer1"
     transform="translate(782.11424,23.969541)">
    <g
       id="g5919"
       transform="matrix(20.403693,0,0,20.403693,15053.479,-9348.0384)">
      <path
         sodipodi:nodetypes="cscsscccccsccccccccccccccscscscccccccccccccccsccccccccccccscccsccccccssccccccccccc"
         inkscape:connector-curvature="0"
         id="path4397"
         d="m -766.12534,456.97979 c -0.80476,0.0104 -1.61062,0.1428 -2.40039,0.4043 -0.36308,0.12022 -0.94249,0.25943 -1.16015,0.28711 -0.52376,0.0666 -1.06734,0.25283 -1.53907,0.49219 -0.47172,0.23936 -0.87491,0.48351 -1.10742,0.91797 -0.0175,0.0327 -0.0346,0.064 -0.0527,0.10742 -0.004,0.009 -0.005,0.0406 -0.01,0.0508 -0.005,0.004 -0.0283,0.005 -0.0332,0.008 -0.0452,0.0269 -0.0694,0.048 -0.0937,0.0684 -0.0974,0.0815 -0.17523,0.16697 -0.29297,0.30273 -1.60437,1.85004 -2.43567,4.63014 -2.54687,7.35547 -0.0222,0.54453 0.12024,1.04037 0.15625,1.57422 0.005,0.0512 -0.0196,0.1114 -0.0137,0.16211 0.007,0.0568 0.0393,0.10888 0.0469,0.16602 0.1843,2.01071 0.66145,3.91519 1.80273,5.17578 l 0.31446,0.34766 0.34961,0.16406 0.57226,0.0273 c 0.1489,0.007 0.21287,0.0307 0.2207,0.0352 0.008,0.004 0.008,-0.013 0.041,0.0762 0.0665,0.17833 0.12201,0.73475 0.12305,1.70117 2.2e-4,0.21207 0.003,0.36752 0.0195,0.50195 10e-4,0.0127 0.013,0.0372 0.0137,0.0488 -0.0127,0.009 -0.0418,0.0162 -0.0547,0.0254 -0.0701,0.05 -0.13423,0.10617 -0.20312,0.16993 -0.27557,0.25501 -0.61499,0.65058 -0.9375,1.10742 -0.59453,0.84214 -1.30713,1.55485 -2.09375,2.10156 -0.19131,0.13295 -0.3797,0.26959 -0.53321,0.38672 -0.15351,0.11713 -0.23759,0.17009 -0.35937,0.30469 -0.0539,0.0596 -0.1,0.11003 -0.15039,0.20703 -0.0252,0.0485 -0.0584,0.10863 -0.0664,0.22656 -0.008,0.11792 0.16573,0.47806 0.29917,0.58901 l 24.47065,0 0.30859,-0.93502 -0.15039,-0.1211 c -1.35728,-0.74782 -3.28136,-1.72126 -4.16625,-2.14258 -0.29557,-0.12867 -0.70063,-0.27083 -0.99414,-0.3457 l -0.002,0 c -0.85894,-0.21888 -1.66371,-0.71727 -2.27149,-1.41016 -0.0149,-0.017 -0.0343,-0.0246 -0.0488,-0.041 0.10336,-0.14095 0.2021,-0.28126 0.30469,-0.4707 0.26921,-0.49713 0.54733,-1.09793 0.63477,-1.60547 0.0384,-0.22318 0.0418,-0.49633 0.0488,-0.89258 0.007,-0.39625 0.008,-0.87655 0.002,-1.35156 -0.006,-0.47501 -0.0169,-0.94403 -0.0332,-1.32227 -0.008,-0.18912 -0.0184,-0.35422 -0.0293,-0.49023 -0.0109,-0.13602 -0.011,-0.21598 -0.0488,-0.35352 -0.025,-0.0911 -0.0424,-0.16937 -0.15235,-0.30664 0.10849,-0.17985 0.28197,-0.30773 0.34571,-0.51758 0.0931,-0.30659 0.17533,-0.45275 0.3125,-0.60156 0.13803,-0.14975 0.25345,-0.32038 0.31054,-0.52734 0.0571,-0.20696 0.0377,-0.44729 -0.0508,-0.64258 -0.0812,-0.17919 -0.29419,-0.254 -0.4375,-0.37696 0.0242,-0.0353 0.0578,-0.0752 0.0723,-0.10546 0.0272,-0.0568 0.0384,-0.1155 0.0547,-0.17188 0.0326,-0.007 0.0482,-2e-5 0.11719,-0.041 0.0299,-0.0177 0.10091,-0.0775 0.10156,-0.0781 6.6e-4,-6.6e-4 0.10514,-0.1516 0.10547,-0.15234 3.3e-4,-7.5e-4 0.043,-0.20425 0.043,-0.20508 0,-4.2e-4 -0.01,-0.0933 -0.01,-0.0937 -8e-5,-4.4e-4 -0.0114,-0.0534 -0.0195,-0.0762 -0.0309,-0.0867 -0.0519,-0.0791 -0.0801,-0.11133 0.0164,-0.059 0.10392,-0.1271 0.10742,-0.16797 0.01,-0.11696 -0.002,-0.20935 -0.0215,-0.3125 -0.0715,-0.38906 -0.11797,-0.62645 -0.17187,-0.80664 -0.0269,-0.0901 -0.006,-0.15547 -0.17773,-0.32813 -0.0509,-0.0512 -0.19571,-0.0505 -0.31836,-0.0762 l 0.45507,-0.043 0.0234,-0.2207 c 0.0728,-0.6847 -0.18676,-1.44725 -0.58984,-2.25977 -0.40308,-0.81251 -0.9735,-1.65092 -1.63281,-2.34374 -1.69597,-1.7822 -3.78858,-2.74808 -5.92774,-2.93555 -0.0211,-0.002 -0.0434,-0.006 -0.0644,-0.008 -0.24496,-0.0195 -0.48473,-0.10474 -0.73047,-0.10157 z m -5.16406,19.48047 c -0.16669,0.059 -0.28273,0.15465 -0.31836,0.21094 0.0158,-0.0249 0.0401,-0.0617 0.0977,-0.10938 0.0288,-0.0238 0.0664,-0.0499 0.11914,-0.0723 0.0264,-0.0112 0.0885,-0.0275 0.0879,-0.0273 -7e-5,10e-6 0.0106,-0.002 0.0137,-0.002 z"
         style="color:#000000;font-style:normal;font-variant:normal;font-weight:normal;font-stretch:normal;font-size:medium;line-height:normal;font-family:sans-serif;text-indent:0;text-align:start;text-decoration:none;text-decoration-line:none;text-decoration-style:solid;text-decoration-color:#000000;letter-spacing:normal;word-spacing:normal;text-transform:none;direction:ltr;block-progression:tb;writing-mode:lr-tb;baseline-shift:baseline;text-anchor:start;white-space:normal;clip-rule:nonzero;display:inline;overflow:visible;visibility:visible;opacity:1;isolation:auto;mix-blend-mode:normal;color-interpolation:sRGB;color-interpolation-filters:linearRGB;solid-color:#000000;solid-opacity:1;fill:#ffffff;fill-opacity:1;fill-rule:nonzero;stroke:none;stroke-width:1;stroke-linecap:round;stroke-linejoin:bevel;stroke-miterlimit:4;stroke-dasharray:none;stroke-dashoffset:0;stroke-opacity:1;color-rendering:auto;image-rendering:auto;shape-rendering:auto;text-rendering:auto;enable-background:accumulate" />
      <path
         style="display:inline;fill:#000000;stroke:none;stroke-width:2;stroke-linecap:round;stroke-linejoin:bevel;stroke-miterlimit:4;stroke-dasharray:none;stroke-opacity:1"
         d="m -775.52656,481.32889 c 0.0737,-0.0814 0.43687,-0.35854 0.80716,-0.61589 0.8378,-0.58228 1.59058,-1.33779 2.21685,-2.22488 0.60791,-0.8611 1.32651,-1.52612 1.14888,-1.06322 -0.27734,0.72274 -0.17157,1.27591 0.4745,2.48167 0.49905,0.93138 0.76568,1.51794 0.71372,1.57017 -0.10472,0.10528 -1.43899,-2.51687 -1.43899,-2.82796 0,-1.01012 -0.0492,-1.00826 -0.85934,0.0325 -0.83331,1.07049 -1.50506,1.77926 -2.10437,2.22035 -0.7066,0.52005 -1.2695,0.77098 -0.95841,0.42724 z m 6.81181,0.0577 c 0.0518,-0.0631 0.20588,-0.1517 0.34246,-0.19677 l 0.24833,-0.082 -0.2363,-0.14155 c -1.26947,-0.7604 -2.25429,-2.18235 -2.68162,-3.87189 -0.058,-0.22927 -0.0962,-0.28604 -0.14284,-0.21232 -0.0405,0.064 -0.0639,-0.13132 -0.0644,-0.53634 -0.002,-1.95342 -0.12308,-2.27782 -0.86207,-2.31138 l -0.57241,-0.026 -0.31482,-0.34773 c -2.72674,-3.01178 -2.4284,-10.3236 0.56192,-13.77179 0.44083,-0.50833 0.36347,-0.27746 -0.13254,0.39557 -1.55741,2.11323 -2.46638,5.62122 -2.15366,8.3116 0.28245,2.42991 1.58878,5.3788 2.38276,5.3788 0.14842,0 0.12927,-0.0305 -0.27463,-0.43771 -0.6046,-0.60953 -1.03081,-1.5504 -1.18031,-2.60555 -0.10596,-0.74786 -0.21889,-2.45771 -0.17063,-2.58347 0.10347,-0.26964 0.1617,0.0471 0.16217,0.88225 0.001,2.57573 0.99321,4.60293 2.25183,4.60293 l 0.27928,0 0.0435,0.76121 c 0.16626,2.90572 1.26919,5.03632 3.37122,6.51242 l 0.52681,0.36994 -0.25723,0 c -0.14148,0 -0.27876,-0.0348 -0.30508,-0.0774 -0.0488,-0.079 -0.41362,-0.0561 -0.73902,0.0462 -0.1573,0.0495 -0.16648,0.0429 -0.0828,-0.0592 z m 6.41907,0.0195 c 0.0323,-0.0584 0.25035,-0.39279 0.48463,-0.74312 0.23428,-0.35034 0.67251,-1.05099 0.97386,-1.55702 0.86115,-1.44602 0.98434,-1.52196 0.31861,-0.19641 -0.39898,0.7944 -1.22204,2.02804 -1.57122,2.355 -0.1455,0.13624 -0.23815,0.19994 -0.20588,0.14155 z m 1.26924,-0.12386 c 0.0723,-0.29274 0.14756,-0.32925 0.31289,-0.15179 0.22149,0.23774 0.19785,0.41624 -0.0271,0.20487 l -0.17694,-0.16622 0,0.15389 c 0,0.0846 -0.0353,0.15388 -0.0784,0.15388 -0.0501,0 -0.0611,-0.0705 -0.0304,-0.19463 z m 8.97108,-0.0319 c -1.62655,-0.89915 -1.90632,-1.10626 -3.50329,-1.74616 -0.495,-0.19959 -0.94211,-0.36289 -0.99358,-0.36289 -0.17165,0 -1.40715,-0.56027 -1.65885,-0.75225 -0.13651,-0.10412 -0.44075,-0.36111 -0.67607,-0.57109 -0.7003,-0.62486 -0.76378,-0.55555 -0.88808,0.96947 -0.0715,0.87732 -0.38246,2.4505 -0.50988,2.57971 -0.1019,0.10331 -0.0848,-0.0362 0.14201,-1.15911 0.11458,-0.56724 0.24326,-1.39377 0.28598,-1.83673 0.13406,-1.39039 0.31746,-1.59906 0.86087,-0.97954 0.67357,0.76789 1.56425,1.31967 2.52567,1.56466 0.24658,0.0629 0.6606,0.20667 0.92006,0.31962 1.53006,0.61782 2.41099,0.87944 4.05141,2.07458 l 0.15149,0.1215 -0.17694,10e-4 c -0.0973,5.7e-4 -0.33617,-0.0997 -0.5308,-0.22278 z m -10.95008,-0.24587 c -1.49943,-0.18711 -3.20636,-0.86544 -4.34856,-1.72809 -1.07927,-0.81512 -2.43499,-2.43633 -2.65786,-3.17836 l -0.0532,-0.17693 0.18204,0.16811 c 0.10012,0.0925 0.45454,0.56056 0.7876,1.0402 1.48062,2.13228 2.89766,3.05552 5.05302,3.29215 1.15183,0.12646 1.35316,0.18636 0.68304,0.20326 -0.67491,0.017 -0.47542,0.17862 0.32358,0.26214 0.23316,0.0244 0.44075,0.0715 0.4613,0.10477 0.0374,0.0605 -0.0324,0.0625 -0.43102,0.0128 z m -3.974,-1.75117 c -0.47637,-0.35977 -0.93844,-0.81975 -0.82346,-0.81975 0.15425,0 1.46696,1.1242 1.31887,1.12948 -0.0448,0.001 -0.26774,-0.13778 -0.49541,-0.30973 z m 7.68962,-2.42108 c 0,-0.0389 0.13121,-0.28835 0.29159,-0.55425 0.62749,-1.04038 0.76714,-1.77083 0.63476,-3.31996 -0.13283,-1.55431 -0.0784,-2.91069 0.0919,-2.29107 0.0963,0.35013 0.1361,3.69261 0.05,4.19254 -0.12704,0.73742 -1.06829,2.47558 -1.06829,1.97274 z m -5.002,-0.30437 c -0.56902,-0.15425 -0.84019,-0.27999 -1.27916,-0.59313 -0.46827,-0.33403 -0.35689,-0.34921 0.3008,-0.041 1.91674,0.89822 3.3982,0.7219 3.94009,-0.46891 0.13212,-0.29035 0.16506,-0.32429 0.18564,-0.19123 0.14423,0.93272 -1.69346,1.68844 -3.14737,1.29429 z m -0.0583,-0.60616 c -0.94023,-0.20881 -2.47594,-0.84927 -2.55968,-1.0675 -0.2039,-0.53136 2.58859,-1.56688 3.71366,-1.37712 0.45056,0.076 0.5541,0.0694 1.05277,-0.0675 0.8498,-0.23315 1.33432,-0.0682 1.78127,0.60663 0.40307,0.60853 0.23818,0.95586 -0.44739,0.94238 l -0.35582,-0.007 0.30851,-0.0969 c 0.63624,-0.19985 0.6779,-0.45658 0.15577,-0.95984 -0.48127,-0.46388 -0.79339,-0.54349 -1.3689,-0.34913 -0.48728,0.16455 -0.80125,0.18083 -1.32432,0.0686 -0.53318,-0.11435 -2.70208,0.59587 -3.20294,1.04883 -0.59571,0.53873 1.92932,0.59898 3.08713,0.0737 0.98208,-0.44558 2.10231,-0.24239 2.15456,0.39081 0.0594,0.72034 -1.48378,1.1295 -2.99462,0.79396 z m 2.31313,-0.19768 c 0.26752,-0.11313 0.48242,-0.41786 0.48242,-0.68408 0,-0.19321 -0.34512,-0.19409 -0.76854,-0.002 -0.27143,0.12317 -0.47134,0.14059 -1.66318,0.14497 -1.50489,0.005 -1.74093,0.0425 -1.45722,0.22842 0.60693,0.39768 2.74207,0.59364 3.40652,0.31264 z m -2.16862,-0.18555 c -0.16871,-0.066 0.41139,-0.14662 1.06146,-0.14756 0.23511,-2.8e-4 0.61386,-0.0492 0.84167,-0.1085 0.46738,-0.12174 0.52487,-0.10995 0.32888,0.0675 -0.25019,0.22641 -1.8004,0.35743 -2.23201,0.18864 z m 1.91209,-0.67967 0.20815,-0.14086 -0.38576,-0.0218 c -0.38352,-0.0218 -0.94423,0.13127 -1.03823,0.28336 -0.0875,0.14159 0.9857,0.0351 1.21584,-0.12063 z m -0.58123,-0.0442 c 0.0937,-0.0544 0.1528,-0.0539 0.20878,0.002 0.0569,0.0569 0.0216,0.0775 -0.13068,0.0759 -0.18302,-0.002 -0.19265,-0.0115 -0.0781,-0.0781 z m 2.63232,-0.97589 c -0.25291,-0.48907 -0.67724,-1.51323 -0.64169,-1.54878 0.17906,-0.17905 0.74668,0.77653 0.79809,1.34357 0.0417,0.45957 0.002,0.51159 -0.1564,0.20521 z m -0.14437,-0.92551 c -0.0266,-0.0837 -0.0642,-0.13629 -0.0837,-0.11683 -0.0194,0.0195 -0.0136,0.10389 0.0129,0.1876 0.0266,0.0837 0.0642,0.1363 0.0837,0.11683 0.0194,-0.0194 0.0136,-0.10388 -0.0129,-0.1876 z m -3.27328,0.12182 c -0.24328,-0.0389 -0.44234,-0.0982 -0.44234,-0.1317 0,-0.148 0.89914,-0.0155 1.09346,0.16108 0.0801,0.0729 -0.0487,0.067 -0.65112,-0.0294 z m -1.03886,-0.0915 c -0.0611,-0.0611 -0.11122,-0.179 -0.11122,-0.26186 0,-0.0829 0.0244,-0.12039 0.0541,-0.0834 0.0297,0.0369 0.13088,0.15482 0.22466,0.26186 0.19157,0.21865 0.042,0.29306 -0.16759,0.0834 z m -1.91594,-1.0726 c -0.11678,-0.0166 -0.24258,-0.0596 -0.27956,-0.0956 -0.0877,-0.0852 0.0207,-0.0788 0.63343,0.0372 0.50258,0.0952 0.22582,0.14084 -0.35387,0.0583 z m -6.22407,-0.17663 c -0.17531,-0.25029 -0.12756,-0.36621 0.0607,-0.14744 0.24861,0.28885 0.27724,0.19041 0.20356,-0.7 -0.0589,-0.71176 -0.0725,-0.76655 -0.1236,-0.49684 -0.0751,0.39682 -0.0855,0.37497 -0.17826,-0.37497 -0.0433,-0.34976 -0.0945,-0.71024 -0.11386,-0.80109 -0.0556,-0.26082 0.10822,-0.10913 0.26507,0.24547 0.40306,0.91118 0.44012,2.43216 0.0593,2.43216 -0.0345,0 -0.11233,-0.0708 -0.17292,-0.15729 z m 1.27742,-0.63891 c -0.29368,-0.96341 -0.60908,-2.24247 -0.60908,-2.47006 0,-0.31829 0.17235,-0.21246 0.19919,0.12231 0.0564,0.70305 0.50734,2.29467 0.65016,2.29467 0.0622,0 0.12239,-0.25798 0.32575,-1.39778 0.13788,-0.77275 0.27653,-0.88253 0.22346,-0.17693 -0.0388,0.51579 -0.46518,2.21168 -0.55608,2.21168 -0.0305,0 -0.13551,-0.26275 -0.2334,-0.58389 z m 4.84048,0.45096 c -0.82524,-0.27073 -1.31521,-0.8468 -1.45203,-1.70719 -0.0947,-0.59569 -0.15644,-0.63261 -1.35017,-0.80804 -0.78944,-0.11601 -1.02076,-0.19666 -1.14784,-0.40015 -0.1077,-0.17246 0.0845,-0.18008 0.76523,-0.0304 0.71439,0.15713 1.32988,0.1301 2.32642,-0.10216 1.88848,-0.44015 2.61913,-0.4306 3.47103,0.0454 l 0.45404,0.2537 0.72482,-0.0687 c 0.66511,-0.063 0.76474,-0.0927 1.20915,-0.3603 0.5856,-0.35263 0.92234,-0.43632 1.76461,-0.43859 0.59152,-10e-4 0.77332,0.0299 1.86913,0.32331 0.14633,0.0392 0.11032,-0.0212 -0.20818,-0.34939 -0.45866,-0.47258 -0.43066,-0.55784 0.0982,-0.29908 0.77777,0.38053 0.9515,0.76402 0.54558,1.20437 -0.19124,0.20748 -0.31723,0.44383 -0.42404,0.79543 -0.49822,1.64031 -3.07569,2.34899 -3.81237,1.04822 -0.24187,-0.42709 -0.19465,-0.51793 0.10286,-0.19785 1.34422,1.4462 4.3437,-0.0954 3.34132,-1.71727 -0.73048,-1.18194 -3.66444,-0.49375 -3.68079,0.86335 l -0.003,0.27346 -0.17643,-0.33898 c -0.36836,-0.70777 -1.07554,-0.5707 -1.34495,0.26067 -0.44179,1.3634 -1.83389,2.15639 -3.07233,1.75011 z m 1.59717,-0.3573 c 1.66419,-0.73615 1.65208,-2.52568 -0.0187,-2.76229 -0.63079,-0.0893 -0.67885,-0.0129 -0.1942,0.30888 0.55037,0.36542 0.44565,0.38343 -0.25616,0.044 -1.07017,-0.51752 -2.04599,-0.19758 -2.24512,0.73612 -0.29417,1.37925 1.24029,2.32522 2.71419,1.67325 z m -1.87335,-0.23625 c -0.18899,-0.0972 -0.61792,-0.59699 -0.56108,-0.65382 0.0362,-0.0362 0.97882,0.64784 0.97882,0.71032 0,0.0638 -0.24948,0.03 -0.41774,-0.0565 z m 2.32862,-0.43072 c 0,-0.0272 0.11636,-0.2796 0.25857,-0.56084 0.26939,-0.53274 0.40806,-0.54705 0.20731,-0.0214 -0.10036,0.26278 -0.46588,0.71959 -0.46588,0.58222 z m -2.33553,-0.46225 c -0.17502,-0.0372 0.0119,-0.0617 0.63696,-0.0836 0.79257,-0.0277 0.92705,-0.0517 1.29163,-0.23077 0.40478,-0.19876 0.55161,-0.38125 0.24771,-0.30785 -0.39615,0.0957 -1.18547,0.1344 -1.18547,0.0581 0,-0.15346 1.38646,-0.2735 1.52896,-0.13238 0.32046,0.31734 -1.68964,0.8729 -2.51979,0.69643 z m -0.37156,-0.6941 c -0.0681,-0.0178 -0.12385,-0.0575 -0.12385,-0.0881 0,-0.0722 0.34396,-0.007 0.39447,0.0746 0.0399,0.0646 -0.0568,0.0694 -0.27062,0.0135 z m 0.6093,-0.0873 c -0.26957,-0.16438 -0.32221,-0.24128 -0.26578,-0.38834 0.0615,-0.16023 0.13456,-0.13956 0.22749,0.0644 0.0989,0.21708 0.20302,0.23032 0.19543,0.0249 -0.007,-0.20226 0.16996,-0.25765 0.21942,-0.0685 0.0502,0.19213 0.16421,0.12127 0.16421,-0.10209 0,-0.21554 0.12657,-0.22556 0.20405,-0.0161 0.17207,0.46518 -0.28729,0.76482 -0.74482,0.48583 z m -1.05164,-0.28857 c 0.12888,-0.24922 0.0675,-0.26574 -0.42463,-0.11436 l -0.2831,0.0871 0.21232,0.11696 c 0.29886,0.16465 0.37062,0.15166 0.49541,-0.0897 z m 10.15603,-0.57459 c 0,-0.0343 -0.14332,-0.0624 -0.31849,-0.0624 -0.33907,0 -0.36467,0.0335 -0.23806,0.3114 l 0.0804,0.1765 0.23806,-0.18157 c 0.13093,-0.0999 0.23806,-0.20965 0.23806,-0.24396 z m -2.26476,2.31037 c 0,-0.013 0.18313,-0.12578 0.40695,-0.25056 0.22382,-0.12478 0.49453,-0.30894 0.60157,-0.40925 0.15308,-0.14345 0.19463,-0.15766 0.19463,-0.0666 0,0.11471 -0.30301,0.37794 -0.62913,0.54654 -0.18535,0.0958 -0.57402,0.2176 -0.57402,0.17986 z m -8.48148,-0.35902 c -0.098,-0.2151 -0.10977,-0.37361 -0.0205,-0.27622 0.0641,0.0699 0.17251,0.45649 0.12801,0.45649 -0.0139,0 -0.0623,-0.0811 -0.10751,-0.18027 z m -0.89603,-0.64647 c -0.64414,-0.10537 -0.95799,-0.2358 -0.56265,-0.23382 0.25333,10e-4 1.06543,0.18747 1.22556,0.281 0.14207,0.083 0.12544,0.0818 -0.66291,-0.0472 z m -1.02622,-0.51796 c -0.0863,-0.0558 -0.0772,-0.0688 0.0489,-0.0697 0.0853,-5.7e-4 0.17475,0.0308 0.19881,0.0697 0.0557,0.0901 -0.10828,0.0901 -0.24771,0 z m 9.1298,-0.16022 c -0.11896,-0.0611 -0.18325,-0.1598 -0.19623,-0.30145 -0.0184,-0.20072 -0.0142,-0.20419 0.0885,-0.0733 0.10668,0.13599 0.10878,0.13599 0.20822,0 0.0985,-0.1347 0.10395,-0.1341 0.27949,0.0308 l 0.17905,0.1682 0.0471,-0.1878 c 0.0376,-0.15015 0.0668,-0.17149 0.14513,-0.10645 0.3165,0.26265 -0.3467,0.67754 -0.75127,0.46999 z m 1.03068,0.0115 c 0.0428,-0.0692 0.46186,-0.27588 0.55945,-0.27588 0.11504,0 0.009,0.15296 -0.17114,0.24589 -0.24438,0.12638 -0.45807,0.14288 -0.38831,0.03 z m -13.27453,-0.15037 c 0,-0.12902 0.12548,-0.23595 0.19514,-0.1663 0.0242,0.0243 -0.01,0.098 -0.0755,0.16381 -0.11033,0.11033 -0.11965,0.11052 -0.11965,0.003 z m 13.70371,-0.30404 c -0.70057,-0.30164 -0.74263,-0.34841 -0.25755,-0.28641 0.45882,0.0587 0.82724,0.21918 0.92584,0.4034 0.0998,0.18639 -0.007,0.16767 -0.66829,-0.11699 z m -8.96187,-0.0914 c 0,-0.67803 1.96249,-1.31439 3.29424,-1.0682 0.74959,0.13857 1.22466,0.56583 0.50985,0.45854 -1.12098,-0.16826 -1.38953,-0.14445 -2.2618,0.20054 -0.88385,0.34958 -1.04734,0.39011 -0.91104,0.22588 0.12828,-0.15457 0.83942,-0.4687 1.38581,-0.61215 l 0.49541,-0.13006 -0.36266,-0.004 c -0.47966,-0.005 -0.85901,0.13677 -1.46913,0.54962 -0.65497,0.44321 -0.68068,0.45754 -0.68068,0.37973 z m -4.56489,-0.0637 c -0.27996,-0.0673 -0.27788,-0.16186 0.003,-0.16108 0.41229,0.001 0.81303,0.0792 0.76939,0.1498 -0.0395,0.064 -0.5246,0.071 -0.77293,0.0113 z m 9.55444,-0.0203 c -0.0932,-0.0401 0.0881,-0.0631 0.5308,-0.0674 0.51026,-0.005 0.74741,-0.0406 0.98367,-0.14778 0.33159,-0.15044 0.48785,-0.12341 0.25803,0.0446 -0.30485,0.22291 -1.4044,0.32867 -1.7725,0.1705 z m -6.23051,-0.0659 c -0.11811,-0.0283 -0.27735,-0.0903 -0.35387,-0.13768 -0.13382,-0.0829 -0.13332,-0.0846 0.0133,-0.0449 0.33732,0.0916 0.95625,0.16881 1.05348,0.1315 0.0569,-0.0219 0.10344,-0.004 0.10344,0.0387 0,0.0872 -0.4743,0.0944 -0.81632,0.0124 z m -1.02141,-0.94256 c 10e-4,-0.43791 0.0337,-1.13061 0.0719,-1.53933 0.12006,-1.28303 -0.0322,-2.00165 -0.27187,-1.28277 -0.15387,0.46159 -0.15981,0.31758 -0.0124,-0.30109 0.073,-0.30636 0.18275,-0.89541 0.24391,-1.309 0.18132,-1.22604 0.5562,-2.38461 0.85018,-2.62749 0.17346,-0.14331 0.75586,-0.12678 1.94683,0.0552 0.52549,0.0803 1.24817,0.18069 1.60595,0.22307 0.8295,0.0983 1.07308,0.20821 2.10967,0.95233 1.81825,1.30525 2.41279,1.39551 3.56501,0.54119 0.64815,-0.48058 0.6046,-0.49567 0.91233,0.31601 0.74535,1.9659 1.51569,4.92463 1.23742,4.75264 -0.071,-0.0439 -0.14804,-0.31612 -0.44169,-1.56081 -0.16982,-0.71978 -1.11833,-3.65185 -1.18137,-3.65185 -0.0229,0 -0.31141,0.18312 -0.64106,0.40694 l -0.59936,0.40695 -0.64713,-10e-4 c -0.77674,-0.001 -0.92382,-0.0671 -2.39196,-1.06517 -1.15035,-0.78199 -1.03709,-0.74566 -3.34422,-1.07291 l -1.83346,-0.26006 -0.22799,0.26375 c -0.62781,0.72626 -0.93061,2.17564 -0.71234,3.40967 0.14089,0.79654 0.14278,1.35421 0.007,2.0639 -0.0584,0.3051 -0.10615,0.8971 -0.10616,1.31554 0,0.46003 -0.028,0.76082 -0.0708,0.76082 -0.0431,0 -0.0698,-0.311 -0.0684,-0.79621 z m 11.39218,0.24991 c -0.3285,-0.0918 -0.50576,-0.0963 -1.13564,-0.029 -0.41052,0.0439 -0.82454,0.0788 -0.92006,0.0775 l -0.17368,-0.002 0.16777,-0.13974 c 0.57733,-0.48091 2.06813,-0.56666 2.42477,-0.13947 0.32615,0.39067 0.28813,0.41507 -0.36316,0.23304 z m 0.21231,-0.15452 c 0,-0.0964 -0.40916,-0.21925 -0.73009,-0.21925 -0.3651,0 -0.28122,0.084 0.18649,0.18669 0.47854,0.10509 0.5436,0.10899 0.5436,0.0326 z m 1.43217,-0.45985 c 0.0467,-0.41453 0.0657,-0.43268 0.31323,-0.29857 0.18846,0.10214 0.19093,0.10904 0.0398,0.1117 -0.12158,0.002 -0.17149,0.0552 -0.20378,0.21662 -0.0727,0.36364 -0.19101,0.34007 -0.14933,-0.0297 z m 0.23503,-0.76598 c -0.11941,-0.17048 -0.14962,-0.80321 -0.0462,-0.96658 0.0602,-0.0951 0.11533,0.0891 0.25681,0.85848 0.0559,0.30401 -0.0392,0.35283 -0.21065,0.1081 z m -14.30197,-0.17887 c 0.1097,-0.22634 0.17861,-0.29081 0.17861,-0.16709 0,0.0346 -0.0653,0.13813 -0.14505,0.23002 l -0.14504,0.16708 z m 14.2079,-1.61011 c -0.0473,-0.1557 -0.0866,-0.37863 -0.0873,-0.49541 -0.009,-1.60892 -2.40668,-4.38266 -4.84756,-5.60873 -1.91882,-0.96383 -3.48265,-1.11403 -5.32122,-0.51111 -0.60098,0.19709 -1.34202,0.38814 -1.66028,0.42804 -0.66192,0.083 -0.95797,0.2153 -1.66833,0.74556 -0.55744,0.41609 -0.62754,0.44941 -0.51905,0.2467 0.24882,-0.46493 1.37738,-1.03758 2.26812,-1.15086 0.29176,-0.0371 0.85606,-0.17529 1.25401,-0.30705 2.96737,-0.98252 6.17054,-0.0485 8.60432,2.50901 1.23739,1.30028 2.19141,3.22335 2.08684,4.20652 l -0.0234,0.22042 -0.0861,-0.28309 z M -772.417,463.6771 c 0.13824,-0.60806 0.19869,-0.81792 0.35881,-1.24548 0.34368,-0.9178 0.36912,-0.71736 0.0388,0.30603 -0.31207,0.96693 -0.51043,1.43559 -0.39764,0.93945 z m 0.41882,-2.008 c 0.1437,-0.28536 0.27755,-0.50255 0.29745,-0.48265 0.0498,0.0498 -0.32868,0.81054 -0.45574,0.916 -0.0567,0.047 0.0146,-0.148 0.15829,-0.43335 z m 11.11594,-1.25898 c -0.3114,-0.2521 -0.73484,-0.55555 -0.94097,-0.67433 -0.20613,-0.11878 -0.36049,-0.23024 -0.34303,-0.24771 0.0951,-0.0951 1.32033,0.69791 1.70348,1.10257 0.3569,0.37692 0.16945,0.29624 -0.41948,-0.18053 z m -1.48624,-0.37772 c -0.11678,-0.0297 -0.64227,-0.0615 -1.16777,-0.0708 -1.09281,-0.0192 -0.95846,-0.11997 0.17694,-0.13277 0.69669,-0.008 1.19283,0.0723 1.27554,0.20617 0.0467,0.0756 0.0219,0.0754 -0.28471,-0.003 z m -3.32636,-1.39672 c 0.0991,-0.0998 0.76477,-0.16394 0.88853,-0.0856 0.0699,0.0442 -0.01,0.0653 -0.25158,0.0668 -0.19462,0.001 -0.43348,0.0219 -0.53079,0.0461 -0.11863,0.0295 -0.15362,0.0205 -0.10616,-0.0272 z m -1.76935,-0.29425 c -0.17567,-0.0717 0.87035,-0.32574 1.63738,-0.39764 0.81904,-0.0768 0.68988,0.0736 -0.20471,0.23831 -1.13121,0.2083 -1.27385,0.22417 -1.43267,0.15933 z"
         id="path4486"
         inkscape:connector-curvature="0"
         sodipodi:nodetypes="csssscscscccccccccscssssscsccsccscsccccccsssccsccssccccsscscccsccccccccscccssccccccsccccsccccccscccccsccccccsccscccccsccccccccccccccccccccccccccccccccsccccscccccccccccsccccscccscsscscccsscssccccccccccssccccccccsccccccscccsccccccsccccscccccccssccccccccsccccccscscccccsccccccccccccccsccccccscccccccccccccsssscccscccccccccccccccccscccccccsscsssccsscccsccsccscccccccsccsscsscccccccccccssccsccscccccssccccccccccsccssccscccccccccccccccc" />
    </g>
  </g>
</svg>
