<?xml version="1.0" encoding="UTF-8" standalone="no"?>
<!-- Created with Inkscape (http://www.inkscape.org/) -->

<svg
   xmlns:dc="http://purl.org/dc/elements/1.1/"
   xmlns:cc="http://creativecommons.org/ns#"
   xmlns:rdf="http://www.w3.org/1999/02/22-rdf-syntax-ns#"
   xmlns:svg="http://www.w3.org/2000/svg"
   xmlns="http://www.w3.org/2000/svg"
   xmlns:sodipodi="http://sodipodi.sourceforge.net/DTD/sodipodi-0.dtd"
   xmlns:inkscape="http://www.inkscape.org/namespaces/inkscape"
   width="512"
   height="512"
   viewBox="0 0 512.00001 512.00001"
   id="svg5363"
   version="1.1"
   inkscape:version="0.91 r13725"
   sodipodi:docname="katarina.svg">
  <defs
     id="defs5365" />
  <sodipodi:namedview
     id="base"
     pagecolor="#47a0f2"
     bordercolor="#666666"
     borderopacity="1.0"
     inkscape:pageopacity="0"
     inkscape:pageshadow="2"
     inkscape:zoom="0.98994949"
     inkscape:cx="895.26931"
     inkscape:cy="106.75876"
     inkscape:document-units="px"
     inkscape:current-layer="layer1"
     showgrid="false"
     units="px"
     fit-margin-top="6"
     fit-margin-left="6"
     fit-margin-right="6"
     fit-margin-bottom="6"
     inkscape:window-width="3440"
     inkscape:window-height="1411"
     inkscape:window-x="0"
     inkscape:window-y="0"
     inkscape:window-maximized="1"
     showguides="true"
     inkscape:guide-bbox="true">
    <sodipodi:guide
       position="442.44682,248.49753"
       orientation="0,1"
       id="guide5952" />
    <sodipodi:guide
       position="377.79706,459.61942"
       orientation="0,1"
       id="guide5954" />
    <sodipodi:guide
       position="410.12194,125.25892"
       orientation="0,1"
       id="guide5956" />
    <sodipodi:guide
       position="454.56865,26.263967"
       orientation="0,1"
       id="guide5958" />
    <sodipodi:guide
       position="251.52799,248.49753"
       orientation="1,0"
       id="guide5977" />
  </sodipodi:namedview>
  <metadata
     id="metadata5368">
    <rdf:RDF>
      <cc:Work
         rdf:about="">
        <dc:format>image/svg+xml</dc:format>
        <dc:type
           rdf:resource="http://purl.org/dc/dcmitype/StillImage" />
        <dc:title></dc:title>
      </cc:Work>
    </rdf:RDF>
  </metadata>
  <g
     inkscape:label="Ebene 1"
     inkscape:groupmode="layer"
     id="layer1"
     transform="translate(782.11424,23.969541)">
    <g
       id="g6332"
       transform="matrix(17.607863,0,0,17.607863,2242.6385,-5425.4728)">
      <path
         sodipodi:nodetypes="cscccccccccccccccccssscc"
         inkscape:connector-curvature="0"
         id="path4389"
         d="m -155.9555,310.90699 c -4.50297,-0.0358 -9.01758,3.50743 -9.01758,8.67383 0,0.25408 -0.009,0.29952 -0.0176,0.38672 -0.002,4.3e-4 -0.002,-4.5e-4 -0.004,0 -0.13446,0.0344 -0.27943,0.13937 -0.35547,0.24805 -0.15207,0.21736 -0.15451,0.3844 -0.17383,0.61328 -0.0386,0.45775 -0.0278,1.20374 -0.004,2.60547 0.05,2.92568 0.0386,3.03868 -0.63867,6.55078 -0.29804,1.54564 -0.38872,2.08317 -0.48829,2.69336 -0.0591,-0.0111 -0.12404,-0.0606 -0.16601,-0.0547 -0.1096,0.0153 -0.16419,0.0491 -0.20703,0.0742 -0.0857,0.0503 -0.12491,0.0906 -0.16992,0.13477 -0.10839,0.10639 -0.13412,0.17197 -0.17969,0.25585 -0.046,0.0846 -0.0923,0.17922 -0.13867,0.28516 -0.0927,0.21188 -0.18868,0.46705 -0.27344,0.72852 -0.10002,0.30841 -0.30338,0.71501 -0.4707,0.95898 l 0.4121,0.7832 22.03501,-1.9e-4 0.41406,-0.77929 c -0.76693,-1.13993 -1.04386,-3.56346 -1.29101,-9.06836 -0.1631,-3.63234 -0.42139,-6.11709 -0.95703,-8.04492 -0.53565,-1.92783 -1.36763,-3.29433 -2.59961,-4.58594 -1.60013,-1.67756 -3.66233,-2.44271 -5.70899,-2.45899 z"
         style="color:#000000;font-style:normal;font-variant:normal;font-weight:normal;font-stretch:normal;font-size:medium;line-height:normal;font-family:sans-serif;text-indent:0;text-align:start;text-decoration:none;text-decoration-line:none;text-decoration-style:solid;text-decoration-color:#000000;letter-spacing:normal;word-spacing:normal;text-transform:none;direction:ltr;block-progression:tb;writing-mode:lr-tb;baseline-shift:baseline;text-anchor:start;white-space:normal;clip-rule:nonzero;display:inline;overflow:visible;visibility:visible;opacity:1;isolation:auto;mix-blend-mode:normal;color-interpolation:sRGB;color-interpolation-filters:linearRGB;solid-color:#000000;solid-opacity:1;fill:#ffffff;fill-opacity:1;fill-rule:nonzero;stroke:none;stroke-width:1;stroke-linecap:round;stroke-linejoin:bevel;stroke-miterlimit:4;stroke-dasharray:none;stroke-dashoffset:0;stroke-opacity:1;color-rendering:auto;image-rendering:auto;shape-rendering:auto;text-rendering:auto;enable-background:accumulate" />
      <path
         style="display:inline;fill:#000000;stroke:none;stroke-width:2;stroke-linecap:round;stroke-linejoin:bevel;stroke-miterlimit:4;stroke-dasharray:none;stroke-opacity:1"
         d="m -155.95935,311.35081 c -4.23816,-0.0337 -8.51428,3.29953 -8.51428,8.17349 0,0.78214 -0.0466,0.91388 -0.30322,0.87075 -0.28008,-0.047 -0.29863,0.17233 -0.25089,2.97314 0.0501,2.92843 0.0296,3.14077 -0.64803,6.65471 -0.80365,4.16778 -0.79466,4.08678 -0.41324,3.94051 0.3576,-0.13724 -0.13495,0.75422 -0.71913,1.32423 l 0.90429,0 c 0.31519,-0.52041 0.55428,-1.28432 0.81708,-2.47137 0.0789,-0.35703 0.0512,-0.45519 -0.0993,-0.36224 -0.14861,0.0918 -0.17511,0.0115 -0.0953,-0.28712 0.0611,-0.22875 0.24766,-1.01823 0.41457,-1.75492 0.37349,-1.64884 0.37424,-1.64905 1.06395,0.0215 0.45905,1.1119 0.54323,1.27634 0.8855,4.85418 l 0.57156,0 c -0.0598,-0.35134 -0.10914,-0.6828 -0.14356,-0.97405 -0.16828,-1.42472 -0.48768,-2.83059 -1.05187,-4.63683 -1.51833,-4.86098 -1.30627,-6.75249 1.34167,-11.98922 2.1471,-4.24609 1.64882,-4.28986 -0.644,-0.0564 -1.29043,2.38269 -1.5003,2.53578 -0.9432,0.69097 0.56485,-1.87054 1.50826,-3.55223 2.62163,-4.67574 0.94552,-0.95423 1.85459,-1.45812 1.01163,-0.56083 -0.59852,0.6371 -0.31044,0.5331 1.19409,-0.43201 1.62191,-1.04043 1.61245,-1.03945 2.00312,-0.17308 0.23757,0.52683 0.36399,0.64707 0.53265,0.50716 0.27968,-0.2321 0.51468,0.17874 1.04113,1.82602 0.42683,1.33556 0.56535,0.91812 0.18381,-0.55278 l -0.22942,-0.8855 0.4025,0.26297 c 0.34105,0.2234 0.4025,0.22635 0.4025,0.0174 0,-0.31884 -0.78357,-1.05005 -1.555,-1.45035 l -0.60509,-0.31396 0.51922,-0.10062 c 0.73789,-0.14437 2.10046,0.13034 3.12208,0.63059 1.41808,0.69436 3.65626,2.60732 2.55724,2.18559 -0.31998,-0.12278 -0.3234,-0.13478 0.34481,1.15652 l 0.49105,0.95125 -0.96735,-0.94454 c -0.53249,-0.51955 -0.96868,-0.87983 -0.96868,-0.79964 0,0.19648 2.5368,4.06272 2.9879,4.55365 0.33237,0.36165 0.34636,0.48896 0.19455,1.77101 -0.16556,1.39767 -0.13443,1.54859 0.24016,1.17396 1.03988,-1.03985 -0.82199,4.41892 -2.05009,6.01071 -0.81382,1.0549 -1.65407,3.24135 -1.8931,4.92664 -0.0848,0.59789 -0.26437,1.22198 -0.5407,1.88102 l 0.77416,0 c 0.37146,-0.59782 0.45848,-0.92456 0.46153,-1.67575 0.001,-0.68042 0.18797,-1.53747 0.58899,-2.7008 0.74643,-2.16523 0.90915,-2.3348 1.07737,-1.12969 l 0.13015,0.93247 0.22539,-1.20751 c 0.58365,-3.12676 1.32474,-4.12281 1.51476,-2.03532 0.0672,0.73807 0.23292,1.87818 0.36896,2.53442 0.13592,0.65625 0.20195,1.33656 0.14624,1.51208 -0.0556,0.17547 -0.0279,0.31931 0.0617,0.31931 0.23583,0 0.41888,1.07951 0.20527,1.21153 -0.1182,0.073 -0.091,0.35966 0.0832,0.85331 0.33727,0.95596 0.33366,0.99082 -0.10867,0.97406 -0.47342,-0.0175 -0.54287,0.15298 -0.27102,0.41189 l 1.67441,0 c -0.90405,-1.34374 -1.12775,-3.81429 -1.37521,-9.32599 -0.32496,-7.23716 -1.04002,-9.81209 -3.41993,-12.30718 -1.50536,-1.57821 -3.42417,-2.28834 -5.3506,-2.30366 z m 2.33854,1.51878 c -0.0345,-0.007 -0.0597,-0.006 -0.0725,0.007 -0.0483,0.0483 0.24715,0.32535 0.65742,0.61582 0.85326,0.60418 0.96435,0.65106 0.65339,0.27639 -0.28544,-0.34395 -0.9967,-0.84672 -1.23836,-0.89892 z m -4.04113,0.0161 c -0.0206,10e-4 -0.0436,0.01 -0.0711,0.0268 -0.095,0.0588 -0.17383,0.27742 -0.17039,0.48569 0.002,0.30787 0.0342,0.33017 0.17039,0.11941 0.19254,-0.29792 0.21551,-0.64176 0.0711,-0.63193 z m 0.42665,0.63193 c -0.0168,-2e-5 -0.0702,0.0862 -0.1771,0.25894 -0.21959,0.3549 -0.66357,2.04337 -0.65876,2.50625 0.005,0.4724 0.27499,-0.17825 0.50312,-1.21019 0.1156,-0.52282 0.24605,-1.10595 0.28981,-1.29606 0.0398,-0.17279 0.0597,-0.25893 0.0429,-0.25894 z m 3.11,0.17307 c -0.0934,0 0.0394,0.27383 0.29517,0.60912 0.25572,0.33528 0.50275,0.5732 0.5474,0.52862 0.11659,-0.11662 -0.63973,-1.13774 -0.84257,-1.13774 z m -0.44141,0.57693 c -0.1161,0.11611 0.33855,1.67055 1.21958,4.17529 0.4347,1.23573 0.7195,2.27143 0.63328,2.30097 -0.3169,0.10845 -1.21952,-0.50671 -1.47853,-1.0076 -0.33382,-0.64549 -0.50417,-0.66511 -0.35018,-0.0403 0.0644,0.26141 0.36017,0.72819 0.65742,1.03712 l 0.5407,0.56216 -0.59571,0 c -0.82773,0.001 -1.81034,0.29704 -2.08495,0.6279 l 0,10e-4 c -0.25656,0.30917 1.69475,0.23713 3.60642,-0.13282 1.05753,-0.20467 1.06501,-0.23204 0.4025,-1.31484 -0.61235,-1.00086 -1.57495,-3.31418 -2.09167,-5.02458 -0.20974,-0.69422 -0.41654,-1.22701 -0.45886,-1.18469 z m -6.39039,2.04337 c -0.12363,-0.008 -0.53323,0.81517 -1.0331,2.28487 -0.66322,1.94995 -0.74329,1.81756 1.53354,2.51967 2.2127,0.68234 2.20027,0.68487 1.27727,-0.33677 -0.40569,-0.44906 -0.61766,-0.88594 -0.7017,-1.44633 -0.13054,-0.87059 -0.44468,-1.09916 -0.44811,-0.32736 -0.004,0.64729 -0.24242,0.98215 -0.60241,0.84391 -0.22074,-0.0847 -0.26819,-0.232 -0.1865,-0.58631 l 0.11002,-0.47361 -0.34615,0.43202 c -0.45265,0.56471 -0.44144,0.36712 0.0751,-1.29606 0.34107,-1.09807 0.41816,-1.60769 0.32201,-1.61403 z m 12.26827,2.27548 c 0.0412,-0.0412 0.15779,0.16212 0.25895,0.45214 0.10125,0.29003 0.11876,0.52728 0.0389,0.52728 -0.15833,0 -0.41932,-0.85797 -0.29786,-0.97942 z m -10.17392,1.05992 c -0.0313,-0.0116 -0.0537,0.0874 -0.0537,0.26565 0,0.23773 0.0393,0.33478 0.0872,0.21601 0.048,-0.11881 0.048,-0.31325 0,-0.43202 -0.012,-0.0297 -0.0231,-0.0458 -0.0335,-0.0496 z m 1.15786,0.10599 c -0.12573,0.01 -0.20125,0.11355 -0.20125,0.31127 0,0.3686 0.27348,0.63662 0.77683,0.76073 l 0.001,0 c 0.19077,0.0467 0.72182,0.0928 1.18067,0.10465 1.10407,0.0265 1.00641,-0.36724 -0.13148,-0.52996 -0.45264,-0.0648 -0.95808,-0.23995 -1.12299,-0.38909 -0.20163,-0.18246 -0.3774,-0.26711 -0.50313,-0.2576 z m 6.39175,0.0349 c -0.0489,0.0642 0.1859,0.52088 0.66144,1.22093 0.91615,1.34874 1.10181,2.87751 0.60107,4.95346 l -0.10465,0.43202 0.35689,-0.40518 c 0.72296,-0.82171 0.98108,-4.86387 0.37299,-5.83629 -0.17787,-0.28418 -0.19549,-0.25448 -0.1382,0.23479 0.0639,0.54539 -0.0889,0.74018 -0.3059,0.38909 -0.0588,-0.095 -0.22335,-0.17308 -0.36494,-0.17308 -0.14153,0 -0.44479,-0.21353 -0.67486,-0.47495 -0.24329,-0.27641 -0.37453,-0.37932 -0.40384,-0.34079 z m -9.26025,2.16145 c -0.99198,-0.009 -1.88741,0.32989 -1.46511,0.55411 0.45825,0.2433 2.10574,0.37634 2.22719,0.17978 0.0804,-0.13008 0.29594,-0.1118 0.7084,0.0617 0.62533,0.26298 0.78676,0.24844 0.59839,-0.0564 -0.23923,-0.38709 -1.20171,-0.73088 -2.06887,-0.73926 z m 6.10463,0.68559 c -0.95976,-0.0504 -1.60139,0.33087 -1.80053,1.12432 -0.14836,0.5912 0.0787,0.60625 0.60912,0.0416 0.46374,-0.49362 1.40819,-0.57052 2.94229,-0.2415 1.15446,0.24758 1.29172,0.0778 0.29383,-0.3636 -0.7786,-0.34441 -1.46886,-0.5306 -2.04471,-0.56082 z m -4.61403,2.68201 c -0.0582,-0.0332 -0.26651,0.0904 -0.62119,0.36091 -1.33207,1.016 -2.18292,3.20067 -1.70259,4.37386 0.0836,0.20417 0.14854,-0.0517 0.18247,-0.72048 0.0496,-0.978 0.11664,-1.1195 1.1686,-2.49015 0.7503,-0.97759 1.0697,-1.46877 0.97271,-1.52414 z m 3.08049,0.16503 c -0.18386,-0.0436 0.0655,0.50174 0.75268,1.52817 1.12765,1.68429 1.10141,1.85488 -0.36628,2.4177 -1.25486,0.48129 -2.84622,0.52801 -3.63594,0.10598 -0.86689,-0.46323 -0.57805,-0.55732 1.37254,-0.44677 1.79962,0.10207 2.57744,0.003 1.61537,-0.20662 -0.84775,-0.18396 -4.58048,-0.17244 -4.58048,0.0148 0,0.18181 0.71825,0.58943 1.71198,0.97137 1.48301,0.56999 5.18601,-0.10359 5.46867,-0.99418 0.12847,-0.40475 -0.48909,-1.46705 -1.54158,-2.6525 -0.42039,-0.47349 -0.68664,-0.71178 -0.79696,-0.73791 z m -1.50939,0.98479 c -0.0232,-0.01 -0.0472,0.004 -0.0711,0.0416 -0.21513,0.3393 -0.18198,1.25363 0.0537,1.48926 0.30666,0.30658 0.34284,0.16699 0.21199,-0.81976 -0.0586,-0.44184 -0.12479,-0.68244 -0.19455,-0.71109 z m -1.41948,0.23613 c -0.069,-0.004 -0.12696,0.008 -0.16101,0.0416 -0.055,0.0549 0.0144,0.17188 0.15429,0.26029 0.32316,0.20446 0.51253,0.20906 0.51253,0.0121 0,-0.14379 -0.29883,-0.30143 -0.50581,-0.31395 z m 4.71196,3.42798 c -0.0892,-0.0243 -0.2056,0.3643 -0.2187,0.98211 -0.007,0.33976 0.0583,0.52897 0.16101,0.46556 0.0951,-0.0588 0.168,-0.47181 0.16099,-0.91771 -0.005,-0.35216 -0.0498,-0.51538 -0.1033,-0.52996 z m 3.81304,1.09883 c -0.0519,-0.008 -0.1319,0.0931 -0.22809,0.33542 -0.11023,0.27781 -0.14813,0.62821 -0.0845,0.77818 0.084,0.19825 0.15879,0.11416 0.27505,-0.30591 0.13153,-0.47536 0.12399,-0.79362 0.0376,-0.80769 z m -11.37204,0.97674 c -0.20063,-0.0368 -0.0848,0.29621 0.38506,0.94454 0.6664,0.91961 1.67288,1.65379 2.61492,1.90786 1.0746,0.28984 2.1481,0.28457 2.86448,-0.0147 0.92927,-0.38809 0.71935,-0.49829 -0.73926,-0.38507 -0.84245,0.0653 -1.21162,0.0475 -0.99418,-0.0496 0.31499,-0.14058 0.30597,-0.15456 -0.10197,-0.16637 -0.65108,-0.0177 -2.41092,-0.94635 -3.33407,-1.75894 -0.34092,-0.30009 -0.57461,-0.45555 -0.69498,-0.47764 z m 12.29511,0.43068 c -0.0499,0.002 0.0327,0.34133 0.24553,0.90966 l 0.001,0 c 0.0851,0.22704 0.19741,0.37011 0.24955,0.31797 0.0522,-0.0522 -0.0654,-0.43274 -0.26163,-0.84525 -0.12612,-0.26461 -0.20482,-0.38379 -0.23479,-0.38238 z m -17.2526,0.43068 c -0.0147,-0.0143 -0.0516,0.007 -0.11136,0.0657 -0.0974,0.095 -0.30771,0.57555 -0.46691,1.06663 -0.11895,0.36678 -0.33198,0.79356 -0.53398,1.0881 l 0.53533,0 c 0.0138,-0.343 0.19798,-1.02311 0.55411,-2.06752 0.0299,-0.0874 0.0375,-0.13863 0.0228,-0.15295 z"
         id="path4492"
         inkscape:connector-curvature="0" />
    </g>
  </g>
</svg>
