<?xml version="1.0" encoding="UTF-8" standalone="no"?>
<!-- Created with Inkscape (http://www.inkscape.org/) -->

<svg
   xmlns:dc="http://purl.org/dc/elements/1.1/"
   xmlns:cc="http://creativecommons.org/ns#"
   xmlns:rdf="http://www.w3.org/1999/02/22-rdf-syntax-ns#"
   xmlns:svg="http://www.w3.org/2000/svg"
   xmlns="http://www.w3.org/2000/svg"
   xmlns:sodipodi="http://sodipodi.sourceforge.net/DTD/sodipodi-0.dtd"
   xmlns:inkscape="http://www.inkscape.org/namespaces/inkscape"
   width="512"
   height="512"
   viewBox="0 0 512.00001 512.00001"
   id="svg5363"
   version="1.1"
   inkscape:version="0.91 r13725"
   sodipodi:docname="marc.svg">
  <defs
     id="defs5365" />
  <sodipodi:namedview
     id="base"
     pagecolor="#47a0f2"
     bordercolor="#666666"
     borderopacity="1.0"
     inkscape:pageopacity="0"
     inkscape:pageshadow="2"
     inkscape:zoom="0.98994949"
     inkscape:cx="895.26931"
     inkscape:cy="106.75876"
     inkscape:document-units="px"
     inkscape:current-layer="layer1"
     showgrid="false"
     units="px"
     fit-margin-top="6"
     fit-margin-left="6"
     fit-margin-right="6"
     fit-margin-bottom="6"
     inkscape:window-width="3440"
     inkscape:window-height="1411"
     inkscape:window-x="0"
     inkscape:window-y="0"
     inkscape:window-maximized="1"
     showguides="true"
     inkscape:guide-bbox="true">
    <sodipodi:guide
       position="442.44682,248.49753"
       orientation="0,1"
       id="guide5952" />
    <sodipodi:guide
       position="377.79706,459.61942"
       orientation="0,1"
       id="guide5954" />
    <sodipodi:guide
       position="410.12194,125.25892"
       orientation="0,1"
       id="guide5956" />
    <sodipodi:guide
       position="454.56865,26.263967"
       orientation="0,1"
       id="guide5958" />
    <sodipodi:guide
       position="251.52799,248.49753"
       orientation="1,0"
       id="guide5977" />
  </sodipodi:namedview>
  <metadata
     id="metadata5368">
    <rdf:RDF>
      <cc:Work
         rdf:about="">
        <dc:format>image/svg+xml</dc:format>
        <dc:type
           rdf:resource="http://purl.org/dc/dcmitype/StillImage" />
        <dc:title></dc:title>
      </cc:Work>
    </rdf:RDF>
  </metadata>
  <g
     inkscape:label="Ebene 1"
     inkscape:groupmode="layer"
     id="layer1"
     transform="translate(782.11424,23.969541)">
    <g
       id="g6205"
       transform="matrix(18.085387,0,0,18.085387,5415.0795,-3668.784)">
      <path
         inkscape:connector-curvature="0"
         id="path4399"
         d="m -326.74099,204.77536 c -1.76135,0.0522 -3.54369,-0.0966 -5.28659,0.17889 -0.49504,0.13489 -0.56064,0.86457 -0.48293,0.40902 -0.49106,0.14224 -1.25458,0.55571 -1.33533,1.03347 0.5599,0.89402 -0.40628,0.0447 -0.84474,0.59357 -0.72479,0.14784 -2.56172,0.68356 -1.70496,1.80103 -0.93519,0.53522 -0.99066,1.80671 -1.08805,2.59573 0.32322,1.41016 -2.26933,0.11698 -1.74715,1.64142 0.62787,0.63016 1.88803,0.0446 1.65599,1.25593 0.052,0.53055 0.0788,1.05997 0.74503,0.90111 0.49217,0.0122 0.40415,1.1756 -0.22612,0.67226 -0.8202,0.70693 -0.0976,2.10701 -0.0908,3.07371 0.46734,0.94847 0.76534,1.71087 0.37704,2.81967 -0.19363,1.36231 0.10873,2.83788 1.13034,3.81512 1.00559,0.65317 -0.62056,1.05151 -0.67053,1.9946 -0.22419,0.85929 -0.6024,1.2994 -1.41752,1.459 -0.265,-0.14738 -1.89016,-0.11118 -1.42672,0.82393 5.74409,-0.0279 11.48819,-0.0558 17.23228,-0.0837 0.26905,-0.66663 -0.55578,-0.59514 -0.73268,-1.24993 -0.60058,-0.19622 -0.97481,-0.22072 -0.43303,-0.9392 0.96252,-1.50356 1.52462,-3.21398 1.7814,-4.97396 0.20051,-0.8664 0.16951,-2.50841 1.25534,-1.83158 0.91642,-0.7411 0.80902,-2.23884 1.34872,-3.11885 0.28792,-1.10514 0.56058,-2.20499 0.86202,-3.31005 0.12465,-1.27268 -0.16175,-2.61439 -0.69432,-3.75094 -0.53439,-0.32105 -0.7863,-0.18388 -0.98747,-0.98438 -0.32025,-0.98932 -1.22221,-0.40739 -1.64231,-1.30364 -0.88964,-0.49661 -1.29096,-1.57676 -2.34597,-2.01555 -0.85913,-0.54609 -1.78952,-0.96357 -2.73212,-1.34188 0.11649,0.68436 -0.28002,-0.0359 -0.49886,-0.16482 z m 5.7207,12.99804 c 0.53231,0.31902 -0.34803,1.80126 -0.21827,1.53554 0.0797,-0.51075 0.16604,-1.02111 0.21827,-1.53554 z"
         style="color:#000000;font-style:normal;font-variant:normal;font-weight:normal;font-stretch:normal;font-size:medium;line-height:normal;font-family:sans-serif;text-indent:0;text-align:start;text-decoration:none;text-decoration-line:none;text-decoration-style:solid;text-decoration-color:#000000;letter-spacing:normal;word-spacing:normal;text-transform:none;direction:ltr;block-progression:tb;writing-mode:lr-tb;baseline-shift:baseline;text-anchor:start;white-space:normal;clip-rule:nonzero;display:inline;overflow:visible;visibility:visible;opacity:1;isolation:auto;mix-blend-mode:normal;color-interpolation:sRGB;color-interpolation-filters:linearRGB;solid-color:#000000;solid-opacity:1;fill:#ffffff;fill-opacity:1;fill-rule:nonzero;stroke:none;stroke-width:1;stroke-linecap:round;stroke-linejoin:bevel;stroke-miterlimit:4;stroke-dasharray:none;stroke-dashoffset:0;stroke-opacity:1;color-rendering:auto;image-rendering:auto;shape-rendering:auto;text-rendering:auto;enable-background:accumulate" />
      <path
         style="display:inline;fill:#000000;stroke:none;stroke-width:2;stroke-linecap:round;stroke-linejoin:bevel;stroke-miterlimit:4;stroke-dasharray:none;stroke-opacity:1"
         d="m -326.73729,205.2189 -2.35061,0.0134 c -2.48268,0.0148 -2.97316,0.07 -2.97316,0.33273 0,0.0892 -0.15785,0.19337 -0.35152,0.23211 -0.19367,0.0387 -0.53111,0.23285 -0.74865,0.43068 l -0.39579,0.35957 1.28666,0.003 c 1.1795,0.003 1.28533,-0.014 1.28533,-0.22003 0,-0.12352 0.0817,-0.29312 0.18112,-0.37567 0.16015,-0.13284 0.15702,-0.16836 -0.0295,-0.30993 -0.29028,-0.22035 -0.0113,-0.21253 0.53264,0.0148 0.2995,0.12507 0.45953,0.1429 0.51386,0.055 0.0522,-0.0844 0.13209,-0.0657 0.23345,0.0563 0.195,0.2348 0.3636,0.23729 0.3636,0.006 0,-0.21956 -0.0299,-0.21959 1.11761,0 1.24267,0.2378 1.57119,0.2378 1.15519,0 -0.74282,-0.42462 0.83513,0.11335 1.88102,0.64132 0.40905,0.20649 0.85238,0.37567 0.9848,0.37567 0.2835,0 1.11862,0.70961 0.84257,0.71511 -0.11324,0.003 -0.0467,0.11219 0.17978,0.29786 0.40975,0.33585 0.41606,0.33792 0.6534,0.18782 0.41433,-0.26204 -1.53647,-1.6487 -3.40517,-2.42037 l -0.95662,-0.39446 z m -4.78038,0.50179 0.14758,0.322 c 0.0808,0.17743 0.14624,0.34719 0.14624,0.37701 0,0.0975 -1.01064,0.0404 -1.25581,-0.0711 -0.18045,-0.082 -0.10863,-0.10321 0.29383,-0.0845 0.47274,0.0219 0.54165,-0.007 0.60107,-0.25894 l 0.0671,-0.28443 z m 2.60284,0.63863 c -0.0526,0.002 0.0312,0.10942 0.18649,0.23882 0.25712,0.21418 0.6145,0.31798 0.6145,0.17844 0,-0.0719 -0.67314,-0.42275 -0.80099,-0.41726 z m -1.64489,0.0537 c -0.0418,-0.0134 -0.0657,0.002 -0.0657,0.0537 0,0.19782 0.45272,0.85253 0.76475,1.10555 0.37577,0.30468 0.38472,0.15653 0.0214,-0.36763 -0.30638,-0.4421 -0.59512,-0.75141 -0.72048,-0.79158 z m 3.13147,0.34615 c -0.0273,-0.006 -0.0482,-0.004 -0.0617,0.009 -0.037,0.037 0.0889,0.23078 0.28041,0.43068 0.21695,0.2259 0.36678,0.30885 0.39714,0.21735 0.0469,-0.14079 -0.42454,-0.61408 -0.61583,-0.65743 z m -2.46063,0.0161 c -0.0325,0.0325 0.0671,0.194 0.22138,0.35824 0.1543,0.16421 0.33452,0.29784 0.40115,0.29784 0.0666,0 -0.0329,-0.16018 -0.22137,-0.35688 -0.18844,-0.19664 -0.3686,-0.33176 -0.40116,-0.2992 z m -3.18112,0.31128 c -0.20178,0.0114 -0.2088,0.0238 -0.0376,0.0684 0.28577,0.0747 0.26448,0.25113 -0.0362,0.29784 -0.20692,0.0322 -0.15485,0.10928 0.32871,0.48435 0.52281,0.40543 0.87343,0.55982 0.87343,0.38372 0,-0.37196 -0.8048,-1.25261 -1.12835,-1.23434 z m 1.00089,0.008 c -0.16249,-0.0152 -0.0129,0.22605 0.43202,0.66413 0.31861,0.31368 0.58788,0.62381 0.59839,0.68962 0.0101,0.0658 0.0258,0.15998 0.0362,0.20931 0.0282,0.13898 0.37701,0.10544 0.37701,-0.0362 0,-0.39432 -0.60863,-1.13021 -1.17665,-1.42351 -0.12422,-0.0642 -0.21283,-0.0982 -0.26699,-0.10331 z m 4.07064,0.0979 c -0.061,0 -0.0213,0.18833 0.0886,0.41861 0.20044,0.42031 0.39445,0.55091 0.39445,0.26565 0,-0.20071 -0.3413,-0.68426 -0.48301,-0.68426 z m -6.01204,0.004 c -0.12785,-0.005 -0.80232,0.34527 -0.80232,0.41727 0,0.0312 0.075,0.0563 0.16637,0.0563 0.17466,0 0.80141,-0.46668 0.63595,-0.47362 z m 3.25759,0.29115 c -0.12753,-0.0467 -0.006,0.20164 0.24284,0.69767 0.47881,0.95752 0.96915,1.29403 2.81618,1.93335 1.19115,0.41232 1.2106,0.36646 0.0939,-0.22003 -0.565,-0.29674 -1.37033,-0.86611 -1.89578,-1.34168 -0.75235,-0.68091 -1.12963,-1.02257 -1.25715,-1.06931 z m -4.59658,0.0832 c -0.0616,-0.0365 -0.19065,0.0488 -0.46959,0.29113 -0.38966,0.33852 -0.42727,0.40653 -0.22272,0.40653 0.33276,0 0.78734,-0.38582 0.7339,-0.62253 -0.009,-0.0381 -0.021,-0.0629 -0.0416,-0.0751 z m 1.4584,0.47092 c -0.0322,-0.0155 -0.13221,-4.7e-4 -0.322,0.0349 -0.2294,0.0427 -0.49742,0.16402 -0.59705,0.26968 -0.16476,0.17477 -0.14345,0.18476 0.23614,0.11405 0.22939,-0.0427 0.49742,-0.16413 0.59704,-0.26968 0.0824,-0.0874 0.11803,-0.13337 0.0859,-0.14893 z m 4.95749,0.007 c -0.0106,0.004 -0.0174,0.015 -0.0174,0.0349 0,0.0456 0.14519,0.33141 0.32201,0.63327 0.34003,0.57976 0.53702,0.52927 0.23211,-0.0604 -0.15532,-0.30032 -0.46229,-0.63519 -0.53667,-0.60778 z m -4.18602,0.23881 c -0.29509,-0.0101 -0.57696,0.0357 -0.6373,0.14356 -0.0605,0.10815 -0.20541,0.19589 -0.32201,0.19589 -0.44124,0 -1.34111,0.3942 -1.57244,0.68828 -0.34621,0.4402 -0.21357,0.45973 0.34884,0.0523 0.29068,-0.21057 0.71859,-0.38713 1.05723,-0.43604 0.31308,-0.0452 0.70359,-0.10766 0.86807,-0.13953 l 0.29919,-0.059 -0.29919,0.18247 c -0.16448,0.10015 -0.48752,0.24537 -0.7178,0.322 -0.6959,0.23167 -0.88802,0.82513 -0.26699,0.82513 0.0847,0 -0.11598,0.35329 -0.44678,0.78488 -0.3308,0.4316 -0.60107,0.86491 -0.60107,0.96198 0,0.0985 0.17055,-0.0236 0.3864,-0.27639 0.21264,-0.249 0.91531,-1.01205 1.56172,-1.69587 0.75885,-0.80279 1.13348,-1.28557 1.05857,-1.36046 -0.11379,-0.11384 -0.42137,-0.17905 -0.71644,-0.18918 z m 11.13053,0.0269 c -0.0959,0.0295 0.10438,0.32639 0.55277,0.79159 0.57545,0.59701 0.73926,0.70381 0.73926,0.47898 0,-0.158 -0.81697,-1.0581 -1.09614,-1.20752 -0.0997,-0.0534 -0.16391,-0.0729 -0.19589,-0.0631 z m -1.47316,0.43336 c -0.21784,0 -0.0921,0.32621 0.25358,0.65742 0.42275,0.405 0.44994,0.53801 0.11002,0.53801 -0.20902,0 -0.1488,0.11043 0.37164,0.68828 0.34071,0.37831 0.70365,0.86286 0.80769,1.07603 0.10405,0.21316 0.28271,0.41628 0.3958,0.45214 0.92772,0.29445 1.53663,1.49079 1.12566,2.20974 -0.094,0.16448 -0.17364,0.51499 -0.17845,0.77817 -0.007,0.447 -0.0197,0.46244 -0.18381,0.24553 -0.0966,-0.12773 -0.17576,-0.36623 -0.17576,-0.5313 0,-0.79617 -0.28293,0.0743 -0.31529,0.97003 -0.0683,1.8888 -0.26926,3.27884 -0.92576,6.40784 l -0.65875,3.14354 -1.11359,1.21153 c -1.2202,1.32737 -2.01487,1.81263 -3.58631,2.19096 -1.01375,0.2441 -3.56751,0.3841 -3.56751,0.19588 0,-0.0762 0.17618,-0.13685 0.39445,-0.13685 0.49737,1e-5 0.68158,-0.18264 0.68158,-0.67486 0,-0.46581 -0.12916,-0.56522 -0.60108,-0.46153 -0.45493,0.0999 -0.45258,0.26897 0.006,0.46153 0.45841,0.19275 0.33801,0.3153 -0.30859,0.3153 -0.66264,0 -0.97991,-0.27319 -1.18335,-1.01699 l -0.16368,-0.59705 -0.0148,0.47764 -0.0148,0.47898 -0.29517,-0.33542 c -0.16241,-0.1846 -0.29517,-0.43924 -0.29517,-0.56485 0,-0.12561 -0.1035,-0.28331 -0.23077,-0.35152 -0.31276,-0.16736 -0.37242,-0.15672 -0.29114,0.055 0.11986,0.31235 -0.13199,0.19581 -0.57826,-0.26834 -0.64901,-0.67502 -1.05322,-1.3384 -1.05322,-1.72942 0,-0.58643 -0.47002,-1.1739 -0.483,-0.60375 -0.003,0.14882 -0.0563,0.11423 -0.18381,-0.12075 -0.31174,-0.57467 -0.33336,-1.7003 -0.0684,-3.61716 0.13639,-0.98691 0.30648,-2.38627 0.37835,-3.11 0.0719,-0.72374 0.24238,-2.00279 0.37836,-2.84167 0.20649,-1.27393 0.22094,-1.55647 0.0885,-1.71601 -0.13371,-0.16103 -0.12614,-0.20976 0.0456,-0.3059 0.2468,-0.13816 0.26762,-0.34078 0.0349,-0.34078 -0.30554,0 -0.78212,0.71968 -1.04113,1.57244 -0.26641,0.87704 -0.26935,1.29987 -0.0335,4.73075 0.06,0.87365 0.0201,1.38936 -0.19186,2.51027 -0.51474,2.72235 -0.0729,3.88758 2.46466,6.49907 0.73519,0.75664 1.35754,1.4827 1.38192,1.61404 0.0714,0.38531 1.18218,0.76934 2.23658,0.77415 1.37165,0.005 1.9365,-0.1768 5.30632,-1.71198 0.80306,-0.36585 0.90846,-0.2911 0.49777,0.34884 -0.16602,0.25893 -0.27334,0.37546 -0.23748,0.26028 0.17777,-0.57071 -0.50142,0.008 -1.43828,1.14177 l 1.25312,0 c 0.34775,-0.67981 0.66425,-1.34896 0.82379,-1.76968 0.12477,-0.32896 0.45489,-0.97429 0.73256,-1.43425 0.63631,-1.05405 0.99744,-2.19849 1.34167,-4.24774 0.238,-1.41661 0.31077,-1.65261 0.59571,-1.92396 0.20803,-0.19809 0.3731,-0.53067 0.45751,-0.92441 0.0725,-0.33815 0.34546,-1.15619 0.60778,-1.81798 0.78951,-1.99174 1.09741,-3.46823 0.72317,-3.46823 -0.0657,0 -0.11941,0.0793 -0.11941,0.17711 0,0.0977 -0.15537,0.64962 -0.34481,1.22629 -0.18943,0.57667 -0.3804,1.3042 -0.42532,1.61672 -0.0449,0.31253 -0.12682,0.56886 -0.18247,0.56886 -0.0556,0 -0.0736,-0.10894 -0.0389,-0.2415 0.0485,-0.18532 0.019,-0.22359 -0.13014,-0.16636 -0.26331,0.10103 -0.24904,0.0142 0.1771,-1.0814 0.27507,-0.70706 0.35119,-1.06328 0.2992,-1.38863 -0.0548,-0.34297 -0.0174,-0.48326 0.16905,-0.65205 0.50847,-0.46014 0.16236,-1.19599 -0.99284,-2.10911 -0.33695,-0.26635 -0.62514,-0.5668 -0.63998,-0.66816 -0.0148,-0.10133 -0.19251,-0.35515 -0.39445,-0.5635 -0.53138,-0.54825 -0.45092,-0.64247 0.14087,-0.16503 1.0053,0.81147 2.00446,1.21659 2.00446,0.8144 0,-0.0657 -0.0622,-0.11941 -0.13819,-0.11941 -0.076,0 -0.31464,-0.13363 -0.52996,-0.29785 -0.21531,-0.16426 -0.46288,-0.27228 -0.55008,-0.23882 -0.0914,0.035 -0.60845,-0.39599 -1.21959,-1.01699 -0.58356,-0.59298 -1.10821,-1.07736 -1.16592,-1.07736 z m -12.84251,0.47764 c -0.0716,0 -0.54283,0.91362 -0.53802,1.04248 0.008,0.20605 0.59437,-0.59177 0.59437,-0.80903 0,-0.12797 -0.0247,-0.23345 -0.0563,-0.23345 z m 16.07058,0.11941 c -0.25453,0 -0.0116,0.95479 0.34213,1.34569 0.17487,0.19315 0.39177,0.2812 0.39177,0.15832 0,-0.1749 -0.64856,-1.50401 -0.7339,-1.50401 z m -1.41547,0.0859 c -0.0137,0.0306 0.0947,0.17493 0.28981,0.37836 0.26007,0.27122 0.52556,0.49373 0.59033,0.49373 0.15506,0 -0.51657,-0.70351 -0.82379,-0.86269 -0.0329,-0.017 -0.0518,-0.0197 -0.0563,-0.009 z m -5.49684,0.16905 c -0.0143,0.008 0.0195,0.0547 0.0939,0.14491 0.0903,0.1095 0.21198,0.19856 0.26968,0.19856 0.18274,0 0.11467,-0.10658 -0.16369,-0.25491 -0.12203,-0.065 -0.18556,-0.0962 -0.19991,-0.0886 z m 2.71152,0.10868 c -0.36774,0.003 -0.37661,0.0137 -0.15697,0.17978 l 0,-0.001 c 0.29905,0.22655 0.54606,0.22558 0.54606,-0.003 0,-0.12349 -0.12156,-0.17782 -0.38909,-0.17576 z m -10.39261,0.58765 c -0.0915,-6.9e-4 -0.24934,0.0605 -0.41055,0.18247 l 0,-0.001 c -0.2277,0.1725 -0.22671,0.17635 0.0228,0.17978 0.13997,0.002 0.32053,-0.0771 0.4025,-0.17576 0.10164,-0.12226 0.0768,-0.18437 -0.0148,-0.18515 z m -1.83675,0.36494 c -0.22705,0 -0.46983,0.3232 -0.28846,0.38372 0.10734,0.0358 0.10771,0.10806 0.004,0.30188 -0.0752,0.14056 -0.13685,0.41912 -0.13685,0.61851 0,0.46763 -0.26928,0.61046 -1.15251,0.61046 -0.94398,0 -0.69056,0.22063 0.36629,0.31932 0.44633,0.0417 0.87321,0.14631 0.94856,0.23211 0.28763,0.32767 0.37742,0.0584 0.39446,-1.19007 0.0132,-0.96303 -0.0205,-1.27593 -0.13552,-1.27593 z m 17.71414,0.0738 -0.0993,0.38104 c -0.0713,0.27511 -0.0442,0.4858 0.0953,0.75536 0.28927,0.55939 0.39941,3.08605 0.14088,3.23076 -0.25503,0.1427 -0.63014,1.75882 -0.51253,2.20973 0.10673,0.40919 0.4147,-0.38242 0.42398,-1.08809 0.003,-0.19738 0.11867,-0.60151 0.2576,-0.89758 0.50744,-1.08145 0.44684,-2.50041 -0.17979,-4.2397 l -0.12611,-0.35152 z m -16.69984,0.5246 c -0.13163,0 -0.47976,1.04547 -0.47495,1.42754 0.003,0.23365 0.029,0.26375 0.10868,0.12746 0.17431,-0.2985 0.4703,-1.555 0.36627,-1.555 z m 16.00216,1.16189 c -0.0372,-0.007 -0.0761,-0.004 -0.11806,0.007 -0.20632,0.054 -0.19102,0.0984 0.15966,0.4602 0.46648,0.4813 0.58244,0.43412 0.28578,-0.11673 -0.11974,-0.22228 -0.21576,-0.32918 -0.32738,-0.35018 z m -17.36127,1.11224 c -0.17393,-0.001 -0.20777,0.0587 -0.15027,0.26834 0.0407,0.14804 0.11001,0.47912 0.15295,0.73658 l 0.0778,0.46824 0.19858,-0.64803 c 0.20777,-0.67787 0.15924,-0.82169 -0.27907,-0.82513 z m 16.5026,0.18784 c -0.029,-0.0162 -0.0726,-0.0154 -0.13014,0.007 -0.0986,0.0378 -0.17782,0.21116 -0.17576,0.38506 0.003,0.30381 0.01,0.30767 0.17845,0.0845 0.17159,-0.2265 0.21441,-0.42759 0.12745,-0.47629 z m -2.66591,0.76878 c -0.20271,6.9e-4 -0.8645,0.47632 -0.99015,0.71109 -0.16257,0.30383 -0.0447,0.31063 0.39177,0.0228 0.35375,-0.23324 0.76254,-0.73438 0.59838,-0.7339 z m -8.6216,0.86941 c -0.53427,-0.0207 -1.03914,0.0436 -1.34302,0.21601 -0.27798,0.15777 -0.21624,0.17483 0.89624,0.24821 0.66111,0.0436 1.5179,0.18518 1.91457,0.31663 0.81268,0.26926 0.85501,0.26405 0.6373,-0.0845 -0.24489,-0.39214 -1.21464,-0.66181 -2.10509,-0.69633 z m 2.97852,0.57289 c -0.12624,0.0179 -0.37433,0.35898 -0.37433,0.55009 0,0.0852 0.0772,0.1231 0.17442,0.0859 0.19907,-0.0764 0.36679,-0.50127 0.24553,-0.62253 -0.012,-0.012 -0.0276,-0.016 -0.0456,-0.0134 z m -3.02146,0.27236 c -0.59859,0.0376 -1.17767,0.22349 -1.49865,0.58095 -0.21966,0.24465 -0.21965,0.24487 0.37701,0.16905 0.41339,-0.0525 0.87591,-0.006 1.49598,0.1516 1.13287,0.28771 1.04667,0.2797 1.1109,0.10466 0.0438,-0.11963 0.0865,-0.11963 0.21333,0 0.22394,0.21127 0.35018,0.18572 0.35018,-0.0711 0,-0.64919 -1.05109,-0.99777 -2.04875,-0.93515 z m -5.07958,0.0751 c -0.0275,0.008 -0.0297,0.15881 0.006,0.48702 0.0314,0.29341 0.0872,0.84716 0.12343,1.23032 0.0362,0.38317 0.14572,0.88879 0.24419,1.12432 0.30446,0.72887 0.31986,0.36019 0.0483,-1.17933 -0.17729,-1.00504 -0.36068,-1.68004 -0.42129,-1.66233 z m 11.40425,0.0389 c -0.68424,-0.0171 -1.32206,0.11452 -1.68784,0.43067 -0.20689,0.17879 -0.11174,0.1966 1.33497,0.25224 l 1.55769,0.059 0.63192,0.44141 c 0.69796,0.48685 1.20943,0.47047 0.94186,-0.0295 -0.36673,-0.68523 -1.63823,-1.12538 -2.7786,-1.15384 z m -1.11494,0.93112 c -0.69359,0.0712 -1.12663,0.42726 -1.12835,1.05053 -6.9e-4,0.23944 -0.0834,0.70413 -0.18381,1.03309 -0.1003,0.32898 -0.15175,0.72341 -0.11404,0.87611 0.11841,0.4792 0.33096,0.21936 0.53667,-0.65608 0.34985,-1.48878 1.00209,-2.28484 1.64623,-2.00983 0.16687,0.0712 0.12917,0.10762 -0.18515,0.17845 -0.76772,0.173 -0.70879,0.20816 0.81306,0.47763 1.06031,0.18776 1.75921,0.5148 2.36269,1.10555 0.31669,0.31023 0.50849,0.42861 0.50849,0.31529 0,-0.10009 -0.16084,-0.33684 -0.35822,-0.52593 -0.38824,-0.37197 -0.46623,-0.5715 -0.17979,-0.46154 0.65095,0.24978 -0.0382,-0.23734 -1.02504,-0.72451 -1.04486,-0.51583 -1.99916,-0.72995 -2.69274,-0.65876 z m -4.58987,0.35017 c -0.78579,0 -1.21375,0.15548 -0.75536,0.27505 0.32539,0.0853 1.18562,0.0917 1.39668,0.0107 0.42151,-0.16175 0.14244,-0.28578 -0.64132,-0.28578 z m 11.58939,0.1382 c -0.0745,0.0379 -0.15166,0.16251 -0.21735,0.36896 -0.11395,0.35808 -0.49239,1.95093 -0.49239,2.07155 0,0.0288 0.0465,0.0523 0.1033,0.0523 0.15094,0 0.88834,-2.12908 0.80903,-2.33586 -0.0556,-0.14475 -0.12809,-0.19487 -0.20259,-0.15697 z m -7.17259,0.72048 c -0.24687,0.0382 -0.0633,0.22044 0.51654,0.43738 0.87268,0.3265 1.75955,0.45081 1.87566,0.26298 0.28228,-0.45675 1.43581,0.7793 1.68112,1.80186 0.17942,0.74788 0.42417,0.62267 0.30725,-0.15697 -0.21515,-1.43467 -1.10615,-1.95523 -3.98881,-2.33183 -0.1789,-0.0234 -0.30948,-0.0262 -0.39176,-0.0134 z m -4.01564,1.40339 c -0.31535,-0.0148 -1.6039,0.55699 -2.04337,0.94186 -0.37565,0.32895 -0.75602,0.99729 -0.75671,1.32826 -3.9e-4,0.24683 0.13805,0.15297 1.01431,-0.68828 1.04174,-1.00012 1.21602,-1.10425 1.33497,-0.79427 0.0552,0.1439 0.52191,-0.52076 0.52191,-0.74329 0,-0.0283 -0.026,-0.0422 -0.0711,-0.0443 z m 3.40249,0.48971 0.2482,0.31396 c 0.31666,0.40245 0.31309,0.58288 -0.0174,0.81439 -0.33339,0.23315 -0.54308,0.23725 -0.59302,0.0107 -0.03,-0.13619 -0.15369,-0.0978 -0.55143,0.17038 -0.56887,0.38351 -0.86678,0.36362 -1.6288,-0.10733 -0.53387,-0.32994 -0.57351,-0.31491 -0.48166,0.17442 0.0816,0.43472 -0.0819,0.47996 -0.5152,0.1449 -0.144,-0.11129 -0.37572,0.20657 -0.24553,0.33676 0.13602,0.13602 1.52997,0.3125 2.09839,0.26565 0.34542,-0.0284 0.6279,-0.006 0.6279,0.0483 0,0.17692 0.60369,0.1062 0.67486,-0.0792 0.0378,-0.0987 0.17064,-0.17979 0.29517,-0.17979 0.1245,0 0.22541,-0.0526 0.22541,-0.11672 0,-0.19307 0.6778,-0.48166 1.13102,-0.48166 0.55583,0 0.53624,-0.15875 -0.0979,-0.79293 -0.35936,-0.35935 -0.62414,-0.52192 -0.84659,-0.52192 l -0.32335,0 z m -7.28664,0.59704 c -0.1599,0 -0.1371,0.92989 0.0362,1.49598 l 0.14625,0.47763 0.0416,-0.47763 c 0.0532,-0.61536 -0.079,-1.49598 -0.22406,-1.49598 z m 11.13054,0.49106 c -0.0462,-0.004 -0.1125,0.007 -0.19857,0.0349 -0.14776,0.0471 -0.22801,0.20554 -0.24821,0.48971 -0.0373,0.52554 0.005,0.52433 0.33273,-0.005 0.21256,-0.34384 0.25266,-0.5059 0.11405,-0.51922 z m -2.08899,0.60107 c -0.0348,0.021 -0.0102,0.0997 0.0657,0.2415 0.38064,0.71126 0.31526,1.7778 -0.0765,1.24642 -0.19553,-0.2652 -0.24542,0.24872 -0.0966,0.99284 0.0883,0.44167 0.2103,0.39324 0.51118,-0.20125 0.46151,-0.91182 0.41215,-1.89745 -0.10868,-2.1762 -0.16504,-0.0883 -0.2603,-0.12424 -0.29517,-0.10331 z m 2.34793,0.1127 c -0.11062,0.0427 -0.38061,0.50144 -0.77683,1.33766 -0.54097,1.14171 -0.89933,1.7226 -1.66368,2.69139 -0.28931,0.36671 0.14632,0.10176 0.589,-0.35822 0.97255,-1.01055 1.66638,-2.23024 1.87164,-3.28979 0.0546,-0.28188 0.0462,-0.40665 -0.0201,-0.38104 z m -9.72044,0.37165 c -0.5883,0.026 -0.66977,0.49386 -0.32603,1.62343 0.21769,0.71529 0.45886,0.48346 0.45886,-0.44142 0,-1.06182 0.0251,-1.06884 1.03175,-0.30724 1.68485,1.27479 2.6042,1.48665 3.34345,0.77012 l 0.3797,-0.36762 -0.059,0.30725 c -0.0698,0.36499 0.30408,0.41321 1.07468,0.13819 1.70879,-0.60988 1.25482,-0.80776 -3.19855,-1.39132 -1.0527,-0.13795 -2.14264,-0.28009 -2.42173,-0.31664 -0.10498,-0.0137 -0.19904,-0.0185 -0.28309,-0.0148 z m 8.5344,0.48702 c -0.0179,0.0135 -0.0225,0.0845 -0.0242,0.22004 -0.002,0.16997 0.0366,0.34867 0.0859,0.39848 0.14373,0.14494 0.17782,-0.26103 0.0416,-0.49508 -0.0543,-0.0935 -0.0854,-0.13689 -0.10331,-0.12344 z m -6.6574,0.106 c 0.18432,-0.003 0.51146,0.048 1.0076,0.14222 0.62528,0.11868 0.77019,0.18878 0.74195,0.35419 -0.0269,0.15713 0.0505,0.20528 0.32872,0.20528 0.38718,0 0.45483,0.10197 0.22137,0.33542 -0.36616,0.36617 -1.57209,0.0781 -2.1601,-0.5152 -0.35872,-0.362 -0.44673,-0.51715 -0.13954,-0.52191 z m -3.50176,1.23434 c -0.0254,0.0357 -0.004,0.14164 0.0778,0.29517 0.14532,0.27156 0.32481,0.3104 0.60376,0.13014 0.14671,-0.0949 0.13303,-0.11669 -0.0751,-0.11807 -0.13999,-6.8e-4 -0.32328,-0.0848 -0.40653,-0.18515 -0.10309,-0.1242 -0.17446,-0.15778 -0.1999,-0.12209 z m 6.43735,0.54472 c -0.2496,0 -0.53477,0.27695 -0.41189,0.39982 0.12156,0.12163 0.33538,0.0926 0.49373,-0.0657 0.20749,-0.20747 0.17583,-0.33408 -0.0818,-0.33408 z m -1.27057,0.13416 c -0.086,0.005 -0.1976,0.0187 -0.3448,0.0376 -0.88034,0.1129 -1.16451,0.52 -0.58229,0.83586 0.72609,0.39392 1.38344,0.0766 1.25312,-0.60509 -0.0428,-0.22379 -0.0679,-0.28376 -0.32603,-0.26834 z m 5.96107,0.16503 c -0.0891,0.0273 -0.25218,0.13701 -0.41726,0.28712 -0.2201,0.20013 -0.33621,0.36422 -0.25761,0.36628 0.19876,0.005 0.83249,-0.55592 0.73659,-0.65206 -0.0108,-0.0108 -0.032,-0.0104 -0.0617,-0.001 z m -2.64579,0.0736 c -0.0372,-0.012 -0.0727,-0.008 -0.10062,0.0201 -0.0433,0.0433 -0.006,0.16753 0.0832,0.27504 0.11217,0.13499 0.17767,0.15136 0.21064,0.0523 0.0431,-0.12915 -0.0815,-0.31172 -0.1932,-0.34749 z m -1.6422,0.0456 -0.15832,0.27772 c -0.087,0.15319 -0.12472,0.36498 -0.0845,0.46959 0.11533,0.30054 0.3296,-0.005 0.28309,-0.40384 l -0.0402,-0.34347 z m -5.50087,0.17978 c -0.0987,1e-5 -0.17979,0.0536 -0.17979,0.11941 0,0.0657 0.0811,0.11941 0.17979,0.11941 0.0987,0 0.17978,-0.0536 0.17978,-0.11941 0,-0.0657 -0.0811,-0.11941 -0.17978,-0.11941 z m 6.78216,0.51386 c -0.17598,-0.0157 -0.54362,0.0836 -0.67486,0.21199 -0.0712,0.0695 -0.0495,0.10936 0.059,0.10868 0.32733,-0.003 0.71243,-0.14574 0.71243,-0.26432 0,-0.034 -0.0379,-0.0511 -0.0966,-0.0563 z m 1.91995,0.10734 c -0.0211,0.008 -0.0295,0.044 -0.0295,0.11136 0,0.10088 0.0393,0.22307 0.0872,0.27101 0.048,0.048 0.10762,0.0247 0.13283,-0.051 0.0252,-0.0757 -0.0141,-0.19652 -0.0872,-0.26967 -0.0488,-0.0488 -0.0822,-0.0697 -0.1033,-0.0618 z m -10.54155,0.45483 c -0.17538,0 -1.17941,2.03113 -1.57781,3.14489 l 0.42263,0 c 0.22445,-0.48286 0.33232,-0.54395 0.39176,0 l 0.79696,0 c -0.008,-0.40308 -0.003,-0.83782 0.0187,-1.32155 0.0587,-1.30873 0.0432,-1.82334 -0.0523,-1.82334 z m 8.10909,0.39311 c -0.0164,-0.026 -0.0717,0.005 -0.16905,0.0859 -0.0988,0.0819 -0.17979,0.19587 -0.17979,0.25357 0,0.17764 0.21025,0.11579 0.28712,-0.0845 0.0561,-0.14632 0.0781,-0.22889 0.0617,-0.25492 z m 0.31126,0.52191 c -0.0482,-0.002 -0.13343,0.0752 -0.21869,0.20528 -0.1137,0.17347 -0.1585,0.31529 -0.0993,0.31529 0.16532,0 0.40401,-0.33376 0.35152,-0.49105 -0.006,-0.0192 -0.0174,-0.0288 -0.0335,-0.0295 z m -1.29874,0.55948 c -0.0443,-0.0443 -0.33595,0.008 -0.64803,0.11673 l -0.56752,0.19857 0.59838,-0.0684 c 0.63538,-0.0731 0.74632,-0.11771 0.61717,-0.24687 z m 4.31617,0.65474 c -0.0222,-0.0834 -0.29015,0.33076 -0.66412,1.01565 l 0.49641,0 c 0.0165,-0.0881 0.024,-0.15905 0.0134,-0.1865 -0.0352,-0.0917 -0.009,-0.30986 0.0577,-0.48569 0.0753,-0.19807 0.10567,-0.30936 0.0966,-0.34346 z m 0.44678,0.0201 c -0.0593,-0.0235 -0.19787,0.20082 -0.29114,0.57156 -0.0266,0.10568 -0.083,0.27046 -0.13417,0.42397 l 0.22674,0 c 0.0709,-0.23739 0.16187,-0.52085 0.1932,-0.6628 0.0476,-0.21541 0.0409,-0.31862 0.005,-0.33273 z m 0.30858,0.14491 c -0.0805,-0.0208 -0.12611,0.1078 -0.12611,0.38774 0,0.15737 -0.0194,0.32429 -0.0442,0.46288 l 0.69633,0 c -0.0677,-0.10124 -0.13136,-0.20973 -0.19052,-0.34347 -0.13981,-0.31606 -0.25494,-0.48636 -0.33542,-0.50715 z m -13.94671,0.27235 c -0.0216,-0.008 -0.0362,0.0618 -0.0362,0.18515 0,0.16451 0.0271,0.23114 0.0604,0.14893 0.0333,-0.0822 0.0333,-0.21698 0,-0.29919 -0.008,-0.0205 -0.017,-0.0322 -0.0241,-0.0349 z m -0.39445,0.1127 c -0.0547,0.0338 -0.11951,0.23473 -0.16905,0.46557 l 0.20662,0 c 0.0419,-0.31584 0.0365,-0.51135 -0.0376,-0.46557 z m -0.98211,0.0725 c -0.0752,0 -0.051,0.13664 0.0322,0.39312 l 0.1999,0 c -0.0748,-0.20994 -0.16933,-0.39312 -0.23211,-0.39312 z m -0.35286,0.1127 c -0.0239,-0.001 -0.0507,0.0158 -0.0805,0.0456 -0.024,0.024 -0.0219,0.11655 -0.005,0.2348 l 0.21736,0 c -0.0443,-0.14442 -0.0872,-0.27833 -0.13149,-0.28042 z m 16.52944,0.24553 c -0.0559,-1.6e-4 -0.0847,0.0137 -0.0966,0.0349 l 0.20394,0 c -0.0364,-0.0118 -0.0862,-0.0348 -0.10734,-0.0349 z"
         id="path4494"
         inkscape:connector-curvature="0" />
    </g>
  </g>
</svg>
