<?xml version="1.0" encoding="UTF-8" standalone="no"?>
<!-- Created with Inkscape (http://www.inkscape.org/) -->

<svg
   xmlns:dc="http://purl.org/dc/elements/1.1/"
   xmlns:cc="http://creativecommons.org/ns#"
   xmlns:rdf="http://www.w3.org/1999/02/22-rdf-syntax-ns#"
   xmlns:svg="http://www.w3.org/2000/svg"
   xmlns="http://www.w3.org/2000/svg"
   xmlns:sodipodi="http://sodipodi.sourceforge.net/DTD/sodipodi-0.dtd"
   xmlns:inkscape="http://www.inkscape.org/namespaces/inkscape"
   width="512"
   height="512"
   viewBox="0 0 512.00001 512.00001"
   id="svg5363"
   version="1.1"
   inkscape:version="0.91 r13725"
   sodipodi:docname="david.svg">
  <defs
     id="defs5365" />
  <sodipodi:namedview
     id="base"
     pagecolor="#47a0f2"
     bordercolor="#666666"
     borderopacity="1.0"
     inkscape:pageopacity="0"
     inkscape:pageshadow="2"
     inkscape:zoom="0.98994949"
     inkscape:cx="454.8428"
     inkscape:cy="148.17501"
     inkscape:document-units="px"
     inkscape:current-layer="layer1"
     showgrid="false"
     units="px"
     fit-margin-top="6"
     fit-margin-left="6"
     fit-margin-right="6"
     fit-margin-bottom="6"
     inkscape:window-width="1920"
     inkscape:window-height="1135"
     inkscape:window-x="0"
     inkscape:window-y="0"
     inkscape:window-maximized="1"
     showguides="true"
     inkscape:guide-bbox="true">
    <sodipodi:guide
       position="442.44682,248.49753"
       orientation="0,1"
       id="guide5952" />
    <sodipodi:guide
       position="377.79706,459.61942"
       orientation="0,1"
       id="guide5954" />
    <sodipodi:guide
       position="410.12194,125.25892"
       orientation="0,1"
       id="guide5956" />
    <sodipodi:guide
       position="454.56865,26.263967"
       orientation="0,1"
       id="guide5958" />
    <sodipodi:guide
       position="251.52799,248.49753"
       orientation="1,0"
       id="guide5977" />
  </sodipodi:namedview>
  <metadata
     id="metadata5368">
    <rdf:RDF>
      <cc:Work
         rdf:about="">
        <dc:format>image/svg+xml</dc:format>
        <dc:type
           rdf:resource="http://purl.org/dc/dcmitype/StillImage" />
        <dc:title />
      </cc:Work>
    </rdf:RDF>
  </metadata>
  <g
     inkscape:label="Ebene 1"
     inkscape:groupmode="layer"
     id="layer1"
     transform="translate(782.11424,23.969541)">
    <g
       id="g9735"
       transform="matrix(1.0853125,0,0,1.0853125,76.198117,-41.6351)">
      <g
         transform="translate(0,15.631376)"
         id="g5979">
        <g
           id="g5972"
           transform="matrix(17.777334,0,0,17.777334,311.56258,-11133.031)">
          <g
             id="g5968">
            <path
               style="color:#000000;font-style:normal;font-variant:normal;font-weight:normal;font-stretch:normal;font-size:medium;line-height:normal;font-family:sans-serif;text-indent:0;text-align:start;text-decoration:none;text-decoration-line:none;text-decoration-style:solid;text-decoration-color:#000000;letter-spacing:normal;word-spacing:normal;text-transform:none;direction:ltr;block-progression:tb;writing-mode:lr-tb;baseline-shift:baseline;text-anchor:start;white-space:normal;clip-rule:nonzero;display:inline;overflow:visible;visibility:visible;opacity:1;isolation:auto;mix-blend-mode:normal;color-interpolation:sRGB;color-interpolation-filters:linearRGB;solid-color:#000000;solid-opacity:1;fill:#ffffff;fill-opacity:1;fill-rule:nonzero;stroke:none;stroke-width:1;stroke-linecap:round;stroke-linejoin:bevel;stroke-miterlimit:4;stroke-dasharray:none;stroke-dashoffset:0;stroke-opacity:1;color-rendering:auto;image-rendering:auto;shape-rendering:auto;text-rendering:auto;enable-background:accumulate"
               d="m -48.136807,626.28494 c -0.75159,0.0228 -0.98525,0.4601 -1.66992,0.12694 -0.94269,-0.0639 -1.14939,1.43418 -1.95707,0.6057 -1.01122,0.0666 -0.44349,1.77214 -1.43749,1.02744 -0.85347,0.0254 0.0174,1.60002 -0.80318,0.79938 -1.03174,-0.13201 -0.81182,0.97728 -1.63013,1.14647 -0.28263,0.9427 -1.09942,1.53888 -1.2982,2.54154 -0.26035,0.46491 -0.46125,0.96023 -0.37643,1.50383 0.008,1.33276 -0.0655,2.69329 0.36962,3.97561 -1.45771,-0.22148 -1.76092,1.59578 -1.5299,2.65154 0.32734,1.51538 0.92828,3.10868 2.15023,4.12608 1.11148,0.0546 1.08642,1.55891 1.26577,2.61568 0.34408,0.92519 -0.19756,2.01522 -0.78074,2.60559 -0.76319,0.43137 -1.00181,1.22417 -2.00147,1.42849 -0.76762,0.17225 -0.86919,0.66651 -0.52711,1.2787 0.25453,0.2076 0.78988,0.0293 1.15221,0.0887 5.4061,-7e-5 10.81221,-1.4e-4 16.21831,-2.1e-4 0.2824,-0.63981 0.29688,-1.10602 -0.28093,-1.57846 -0.6088,-0.82969 -1.26354,-1.56306 -0.77225,-2.68724 0.61687,-1.1905 1.26292,-2.38892 1.42119,-3.74278 0.82052,-0.91099 1.37509,-2.04696 1.52338,-3.28538 0.16254,-1.22609 0.35202,-2.58234 -0.239,-3.71982 -0.38079,-0.53972 -1.21283,-0.17947 -0.77435,-1.04144 0.10287,-1.63761 0.38495,-3.58999 -0.89587,-4.87542 -0.56749,-0.61157 -0.21433,-1.4913 -1.11886,-1.8351 -0.25016,-0.40529 -0.42415,-0.48041 -0.48241,-1.01172 -0.79958,-0.24088 -1.30691,-1.10166 -2.27924,-0.79886 -0.48934,0.18669 -0.38597,-0.70216 -0.86523,-0.72061 -0.47549,-0.72904 -1.66136,-0.64924 -2.38093,-1.22465 z m 6.52734,24.41987 c 0.0324,0.0675 0.016,0.36441 0,0 z"
               id="path4401"
               inkscape:connector-curvature="0" />
            <path
               inkscape:connector-curvature="0"
               id="path4482"
               d="m -48.240647,626.71749 c -0.28852,-0.0609 -0.88397,0.3529 -1.03309,0.85062 -0.11057,0.36904 -0.15984,0.40367 -0.32603,0.23748 -0.0811,-0.0812 -0.16478,-0.078 -0.35689,0.0121 -0.61037,0.2863 -0.83661,0.28178 -1.11627,-0.0255 -0.4082,-0.4485 -0.29207,0.395 0.14624,1.06395 0.0838,0.12786 0.21791,0.2308 0.29919,0.22942 0.12425,-0.002 0.11936,-0.0243 -0.0295,-0.13685 -0.17513,-0.13241 -0.17418,-0.13708 0.0201,-0.33139 0.18675,-0.18677 0.20563,-0.18806 0.36897,-0.0402 0.16319,0.14773 0.20741,0.14272 0.88416,-0.0792 0.42049,-0.1379 0.86174,-0.22135 1.07468,-0.20527 0.34027,0.0257 0.36619,0.009 0.46154,-0.28444 0.10962,-0.33693 0.28023,-0.44084 0.73658,-0.45081 0.45019,-0.01 0.36124,-0.22851 -0.17979,-0.43872 -0.55798,-0.21679 -0.70043,-0.13024 -0.70304,0.42666 -0.003,0.8131 -0.60412,0.61932 -0.77817,-0.2509 -0.0571,-0.28575 -0.0525,-0.28943 0.1865,-0.19857 0.39006,0.1483 0.50312,0.11598 0.50312,-0.1449 0,-0.14018 -0.0621,-0.21315 -0.15831,-0.23345 z m -1.48256,0.13014 c -0.24149,0.041 -0.65466,0.22288 -0.75133,0.36091 -0.18065,0.2579 -0.10913,0.31194 0.17039,0.1288 0.30552,-0.20017 0.43784,-0.18906 0.36762,0.0322 -0.0399,0.12564 -0.0158,0.18112 0.0778,0.18112 0.1307,0 0.39273,-0.60009 0.30187,-0.69096 -0.0245,-0.0245 -0.0859,-0.0258 -0.16636,-0.0121 z m 0.69097,0.57692 c 0.0243,-0.004 0.0545,0.007 0.0899,0.0362 0.0746,0.0619 0.13551,0.14817 0.13551,0.19186 0,0.0936 -0.1248,0.10462 -0.21065,0.0188 -0.10155,-0.10159 -0.0876,-0.23581 -0.0148,-0.24687 z m 2.68066,0.0255 c -0.0564,-0.0119 -0.11493,0.0438 -0.14758,0.19589 -0.0368,0.17127 -0.14364,0.47187 -0.23748,0.66815 -0.19003,0.39749 -0.15794,0.47115 0.23614,0.52728 0.14922,0.0212 0.29306,0.0444 0.31932,0.0523 0.12199,0.0346 0.43472,-0.27724 0.48703,-0.48569 0.0716,-0.2852 -0.0143,-0.46335 -0.15564,-0.322 -0.2044,0.2044 -0.4236,0.1146 -0.37164,-0.15161 0.0503,-0.25765 -0.0362,-0.46448 -0.13015,-0.48435 z m -5.41231,0.0107 c -0.12965,0 -0.29684,0.41745 -0.35689,0.89221 -0.086,0.68051 -0.35314,0.8007 -0.77817,0.35018 -0.26368,-0.27946 -0.2752,-0.28206 -0.21735,-0.0671 0.0334,0.12435 0.0849,0.3151 0.11404,0.42396 0.0614,0.22964 -0.53331,0.57188 -1.61269,0.9271 -0.66661,0.21937 -0.79995,0.32312 -0.5246,0.41055 0.15678,0.0498 0.10547,0.12707 -0.39982,0.59974 -0.34217,0.32009 -0.5745,0.60982 -0.56753,0.7084 0.007,0.0918 -0.14808,0.50769 -0.34481,0.92307 l -0.35823,0.75537 0.003,1.53756 c 0.002,1.29882 0.0343,1.66673 0.21065,2.37341 0.22279,0.89287 0.2411,0.92307 0.43336,0.6789 0.11155,-0.14172 0.1223,-0.12511 0.10063,0.15832 l -0.0241,0.31529 -0.68694,-0.0309 c -0.78657,-0.0358 -0.97651,0.0992 -1.17665,0.83452 -0.42501,1.56161 1.22109,5.21107 2.35061,5.21107 0.48112,0 0.99833,1.53507 1.06127,3.15025 0.0256,0.65643 0.0712,0.89818 0.2093,1.09212 0.45729,0.64222 2.62414,2.53423 4.0371,3.54471 l 0.5729,0 c -0.39919,-0.23385 -0.97305,-0.65438 -1.24374,-0.9432 l -0.21198,-0.22674 1.00223,0.21198 c 0.95592,0.20244 2.09033,0.67744 2.09033,0.87478 0,0.0741 -0.43317,0.0344 -0.8372,-0.0765 -0.23104,-0.0634 -0.13297,0.0202 0.10062,0.15966 l 1.20214,0 c -0.0552,-0.0324 -0.11873,-0.0768 -0.20527,-0.15698 -0.39841,-0.36918 -0.44018,-0.38913 -1.97495,-0.90026 -1.31167,-0.43684 -2.09092,-0.93494 -2.79873,-1.79114 -0.37831,-0.45765 -0.43284,-0.27569 -0.0617,0.20662 0.49104,0.63814 0.47093,0.67397 -0.13283,0.23077 -0.62536,-0.45905 -1.20868,-1.13933 -1.33363,-1.55634 -0.13194,-0.44053 -0.14237,-0.95739 -0.0174,-0.88014 0.14508,0.0897 0.10986,-0.088 -0.22406,-1.11359 -0.17322,-0.53203 -0.37811,-1.19987 -0.45482,-1.48524 -0.11475,-0.427 -0.17931,-0.52799 -0.3636,-0.56619 -0.12314,-0.0255 -0.32874,-0.0683 -0.45751,-0.0952 -0.35271,-0.0738 -0.80308,-0.62341 -1.2813,-1.56574 l -0.42934,-0.8466 -0.0148,-1.52682 c -0.017,-1.70458 -0.007,-1.72666 0.63596,-1.39132 0.14247,0.0742 0.32981,0.13417 0.41592,0.13417 0.23331,0 0.4047,0.24107 0.72584,1.01833 0.34131,0.82603 0.42268,0.86458 0.47227,0.2254 0.036,-0.4642 -0.004,-0.6778 -0.0845,-0.45215 -0.12457,0.34883 -0.35692,-0.25007 -0.483,-1.24372 -0.041,-0.32331 -0.19496,-0.8526 -0.34213,-1.17665 -1.07629,-2.37017 -0.19094,-5.82093 1.79517,-6.99416 0.36488,-0.21554 0.34172,-0.10234 -0.10197,0.48569 -1.49783,1.98456 -1.50129,7.78168 -0.005,8.37473 0.69894,0.27712 0.71654,0.31002 0.13685,0.2576 -0.75913,-0.0686 -0.80198,0.0887 -0.0577,0.21199 0.71514,0.1185 0.83534,0.22035 0.94051,0.7983 0.14137,0.7767 0.80881,1.05413 2.56931,1.06663 1.67417,0.0119 2.2909,-0.27598 2.71019,-1.26252 0.47251,-1.1118 1.1077,-1.08669 1.61403,0.0631 0.66218,1.50366 4.50743,1.15353 4.80588,-0.43738 0.13309,-0.70937 0.60336,-0.95601 0.66279,-0.3475 0.0689,0.70539 0.28585,0.58616 0.28846,-0.15832 0.001,-0.36014 -0.0256,-0.42933 -0.16771,-0.42933 -0.0932,0 -0.33266,-0.0569 -0.53264,-0.12746 l -0.3636,-0.1288 -0.0349,0.68023 c -0.0557,1.10387 -0.7193,1.53127 -2.53174,1.63148 -1.45053,0.0802 -2.36786,-0.68118 -2.10106,-1.74419 0.11378,-0.45333 1.53176,-0.85077 3.06304,-0.85867 0.86627,-0.005 1.04146,-0.0262 0.86136,-0.10465 -0.3154,-0.1375 -2.11287,-0.12681 -2.71287,0.0161 -0.52492,0.12503 -0.93184,0.31896 -1.43828,0.68559 -0.26803,0.19402 -0.40377,0.22138 -1.0626,0.22138 -0.61112,0 -0.75537,0.0271 -0.75537,0.13685 0,0.18015 -0.0483,0.17104 -0.36493,-0.0631 -0.29334,-0.21688 -0.34179,-0.34481 -0.13149,-0.34481 0.25309,0 0.13728,-0.152 -0.24686,-0.32469 -0.63511,-0.2855 -2.01901,-0.23425 -3.36224,0.12612 -1.82547,0.48974 -2.19411,0.37287 -2.11046,-0.66949 0.0428,-0.53348 0.0345,-0.56733 -0.11807,-0.48569 -0.12639,0.0676 -0.17581,0.0506 -0.21198,-0.0711 -0.97791,-3.29179 0.33385,-7.155 2.81752,-8.30094 0.74623,-0.3443 0.8399,-0.47898 0.57289,-0.81843 -0.14828,-0.18856 -0.17689,-0.31497 -0.13282,-0.59034 0.0326,-0.20407 0.02,-0.35017 -0.0309,-0.35017 z m 4.57645,0.55947 c -0.12459,-0.007 -0.28481,0.0938 -0.33274,0.23749 -0.0452,0.13517 0.39962,0.14293 0.48301,0.008 0.0334,-0.0541 0.0138,-0.14458 -0.0429,-0.20125 -0.0284,-0.0284 -0.0658,-0.0421 -0.10734,-0.0443 z m 2.6914,0.56083 c -0.0159,-0.0102 -0.0874,0.0144 -0.23077,0.0644 -0.15952,0.0556 -0.41409,0.0771 -0.56484,0.047 -0.45499,-0.091 -0.27066,0.12549 0.59168,0.69632 1.03747,0.68681 1.86578,1.53245 2.21108,2.25536 0.14833,0.31054 0.52511,1.09353 0.8372,1.74016 0.31209,0.64662 0.56067,1.2362 0.55277,1.31081 -0.008,0.0746 0.0286,0.47465 0.0818,0.88819 0.10717,0.83287 0.0602,1.01633 -0.14221,0.55009 l -0.13417,-0.30725 -0.003,0.40653 c -0.002,0.22383 0.0375,0.75065 0.0859,1.17128 0.0714,0.62126 0.0633,0.80191 -0.0416,0.96199 -0.0715,0.10838 -0.10242,0.22356 -0.0698,0.25626 0.40256,0.40255 0.61156,-0.23975 0.73524,-2.25536 0.17313,-2.82164 0.0408,-3.37152 -1.09213,-4.53218 -0.72513,-0.74294 -0.77218,-0.84544 -0.3059,-0.66816 0.27642,0.10511 0.28947,0.0352 0.051,-0.26967 -0.0972,-0.12435 -0.17762,-0.27211 -0.17844,-0.32871 -0.001,-0.0566 -0.14523,-0.12965 -0.31932,-0.16234 -0.28192,-0.0529 -0.45582,-0.23211 -0.2254,-0.23211 0.27882,0 0.0187,-0.17903 -0.41324,-0.28444 -0.567,-0.13839 -0.63832,-0.25969 -0.23345,-0.39714 0.49889,-0.16929 0.42943,-0.24467 -0.19052,-0.20661 -0.68041,0.0417 -0.68967,0.0353 -0.41324,-0.25895 0.26664,-0.28382 0.1852,-0.32438 -0.33541,-0.1677 -0.50754,0.15274 -0.59004,0.12184 -0.35957,-0.13283 0.0813,-0.0898 0.12187,-0.13472 0.10599,-0.1449 z m -9.61847,0.69766 c -0.045,0 -0.12911,0.027 -0.25358,0.0805 -0.17436,0.075 -0.17359,0.0783 0.0174,0.0845 0.10898,0.004 0.22286,-0.0347 0.25358,-0.0845 0.0331,-0.0535 0.0275,-0.0805 -0.0174,-0.0805 z m 12.76202,3.69767 c 0.0763,0 0.20283,0.12513 0.28175,0.27772 0.19711,0.38117 0.1193,0.53816 -0.10599,0.21333 -0.30579,-0.4408 -0.3238,-0.49105 -0.17576,-0.49105 z m 1.27459,4.84881 c -0.0684,0.004 -0.14265,0.0283 -0.22272,0.0778 -0.12069,0.0743 -0.12294,0.38136 -0.004,0.45482 0.0497,0.0308 0.0899,-0.007 0.0899,-0.0845 0,-0.55773 0.25583,-0.0335 0.34749,0.71243 0.28033,2.28109 -0.0489,3.98719 -0.90831,4.70928 -0.45101,0.37894 -0.51155,0.50262 -0.70572,1.44632 -0.14352,0.6975 -0.3165,1.14791 -0.86941,2.25671 l -0.69096,1.38594 0.10197,0.71109 c 0.10359,0.71789 -0.006,1.7304 -0.21601,2.75446 l 0.5474,0 c 0.13905,-0.95105 0.18262,-1.83494 0.0416,-2.36001 -0.26301,-0.97921 -0.25156,-1.03566 0.48837,-2.45929 0.57354,-1.1035 0.70495,-1.43996 0.81976,-2.09838 0.16166,-0.92699 0.18735,-0.98348 0.70707,-1.5067 1.22161,-1.22987 1.49932,-6.05405 0.47361,-5.99997 z m -4.46241,0.83989 c -0.2104,0.003 -0.38869,0.0431 -0.50582,0.1288 -0.21243,0.15534 -0.12149,0.63521 0.15832,0.83318 0.23816,0.16851 0.57753,0.10422 0.82916,-0.15698 0.18088,-0.1877 0.18088,-0.18741 0,-0.11941 -0.38992,0.14672 -0.50312,0.15499 -0.63327,0.047 -0.69116,-0.57361 0.33456,-0.65079 1.39131,-0.10465 0.27929,0.14436 0.60955,0.29255 0.7339,0.33006 l 0.22674,0.0684 -0.22003,-0.23882 c -0.4283,-0.46361 -1.34914,-0.79534 -1.98031,-0.78756 z m -6.60239,0.12343 c 0.12142,0.021 0.0856,0.12471 -0.12746,0.22272 -0.27011,0.12427 -1.37216,1.10847 -1.40876,1.25849 -0.0371,0.15216 0.46371,-0.009 0.62254,-0.19991 0.0587,-0.0708 0.183,-0.1288 0.27639,-0.1288 0.10747,0 0.17039,-0.0638 0.17039,-0.17442 0,-0.30119 0.53749,-0.62179 0.69096,-0.41189 0.1743,0.23832 0.15323,0.36356 -0.0805,0.47629 -0.19106,0.0922 -0.18496,0.0971 0.0966,0.10331 0.16493,0.003 0.37874,-0.0357 0.47495,-0.0872 0.20991,-0.11235 0.24554,-0.47102 0.0389,-0.39176 -0.23609,0.0906 -0.15682,-0.31066 0.0939,-0.47496 0.32296,-0.21161 0.80168,-0.0546 1.25984,0.41458 0.22756,0.23304 0.43899,0.36624 0.58631,0.36762 l 0.23077,0.003 -0.20394,0.1704 c -0.12948,0.10799 -0.20393,0.2699 -0.20393,0.44543 0,0.36888 -0.25871,0.59199 -0.89356,0.77012 -0.57222,0.16057 -2.46441,0.19134 -2.95705,0.0483 -1.17616,-0.3415 -0.83378,-2.13905 0.43739,-2.29561 0.26059,-0.0321 0.58637,-0.0798 0.72316,-0.10599 0.0749,-0.0143 0.1326,-0.0164 0.17308,-0.009 z m 6.51518,0.2737 c -0.0342,-0.0115 -0.0627,-0.0124 -0.0792,0.004 -0.0308,0.0308 -0.004,0.11734 0.059,0.1932 0.12572,0.15146 0.27236,0.1836 0.27236,0.059 0,-0.0867 -0.14974,-0.22167 -0.25224,-0.25627 z m -5.2057,0.0416 0.19051,0.322 c 0.12632,0.21401 0.15585,0.33401 0.0872,0.35688 -0.0656,0.0218 -0.0302,0.12857 0.0966,0.2898 0.1101,0.13995 0.19991,0.30908 0.19991,0.37701 0,0.15241 0.10964,0.16004 0.25358,0.0161 0.23065,-0.23066 -0.15529,-1.00288 -0.6279,-1.25582 l -0.19991,-0.10598 z m 4.34434,0.23479 c -0.0472,-0.0473 -0.42397,0.28888 -0.42397,0.37835 0,0.0718 0.34307,-0.12347 0.4119,-0.23479 0.0327,-0.0528 0.0378,-0.1178 0.0121,-0.14356 z m -10.6529,0.96332 c -0.0951,0 -0.10562,0.48503 -0.0201,0.91234 0.051,0.25488 0.0703,0.27302 0.1288,0.12343 0.14376,-0.36747 0.0737,-1.03577 -0.10868,-1.03577 z m -0.76476,0.53265 c -0.0719,-0.0185 -0.12634,0.13914 -0.12746,0.44544 -0.002,0.40457 0.1242,0.61762 0.66682,1.12431 0.81486,0.76091 0.93537,0.51445 0.19722,-0.40249 -0.26825,-0.33324 -0.53683,-0.75529 -0.59704,-0.93784 -0.0477,-0.14465 -0.0964,-0.21834 -0.13954,-0.22942 z m 16.44358,0.39713 c -0.0821,-0.0289 -0.11405,0.1036 -0.11405,0.48301 0,0.36378 0.0295,0.49373 0.0953,0.42799 0.14009,-0.14008 0.15504,-0.86291 0.0188,-0.911 z m -7.76025,0.44678 c -0.0249,0.0249 -0.0188,0.11331 0.0134,0.19722 0.0322,0.084 0.0798,0.13214 0.10465,0.10734 0.0249,-0.0249 0.0188,-0.11341 -0.0134,-0.19723 -0.0322,-0.084 -0.0798,-0.13227 -0.10465,-0.10733 z m -0.9915,1.43291 c -0.0594,-0.0173 -0.15142,0.0532 -0.25894,0.21735 -0.26148,0.39907 -0.12653,0.71362 0.44141,1.02772 0.25902,0.14323 0.35763,0.12892 0.54472,-0.0778 0.23402,-0.25853 0.0391,-0.46543 -0.2187,-0.23211 -0.24103,0.21813 -0.49992,-0.14561 -0.44409,-0.62388 0.0221,-0.18903 -0.005,-0.29393 -0.0644,-0.31127 z m 2.96108,0.8144 c -0.0997,0.01 -0.12917,0.0727 -0.0671,0.17307 0.0447,0.0724 0.10222,0.0682 0.20393,-0.0161 0.12768,-0.1058 0.12653,-0.12131 -0.0148,-0.14892 -0.0483,-0.009 -0.0889,-0.0113 -0.12209,-0.008 z m -0.9593,0.97405 c -0.0149,-0.002 -0.0245,0.0108 -0.0309,0.0376 -0.0504,0.21084 0.13387,0.75506 0.31798,0.93917 0.24788,0.24786 0.23198,-0.0172 -0.0335,-0.57692 -0.12481,-0.26307 -0.20875,-0.39522 -0.25358,-0.39982 z m 3.28576,1.14177 c -0.22722,0.008 -0.59619,0.0884 -1.19141,0.21467 -1.16344,0.24678 -1.48623,0.27804 -3.25758,0.30724 -1.95156,0.0322 -2.26209,0.0834 -2.09973,0.34615 0.15833,0.25618 3.69368,-0.023 5.18424,-0.40921 0.31486,-0.0815 0.74202,-0.13586 0.94856,-0.12075 l 0.37567,0.0268 0.13014,0.5152 c 0.16872,0.66645 0.27639,0.58566 0.27639,-0.20662 0,-0.50252 0.0124,-0.68765 -0.36628,-0.67352 z m -3.02011,1.67978 c -0.20936,-0.008 -0.41531,0.0184 -0.45617,0.0845 -0.0519,0.0839 0.0898,0.13512 0.58631,0.21333 0.12436,0.0195 0.2501,0.0412 0.27907,0.0483 0.12008,0.028 0.16478,-0.11523 0.0711,-0.22809 -0.0578,-0.0696 -0.27096,-0.11055 -0.48032,-0.11806 z m -0.50581,0.44946 c -0.12343,0 -0.1083,0.30359 0.0215,0.43336 0.13441,0.13436 0.25357,0.14003 0.25357,0.0121 0,-0.15464 -0.17992,-0.44543 -0.27504,-0.44543 z m -7.16857,0.66681 c -0.0156,-0.0333 -0.0875,0.1441 -0.26565,0.60107 -0.41141,1.05517 -0.61104,1.37371 -0.97674,1.55098 -0.1719,0.0833 -0.80115,0.3842 -1.39803,0.66949 -0.51652,0.24688 -0.80612,0.39806 -1.072,0.59034 l 0.5407,0 c 0.62731,-0.40418 1.24829,-0.73255 1.47047,-0.73255 0.0367,0 0.16533,0.32705 0.30456,0.73255 l 0.24821,0 c -0.14459,-0.41496 -0.048,-0.72403 0.27505,-1.05322 0.39422,-0.4017 0.74633,-1.2633 0.85196,-2.08496 0.0203,-0.15759 0.0308,-0.25372 0.0215,-0.2737 z m 7.70524,0.8694 c -0.0952,0 -0.10137,0.14534 -0.0228,0.53802 0.0357,0.1782 0.0887,0.25607 0.14088,0.20393 0.10003,-0.10003 -0.002,-0.74195 -0.11807,-0.74195 z m -8.87921,0.75134 c -0.02,-0.005 -0.0545,0.017 -0.11002,0.0631 -0.0747,0.0619 -0.13551,0.12749 -0.13551,0.14624 0,0.0188 0.0609,0.0349 0.13551,0.0349 0.0747,0 0.13551,-0.0656 0.13551,-0.14625 0,-0.0601 -0.005,-0.0929 -0.0255,-0.0979 z m 13.7079,0.33543 c 0.19941,0.65687 0.24999,0.96133 0.161,1.45571 l 0.93515,0 c -0.4267,-0.26941 -0.53242,-0.50242 -0.8144,-1.01028 -0.17771,-0.32007 -0.3044,-0.52006 -0.28175,-0.44543 z m -2.2889,0.0107 c -0.0459,-0.0119 -0.15728,0.0185 -0.33139,0.10599 -0.14016,0.0704 -0.74345,0.26218 -1.34034,0.42665 -0.59688,0.16449 -1.12406,0.33263 -1.17128,0.37433 -0.44967,0.39666 1.81224,-0.11116 2.52772,-0.56753 0.28753,-0.18342 0.3918,-0.31967 0.31529,-0.33944 z m -2.96913,1.35777 c -0.043,-0.0258 -0.0861,0.005 -0.12075,0.0872 l 0.18918,0 c -0.021,-0.0433 -0.0449,-0.0731 -0.0684,-0.0872 z"
               style="display:inline;fill:#000000;stroke:none;stroke-width:2;stroke-linecap:round;stroke-linejoin:bevel;stroke-miterlimit:4;stroke-dasharray:none;stroke-opacity:1" />
          </g>
        </g>
      </g>
    </g>
  </g>
</svg>
