<?xml version="1.0" encoding="UTF-8" standalone="no"?>
<!-- Created with Inkscape (http://www.inkscape.org/) -->

<svg
   xmlns:dc="http://purl.org/dc/elements/1.1/"
   xmlns:cc="http://creativecommons.org/ns#"
   xmlns:rdf="http://www.w3.org/1999/02/22-rdf-syntax-ns#"
   xmlns:svg="http://www.w3.org/2000/svg"
   xmlns="http://www.w3.org/2000/svg"
   xmlns:sodipodi="http://sodipodi.sourceforge.net/DTD/sodipodi-0.dtd"
   xmlns:inkscape="http://www.inkscape.org/namespaces/inkscape"
   width="512"
   height="512"
   viewBox="0 0 512.00001 512.00001"
   id="svg5363"
   version="1.1"
   inkscape:version="0.91 r13725"
   sodipodi:docname="kelly.svg">
  <defs
     id="defs5365" />
  <sodipodi:namedview
     id="base"
     pagecolor="#47a0f2"
     bordercolor="#666666"
     borderopacity="1.0"
     inkscape:pageopacity="0"
     inkscape:pageshadow="2"
     inkscape:zoom="0.49497475"
     inkscape:cx="344.52534"
     inkscape:cy="47.199351"
     inkscape:document-units="px"
     inkscape:current-layer="layer1"
     showgrid="false"
     units="px"
     fit-margin-top="6"
     fit-margin-left="6"
     fit-margin-right="6"
     fit-margin-bottom="6"
     inkscape:window-width="1920"
     inkscape:window-height="1135"
     inkscape:window-x="0"
     inkscape:window-y="0"
     inkscape:window-maximized="1"
     showguides="true"
     inkscape:guide-bbox="true">
    <sodipodi:guide
       position="254.55845,226.27418"
       orientation="1,0"
       id="guide5465" />
  </sodipodi:namedview>
  <metadata
     id="metadata5368">
    <rdf:RDF>
      <cc:Work
         rdf:about="">
        <dc:format>image/svg+xml</dc:format>
        <dc:type
           rdf:resource="http://purl.org/dc/dcmitype/StillImage" />
        <dc:title />
      </cc:Work>
    </rdf:RDF>
  </metadata>
  <g
     inkscape:label="Ebene 1"
     inkscape:groupmode="layer"
     id="layer1"
     transform="translate(782.11424,23.969541)">
    <g
       id="g9726"
       transform="matrix(1.0339966,0,0,1.0339966,21.920234,-16.591371)">
      <g
         transform="translate(-846.50785,-10.019531)"
         id="g5461">
        <path
           style="color:#000000;font-style:normal;font-variant:normal;font-weight:normal;font-stretch:normal;font-size:medium;line-height:normal;font-family:sans-serif;text-indent:0;text-align:start;text-decoration:none;text-decoration-line:none;text-decoration-style:solid;text-decoration-color:#000000;letter-spacing:normal;word-spacing:normal;text-transform:none;direction:ltr;block-progression:tb;writing-mode:lr-tb;baseline-shift:baseline;text-anchor:start;white-space:normal;clip-rule:nonzero;display:inline;overflow:visible;visibility:visible;opacity:1;isolation:auto;mix-blend-mode:normal;color-interpolation:sRGB;color-interpolation-filters:linearRGB;solid-color:#000000;solid-opacity:1;fill:#ffffff;fill-opacity:1;fill-rule:nonzero;stroke:none;stroke-width:16;stroke-linecap:butt;stroke-linejoin:miter;stroke-miterlimit:4;stroke-dasharray:none;stroke-dashoffset:0;stroke-opacity:1;color-rendering:auto;image-rendering:auto;shape-rendering:auto;text-rendering:auto;enable-background:accumulate"
           d="m 312.37206,2.885928 c -42.18128,0.09404 -90.56625,3.6983885 -120.84329,36.986644 -15.00227,23.359903 -24.63503,49.779469 -38.18598,74.036798 2.69288,37.35572 8.23542,74.65128 8.16698,112.09078 -3.21003,8.35112 -14.72889,14.66191 -16.66672,22.34145 9.47901,13.00337 18.39289,26.48773 29.33181,38.34511 -9.23672,18.00004 3.68147,39.92471 5.97097,59.14466 5.01276,31.74087 26.79662,56.5183 38.46457,85.51354 9.27634,27.57365 -27.66917,35.50138 -46.06615,43.69159 -14.71276,0.9707 -23.8924,11.8952 -14.87473,23.01349 134.7616,0 269.52319,-10e-6 404.28478,-10e-6 4.91094,-12.39906 1.56245,-19.9793 -12.87355,-21.17878 -37.29323,-9.49129 -62.03105,-41.63721 -82.94485,-71.69817 -9.9727,-18.26811 -31.11464,-27.36119 -22.88645,-50.62999 3.02777,-14.46282 -9.02403,-39.30541 12.98166,-33.1432 16.23309,-4.00352 18.32931,-33.2467 25.02467,-36.15279 -0.26051,-16.70956 8.73127,-32.82856 7.08275,-50.00862 6.67685,-20.83481 -20.85347,-32.68727 -28.57229,-36.65183 1.53349,-33.16602 -3.36346,-66.77093 -11.60419,-98.916297 C 444.28643,72.580676 419.95787,60.318478 400.15952,46.384138 388.94097,24.354789 368.05207,7.1345579 342.79701,4.9775975 332.53236,3.5758644 322.54638,2.8404892 312.37206,2.885928 Z"
           id="path5454"
           inkscape:connector-curvature="0" />
        <path
           style="fill:#000000"
           d="m 1094.4727,34.855469 c -4.61,-0.0073 -9.4959,0.0828 -14.6817,0.259765 -42.0177,1.433847 -64.7563,7.273914 -87.04295,22.353516 -11.87016,8.031625 -15.3114,12.407673 -23.19532,29.503906 -5.0915,11.040788 -13.00625,27.372214 -17.58984,36.291014 l -8.33398,16.21485 3.58398,40.52343 c 6.75695,76.41088 6.90198,71.5858 -2.50586,82.30078 l -8.29883,9.45118 8.74805,12.17773 c 22.06396,30.70966 35.31733,40.65184 54.35742,40.7793 21.46783,0.14366 33.85643,-11.47821 41.55083,-38.97852 8.1899,-29.27149 21.3222,-27.41108 25.0878,3.55469 1.2258,10.07955 3.0019,22.48383 3.9473,27.56445 2.5049,13.46067 -5.3655,22.53053 -21.7988,25.11914 l -12.586,1.98242 7.918,3.48438 c 13.1585,5.78998 44.0695,4.67829 57.9883,-2.08398 14.4573,-7.0239 15.3068,-12.66651 3.9766,-26.41211 l -7.9688,-9.66797 11.2676,-1.48242 c 23.8283,-3.1332 71.4073,-6.61649 73.416,-5.375 1.1585,0.71594 4.2567,7.52184 6.8867,15.125 4.1754,12.0706 4.8941,12.90471 5.6563,6.57226 1.1386,-9.46146 -6.7522,-48.22204 -12.2227,-60.04297 l -4.2734,-9.23633 -0.8614,13.73243 c -0.7207,11.49613 -2.1624,14.82786 -8.8476,20.45312 -9.311,7.83475 -13.7658,8.6235 -11.8731,2.10156 0.7372,-2.54009 2.7228,-9.95698 4.4122,-16.48047 1.6893,-6.52344 5.2875,-16.20457 7.996,-21.51367 3.8123,-7.47263 4.1964,-10.24309 1.7032,-12.26367 -6.7707,-5.48717 -30.4059,-11.64556 -49.4043,-12.87305 l -19.793,-1.27734 -19.498,13.40039 c -10.7243,7.37049 -21.7384,13.40039 -24.4766,13.40039 -2.7382,0 -11.7367,-2.37439 -19.9961,-5.27734 -19.4372,-6.83161 -54.39404,-7.26882 -67.85937,-0.84766 -5.11117,2.43737 -9.86377,3.86084 -10.5625,3.16211 -0.69875,-0.69873 -2.06393,-25.55487 -3.03321,-55.23437 l -1.76171,-53.96289 7.88086,-14.51368 c 5.28682,-9.73721 9.53199,-14.51562 12.89648,-14.51562 3.62787,0 4.84143,1.64417 4.38672,5.93945 -0.43973,4.15321 0.77006,5.9375 4.0293,5.9375 7.00177,0 16.39063,-7.55523 16.39063,-13.18945 0,-8.40199 4.6816,-8.42775 9.6289,-0.0527 5.0583,8.56305 8.5854,9.80723 13.5957,4.79688 5.925,-5.92494 3.1873,-10.07647 -11.3477,-17.205079 -7.9831,-3.915286 -14.51558,-8.057929 -14.51558,-9.207031 0,-1.149104 4.15618,-2.089844 9.23628,-2.089844 5.0802,0 9.2364,-1.164052 9.2364,-2.58789 0,-4.534743 -13.6705,-6.217534 -23.02737,-2.833985 -4.96973,1.797062 -9.5675,2.735216 -10.21875,2.083985 -2.52453,-2.524531 2.17673,-9.282487 8.44531,-12.138672 11.48471,-5.232782 22.76361,-3.417222 38.78911,6.246094 17.5246,10.567322 18.789,10.947978 15.3867,4.613281 -1.3643,-2.54009 -9.11,-8.775309 -17.2129,-13.855469 -8.1029,-5.080156 -14.7467,-10.281212 -14.7656,-11.558594 -0.052,-3.620239 21.4878,-0.303069 32.7578,5.044922 11.0226,5.230582 39.6019,30.451988 44.1621,38.972652 2.6116,4.87985 2.1773,4.81952 -5.6992,-0.78906 l -8.5254,-6.072264 1.9511,6.333984 1.9512,6.33399 -6.9258,-6.39844 c -6.4287,-5.939012 -6.948,-6.032496 -7.2382,-1.318362 -0.172,2.793082 -0.092,6.678242 0.1757,8.634762 0.2683,1.95655 -1.6035,5.86657 -4.1582,8.68946 -4.5492,5.02687 -4.4037,5.09927 7.0821,3.50195 23.4212,-3.25713 39.3786,-6.92082 40.9062,-9.39258 4.5004,-7.28184 -3.2469,-20.686637 -24.9004,-43.082029 l -22.7519,-23.53125 20.5312,11.107421 c 18.0788,9.780296 20.994,10.640767 24.416,7.21875 3.4221,-3.422036 3.0184,-4.49273 -3.3769,-8.970703 -3.9944,-2.796839 -10.8253,-6.348738 -15.1797,-7.892578 l -7.916,-2.80664 8.9863,-0.207032 c 11.6878,-0.270936 21.522,7.371815 39.8359,30.964844 7.9831,10.284312 16.006,19.319083 17.8282,20.076172 5.3246,2.212425 -5.6282,-16.688063 -18.9922,-32.773437 -6.6307,-7.98089 -10.9598,-14.876035 -9.6211,-15.322266 4.0508,-1.350282 32.7806,14.323121 39.5332,21.566406 3.4743,3.726774 9.0521,16.01812 12.3945,27.314453 5.7647,19.482589 6.0848,19.961409 6.2188,9.322269 0.164,-13.013973 2.0954,-13.787985 10.8965,-4.367191 3.5188,3.766601 9.7573,8.594761 13.8632,10.730471 9.9857,5.19408 13.7049,15.18219 18.5137,49.71679 7.9209,56.8839 7.9543,58.29744 1.6328,69.54493 -4.6103,8.203 -5.1708,11.31033 -2.8261,15.6914 1.608,3.00458 2.9238,7.91572 2.9238,10.91407 0,7.32915 1.1868,6.9977 14.7988,-4.15625 6.4499,-5.2852 12.1297,-9.14604 12.6231,-8.57813 0.4933,0.56792 1.6672,10.53274 2.6074,22.14453 l 1.709,21.11328 -7.8809,-9.23633 c -4.3343,-5.08017 -7.9122,-11.55243 -7.9512,-14.38281 -0.054,-3.95017 -0.7945,-4.42426 -3.1816,-2.03711 -3.5715,3.57149 -10.7483,62.25474 -8.7051,71.17969 2.3162,10.11749 13.3695,7.85974 19.3828,-3.95898 8.7075,-17.11407 16.9659,-48.82526 17.2403,-66.20313 0.2416,-15.30115 -0.3807,-17.27658 -7.3223,-23.24805 -4.1724,-3.58927 -9.3297,-5.85689 -11.4609,-5.03906 -2.1313,0.81784 -6.8464,2.23146 -10.4766,3.14258 l -6.5996,1.6582 4.5449,-8.79101 c 3.7449,-7.2419 4.2427,-12.81189 2.8223,-31.62891 -2.9204,-38.68436 -9.2684,-71.35311 -16.8789,-86.87109 -6.2213,-12.68507 -9.2295,-15.654494 -22.9864,-22.687502 -11.2069,-5.729385 -17.434,-10.946896 -21.3281,-17.871094 -14.8969,-26.48843 -33.689,-35.601202 -78.2519,-35.671875 z m -51.2051,9.033203 c 1.9911,0.07147 6.4816,2.251361 13.7754,7.046875 16.4222,10.797362 36.1819,30.326576 41.9297,41.441406 4.9548,9.581567 4.0966,13.186877 -1.5235,6.402344 -2.0212,-2.439933 -13.4966,-12.643329 -25.5019,-22.673828 -22.5277,-18.822012 -33.768,-32.399455 -28.6797,-32.216797 z m 64.5312,32.501953 c -4.55,-0.313206 -2.2906,4.027461 6.7813,12.375 7.0882,6.522218 13.4586,11.287455 14.1562,10.589844 2.021,-2.021 -9.577,-19.333179 -14.1191,-21.076172 -3.0299,-1.162679 -5.3017,-1.78427 -6.8184,-1.888672 z m -81.5879,15.082031 c -0.5112,0.0021 -0.983,0.07859 -1.4043,0.240235 -3.8171,1.464775 -3.4389,2.55404 2.7266,7.857421 7.6009,6.537988 12.1406,7.853348 12.1406,3.517578 0,-4.67781 -8.5211,-11.635095 -13.4629,-11.615234 z m -44.75582,1.017578 c 2.427,0.0019 6.05845,1.569125 8.16992,4.113282 5.21634,6.285294 -0.71954,10.442414 -6.22461,4.359374 -2.43321,-2.688658 -4.42383,-5.683888 -4.42383,-6.658202 0,-1.252997 1.02232,-1.815575 2.47852,-1.814454 z m 154.33982,9.167966 c -0.4148,0.0926 -0.6992,1.57364 -0.6992,4.06836 0,3.62868 0.5999,5.11317 1.332,3.29883 0.7321,-1.81436 0.7321,-4.78332 0,-6.59766 -0.2287,-0.56698 -0.4442,-0.81161 -0.6328,-0.76953 z m 32.6231,43.6543 c -3.2695,0 -2.5388,2.38243 4.9472,16.13672 7.4744,13.73297 13.101,17.56126 8.666,5.89648 -3.8477,-10.12041 -11.2084,-22.0332 -13.6132,-22.0332 z m 8.0781,39.91797 c -0.528,0.0232 -0.9971,0.19438 -1.3516,0.54883 -0.7745,0.7745 -0.6247,2.67461 0.3321,4.22265 2.15,3.47885 6.707,3.70272 6.707,0.33008 0,-2.52986 -3.3993,-5.202 -5.6875,-5.10156 z m 16.9824,26.5918 c -0.5109,-0.1453 -0.6032,1.11134 -0.6465,3.66406 -0.051,3.03365 2.3462,14.90757 5.3282,26.38867 3.4984,13.46988 5.8912,33.04584 6.746,55.18359 0.7287,18.86916 2.5189,39.57813 3.9786,46.02149 1.8556,8.19161 1.7168,18.58374 -0.4649,34.54883 -2.4582,17.98791 -2.4259,24.12992 0.1543,28.95117 3.1469,5.8799 3.3885,5.92289 6.1797,1.08008 3.0218,-5.24277 3.3406,-27.84927 1.4922,-105.8711 -0.9017,-38.0611 -1.7748,-45.96215 -5.3984,-48.82226 -2.3779,-1.87678 -5.7137,-9.35006 -7.4122,-16.60742 -1.6984,-7.25738 -4.7578,-16.16428 -6.7988,-19.79297 -1.7175,-3.05343 -2.6472,-4.59884 -3.1582,-4.74414 z m -69.2832,23.19726 c 20.4154,0.0378 36.6392,14.30704 32.8379,37.96289 -2.3421,14.57492 -7.7456,22.43554 -18.5156,26.93555 -4.9207,2.056 -14.7374,3.73828 -21.8164,3.73828 -15.2945,0 -22.4739,-5.96879 -21.1446,-17.58008 0.8259,-7.21383 1.5398,-7.56402 19.3301,-9.44336 25.6643,-2.71117 29.7956,-3.95669 33.0059,-9.95508 6.1727,-11.53388 -4.813,-18.85319 -33.3496,-22.2207 l -13.5391,-1.59765 -6.2031,22.48046 c -3.4117,12.36445 -6.9712,22.48243 -7.9102,22.48243 -3.5989,0 -7.948,-7.834 -9.4336,-16.98829 -1.3924,-8.58059 -0.4983,-10.54085 8.8848,-19.46679 11.846,-11.26879 25.6043,-16.37035 37.8535,-16.34766 z m -124.28124,12.87891 c 8.01194,0.13632 15.69184,1.40325 20.44144,3.85937 20.4563,10.57839 19.4454,44.51121 -1.793,60.16797 -20.99938,15.48062 -50.77513,1.45602 -58.49805,-27.55469 -4.04565,-15.19723 -0.59246,-23.68911 12.81836,-31.52148 5.87925,-3.43367 16.73021,-5.12645 27.03125,-4.95117 z m 111.14254,6.66992 c 1.1048,-0.003 1.8828,0.56716 2.5704,1.67969 1.3688,2.21492 6.0452,2.84044 14.2988,1.91015 14.5317,-1.63792 15.0826,2.21198 1.3183,9.20703 -9.0021,4.57492 -26.3689,6.2464 -29.7519,2.86329 -3.5334,-3.53329 -1.6,-8.29467 5.1699,-12.73047 3.0115,-1.97322 4.9741,-2.92596 6.3945,-2.92969 z m -107.4824,3.07031 c -7.78677,0.0574 -16.2694,1.58314 -20.57225,4.8086 -4.77863,3.58207 -6.65307,16.38585 -2.27734,15.55468 1.68714,-0.32045 4.334,3.05317 5.88281,7.4961 1.62643,4.66552 4.2333,7.57906 6.16992,6.89648 3.24813,-1.14479 3.2716,-3.02193 0.23438,-18.38281 -1.20486,-6.09362 -0.26314,-7.65258 6.07031,-10.06055 5.27327,-2.00469 7.77217,-2.01743 8.42967,-0.0449 1.1604,3.48108 10.1845,3.6991 12.2871,0.29687 2.6481,-4.28459 -6.213,-6.63825 -16.2246,-6.56445 z m 70.0371,30.02539 c 2.7542,0.11005 13.1853,13.39422 18.9883,24.46289 6.2127,11.85005 6.6169,22.06327 0.959,24.23438 -11.2096,4.30153 -14.9579,-0.81691 -18.5,-25.25977 -1.7505,-12.07877 -2.6017,-22.55354 -1.8926,-23.27929 0.1117,-0.11434 0.2617,-0.16554 0.4453,-0.15821 z m 164.4239,11.05274 c 1.2706,-0.0858 2.8847,1.25685 5.0625,3.88086 2.9488,3.55313 2.6869,5.71624 -1.6563,13.67773 -5.4044,9.90686 -14.0951,15.75536 -10.8516,7.30273 0.9602,-2.50216 2.4884,-9.19598 3.3965,-14.875 1.0688,-6.68404 2.1918,-9.86088 4.0489,-9.98632 z m -276.79106,18.17773 c -0.4298,0.0648 -0.68288,1.00566 -0.70117,2.96485 -0.0756,8.09571 10.27447,54.49294 15.31445,68.65429 2.76116,7.75843 11.09898,24.05987 18.5293,36.22461 26.91168,44.05898 21.57298,59.32659 -27.28516,78.02344 -7.48087,2.86275 -17.92861,6.98079 -28.61718,11.25781 l 23.62695,0 c 19.86723,-8.70536 35.77643,-16.22593 39.78127,-19.26172 10.0203,-7.59575 11.3334,-7.79465 11.5762,-1.75 0.1641,4.08734 0.412,4.04073 2.1542,-0.40039 1.6861,-4.298 2.9722,-3.30448 8.9629,6.91797 1.5872,2.70834 6.0556,7.97849 12.0293,14.49414 l 12.5645,0 c -14.7682,-16.12911 -24.4715,-30.2727 -28.416,-41.58789 -1.5461,-4.43514 -2.1124,-8.76265 -1.2578,-9.61719 0.8545,-0.85455 9.2136,5.61285 18.5761,14.3711 19.7723,18.49594 31.5684,23.25162 65.5899,26.44531 24.1743,2.26928 29.4839,0.47294 13.8535,-4.68555 -9.271,-3.05973 -11.5132,-6.19835 -6.5977,-9.23633 4.1872,-2.58783 3.0623,-7.33322 -1.3183,-5.56054 -2.1772,0.88105 -5.7408,2.32205 -7.918,3.20312 -2.7642,1.11854 -3.959,-0.0555 -3.959,-3.89258 0,-4.8082 -0.8444,-5.17388 -6.7676,-2.92187 -12.2878,4.6718 -24.6529,3.11115 -31.1836,-3.93555 -4.3869,-4.73361 -6.8245,-5.7165 -8.9355,-3.60547 -2.111,2.11105 -4.3888,0.46634 -8.3477,-6.02734 -2.994,-4.91108 -5.4481,-9.84078 -5.4531,-10.95703 -0.01,-1.11627 -3.0574,-1.26471 -6.7812,-0.33008 l -6.7696,1.69922 4.1309,-9.88867 c 5.2589,-12.58628 5.488,-11.88281 -3.8496,-11.88281 -5.8922,0 -8.5844,-1.58379 -10.2813,-6.04688 -1.2643,-3.32547 -4.1796,-7.6054 -6.4765,-9.51172 -8.70025,-7.22055 -32.65964,-56.93489 -37.0176,-76.80859 -3.42872,-15.63599 -7.22087,-26.57918 -8.75586,-26.34766 z m 209.28906,3.92188 c -0.3553,0.10647 -0.85,1.01555 -1.5449,2.63281 -1.2475,2.90294 -2.3343,8.84088 -2.4141,13.19531 -0.1108,6.04628 0.4604,6.98019 2.4141,3.95703 1.407,-2.1772 2.4917,-8.11516 2.4121,-13.19531 -0.074,-4.71703 -0.275,-6.7673 -0.8672,-6.58984 z m -152.7031,15.36718 c -1.8754,-0.0407 -4.0636,3.51397 -5.709,9.69727 l -1.7559,6.59766 5.4043,-6.2129 c 2.9719,-3.41701 4.6826,-7.37987 3.8008,-8.80664 -0.5242,-0.84816 -1.1151,-1.26182 -1.7402,-1.27539 z m 134.2207,15.82422 c -0.5209,-0.0105 -1.089,0.19281 -1.7188,0.58203 -3.1798,1.9652 -3.1302,9.64818 0.1172,18.18946 4.252,11.18363 8.9108,8.3527 6.9043,-4.19532 -1.6726,-10.45998 -3.0454,-14.53068 -5.3027,-14.57617 z m 47.0703,1.90821 c -1.6015,-0.15298 -4.2782,3.05517 -7.1699,9.11914 -3.7182,7.79712 -3.8093,9.23632 -0.5821,9.23632 4.2021,0 9.2871,-7.85271 9.2871,-14.34179 0,-2.62097 -0.5742,-3.92189 -1.5351,-4.01367 z m -81.0664,0.10937 c -0.1875,-0.0192 -0.3293,0.0129 -0.416,0.0996 -0.6938,0.69372 0.1143,5.7411 1.7949,11.2168 2.398,7.81341 2.3406,10.39858 -0.2695,12.01172 -1.8293,1.13054 -23.1351,3.49007 -47.3457,5.24414 -57.8301,4.18983 -58.5352,4.34187 -58.5352,12.60156 0,5.99482 0.739,6.47485 7.2578,4.7207 18.2776,-4.9183 30.8578,-6.51175 64.7539,-8.19726 l 36.3848,-1.8086 -1.7539,10.97071 c -2.4133,15.09196 2.2221,14.05237 9.1504,-2.05274 8.0048,-18.60769 7.3785,-29.15178 -2.2852,-38.41015 -3.7969,-3.63762 -7.4241,-6.26201 -8.7363,-6.39649 z m -74.084,7.90625 c -2.2949,0.0442 -6.4497,2.5825 -12.3125,7.59375 l -9.1367,7.80859 7.916,0.0664 c 9.7993,0.0827 13.2313,-2.12418 15.1582,-9.74805 0.975,-3.85789 0.3999,-5.75971 -1.625,-5.7207 z m 16.8164,1.10352 c -2.1772,0 -4.3389,2.67167 -4.8027,5.9375 -0.6491,4.57001 0.458,5.9375 4.8027,5.9375 4.3448,0 5.4498,-1.36749 4.8008,-5.9375 -0.4638,-3.26583 -2.6236,-5.9375 -4.8008,-5.9375 z m 104.6016,17.88476 c -0.3792,0.0845 -0.9236,0.73627 -1.6797,1.90625 -1.407,2.17721 -2.4918,7.52251 -2.4121,11.87695 0.1245,6.79743 0.4648,7.17028 2.4121,2.63868 1.2474,-2.90295 2.3342,-8.24632 2.414,-11.875 0.072,-3.24992 -0.1023,-4.68776 -0.7343,-4.54688 z m -56.3985,21.69922 -5.8984,5.27344 c -6.1235,5.47254 -13.2754,17.48989 -13.2754,22.30664 0,1.52354 0.5337,2.76953 1.1856,2.76953 2.396,0 14.0954,-17.35563 16.0117,-23.75195 z m 46.3614,4.34375 c -1.8692,0.0776 -2.0275,2.92189 0.4707,7.58984 2.277,4.25469 3.8768,5.00796 6.039,2.84571 2.1623,-2.16227 1.7639,-4.11694 -1.5019,-7.38282 -2.1499,-2.14985 -3.8864,-3.09927 -5.0078,-3.05273 z m 67.0761,2.33594 c -1.9985,-0.049 -3.2988,3.40329 -3.2988,8.75781 0,4.86118 -0.7683,17.92427 -1.707,29.0293 -2.0361,24.0864 1.6819,26.8773 10.1933,7.65429 l 5.5508,-12.53515 4.6934,10.55664 c 4.2769,9.61866 4.8521,10.03302 6.4726,4.66601 1.6015,-5.30386 2.7515,-4.38482 11.5645,9.23633 11.0773,17.12095 20.8441,25.34679 43.9394,37.00391 4.3093,2.17506 12.9903,5.85609 24.1446,10.35156 l 20.0879,0 c -14.8562,-5.34727 -27.4244,-9.96761 -35.211,-13.00195 -18.6257,-7.25821 -45.4338,-34.14219 -67.2969,-67.48828 -8.7088,-13.28298 -17.3184,-24.18597 -19.1328,-24.23047 z M 1069.2871,420.125 c -0.389,0.15228 -0.467,1.53961 -0.5039,4.26758 -0.044,3.2658 2.4355,8.45309 5.5098,11.52734 6.5741,6.57413 10.1385,3.3258 10.205,-9.29883 0.039,-7.37857 -0.15,-7.49458 -5,-3.10547 -4.781,4.3268 -5.1814,4.31467 -7.8359,-0.25 -1.2854,-2.21029 -1.986,-3.2929 -2.375,-3.14062 z m 69.8809,0.58984 c -2.5554,0.17613 -4.4883,2.29479 -4.4883,5.8125 0,4.19217 4.7085,4.92112 10.0215,1.55078 2.7453,-1.74149 2.6368,-2.82428 -0.545,-5.46484 -1.698,-1.40923 -3.455,-2.00411 -4.9882,-1.89844 z m -4.7071,23.13672 c -0.9168,-0.0377 -1.9615,0.1286 -2.914,0.50977 -2.1053,0.84246 -1.4806,1.46705 1.5937,1.59375 2.782,0.1146 4.3398,-0.50782 3.4629,-1.38477 -0.4384,-0.43838 -1.2258,-0.68101 -2.1426,-0.71875 z m -43.8671,0.27149 c -0.5305,-0.0182 -0.6577,1.53595 -0.6973,4.90039 -0.044,3.74966 0.8098,7.71465 1.8984,8.8125 3.1704,3.19736 3.9233,-5.76628 0.918,-10.92969 -1.0503,-1.80449 -1.7066,-2.76902 -2.1191,-2.7832 z m 18.9414,1.62304 c -0.3762,0.12961 -0.6329,2.20269 -0.6329,5.69532 0,5.08015 0.5433,7.1592 1.2071,4.61914 0.6638,-2.54009 0.6638,-6.69625 0,-9.23633 -0.2075,-0.79378 -0.4033,-1.13704 -0.5742,-1.07813 z m 18.1894,19.80469 c -0.4,-0.0606 -0.6747,0.9047 -0.7539,2.82617 -0.1146,2.78197 0.5098,4.3398 1.3867,3.46289 0.8768,-0.87695 0.9713,-3.15354 0.209,-5.05859 -0.3159,-0.78947 -0.6018,-1.19413 -0.8418,-1.23047 z m 41.918,39.99219 -7.2735,6.59765 c -0.624,0.56592 -1.2532,1.2 -1.8828,1.87891 l 6.627,0 c 0.2021,-0.63695 0.4123,-1.28944 0.5859,-1.87891 z"
           transform="translate(-782.11424,-23.969541)"
           id="path4818"
           inkscape:connector-curvature="0"
           sodipodi:nodetypes="ssssccccccsssccccsccccsccccsccssccssssccccscssssssssscsscscsscccccccssssccsssccscsssssssssssscccccsssssccccssssssssssssssssscsssssssscssccsssssccssccsscscssccccsssssssscsscssssssssscsscsssscscscccscsssccscscsssssssccscssccscssssscsssssccccsccssscsscsccccscscssssssssccscssscccsscsccccsscsssssccssccssccssccscssccccssccsscscscccsssscscccccccssccsscccccsccccccc" />
      </g>
    </g>
  </g>
</svg>
