<?xml version="1.0" encoding="UTF-8" standalone="no"?>
<!-- Created with Inkscape (http://www.inkscape.org/) -->

<svg
   xmlns:dc="http://purl.org/dc/elements/1.1/"
   xmlns:cc="http://creativecommons.org/ns#"
   xmlns:rdf="http://www.w3.org/1999/02/22-rdf-syntax-ns#"
   xmlns:svg="http://www.w3.org/2000/svg"
   xmlns="http://www.w3.org/2000/svg"
   xmlns:sodipodi="http://sodipodi.sourceforge.net/DTD/sodipodi-0.dtd"
   xmlns:inkscape="http://www.inkscape.org/namespaces/inkscape"
   width="512"
   height="512"
   viewBox="0 0 512 512.00001"
   id="svg4333"
   version="1.1"
   inkscape:version="0.91 r13725"
   sodipodi:docname="ledership-on-all-levels.svg">
  <defs
     id="defs4335" />
  <sodipodi:namedview
     id="base"
     pagecolor="#47a0f2"
     bordercolor="#666666"
     borderopacity="1.0"
     inkscape:pageopacity="0"
     inkscape:pageshadow="2"
     inkscape:zoom="0.7"
     inkscape:cx="416.27814"
     inkscape:cy="187.27168"
     inkscape:document-units="px"
     inkscape:current-layer="layer1"
     showgrid="false"
     units="px"
     fit-margin-top="6"
     fit-margin-left="6"
     fit-margin-right="6"
     fit-margin-bottom="6"
     inkscape:window-width="1920"
     inkscape:window-height="1135"
     inkscape:window-x="0"
     inkscape:window-y="0"
     inkscape:window-maximized="1" />
  <metadata
     id="metadata4338">
    <rdf:RDF>
      <cc:Work
         rdf:about="">
        <dc:format>image/svg+xml</dc:format>
        <dc:type
           rdf:resource="http://purl.org/dc/dcmitype/StillImage" />
        <dc:title></dc:title>
      </cc:Work>
    </rdf:RDF>
  </metadata>
  <g
     inkscape:label="Ebene 1"
     inkscape:groupmode="layer"
     id="layer1"
     transform="translate(156.88637,-723.27648)">
    <path
       style="fill:#ffffff;fill-rule:evenodd;stroke:#000000;stroke-width:4;stroke-linecap:butt;stroke-linejoin:miter;stroke-opacity:1;stroke-miterlimit:4;stroke-dasharray:none"
       d="M 94.705357,793.21577 191.9539,757.772"
       id="path5171"
       inkscape:connector-curvature="0"
       sodipodi:nodetypes="cc" />
    <path
       style="fill:none;fill-rule:evenodd;stroke:#000000;stroke-width:4;stroke-linecap:butt;stroke-linejoin:miter;stroke-opacity:1;stroke-miterlimit:4;stroke-dasharray:none"
       d="M 117.09914,988.80505 0.65843908,863.12312 17.190327,752.45143 l 77.346862,40.43761 112.202821,70.23408 61.86084,75.5082 z"
       id="path5169"
       inkscape:connector-curvature="0"
       sodipodi:nodetypes="ccccccc" />
    <path
       style="fill:none;fill-rule:evenodd;stroke:#000000;stroke-width:4;stroke-linecap:butt;stroke-linejoin:miter;stroke-opacity:1;stroke-miterlimit:4;stroke-dasharray:none"
       d="M 265.88449,1023.9223 117.09914,986.03273 204.89175,1122.8045 54.360638,1144.9836 0.06104911,1205.435 -69.575626,1122.8045 -29.837925,1023.9223 117.09914,986.03273"
       id="path5173"
       inkscape:connector-curvature="0"
       sodipodi:nodetypes="cccccccc" />
    <path
       style="fill:none;fill-rule:evenodd;stroke:#000000;stroke-width:4;stroke-linecap:butt;stroke-linejoin:miter;stroke-opacity:1;stroke-miterlimit:4;stroke-dasharray:none"
       d="M 56.106416,1145.9076 -29.837925,1023.9223"
       id="path5175"
       inkscape:connector-curvature="0" />
    <ellipse
       cy="758.87085"
       cx="191.5269"
       id="circle4232"
       style="color:#000000;clip-rule:nonzero;display:inline;overflow:visible;visibility:visible;opacity:1;isolation:auto;mix-blend-mode:normal;color-interpolation:sRGB;color-interpolation-filters:linearRGB;solid-color:#000000;solid-opacity:1;fill:#ffffff;fill-opacity:1;fill-rule:nonzero;stroke:none;stroke-width:1;stroke-linecap:round;stroke-linejoin:round;stroke-miterlimit:4;stroke-dasharray:none;stroke-dashoffset:0;stroke-opacity:1;color-rendering:auto;image-rendering:auto;shape-rendering:auto;text-rendering:auto;enable-background:accumulate"
       rx="24.973392"
       ry="24.973694" />
    <ellipse
       ry="24.973694"
       rx="24.973392"
       style="color:#000000;clip-rule:nonzero;display:inline;overflow:visible;visibility:visible;opacity:1;isolation:auto;mix-blend-mode:normal;color-interpolation:sRGB;color-interpolation-filters:linearRGB;solid-color:#000000;solid-opacity:1;fill:#ffffff;fill-opacity:1;fill-rule:nonzero;stroke:none;stroke-width:1;stroke-linecap:round;stroke-linejoin:round;stroke-miterlimit:4;stroke-dasharray:none;stroke-dashoffset:0;stroke-opacity:1;color-rendering:auto;image-rendering:auto;shape-rendering:auto;text-rendering:auto;enable-background:accumulate"
       id="ellipse5147"
       cx="95.417114"
       cy="793.98785" />
    <ellipse
       cy="754.25024"
       cx="16.865845"
       id="ellipse5149"
       style="color:#000000;clip-rule:nonzero;display:inline;overflow:visible;visibility:visible;opacity:1;isolation:auto;mix-blend-mode:normal;color-interpolation:sRGB;color-interpolation-filters:linearRGB;solid-color:#000000;solid-opacity:1;fill:#ffffff;fill-opacity:1;fill-rule:nonzero;stroke:none;stroke-width:1;stroke-linecap:round;stroke-linejoin:round;stroke-miterlimit:4;stroke-dasharray:none;stroke-dashoffset:0;stroke-opacity:1;color-rendering:auto;image-rendering:auto;shape-rendering:auto;text-rendering:auto;enable-background:accumulate"
       rx="24.973392"
       ry="24.973694" />
    <ellipse
       ry="24.973694"
       rx="24.973392"
       style="color:#000000;clip-rule:nonzero;display:inline;overflow:visible;visibility:visible;opacity:1;isolation:auto;mix-blend-mode:normal;color-interpolation:sRGB;color-interpolation-filters:linearRGB;solid-color:#000000;solid-opacity:1;fill:#ffffff;fill-opacity:1;fill-rule:nonzero;stroke:none;stroke-width:1;stroke-linecap:round;stroke-linejoin:round;stroke-miterlimit:4;stroke-dasharray:none;stroke-dashoffset:0;stroke-opacity:1;color-rendering:auto;image-rendering:auto;shape-rendering:auto;text-rendering:auto;enable-background:accumulate"
       id="ellipse5151"
       cx="1.155591"
       cy="863.29791" />
    <ellipse
       cy="861.44965"
       cx="206.31302"
       id="ellipse5153"
       style="color:#000000;clip-rule:nonzero;display:inline;overflow:visible;visibility:visible;opacity:1;isolation:auto;mix-blend-mode:normal;color-interpolation:sRGB;color-interpolation-filters:linearRGB;solid-color:#000000;solid-opacity:1;fill:#ffffff;fill-opacity:1;fill-rule:nonzero;stroke:none;stroke-width:1;stroke-linecap:round;stroke-linejoin:round;stroke-miterlimit:4;stroke-dasharray:none;stroke-dashoffset:0;stroke-opacity:1;color-rendering:auto;image-rendering:auto;shape-rendering:auto;text-rendering:auto;enable-background:accumulate"
       rx="24.973392"
       ry="24.973694" />
    <ellipse
       ry="24.973694"
       rx="24.973392"
       style="color:#000000;clip-rule:nonzero;display:inline;overflow:visible;visibility:visible;opacity:1;isolation:auto;mix-blend-mode:normal;color-interpolation:sRGB;color-interpolation-filters:linearRGB;solid-color:#000000;solid-opacity:1;fill:#ffffff;fill-opacity:1;fill-rule:nonzero;stroke:none;stroke-width:1;stroke-linecap:round;stroke-linejoin:round;stroke-miterlimit:4;stroke-dasharray:none;stroke-dashoffset:0;stroke-opacity:1;color-rendering:auto;image-rendering:auto;shape-rendering:auto;text-rendering:auto;enable-background:accumulate"
       id="ellipse5155"
       cx="267.30576"
       cy="939.07678" />
    <ellipse
       cy="1025.021"
       cx="266.38162"
       id="ellipse5157"
       style="color:#000000;clip-rule:nonzero;display:inline;overflow:visible;visibility:visible;opacity:1;isolation:auto;mix-blend-mode:normal;color-interpolation:sRGB;color-interpolation-filters:linearRGB;solid-color:#000000;solid-opacity:1;fill:#ffffff;fill-opacity:1;fill-rule:nonzero;stroke:none;stroke-width:1;stroke-linecap:round;stroke-linejoin:round;stroke-miterlimit:4;stroke-dasharray:none;stroke-dashoffset:0;stroke-opacity:1;color-rendering:auto;image-rendering:auto;shape-rendering:auto;text-rendering:auto;enable-background:accumulate"
       rx="24.973392"
       ry="24.973694" />
    <ellipse
       ry="24.973694"
       rx="24.973392"
       style="color:#000000;clip-rule:nonzero;display:inline;overflow:visible;visibility:visible;opacity:1;isolation:auto;mix-blend-mode:normal;color-interpolation:sRGB;color-interpolation-filters:linearRGB;solid-color:#000000;solid-opacity:1;fill:#ffffff;fill-opacity:1;fill-rule:nonzero;stroke:none;stroke-width:1;stroke-linecap:round;stroke-linejoin:round;stroke-miterlimit:4;stroke-dasharray:none;stroke-dashoffset:0;stroke-opacity:1;color-rendering:auto;image-rendering:auto;shape-rendering:auto;text-rendering:auto;enable-background:accumulate"
       id="ellipse5159"
       cx="204.46475"
       cy="1122.9791" />
    <ellipse
       cy="1146.0825"
       cx="55.679401"
       id="ellipse5161"
       style="color:#000000;clip-rule:nonzero;display:inline;overflow:visible;visibility:visible;opacity:1;isolation:auto;mix-blend-mode:normal;color-interpolation:sRGB;color-interpolation-filters:linearRGB;solid-color:#000000;solid-opacity:1;fill:#ffffff;fill-opacity:1;fill-rule:nonzero;stroke:none;stroke-width:1;stroke-linecap:round;stroke-linejoin:round;stroke-miterlimit:4;stroke-dasharray:none;stroke-dashoffset:0;stroke-opacity:1;color-rendering:auto;image-rendering:auto;shape-rendering:auto;text-rendering:auto;enable-background:accumulate"
       rx="24.973392"
       ry="24.973694" />
    <ellipse
       ry="24.973694"
       rx="24.973392"
       style="color:#000000;clip-rule:nonzero;display:inline;overflow:visible;visibility:visible;opacity:1;isolation:auto;mix-blend-mode:normal;color-interpolation:sRGB;color-interpolation-filters:linearRGB;solid-color:#000000;solid-opacity:1;fill:#ffffff;fill-opacity:1;fill-rule:nonzero;stroke:none;stroke-width:1;stroke-linecap:round;stroke-linejoin:round;stroke-miterlimit:4;stroke-dasharray:none;stroke-dashoffset:0;stroke-opacity:1;color-rendering:auto;image-rendering:auto;shape-rendering:auto;text-rendering:auto;enable-background:accumulate"
       id="ellipse5163"
       cx="0.23144962"
       cy="1204.3029" />
    <ellipse
       cy="1123.9033"
       cx="-69.078499"
       id="ellipse5165"
       style="color:#000000;clip-rule:nonzero;display:inline;overflow:visible;visibility:visible;opacity:1;isolation:auto;mix-blend-mode:normal;color-interpolation:sRGB;color-interpolation-filters:linearRGB;solid-color:#000000;solid-opacity:1;fill:#ffffff;fill-opacity:1;fill-rule:nonzero;stroke:none;stroke-width:1;stroke-linecap:round;stroke-linejoin:round;stroke-miterlimit:4;stroke-dasharray:none;stroke-dashoffset:0;stroke-opacity:1;color-rendering:auto;image-rendering:auto;shape-rendering:auto;text-rendering:auto;enable-background:accumulate"
       rx="24.973392"
       ry="24.973694" />
    <ellipse
       ry="24.973694"
       rx="24.973392"
       style="color:#000000;clip-rule:nonzero;display:inline;overflow:visible;visibility:visible;opacity:1;isolation:auto;mix-blend-mode:normal;color-interpolation:sRGB;color-interpolation-filters:linearRGB;solid-color:#000000;solid-opacity:1;fill:#ffffff;fill-opacity:1;fill-rule:nonzero;stroke:none;stroke-width:1;stroke-linecap:round;stroke-linejoin:round;stroke-miterlimit:4;stroke-dasharray:none;stroke-dashoffset:0;stroke-opacity:1;color-rendering:auto;image-rendering:auto;shape-rendering:auto;text-rendering:auto;enable-background:accumulate"
       id="ellipse5167"
       cx="-29.340796"
       cy="1025.9452" />
    <g
       id="g4274"
       transform="matrix(2.5875712,0,0,2.5875712,289.24826,-1636.4468)">
      <path
         id="path4250"
         d="m -31.886372,1014.7408 a 34.107143,34.107143 0 0 1 -34.107143,34.1071 34.107143,34.107143 0 0 1 -34.107145,-34.1071 34.107143,34.107143 0 0 1 34.107145,-34.10716 34.107143,34.107143 0 0 1 34.107143,34.10716 z"
         style="color:#000000;clip-rule:nonzero;display:inline;overflow:visible;visibility:visible;opacity:1;isolation:auto;mix-blend-mode:normal;color-interpolation:sRGB;color-interpolation-filters:linearRGB;solid-color:#000000;solid-opacity:1;fill:#70bf41;fill-opacity:1;fill-rule:nonzero;stroke:none;stroke-width:3.05073047;stroke-linecap:round;stroke-linejoin:round;stroke-miterlimit:4;stroke-dasharray:none;stroke-dashoffset:0;stroke-opacity:1;color-rendering:auto;image-rendering:auto;shape-rendering:auto;text-rendering:auto;enable-background:accumulate"
         inkscape:connector-curvature="0" />
      <g
         transform="translate(-0.498064,-0.18218)"
         id="text4252"
         style="font-style:normal;font-variant:normal;font-weight:100;font-stretch:normal;font-size:16.90961647px;line-height:125%;font-family:Agenda;-inkscape-font-specification:'Agenda, Thin';text-align:start;letter-spacing:0px;word-spacing:0px;writing-mode:lr-tb;text-anchor:start;fill:#ffffff;fill-opacity:1;stroke:none;stroke-width:1px;stroke-linecap:butt;stroke-linejoin:miter;stroke-opacity:1">
        <path
           inkscape:connector-curvature="0"
           id="path4258"
           style="font-style:normal;font-variant:normal;font-weight:100;font-stretch:normal;font-size:16.90961647px;line-height:125%;font-family:Agenda;-inkscape-font-specification:'Agenda, Thin';text-align:start;writing-mode:lr-tb;text-anchor:start;fill:#ffffff"
           d="m -89.073799,1010.036 c -0.558018,-0.3382 -1.403499,-0.6087 -2.384256,-0.6087 -2.485714,0 -4.295043,2.3335 -4.295043,5.4956 0,3.1621 1.792419,5.4956 4.295043,5.4956 0.963848,0 1.7586,-0.2198 2.19825,-0.5073 l 0.08455,-0.5411 c -0.591837,0.389 -1.33586,0.5919 -2.248979,0.5919 -2.181341,0 -3.821573,-2.1475 -3.821573,-5.0391 0,-2.8915 1.640232,-5.0391 3.821573,-5.0391 0.8793,0 1.74169,0.2875 2.21516,0.5919 l 0.135277,-0.4397 z" />
        <path
           inkscape:connector-curvature="0"
           id="path4260"
           style="font-style:normal;font-variant:normal;font-weight:100;font-stretch:normal;font-size:16.90961647px;line-height:125%;font-family:Agenda;-inkscape-font-specification:'Agenda, Thin';text-align:start;writing-mode:lr-tb;text-anchor:start;fill:#ffffff"
           d="m -81.264199,1017.3579 0,-7.8292 -0.507288,0 0,7.7954 c 0,1.7586 -1.065306,2.6717 -2.620991,2.6717 -1.555684,0 -2.6379,-0.9131 -2.6379,-2.6717 l 0,-7.7954 -0.490379,0 0,7.8292 c 0,1.9446 1.183673,3.0945 3.128279,3.0945 1.944606,0 3.128279,-1.1499 3.128279,-3.0945 z" />
        <path
           inkscape:connector-curvature="0"
           id="path4262"
           style="font-style:normal;font-variant:normal;font-weight:100;font-stretch:normal;font-size:16.90961647px;line-height:125%;font-family:Agenda;-inkscape-font-specification:'Agenda, Thin';text-align:start;writing-mode:lr-tb;text-anchor:start;fill:#ffffff"
           d="m -74.647783,1017.7975 c 0,-1.488 -0.760933,-2.3335 -2.367347,-3.4664 -1.268221,-0.8962 -1.775509,-1.6741 -1.775509,-2.6379 0,-0.9639 0.625655,-1.8094 1.876967,-1.8094 0.608746,0 1.234402,0.2368 1.572594,0.5242 l 0.152187,-0.4396 c -0.372012,-0.2706 -1.014577,-0.5242 -1.741691,-0.5242 -1.589503,0 -2.350436,1.0484 -2.350436,2.2828 0,1.2006 0.591836,2.0461 2.130611,3.1283 1.386589,0.9807 2.012245,1.7586 2.012245,2.9761 0,1.3696 -0.946939,2.1137 -2.130612,2.1137 -1.031486,0 -1.7586,-0.389 -2.350437,-0.9132 l 0.101458,0.6257 c 0.490379,0.3889 1.217493,0.744 2.248979,0.744 1.471137,0 2.620991,-0.93 2.620991,-2.6041 z" />
        <path
           inkscape:connector-curvature="0"
           id="path4264"
           style="font-style:normal;font-variant:normal;font-weight:100;font-stretch:normal;font-size:16.90961647px;line-height:125%;font-family:Agenda;-inkscape-font-specification:'Agenda, Thin';text-align:start;writing-mode:lr-tb;text-anchor:start;fill:#ffffff"
           d="m -67.570051,1009.9684 0,-0.4397 -6.62857,0 0,0.4397 3.060641,0 0,10.3487 0.490379,0 0,-10.3487 3.07755,0 z" />
        <path
           inkscape:connector-curvature="0"
           id="path4266"
           style="font-style:normal;font-variant:normal;font-weight:100;font-stretch:normal;font-size:16.90961647px;line-height:125%;font-family:Agenda;-inkscape-font-specification:'Agenda, Thin';text-align:start;writing-mode:lr-tb;text-anchor:start;fill:#ffffff"
           d="m -59.025939,1014.9229 c 0,-3.1621 -1.77551,-5.5294 -4.244314,-5.5294 -2.468804,0 -4.278133,2.3673 -4.278133,5.5294 0,3.1621 1.809329,5.5295 4.278133,5.5295 2.468804,0 4.244314,-2.3674 4.244314,-5.5295 z m -0.490379,0 c 0,2.9085 -1.623323,5.0729 -3.753935,5.0729 -2.147521,0 -3.770844,-2.1644 -3.770844,-5.0729 0,-2.9084 1.623323,-5.0729 3.770844,-5.0729 2.130612,0 3.753935,2.1645 3.753935,5.0729 z" />
        <path
           inkscape:connector-curvature="0"
           id="path4268"
           style="font-style:normal;font-variant:normal;font-weight:100;font-stretch:normal;font-size:16.90961647px;line-height:125%;font-family:Agenda;-inkscape-font-specification:'Agenda, Thin';text-align:start;writing-mode:lr-tb;text-anchor:start;fill:#ffffff"
           d="m -48.522159,1020.3171 -0.659475,-10.7884 -0.43965,0 -2.367346,6.7132 c -0.388922,1.0822 -0.777843,2.2997 -1.116035,3.3819 l -0.03382,0 c -0.355102,-1.0991 -0.744023,-2.3505 -1.099125,-3.365 l -2.367347,-6.7301 -0.43965,0 -0.642565,10.7884 0.456559,0 0.388922,-6.6117 c 0.06764,-1.0315 0.118367,-2.1813 0.135277,-3.2974 l 0.03382,0 c 0.338192,1.0484 0.760933,2.4181 1.082215,3.3481 l 2.316618,6.5779 0.270554,0 2.316617,-6.5779 c 0.372012,-1.0314 0.794752,-2.2658 1.116035,-3.3481 l 0.03382,0 c 0.01691,1.133 0.06764,2.1814 0.135277,3.2974 l 0.388921,6.6117 0.490379,0 z" />
        <path
           inkscape:connector-curvature="0"
           id="path4270"
           style="font-style:normal;font-variant:normal;font-weight:100;font-stretch:normal;font-size:16.90961647px;line-height:125%;font-family:Agenda;-inkscape-font-specification:'Agenda, Thin';text-align:start;writing-mode:lr-tb;text-anchor:start;fill:#ffffff"
           d="m -42.064271,1020.3171 0,-0.4397 -4.244314,0 0,-4.7685 3.077551,0 0,-0.4565 -3.077551,0 0,-4.684 3.787754,0 0,-0.4397 -4.278132,0 0,10.7884 4.734692,0 z" />
        <path
           inkscape:connector-curvature="0"
           id="path4272"
           style="font-style:normal;font-variant:normal;font-weight:100;font-stretch:normal;font-size:16.90961647px;line-height:125%;font-family:Agenda;-inkscape-font-specification:'Agenda, Thin';text-align:start;writing-mode:lr-tb;text-anchor:start;fill:#ffffff"
           d="m -35.237806,1020.3171 -3.026822,-5.3096 c 1.132945,-0.2537 1.876968,-1.3021 1.876968,-2.6887 0,-1.5726 -0.997667,-2.7901 -2.485714,-2.7901 l -2.079883,0 0,10.7884 0.490379,0 0,-5.2082 1.674052,0 2.976093,5.2082 0.574927,0 z m -1.640233,-7.9983 c 0,1.3697 -0.845481,2.3336 -1.995335,2.3336 l -1.589504,0 0,-4.684 1.538775,0 c 1.183674,0 2.046064,0.9808 2.046064,2.3504 z" />
      </g>
    </g>
  </g>
</svg>
