<?xml version="1.0" encoding="UTF-8" standalone="no"?>
<!-- Created with Inkscape (http://www.inkscape.org/) -->

<svg
   xmlns:dc="http://purl.org/dc/elements/1.1/"
   xmlns:cc="http://creativecommons.org/ns#"
   xmlns:rdf="http://www.w3.org/1999/02/22-rdf-syntax-ns#"
   xmlns:svg="http://www.w3.org/2000/svg"
   xmlns="http://www.w3.org/2000/svg"
   xmlns:sodipodi="http://sodipodi.sourceforge.net/DTD/sodipodi-0.dtd"
   xmlns:inkscape="http://www.inkscape.org/namespaces/inkscape"
   id="svg4206"
   version="1.1"
   inkscape:version="0.91 r13725"
   width="1422.2271"
   height="512"
   viewBox="0 0 1422.2271 512"
   sodipodi:docname="THE_RH-WAY-white.svg"
   inkscape:export-filename="/home/m/RHDrive/Design/CI/Logos/RH/RH-Logo-vector.png"
   inkscape:export-xdpi="300"
   inkscape:export-ydpi="300">
  <metadata
     id="metadata4212">
    <rdf:RDF>
      <cc:Work
         rdf:about="">
        <dc:format>image/svg+xml</dc:format>
        <dc:type
           rdf:resource="http://purl.org/dc/dcmitype/StillImage" />
        <dc:title></dc:title>
      </cc:Work>
    </rdf:RDF>
  </metadata>
  <defs
     id="defs4210" />
  <sodipodi:namedview
     pagecolor="#ffffff"
     bordercolor="#666666"
     borderopacity="1"
     objecttolerance="10"
     gridtolerance="10"
     guidetolerance="10"
     inkscape:pageopacity="0"
     inkscape:pageshadow="2"
     inkscape:window-width="1920"
     inkscape:window-height="1135"
     id="namedview4208"
     showgrid="false"
     inkscape:snap-grids="false"
     inkscape:snap-to-guides="false"
     inkscape:zoom="0.62170984"
     inkscape:cx="603.87337"
     inkscape:cy="373.25534"
     inkscape:window-x="0"
     inkscape:window-y="0"
     inkscape:window-maximized="1"
     inkscape:current-layer="svg4206"
     showguides="true"
     inkscape:guide-bbox="true"
     fit-margin-top="6"
     fit-margin-left="6"
     fit-margin-right="6"
     fit-margin-bottom="6" />
  <path
     inkscape:connector-curvature="0"
     id="path4230"
     d="m 404.68031,391.81486 c -2.16093,-0.88728 -3.51981,-3.01983 -4.58269,-7.19193 -1.90785,-7.48897 -5.11544,-12.40496 -7.84218,-12.01908 -1.18267,0.16735 -1.66531,1.4952 -1.98658,5.46529 -0.46888,5.79427 -2.19899,11.11408 -3.99788,12.29276 -1.89625,1.24245 -4.42987,0.86237 -5.2859,-0.79303 -0.55614,-1.07547 -1.26198,-8.36645 -0.97379,-10.0589 0.11557,-0.6786 0.77737,-2.92564 1.47069,-4.99346 2.6252,-7.82974 2.26263,-14.34277 -1.24838,-22.42554 -0.69554,-1.60126 -2.08077,-4.23545 -3.07822,-5.85375 -0.99746,-1.61829 -3.1511,-5.09857 -4.78584,-7.73397 -4.42595,-7.13528 -7.57025,-12.69907 -11.71962,-20.73794 -5.26194,-10.19424 -6.71491,-11.75506 -16.77825,-18.02379 -2.78706,-1.73614 -7.21011,-4.58429 -9.829,-6.32925 -7.77173,-5.1783 -10.81426,-6.44732 -16.16937,-6.74414 -3.10347,-0.17202 -3.59647,-0.10243 -9.31744,1.31439 -10.29739,2.55023 -14.94034,3.32823 -34.48335,5.77823 -5.75393,0.72135 -12.44779,1.75597 -14.87523,2.29917 -5.62195,1.25805 -9.85523,1.95192 -11.93288,1.95591 -2.67813,0.005 -3.85008,0.50356 -5.6439,2.40025 -1.4469,1.52989 -3.42907,5.30192 -16.36224,31.13684 -9.33451,18.64634 -15.14716,29.89601 -15.89519,30.76318 -1.32102,1.5314 -4.6818,3.37335 -6.15501,3.37335 -1.19275,0 -2.6832,-1.49704 -2.98304,-2.9962 -0.32835,-1.64177 1.20657,-6.4278 3.54762,-11.06171 14.05351,-27.81782 19.40799,-37.97064 24.26993,-46.01903 3.88838,-6.43675 4.0982,-7.31965 2.17146,-9.13679 -1.96136,-1.84981 -14.63926,-7.49483 -20.04772,-8.92654 -2.10529,-0.55731 -5.05507,-2.1195 -6.54674,-3.46714 -1.71011,-1.54497 -3.07711,-4.32494 -2.78367,-5.66094 0.34139,-1.55433 1.56759,-2.30997 3.74844,-2.30997 2.14804,0 5.03262,0.46816 7.37183,1.19642 1.61931,0.50413 11.38993,4.92189 16.25742,7.35075 3.20118,1.59738 4.2484,1.63921 4.93276,0.19702 0.90945,-1.91652 1.31328,-6.54498 1.04817,-12.01347 -0.13512,-2.78706 -0.33913,-14.63003 -0.45338,-26.3177 -0.20697,-21.17385 -0.21036,-21.25571 -0.94333,-22.74307 -1.38417,-2.80877 -3.39882,-3.36338 -13.64922,-3.75741 -7.31791,-0.28131 -9.24402,0.03 -10.98155,1.77499 -0.97167,0.97585 -1.28146,1.63772 -1.74381,3.72575 -0.61576,2.78083 -1.8371,4.73988 -3.76492,6.03904 -1.34528,0.90659 -2.59954,0.93749 -4.23274,0.10429 -2.53092,-1.29119 -2.99947,-3.11576 -1.99952,-7.78616 0.95479,-4.45944 0.6632,-5.02263 -3.26825,-6.31237 -7.84344,-2.57311 -9.63011,-3.92391 -9.58004,-7.24292 0.0651,-4.31043 3.93433,-5.22016 11.41142,-2.683 1.8164,0.61636 3.89003,1.12064 4.60805,1.12064 2.10617,0 2.61976,-0.86716 4.83901,-8.17039 1.78001,-5.85775 2.32921,-7.0483 4.17519,-9.05094 1.63113,-1.76957 2.76216,-2.39435 4.33443,-2.39435 1.69889,0 2.91643,1.31549 3.40768,3.68184 0.56975,2.74443 0.0498,4.87623 -2.23905,9.18121 -1.06643,2.00575 -2.18915,4.41916 -2.49492,5.36316 -0.5126,1.58247 -0.51488,1.77903 -0.0292,2.52017 0.88099,1.34454 2.3396,1.53746 10.77469,1.42509 l 7.79339,-0.10386 c 1.3256,-0.009 1.73813,-0.94831 1.57694,-2.73556 -0.25132,-1.72737 -4.54616,-23.22808 -5.08362,-24.26741 -0.69329,-1.34066 -2.30719,-2.25441 -3.98447,-2.25588 -0.76536,-6.5e-4 -6.01604,1.31848 -11.73327,2.94782 -5.69139,1.62196 -12.12966,3.39331 -14.30728,3.93632 -11.77987,2.93745 -18.34837,6.46903 -27.66156,14.87238 -1.52839,1.37907 -5.33575,4.36684 -8.4608,6.6395 -3.12504,2.27267 -6.87654,5.29353 -8.33666,6.71303 -3.67674,3.57444 -5.36034,4.15427 -8.25096,2.84159 -3.54935,-1.61182 -3.22859,-4.87681 0.92141,-9.37904 0.76443,-0.8293 3.25026,-2.73072 5.52408,-4.22539 2.27382,-1.49466 5.29698,-3.79599 6.71813,-5.11409 1.42116,-1.3181 3.60524,-3.29671 4.85352,-4.39691 l 2.26961,-2.00037 -1.29711,-0.66072 c -2.15205,-1.09622 -4.67385,-1.70855 -9.14338,-2.22015 -7.0966,-0.8123 -9.71309,-1.45281 -13.01623,-3.18631 -2.2029,-1.15609 -3.16672,-2.22996 -3.16672,-3.52831 0,-1.63916 0.67458,-2.5486 2.58713,-3.48787 2.71893,-1.33528 6.41392,-1.2417 12.94196,0.32776 7.60578,1.82856 11.77909,2.56234 15.73774,2.76711 3.3769,0.17467 3.6661,0.1422 3.9814,-0.44696 0.39016,-0.72901 0.55059,-0.31882 -4.77482,-12.20845 -4.04318,-9.02689 -4.48971,-10.21522 -4.97132,-13.22997 -0.35575,-2.22694 -0.0533,-5.39456 0.63862,-6.68736 1.1734,-2.19251 4.19278,-1.52828 6.86795,1.51089 1.84486,2.09587 3.40418,5.48433 6.21363,13.50252 2.75013,7.84884 5.39239,13.61604 6.71479,14.65625 1.84287,1.44959 0.17455,1.8331 25.57846,-5.87982 3.10173,-0.94172 5.63951,-1.82751 5.63951,-1.96841 0,-0.40953 -2.26899,-1.45476 -4.74442,-2.18555 -1.2565,-0.37095 -4.4913,-0.9821 -7.18846,-1.35811 -8.68164,-1.21032 -12.76464,-2.33666 -15.76463,-4.34886 -2.00762,-1.34657 -2.42786,-2.4534 -1.55235,-4.08853 0.46918,-0.87626 1.17531,-1.46791 2.60521,-2.18286 1.80365,-0.90183 2.22476,-0.97868 5.23085,-0.95468 2.91649,0.0233 4.2571,0.27451 12.42327,2.32794 12.38715,3.11485 14.85511,3.57467 16.51562,3.07717 2.11375,-0.6333 2.73905,-2.73878 1.95278,-6.57546 -0.16583,-0.80915 -0.45554,-4.66295 -0.64381,-8.56401 -0.49989,-10.35814 -1.39434,-14.48199 -3.43047,-15.81612 -0.47806,-0.31324 -3.98587,-1.27328 -7.79513,-2.13342 -16.96223,-3.8301 -20.19167,-4.76351 -22.13323,-6.39724 -1.27366,-1.0717 -1.55619,-2.64453 -0.76415,-4.25398 0.91385,-1.85698 2.2483,-2.45941 5.86721,-2.6487 4.11213,-0.21509 7.02946,0.30237 13.6175,2.4154 3.02301,0.9696 6.09047,1.7629 6.81657,1.7629 1.21781,0 1.30275,-0.0571 1.09518,-0.73559 -0.62889,-2.0559 -2.01398,-5.03619 -4.05811,-8.73182 -2.55011,-4.61042 -4.91856,-10.23598 -4.90775,-11.65692 0.0254,-3.332387 3.5948,-6.215962 6.09441,-4.92337 1.18515,0.612876 3.39827,2.981313 4.692,5.02132 0.83031,1.30925 3.36731,7.42201 5.39282,12.99372 0.67966,1.86953 2.2548,3.68005 3.42928,3.94171 1.549,0.3451 2.67932,-0.78511 4.74467,-4.74418 3.64614,-6.98932 4.72661,-8.27162 8.80827,-10.45363 2.02808,-1.08419 2.1876,-1.11835 3.03907,-0.65082 1.35341,0.74314 2.45295,3.1094 2.23494,4.80967 -0.23253,1.81346 -1.85648,5.35418 -3.40589,7.4259 -2.69287,3.60064 -3.02672,4.12343 -2.83313,4.43665 0.30818,0.49866 2.89997,0.3862 4.6461,-0.20159 0.86039,-0.28962 4.18314,-1.68879 7.38388,-3.10926 6.7967,-3.01632 9.47717,-3.84028 13.36565,-4.10854 l 2.8388,-0.19584 1.00261,1.00262 c 0.87766,0.87766 1.00261,1.22843 1.00261,2.81449 0,1.56683 -0.13951,1.97078 -1.03155,2.98676 -1.21778,1.38697 -2.38848,2.0206 -6.24383,3.37944 -1.57402,0.55479 -5.89953,2.19894 -9.61223,3.6537 -3.71272,1.45475 -8.84472,3.35888 -11.40445,4.2314 -2.55973,0.8725 -5.14875,1.83677 -5.75339,2.14279 -4.62711,2.342 -5.27157,4.69799 -3.7338,13.64986 0.93939,5.46841 1.591,13.37456 1.28959,15.64672 -0.17094,1.28855 -0.0971,1.73115 0.37575,2.25369 0.81683,0.90258 1.37916,0.65038 5.0328,-2.25718 10.59517,-8.43165 19.07543,-17.12023 27.48547,-28.16074 2.19049,-2.87563 4.37375,-5.50381 4.8517,-5.84043 2.88384,-2.03105 6.24115,-2.85017 7.71741,-1.88289 1.27627,0.83625 1.92138,2.3667 1.6947,4.02052 -0.25511,1.86129 -1.10224,3.44308 -3.09726,5.78334 -1.54168,1.80847 -2.28542,3.31467 -1.85117,3.74892 0.38505,0.38503 2.67216,0.0677 5.36058,-0.74382 2.83443,-0.85558 8.11018,-1.42142 9.64988,-1.03498 1.19541,0.30004 2.15206,1.99043 2.15355,3.80534 0.003,3.69324 -3.50037,5.66148 -12.23911,6.87598 -4.65936,0.64756 -6.13726,0.99692 -7.81706,1.84783 l -0.93209,0.47216 0.73914,0.78679 c 0.40653,0.43274 2.2236,1.5193 4.03792,2.41459 4.2267,2.0857 6.36756,3.71689 7.31978,5.57724 0.84545,1.65172 0.77775,2.78828 -0.25224,4.23475 -1.65143,2.31923 -5.4666,2.59129 -9.37266,0.66835 -1.1748,-0.57836 -3.94471,-2.41178 -6.15534,-4.07428 -4.82021,-3.62501 -6.10219,-4.09247 -8.95166,-3.26411 -1.61816,0.47041 -2.22804,0.92309 -4.97309,3.69122 -1.7208,1.73529 -3.74581,4.11134 -4.50003,5.28011 l -1.37129,2.12503 2.04388,0.23403 c 1.40941,0.16137 2.69764,0.0824 4.14983,-0.25437 1.2562,-0.29134 4.0275,-0.51357 6.86827,-0.55079 3.97864,-0.0521 4.93628,0.0309 5.81932,0.5051 3.26993,1.75561 2.43389,6.85409 -1.38392,8.4395 -0.66887,0.27777 -4.35974,0.48169 -11.60595,0.64121 -10.42567,0.22952 -15.27329,0.68624 -16.9803,1.5998 -1.38161,0.73942 -1.39896,1.60166 -0.16668,8.28255 3.12464,16.94044 3.84942,19.87493 5.31348,21.51336 1.53124,1.71362 2.48197,1.6363 12.08621,-0.98289 17.88682,-4.87794 28.96765,-8.45535 31.00623,-10.01024 1.85033,-1.41133 2.6343,-2.99746 4.03661,-8.16693 3.10307,-11.43914 8.28577,-17.45056 11.81155,-13.70025 0.69659,0.74095 0.8011,1.19788 0.90203,3.94351 0.14806,4.02773 -0.17812,5.23729 -2.89561,10.73753 -4.60877,9.32824 -4.49237,9.58302 6.50732,14.24435 15.07384,6.38782 17.361,7.93512 17.361,11.74505 0,0.98555 -0.21175,1.55056 -0.80244,2.14127 -0.91537,0.91536 -2.09646,0.99453 -7.31139,0.49004 -3.40404,-0.3293 -5.08587,-1.03896 -12.15572,-5.12923 -6.59221,-3.81393 -8.39501,-4.69298 -10.9808,-5.35433 -4.96956,-1.271 -6.55256,-0.99793 -20.24083,3.49138 -5.75394,1.88711 -13.40406,4.28598 -17.00027,5.33084 -3.59621,1.04485 -6.942,2.05943 -7.4351,2.25463 -1.501,0.59417 -3.72631,2.90624 -4.53548,4.71229 -0.71945,1.60581 -0.76605,2.10324 -0.77262,8.24744 -0.004,3.59621 0.20823,8.59821 0.47129,11.11555 0.37281,3.56766 0.46109,8.74396 0.40029,23.47281 -0.0523,12.68685 0.0375,19.32461 0.2734,20.20077 0.2647,0.98303 0.61501,1.43067 1.41995,1.81452 1.0139,0.48351 1.89502,0.38282 17.22936,-1.96877 27.6093,-4.234 40.21084,-6.02151 44.07423,-6.25183 5.96265,-0.35547 9.31477,-1.70101 12.77279,-5.12698 2.37709,-2.35507 4.33964,-5.24671 8.10409,-11.94054 1.5754,-2.80129 3.488,-5.79042 4.2502,-6.64249 3.29723,-3.68594 8.76481,-4.00427 9.41102,-0.54794 0.50739,2.71399 -1.02473,6.13974 -5.22088,11.67352 -1.70434,2.24763 -3.10448,4.31463 -3.11141,4.59334 -0.0196,0.79317 0.67779,1.29137 1.80804,1.29137 2.38069,0 7.17166,-1.13083 13.34649,-3.15022 5.47451,-1.79037 6.95621,-2.15278 8.86207,-2.1676 2.72828,-0.0213 4.69361,0.69262 5.92014,2.15029 1.09263,1.2985 0.92685,3.05056 -0.45027,4.75903 -1.5875,1.96946 -3.84684,2.86871 -9.55647,3.80368 -2.78707,0.45638 -6.02365,1.06634 -7.19242,1.35547 -2.75411,0.68131 -7.46433,2.37673 -7.71077,2.77548 -0.4897,0.79235 4.24958,5.80303 7.67193,8.11126 6.58423,4.44082 15.6798,6.65653 23.03258,5.61083 4.15617,-0.59109 15.71475,-4.59382 41.24764,-14.28406 l 10.13477,-3.84634 3.59621,-0.13796 c 4.28135,-0.16421 5.18665,0.10233 5.70755,1.68061 0.88283,2.67504 -1.14167,5.61961 -4.90798,7.13857 -1.15899,0.46742 -4.53472,1.69443 -7.5016,2.72667 -2.96687,1.03226 -11.60572,4.129 -19.19745,6.88167 -12.76726,4.62923 -16.42869,6.13151 -16.4352,6.74335 -0.005,0.48013 1.86258,1.1673 4.24755,1.56277 3.15496,0.52315 8.63973,2.04739 16.8368,4.679 3.59621,1.15454 8.59821,2.5809 11.11556,3.16967 2.51735,0.58878 5.25226,1.4078 6.07759,1.82004 2.66238,1.3298 4.17556,3.71371 3.84033,6.05005 -0.25667,1.78871 -4.22251,3.13625 -8.28328,2.81454 -2.24194,-0.17762 -7.94599,-1.81437 -29.26007,-8.39601 -4.73431,-1.46192 -9.53286,-2.73626 -11.10493,-2.94911 -1.52254,-0.20614 -3.26915,-0.58408 -3.88133,-0.83987 -0.6122,-0.25579 -1.16651,-0.46508 -1.23183,-0.46508 -0.19606,0 1.13264,3.23707 2.63511,6.41982 1.2843,2.72056 6.04755,11.11278 12.59252,22.1864 1.3816,2.33753 3.30178,5.76685 4.26703,7.62072 1.95225,3.74941 3.54456,5.45925 5.40978,5.80916 1.50868,0.28305 5.13683,-0.77489 8.72313,-2.54354 7.61886,-3.75741 15.00764,-2.80327 23.69703,3.06012 5.0464,3.40518 8.58657,7.72891 8.58657,10.48703 0,1.23602 -1.4412,2.68997 -3.13158,3.15928 -1.67096,0.46394 -1.99286,0.45302 -3.97201,-0.13473 -1.24073,-0.36845 -2.31711,-1.08808 -4.22767,-2.82656 -4.95794,-4.51125 -7.87351,-5.88768 -12.5345,-5.91753 -3.00567,-0.0193 -5.74756,0.57902 -8.76059,1.91155 -3.32571,1.47079 -3.65136,2.1912 -1.9463,4.30581 0.58438,0.72473 1.97589,2.43849 3.09225,3.80835 4.25134,5.21676 6.03434,9.69054 6.07073,15.23217 0.0248,3.79482 -0.49406,6.82816 -1.33776,7.81947 -0.66435,0.78057 -2.53239,1.11355 -3.65689,0.65183 z"
     style="fill:#ffffff;fill-opacity:1"
     sodipodi:nodetypes="cscssscssssssssssscssssssssssssssssssssssssscsssssssccsccscsssssssssscssssssscsscsssssssssssssssssssssscscssssssssscssscsssssscsscsssssscssssscssssssssscscsccsssssssssssscssssscscsscsssssscscssccssssssscscssscsssssssscsssccssscsccssscscc" />
  <path
     style="opacity:1;fill:#ffffff;fill-opacity:1;fill-rule:nonzero;stroke:none;stroke-width:6;stroke-linecap:round;stroke-linejoin:round;stroke-miterlimit:4;stroke-dasharray:none;stroke-dashoffset:0;stroke-opacity:1"
     d="M 255.99787,6 A 249.99942,249.99942 0 0 0 6,256 249.99942,249.99942 0 0 0 255.99787,505.99999 249.99942,249.99942 0 0 0 479.40729,368.041 l -12.79192,0 A 238.68111,238.68111 0 0 1 255.99787,494.68096 238.68111,238.68111 0 0 1 17.316912,256 238.68111,238.68111 0 0 1 255.99787,17.319036 238.68111,238.68111 0 0 1 466.5494,143.95899 l 12.61945,0 A 249.99942,249.99942 0 0 0 255.99787,6 Z"
     id="path4216"
     inkscape:connector-curvature="0" />
  <g
     id="g4231"
     transform="matrix(0.99465297,0,0,0.99465297,843.87267,-422.36588)">
    <path
       inkscape:connector-curvature="0"
       id="path4165"
       style="font-style:normal;font-variant:normal;font-weight:100;font-stretch:normal;font-size:233.73410034px;line-height:125%;font-family:Agenda;-inkscape-font-specification:'Agenda, Thin';text-align:start;letter-spacing:0px;word-spacing:0px;writing-mode:lr-tb;text-anchor:start;fill:#ffffff;fill-opacity:1;stroke:none;stroke-width:1px;stroke-linecap:butt;stroke-linejoin:miter;stroke-opacity:1"
       d="m -283.83303,614.11182 0,-5.98129 -90.17947,0 0,5.98129 41.63899,0 0,140.79039 6.67144,0 0,-140.79039 41.86904,0 z" />
    <path
       inkscape:connector-curvature="0"
       id="path4167"
       style="font-style:normal;font-variant:normal;font-weight:100;font-stretch:normal;font-size:233.73410034px;line-height:125%;font-family:Agenda;-inkscape-font-specification:'Agenda, Thin';text-align:start;letter-spacing:0px;word-spacing:0px;writing-mode:lr-tb;text-anchor:start;fill:#ffffff;fill-opacity:1;stroke:none;stroke-width:1px;stroke-linecap:butt;stroke-linejoin:miter;stroke-opacity:1"
       d="m -183.47387,754.90221 0,-146.77168 -6.90148,0 0,69.70504 -71.54545,0 0,-69.70504 -6.67144,0 0,146.77168 6.67144,0 0,-70.85529 71.54545,0 0,70.85529 6.90148,0 z" />
    <path
       inkscape:connector-curvature="0"
       id="path4169"
       style="font-style:normal;font-variant:normal;font-weight:100;font-stretch:normal;font-size:233.73410034px;line-height:125%;font-family:Agenda;-inkscape-font-specification:'Agenda, Thin';text-align:start;letter-spacing:0px;word-spacing:0px;writing-mode:lr-tb;text-anchor:start;fill:#ffffff;fill-opacity:1;stroke:none;stroke-width:1px;stroke-linecap:butt;stroke-linejoin:miter;stroke-opacity:1"
       d="m -91.8494,754.90221 0,-5.98129 -57.74247,0 0,-64.874 41.86905,0 0,-6.21135 -41.86905,0 0,-63.72375 51.53113,0 0,-5.98129 -58.20257,0 0,146.77168 64.41391,0 z" />
    <path
       inkscape:connector-curvature="0"
       id="path4171"
       style="font-style:normal;font-variant:normal;font-weight:100;font-stretch:normal;font-size:233.73410034px;line-height:125%;font-family:Agenda;-inkscape-font-specification:'Agenda, Thin';text-align:start;letter-spacing:0px;word-spacing:0px;writing-mode:lr-tb;text-anchor:start;fill:#0565c0;fill-opacity:1;stroke:none;stroke-width:1px;stroke-linecap:butt;stroke-linejoin:miter;stroke-opacity:1"
       d="M 46.852571,754.90221 5.6736859,682.66662 c 15.4133231,-3.45074 25.5355071,-17.71383 25.5355071,-36.5779 0,-21.39461 -13.572928,-37.95819 -33.8172972,-37.95819 l -28.2961038,0 0,146.77168 6.671431,0 0,-70.85529 22.7749206,0 40.4887384,70.85529 7.821689,0 z M 24.537752,646.08872 c 0,18.63403 -11.502478,31.74685 -27.1458562,31.74685 l -21.6246728,0 0,-63.72375 20.9345261,0 c 16.1034789,0 27.8360029,13.34287 27.8360029,31.9769 z" />
    <path
       inkscape:connector-curvature="0"
       id="path4173"
       style="font-style:normal;font-variant:normal;font-weight:100;font-stretch:normal;font-size:233.73410034px;line-height:125%;font-family:Agenda;-inkscape-font-specification:'Agenda, Thin';text-align:start;letter-spacing:0px;word-spacing:0px;writing-mode:lr-tb;text-anchor:start;fill:#0565c0;fill-opacity:1;stroke:none;stroke-width:1px;stroke-linecap:butt;stroke-linejoin:miter;stroke-opacity:1"
       d="m 143.62801,754.90221 0,-146.77168 -6.90149,0 0,69.70504 -71.545445,0 0,-69.70504 -6.671441,0 0,146.77168 6.671441,0 0,-70.85529 71.545445,0 0,70.85529 6.90149,0 z" />
    <path
       inkscape:connector-curvature="0"
       id="path4175"
       style="font-style:normal;font-variant:normal;font-weight:100;font-stretch:normal;font-size:233.73410034px;line-height:125%;font-family:Agenda;-inkscape-font-specification:'Agenda, Thin';text-align:start;letter-spacing:0px;word-spacing:0px;writing-mode:lr-tb;text-anchor:start;fill:#ffffff;fill-opacity:1;stroke:none;stroke-width:1px;stroke-linecap:butt;stroke-linejoin:miter;stroke-opacity:1"
       d="m 212.24746,694.1691 0,-5.98129 -46.00993,0 0,5.98129 46.00993,0 z" />
    <path
       inkscape:connector-curvature="0"
       id="path4177"
       style="font-style:normal;font-variant:normal;font-weight:100;font-stretch:normal;font-size:233.73410034px;line-height:125%;font-family:Agenda;-inkscape-font-specification:'Agenda, Thin';text-align:start;letter-spacing:0px;word-spacing:0px;writing-mode:lr-tb;text-anchor:start;fill:#ffffff;fill-opacity:1;stroke:none;stroke-width:1px;stroke-linecap:butt;stroke-linejoin:miter;stroke-opacity:1"
       d="m 384.44683,608.13053 -6.21134,0 -24.15521,91.32971 c -3.91084,15.18328 -7.36159,31.05671 -10.35223,45.54984 l -0.4601,0 c -2.99065,-14.49313 -6.9015,-30.82666 -10.81234,-46.00994 l -23.23501,-90.86961 -7.36159,0 -23.69511,90.86961 c -3.6808,14.49313 -7.36159,30.82666 -10.58229,46.00994 l -0.4601,0 c -3.2207,-15.18328 -6.44139,-31.28676 -10.35223,-45.54984 l -24.38527,-91.32971 -7.13154,0 39.79859,149.07218 4.1409,0 24.15521,-93.40017 c 3.91085,-15.18327 7.59164,-30.36655 11.27243,-46.93012 l 0.46011,0 c 3.68078,16.79362 7.82168,31.9769 11.73253,46.93012 l 23.92516,93.40017 4.1409,0 39.56853,-149.07218 z" />
    <path
       inkscape:connector-curvature="0"
       id="path4179"
       style="font-style:normal;font-variant:normal;font-weight:100;font-stretch:normal;font-size:233.73410034px;line-height:125%;font-family:Agenda;-inkscape-font-specification:'Agenda, Thin';text-align:start;letter-spacing:0px;word-spacing:0px;writing-mode:lr-tb;text-anchor:start;fill:#ffffff;fill-opacity:1;stroke:none;stroke-width:1px;stroke-linecap:butt;stroke-linejoin:miter;stroke-opacity:1"
       d="m 481.73272,754.90221 -44.16953,-148.15198 -4.1409,0 -44.16953,148.15198 6.44139,0 13.57293,-45.31978 51.76118,0 13.57293,45.31978 7.13153,0 z m -22.54487,-51.30107 -48.08037,0 16.56357,-57.51242 c 2.7606,-9.43203 5.06109,-19.55422 7.13154,-28.75621 l 0.46011,0 c 2.30049,9.20199 4.60099,19.55422 7.36158,28.98626 l 16.56357,57.28237 z" />
    <path
       inkscape:connector-curvature="0"
       id="path4181"
       style="font-style:normal;font-variant:normal;font-weight:100;font-stretch:normal;font-size:233.73410034px;line-height:125%;font-family:Agenda;-inkscape-font-specification:'Agenda, Thin';text-align:start;letter-spacing:0px;word-spacing:0px;writing-mode:lr-tb;text-anchor:start;fill:#ffffff;fill-opacity:1;stroke:none;stroke-width:1px;stroke-linecap:butt;stroke-linejoin:miter;stroke-opacity:1"
       d="m 575.43119,608.13053 -7.36159,0 -26.45571,50.38088 c -4.37094,8.28179 -8.74189,16.56357 -12.65273,25.07541 l -0.46011,0 c -3.91083,-8.74189 -8.28178,-17.02368 -12.42268,-25.07541 l -25.9956,-50.38088 -7.82169,0 43.01929,83.27798 0,63.4937 6.90148,0 0,-63.4937 43.24934,-83.27798 z" />
  </g>
</svg>
