<?xml version="1.0" encoding="UTF-8" standalone="no"?>
<!-- Created with Inkscape (http://www.inkscape.org/) -->

<svg
   xmlns:dc="http://purl.org/dc/elements/1.1/"
   xmlns:cc="http://creativecommons.org/ns#"
   xmlns:rdf="http://www.w3.org/1999/02/22-rdf-syntax-ns#"
   xmlns:svg="http://www.w3.org/2000/svg"
   xmlns="http://www.w3.org/2000/svg"
   xmlns:sodipodi="http://sodipodi.sourceforge.net/DTD/sodipodi-0.dtd"
   xmlns:inkscape="http://www.inkscape.org/namespaces/inkscape"
   id="svg4206"
   version="1.1"
   inkscape:version="0.91 r13725"
   width="512"
   height="512"
   viewBox="0 0 512.00001 512"
   sodipodi:docname="netwoRHk-circle.svg"
   inkscape:export-filename="/home/m/RHDrive/Design/CI/Logos/RH/RH-Logo-vector.png"
   inkscape:export-xdpi="300"
   inkscape:export-ydpi="300">
  <metadata
     id="metadata4212">
    <rdf:RDF>
      <cc:Work
         rdf:about="">
        <dc:format>image/svg+xml</dc:format>
        <dc:type
           rdf:resource="http://purl.org/dc/dcmitype/StillImage" />
        <dc:title></dc:title>
      </cc:Work>
    </rdf:RDF>
  </metadata>
  <defs
     id="defs4210" />
  <sodipodi:namedview
     pagecolor="#ffffff"
     bordercolor="#666666"
     borderopacity="1"
     objecttolerance="10"
     gridtolerance="10"
     guidetolerance="10"
     inkscape:pageopacity="0"
     inkscape:pageshadow="2"
     inkscape:window-width="1920"
     inkscape:window-height="1135"
     id="namedview4208"
     showgrid="false"
     inkscape:snap-grids="false"
     inkscape:snap-to-guides="false"
     inkscape:zoom="0.43961525"
     inkscape:cx="856.5671"
     inkscape:cy="376.97864"
     inkscape:window-x="0"
     inkscape:window-y="0"
     inkscape:window-maximized="1"
     inkscape:current-layer="svg4206"
     showguides="true"
     inkscape:guide-bbox="true"
     fit-margin-top="6"
     fit-margin-left="6"
     fit-margin-right="6"
     fit-margin-bottom="6" />
  <g
     id="g4231"
     transform="matrix(0.99465297,0,0,0.99465297,424.63386,-903.56281)">
    <g
       id="g4842">
      <path
         inkscape:connector-curvature="0"
         id="path4506"
         d="m -233.69005,1071.7427 c -1.74768,1.5634 -3.65194,2.954 -5.68469,4.1491 l 48.8805,67.1992 a 30.927307,30.927307 0 0 1 5.6847,-4.1452 l -48.88051,-67.2031 z m 126.53597,32.4194 -42.05494,38.3594 a 30.927307,30.927307 0 0 1 4.72644,5.2134 l 42.08244,-38.3829 c -1.81101,-1.5033 -3.41004,-3.2518 -4.75394,-5.1899 z m -88.95219,77.3982 -46.16678,34.9408 c 1.69698,1.6284 3.13648,3.5209 4.23554,5.6218 l 46.16874,-34.9427 a 30.927307,30.927307 0 0 1 -4.2375,-5.6199 z m 47.90851,6.6017 a 30.927307,30.927307 0 0 1 -5.62579,4.2277 l 49.69738,65.2925 c 1.64652,-1.6757 3.52063,-3.1237 5.570804,-4.3003 l -49.642394,-65.2199 z"
         style="color:#000000;font-style:normal;font-variant:normal;font-weight:normal;font-stretch:normal;font-size:medium;line-height:normal;font-family:sans-serif;text-indent:0;text-align:start;text-decoration:none;text-decoration-line:none;text-decoration-style:solid;text-decoration-color:#000000;letter-spacing:normal;word-spacing:normal;text-transform:none;direction:ltr;block-progression:tb;writing-mode:lr-tb;baseline-shift:baseline;text-anchor:start;white-space:normal;clip-rule:nonzero;display:inline;overflow:visible;visibility:visible;opacity:1;isolation:auto;mix-blend-mode:normal;color-interpolation:sRGB;color-interpolation-filters:linearRGB;solid-color:#000000;solid-opacity:1;fill:#333333;fill-opacity:1;fill-rule:evenodd;stroke:none;stroke-width:7;stroke-linecap:butt;stroke-linejoin:miter;stroke-miterlimit:4;stroke-dasharray:none;stroke-dashoffset:0;stroke-opacity:1;color-rendering:auto;image-rendering:auto;shape-rendering:auto;text-rendering:auto;enable-background:accumulate" />
      <path
         inkscape:connector-curvature="0"
         id="path3546"
         d="m -169.53941,1129.1139 a 36.682157,36.682157 0 0 0 -36.68443,36.6825 36.682157,36.682157 0 0 0 36.68443,36.6824 36.682157,36.682157 0 0 0 36.68246,-36.6824 36.682157,36.682157 0 0 0 -36.68246,-36.6825 z m -0.002,11.4047 a 25.278157,25.278157 0 0 1 25.27974,25.2778 25.278157,25.278157 0 0 1 -25.2797,25.2777 25.278157,25.278157 0 0 1 -25.27773,-25.2777 25.278157,25.278157 0 0 1 25.27773,-25.2778 z"
         style="fill:#3399ff;fill-opacity:1" />
      <path
         inkscape:connector-curvature="0"
         id="path4216-1"
         d="m -169.54254,914.45241 a 251.34336,251.34336 0 0 0 -251.3418,251.34399 251.34336,251.34336 0 0 0 251.3418,251.3439 251.34336,251.34336 0 0 0 224.610424,-138.7006 l -12.86068,0 a 239.96421,239.96421 0 0 1 -211.749744,127.3207 239.96421,239.96421 0 0 1 -239.96405,-239.964 239.96421,239.96421 0 0 1 239.96405,-239.9641 239.96421,239.96421 0 0 1 211.683414,127.3207 l 12.68729,0 A 251.34336,251.34336 0 0 0 -169.54254,914.45241 Z"
         style="opacity:1;fill:#3399ff;fill-opacity:1;fill-rule:nonzero;stroke:none;stroke-width:6;stroke-linecap:round;stroke-linejoin:round;stroke-miterlimit:4;stroke-dasharray:none;stroke-dashoffset:0;stroke-opacity:1" />
      <circle
         r="31.807142"
         cy="1045.4227"
         cx="-257.20944"
         id="path3563"
         style="fill:#333333;fill-opacity:1" />
      <circle
         style="fill:#333333;fill-opacity:1"
         id="circle3565"
         cx="-85.85038"
         cy="1275.6357"
         r="22.12685" />
      <circle
         r="18.131454"
         cy="1232.1001"
         cx="-257.23392"
         id="circle3567"
         style="fill:#333333;fill-opacity:1" />
      <circle
         style="fill:#333333;fill-opacity:1"
         id="circle3569"
         cx="-86.003761"
         cy="1089.5541"
         r="22.207378" />
    </g>
  </g>
</svg>
