<?xml version="1.0" encoding="UTF-8" standalone="no"?>
<svg
   xmlns:sketch="http://www.bohemiancoding.com/sketch/ns"
   xmlns:dc="http://purl.org/dc/elements/1.1/"
   xmlns:cc="http://creativecommons.org/ns#"
   xmlns:rdf="http://www.w3.org/1999/02/22-rdf-syntax-ns#"
   xmlns:svg="http://www.w3.org/2000/svg"
   xmlns="http://www.w3.org/2000/svg"
   xmlns:sodipodi="http://sodipodi.sourceforge.net/DTD/sodipodi-0.dtd"
   xmlns:inkscape="http://www.inkscape.org/namespaces/inkscape"
   width="835.336"
   height="269.75528"
   viewBox="0 0 835.336 269.75528"
   version="1.1"
   id="svg73"
   inkscape:version="0.91 r13725"
   sodipodi:docname="trello.svg">
  <metadata
     id="metadata91">
    <rdf:RDF>
      <cc:Work
         rdf:about="">
        <dc:format>image/svg+xml</dc:format>
        <dc:type
           rdf:resource="http://purl.org/dc/dcmitype/StillImage" />
        <dc:title>trello-logo-white</dc:title>
      </cc:Work>
    </rdf:RDF>
  </metadata>
  <sodipodi:namedview
     pagecolor="#ffffff"
     bordercolor="#666666"
     borderopacity="1"
     objecttolerance="10"
     gridtolerance="10"
     guidetolerance="10"
     inkscape:pageopacity="0"
     inkscape:pageshadow="2"
     inkscape:window-width="1920"
     inkscape:window-height="1135"
     id="namedview89"
     showgrid="false"
     fit-margin-top="0"
     fit-margin-left="0"
     fit-margin-right="0"
     fit-margin-bottom="0"
     inkscape:zoom="0.63919257"
     inkscape:cx="746.99495"
     inkscape:cy="235.09299"
     inkscape:window-x="0"
     inkscape:window-y="0"
     inkscape:window-maximized="1"
     inkscape:current-layer="svg73" />
  <!-- Generator: Sketch 3.4.3 (16044) - http://www.bohemiancoding.com/sketch -->
  <title
     id="title75">trello-logo-white</title>
  <desc
     id="desc77">Created with Sketch.</desc>
  <defs
     id="defs79" />
  <g
     id="Page-1"
     sketch:type="MSPage"
     style="fill:#ffffff;fill-rule:evenodd;stroke:none;stroke-width:1"
     transform="translate(-50,-1)">
    <g
       id="Original-Assets"
       sketch:type="MSArtboardGroup"
       transform="translate(-1719,-262)"
       style="fill:#ffffff">
      <g
         id="Group"
         sketch:type="MSLayerGroup"
         transform="translate(229,198)"
         style="fill:#ffffff">
        <g
           id="Trello-Logo"
           sketch:type="MSShapeGroup"
           style="fill:#ffffff">
          <g
             id="Trello-Logo---White"
             transform="translate(1440,0)"
             style="fill:#ffffff">
            <g
               id="Logo"
               transform="translate(50,64)"
               style="fill:#ffffff">
              <path
                 d="m 723.29354,178.58952 c -12.77067,5.20363 -22.84826,23.18136 -38.17514,33.39928 -0.9504,0.6336 -1.9008,0.9504 -2.5344,0.9504 -1.2672,0 -2.8512,-1.2672 -2.8512,-6.9696 0,-19.6416 6.336,-29.1456 11.7216,-43.0848 18.6912,-48.4704 50.688,-89.9712 79.2,-135.2736 2.2176,-3.4848 3.4848,-7.2864 3.4848,-11.4048 0,-3.4848 -1.2672,-6.336 -2.8512,-9.8208 C 770.0208,3.5344 764.3184,1 757.9824,1 c -3.4848,0 -6.6528,0.3168 -10.7712,0.3168 -14.8896,0 -18.0576,21.8592 -21.5424,27.5616 -23.76,40.2336 -51.0048,89.9712 -64.944,125.136 -3.0567,7.88306 -6.35849,15.76613 -8.86817,23.85663 -13.77475,3.9888 -24.09418,23.35667 -40.23583,34.11777 -0.9504,0.6336 -1.9008,0.9504 -2.5344,0.9504 -1.2672,0 -2.8512,-1.2672 -2.8512,-6.9696 0,-19.6416 6.336,-29.1456 11.7216,-43.0848 18.6912,-48.4704 50.688,-89.9712 79.2,-135.2736 2.2176,-3.4848 3.4848,-7.2864 3.4848,-11.4048 0,-3.4848 -1.2672,-6.336 -2.8512,-9.8208 C 696.5232,3.5344 690.8208,1 684.4848,1 681,1 677.832,1.3168 673.7136,1.3168 c -14.8896,0 -18.0576,21.8592 -21.5424,27.5616 -23.76,40.2336 -51.0048,89.9712 -64.944,125.136 -1.10816,2.85789 -2.24854,5.71578 -3.3717,8.58356 -0.34684,0.18526 -0.70102,0.38615 -1.0635,0.60364 -16.1568,9.504 -29.7792,26.2944 -49.4208,37.6992 -3.8016,2.2176 -15.5232,10.4544 -25.0272,10.4544 -2.2176,0 -4.1184,-0.6336 -6.0192,-1.584 -2.8512,-1.2672 -5.7024,-7.2864 -5.7024,-9.1872 0,-1.584 0.3168,-1.9008 3.4848,-3.8016 27.8784,-16.7904 50.688,-40.8672 70.3296,-64.944 7.2864,-8.8704 16.7904,-26.2944 16.7904,-38.9664 0,-8.2368 -2.8512,-17.7408 -12.672,-21.2256 -6.9696,-2.5344 -14.8896,-3.8016 -21.2256,-3.8016 -16.7904,0 -29.1456,7.6032 -36.1152,14.8896 -7.09544,7.57486 -13.95871,15.352865 -20.33509,23.40428 C 490.217,100.38685 480.8199,97.9408 471.912,97.9408 c -10.4544,0 -30.096,12.9888 -40.2336,20.592 -1.584,1.2672 -2.5344,1.9008 -3.168,1.9008 -0.3168,0 -0.6336,-0.3168 -0.6336,-0.9504 0,-0.3168 0.6336,-3.168 0.6336,-8.2368 0,-4.4352 -0.9504,-10.1376 -5.0688,-17.1072 -0.9504,-1.584 -6.6528,-5.0688 -13.6224,-5.0688 -8.5536,0 -16.4736,4.1184 -16.4736,8.5536 0,3.168 2.8512,4.4352 2.8512,7.2864 0,1.584 -1.2672,8.8704 -3.168,15.84 -5.3856,20.2752 -12.0384,40.2336 -19.008,60.192 -3.8016,11.088 -16.4736,20.9088 -16.4736,32.9472 0,3.8016 2.5344,8.8704 6.0192,12.672 5.7024,6.336 9.1872,8.5536 14.256,8.5536 2.2176,0 4.752,-0.6336 6.9696,-2.5344 4.752,-4.1184 7.2864,-8.2368 8.5536,-13.9392 8.2368,-37.3824 31.9968,-62.7264 58.2912,-79.5168 8.8704,-5.7024 20.9088,-11.7216 22.4928,-11.7216 1.62424,0 4.1645,0.74947 6.72419,1.47991 -7.35027,11.98886 -13.30585,24.63228 -17.17859,38.12009 -1.2672,4.4352 -1.9008,8.5536 -1.9008,12.9888 0,7.2864 1.584,14.8896 4.1184,22.176 3.4848,10.1376 9.1872,19.008 17.1072,23.1264 14.5728,7.6032 25.0272,11.7216 34.5312,11.7216 5.3856,0 9.504,-0.9504 13.9392,-3.4848 20.82227,-11.78102 33.58848,-20.71873 42.80676,-28.65735 0.25276,8.04907 1.83941,12.50846 7.56444,18.51975 5.7024,6.0192 14.5728,11.4048 26.2944,13.9392 1.9008,0.3168 3.8016,0.6336 5.7024,0.6336 13.4111,0 26.31755,-10.90046 36.26967,-21.70635 1.15227,2.35804 2.82673,4.60893 5.23113,7.13355 5.7024,6.0192 14.5728,11.4048 26.2944,13.9392 1.9008,0.3168 3.8016,0.6336 5.7024,0.6336 15.70977,0 30.72706,-14.95738 41.11436,-27.19906 3.46192,7.16051 13.13618,14.24001 24.78004,19.91266 3.168,1.584 6.9696,2.5344 10.4544,2.5344 13.6224,0 23.4432,-11.088 31.0464,-19.3248 19.6416,-21.5424 30.4128,-48.1536 38.6496,-81.7344 0.6336,-2.5344 1.584,-3.4848 2.8512,-3.4848 3.168,0 7.2864,0 11.7216,-0.6336 8.5536,-1.2672 15.2064,-4.1184 23.1264,-5.3856 4.752,-0.9504 4.1184,-2.5344 8.5536,-4.1184 3.168,-1.2672 5.7024,-2.5344 5.7024,-5.7024 0,-5.3856 -9.8208,-11.088 -24.7104,-11.088 -11.7216,0 -18.6912,0.9504 -23.4432,0.9504 -7.2864,0 -9.1872,-2.2176 -13.9392,-14.5728 0,0 4.752,12.3552 0,0 -0.9504,-2.5344 -1.9008,-3.8016 -4.752,-6.336 -6.6528,-5.7024 -14.8896,-7.6032 -21.5424,-7.6032 -15.84,0 -29.4624,16.1568 -38.9664,29.7792 -2.2176,3.168 -5.3856,5.7024 -7.6032,9.1872 -13.05001,19.57502 -25.54469,41.64909 -27.08566,65.44232 z M 318.264,70.696 c 7.92,0 12.3552,-0.6336 13.3056,-0.6336 0.9504,0 1.584,0.3168 1.584,1.2672 0,0.6336 -0.3168,1.584 -2.5344,6.336 -19.3248,41.5008 -32.6304,83.6352 -44.352,130.2048 -0.3168,1.2672 -1.2672,6.0192 -1.2672,10.7712 0,4.4352 1.2672,9.1872 5.7024,11.7216 8.5536,5.0688 15.5232,7.2864 20.2752,7.2864 6.9696,0 10.4544,-4.4352 10.4544,-11.7216 0,-6.336 0.3168,-12.9888 1.2672,-18.0576 8.8704,-46.5696 22.176,-83.0016 42.768,-121.0176 9.8208,-18.0576 11.088,-19.008 11.088,-20.592 0,-0.6336 -0.3168,-1.584 -0.9504,-2.5344 12.672,-2.8512 27.8784,-4.752 41.8176,-4.752 1.584,0 7.92,2.2176 8.8704,3.168 2.2176,2.2176 4.4352,4.4352 8.2368,4.4352 3.168,0 8.5536,-2.2176 10.4544,-3.4848 4.4352,-3.168 6.6528,-6.6528 6.6528,-12.3552 0,-5.3856 -19.9584,-18.6912 -33.8976,-18.6912 -17.1072,0 -32.6304,2.2176 -47.2032,5.0688 -6.336,1.2672 -29.1456,4.752 -45.6192,4.752 -15.84,0 -14.8896,-2.2176 -21.5424,-2.2176 -3.8016,0 -5.7024,1.9008 -7.2864,3.4848 -1.584,1.584 -2.5344,7.92 -2.5344,13.6224 0,2.8512 0,5.0688 1.584,6.9696 4.752,5.7024 13.9392,6.9696 23.1264,6.9696 0,0 -9.1872,0 0,0 z m 234.7488,25.6608 c 0,2.8512 -0.9504,4.752 -4.752,10.7712 -3.8016,6.0192 -2.2176,6.0192 -6.9696,12.3552 -9.1872,12.3552 -20.592,24.7104 -35.4816,38.3328 -4.1184,3.8016 -4.752,3.8016 -5.3856,3.8016 -0.3168,0 -0.9504,-0.3168 -0.9504,-0.9504 0,-0.9504 0.3168,-2.2176 3.4848,-8.8704 9.8208,-20.592 21.8592,-34.2144 35.1648,-47.52 7.2864,-7.2864 11.7216,-9.8208 13.3056,-9.8208 0.9504,0 1.584,0.3168 1.584,1.9008 0,0 0,-1.584 0,0 z m 243.6192,8.2368 c 0.3168,0 0.6336,0.3168 0.9504,0.9504 0.3168,0.9504 0.9504,1.9008 2.5344,3.168 1.2672,0.9504 1.2672,5.3856 1.2672,8.8704 0,30.7296 -17.424,56.0736 -34.5312,81.7344 -3.8016,5.7024 -6.0192,6.6528 -7.92,6.6528 -1.584,0 -4.1184,-4.1184 -5.0688,-6.6528 -1.2672,-3.4848 -1.584,-7.6032 -1.584,-9.1872 0,-24.7104 23.4432,-61.4592 38.9664,-81.7344 2.5344,-3.4848 4.4352,-3.8016 5.3856,-3.8016 0,0 -0.9504,0 0,0 z"
                 id="Type"
                 inkscape:connector-curvature="0"
                 style="fill:#ffffff" />
              <path
                 d="M 75.001381,36 C 61.1935,36 50,47.199438 50,61.001381 L 50,210.99862 C 50,224.8065 61.199438,236 75.001381,236 l 149.997239,0 C 238.8065,236 250,224.80056 250,210.99862 L 250,61.001381 C 250,47.1935 238.80056,36 224.99862,36 L 75.001381,36 Z M 174.99704,62 C 168.37126,62 163,67.372325 163,74.005548 l 0,63.988902 C 163,144.62493 168.37323,150 174.99704,150 l 37.00592,0 C 218.62874,150 224,144.62767 224,137.99445 l 0,-63.988902 C 224,67.375067 218.62677,62 212.00296,62 l -37.00592,0 z M 87.997036,62 C 81.371256,62 76,67.367409 76,74.005185 L 76,187.99481 C 76,194.62509 81.373226,200 87.997036,200 l 37.005924,0 C 131.62874,200 137,194.63259 137,187.99481 L 137,74.005185 C 137,67.374905 131.62677,62 125.00296,62 l -37.005924,0 z"
                 id="Board"
                 inkscape:connector-curvature="0"
                 style="fill:#ffffff" />
            </g>
          </g>
        </g>
      </g>
    </g>
  </g>
</svg>
