<?xml version="1.0" encoding="UTF-8" standalone="no"?>
<!-- Created with Inkscape (http://www.inkscape.org/) -->

<svg
   xmlns:dc="http://purl.org/dc/elements/1.1/"
   xmlns:cc="http://creativecommons.org/ns#"
   xmlns:rdf="http://www.w3.org/1999/02/22-rdf-syntax-ns#"
   xmlns:svg="http://www.w3.org/2000/svg"
   xmlns="http://www.w3.org/2000/svg"
   xmlns:sodipodi="http://sodipodi.sourceforge.net/DTD/sodipodi-0.dtd"
   xmlns:inkscape="http://www.inkscape.org/namespaces/inkscape"
   id="svg2"
   version="1.1"
   inkscape:version="0.91 r13725"
   xml:space="preserve"
   width="391.82825"
   height="512"
   viewBox="0 0 391.82824 512.00001"
   sodipodi:docname="award.svg"><metadata
     id="metadata8"><rdf:RDF><cc:Work
         rdf:about=""><dc:format>image/svg+xml</dc:format><dc:type
           rdf:resource="http://purl.org/dc/dcmitype/StillImage" /><dc:title></dc:title></cc:Work></rdf:RDF></metadata><defs
     id="defs6"><clipPath
       clipPathUnits="userSpaceOnUse"
       id="clipPath16"><path
         d="m 0,0 595.276,0 0,841.89 L 0,841.89 0,0 Z"
         id="path18"
         inkscape:connector-curvature="0" /></clipPath></defs><sodipodi:namedview
     pagecolor="#ffffff"
     bordercolor="#666666"
     borderopacity="1"
     objecttolerance="10"
     gridtolerance="10"
     guidetolerance="10"
     inkscape:pageopacity="0"
     inkscape:pageshadow="2"
     inkscape:window-width="1920"
     inkscape:window-height="1135"
     id="namedview4"
     showgrid="false"
     inkscape:zoom="0.86749736"
     inkscape:cx="-12.865405"
     inkscape:cy="81.101578"
     inkscape:window-x="0"
     inkscape:window-y="0"
     inkscape:window-maximized="1"
     inkscape:current-layer="g10"
     fit-margin-top="6"
     fit-margin-left="6"
     fit-margin-right="6"
     fit-margin-bottom="6"
     showguides="true"
     inkscape:guide-bbox="true" /><g
     id="g10"
     inkscape:groupmode="layer"
     inkscape:label="HREA_winnerlist_2013"
     transform="matrix(1.25,0,0,-1.25,-276.05315,610.72705)"><g
       id="g4298"
       transform="matrix(3.0525358,0,0,3.0525358,-532.61577,-2055.8312)"><g
         id="g4250"><path
           d="m 299.33455,751.86539 c -0.17221,0 -1.14613,-0.46313 -1.14613,-1.84166 0,-3.25447 4.44992,2.17104 3.65073,-2.00719 -0.18977,-0.99231 -0.35613,-1.97793 -2.51881,-7.82394 -4.39558,-11.88262 -5.87861,-0.97141 -5.87861,5.57097 0,6.54238 2.5163,10.86523 4.33205,17.20531 2.54555,8.89148 3.66075,15.74652 3.90904,22.33738 0.19729,5.25246 -0.89868,13.4643 0.0761,14.80354 0,0 0.17639,-0.60693 0.17639,-0.60693 -1.3802,-2.52131 6.38605,-21.27569 1.19964,-35.99228 -2.78215,-7.89332 -8.19428,-13.68666 -6.77813,-19.65723 1.41699,-5.96974 4.16318,-1.29159 3.29878,2.75622 0,0 -2.68935,-6.33756 -2.68935,0.8318 0,3.79368 2.42016,5.10868 2.42016,4.44825 0,0 -0.0518,-0.0242 -0.0518,-0.0242 z"
           style="fill:#9f8c50;fill-opacity:1;fill-rule:nonzero;stroke:none"
           id="path28"
           inkscape:connector-curvature="0" /><path
           d="m 292.80028,747.50751 c 0,7.27971 8.68249,21.13692 7.9811,41.30995 0,0 -12.28974,10.37033 -1.09597,17.93512 20.83011,14.07706 12.84901,25.21566 12.84901,25.21566 1.34092,-7.90085 -21.83914,-18.85636 -21.83914,-43.32633 0,-8.33222 6.02825,-22.25964 3.33305,-31.48635 -2.55809,-8.7569 -3.02624,-11.44959 -2.71191,-11.76392 0.16301,-0.16218 1.48386,2.11587 1.48386,2.11587 z"
           style="fill:#b9a978;fill-opacity:1;fill-rule:nonzero;stroke:none"
           id="path34"
           inkscape:connector-curvature="0" /><g
           id="g4230"><path
             inkscape:connector-curvature="0"
             id="path40"
             style="fill:#9f8c50;fill-opacity:1;fill-rule:nonzero;stroke:none"
             d="m 315.7723,712.28149 -35.43803,0 0,5.57654 35.43803,0 0,-5.57654 z" /><path
             inkscape:connector-curvature="0"
             id="path46"
             style="fill:#ffffff;fill-opacity:1;fill-rule:nonzero;stroke:none"
             d="m 280.96988,717.2768 1.12317,0 0,-0.35986 -0.70006,0 0,-1.68818 0.66843,0 0,-0.35985 -0.66843,0 0,-1.86854 0.70006,0 0,-0.359 -1.12317,0 0,4.63543 z" /><path
             inkscape:connector-curvature="0"
             id="path52"
             style="fill:#ffffff;fill-opacity:1;fill-rule:nonzero;stroke:none"
             d="m 285.49565,717.2768 0.42311,0 -0.54534,-2.30532 0.59065,-2.33011 -0.42312,0 -0.41114,1.9523 -0.0128,0 -0.41115,-1.9523 -0.42311,0 0.60347,2.33011 -0.55902,2.30532 0.42396,0 0.36585,-1.88135 0.0128,0 0.36584,1.88135 z" /><path
             inkscape:connector-curvature="0"
             id="path58"
             style="fill:#ffffff;fill-opacity:1;fill-rule:nonzero;stroke:none"
             d="m 289.16775,716.66042 c 0,0.19831 -0.071,0.2949 -0.23763,0.2949 -0.16668,0 -0.23762,-0.0966 -0.23762,-0.2949 0,0 0,-3.40285 0,-3.40285 0,-0.19831 0.0709,-0.2949 0.23762,-0.2949 0.16668,0 0.23763,0.0966 0.23763,0.2949 0,0 0,0.64877 0,0.64877 l 0.42397,0 c 0,0 0,-0.66159 0,-0.66159 0,-0.39149 -0.21882,-0.64194 -0.6616,-0.64194 -0.44277,0 -0.66074,0.25045 -0.66074,0.64194 0,0 0,3.42849 0,3.42849 0,0.39149 0.21797,0.64194 0.66074,0.64194 0.44278,0 0.6616,-0.25045 0.6616,-0.64194 0,0 0,-0.61031 0,-0.61031 l -0.42397,0 c 0,0 0,0.59749 0,0.59749 z" /><path
             inkscape:connector-curvature="0"
             id="path64"
             style="fill:#ffffff;fill-opacity:1;fill-rule:nonzero;stroke:none"
             d="m 291.9797,717.2768 1.12317,0 0,-0.35986 -0.70006,0 0,-1.68818 0.66843,0 0,-0.35985 -0.66843,0 0,-1.86854 0.70006,0 0,-0.359 -1.12317,0 0,4.63543 z" /><path
             inkscape:connector-curvature="0"
             id="path70"
             style="fill:#ffffff;fill-opacity:1;fill-rule:nonzero;stroke:none"
             d="m 295.56803,717.2768 0.42397,0 0,-4.27643 0.6992,0 0,-0.359 -1.12317,0 0,4.63543 z" /><path
             inkscape:connector-curvature="0"
             id="path76"
             style="fill:#ffffff;fill-opacity:1;fill-rule:nonzero;stroke:none"
             d="m 299.15663,717.2768 0.42397,0 0,-4.27643 0.70006,0 0,-0.359 -1.12403,0 0,4.63543 z" /><path
             inkscape:connector-curvature="0"
             id="path82"
             style="fill:#ffffff;fill-opacity:1;fill-rule:nonzero;stroke:none"
             d="m 302.74522,717.2768 1.12317,0 0,-0.35986 -0.70006,0 0,-1.68818 0.66843,0 0,-0.35985 -0.66843,0 0,-1.86854 0.70006,0 0,-0.359 -1.12317,0 0,4.63543 z" /><path
             inkscape:connector-curvature="0"
             id="path88"
             style="fill:#ffffff;fill-opacity:1;fill-rule:nonzero;stroke:none"
             d="m 307.46382,717.2768 0.37183,0 0,-4.63543 -0.60262,0 -0.53338,4.12171 -0.0128,0 0,-4.12171 -0.37268,0 0,4.63543 0.61715,0 0.5197,-3.96786 0.0128,0 0,3.96786 z" /><path
             inkscape:connector-curvature="0"
             id="path94"
             style="fill:#ffffff;fill-opacity:1;fill-rule:nonzero;stroke:none"
             d="m 311.2962,716.66042 c 0,0.19831 -0.0709,0.2949 -0.23763,0.2949 -0.16668,0 -0.23762,-0.0966 -0.23762,-0.2949 0,0 0,-3.40285 0,-3.40285 0,-0.19831 0.0709,-0.2949 0.23762,-0.2949 0.16668,0 0.23763,0.0966 0.23763,0.2949 0,0 0,0.64877 0,0.64877 l 0.42397,0 c 0,0 0,-0.66159 0,-0.66159 0,-0.39149 -0.21882,-0.64194 -0.6616,-0.64194 -0.44277,0 -0.66159,0.25045 -0.66159,0.64194 0,0 0,3.42849 0,3.42849 0,0.39149 0.21882,0.64194 0.66159,0.64194 0.44278,0 0.6616,-0.25045 0.6616,-0.64194 0,0 0,-0.61031 0,-0.61031 l -0.42397,0 c 0,0 0,0.59749 0,0.59749 z" /><path
             inkscape:connector-curvature="0"
             id="path100"
             style="fill:#ffffff;fill-opacity:1;fill-rule:nonzero;stroke:none"
             d="m 314.10823,717.2768 1.12317,0 0,-0.35986 -0.70006,0 0,-1.68818 0.66843,0 0,-0.35985 -0.66843,0 0,-1.86854 0.70006,0 0,-0.359 -1.12317,0 0,4.63543 z" /><path
             inkscape:connector-curvature="0"
             id="path106"
             style="fill:#231f20;fill-opacity:1;fill-rule:nonzero;stroke:none"
             d="m 288.25977,708.16902 -0.74451,0 -0.17352,-1.28387 -0.42311,0 0.6804,4.63543 0.57783,0 0.6804,-4.63543 -0.42397,0 -0.17352,1.28387 z m -0.36584,3.03017 -0.0128,0 -0.32054,-2.67117 0.65475,0 -0.32139,2.67117 z" /><path
             inkscape:connector-curvature="0"
             id="path112"
             style="fill:#231f20;fill-opacity:1;fill-rule:nonzero;stroke:none"
             d="m 293.13916,711.52033 0.39747,0 -0.46842,-4.63543 -0.55218,0 -0.32054,4.12171 -0.0128,0 -0.3214,-4.12171 -0.55218,0 -0.46841,4.63543 0.39832,0 0.34618,-4.14736 0.0128,0 0.32738,4.14736 0.52654,0 0.35302,-4.14736 0.0128,0 0.32139,4.14736 z" /><path
             inkscape:connector-curvature="0"
             id="path118"
             style="fill:#231f20;fill-opacity:1;fill-rule:nonzero;stroke:none"
             d="m 296.86246,708.16902 -0.74451,0 -0.17352,-1.28387 -0.42396,0 0.6804,4.63543 0.57782,0 0.6804,-4.63543 -0.42311,0 -0.17352,1.28387 z m -0.36584,3.03017 -0.0128,0 -0.3214,-2.67117 0.65476,0 -0.32054,2.67117 z" /><path
             inkscape:connector-curvature="0"
             id="path124"
             style="fill:#231f20;fill-opacity:1;fill-rule:nonzero;stroke:none"
             d="m 300.84912,708.83002 c 0,0.22481 -0.13505,0.28293 -0.33422,0.28293 0,0 -0.28207,0 -0.28207,0 l 0,-2.22839 -0.42397,0 0,4.63543 c 0,0 0.78981,0 0.78981,0 0.40431,0 0.65476,-0.071 0.65476,-0.53338 0,0 0,-1.17446 0,-1.17446 0,-0.35986 -0.13506,-0.48123 -0.46243,-0.50004 0,0 0,-0.0137 0,-0.0137 0.30173,-0.0188 0.48123,-0.10856 0.48123,-0.4291 0,0 0,-1.98478 0,-1.98478 l -0.42311,0 c 0,0 0,1.94546 0,1.94546 z m -0.33422,0.64193 c 0.19917,0 0.31456,0.0581 0.31456,0.33422 0,0 0,1.04026 0,1.04026 0,0.26925 -0.14104,0.3137 -0.359,0.3137 0,0 -0.23763,0 -0.23763,0 l 0,-1.68818 c 0,0 0.28207,0 0.28207,0 z" /><path
             inkscape:connector-curvature="0"
             id="path130"
             style="fill:#231f20;fill-opacity:1;fill-rule:nonzero;stroke:none"
             d="m 303.89211,711.52033 c 0,0 0.72485,0 0.72485,0 0.57782,0 0.71972,-0.2949 0.71972,-0.75135 0,0 0,-3.13274 0,-3.13274 0,-0.45645 -0.1419,-0.75134 -0.71972,-0.75134 0,0 -0.72485,0 -0.72485,0 l 0,4.63543 z m 0.64792,-4.27643 c 0.28293,0 0.37268,0.0898 0.37268,0.35986 0,0 0,3.19685 0,3.19685 0,0.27011 -0.0897,0.35986 -0.37268,0.35986 0,0 -0.22481,0 -0.22481,0 l 0,-3.91657 c 0,0 0.22481,0 0.22481,0 z" /><path
             inkscape:connector-curvature="0"
             id="path136"
             style="fill:#231f20;fill-opacity:1;fill-rule:nonzero;stroke:none"
             d="m 308.7515,710.88455 c 0,0.1795 -0.0453,0.31456 -0.24361,0.31456 -0.19916,0 -0.24361,-0.13506 -0.24361,-0.31456 0,0 0,-0.48808 0,-0.48808 0,-0.14787 0.0256,-0.29489 0.0957,-0.41712 0,0 0.67442,-1.15566 0.67442,-1.15566 0.0957,-0.15984 0.15386,-0.359 0.15386,-0.565 0,0 0,-0.73169 0,-0.73169 0,-0.43679 -0.25729,-0.6804 -0.6804,-0.6804 -0.46927,0 -0.69408,0.21113 -0.69408,0.6804 0,0 0,0.63595 0,0.63595 l 0.42397,0 c 0,0 0,-0.6103 0,-0.6103 0,-0.21883 0.0838,-0.34704 0.27011,-0.34704 0.17352,0 0.25643,0.12821 0.25643,0.34704 0,0 0,0.64877 0,0.64877 0,0.1607 -0.0316,0.28207 -0.12138,0.44277 0,0 -0.62313,1.08471 -0.62313,1.08471 -0.11624,0.19916 -0.1795,0.35302 -0.1795,0.59065 0,0 0,0.55902 0,0.55902 0,0.45559 0.23677,0.6804 0.66758,0.6804 0.4744,0 0.66758,-0.22481 0.66758,-0.64878 0,0 0,-0.59064 0,-0.59064 l -0.42397,0 c 0,0 0,0.565 0,0.565 z" /><path
             inkscape:connector-curvature="0"
             id="path148"
             style="fill:#231f20;fill-opacity:1;fill-rule:nonzero;stroke:none"
             d="m 272.60386,721.23444 -0.622,0 0,2.00301 -0.41401,0 0,-4.53403 0.41401,0 0,2.17902 0.622,0 0,-2.17902 0.414,0 0,4.53403 -0.414,0 0,-2.00301 z m 3.85503,-1.79001 c 0,-0.32601 -0.1,-0.42701 -0.314,-0.42701 -0.20701,0 -0.31401,0.101 -0.31401,0.42701 0,0 0,3.79302 0,3.79302 l -0.414,0 c 0,0 0,-3.92402 0,-3.92402 0,-0.50301 0.377,-0.64701 0.72201,-0.64701 0.358,0 0.735,0.144 0.735,0.64701 0,0 0,3.92402 0,3.92402 l -0.415,0 c 0,0 0,-3.79302 0,-3.79302 z m 3.89403,-0.263 -0.013,0 -0.46501,4.05602 -0.64,0 0,-4.53403 0.364,0 0,4.18203 0.013,0 0.477,-4.18203 0.51501,0 0.477,4.18203 0.013,0 0,-4.18203 0.364,0 0,4.53403 -0.641,0 -0.464,-4.05602 z m 4.72103,-0.47801 0.415,0 -0.666,4.53403 -0.565,0 -0.66501,-4.53403 0.414,0 0.17,1.25601 0.72801,0 0.169,-1.25601 z m -0.213,1.60801 -0.64001,0 0.31301,2.61202 0.013,0 0.314,-2.61202 z m 3.90603,-0.955 -0.013,0 -0.50901,3.88102 -0.602,0 0,-4.53403 0.364,0 0,4.03203 0.012,0 0.52201,-4.03203 0.59,0 0,4.53403 -0.364,0 0,-3.88102 z m 5.78304,1.87801 0,1.65101 c 0,0 0.232,0 0.232,0 0.214,0 0.352,-0.044 0.352,-0.307 0,0 0,-1.01701 0,-1.01701 0,-0.27 -0.113,-0.327 -0.308,-0.327 0,0 -0.276,0 -0.276,0 z m 0.603,-2.53102 0.41401,0 c 0,0 0,1.94102 0,1.94102 0,0.314 -0.176,0.402 -0.47101,0.42 0,0 0,0.013 0,0.013 0.32001,0.019 0.45201,0.138 0.45201,0.49 0,0 0,1.14901 0,1.14901 0,0.452 -0.245,0.521 -0.64001,0.521 0,0 -0.773,0 -0.773,0 l 0,-4.53403 0.415,0 0,2.17902 c 0,0 0.276,0 0.276,0 0.195,0 0.327,-0.056 0.327,-0.276 0,0 0,-1.90302 0,-1.90302 z m 2.83103,0 1.099,0 0,0.352 -0.684,0 0,1.82702 0.653,0 0,0.352 -0.653,0 0,1.65101 0.684,0 0,0.352 -1.099,0 0,-4.53403 z m 4.18203,3.36003 0.415,0 c 0,0 0,0.578 0,0.578 0,0.414 -0.189,0.634 -0.65301,0.634 -0.421,0 -0.653,-0.22 -0.653,-0.666 0,0 0,-0.546 0,-0.546 0,-0.23201 0.062,-0.38301 0.176,-0.57801 0,0 0.60901,-1.06101 0.60901,-1.06101 0.088,-0.157 0.119,-0.276 0.119,-0.433 0,0 0,-0.635 0,-0.635 0,-0.21301 -0.082,-0.33901 -0.25101,-0.33901 -0.182,0 -0.264,0.126 -0.264,0.33901 0,0 0,0.597 0,0.597 l -0.414,0 c 0,0 0,-0.622 0,-0.622 0,-0.45801 0.219,-0.66501 0.678,-0.66501 0.41401,0 0.66501,0.238 0.66501,0.66501 0,0 0,0.716 0,0.716 0,0.201 -0.056,0.396 -0.15,0.55301 0,0 -0.66001,1.13 -0.66001,1.13 -0.069,0.119 -0.094,0.26401 -0.094,0.40801 0,0 0,0.477 0,0.477 0,0.176 0.044,0.308 0.239,0.308 0.19401,0 0.23801,-0.132 0.23801,-0.308 0,0 0,-0.552 0,-0.552 z m 2.70702,-2.63102 c 0,-0.44601 0.169,-0.76601 0.728,-0.76601 0.559,0 0.72901,0.32 0.72901,0.76601 0,0 0,3.07702 0,3.07702 0,0.446 -0.17001,0.766 -0.72901,0.766 -0.559,0 -0.728,-0.32 -0.728,-0.766 0,0 0,-3.07702 0,-3.07702 z m 0.414,3.06402 c 0,0.251 0.05,0.427 0.314,0.427 0.264,0 0.314,-0.176 0.314,-0.427 0,0 0,-3.05202 0,-3.05202 0,-0.251 -0.05,-0.42701 -0.314,-0.42701 -0.264,0 -0.314,0.17601 -0.314,0.42701 0,0 0,3.05202 0,3.05202 z m 4.48403,-3.05202 c 0,-0.32601 -0.101,-0.42701 -0.314,-0.42701 -0.208,0 -0.314,0.101 -0.314,0.42701 0,0 0,3.79302 0,3.79302 l -0.41501,0 c 0,0 0,-3.92402 0,-3.92402 0,-0.50301 0.37701,-0.64701 0.72201,-0.64701 0.358,0 0.735,0.144 0.735,0.64701 0,0 0,3.92402 0,3.92402 l -0.414,0 c 0,0 0,-3.79302 0,-3.79302 z m 3.22702,1.79001 0,1.65101 c 0,0 0.23201,0 0.23201,0 0.214,0 0.352,-0.044 0.352,-0.307 0,0 0,-1.01701 0,-1.01701 0,-0.27 -0.113,-0.327 -0.308,-0.327 0,0 -0.27601,0 -0.27601,0 z m 0.60301,-2.53102 0.414,0 c 0,0 0,1.94102 0,1.94102 0,0.314 -0.175,0.402 -0.471,0.42 0,0 0,0.013 0,0.013 0.321,0.019 0.453,0.138 0.453,0.49 0,0 0,1.14901 0,1.14901 0,0.452 -0.245,0.521 -0.641,0.521 0,0 -0.77201,0 -0.77201,0 l 0,-4.53403 0.414,0 0,2.17902 c 0,0 0.27601,0 0.27601,0 0.195,0 0.327,-0.056 0.327,-0.276 0,0 0,-1.90302 0,-1.90302 z m 3.71103,3.34703 0.414,0 c 0,0 0,0.597 0,0.597 0,0.383 -0.213,0.628 -0.64601,0.628 -0.434,0 -0.647,-0.245 -0.647,-0.628 0,0 0,-3.35302 0,-3.35302 0,-0.38301 0.213,-0.62801 0.647,-0.62801 0.43301,0 0.64601,0.245 0.64601,0.62801 0,0 0,0.646 0,0.646 l -0.414,0 c 0,0 0,-0.634 0,-0.634 0,-0.19401 -0.069,-0.28901 -0.23201,-0.28901 -0.164,0 -0.233,0.095 -0.233,0.28901 0,0 0,3.32802 0,3.32802 0,0.195 0.069,0.289 0.233,0.289 0.16301,0 0.23201,-0.094 0.23201,-0.289 0,0 0,-0.584 0,-0.584 z m 2.62502,-3.34703 1.099,0 0,0.352 -0.685,0 0,1.82702 0.653,0 0,0.352 -0.653,0 0,1.65101 0.685,0 0,0.352 -1.099,0 0,-4.53403 z m 4.18203,3.36003 0.414,0 c 0,0 0,0.578 0,0.578 0,0.414 -0.188,0.634 -0.65301,0.634 -0.421,0 -0.653,-0.22 -0.653,-0.666 0,0 0,-0.546 0,-0.546 0,-0.23201 0.063,-0.38301 0.176,-0.57801 0,0 0.60901,-1.06101 0.60901,-1.06101 0.088,-0.157 0.119,-0.276 0.119,-0.433 0,0 0,-0.635 0,-0.635 0,-0.21301 -0.081,-0.33901 -0.25101,-0.33901 -0.182,0 -0.264,0.126 -0.264,0.33901 0,0 0,0.597 0,0.597 l -0.414,0 c 0,0 0,-0.622 0,-0.622 0,-0.45801 0.22,-0.66501 0.678,-0.66501 0.41401,0 0.66601,0.238 0.66601,0.66501 0,0 0,0.716 0,0.716 0,0.201 -0.057,0.396 -0.151,0.55301 0,0 -0.65901,1.13 -0.65901,1.13 -0.07,0.119 -0.095,0.26401 -0.095,0.40801 0,0 0,0.477 0,0.477 0,0.176 0.044,0.308 0.239,0.308 0.19501,0 0.23901,-0.132 0.23901,-0.308 0,0 0,-0.552 0,-0.552 z" /></g><g
           transform="matrix(1,0,0,-1,7.420075,-5.9223243)"
           style="font-style:normal;font-weight:normal;font-size:6.34018898px;line-height:125%;font-family:sans-serif;letter-spacing:0px;word-spacing:0px;fill:#231f20;fill-opacity:1;stroke:none;stroke-width:1px;stroke-linecap:butt;stroke-linejoin:miter;stroke-opacity:1"
           id="text3366"><path
             d="m 252.07152,-730.46442 0.41845,0 0,-4.57761 -0.41845,0 0,4.57761 z"
             style="font-style:normal;font-variant:normal;font-weight:300;font-stretch:ultra-condensed;font-family:'Univers LT Std';-inkscape-font-specification:'Univers LT Std Light Ultra-Condensed';letter-spacing:1.94000006px;word-spacing:0px;fill:#231f20;fill-opacity:1"
             id="path3390"
             inkscape:connector-curvature="0" /><path
             d="m 256.19235,-731.1238 -0.0127,0 -0.51356,-3.91823 -0.60866,0 0,4.57761 0.36773,0 0,-4.0704 0.0127,0 0.52624,4.0704 0.59598,0 0,-4.57761 -0.36773,0 0,3.91823 z"
             style="font-style:normal;font-variant:normal;font-weight:300;font-stretch:ultra-condensed;font-family:'Univers LT Std';-inkscape-font-specification:'Univers LT Std Light Ultra-Condensed';letter-spacing:1.94000006px;word-spacing:0px;fill:#231f20;fill-opacity:1"
             id="path3392"
             inkscape:connector-curvature="0" /><path
             d="m 260.24987,-731.1238 -0.0127,0 -0.51356,-3.91823 -0.60865,0 0,4.57761 0.36773,0 0,-4.0704 0.0127,0 0.52623,4.0704 0.59598,0 0,-4.57761 -0.36773,0 0,3.91823 z"
             style="font-style:normal;font-variant:normal;font-weight:300;font-stretch:ultra-condensed;font-family:'Univers LT Std';-inkscape-font-specification:'Univers LT Std Light Ultra-Condensed';letter-spacing:1.94000006px;word-spacing:0px;fill:#231f20;fill-opacity:1"
             id="path3394"
             inkscape:connector-curvature="0" /><path
             d="m 263.19152,-731.19988 c 0,0.45015 0.17119,0.7735 0.73546,0.7735 0.56428,0 0.73546,-0.32335 0.73546,-0.7735 l 0,-3.10669 c 0,-0.45015 -0.17118,-0.7735 -0.73546,-0.7735 -0.56427,0 -0.73546,0.32335 -0.73546,0.7735 l 0,3.10669 z m 0.41845,-3.09401 c 0,-0.25361 0.0507,-0.43113 0.31701,-0.43113 0.26629,0 0.31701,0.17752 0.31701,0.43113 l 0,3.08133 c 0,0.25361 -0.0507,0.43113 -0.31701,0.43113 -0.26629,0 -0.31701,-0.17752 -0.31701,-0.43113 l 0,-3.08133 z"
             style="font-style:normal;font-variant:normal;font-weight:300;font-stretch:ultra-condensed;font-family:'Univers LT Std';-inkscape-font-specification:'Univers LT Std Light Ultra-Condensed';letter-spacing:1.94000006px;word-spacing:0px;fill:#231f20;fill-opacity:1"
             id="path3396"
             inkscape:connector-curvature="0" /><path
             d="m 267.81332,-730.88287 -0.0127,0 -0.41211,-4.15916 -0.41845,0 0.53257,4.57761 0.60866,0 0.53258,-4.57761 -0.41846,0 -0.41211,4.15916 z"
             style="font-style:normal;font-variant:normal;font-weight:300;font-stretch:ultra-condensed;font-family:'Univers LT Std';-inkscape-font-specification:'Univers LT Std Light Ultra-Condensed';letter-spacing:1.94000006px;word-spacing:0px;fill:#231f20;fill-opacity:1"
             id="path3398"
             inkscape:connector-curvature="0" /><path
             d="m 272.10405,-730.46442 0.41845,0 -0.67206,-4.57761 -0.57062,0 -0.67206,4.57761 0.41845,0 0.17119,-1.26803 0.73546,0 0.17119,1.26803 z m -0.21557,-1.62308 -0.6467,0 0.31701,-2.63752 0.0127,0 0.31701,2.63752 z"
             style="font-style:normal;font-variant:normal;font-weight:300;font-stretch:ultra-condensed;font-family:'Univers LT Std';-inkscape-font-specification:'Univers LT Std Light Ultra-Condensed';letter-spacing:1.94000006px;word-spacing:0px;fill:#231f20;fill-opacity:1"
             id="path3400"
             inkscape:connector-curvature="0" /><path
             d="m 274.99943,-730.46442 0.41845,0 0,-4.22256 0.46918,0 0,-0.35505 -1.3568,0 0,0.35505 0.46917,0 0,4.22256 z"
             style="font-style:normal;font-variant:normal;font-weight:300;font-stretch:ultra-condensed;font-family:'Univers LT Std';-inkscape-font-specification:'Univers LT Std Light Ultra-Condensed';letter-spacing:1.94000006px;word-spacing:0px;fill:#231f20;fill-opacity:1"
             id="path3402"
             inkscape:connector-curvature="0" /><path
             d="m 278.29475,-730.46442 0.41845,0 0,-4.57761 -0.41845,0 0,4.57761 z"
             style="font-style:normal;font-variant:normal;font-weight:300;font-stretch:ultra-condensed;font-family:'Univers LT Std';-inkscape-font-specification:'Univers LT Std Light Ultra-Condensed';letter-spacing:1.94000006px;word-spacing:0px;fill:#231f20;fill-opacity:1"
             id="path3404"
             inkscape:connector-curvature="0" /><path
             d="m 281.2997,-731.19988 c 0,0.45015 0.17119,0.7735 0.73546,0.7735 0.56428,0 0.73546,-0.32335 0.73546,-0.7735 l 0,-3.10669 c 0,-0.45015 -0.17118,-0.7735 -0.73546,-0.7735 -0.56427,0 -0.73546,0.32335 -0.73546,0.7735 l 0,3.10669 z m 0.41845,-3.09401 c 0,-0.25361 0.0507,-0.43113 0.31701,-0.43113 0.26629,0 0.31701,0.17752 0.31701,0.43113 l 0,3.08133 c 0,0.25361 -0.0507,0.43113 -0.31701,0.43113 -0.26629,0 -0.31701,-0.17752 -0.31701,-0.43113 l 0,-3.08133 z"
             style="font-style:normal;font-variant:normal;font-weight:300;font-stretch:ultra-condensed;font-family:'Univers LT Std';-inkscape-font-specification:'Univers LT Std Light Ultra-Condensed';letter-spacing:1.94000006px;word-spacing:0px;fill:#231f20;fill-opacity:1"
             id="path3406"
             inkscape:connector-curvature="0" /><path
             d="m 286.4731,-731.1238 -0.0127,0 -0.51356,-3.91823 -0.60866,0 0,4.57761 0.36773,0 0,-4.0704 0.0127,0 0.52624,4.0704 0.59598,0 0,-4.57761 -0.36773,0 0,3.91823 z"
             style="font-style:normal;font-variant:normal;font-weight:300;font-stretch:ultra-condensed;font-family:'Univers LT Std';-inkscape-font-specification:'Univers LT Std Light Ultra-Condensed';letter-spacing:1.94000006px;word-spacing:0px;fill:#231f20;fill-opacity:1"
             id="path3408"
             inkscape:connector-curvature="0" /><path
             d="m 292.23396,-731.19988 c 0,0.45015 0.17118,0.7735 0.73546,0.7735 0.56427,0 0.73546,-0.32335 0.73546,-0.7735 l 0,-3.10669 c 0,-0.45015 -0.17119,-0.7735 -0.73546,-0.7735 -0.56428,0 -0.73546,0.32335 -0.73546,0.7735 l 0,3.10669 z m 0.41845,-3.09401 c 0,-0.25361 0.0507,-0.43113 0.31701,-0.43113 0.26629,0 0.31701,0.17752 0.31701,0.43113 l 0,3.08133 c 0,0.25361 -0.0507,0.43113 -0.31701,0.43113 -0.26629,0 -0.31701,-0.17752 -0.31701,-0.43113 l 0,-3.08133 z"
             style="font-style:normal;font-variant:normal;font-weight:300;font-stretch:ultra-condensed;font-family:'Univers LT Std';-inkscape-font-specification:'Univers LT Std Light Ultra-Condensed';letter-spacing:1.94000006px;word-spacing:0px;fill:#231f20;fill-opacity:1"
             id="path3410"
             inkscape:connector-curvature="0" /><path
             d="m 296.29148,-730.46442 0.41845,0 0,-2.20004 0.65938,0 0,-0.35505 -0.65938,0 0,-1.66747 0.69108,0 0,-0.35505 -1.10953,0 0,4.57761 z"
             style="font-style:normal;font-variant:normal;font-weight:300;font-stretch:ultra-condensed;font-family:'Univers LT Std';-inkscape-font-specification:'Univers LT Std Light Ultra-Condensed';letter-spacing:1.94000006px;word-spacing:0px;fill:#231f20;fill-opacity:1"
             id="path3412"
             inkscape:connector-curvature="0" /><path
             d="m 302.82832,-730.46442 0.41845,0 0,-4.22256 0.46917,0 0,-0.35505 -1.3568,0 0,0.35505 0.46918,0 0,4.22256 z"
             style="font-style:normal;font-variant:normal;font-weight:300;font-stretch:ultra-condensed;font-family:'Univers LT Std';-inkscape-font-specification:'Univers LT Std Light Ultra-Condensed';letter-spacing:1.94000006px;word-spacing:0px;fill:#231f20;fill-opacity:1"
             id="path3414"
             inkscape:connector-curvature="0" /><path
             d="m 307.16976,-733.01951 -0.62768,0 0,-2.02252 -0.41845,0 0,4.57761 0.41845,0 0,-2.20004 0.62768,0 0,2.20004 0.41845,0 0,-4.57761 -0.41845,0 0,2.02252 z"
             style="font-style:normal;font-variant:normal;font-weight:300;font-stretch:ultra-condensed;font-family:'Univers LT Std';-inkscape-font-specification:'Univers LT Std Light Ultra-Condensed';letter-spacing:1.94000006px;word-spacing:0px;fill:#231f20;fill-opacity:1"
             id="path3416"
             inkscape:connector-curvature="0" /><path
             d="m 310.18115,-730.46442 1.10954,0 0,-0.35505 -0.69108,0 0,-1.84499 0.65938,0 0,-0.35505 -0.65938,0 0,-1.66747 0.69108,0 0,-0.35505 -1.10954,0 0,4.57761 z"
             style="font-style:normal;font-variant:normal;font-weight:300;font-stretch:ultra-condensed;font-family:'Univers LT Std';-inkscape-font-specification:'Univers LT Std Light Ultra-Condensed';letter-spacing:1.94000006px;word-spacing:0px;fill:#231f20;fill-opacity:1"
             id="path3418"
             inkscape:connector-curvature="0" /><path
             d="m 316.99062,-732.96245 -0.0127,0 -0.39944,-2.07958 -0.41845,0 0.615,2.58679 0,1.99082 0.41845,0 0,-1.99082 0.615,-2.58679 -0.41845,0 -0.39943,2.07958 z"
             style="font-style:normal;font-variant:normal;font-weight:300;font-stretch:ultra-condensed;font-family:'Univers LT Std';-inkscape-font-specification:'Univers LT Std Light Ultra-Condensed';letter-spacing:1.94000006px;word-spacing:0px;fill:#231f20;fill-opacity:1"
             id="path3420"
             inkscape:connector-curvature="0" /><path
             d="m 320.12476,-730.46442 1.10953,0 0,-0.35505 -0.69108,0 0,-1.84499 0.65938,0 0,-0.35505 -0.65938,0 0,-1.66747 0.69108,0 0,-0.35505 -1.10953,0 0,4.57761 z"
             style="font-style:normal;font-variant:normal;font-weight:300;font-stretch:ultra-condensed;font-family:'Univers LT Std';-inkscape-font-specification:'Univers LT Std Light Ultra-Condensed';letter-spacing:1.94000006px;word-spacing:0px;fill:#231f20;fill-opacity:1"
             id="path3422"
             inkscape:connector-curvature="0" /><path
             d="m 324.97975,-730.46442 0.41846,0 -0.67206,-4.57761 -0.57062,0 -0.67206,4.57761 0.41845,0 0.17119,-1.26803 0.73546,0 0.17118,1.26803 z m -0.21556,-1.62308 -0.6467,0 0.31701,-2.63752 0.0127,0 0.31701,2.63752 z"
             style="font-style:normal;font-variant:normal;font-weight:300;font-stretch:ultra-condensed;font-family:'Univers LT Std';-inkscape-font-specification:'Univers LT Std Light Ultra-Condensed';letter-spacing:1.94000006px;word-spacing:0px;fill:#231f20;fill-opacity:1"
             id="path3424"
             inkscape:connector-curvature="0" /><path
             d="m 328.17531,-733.01951 0,-1.66747 0.23459,0 c 0.21557,0 0.35505,0.0444 0.35505,0.31067 l 0,1.02711 c 0,0.27263 -0.11412,0.32969 -0.31067,0.32969 l -0.27897,0 z m 0.60866,2.55509 0.41845,0 0,-1.95911 c 0,-0.31701 -0.17752,-0.40578 -0.47551,-0.4248 l 0,-0.0127 c 0.32335,-0.019 0.45649,-0.13948 0.45649,-0.49453 l 0,-1.16026 c 0,-0.45649 -0.24727,-0.52623 -0.6467,-0.52623 l -0.77984,0 0,4.57761 0.41845,0 0,-2.20004 0.27897,0 c 0.19655,0 0.32969,0.0571 0.32969,0.27897 l 0,1.92107 z"
             style="font-style:normal;font-variant:normal;font-weight:300;font-stretch:ultra-condensed;font-family:'Univers LT Std';-inkscape-font-specification:'Univers LT Std Light Ultra-Condensed';letter-spacing:1.94000006px;word-spacing:0px;fill:#231f20;fill-opacity:1"
             id="path3426"
             inkscape:connector-curvature="0" /></g><g
           transform="matrix(1,0,0,-1,-0.59708,-5.9223243)"
           style="font-style:normal;font-weight:normal;font-size:6.34018898px;line-height:125%;font-family:sans-serif;letter-spacing:0px;word-spacing:0px;fill:#231f20;fill-opacity:1;stroke:none;stroke-width:1px;stroke-linecap:butt;stroke-linejoin:miter;stroke-opacity:1"
           id="text3374"><path
             d="m 292.44034,-710.28836 0.3931,0 0,-0.52623 c 0,-0.25361 0.0824,-0.37407 0.2536,-0.37407 0.17119,0 0.25361,0.12046 0.25361,0.37407 l 0,0.36139 c 0,0.22191 -0.0254,0.41211 -0.10144,0.62768 l -0.85593,2.51071 0,0.4248 1.3568,0 0,-0.35506 -0.98907,0 0.88129,-2.53607 c 0.0634,-0.18387 0.10144,-0.43113 0.10144,-0.60232 l 0,-0.44381 c 0,-0.41845 -0.20922,-0.6784 -0.62768,-0.6784 -0.46283,0 -0.66572,0.22824 -0.66572,0.68474 l 0,0.53257 z"
             style="font-style:normal;font-variant:normal;font-weight:300;font-stretch:ultra-condensed;font-family:'Univers LT Std';-inkscape-font-specification:'Univers LT Std Light Ultra-Condensed';letter-spacing:1.94000006px;word-spacing:0px;fill:#231f20;fill-opacity:1"
             id="path3381"
             inkscape:connector-curvature="0" /><path
             d="m 296.09467,-707.53037 c 0,0.57695 0.36773,0.6784 0.65304,0.6784 0.28531,0 0.65304,-0.10145 0.65304,-0.6784 l 0,-3.2969 c 0,-0.57696 -0.36773,-0.6784 -0.65304,-0.6784 -0.28531,0 -0.65304,0.10144 -0.65304,0.6784 l 0,3.2969 z m 0.91299,0.0444 c 0,0.11412 0,0.31701 -0.25995,0.31701 -0.25995,0 -0.25995,-0.20289 -0.25995,-0.31701 l 0,-3.38566 c 0,-0.11413 0,-0.31701 0.25995,-0.31701 0.25995,0 0.25995,0.20288 0.25995,0.31701 l 0,3.38566 z"
             style="font-style:normal;font-variant:normal;font-weight:300;font-stretch:ultra-condensed;font-family:'Univers LT Std';-inkscape-font-specification:'Univers LT Std Light Ultra-Condensed';letter-spacing:1.94000006px;word-spacing:0px;fill:#231f20;fill-opacity:1"
             id="path3383"
             inkscape:connector-curvature="0" /><path
             d="m 300.29426,-706.89001 0.41845,0 0,-4.57762 -0.36139,0 c -0.10779,0.10144 -0.32335,0.26629 -0.47552,0.33603 l 0,0.42479 c 0.12047,-0.0634 0.32335,-0.20288 0.41846,-0.28531 l 0,4.10211 z"
             style="font-style:normal;font-variant:normal;font-weight:300;font-stretch:ultra-condensed;font-family:'Univers LT Std';-inkscape-font-specification:'Univers LT Std Light Ultra-Condensed';letter-spacing:1.94000006px;word-spacing:0px;fill:#231f20;fill-opacity:1"
             id="path3385"
             inkscape:connector-curvature="0" /><path
             d="m 304.17683,-708.41166 -0.49453,0 0.48185,-2.57412 0.0127,0 0,2.57412 z m 0,1.52165 0.41845,0 0,-1.20464 0.32969,0 0,-0.31701 -0.32969,0 0,-3.05597 -0.59597,0 -0.63402,2.91015 0,0.46283 0.81154,0 0,1.20464 z"
             style="font-style:normal;font-variant:normal;font-weight:300;font-stretch:ultra-condensed;font-family:'Univers LT Std';-inkscape-font-specification:'Univers LT Std Light Ultra-Condensed';letter-spacing:1.94000006px;word-spacing:0px;fill:#231f20;fill-opacity:1"
             id="path3387"
             inkscape:connector-curvature="0" /></g></g></g><path
       transform="matrix(0.96592583,-0.25881905,-0.25881905,-0.96592583,-205.15072,171.03693)"
       style="color:#000000;clip-rule:nonzero;display:inline;overflow:visible;visibility:visible;opacity:0.85;isolation:auto;mix-blend-mode:normal;color-interpolation:sRGB;color-interpolation-filters:linearRGB;solid-color:#000000;solid-opacity:1;fill:#9f8c50;fill-opacity:1;fill-rule:nonzero;stroke:none;stroke-width:29.1760006;stroke-linecap:round;stroke-linejoin:round;stroke-miterlimit:4;stroke-dasharray:none;stroke-dashoffset:0;stroke-opacity:1;color-rendering:auto;image-rendering:auto;shape-rendering:auto;text-rendering:auto;enable-background:accumulate"
       d="m 672.40389,-208.27579 -2.04496,6.75985 -7.05604,0.29961 -3.66182,6.03891 -6.90886,-1.46457 -5.0486,4.93853 -6.32758,-3.13672 -6.11815,3.52785 -5.34872,-4.61179 -6.80327,1.89549 -4.03378,-5.79706 -7.06093,0.14403 -2.46538,-6.6181 -6.87491,-1.61647 -0.74207,-7.0233 -6.25692,-3.27541 1.02787,-6.98719 -5.24579,-4.72854 2.73322,-6.51206 -3.90505,-5.88455 4.26684,-5.62775 -2.31894,-6.67083 5.53235,-4.38982 -0.58711,-7.03795 6.45024,-2.87606 1.1816,-6.96285 6.96285,-1.1816 2.87607,-6.45024 7.03794,0.58711 4.38982,-5.53235 6.67083,2.31893 5.62775,-4.26683 5.88455,3.90505 6.51206,-2.73323 4.72854,5.2458 6.98719,-1.02787 3.27541,6.25692 7.0233,0.74207 1.61647,6.87491 6.6181,2.46538 -0.14403,7.06092 5.79707,4.03378 -1.89549,6.80328 4.61178,5.34872 -3.52785,6.11814 3.13673,6.32759 -4.93854,5.04859 1.46457,6.90887 -6.03891,3.66182 -0.29961,7.05603 z"
       id="path4431"
       inkscape:connector-curvature="0" /><g
       transform="matrix(0.96592583,-0.25881905,-0.25881905,-0.96592583,-204.18332,172.1279)"
       style="font-style:normal;font-weight:normal;font-size:24.33494186px;line-height:125%;font-family:sans-serif;letter-spacing:0px;word-spacing:0px;fill:#000000;fill-opacity:1;stroke:none;stroke-width:1px;stroke-linecap:butt;stroke-linejoin:miter;stroke-opacity:1"
       id="text4433"><path
         d="m 611.00391,-232.4207 1.58177,-0.4867 c 3.57724,-5.13467 4.67231,-6.74078 7.30048,-10.73171 -0.0487,2.92019 -0.31635,9.00393 -0.53536,11.21841 l 1.55743,-0.51104 c 0.82739,-1.26541 1.11941,-1.67911 2.67685,-3.60157 4.62363,-5.6457 6.20541,-8.41989 6.20541,-10.78038 0,-0.68138 -0.0973,-1.07073 -0.36503,-1.6061 -0.34069,-0.19468 -0.41369,-0.21902 -0.9734,-0.38936 -0.68137,0.31635 -0.94906,0.4867 -1.55743,0.99773 0.65704,0.68138 0.90039,1.31409 0.90039,2.31182 0,1.09507 -0.38936,2.38482 -1.16808,3.89359 -0.97339,1.87379 -2.26315,3.60157 -5.23201,7.08147 0.073,-1.11941 0.12168,-1.87379 0.12168,-2.14148 l 0.14601,-3.43122 c 0.073,-1.70345 0.12167,-2.79852 0.34068,-6.18108 l -1.41142,0.55971 c -1.11941,1.89812 -5.35369,8.17654 -7.17881,10.6587 0.26768,-1.97113 1.21675,-7.32482 1.80079,-10.24501 0.51103,-0.17034 0.80305,-0.34069 1.26541,-0.77872 -4.72098,0.0487 -5.013,0.0487 -5.88905,0.34069 -2.09281,0.68138 -3.45557,2.36049 -3.45557,4.28295 0,0.82739 0.19468,1.48443 0.60838,2.19015 l 1.82512,-1.14375 c -0.58404,-0.87605 -0.80305,-1.55743 -0.80305,-2.38482 0,-1.02207 0.48669,-1.75212 1.38709,-2.06847 0.58404,-0.21902 1.21674,-0.26769 2.9932,-0.29202 -0.24335,1.67911 -0.29202,2.0928 -0.51104,3.40689 -0.92473,5.59704 -1.26542,7.68984 -1.28975,7.83585 l -0.34069,1.99547 z"
         style="font-style:italic;font-variant:normal;font-weight:500;font-stretch:normal;font-family:Z003;-inkscape-font-specification:'Z003 Medium Italic';fill:#ffffff"
         id="path4438"
         inkscape:connector-curvature="0" /><path
         d="m 632.63539,-247.82472 c -0.68138,0.53537 -1.24108,0.9734 -1.67911,1.26542 0.17035,0.51103 0.38936,0.92472 0.92473,1.70344 0.68138,-0.60837 0.75438,-0.68138 1.58177,-1.31408 -0.073,-0.14601 -0.12167,-0.24335 -0.31635,-0.55971 -0.14601,-0.29202 -0.17035,-0.29202 -0.36503,-0.77872 l -0.14601,-0.31635 z m 0.92473,12.16747 -0.41369,0.21901 c -1.67912,0.92473 -1.97113,1.04641 -2.26315,1.04641 -0.26769,0 -0.43803,-0.26769 -0.43803,-0.68138 0,-0.4137 0,-0.4137 0.80305,-3.62591 0.90039,-3.69891 0.90039,-3.69891 0.90039,-3.89359 0,-0.14601 -0.12167,-0.24335 -0.29202,-0.24335 -0.41369,0 -1.84945,0.80306 -3.84492,2.14148 l -0.0487,0.68138 c 1.48443,-0.80306 1.55744,-0.82739 1.77645,-0.82739 0.19468,0 0.29202,0.14601 0.29202,0.41369 0,0.34069 -0.073,0.68138 -0.43803,2.06847 -1.14374,4.23428 -1.14374,4.23428 -1.14374,4.86699 0,0.58404 0.21902,0.9734 0.58404,0.9734 0.41369,0 1.07074,-0.31636 2.36049,-1.14374 0.46236,-0.29202 0.92473,-0.58404 1.38709,-0.9004 0.21902,-0.12167 0.38936,-0.24335 0.68138,-0.41369 l 0.0973,-0.68138 z"
         style="font-style:italic;font-variant:normal;font-weight:500;font-stretch:normal;font-family:Z003;-inkscape-font-specification:'Z003 Medium Italic';fill:#ffffff"
         id="path4440"
         inkscape:connector-curvature="0" /><path
         d="m 635.82897,-233.29676 1.43577,-5.71871 0.60837,-0.38936 c 2.26315,-1.41143 2.53083,-1.55744 2.87152,-1.55744 0.14601,0 0.24335,0.12168 0.24335,0.31636 0,0.38936 -0.17034,1.09507 -0.90039,4.06393 -0.53537,2.14148 -0.63271,2.57951 -0.63271,3.04187 0,0.34069 0.0973,0.63271 0.36502,1.09507 1.09508,-0.4867 2.79852,-1.55743 4.50197,-2.82285 l 0.17034,-0.68138 c -2.36049,1.36276 -2.53083,1.43576 -2.77418,1.43576 -0.24335,0 -0.38936,-0.24335 -0.38936,-0.65704 0,-0.65704 0.0973,-1.07074 1.16808,-4.93999 0.60837,-2.16581 0.60837,-2.16581 0.60837,-2.31182 0,-0.26769 -0.17034,-0.4137 -0.46236,-0.4137 -0.53537,0 -0.60838,0.0487 -3.23655,1.65478 -0.9734,0.60837 -1.60611,0.99773 -1.89813,1.19241 0.24335,-0.85172 0.58404,-2.33615 0.58404,-2.53083 0,-0.19468 -0.12167,-0.31636 -0.31635,-0.31636 -0.26769,0 -1.92246,0.85173 -3.82059,1.97113 l -0.14601,0.63271 c 1.55744,-0.70571 1.65478,-0.73005 1.87379,-0.73005 0.17035,0 0.29202,0.14601 0.29202,0.34069 0,0.53537 -0.43803,2.48217 -1.07073,4.74532 l -0.55971,1.97113 c -0.0487,0.17034 -0.17034,0.6327 -0.34069,1.31408 l 1.82512,-0.70571 z"
         style="font-style:italic;font-variant:normal;font-weight:500;font-stretch:normal;font-family:Z003;-inkscape-font-specification:'Z003 Medium Italic';fill:#ffffff"
         id="path4442"
         inkscape:connector-curvature="0" /><path
         d="m 647.04586,-233.29676 1.43576,-5.71871 0.60838,-0.38936 c 2.26315,-1.41143 2.53083,-1.55744 2.87152,-1.55744 0.14601,0 0.24335,0.12168 0.24335,0.31636 0,0.38936 -0.17034,1.09507 -0.90039,4.06393 -0.53537,2.14148 -0.63271,2.57951 -0.63271,3.04187 0,0.34069 0.0973,0.63271 0.36502,1.09507 1.09507,-0.4867 2.79852,-1.55743 4.50197,-2.82285 l 0.17034,-0.68138 c -2.36049,1.36276 -2.53083,1.43576 -2.77418,1.43576 -0.24335,0 -0.38936,-0.24335 -0.38936,-0.65704 0,-0.65704 0.0973,-1.07074 1.16808,-4.93999 0.60837,-2.16581 0.60837,-2.16581 0.60837,-2.31182 0,-0.26769 -0.17034,-0.4137 -0.46236,-0.4137 -0.53537,0 -0.60838,0.0487 -3.23655,1.65478 -0.9734,0.60837 -1.60611,0.99773 -1.89813,1.19241 0.24335,-0.85172 0.58404,-2.33615 0.58404,-2.53083 0,-0.19468 -0.12167,-0.31636 -0.31635,-0.31636 -0.26769,0 -1.92246,0.85173 -3.82059,1.97113 l -0.14601,0.63271 c 1.55744,-0.70571 1.65478,-0.73005 1.87379,-0.73005 0.17035,0 0.29202,0.14601 0.29202,0.34069 0,0.53537 -0.43803,2.48217 -1.07074,4.74532 l -0.5597,1.97113 c -0.0487,0.17034 -0.17034,0.6327 -0.34069,1.31408 l 1.82512,-0.70571 z"
         style="font-style:italic;font-variant:normal;font-weight:500;font-stretch:normal;font-family:Z003;-inkscape-font-specification:'Z003 Medium Italic';fill:#ffffff"
         id="path4444"
         inkscape:connector-curvature="0" /><path
         d="m 663.51909,-236.16828 c -1.94679,1.65477 -2.99319,2.26315 -3.91792,2.26315 -0.63271,0 -1.11941,-0.4137 -1.28975,-1.04641 -0.0973,-0.38936 -0.12168,-0.65704 -0.12168,-1.36275 1.11941,-0.70572 1.80079,-1.19242 3.23655,-2.26315 1.33842,-0.99774 1.82512,-1.80079 1.82512,-2.89586 0,-0.85172 -0.51103,-1.36276 -1.38709,-1.36276 -0.53537,0 -0.90039,0.12168 -1.48443,0.43803 -0.92473,0.53537 -1.75212,1.19241 -2.23882,1.77645 -0.92473,1.11941 -1.75211,3.79625 -1.75211,5.76738 0,1.43577 0.75438,2.33616 1.99546,2.33616 1.43576,0 3.28522,-1.07074 5.11034,-2.94453 l 0.0243,-0.70571 z m -5.25634,-1.02207 c 0.41369,-2.62817 1.50876,-4.62364 2.5795,-4.62364 0.38936,0 0.65704,0.38936 0.65704,0.99773 0,1.21675 -0.70571,1.99547 -3.23654,3.62591 z"
         style="font-style:italic;font-variant:normal;font-weight:500;font-stretch:normal;font-family:Z003;-inkscape-font-specification:'Z003 Medium Italic';fill:#ffffff"
         id="path4446"
         inkscape:connector-curvature="0" /><path
         d="m 664.73204,-232.59105 1.87379,-0.70571 1.82512,-6.93546 c 0.82739,-0.63271 1.38709,-0.85172 2.04413,-0.85172 0.53537,0 0.85173,0.19468 1.28976,0.75438 l 0.73004,-2.31182 c -0.43802,-0.14601 -0.65704,-0.19468 -0.90039,-0.19468 -0.46236,0 -0.94906,0.21902 -1.6061,0.68138 -0.31636,0.24335 -0.63271,0.4867 -0.9734,0.70571 -0.14601,0.12168 -0.31636,0.24335 -0.46237,0.34069 l 0.29202,-1.46009 c 0,-0.14601 -0.14601,-0.26769 -0.31635,-0.26769 -0.31636,0 -2.45783,1.04641 -3.94226,1.92246 l -0.073,0.65705 c 1.41143,-0.68138 1.43576,-0.70572 1.75212,-0.70572 0.31635,0 0.46236,0.17035 0.46236,0.51104 0,0.34069 -0.24335,1.46009 -0.53537,2.53083 l -1.46009,5.32935 z"
         style="font-style:italic;font-variant:normal;font-weight:500;font-stretch:normal;font-family:Z003;-inkscape-font-specification:'Z003 Medium Italic';fill:#ffffff"
         id="path4448"
         inkscape:connector-curvature="0" /></g></g></svg>