<?xml version="1.0" encoding="UTF-8" standalone="no"?>
<!-- Created with Inkscape (http://www.inkscape.org/) -->

<svg
   xmlns:dc="http://purl.org/dc/elements/1.1/"
   xmlns:cc="http://creativecommons.org/ns#"
   xmlns:rdf="http://www.w3.org/1999/02/22-rdf-syntax-ns#"
   xmlns:svg="http://www.w3.org/2000/svg"
   xmlns="http://www.w3.org/2000/svg"
   xmlns:sodipodi="http://sodipodi.sourceforge.net/DTD/sodipodi-0.dtd"
   xmlns:inkscape="http://www.inkscape.org/namespaces/inkscape"
   id="svg2"
   version="1.1"
   inkscape:version="0.91 r13725"
   xml:space="preserve"
   width="391.82825"
   height="512"
   viewBox="0 0 391.82824 512.00001"
   sodipodi:docname="innovation-of-the-year-2014-human-resources-excellence-award.svg"><metadata
     id="metadata8"><rdf:RDF><cc:Work
         rdf:about=""><dc:format>image/svg+xml</dc:format><dc:type
           rdf:resource="http://purl.org/dc/dcmitype/StillImage" /><dc:title /></cc:Work></rdf:RDF></metadata><defs
     id="defs6"><clipPath
       clipPathUnits="userSpaceOnUse"
       id="clipPath16"><path
         d="m 0,0 595.276,0 0,841.89 L 0,841.89 0,0 Z"
         id="path18"
         inkscape:connector-curvature="0" /></clipPath></defs><sodipodi:namedview
     pagecolor="#ffffff"
     bordercolor="#666666"
     borderopacity="1"
     objecttolerance="10"
     gridtolerance="10"
     guidetolerance="10"
     inkscape:pageopacity="0"
     inkscape:pageshadow="2"
     inkscape:window-width="1920"
     inkscape:window-height="1135"
     id="namedview4"
     showgrid="false"
     inkscape:zoom="1.7349947"
     inkscape:cx="303.79405"
     inkscape:cy="0.8449658"
     inkscape:window-x="0"
     inkscape:window-y="0"
     inkscape:window-maximized="1"
     inkscape:current-layer="g10"
     fit-margin-top="6"
     fit-margin-left="6"
     fit-margin-right="6"
     fit-margin-bottom="6"
     showguides="true"
     inkscape:guide-bbox="true" /><g
     id="g10"
     inkscape:groupmode="layer"
     inkscape:label="HREA_winnerlist_2013"
     transform="matrix(1.25,0,0,-1.25,-276.05315,610.72705)"><path
       d="m 381.11366,239.26482 c -0.52568,0 -3.4986,-1.41372 -3.4986,-5.62173 0,-9.93439 13.58354,6.62717 11.14398,-6.12702 -0.57928,-3.02906 -1.0871,-6.0377 -7.68876,-23.88286 -13.41766,-36.27212 -17.94466,-2.96526 -17.94466,17.00559 0,19.97084 7.68109,33.1665 13.22373,52.51982 7.77039,27.14156 11.17457,48.06682 11.93249,68.18565 0.60223,16.03332 -2.74325,41.10026 0.2323,45.18834 0,0 0.53843,-1.85268 0.53843,-1.85268 -4.21311,-7.69639 19.49365,-64.9448 3.66195,-109.86772 -8.49262,-24.09464 -25.01334,-41.77902 -20.69049,-60.0044 4.32542,-18.22284 12.70826,-3.94262 10.06965,8.41346 0,0 -8.20934,-19.34563 -8.20934,2.5391 0,11.58034 7.38762,15.59443 7.38762,13.57844 0,0 -0.15812,-0.0739 -0.15812,-0.0739 z"
       style="fill:#9f8c50;fill-opacity:1;fill-rule:nonzero;stroke:none"
       id="path28"
       inkscape:connector-curvature="0" /><path
       d="m 361.16757,225.96224 c 0,22.22157 26.50361,64.5212 24.36259,126.1001 0,0 -37.51487,31.6558 -3.34549,54.74759 63.58466,42.97073 39.22207,76.97171 39.22207,76.97171 4.0932,-24.11763 -66.66476,-57.55972 -66.66476,-132.25518 0,-25.4344 18.40145,-67.94834 10.17425,-96.11321 -7.80866,-26.73075 -9.2377,-34.95028 -8.2782,-35.90978 0.4976,-0.49506 4.52954,6.45877 4.52954,6.45877 z"
       style="fill:#b9a978;fill-opacity:1;fill-rule:nonzero;stroke:none"
       id="path34"
       inkscape:connector-curvature="0" /><path
       d="m 431.29048,118.43355 -108.17585,0 0,17.02259 108.17585,0 0,-17.02259 z"
       style="fill:#9f8c50;fill-opacity:1;fill-rule:nonzero;stroke:none"
       id="path40"
       inkscape:connector-curvature="0" /><path
       d="m 325.05485,133.68191 3.42851,0 0,-1.09849 -2.13695,0 0,-5.15322 2.0404,0 0,-1.09846 -2.0404,0 0,-5.70379 2.13695,0 0,-1.09586 -3.42851,0 0,14.14982 z"
       style="fill:#ffffff;fill-opacity:1;fill-rule:nonzero;stroke:none"
       id="path46"
       inkscape:connector-curvature="0" /><path
       d="m 338.86992,133.68191 1.29156,0 -1.66467,-7.03707 1.80298,-7.11275 -1.29159,0 -1.25502,5.95947 -0.0391,0 -1.25505,-5.95947 -1.29156,0 1.84212,7.11275 -1.70643,7.03707 1.29415,0 1.11677,-5.74289 0.0391,0 1.11674,5.74289 z"
       style="fill:#ffffff;fill-opacity:1;fill-rule:nonzero;stroke:none"
       id="path52"
       inkscape:connector-curvature="0" /><path
       d="m 350.07914,131.80039 c 0,0.60535 -0.21673,0.90019 -0.72538,0.90019 -0.50879,0 -0.72534,-0.29487 -0.72534,-0.90019 0,0 0,-10.38732 0,-10.38732 0,-0.60535 0.21643,-0.9002 0.72534,-0.9002 0.5088,0 0.72538,0.29488 0.72538,0.9002 0,0 0,1.98039 0,1.98039 l 1.29418,0 c 0,0 0,-2.01953 0,-2.01953 0,-1.19503 -0.66795,-1.95954 -2.01956,-1.95954 -1.35157,0 -2.01693,0.76451 -2.01693,1.95954 0,0 0,10.46559 0,10.46559 0,1.19504 0.66536,1.95955 2.01693,1.95955 1.35161,0 2.01956,-0.76451 2.01956,-1.95955 0,0 0,-1.86299 0,-1.86299 l -1.29418,0 c 0,0 0,1.82386 0,1.82386 z"
       style="fill:#ffffff;fill-opacity:1;fill-rule:nonzero;stroke:none"
       id="path58"
       inkscape:connector-curvature="0" /><path
       d="m 358.66272,133.68191 3.42851,0 0,-1.09849 -2.13695,0 0,-5.15322 2.0404,0 0,-1.09846 -2.0404,0 0,-5.70379 2.13695,0 0,-1.09586 -3.42851,0 0,14.14982 z"
       style="fill:#ffffff;fill-opacity:1;fill-rule:nonzero;stroke:none"
       id="path64"
       inkscape:connector-curvature="0" /><path
       d="m 369.61622,133.68191 1.29419,0 0,-13.05396 2.13433,0 0,-1.09586 -3.42852,0 0,14.14982 z"
       style="fill:#ffffff;fill-opacity:1;fill-rule:nonzero;stroke:none"
       id="path70"
       inkscape:connector-curvature="0" /><path
       d="m 380.57055,133.68191 1.29419,0 0,-13.05396 2.13695,0 0,-1.09586 -3.43114,0 0,14.14982 z"
       style="fill:#ffffff;fill-opacity:1;fill-rule:nonzero;stroke:none"
       id="path76"
       inkscape:connector-curvature="0" /><path
       d="m 391.52485,133.68191 3.42852,0 0,-1.09849 -2.13696,0 0,-5.15322 2.04041,0 0,-1.09846 -2.04041,0 0,-5.70379 2.13696,0 0,-1.09586 -3.42852,0 0,14.14982 z"
       style="fill:#ffffff;fill-opacity:1;fill-rule:nonzero;stroke:none"
       id="path82"
       inkscape:connector-curvature="0" /><path
       d="m 405.92855,133.68191 1.13502,0 0,-14.14982 -1.83952,0 -1.62816,12.58167 -0.0391,0 0,-12.58167 -1.13762,0 0,14.14982 1.88387,0 1.58641,-12.11203 0.0391,0 0,12.11203 z"
       style="fill:#ffffff;fill-opacity:1;fill-rule:nonzero;stroke:none"
       id="path88"
       inkscape:connector-curvature="0" /><path
       d="m 417.62702,131.80039 c 0,0.60535 -0.21642,0.90019 -0.72537,0.90019 -0.5088,0 -0.72534,-0.29487 -0.72534,-0.90019 0,0 0,-10.38732 0,-10.38732 0,-0.60535 0.21642,-0.9002 0.72534,-0.9002 0.5088,0 0.72537,0.29488 0.72537,0.9002 0,0 0,1.98039 0,1.98039 l 1.29419,0 c 0,0 0,-2.01953 0,-2.01953 0,-1.19503 -0.66796,-1.95954 -2.01956,-1.95954 -1.35157,0 -2.01953,0.76451 -2.01953,1.95954 0,0 0,10.46559 0,10.46559 0,1.19504 0.66796,1.95955 2.01953,1.95955 1.3516,0 2.01956,-0.76451 2.01956,-1.95955 0,0 0,-1.86299 0,-1.86299 l -1.29419,0 c 0,0 0,1.82386 0,1.82386 z"
       style="fill:#ffffff;fill-opacity:1;fill-rule:nonzero;stroke:none"
       id="path94"
       inkscape:connector-curvature="0" /><path
       d="m 426.21085,133.68191 3.42851,0 0,-1.09849 -2.13695,0 0,-5.15322 2.0404,0 0,-1.09846 -2.0404,0 0,-5.70379 2.13695,0 0,-1.09586 -3.42851,0 0,14.14982 z"
       style="fill:#ffffff;fill-opacity:1;fill-rule:nonzero;stroke:none"
       id="path100"
       inkscape:connector-curvature="0" /><path
       d="m 347.3075,105.88009 -2.27265,0 -0.52967,-3.91906 -1.29156,0 2.07695,14.14981 1.76384,0 2.07695,-14.14981 -1.29419,0 -0.52967,3.91906 z m -1.11674,9.2497 -0.0391,0 -0.97846,-8.15384 1.99864,0 -0.98105,8.15384 z"
       style="fill:#ffffff;fill-opacity:1;fill-rule:nonzero;stroke:none"
       id="path106"
       inkscape:connector-curvature="0" /><path
       d="m 362.20201,116.11008 1.21329,0 -1.42987,-14.14982 -1.68555,0 -0.97846,12.58167 -0.0391,0 -0.98108,-12.58167 -1.68555,0 -1.42984,14.14982 1.21588,0 1.05673,-12.65997 0.0391,0 0.99934,12.65997 1.60729,0 1.0776,-12.65997 0.0391,0 0.98106,12.65997 z"
       style="fill:#ffffff;fill-opacity:1;fill-rule:nonzero;stroke:none"
       id="path112"
       inkscape:connector-curvature="0" /><path
       d="m 373.56752,105.88009 -2.27265,0 -0.52967,-3.91906 -1.29416,0 2.07695,14.14981 1.76382,0 2.07694,-14.14981 -1.29156,0 -0.52967,3.91906 z m -1.11674,9.2497 -0.0391,0 -0.98108,-8.15384 1.99868,0 -0.97846,8.15384 z"
       style="fill:#ffffff;fill-opacity:1;fill-rule:nonzero;stroke:none"
       id="path118"
       inkscape:connector-curvature="0" /><path
       d="m 385.73694,107.89781 c 0,0.68624 -0.41225,0.86366 -1.02022,0.86366 0,0 -0.86103,0 -0.86103,0 l 0,-6.80224 -1.29418,0 0,14.14981 c 0,0 2.41092,0 2.41092,0 1.23417,0 1.99868,-0.21673 1.99868,-1.62816 0,0 0,-3.58508 0,-3.58508 0,-1.09849 -0.41228,-1.46897 -1.41158,-1.52639 0,0 0,-0.0418 0,-0.0418 0.92104,-0.0574 1.46897,-0.33138 1.46897,-1.30984 0,0 0,-6.05862 0,-6.05862 l -1.29156,0 c 0,0 0,5.93859 0,5.93859 z m -1.02022,1.95952 c 0.60797,0 0.96021,0.17735 0.96021,1.02021 0,0 0,3.17544 0,3.17544 0,0.82189 -0.43053,0.95758 -1.09586,0.95758 0,0 -0.72538,0 -0.72538,0 l 0,-5.15323 c 0,0 0.86103,0 0.86103,0 z"
       style="fill:#ffffff;fill-opacity:1;fill-rule:nonzero;stroke:none"
       id="path124"
       inkscape:connector-curvature="0" /><path
       d="m 395.02578,116.11008 c 0,0 2.21263,0 2.21263,0 1.76381,0 2.19697,-0.90019 2.19697,-2.29352 0,0 0,-9.5628 0,-9.5628 0,-1.39333 -0.43316,-2.2935 -2.19697,-2.2935 0,0 -2.21263,0 -2.21263,0 l 0,14.14982 z m 1.97779,-13.05396 c 0.86366,0 1.13762,0.27412 1.13762,1.09849 0,0 0,9.7585 0,9.7585 0,0.82452 -0.27381,1.09848 -1.13762,1.09848 0,0 -0.68624,0 -0.68624,0 l 0,-11.95547 c 0,0 0.68624,0 0.68624,0 z"
       style="fill:#ffffff;fill-opacity:1;fill-rule:nonzero;stroke:none"
       id="path130"
       inkscape:connector-curvature="0" /><path
       d="m 409.85924,114.16934 c 0,0.54793 -0.13828,0.9602 -0.74363,0.9602 -0.60794,0 -0.74363,-0.41227 -0.74363,-0.9602 0,0 0,-1.48988 0,-1.48988 0,-0.45138 0.0781,-0.90017 0.29213,-1.27328 0,0 2.05869,-3.52769 2.05869,-3.52769 0.29213,-0.48792 0.46966,-1.09586 0.46966,-1.72468 0,0 0,-2.23351 0,-2.23351 0,-1.33332 -0.78538,-2.07695 -2.07694,-2.07695 -1.43247,0 -2.11871,0.64448 -2.11871,2.07695 0,0 0,1.94126 0,1.94126 l 1.29419,0 c 0,0 0,-1.86297 0,-1.86297 0,-0.66798 0.2558,-1.05935 0.82452,-1.05935 0.52967,0 0.78276,0.39137 0.78276,1.05935 0,0 0,1.9804 0,1.9804 0,0.49054 -0.0965,0.86103 -0.37052,1.35157 0,0 -1.90212,3.31112 -1.90212,3.31112 -0.35483,0.60794 -0.54793,1.0776 -0.54793,1.80298 0,0 0,1.70642 0,1.70642 0,1.39071 0.72274,2.07695 2.03781,2.07695 1.44812,0 2.03781,-0.68624 2.03781,-1.98042 0,0 0,-1.80295 0,-1.80295 l -1.29418,0 c 0,0 0,1.72468 0,1.72468 z"
       style="fill:#ffffff;fill-opacity:1;fill-rule:nonzero;stroke:none"
       id="path136"
       inkscape:connector-curvature="0" /><path
       d="m 299.51727,145.76275 -1.89868,0 0,6.11426 -1.26378,0 0,-13.84029 1.26378,0 0,6.65154 1.89868,0 0,-6.65154 1.26375,0 0,13.84029 -1.26375,0 0,-6.11426 z m 11.76762,-5.46407 c 0,-0.99516 -0.30525,-1.30346 -0.9585,-1.30346 -0.6319,0 -0.95852,0.3083 -0.95852,1.30346 0,0 0,11.57833 0,11.57833 l -1.26375,0 c 0,0 0,-11.97821 0,-11.97821 0,-1.53546 1.1508,-1.97502 2.20396,-1.97502 1.09281,0 2.24361,0.43956 2.24361,1.97502 0,0 0,11.97821 0,11.97821 l -1.2668,0 c 0,0 0,-11.57833 0,-11.57833 z m 11.88666,-0.80282 -0.0397,0 -1.41946,12.38115 -1.95362,0 0,-13.84029 1.11112,0 0,12.7658 0.0397,0 1.45605,-12.7658 1.57209,0 1.45606,12.7658 0.0397,0 0,-12.7658 1.11113,0 0,13.84029 -1.95668,0 -1.41638,-12.38115 z m 14.41112,-1.45914 1.2668,0 -2.03299,13.84029 -1.72468,0 -2.02997,-13.84029 1.26375,0 0.51893,3.83401 2.22228,0 0.51588,-3.83401 z m -0.65019,4.90851 -1.95366,0 0.95548,7.97328 0.0397,0 0.9585,-7.97328 z m 11.92329,-2.91517 -0.0397,0 -1.55377,11.84695 -1.83763,0 0,-13.84029 1.11113,0 0,12.30792 0.0366,0 1.59345,-12.30792 1.801,0 0,13.84029 -1.11113,0 0,-11.84695 z m 17.65294,5.73269 0,5.03977 c 0,0 0.70819,0 0.70819,0 0.65324,0 1.07449,-0.13432 1.07449,-0.93713 0,0 0,-3.10446 0,-3.10446 0,-0.82419 -0.34493,-0.99818 -0.94018,-0.99818 0,0 -0.8425,0 -0.8425,0 z m 1.84068,-7.72603 1.26378,0 c 0,0 0,5.92503 0,5.92503 0,0.9585 -0.53725,1.22712 -1.43777,1.28207 0,0 0,0.0397 0,0.0397 0.97684,0.058 1.37977,0.42125 1.37977,1.49574 0,0 0,3.5074 0,3.5074 0,1.37974 -0.74787,1.59037 -1.95365,1.59037 0,0 -2.35961,0 -2.35961,0 l 0,-13.84029 1.2668,0 0,6.65154 c 0,0 0.8425,0 0.8425,0 0.59525,0 0.99818,-0.17095 0.99818,-0.8425 0,0 0,-5.80904 0,-5.80904 z m 8.64182,0 3.35474,0 0,1.07449 -2.08794,0 0,5.57705 1.99331,0 0,1.07449 -1.99331,0 0,5.03977 2.08794,0 0,1.07449 -3.35474,0 0,-13.84029 z m 12.7658,10.25661 1.2668,0 c 0,0 0,1.76437 0,1.76437 0,1.26375 -0.57693,1.9353 -1.99334,1.9353 -1.28511,0 -1.9933,-0.67155 -1.9933,-2.03298 0,0 0,-1.66669 0,-1.66669 0,-0.70822 0.18925,-1.16915 0.53724,-1.7644 0,0 1.85903,-3.23877 1.85903,-3.23877 0.26862,-0.47924 0.36325,-0.8425 0.36325,-1.32174 0,0 0,-1.93836 0,-1.93836 0,-0.65023 -0.25031,-1.03484 -0.76622,-1.03484 -0.55556,0 -0.80587,0.38461 -0.80587,1.03484 0,0 0,1.82236 0,1.82236 l -1.26375,0 c 0,0 0,-1.89868 0,-1.89868 0,-1.39809 0.66851,-2.02996 2.06962,-2.02996 1.26378,0 2.02997,0.7265 2.02997,2.02996 0,0 0,2.18562 0,2.18562 0,0.61356 -0.17094,1.2088 -0.45788,1.68808 0,0 -2.0147,3.44937 -2.0147,3.44937 -0.21063,0.36325 -0.28694,0.8059 -0.28694,1.24546 0,0 0,1.45606 0,1.45606 0,0.53725 0.13431,0.94018 0.72955,0.94018 0.59223,0 0.72654,-0.40293 0.72654,-0.94018 0,0 0,-1.685 0,-1.685 z m 8.26327,-8.03128 c 0,-1.36146 0.51588,-2.33827 2.22225,-2.33827 1.70637,0 2.22533,0.97681 2.22533,2.33827 0,0 0,9.39271 0,9.39271 0,1.36143 -0.51896,2.33824 -2.22533,2.33824 -1.70637,0 -2.22225,-0.97681 -2.22225,-2.33824 0,0 0,-9.39271 0,-9.39271 z m 1.26375,9.35303 c 0,0.76619 0.15263,1.30343 0.9585,1.30343 0.80587,0 0.95849,-0.53724 0.95849,-1.30343 0,0 0,-9.3164 0,-9.3164 0,-0.76619 -0.15262,-1.30346 -0.95849,-1.30346 -0.80587,0 -0.9585,0.53727 -0.9585,1.30346 0,0 0,9.3164 0,9.3164 z m 13.68766,-9.3164 c 0,-0.99516 -0.3083,-1.30346 -0.95849,-1.30346 -0.63493,0 -0.9585,0.3083 -0.9585,1.30346 0,0 0,11.57833 0,11.57833 l -1.26683,0 c 0,0 0,-11.97821 0,-11.97821 0,-1.53546 1.15084,-1.97502 2.20396,-1.97502 1.09281,0 2.24361,0.43956 2.24361,1.97502 0,0 0,11.97821 0,11.97821 l -1.26375,0 c 0,0 0,-11.57833 0,-11.57833 z m 9.8506,5.46407 0,5.03977 c 0,0 0.70822,0 0.70822,0 0.65324,0 1.07449,-0.13432 1.07449,-0.93713 0,0 0,-3.10446 0,-3.10446 0,-0.82419 -0.34494,-0.99818 -0.94018,-0.99818 0,0 -0.84253,0 -0.84253,0 z m 1.84071,-7.72603 1.26375,0 c 0,0 0,5.92503 0,5.92503 0,0.9585 -0.5342,1.22712 -1.43775,1.28207 0,0 0,0.0397 0,0.0397 0.97987,0.058 1.3828,0.42125 1.3828,1.49574 0,0 0,3.5074 0,3.5074 0,1.37974 -0.74787,1.59037 -1.95667,1.59037 0,0 -2.35659,0 -2.35659,0 l 0,-13.84029 1.26375,0 0,6.65154 c 0,0 0.84253,0 0.84253,0 0.59524,0 0.99818,-0.17095 0.99818,-0.8425 0,0 0,-5.80904 0,-5.80904 z m 11.32805,10.21693 1.26375,0 c 0,0 0,1.82236 0,1.82236 0,1.16912 -0.65019,1.91699 -1.97197,1.91699 -1.3248,0 -1.97499,-0.74787 -1.97499,-1.91699 0,0 0,-10.23521 0,-10.23521 0,-1.16915 0.65019,-1.91702 1.97499,-1.91702 1.32178,0 1.97197,0.74787 1.97197,1.91702 0,0 0,1.97194 0,1.97194 l -1.26375,0 c 0,0 0,-1.93531 0,-1.93531 0,-0.59222 -0.21063,-0.88221 -0.70822,-0.88221 -0.50061,0 -0.71124,0.28999 -0.71124,0.88221 0,0 0,10.1589 0,10.1589 0,0.59524 0.21063,0.88218 0.71124,0.88218 0.49759,0 0.70822,-0.28694 0.70822,-0.88218 0,0 0,-1.78268 0,-1.78268 z m 8.01297,-10.21693 3.35473,0 0,1.07449 -2.09098,0 0,5.57705 1.9933,0 0,1.07449 -1.9933,0 0,5.03977 2.09098,0 0,1.07449 -3.35473,0 0,-13.84029 z m 12.76579,10.25661 1.26375,0 c 0,0 0,1.76437 0,1.76437 0,1.26375 -0.57387,1.9353 -1.99333,1.9353 -1.28512,0 -1.99331,-0.67155 -1.99331,-2.03298 0,0 0,-1.66669 0,-1.66669 0,-0.70822 0.19231,-1.16915 0.53725,-1.7644 0,0 1.85902,-3.23877 1.85902,-3.23877 0.26863,-0.47924 0.36325,-0.8425 0.36325,-1.32174 0,0 0,-1.93836 0,-1.93836 0,-0.65023 -0.24725,-1.03484 -0.76621,-1.03484 -0.55556,0 -0.80587,0.38461 -0.80587,1.03484 0,0 0,1.82236 0,1.82236 l -1.26375,0 c 0,0 0,-1.89868 0,-1.89868 0,-1.39809 0.67156,-2.02996 2.06962,-2.02996 1.26378,0 2.03302,0.7265 2.03302,2.02996 0,0 0,2.18562 0,2.18562 0,0.61356 -0.174,1.2088 -0.46094,1.68808 0,0 -2.01165,3.44937 -2.01165,3.44937 -0.21368,0.36325 -0.28999,0.8059 -0.28999,1.24546 0,0 0,1.45606 0,1.45606 0,0.53725 0.13431,0.94018 0.72956,0.94018 0.59527,0 0.72958,-0.40293 0.72958,-0.94018 0,0 0,-1.685 0,-1.685 z"
       style="fill:#ffffff;fill-opacity:1;fill-rule:nonzero;stroke:none"
       id="path148"
       inkscape:connector-curvature="0" /><path
       inkscape:connector-curvature="0"
       id="path3390"
       style="font-style:normal;font-variant:normal;font-weight:300;font-stretch:ultra-condensed;font-size:medium;line-height:125%;font-family:'Univers LT Std';-inkscape-font-specification:'Univers LT Std Light Ultra-Condensed';letter-spacing:1.94000006px;word-spacing:0px;fill:#ffffff;fill-opacity:1;stroke:none;stroke-width:1px;stroke-linecap:butt;stroke-linejoin:miter;stroke-opacity:1"
       d="m 259.49161,155.85949 1.27733,0 0,13.97332 -1.27733,0 0,-13.97332 z" /><path
       inkscape:connector-curvature="0"
       id="path3392"
       style="font-style:normal;font-variant:normal;font-weight:300;font-stretch:ultra-condensed;font-size:medium;line-height:125%;font-family:'Univers LT Std';-inkscape-font-specification:'Univers LT Std Light Ultra-Condensed';letter-spacing:1.94000006px;word-spacing:0px;fill:#ffffff;fill-opacity:1;stroke:none;stroke-width:1px;stroke-linecap:butt;stroke-linejoin:miter;stroke-opacity:1"
       d="m 272.07059,157.87227 -0.0388,0 -1.56766,11.96054 -1.85795,0 0,-13.97332 1.12251,0 0,12.42504 0.0388,0 1.60637,-12.42504 1.81925,0 0,13.97332 -1.12251,0 0,-11.96054 z" /><path
       inkscape:connector-curvature="0"
       id="path3394"
       style="font-style:normal;font-variant:normal;font-weight:300;font-stretch:ultra-condensed;font-size:medium;line-height:125%;font-family:'Univers LT Std';-inkscape-font-specification:'Univers LT Std Light Ultra-Condensed';letter-spacing:1.94000006px;word-spacing:0px;fill:#ffffff;fill-opacity:1;stroke:none;stroke-width:1px;stroke-linecap:butt;stroke-linejoin:miter;stroke-opacity:1"
       d="m 284.45632,157.87227 -0.0388,0 -1.56766,11.96054 -1.85793,0 0,-13.97332 1.12251,0 0,12.42504 0.0388,0 1.60633,-12.42504 1.81925,0 0,13.97332 -1.1225,0 0,-11.96054 z" /><path
       inkscape:connector-curvature="0"
       id="path3396"
       style="font-style:normal;font-variant:normal;font-weight:300;font-stretch:ultra-condensed;font-size:medium;line-height:125%;font-family:'Univers LT Std';-inkscape-font-specification:'Univers LT Std Light Ultra-Condensed';letter-spacing:1.94000006px;word-spacing:0px;fill:#ffffff;fill-opacity:1;stroke:none;stroke-width:1px;stroke-linecap:butt;stroke-linejoin:miter;stroke-opacity:1"
       d="m 293.43581,158.10451 c 0,-1.3741 0.52256,-2.36114 2.24502,-2.36114 1.72248,0 2.24501,0.98704 2.24501,2.36114 l 0,9.48328 c 0,1.3741 -0.52253,2.36114 -2.24501,2.36114 -1.72246,0 -2.24502,-0.98704 -2.24502,-2.36114 l 0,-9.48328 z m 1.27733,9.44458 c 0,0.77415 0.15476,1.31604 0.96769,1.31604 0.81285,0 0.96768,-0.54189 0.96768,-1.31604 l 0,-9.40587 c 0,-0.77416 -0.15476,-1.31604 -0.96768,-1.31604 -0.81286,0 -0.96769,0.54188 -0.96769,1.31604 l 0,9.40587 z" /><path
       inkscape:connector-curvature="0"
       id="path3398"
       style="font-style:normal;font-variant:normal;font-weight:300;font-stretch:ultra-condensed;font-size:medium;line-height:125%;font-family:'Univers LT Std';-inkscape-font-specification:'Univers LT Std Light Ultra-Condensed';letter-spacing:1.94000006px;word-spacing:0px;fill:#ffffff;fill-opacity:1;stroke:none;stroke-width:1px;stroke-linecap:butt;stroke-linejoin:miter;stroke-opacity:1"
       d="m 307.54402,157.13683 -0.0388,0 -1.25798,12.69598 -1.27733,0 1.62568,-13.97332 1.85796,0 1.62572,13.97332 -1.27736,0 -1.25798,-12.69598 z" /><path
       inkscape:connector-curvature="0"
       id="path3400"
       style="font-style:normal;font-variant:normal;font-weight:300;font-stretch:ultra-condensed;font-size:medium;line-height:125%;font-family:'Univers LT Std';-inkscape-font-specification:'Univers LT Std Light Ultra-Condensed';letter-spacing:1.94000006px;word-spacing:0px;fill:#ffffff;fill-opacity:1;stroke:none;stroke-width:1px;stroke-linecap:butt;stroke-linejoin:miter;stroke-opacity:1"
       d="m 320.64162,155.85949 1.27734,0 -2.05149,13.97332 -1.74184,0 -2.05148,-13.97332 1.27733,0 0.52256,3.87071 2.24502,0 0.52256,-3.87071 z m -0.65803,4.95451 -1.97408,0 0.96769,8.05113 0.0388,0 0.96768,-8.05113 z" /><path
       inkscape:connector-curvature="0"
       id="path3402"
       style="font-style:normal;font-variant:normal;font-weight:300;font-stretch:ultra-condensed;font-size:medium;line-height:125%;font-family:'Univers LT Std';-inkscape-font-specification:'Univers LT Std Light Ultra-Condensed';letter-spacing:1.94000006px;word-spacing:0px;fill:#ffffff;fill-opacity:1;stroke:none;stroke-width:1px;stroke-linecap:butt;stroke-linejoin:miter;stroke-opacity:1"
       d="m 329.47988,155.85949 1.27733,0 0,12.88952 1.43219,0 0,1.0838 -4.14168,0 0,-1.0838 1.43216,0 0,-12.88952 z" /><path
       inkscape:connector-curvature="0"
       id="path3404"
       style="font-style:normal;font-variant:normal;font-weight:300;font-stretch:ultra-condensed;font-size:medium;line-height:125%;font-family:'Univers LT Std';-inkscape-font-specification:'Univers LT Std Light Ultra-Condensed';letter-spacing:1.94000006px;word-spacing:0px;fill:#ffffff;fill-opacity:1;stroke:none;stroke-width:1px;stroke-linecap:butt;stroke-linejoin:miter;stroke-opacity:1"
       d="m 339.53896,155.85949 1.27733,0 0,13.97332 -1.27733,0 0,-13.97332 z" /><path
       inkscape:connector-curvature="0"
       id="path3406"
       style="font-style:normal;font-variant:normal;font-weight:300;font-stretch:ultra-condensed;font-size:medium;line-height:125%;font-family:'Univers LT Std';-inkscape-font-specification:'Univers LT Std Light Ultra-Condensed';letter-spacing:1.94000006px;word-spacing:0px;fill:#ffffff;fill-opacity:1;stroke:none;stroke-width:1px;stroke-linecap:butt;stroke-linejoin:miter;stroke-opacity:1"
       d="m 348.71167,158.10451 c 0,-1.3741 0.52257,-2.36114 2.24502,-2.36114 1.72249,0 2.24502,0.98704 2.24502,2.36114 l 0,9.48328 c 0,1.3741 -0.52253,2.36114 -2.24502,2.36114 -1.72245,0 -2.24502,-0.98704 -2.24502,-2.36114 l 0,-9.48328 z m 1.27734,9.44458 c 0,0.77415 0.15476,1.31604 0.96768,1.31604 0.81286,0 0.96769,-0.54189 0.96769,-1.31604 l 0,-9.40587 c 0,-0.77416 -0.15477,-1.31604 -0.96769,-1.31604 -0.81286,0 -0.96768,0.54188 -0.96768,1.31604 l 0,9.40587 z" /><path
       inkscape:connector-curvature="0"
       id="path3408"
       style="font-style:normal;font-variant:normal;font-weight:300;font-stretch:ultra-condensed;font-size:medium;line-height:125%;font-family:'Univers LT Std';-inkscape-font-specification:'Univers LT Std Light Ultra-Condensed';letter-spacing:1.94000006px;word-spacing:0px;fill:#ffffff;fill-opacity:1;stroke:none;stroke-width:1px;stroke-linecap:butt;stroke-linejoin:miter;stroke-opacity:1"
       d="m 364.50366,157.87227 -0.0388,0 -1.56766,11.96054 -1.85796,0 0,-13.97332 1.12251,0 0,12.42504 0.0388,0 1.60636,-12.42504 1.81925,0 0,13.97332 -1.12251,0 0,-11.96054 z" /><path
       inkscape:connector-curvature="0"
       id="path3410"
       style="font-style:normal;font-variant:normal;font-weight:300;font-stretch:ultra-condensed;font-size:medium;line-height:125%;font-family:'Univers LT Std';-inkscape-font-specification:'Univers LT Std Light Ultra-Condensed';letter-spacing:1.94000006px;word-spacing:0px;fill:#ffffff;fill-opacity:1;stroke:none;stroke-width:1px;stroke-linecap:butt;stroke-linejoin:miter;stroke-opacity:1"
       d="m 382.08889,158.10451 c 0,-1.3741 0.52254,-2.36114 2.24502,-2.36114 1.72246,0 2.24502,0.98704 2.24502,2.36114 l 0,9.48328 c 0,1.3741 -0.52256,2.36114 -2.24502,2.36114 -1.72248,0 -2.24502,-0.98704 -2.24502,-2.36114 l 0,-9.48328 z m 1.27734,9.44458 c 0,0.77415 0.15476,1.31604 0.96768,1.31604 0.81286,0 0.96769,-0.54189 0.96769,-1.31604 l 0,-9.40587 c 0,-0.77416 -0.15477,-1.31604 -0.96769,-1.31604 -0.81286,0 -0.96768,0.54188 -0.96768,1.31604 l 0,9.40587 z" /><path
       inkscape:connector-curvature="0"
       id="path3412"
       style="font-style:normal;font-variant:normal;font-weight:300;font-stretch:ultra-condensed;font-size:medium;line-height:125%;font-family:'Univers LT Std';-inkscape-font-specification:'Univers LT Std Light Ultra-Condensed';letter-spacing:1.94000006px;word-spacing:0px;fill:#ffffff;fill-opacity:1;stroke:none;stroke-width:1px;stroke-linecap:butt;stroke-linejoin:miter;stroke-opacity:1"
       d="m 394.47462,155.85949 1.27733,0 0,6.7157 2.01278,0 0,1.08381 -2.01278,0 0,5.09001 2.10955,0 0,1.0838 -3.38688,0 0,-13.97332 z" /><path
       inkscape:connector-curvature="0"
       id="path3414"
       style="font-style:normal;font-variant:normal;font-weight:300;font-stretch:ultra-condensed;font-size:medium;line-height:125%;font-family:'Univers LT Std';-inkscape-font-specification:'Univers LT Std Light Ultra-Condensed';letter-spacing:1.94000006px;word-spacing:0px;fill:#ffffff;fill-opacity:1;stroke:none;stroke-width:1px;stroke-linecap:butt;stroke-linejoin:miter;stroke-opacity:1"
       d="m 414.42856,155.85949 1.27733,0 0,12.88952 1.43216,0 0,1.0838 -4.14168,0 0,-1.0838 1.43219,0 0,-12.88952 z" /><path
       inkscape:connector-curvature="0"
       id="path3416"
       style="font-style:normal;font-variant:normal;font-weight:300;font-stretch:ultra-condensed;font-size:medium;line-height:125%;font-family:'Univers LT Std';-inkscape-font-specification:'Univers LT Std Light Ultra-Condensed';letter-spacing:1.94000006px;word-spacing:0px;fill:#ffffff;fill-opacity:1;stroke:none;stroke-width:1px;stroke-linecap:butt;stroke-linejoin:miter;stroke-opacity:1"
       d="m 427.68096,163.659 -1.91602,0 0,6.17381 -1.27733,0 0,-13.97332 1.27733,0 0,6.7157 1.91602,0 0,-6.7157 1.27733,0 0,13.97332 -1.27733,0 0,-6.17381 z" /><path
       inkscape:connector-curvature="0"
       id="path3418"
       style="font-style:normal;font-variant:normal;font-weight:300;font-stretch:ultra-condensed;font-size:medium;line-height:125%;font-family:'Univers LT Std';-inkscape-font-specification:'Univers LT Std Light Ultra-Condensed';letter-spacing:1.94000006px;word-spacing:0px;fill:#ffffff;fill-opacity:1;stroke:none;stroke-width:1px;stroke-linecap:butt;stroke-linejoin:miter;stroke-opacity:1"
       d="m 436.87333,155.85949 3.38692,0 0,1.08381 -2.10955,0 0,5.63189 2.01278,0 0,1.08381 -2.01278,0 0,5.09001 2.10955,0 0,1.0838 -3.38692,0 0,-13.97332 z" /><path
       inkscape:connector-curvature="0"
       id="path3420"
       style="font-style:normal;font-variant:normal;font-weight:300;font-stretch:ultra-condensed;font-size:medium;line-height:125%;font-family:'Univers LT Std';-inkscape-font-specification:'Univers LT Std Light Ultra-Condensed';letter-spacing:1.94000006px;word-spacing:0px;fill:#ffffff;fill-opacity:1;stroke:none;stroke-width:1px;stroke-linecap:butt;stroke-linejoin:miter;stroke-opacity:1"
       d="m 457.65949,163.48482 -0.0388,0 -1.21931,6.34799 -1.27733,0 1.87731,-7.89627 0,-6.07705 1.27733,0 0,6.07705 1.87731,7.89627 -1.27733,0 -1.21928,-6.34799 z" /><path
       inkscape:connector-curvature="0"
       id="path3422"
       style="font-style:normal;font-variant:normal;font-weight:300;font-stretch:ultra-condensed;font-size:medium;line-height:125%;font-family:'Univers LT Std';-inkscape-font-specification:'Univers LT Std Light Ultra-Condensed';letter-spacing:1.94000006px;word-spacing:0px;fill:#ffffff;fill-opacity:1;stroke:none;stroke-width:1px;stroke-linecap:butt;stroke-linejoin:miter;stroke-opacity:1"
       d="m 467.22656,155.85949 3.38688,0 0,1.08381 -2.10955,0 0,5.63189 2.01279,0 0,1.08381 -2.01279,0 0,5.09001 2.10955,0 0,1.0838 -3.38688,0 0,-13.97332 z" /><path
       inkscape:connector-curvature="0"
       id="path3424"
       style="font-style:normal;font-variant:normal;font-weight:300;font-stretch:ultra-condensed;font-size:medium;line-height:125%;font-family:'Univers LT Std';-inkscape-font-specification:'Univers LT Std Light Ultra-Condensed';letter-spacing:1.94000006px;word-spacing:0px;fill:#ffffff;fill-opacity:1;stroke:none;stroke-width:1px;stroke-linecap:butt;stroke-linejoin:miter;stroke-opacity:1"
       d="m 482.04659,155.85949 1.27737,0 -2.05149,13.97332 -1.74184,0 -2.05149,-13.97332 1.27734,0 0.52256,3.87071 2.24502,0 0.52253,-3.87071 z m -0.658,4.95451 -1.97408,0 0.96769,8.05113 0.0388,0 0.96769,-8.05113 z" /><path
       inkscape:connector-curvature="0"
       id="path3426"
       style="font-style:normal;font-variant:normal;font-weight:300;font-stretch:ultra-condensed;font-size:medium;line-height:125%;font-family:'Univers LT Std';-inkscape-font-specification:'Univers LT Std Light Ultra-Condensed';letter-spacing:1.94000006px;word-spacing:0px;fill:#ffffff;fill-opacity:1;stroke:none;stroke-width:1px;stroke-linecap:butt;stroke-linejoin:miter;stroke-opacity:1"
       d="m 491.80115,163.659 0,5.09001 0.7161,0 c 0.65803,0 1.0838,-0.13553 1.0838,-0.94833 l 0,-3.13529 c 0,-0.83222 -0.34836,-1.00639 -0.94833,-1.00639 l -0.85157,0 z m 1.85796,-7.79951 1.27733,0 0,5.98026 c 0,0.96768 -0.54188,1.23865 -1.45151,1.29671 l 0,0.0388 c 0.98704,0.058 1.39345,0.42577 1.39345,1.50957 l 0,3.54174 c 0,1.39345 -0.7548,1.60633 -1.97407,1.60633 l -2.38049,0 0,-13.97332 1.27733,0 0,6.7157 0.85157,0 c 0.59997,0 1.00639,-0.1743 1.00639,-0.85156 l 0,-5.86414 z" /><path
       inkscape:connector-curvature="0"
       id="path3381"
       style="font-style:normal;font-variant:normal;font-weight:300;font-stretch:ultra-condensed;font-size:medium;line-height:125%;font-family:'Univers LT Std';-inkscape-font-specification:'Univers LT Std Light Ultra-Condensed';letter-spacing:1.94000006px;word-spacing:0px;fill:#ffffff;fill-opacity:1;stroke:none;stroke-width:1px;stroke-linecap:butt;stroke-linejoin:miter;stroke-opacity:1"
       d="m 358.24623,94.271347 1.19995,0 0,1.606336 c 0,0.774154 0.25153,1.141862 0.77412,1.141862 0.52257,0 0.77416,-0.367708 0.77416,-1.141862 l 0,-1.103156 c 0,-0.677388 -0.0775,-1.25798 -0.30965,-1.916015 l -2.61276,-7.664033 0,-1.296717 4.14168,0 0,1.083834 -3.01917,0 2.69017,7.741444 c 0.19353,0.56127 0.30965,1.31604 0.30965,1.838603 l 0,1.354746 c 0,1.277334 -0.63865,2.070841 -1.91602,2.070841 -1.4128,0 -2.03213,-0.696711 -2.03213,-2.090194 l 0,-1.625689 z" /><path
       inkscape:connector-curvature="0"
       id="path3383"
       style="font-style:normal;font-variant:normal;font-weight:300;font-stretch:ultra-condensed;font-size:medium;line-height:125%;font-family:'Univers LT Std';-inkscape-font-specification:'Univers LT Std Light Ultra-Condensed';letter-spacing:1.94000006px;word-spacing:0px;fill:#ffffff;fill-opacity:1;stroke:none;stroke-width:1px;stroke-linecap:butt;stroke-linejoin:miter;stroke-opacity:1"
       d="m 369.4012,85.852484 c 0,-1.761161 1.12251,-2.07084 1.99343,-2.07084 0.87092,0 1.99343,0.309679 1.99343,2.07084 l 0,10.063905 c 0,1.761191 -1.12251,2.070841 -1.99343,2.070841 -0.87092,0 -1.99343,-0.30965 -1.99343,-2.070841 l 0,-10.063905 z m 2.78694,-0.135533 c 0,-0.348355 0,-0.967684 -0.79351,-0.967684 -0.79351,0 -0.79351,0.619329 -0.79351,0.967684 l 0,10.334849 c 0,0.348386 0,0.967684 0.79351,0.967684 0.79351,0 0.79351,-0.619298 0.79351,-0.967684 l 0,-10.334849 z" /><path
       inkscape:connector-curvature="0"
       id="path3385"
       style="font-style:normal;font-variant:normal;font-weight:300;font-stretch:ultra-condensed;font-size:medium;line-height:125%;font-family:'Univers LT Std';-inkscape-font-specification:'Univers LT Std Light Ultra-Condensed';letter-spacing:1.94000006px;word-spacing:0px;fill:#ffffff;fill-opacity:1;stroke:none;stroke-width:1px;stroke-linecap:butt;stroke-linejoin:miter;stroke-opacity:1"
       d="m 382.2206,83.897762 1.27733,0 0,13.973349 -1.10315,0 c -0.32904,-0.309649 -0.98704,-0.81286 -1.45154,-1.025743 l 0,-1.296687 c 0.36773,0.193531 0.98703,0.619298 1.27736,0.870919 l 0,-12.521838 z" /><path
       inkscape:connector-curvature="0"
       id="path3387"
       style="font-style:normal;font-variant:normal;font-weight:300;font-stretch:ultra-condensed;font-size:medium;line-height:125%;font-family:'Univers LT Std';-inkscape-font-specification:'Univers LT Std Light Ultra-Condensed';letter-spacing:1.94000006px;word-spacing:0px;fill:#ffffff;fill-opacity:1;stroke:none;stroke-width:1px;stroke-linecap:butt;stroke-linejoin:miter;stroke-opacity:1"
       d="m 394.07228,88.542653 -1.50957,0 1.47087,7.857594 0.0388,0 0,-7.857594 z m 0,-4.644891 1.27734,0 0,3.677207 1.00639,0 0,0.967684 -1.00639,0 0,9.328458 -1.81922,0 -1.93537,-8.883337 0,-1.412805 2.47725,0 0,-3.677207 z" /><path
       transform="matrix(0.96592583,-0.25881905,-0.25881905,-0.96592583,-205.15072,171.03693)"
       style="color:#000000;clip-rule:nonzero;display:inline;overflow:visible;visibility:visible;opacity:0.85;isolation:auto;mix-blend-mode:normal;color-interpolation:sRGB;color-interpolation-filters:linearRGB;solid-color:#000000;solid-opacity:1;fill:#9f8c50;fill-opacity:1;fill-rule:nonzero;stroke:none;stroke-width:29.1760006;stroke-linecap:round;stroke-linejoin:round;stroke-miterlimit:4;stroke-dasharray:none;stroke-dashoffset:0;stroke-opacity:1;color-rendering:auto;image-rendering:auto;shape-rendering:auto;text-rendering:auto;enable-background:accumulate"
       d="m 672.40389,-208.27579 -2.04496,6.75985 -7.05604,0.29961 -3.66182,6.03891 -6.90886,-1.46457 -5.0486,4.93853 -6.32758,-3.13672 -6.11815,3.52785 -5.34872,-4.61179 -6.80327,1.89549 -4.03378,-5.79706 -7.06093,0.14403 -2.46538,-6.6181 -6.87491,-1.61647 -0.74207,-7.0233 -6.25692,-3.27541 1.02787,-6.98719 -5.24579,-4.72854 2.73322,-6.51206 -3.90505,-5.88455 4.26684,-5.62775 -2.31894,-6.67083 5.53235,-4.38982 -0.58711,-7.03795 6.45024,-2.87606 1.1816,-6.96285 6.96285,-1.1816 2.87607,-6.45024 7.03794,0.58711 4.38982,-5.53235 6.67083,2.31893 5.62775,-4.26683 5.88455,3.90505 6.51206,-2.73323 4.72854,5.2458 6.98719,-1.02787 3.27541,6.25692 7.0233,0.74207 1.61647,6.87491 6.6181,2.46538 -0.14403,7.06092 5.79707,4.03378 -1.89549,6.80328 4.61178,5.34872 -3.52785,6.11814 3.13673,6.32759 -4.93854,5.04859 1.46457,6.90887 -6.03891,3.66182 -0.29961,7.05603 z"
       id="path4431"
       inkscape:connector-curvature="0" /><g
       transform="matrix(0.96592583,-0.25881905,-0.25881905,-0.96592583,-204.18332,172.1279)"
       style="font-style:normal;font-weight:normal;font-size:24.33494186px;line-height:125%;font-family:sans-serif;letter-spacing:0px;word-spacing:0px;fill:#000000;fill-opacity:1;stroke:none;stroke-width:1px;stroke-linecap:butt;stroke-linejoin:miter;stroke-opacity:1"
       id="text4433"><path
         d="m 611.00391,-232.4207 1.58177,-0.4867 c 3.57724,-5.13467 4.67231,-6.74078 7.30048,-10.73171 -0.0487,2.92019 -0.31635,9.00393 -0.53536,11.21841 l 1.55743,-0.51104 c 0.82739,-1.26541 1.11941,-1.67911 2.67685,-3.60157 4.62363,-5.6457 6.20541,-8.41989 6.20541,-10.78038 0,-0.68138 -0.0973,-1.07073 -0.36503,-1.6061 -0.34069,-0.19468 -0.41369,-0.21902 -0.9734,-0.38936 -0.68137,0.31635 -0.94906,0.4867 -1.55743,0.99773 0.65704,0.68138 0.90039,1.31409 0.90039,2.31182 0,1.09507 -0.38936,2.38482 -1.16808,3.89359 -0.97339,1.87379 -2.26315,3.60157 -5.23201,7.08147 0.073,-1.11941 0.12168,-1.87379 0.12168,-2.14148 l 0.14601,-3.43122 c 0.073,-1.70345 0.12167,-2.79852 0.34068,-6.18108 l -1.41142,0.55971 c -1.11941,1.89812 -5.35369,8.17654 -7.17881,10.6587 0.26768,-1.97113 1.21675,-7.32482 1.80079,-10.24501 0.51103,-0.17034 0.80305,-0.34069 1.26541,-0.77872 -4.72098,0.0487 -5.013,0.0487 -5.88905,0.34069 -2.09281,0.68138 -3.45557,2.36049 -3.45557,4.28295 0,0.82739 0.19468,1.48443 0.60838,2.19015 l 1.82512,-1.14375 c -0.58404,-0.87605 -0.80305,-1.55743 -0.80305,-2.38482 0,-1.02207 0.48669,-1.75212 1.38709,-2.06847 0.58404,-0.21902 1.21674,-0.26769 2.9932,-0.29202 -0.24335,1.67911 -0.29202,2.0928 -0.51104,3.40689 -0.92473,5.59704 -1.26542,7.68984 -1.28975,7.83585 l -0.34069,1.99547 z"
         style="font-style:italic;font-variant:normal;font-weight:500;font-stretch:normal;font-family:Z003;-inkscape-font-specification:'Z003 Medium Italic';fill:#ffffff"
         id="path4438"
         inkscape:connector-curvature="0" /><path
         d="m 632.63539,-247.82472 c -0.68138,0.53537 -1.24108,0.9734 -1.67911,1.26542 0.17035,0.51103 0.38936,0.92472 0.92473,1.70344 0.68138,-0.60837 0.75438,-0.68138 1.58177,-1.31408 -0.073,-0.14601 -0.12167,-0.24335 -0.31635,-0.55971 -0.14601,-0.29202 -0.17035,-0.29202 -0.36503,-0.77872 l -0.14601,-0.31635 z m 0.92473,12.16747 -0.41369,0.21901 c -1.67912,0.92473 -1.97113,1.04641 -2.26315,1.04641 -0.26769,0 -0.43803,-0.26769 -0.43803,-0.68138 0,-0.4137 0,-0.4137 0.80305,-3.62591 0.90039,-3.69891 0.90039,-3.69891 0.90039,-3.89359 0,-0.14601 -0.12167,-0.24335 -0.29202,-0.24335 -0.41369,0 -1.84945,0.80306 -3.84492,2.14148 l -0.0487,0.68138 c 1.48443,-0.80306 1.55744,-0.82739 1.77645,-0.82739 0.19468,0 0.29202,0.14601 0.29202,0.41369 0,0.34069 -0.073,0.68138 -0.43803,2.06847 -1.14374,4.23428 -1.14374,4.23428 -1.14374,4.86699 0,0.58404 0.21902,0.9734 0.58404,0.9734 0.41369,0 1.07074,-0.31636 2.36049,-1.14374 0.46236,-0.29202 0.92473,-0.58404 1.38709,-0.9004 0.21902,-0.12167 0.38936,-0.24335 0.68138,-0.41369 l 0.0973,-0.68138 z"
         style="font-style:italic;font-variant:normal;font-weight:500;font-stretch:normal;font-family:Z003;-inkscape-font-specification:'Z003 Medium Italic';fill:#ffffff"
         id="path4440"
         inkscape:connector-curvature="0" /><path
         d="m 635.82897,-233.29676 1.43577,-5.71871 0.60837,-0.38936 c 2.26315,-1.41143 2.53083,-1.55744 2.87152,-1.55744 0.14601,0 0.24335,0.12168 0.24335,0.31636 0,0.38936 -0.17034,1.09507 -0.90039,4.06393 -0.53537,2.14148 -0.63271,2.57951 -0.63271,3.04187 0,0.34069 0.0973,0.63271 0.36502,1.09507 1.09508,-0.4867 2.79852,-1.55743 4.50197,-2.82285 l 0.17034,-0.68138 c -2.36049,1.36276 -2.53083,1.43576 -2.77418,1.43576 -0.24335,0 -0.38936,-0.24335 -0.38936,-0.65704 0,-0.65704 0.0973,-1.07074 1.16808,-4.93999 0.60837,-2.16581 0.60837,-2.16581 0.60837,-2.31182 0,-0.26769 -0.17034,-0.4137 -0.46236,-0.4137 -0.53537,0 -0.60838,0.0487 -3.23655,1.65478 -0.9734,0.60837 -1.60611,0.99773 -1.89813,1.19241 0.24335,-0.85172 0.58404,-2.33615 0.58404,-2.53083 0,-0.19468 -0.12167,-0.31636 -0.31635,-0.31636 -0.26769,0 -1.92246,0.85173 -3.82059,1.97113 l -0.14601,0.63271 c 1.55744,-0.70571 1.65478,-0.73005 1.87379,-0.73005 0.17035,0 0.29202,0.14601 0.29202,0.34069 0,0.53537 -0.43803,2.48217 -1.07073,4.74532 l -0.55971,1.97113 c -0.0487,0.17034 -0.17034,0.6327 -0.34069,1.31408 l 1.82512,-0.70571 z"
         style="font-style:italic;font-variant:normal;font-weight:500;font-stretch:normal;font-family:Z003;-inkscape-font-specification:'Z003 Medium Italic';fill:#ffffff"
         id="path4442"
         inkscape:connector-curvature="0" /><path
         d="m 647.04586,-233.29676 1.43576,-5.71871 0.60838,-0.38936 c 2.26315,-1.41143 2.53083,-1.55744 2.87152,-1.55744 0.14601,0 0.24335,0.12168 0.24335,0.31636 0,0.38936 -0.17034,1.09507 -0.90039,4.06393 -0.53537,2.14148 -0.63271,2.57951 -0.63271,3.04187 0,0.34069 0.0973,0.63271 0.36502,1.09507 1.09507,-0.4867 2.79852,-1.55743 4.50197,-2.82285 l 0.17034,-0.68138 c -2.36049,1.36276 -2.53083,1.43576 -2.77418,1.43576 -0.24335,0 -0.38936,-0.24335 -0.38936,-0.65704 0,-0.65704 0.0973,-1.07074 1.16808,-4.93999 0.60837,-2.16581 0.60837,-2.16581 0.60837,-2.31182 0,-0.26769 -0.17034,-0.4137 -0.46236,-0.4137 -0.53537,0 -0.60838,0.0487 -3.23655,1.65478 -0.9734,0.60837 -1.60611,0.99773 -1.89813,1.19241 0.24335,-0.85172 0.58404,-2.33615 0.58404,-2.53083 0,-0.19468 -0.12167,-0.31636 -0.31635,-0.31636 -0.26769,0 -1.92246,0.85173 -3.82059,1.97113 l -0.14601,0.63271 c 1.55744,-0.70571 1.65478,-0.73005 1.87379,-0.73005 0.17035,0 0.29202,0.14601 0.29202,0.34069 0,0.53537 -0.43803,2.48217 -1.07074,4.74532 l -0.5597,1.97113 c -0.0487,0.17034 -0.17034,0.6327 -0.34069,1.31408 l 1.82512,-0.70571 z"
         style="font-style:italic;font-variant:normal;font-weight:500;font-stretch:normal;font-family:Z003;-inkscape-font-specification:'Z003 Medium Italic';fill:#ffffff"
         id="path4444"
         inkscape:connector-curvature="0" /><path
         d="m 663.51909,-236.16828 c -1.94679,1.65477 -2.99319,2.26315 -3.91792,2.26315 -0.63271,0 -1.11941,-0.4137 -1.28975,-1.04641 -0.0973,-0.38936 -0.12168,-0.65704 -0.12168,-1.36275 1.11941,-0.70572 1.80079,-1.19242 3.23655,-2.26315 1.33842,-0.99774 1.82512,-1.80079 1.82512,-2.89586 0,-0.85172 -0.51103,-1.36276 -1.38709,-1.36276 -0.53537,0 -0.90039,0.12168 -1.48443,0.43803 -0.92473,0.53537 -1.75212,1.19241 -2.23882,1.77645 -0.92473,1.11941 -1.75211,3.79625 -1.75211,5.76738 0,1.43577 0.75438,2.33616 1.99546,2.33616 1.43576,0 3.28522,-1.07074 5.11034,-2.94453 l 0.0243,-0.70571 z m -5.25634,-1.02207 c 0.41369,-2.62817 1.50876,-4.62364 2.5795,-4.62364 0.38936,0 0.65704,0.38936 0.65704,0.99773 0,1.21675 -0.70571,1.99547 -3.23654,3.62591 z"
         style="font-style:italic;font-variant:normal;font-weight:500;font-stretch:normal;font-family:Z003;-inkscape-font-specification:'Z003 Medium Italic';fill:#ffffff"
         id="path4446"
         inkscape:connector-curvature="0" /><path
         d="m 664.73204,-232.59105 1.87379,-0.70571 1.82512,-6.93546 c 0.82739,-0.63271 1.38709,-0.85172 2.04413,-0.85172 0.53537,0 0.85173,0.19468 1.28976,0.75438 l 0.73004,-2.31182 c -0.43802,-0.14601 -0.65704,-0.19468 -0.90039,-0.19468 -0.46236,0 -0.94906,0.21902 -1.6061,0.68138 -0.31636,0.24335 -0.63271,0.4867 -0.9734,0.70571 -0.14601,0.12168 -0.31636,0.24335 -0.46237,0.34069 l 0.29202,-1.46009 c 0,-0.14601 -0.14601,-0.26769 -0.31635,-0.26769 -0.31636,0 -2.45783,1.04641 -3.94226,1.92246 l -0.073,0.65705 c 1.41143,-0.68138 1.43576,-0.70572 1.75212,-0.70572 0.31635,0 0.46236,0.17035 0.46236,0.51104 0,0.34069 -0.24335,1.46009 -0.53537,2.53083 l -1.46009,5.32935 z"
         style="font-style:italic;font-variant:normal;font-weight:500;font-stretch:normal;font-family:Z003;-inkscape-font-specification:'Z003 Medium Italic';fill:#ffffff"
         id="path4448"
         inkscape:connector-curvature="0" /></g></g></svg>