<?xml version="1.0" encoding="UTF-8" standalone="no"?>
<!-- Created with Inkscape (http://www.inkscape.org/) -->

<svg
   xmlns:dc="http://purl.org/dc/elements/1.1/"
   xmlns:cc="http://creativecommons.org/ns#"
   xmlns:rdf="http://www.w3.org/1999/02/22-rdf-syntax-ns#"
   xmlns:svg="http://www.w3.org/2000/svg"
   xmlns="http://www.w3.org/2000/svg"
   xmlns:sodipodi="http://sodipodi.sourceforge.net/DTD/sodipodi-0.dtd"
   xmlns:inkscape="http://www.inkscape.org/namespaces/inkscape"
   width="512"
   height="285.13876"
   viewBox="0 0 512.00001 285.13877"
   id="svg5111"
   version="1.1"
   inkscape:version="0.91 r13725"
   sodipodi:docname="pyramid-2.svg">
  <defs
     id="defs5113" />
  <sodipodi:namedview
     id="base"
     pagecolor="#ffffff"
     bordercolor="#666666"
     borderopacity="1.0"
     inkscape:pageopacity="0.0"
     inkscape:pageshadow="2"
     inkscape:zoom="0.35"
     inkscape:cx="-381.17901"
     inkscape:cy="374.01347"
     inkscape:document-units="px"
     inkscape:current-layer="layer1"
     showgrid="false"
     units="px"
     fit-margin-top="6"
     fit-margin-left="6"
     fit-margin-right="6"
     fit-margin-bottom="6"
     inkscape:window-width="1920"
     inkscape:window-height="1135"
     inkscape:window-x="0"
     inkscape:window-y="0"
     inkscape:window-maximized="1" />
  <metadata
     id="metadata5116">
    <rdf:RDF>
      <cc:Work
         rdf:about="">
        <dc:format>image/svg+xml</dc:format>
        <dc:type
           rdf:resource="http://purl.org/dc/dcmitype/StillImage" />
        <dc:title></dc:title>
      </cc:Work>
    </rdf:RDF>
  </metadata>
  <g
     inkscape:label="Ebene 1"
     inkscape:groupmode="layer"
     id="layer1"
     transform="translate(283.82099,-621.2369)">
    <path
       id="path4205"
       d="M 217.11066,894.4962 -42.94977,895.6165 -273.32402,894.2718 -149.35365,766.1205 -29.91406,645.3981 77.54851,755.4062 Z"
       inkscape:transform-center-y="-42.145553"
       style="color:#000000;clip-rule:nonzero;display:inline;overflow:visible;visibility:visible;opacity:1;isolation:auto;mix-blend-mode:normal;color-interpolation:sRGB;color-interpolation-filters:linearRGB;solid-color:#000000;solid-opacity:1;fill:#ffffff;fill-opacity:1;fill-rule:nonzero;stroke:none;stroke-width:10.23534393;stroke-linecap:round;stroke-linejoin:round;stroke-miterlimit:4;stroke-dasharray:none;stroke-dashoffset:0;stroke-opacity:1;color-rendering:auto;image-rendering:auto;shape-rendering:auto;text-rendering:auto;enable-background:accumulate"
       inkscape:connector-curvature="0"
       sodipodi:nodetypes="ccccccc" />
    <g
       id="g4405"
       transform="matrix(1.8523479,0,0,1.8523479,-502.87521,-91.876249)">
      <path
         id="path4326"
         d="m 194.69531,461.29102 -5.11719,5.26953 -26.44531,27.23047 185.24219,0 -26.44531,-27.23047 -5.11719,-5.26953 -122.11719,0 z"
         style="color:#000000;clip-rule:nonzero;display:inline;overflow:visible;visibility:visible;opacity:1;isolation:auto;mix-blend-mode:normal;color-interpolation:sRGB;color-interpolation-filters:linearRGB;solid-color:#000000;solid-opacity:1;fill:#c82506;fill-opacity:1;fill-rule:nonzero;stroke:none;stroke-width:10.23534393;stroke-linecap:round;stroke-linejoin:round;stroke-miterlimit:4;stroke-dasharray:none;stroke-dashoffset:0;stroke-opacity:1;color-rendering:auto;image-rendering:auto;shape-rendering:auto;text-rendering:auto;enable-background:accumulate"
         inkscape:connector-curvature="0" />
      <path
         id="path4328"
         d="m 584.25939,818.70088 c -20.74878,-1.11895 -44.90688,0.0111 -68.10264,-0.0386 -1.00032,-0.002 -1.99855,-0.006 -2.99493,-0.0106 m 7.33876,-4.54445 c -3.68217,-0.1304 -7.49405,-0.22732 -11.41285,-0.30206 m -4.34808,-2.46395 c -10.81633,-0.73141 -20.90706,-0.61761 -30.70044,-0.12781 m 7.58228,5.19114 c -23.79348,0.23398 -45.27665,-0.72137 -69.15596,-2.14855 l -10e-6,0 c -23.88288,-1.42738 -42.22683,-0.81244 -59.98696,-2.46093 l -1e-5,0 c -9.02149,-0.83738 -20.84448,-0.238 -33.71204,1.14772 m 13.45536,-4.8121 c -22.62316,-0.68941 -47.50833,0.58656 -75.83618,1.75813 -3.38922,0.14016 -6.57924,0.23997 -9.60149,0.3054 -9.0216,0.19532 -16.54819,0.0844 -23.41538,-0.17338 m 17.42409,1.28189 c -14.13955,-0.21314 -29.49195,0.62632 -45.50179,2.25651 m 8.26361,5.84548 c -9.99585,0.29261 -20.50208,0.0252 -31.22731,-0.62218 m 0.13676,-8.98678 c -0.53637,0.036 -1.07089,0.0705 -1.60361,0.10357 m -0.0826,6.08345 c -20.57948,0.48134 -44.40233,-0.25189 -66.57928,-0.78147 l -1e-5,0 c -22.180272,-0.52965 -46.02222,-1.41336 -71.432279,-4.25781 -5.463005,-0.61154 -10.63693,-1.00567 -15.617071,-1.26733 m 14.207147,-1.67003 c -20.956438,0.31324 -43.177832,3.23595 -62.868173,9.72642 -16.381955,5.39995 -35.801638,-0.24833 -53.876128,-5.75494 1.951394,-4.34903 3.957749,-8.69228 6.055264,-12.93732 1.220074,-2.46924 2.400696,-4.7977 3.545703,-7.00225 m -9.747596,18.33103 c 11.304219,-20.15291 20.911251,-38.53637 29.461059,-57.84315 1.871833,-4.22688 4.012384,-8.4907 6.341312,-12.79383 m 2.851558,6.52087 c 10.485113,-18.59139 22.888303,-37.89326 35.320802,-55.96885 l 1e-6,0 c 12.43436342,-18.0783 22.269238,-40.65543 33.489582,-64.25846 0.04551,-0.0957 0.09101,-0.19133 0.136484,-0.28678 m -6.347333,20.97086 c 9.846557,-19.64587 19.538362,-40.0697 25.282017,-62.49174 2.065297,-8.06249 5.769971,-15.4178 10.368123,-22.50873 m -1.848779,7.24116 c 4.304475,-7.02667 8.574083,-13.95424 12.959387,-20.8805 m 1.528462,4.91862 c 6.416951,-10.90596 12.476876,-21.92391 18.406663,-33.26221 3.703953,-7.0823 7.357131,-14.28959 11.014828,-21.67265 m -3.423375,1.56078 c 10.146892,-20.88128 23.108122,-37.71888 36.024082,-55.46 l 0,0 c 12.91789,-17.74378 20.80358,-36.68417 29.07552,-52.30533 l 0,-10e-6 c 1.39067,-2.62621 2.94314,-5.5424 4.61683,-8.69684 m -4.25292,9.68001 c 10.49817,-19.59345 23.05646,-38.58828 35.8286,-58.03871 l 1e-5,0 c 12.77405,-19.45334 22.74841,-41.28162 34.89582,-66.13345 l 1e-5,-1e-5 c 8.87513,-18.15722 16.44641,-29.01191 23.91739,-39.11547 m -7.27518,17.98457 c 4.38271,-8.07509 8.84199,-15.99207 13.23872,-23.76337 6.10843,11.58065 12.09611,23.44248 17.5899,35.5521 l 10e-6,10e-6 c 9.44953,20.82901 22.65448,38.30235 34.62238,57.18814 l 10e-6,1e-5 c 9.58547,15.12622 18.36925,30.54901 27.67952,45.72813 m -5.3115,-15.31662 c 9.87317,19.87956 21.47896,38.10732 31.10233,56.55421 2.10687,4.03863 4.27132,8.17821 6.44658,12.39345 m -7.65979,-7.69785 c 10.8618,20.28283 20.78085,37.88962 29.03156,55.96809 7.39503,16.20353 19.89845,35.17452 31.32724,54.4033 1.32436,2.2282 2.63429,4.45987 3.92016,6.6911 0.19534,0.33894 0.3902,0.6771 0.5846,1.01451 m -0.24267,-8.6878 c 0.79033,1.38319 1.57882,2.75213 2.36586,4.10767 10.665,18.36868 21.06278,34.27806 32.13417,49.86829 l 0,10e-6 c 11.89021,16.74325 22.09714,38.78957 32.98177,58.63345 l 0,10e-6 c 4.89121,8.91722 9.65122,17.4453 14.21726,25.74732 m -13.32967,-9.25208 c 9.95157,20.12611 22.60729,35.94207 34.50073,50.10878 l 0,10e-6 c 11.89522,14.16883 22.33036,38.88619 33.64582,58.94595 l 10e-6,10e-6 c 9.06291,16.06649 19.26356,31.14707 30.90488,46.49533 m -7.08257,-11.84249 c 5.53775,7.9842 10.047,16.5859 13.88466,25.46839 -13.71962,0.4148 -28.48917,1.26858 -43.61098,1.90316 l -10e-6,0 c -27.22,1.14228 -43.39542,0.023 -63.54165,0.0781 l -1e-5,0 c -9.52526,0.0261 -20.13779,-0.7052 -31.17659,-2.17337 M -76.48356,795.93444 -9.1007465,679.22398 M 180.81572,350.27903 233.7454,258.60212 m -0.94454,-72.7897 57.61719,99.7959 M -31.565355,718.13383 60.231521,559.13698 M 255.06451,224.3742 329.67388,353.60142"
         inkscape:transform-center-y="-22.515492"
         style="color:#000000;clip-rule:nonzero;display:inline;overflow:visible;visibility:visible;opacity:1;isolation:auto;mix-blend-mode:normal;color-interpolation:sRGB;color-interpolation-filters:linearRGB;solid-color:#000000;solid-opacity:1;fill:none;fill-opacity:1;fill-rule:nonzero;stroke:#000000;stroke-width:10.23534393;stroke-linecap:round;stroke-linejoin:round;stroke-miterlimit:4;stroke-dasharray:none;stroke-dashoffset:0;stroke-opacity:1;color-rendering:auto;image-rendering:auto;shape-rendering:auto;text-rendering:auto;enable-background:accumulate"
         transform="matrix(0.38827684,0,0,0.22880278,156.7088,346.88811)"
         inkscape:connector-curvature="0" />
      <path
         id="path4332"
         d="m 294.90894,427.46011 c 0,0 0.0401,0.0153 -3.16378,0.0769 -1.82852,0.0351 -3.30005,-0.19657 -4.95901,-0.43189 -1.65412,-0.23464 -3.5016,-0.47324 -4.71337,-0.44847 -1.38002,0.0282 -0.86714,0.30153 -0.58615,0.56881 0.28248,0.26868 0.33788,0.53187 -0.44308,0.54685 -0.97111,0.0186 -1.85036,-0.22105 -3.05163,-0.46238 -1.19708,-0.24049 -2.71733,-0.48275 -3.58257,-0.4651 -1.03998,0.0212 -0.53128,0.28117 -0.48621,0.54063 0.0453,0.26082 -0.3747,0.5211 -1.86955,0.54979 -1.68812,0.0324 -2.78181,-0.20061 -4.10412,-0.43652 -1.31829,-0.2352 -2.86922,-0.47358 -4.10493,-0.44834 -1.41572,0.0289 -1.31651,0.27792 -1.60945,0.52583 -0.29449,0.24922 -0.98206,0.49737 -2.73251,0.5311 -1.95112,0.0376 -3.03147,-0.19294 -4.11748,-0.43068 -1.08245,-0.23695 -2.18208,-0.48189 -2.80153,-0.46918 -0.79307,0.0163 -0.40749,0.2848 -0.44477,0.5514 -0.0375,0.26801 -0.49812,0.5342 -1.4665,0.55282 -1.16329,0.0224 -1.71277,-0.21546 -2.56312,-0.4552 -0.8474,-0.23892 -1.99715,-0.4799 -2.98502,-0.45968 -1.16491,0.0238 -1.13743,0.29455 -1.44614,0.56147 -0.31041,0.26838 -0.9557,0.53327 -1.972,0.55278 -1.21475,0.0233 -1.63268,-0.21405 -2.32749,-0.45376 -0.69237,-0.23888 -1.6637,-0.48032 -2.612,-0.46094 -1.12987,0.0231 -1.24983,0.28802 -1.8649,0.55272 -0.61855,0.2662 -1.73421,0.53207 -3.42458,0.56451 -1.89247,0.0363 -2.47417,-0.19477 -3.20348,-0.43021 -0.72703,-0.23471 -1.60746,-0.47424 -2.74125,-0.45108 -1.31534,0.0269 -1.72502,0.29603 -2.41082,0.56036 -0.68966,0.26581 -1.65381,0.5272 -2.62972,0.54591 -0.71443,0.33333 -1.95153,0.66667 -3.71129,1 1.0346,-0.0187 2.81847,-0.2801 4.3417,-0.54591 1.51472,-0.26433 2.76854,-0.5335 4.1681,-0.56036 1.71925,-0.033 2.12236,0.2014 2.12424,0.43622 0.002,0.23556 -0.39932,0.47143 1.05677,0.44507 1.79209,-0.0324 3.74153,-0.29831 5.19488,-0.56451 1.44515,-0.2647 2.39598,-0.52964 3.59823,-0.55272 1.51447,-0.0291 1.99885,0.20729 1.95304,0.44628 -0.046,0.23981 -0.62657,0.4819 0.11796,0.46842 1.07749,-0.0195 2.55347,-0.2844 3.70551,-0.55278 1.14575,-0.26692 1.96724,-0.53763 3.2069,-0.56147 1.55062,-0.0298 2.21144,0.20615 2.32051,0.44517 0.10945,0.23984 -0.33805,0.48234 0.35858,0.46971 1.02678,-0.0186 2.32217,-0.28481 3.20013,-0.55282 0.87334,-0.2666 1.32988,-0.53514 2.17395,-0.5514 1.15313,-0.0222 1.74869,0.21775 2.09885,0.45482 0.35131,0.23783 0.45958,0.473 1.99822,0.44504 1.85622,-0.0337 3.32198,-0.28188 4.39803,-0.5311 1.07039,-0.24791 1.75207,-0.49693 3.25845,-0.52583 1.80406,-0.0346 2.86806,0.19887 3.45945,0.43417 0.59318,0.23601 0.70971,0.47359 1.97468,0.45069 1.58482,-0.0287 2.82107,-0.28897 3.59368,-0.54979 0.76858,-0.25946 1.07508,-0.5194 2.18162,-0.54063 1.40393,-0.0269 2.42249,0.2105 2.87614,0.45109 0.45521,0.24142 0.33963,0.48561 0.8495,0.47639 0.82794,-0.015 1.59788,-0.27817 2.15799,-0.54685 0.55718,-0.26728 0.90142,-0.54059 2.36992,-0.56881 1.76759,-0.034 3.12132,0.19987 4.05018,0.43461 0.93155,0.23541 1.43533,0.4716 2.8614,0.44575 1.74178,-0.0316 2.74038,-0.29927 2.92986,-0.56153 0.19788,-0.27389 -0.45002,-0.51532 -0.45002,-0.51532 z m -79.0527,1.52024 c 0,0 0.40912,-0.23093 0.36943,-0.4683 -0.0389,-0.23267 -0.49702,-0.46465 -0.92155,-0.45599 0.20802,0.33333 -0.10662,0.66667 -0.94393,1 1.90757,-0.0366 1.49605,-0.0757 1.49605,-0.0757 z m -8.10022,0.15578 z"
         style="color:#000000;clip-rule:nonzero;display:inline;overflow:visible;visibility:visible;opacity:1;isolation:auto;mix-blend-mode:normal;color-interpolation:sRGB;color-interpolation-filters:linearRGB;solid-color:#000000;solid-opacity:1;fill:none;fill-opacity:1;fill-rule:nonzero;stroke:#000000;stroke-width:3.05073047;stroke-linecap:round;stroke-linejoin:round;stroke-miterlimit:4;stroke-dasharray:none;stroke-dashoffset:0;stroke-opacity:1;color-rendering:auto;image-rendering:auto;shape-rendering:auto;text-rendering:auto;enable-background:accumulate"
         inkscape:connector-curvature="0" />
      <path
         id="path4336"
         d="m 329.39685,463.39302 c 0,0 -0.0407,0.0152 -2.63472,-0.0152 -1.50568,-0.0177 -1.67025,-0.27753 -2.17779,-0.53572 -0.50908,-0.25896 -1.36075,-0.51633 -2.82909,-0.53297 -1.66358,-0.0188 -2.32795,0.22831 -3.32874,0.47654 -0.9986,0.24769 -2.3342,0.49653 -3.88174,0.47833 -1.73073,-0.0203 -2.10508,-0.28159 -2.53893,-0.53785 -0.43514,-0.25702 -0.92603,-0.50935 -1.48219,-0.51566 -0.75461,-0.009 -0.90691,0.23411 -1.50371,0.47648 -0.59542,0.24181 -1.63386,0.48329 -2.80078,0.46958 -1.35419,-0.0159 -1.61465,-0.27488 -2.21041,-0.53212 -0.59756,-0.25802 -1.53,-0.5144 -2.82012,-0.52902 -1.49156,-0.0169 -1.92912,0.207 -2.68169,0.43134 -0.75107,0.22391 -1.81694,0.44826 -3.37226,0.43003 -1.74644,-0.0205 -2.36758,-0.28177 -3.29067,-0.54087 -0.92596,-0.2599 -2.1532,-0.51771 -3.70484,-0.53526 -1.75055,-0.0198 -2.10746,0.22826 -2.61983,0.47953 -0.51117,0.25069 -1.18127,0.50481 -2.08326,0.49422 -0.3278,0.33334 -1.17826,0.66667 -2.5514,1 0.8688,0.0106 2.33582,-0.24353 3.63315,-0.49422 1.30037,-0.25127 2.43517,-0.49932 4.12364,-0.47953 1.99317,0.0234 2.64849,0.284 2.75235,0.54393 0.10353,0.25913 -0.34221,0.51746 0.86842,0.5322 1.49814,0.0182 3.26759,-0.20612 4.72083,-0.43003 1.45613,-0.22434 2.59585,-0.44825 4.03439,-0.43134 1.73693,0.0204 2.10026,0.2796 1.88167,0.53764 -0.21794,0.25728 -1.01501,0.51329 -0.17888,0.5235 1.1239,0.0137 2.91962,-0.22777 4.27338,-0.46958 1.35688,-0.24237 2.27016,-0.48503 2.99794,-0.47648 1.02704,0.0121 0.96087,0.2672 0.58302,0.52425 -0.37674,0.2563 -1.06625,0.51461 0.13428,0.52926 1.49048,0.0182 3.60643,-0.23064 5.38178,-0.47833 1.77927,-0.24823 3.21869,-0.49538 4.82318,-0.47654 1.90506,0.0224 2.18268,0.28253 1.87266,0.54153 -0.30908,0.25821 -1.20294,0.51515 -0.21721,0.52716 1.27166,0.0155 3.35265,-0.23121 4.74869,-0.48095 1.42765,-0.25538 2.07888,-0.5038 2.07888,-0.5038 z m -51.39005,-0.60317 c 0,0 -0.0224,0.0281 -2.53794,-10e-4 -1.4684,-0.0172 -2.07775,-0.28381 -2.88223,-0.54672 -0.80696,-0.26372 -1.80695,-0.524 -2.57708,-0.53272 -0.96794,-0.011 -0.81017,0.2412 -1.08837,0.49354 -0.27752,0.25173 -0.99008,0.50363 -2.22416,0.48912 -0.1577,0.33334 -0.83807,0.66667 -2.04111,1 1.1886,0.0145 2.69113,-0.23739 3.75808,-0.48912 1.06954,-0.25234 1.70252,-0.50449 2.6361,-0.49354 1.24256,0.0146 1.66444,0.27771 1.63715,0.54146 -0.0272,0.26294 -0.50291,0.52652 0.43702,0.53798 1.23493,0.0151 2.83838,-0.23514 3.75808,-0.48819 0.95031,-0.26148 1.12446,-0.51037 1.12446,-0.51037 z m -20.1248,-0.23621 c 0,0 -0.004,0.0492 -2.785,0.0165 -1.60216,-0.0188 -2.45744,-0.28465 -3.45397,-0.54622 -0.99962,-0.26238 -2.13805,-0.52077 -2.84753,-0.52881 -0.91449,-0.0104 -0.62048,0.22083 -0.58567,0.45343 0.0347,0.23206 -0.19044,0.46559 -0.90232,0.45724 -0.90933,-0.0107 -1.51947,-0.25232 -2.32406,-0.49138 -0.80681,-0.23971 -1.80682,-0.47695 -2.25797,-0.48206 -0.66021,-0.007 -0.20052,0.22451 -0.20984,0.45552 -0.009,0.23049 -0.48556,0.4599 -1.78564,0.44466 -1.4994,-0.0176 -2.46648,-0.26004 -3.55322,-0.49897 -1.08985,-0.23963 -2.2977,-0.47594 -3.06774,-0.48467 -0.98061,-0.0111 -0.60003,0.2227 -0.49797,0.45781 0.10183,0.23455 -0.0754,0.47045 -0.90104,0.46076 -1.01758,-0.012 -1.81623,-0.2773 -2.84663,-0.53947 -1.03352,-0.26298 -2.29724,-0.52296 -2.75752,-0.52817 -0.66297,-0.007 0.0286,0.23974 0.33084,0.48752 0.3015,0.24716 0.21414,0.49488 -0.60756,0.48524 -1.01394,-0.0119 -1.87591,-0.26964 -2.9344,-0.52414 -1.06161,-0.25525 -2.31815,-0.50745 -2.72017,-0.512 -0.60582,-0.007 0.18042,0.24506 0.50082,0.49683 0.31958,0.25112 0.17465,0.50206 -0.8465,0.49007 -1.21436,-0.0143 -2.21236,-0.27122 -3.63884,-0.52762 -1.43094,-0.2572 -3.29109,-0.51384 -4.84743,-0.53146 -1.76126,-0.0199 -1.46975,0.22664 -1.37753,0.47589 0.092,0.24866 -0.0175,0.50015 -1.13102,0.48706 -1.30196,-0.0153 -2.45262,-0.28787 -4.01764,-0.55903 -1.5702,-0.27206 -3.55503,-0.54276 -4.97433,-0.55882 -1.62099,-0.0183 -1.12824,0.23096 -0.91058,0.48217 0.21715,0.2506 0.15798,0.50321 -1.09602,0.48848 -1.44502,-0.017 -2.77051,-0.28038 -4.19592,-0.53919 -1.42981,-0.25961 -2.95729,-0.5149 -3.37413,-0.51962 -0.62547,-0.007 0.33735,0.23189 0.79752,0.46976 0.45908,0.2373 0.41765,0.4734 -0.91709,0.45774 -1.53675,-0.018 -2.9565,-0.26287 -4.56927,-0.50495 -1.6176,-0.24281 -3.42749,-0.48301 -4.51721,-0.49536 1.87364,0.33333 3.22461,0.66666 4.05291,1 1.56883,0.0184 2.87273,0.26159 3.72207,0.50443 0.84682,0.24212 1.24041,0.48387 2.22741,0.49588 1.28565,0.0157 2.06747,-0.22044 2.35259,-0.45774 0.28578,-0.23787 0.0724,-0.47684 0.67565,-0.46976 0.91867,0.0108 1.89174,0.26901 2.50014,0.52865 0.60653,0.25885 0.84824,0.51917 1.74944,0.53016 1.20782,0.0147 2.05918,-0.23788 2.62793,-0.48848 0.57011,-0.25121 0.85919,-0.50051 2.42267,-0.48217 1.88389,0.0221 3.26434,0.29573 3.97378,0.56781 0.7071,0.2712 0.74634,0.54069 1.51259,0.55004 1.07243,0.0131 1.97065,-0.2384 2.65845,-0.48706 0.68943,-0.24925 1.17123,-0.49584 2.86994,-0.47589 2.01285,0.0236 3.31185,0.28318 3.92906,0.54042 0.61529,0.25643 0.55241,0.51033 1.2359,0.51866 0.98355,0.012 1.91543,-0.23895 2.38338,-0.49007 0.46914,-0.25177 0.4729,-0.50368 1.05722,-0.49683 0.89822,0.0105 1.60739,0.26564 1.86141,0.52092 0.25328,0.25454 0.0525,0.50924 0.54382,0.51522 0.79147,0.01 1.65567,-0.23808 2.12929,-0.48524 0.4748,-0.24778 0.55857,-0.49502 1.19802,-0.48752 0.95328,0.0112 1.64432,0.27406 1.84584,0.53707 0.20091,0.26221 -0.0864,0.52452 0.41018,0.53057 0.79523,0.01 1.71225,-0.22621 2.34601,-0.46076 0.63522,-0.23511 0.98791,-0.46893 1.93365,-0.45781 1.24889,0.0147 1.95778,0.25389 2.28955,0.49354 0.33082,0.23897 0.28513,0.47839 1.24671,0.4901 1.25227,0.0152 2.44795,-0.21417 3.18008,-0.44466 0.73378,-0.23101 1.00164,-0.46301 1.63839,-0.45552 0.93978,0.011 1.43728,0.25117 1.4857,0.49091 0.0483,0.23908 -0.35099,0.47773 0.0436,0.48253 0.68569,0.008 1.64324,-0.22518 2.33625,-0.45724 0.69461,-0.2326 1.12562,-0.46379 2.00761,-0.45343 1.18801,0.014 1.75614,0.27522 1.9257,0.53763 0.16904,0.2616 -0.0604,0.5244 1.0045,0.5374 1.36302,0.0166 2.87229,-0.23807 3.65132,-0.496 0.8099,-0.26814 0.79384,-0.52052 0.79384,-0.52052 z"
         style="color:#000000;clip-rule:nonzero;display:inline;overflow:visible;visibility:visible;opacity:1;isolation:auto;mix-blend-mode:normal;color-interpolation:sRGB;color-interpolation-filters:linearRGB;solid-color:#000000;solid-opacity:1;fill:none;fill-opacity:1;fill-rule:nonzero;stroke:#000000;stroke-width:3.05073047;stroke-linecap:round;stroke-linejoin:round;stroke-miterlimit:4;stroke-dasharray:none;stroke-dashoffset:0;stroke-opacity:1;color-rendering:auto;image-rendering:auto;shape-rendering:auto;text-rendering:auto;enable-background:accumulate"
         inkscape:connector-curvature="0" />
      <path
         id="path4340"
         d="m 358.58801,495.21696 c 0,0 -0.10691,0.0152 -2.71946,0.006 -1.35819,-0.005 -0.58681,-0.25859 -2.07477,-0.51044 -1.49541,-0.25312 -5.25001,-0.50428 -6.92438,-0.50963 -0.89141,-0.003 -0.64279,0.0595 -0.22518,0.15415 0.4501,0.10204 0.94224,0.21467 0.92474,0.34924 -0.017,0.13101 -0.53942,0.2508 -1.42546,0.34936 -0.85289,0.0949 -1.93566,0.1571 -2.68202,0.15455 -1.57731,-0.005 -0.99193,-0.25975 -2.37555,-0.51103 -1.3905,-0.25254 -4.74352,-0.50224 -5.46906,-0.50457 -0.63192,-0.002 2.04226,0.24324 2.41368,0.48983 0.36972,0.24546 -1.56077,0.49231 -2.87526,0.48782 -1.19941,-0.004 -0.59423,-0.25778 -2.23789,-0.50935 -1.6519,-0.25283 -5.55246,-0.50369 -7.0364,-0.50844 -1.40841,-0.005 0.91631,0.22496 1.29146,0.45579 0.37358,0.22986 -1.20184,0.46116 -2.8878,0.45542 -1.58951,-0.005 -1.71759,-0.25977 -4.06059,-0.51186 -2.35489,-0.25338 -6.9242,-0.50464 -8.67819,-0.51023 -0.93204,-0.003 -0.50564,0.0596 0.21776,0.1548 0.78685,0.10353 1.65176,0.21498 2.13835,0.35146 0.47305,0.13269 0.43099,0.25209 0.0343,0.35253 -0.37918,0.096 -1.028,0.15943 -1.44646,0.158 -0.92795,-0.003 -0.7323,-0.25637 -2.70275,-0.50725 -1.98023,-0.25212 -6.12511,-0.50207 -7.02731,-0.50495 -0.50818,-0.002 0.21967,0.0615 1.14511,0.15677 0.98103,0.10096 1.96566,0.2172 2.47872,0.35036 0.50578,0.13126 0.43099,0.25114 -0.0544,0.34992 -0.46712,0.0951 -1.25746,0.15756 -1.86593,0.15548 -1.30483,-0.004 -1.30959,-0.25834 -3.39701,-0.50956 -2.09788,-0.25248 -6.27523,-0.5025 -7.21554,-0.5055 -0.83981,-0.003 2.51036,0.2461 3.53299,0.4964 1.01786,0.24912 -0.2899,0.49983 -1.66647,0.49513 -1.25458,-0.004 -1.34461,-0.25808 -3.69821,-0.5098 -2.36554,-0.253 -6.99528,-0.50406 -8.61808,-0.50925 -0.86595,-0.003 -0.38158,0.0587 0.39005,0.15215 0.83213,0.10073 1.74279,0.21175 2.25009,0.3446 0.49411,0.1294 0.45799,0.24741 0.002,0.34487 -0.43799,0.0937 -1.21102,0.15525 -1.88245,0.15295 -1.42886,-0.005 -1.73754,-0.25901 -4.07992,-0.51028 -2.3542,-0.25253 -6.73815,-0.50245 -7.61365,-0.50525 -0.80296,-0.003 2.50807,0.22667 3.95309,0.45754 1.43873,0.22988 1.01089,0.4615 0.17513,0.45866 -0.73946,-0.003 -1.16954,-0.25541 -3.73518,-0.5059 -2.5784,-0.25173 -7.29093,-0.50123 -7.91023,-0.50321 -0.51766,-0.002 3.66605,0.24706 5.43972,0.49698 1.76532,0.24874 1.12482,0.49876 -0.31723,0.49385 -1.3191,-0.004 -2.14852,-0.25841 -5.05071,-0.50963 -2.91687,-0.2525 -7.90399,-0.50251 -8.84964,-0.50552 -0.53091,-0.002 0.3952,0.0615 1.64341,0.15696 1.32796,0.10153 2.71268,0.21734 3.7267,0.35129 1.00057,0.13218 1.39657,0.25161 1.37134,0.35151 -0.0242,0.0957 -0.43553,0.15889 -0.81343,0.1576 -0.84776,-0.003 -1.41531,-0.25598 -4.09105,-0.50656 -2.68912,-0.25183 -7.48455,-0.50133 -8.10443,-0.50331 -0.52983,-0.002 3.60533,0.23955 5.58585,0.48233 1.97137,0.24165 1.78965,0.48493 0.83542,0.48168 0.0683,0.33333 -3.13016,0.66667 -9.59531,1 0.89058,0.003 5.84054,-0.24003 8.60565,-0.48168 2.77794,-0.24278 3.37134,-0.48402 3.86798,-0.48233 1.0852,0.004 1.22234,0.25402 -1.0372,0.50586 -2.24831,0.2506 -6.89181,0.5028 -6.56113,0.50401 0.35264,10e-4 2.0027,-0.0619 3.90254,-0.1576 1.98319,-0.0999 3.92812,-0.21933 5.51824,-0.35151 1.61151,-0.13395 2.49663,-0.24976 3.15871,-0.35129 0.62231,-0.0954 0.93546,-0.15866 1.43318,-0.15696 1.39092,0.005 1.7099,0.25555 -0.33493,0.50806 -2.03456,0.25124 -6.4326,0.50428 -5.66205,0.50709 1.34587,0.005 6.88674,-0.24511 9.9969,-0.49385 3.12486,-0.24992 3.8158,-0.49863 4.3011,-0.49698 1.08416,0.004 1.13818,0.25401 -1.23013,0.50576 -2.3566,0.2505 -7.13329,0.50251 -6.90318,0.50335 0.78004,0.003 5.74774,-0.22878 8.81457,-0.45866 3.08026,-0.23087 4.26244,-0.46012 5.01498,-0.45754 1.32098,0.005 1.03686,0.25524 -1.57149,0.50779 -2.59527,0.25129 -7.516,0.50453 -6.63973,0.50774 0.62644,0.002 2.60569,-0.0592 4.88038,-0.15295 2.36565,-0.0975 4.71496,-0.21547 6.75706,-0.34487 2.09664,-0.13285 3.36195,-0.24387 4.5042,-0.3446 1.05922,-0.0934 1.78052,-0.15492 2.59214,-0.15215 2.02073,0.007 1.95948,0.25877 -0.64652,0.51178 -2.59288,0.25174 -7.72538,0.50466 -7.01093,0.50727 1.28444,0.005 7.5062,-0.24601 11.37124,-0.49513 3.88319,-0.2503 5.40947,-0.49909 6.19662,-0.4964 1.38018,0.005 0.88675,0.25553 -1.97671,0.50803 -2.8492,0.25123 -8.06841,0.50424 -7.30636,0.50703 0.56776,0.002 2.58278,-0.0604 4.91338,-0.15548 2.42163,-0.0988 4.84595,-0.21866 6.91303,-0.34992 2.09681,-0.13316 3.39053,-0.2494 4.38839,-0.35036 0.94131,-0.0952 1.4513,-0.15839 1.92766,-0.15677 1.34447,0.005 0.81984,0.25534 -2.15422,0.50748 -2.95938,0.25089 -8.36562,0.50322 -7.9552,0.50472 0.39051,10e-4 2.28223,-0.062 4.54334,-0.158 2.36536,-0.10044 4.74771,-0.21984 6.87534,-0.35253 2.18855,-0.13648 3.50804,-0.24793 4.75041,-0.35146 1.14219,-0.0952 1.94258,-0.15777 2.81641,-0.1548 2.14331,0.007 2.01733,0.25935 -0.60668,0.51274 -2.61079,0.25212 -7.71608,0.50561 -6.68798,0.50935 1.57363,0.006 7.6825,-0.22556 11.81419,-0.45542 4.14919,-0.23083 6.32222,-0.4603 7.64227,-0.45579 1.88607,0.006 1.09763,0.2581 -2.21867,0.51095 -3.2998,0.25159 -9.12301,0.5044 -8.45603,0.50684 1.2265,0.004 7.99533,-0.24236 12.43667,-0.48782 4.46175,-0.24659 6.5948,-0.49185 7.18705,-0.48983 1.17393,0.004 -0.13983,0.25452 -3.71169,0.50707 -3.55418,0.2513 -9.3704,0.5048 -8.34978,0.50853 0.69638,0.003 2.99878,-0.0597 5.7113,-0.15455 2.81795,-0.0986 5.68821,-0.21835 8.27312,-0.34936 2.65509,-0.13457 4.37053,-0.2472 5.92031,-0.34924 1.4379,-0.0947 2.41106,-0.157 3.24662,-0.15415 2.0631,0.007 1.12215,0.259 -2.35621,0.51213 -3.46103,0.25187 -9.45493,0.50495 -8.63827,0.50794 1.38112,0.005 8.63719,-0.24772 13.22654,-0.49982 4.78672,-0.26295 6.37053,-0.50651 6.37053,-0.50651 z m -106.24198,-0.36198 c 0,0 6.2e-4,0.005 -1.95903,-0.002 -1.02791,-0.003 -1.92059,-0.26235 -5.24834,-0.51931 -3.3451,-0.2583 -9.12811,-0.51483 -10.87444,-0.5204 -0.92537,-0.003 -0.17094,0.0609 1.01611,0.15806 1.28404,0.10505 2.68184,0.21988 3.76259,0.35846 1.05347,0.13508 1.50333,0.25718 1.48146,0.35926 -0.0209,0.0978 -0.47836,0.16222 -0.99261,0.16046 -0.67521,-0.002 -1.11898,-0.0685 -1.87594,-0.16684 -0.80495,-0.10459 -1.80662,-0.22233 -3.59122,-0.35894 -1.75331,-0.13422 -3.89018,-0.25674 -6.11065,-0.35893 -2.13456,-0.0982 -4.07218,-0.16461 -4.75123,-0.16678 6.95271,0.33333 10.6387,0.66666 11.05797,1 0.88805,0.003 1.71128,0.07 2.04074,0.16871 0.34105,0.10214 0.12468,0.22583 -0.75628,0.35957 -0.8919,0.1354 -2.2802,0.25534 -3.63936,0.3583 -1.29286,0.0979 -2.32263,0.16346 -1.92568,0.16491 0.47982,0.002 2.20042,-0.0627 4.13775,-0.16046 2.0227,-0.10208 3.96595,-0.22418 5.56009,-0.35926 1.63541,-0.13858 2.48841,-0.25341 3.26329,-0.35846 0.71635,-0.0971 1.21452,-0.16101 2.08203,-0.15806 2.14388,0.007 3.1314,0.26464 1.40066,0.52296 -1.72178,0.25698 -6.15416,0.51493 -5.65659,0.51675 1.08028,0.004 6.27622,-0.24677 8.93994,-0.4965 2.85112,-0.2673 2.63874,-0.50151 2.63874,-0.50151 z m -26.0243,-0.0887 c 0,0 -0.41227,-0.22744 -3.52351,-0.48202 -2.95418,-0.24173 -8.09603,-0.48209 -8.65953,-0.48389 6.93723,0.33333 10.60773,0.66666 11.01152,1 1.74079,0.006 1.17152,-0.0341 1.17152,-0.0341 z m -7.59988,-0.0259 c 0,0 0.0459,0.0199 -2.45876,0.0114 -1.30436,-0.004 -2.83498,-0.25837 -6.42277,-0.50954 -3.60613,-0.25245 -9.26735,-0.50237 -10.16327,-0.50524 -0.81139,-0.003 3.8265,0.23425 6.44584,0.47275 2.60738,0.23741 3.19691,0.4766 2.20989,0.47324 1.17074,0.33333 -0.92523,0.66666 -6.28792,1 0.9212,0.003 5.01973,-0.23583 7.06568,-0.47324 2.05533,-0.2385 2.05964,-0.47534 2.82016,-0.47275 1.3491,0.005 2.34606,0.25535 0.99118,0.50782 -1.34799,0.25119 -5.04739,0.50421 -4.29513,0.50696 0.56695,0.002 2.18433,-0.0599 3.89538,-0.15442 1.77322,-0.0979 3.41648,-0.21761 4.56585,-0.34807 1.15639,-0.13124 1.61283,-0.24988 1.72664,-0.34966 0.0994,-0.0871 -0.0928,-0.15923 -0.0928,-0.15923 z m -16.10213,-0.0549 c 0,0 -0.82363,-0.24333 -4.75519,-0.51254 -3.75599,-0.25718 -10.0399,-0.51296 -10.9179,-0.51576 -0.77129,-0.002 4.37866,0.24022 7.18156,0.48389 2.78997,0.24254 3.23823,0.48608 1.36193,0.4797 1.57683,0.33334 -0.11306,0.66667 -5.06966,1 1.75134,0.006 6.07655,-0.23716 8.04043,-0.4797 1.97299,-0.24367 1.57977,-0.48635 2.30285,-0.48389 2.28418,0.008 1.85598,0.0283 1.85598,0.0283 z m -12.95795,-0.0442 c 0,0 -0.19298,-0.0433 -1.71089,-0.0485 -0.81272,-0.003 -2.8539,-0.25521 -7.2527,-0.506 -4.42145,-0.25209 -11.2045,-0.50261 -12.89023,-0.50798 -0.90035,-0.003 0.16828,0.0608 1.81589,0.15753 1.7796,0.10447 3.7165,0.21913 5.44532,0.35698 1.6874,0.13454 2.71268,0.25607 3.1818,0.35776 0.44922,0.0974 0.31287,0.16158 -0.18223,0.15989 -0.65906,-0.002 -1.39489,-0.0696 -2.59183,-0.1696 -1.27795,-0.10682 -2.80094,-0.22568 -5.18219,-0.36489 -2.3453,-0.13711 -4.95541,-0.25987 -7.50356,-0.36397 -2.43086,-0.0993 -4.42531,-0.16593 -4.70456,-0.16682 -0.45368,-10e-4 0.94681,0.0618 2.83813,0.15697 1.99739,0.10054 4.14402,0.2174 5.94403,0.34994 1.7761,0.13078 2.84732,0.25085 3.26148,0.34899 0.39959,0.0947 0.12764,0.15671 -0.63351,0.15412 -1.62189,-0.006 -4.22869,-0.25329 -8.851,-0.49861 -4.64591,-0.24658 -11.30749,-0.4909 -12.84088,-0.4958 -1.45638,-0.005 3.70007,0.23147 6.7852,0.469 3.07125,0.23646 4.07333,0.47442 2.216,0.46811 -3.89986,-0.0133 -3.17049,0.0201 -3.17049,0.0201 0,0 1.83247,0.16122 1.55815,0.48628 -0.20516,0.2431 -2.22526,0.48937 -1.06028,0.49362 1.73356,0.006 5.39556,-0.23165 6.95906,-0.46811 1.57055,-0.23753 1.04211,-0.47365 2.40727,-0.469 1.95268,0.007 4.06274,0.25181 3.86307,0.49841 -0.19866,0.24534 -2.70427,0.49219 -1.6618,0.496 0.71037,0.003 2.19788,-0.0594 3.65421,-0.15412 1.50945,-0.0981 2.79158,-0.21821 3.57881,-0.34899 0.79783,-0.13254 0.94174,-0.2494 0.91492,-0.34994 -0.0254,-0.0952 -0.18679,-0.15842 0.23856,-0.15697 0.51766,0.002 1.39605,0.069 2.00291,0.16878 0.63193,0.10386 0.88789,0.22817 0.54058,0.36461 -0.35094,0.13786 -1.23217,0.2592 -2.16846,0.36424 -0.88792,0.0996 -1.65098,0.16627 -1.2728,0.16765 0.46201,0.002 1.8568,-0.0625 3.31622,-0.15989 1.52409,-0.10169 2.88085,-0.22322 3.83048,-0.35776 0.97295,-0.13785 1.28345,-0.25251 1.55152,-0.35698 0.24819,-0.0967 0.42767,-0.1604 1.2718,-0.15753 2.09525,0.007 4.20454,0.25847 3.67218,0.51057 -0.52964,0.25081 -3.69222,0.50236 -3.40359,0.50341 0.85677,0.003 4.49716,-0.23589 5.87965,-0.47385 1.54611,-0.26612 0.35376,-0.47768 0.35376,-0.47768 z"
         style="color:#000000;clip-rule:nonzero;display:inline;overflow:visible;visibility:visible;opacity:1;isolation:auto;mix-blend-mode:normal;color-interpolation:sRGB;color-interpolation-filters:linearRGB;solid-color:#000000;solid-opacity:1;fill:none;fill-opacity:1;fill-rule:nonzero;stroke:#000000;stroke-width:3.05073047;stroke-linecap:round;stroke-linejoin:round;stroke-miterlimit:4;stroke-dasharray:none;stroke-dashoffset:0;stroke-opacity:1;color-rendering:auto;image-rendering:auto;shape-rendering:auto;text-rendering:auto;enable-background:accumulate"
         inkscape:connector-curvature="0" />
    </g>
  </g>
</svg>
