<?xml version="1.0" encoding="UTF-8" standalone="no"?>
<!-- Created with Inkscape (http://www.inkscape.org/) -->

<svg
   xmlns:dc="http://purl.org/dc/elements/1.1/"
   xmlns:cc="http://creativecommons.org/ns#"
   xmlns:rdf="http://www.w3.org/1999/02/22-rdf-syntax-ns#"
   xmlns:svg="http://www.w3.org/2000/svg"
   xmlns="http://www.w3.org/2000/svg"
   xmlns:sodipodi="http://sodipodi.sourceforge.net/DTD/sodipodi-0.dtd"
   xmlns:inkscape="http://www.inkscape.org/namespaces/inkscape"
   width="512"
   height="285.13876"
   viewBox="0 0 512.00001 285.13877"
   id="svg4495"
   version="1.1"
   inkscape:version="0.91 r13725"
   sodipodi:docname="pyramid-1.svg">
  <defs
     id="defs4497" />
  <sodipodi:namedview
     id="base"
     pagecolor="#ffffff"
     bordercolor="#666666"
     borderopacity="1.0"
     inkscape:pageopacity="0.0"
     inkscape:pageshadow="2"
     inkscape:zoom="0.35"
     inkscape:cx="-455.46473"
     inkscape:cy="76.870613"
     inkscape:document-units="px"
     inkscape:current-layer="layer1"
     showgrid="false"
     fit-margin-top="6"
     fit-margin-left="6"
     fit-margin-right="6"
     fit-margin-bottom="6"
     units="px"
     inkscape:window-width="1920"
     inkscape:window-height="1135"
     inkscape:window-x="0"
     inkscape:window-y="0"
     inkscape:window-maximized="1" />
  <metadata
     id="metadata4500">
    <rdf:RDF>
      <cc:Work
         rdf:about="">
        <dc:format>image/svg+xml</dc:format>
        <dc:type
           rdf:resource="http://purl.org/dc/dcmitype/StillImage" />
        <dc:title></dc:title>
      </cc:Work>
    </rdf:RDF>
  </metadata>
  <g
     inkscape:label="Ebene 1"
     inkscape:groupmode="layer"
     id="layer1"
     transform="translate(209.53527,-324.09404)">
    <path
       id="path4205"
       d="m 291.39638,597.35334 -260.06043,1.1203 -230.37425,-1.3447 123.97037,-128.1513 119.43959,-120.7224 107.46257,110.0081 z"
       inkscape:transform-center-y="-42.145553"
       style="color:#000000;clip-rule:nonzero;display:inline;overflow:visible;visibility:visible;opacity:1;isolation:auto;mix-blend-mode:normal;color-interpolation:sRGB;color-interpolation-filters:linearRGB;solid-color:#000000;solid-opacity:1;fill:#ffffff;fill-opacity:1;fill-rule:nonzero;stroke:none;stroke-width:10.23534393;stroke-linecap:round;stroke-linejoin:round;stroke-miterlimit:4;stroke-dasharray:none;stroke-dashoffset:0;stroke-opacity:1;color-rendering:auto;image-rendering:auto;shape-rendering:auto;text-rendering:auto;enable-background:accumulate"
       inkscape:connector-curvature="0"
       sodipodi:nodetypes="ccccccc" />
    <g
       id="g4417"
       transform="matrix(1.8523479,0,0,1.8523479,-428.58949,-60.888903)">
      <path
         id="path4322"
         d="m 595.17289,813.4592 -340.88718,0 -340.887193,0 L 83.842109,518.24224 254.28571,223.02527 424.7293,518.24223 Z"
         inkscape:transform-center-y="-5.1196563"
         style="color:#000000;clip-rule:nonzero;display:inline;overflow:visible;visibility:visible;opacity:1;isolation:auto;mix-blend-mode:normal;color-interpolation:sRGB;color-interpolation-filters:linearRGB;solid-color:#000000;solid-opacity:1;fill:#c82506;fill-opacity:1;fill-rule:nonzero;stroke:none;stroke-width:10.23534393;stroke-linecap:round;stroke-linejoin:round;stroke-miterlimit:4;stroke-dasharray:none;stroke-dashoffset:0;stroke-opacity:1;color-rendering:auto;image-rendering:auto;shape-rendering:auto;text-rendering:auto;enable-background:accumulate"
         transform="matrix(0.08673845,0,0,0.05202599,232.93928,209.17095)"
         inkscape:connector-curvature="0" />
      <path
         id="path4136"
         d="m 584.25939,818.70088 c -20.74878,-1.11895 -44.90688,0.0111 -68.10264,-0.0386 -1.00032,-0.002 -1.99855,-0.006 -2.99493,-0.0106 m 7.33876,-4.54445 c -3.68217,-0.1304 -7.49405,-0.22732 -11.41285,-0.30206 m -4.34808,-2.46395 c -10.81633,-0.73141 -20.90706,-0.61761 -30.70044,-0.12781 m 7.58228,5.19114 c -23.79348,0.23398 -45.27665,-0.72137 -69.15596,-2.14855 l -10e-6,0 c -23.88288,-1.42738 -42.22683,-0.81244 -59.98696,-2.46093 l -1e-5,0 c -9.02149,-0.83738 -20.84448,-0.238 -33.71204,1.14772 m 13.45536,-4.8121 c -22.62316,-0.68941 -47.50833,0.58656 -75.83618,1.75813 -3.38922,0.14016 -6.57924,0.23997 -9.60149,0.3054 -9.0216,0.19532 -16.54819,0.0844 -23.41538,-0.17338 m 17.42409,1.28189 c -14.13955,-0.21314 -29.49195,0.62632 -45.50179,2.25651 m 8.26361,5.84548 c -9.99585,0.29261 -20.50208,0.0252 -31.22731,-0.62218 m 0.13676,-8.98678 c -0.53637,0.036 -1.07089,0.0705 -1.60361,0.10357 m -0.0826,6.08345 c -20.57948,0.48134 -44.40233,-0.25189 -66.57928,-0.78147 l -1e-5,0 c -22.180272,-0.52965 -46.02222,-1.41336 -71.432279,-4.25781 -5.463005,-0.61154 -10.63693,-1.00567 -15.617071,-1.26733 m 14.207147,-1.67003 c -20.956438,0.31324 -43.177832,3.23595 -62.868173,9.72642 -16.381955,5.39995 -35.801638,-0.24833 -53.876128,-5.75494 1.951394,-4.34903 3.957749,-8.69228 6.055264,-12.93732 1.220074,-2.46924 2.400696,-4.7977 3.545703,-7.00225 m -9.747596,18.33103 c 11.304219,-20.15291 20.911251,-38.53637 29.461059,-57.84315 1.871833,-4.22688 4.012384,-8.4907 6.341312,-12.79383 m 2.851558,6.52087 c 10.485113,-18.59139 22.888303,-37.89326 35.320802,-55.96885 l 1e-6,0 c 12.43436342,-18.0783 22.269238,-40.65543 33.489582,-64.25846 0.04551,-0.0957 0.09101,-0.19133 0.136484,-0.28678 m -6.347333,20.97086 c 9.846557,-19.64587 19.538362,-40.0697 25.282017,-62.49174 2.065297,-8.06249 5.769971,-15.4178 10.368123,-22.50873 m -1.848779,7.24116 c 4.304475,-7.02667 8.574083,-13.95424 12.959387,-20.8805 m 1.528462,4.91862 c 6.416951,-10.90596 12.476876,-21.92391 18.406663,-33.26221 3.703953,-7.0823 7.357131,-14.28959 11.014828,-21.67265 m -3.423375,1.56078 c 10.146892,-20.88128 23.108122,-37.71888 36.024082,-55.46 l 0,0 c 12.91789,-17.74378 20.80358,-36.68417 29.07552,-52.30533 l 0,-10e-6 c 1.39067,-2.62621 2.94314,-5.5424 4.61683,-8.69684 m -4.25292,9.68001 c 10.49817,-19.59345 23.05646,-38.58828 35.8286,-58.03871 l 1e-5,0 c 12.77405,-19.45334 22.74841,-41.28162 34.89582,-66.13345 l 1e-5,-1e-5 c 8.87513,-18.15722 16.44641,-29.01191 23.91739,-39.11547 m -7.27518,17.98457 c 4.38271,-8.07509 8.84199,-15.99207 13.23872,-23.76337 6.10843,11.58065 12.09611,23.44248 17.5899,35.5521 l 10e-6,10e-6 c 9.44953,20.82901 22.65448,38.30235 34.62238,57.18814 l 10e-6,1e-5 c 9.58547,15.12622 18.36925,30.54901 27.67952,45.72813 m -5.3115,-15.31662 c 9.87317,19.87956 21.47896,38.10732 31.10233,56.55421 2.10687,4.03863 4.27132,8.17821 6.44658,12.39345 m -7.65979,-7.69785 c 10.8618,20.28283 20.78085,37.88962 29.03156,55.96809 7.39503,16.20353 19.89845,35.17452 31.32724,54.4033 1.32436,2.2282 2.63429,4.45987 3.92016,6.6911 0.19534,0.33894 0.3902,0.6771 0.5846,1.01451 m -0.24267,-8.6878 c 0.79033,1.38319 1.57882,2.75213 2.36586,4.10767 10.665,18.36868 21.06278,34.27806 32.13417,49.86829 l 0,10e-6 c 11.89021,16.74325 22.09714,38.78957 32.98177,58.63345 l 0,10e-6 c 4.89121,8.91722 9.65122,17.4453 14.21726,25.74732 m -13.32967,-9.25208 c 9.95157,20.12611 22.60729,35.94207 34.50073,50.10878 l 0,10e-6 c 11.89522,14.16883 22.33036,38.88619 33.64582,58.94595 l 10e-6,10e-6 c 9.06291,16.06649 19.26356,31.14707 30.90488,46.49533 m -7.08257,-11.84249 c 5.53775,7.9842 10.047,16.5859 13.88466,25.46839 -13.71962,0.4148 -28.48917,1.26858 -43.61098,1.90316 l -10e-6,0 c -27.22,1.14228 -43.39542,0.023 -63.54165,0.0781 l -1e-5,0 c -9.52526,0.0261 -20.13779,-0.7052 -31.17659,-2.17337 M -76.48356,795.93444 -9.1007465,679.22398 M 180.81572,350.27903 233.7454,258.60212 m -0.94454,-72.7897 57.61719,99.7959 M -31.565355,718.13383 60.231521,559.13698 M 255.06451,224.3742 329.67388,353.60142"
         inkscape:transform-center-y="-22.515492"
         style="color:#000000;clip-rule:nonzero;display:inline;overflow:visible;visibility:visible;opacity:1;isolation:auto;mix-blend-mode:normal;color-interpolation:sRGB;color-interpolation-filters:linearRGB;solid-color:#000000;solid-opacity:1;fill:none;fill-opacity:1;fill-rule:nonzero;stroke:#000000;stroke-width:10.23534393;stroke-linecap:round;stroke-linejoin:round;stroke-miterlimit:4;stroke-dasharray:none;stroke-dashoffset:0;stroke-opacity:1;color-rendering:auto;image-rendering:auto;shape-rendering:auto;text-rendering:auto;enable-background:accumulate"
         transform="matrix(0.38827684,0,0,0.22880278,156.7088,169.74525)"
         inkscape:connector-curvature="0" />
      <path
         id="path4305"
         d="m 295.58364,250.30427 c 0,0 0.04,0.0153 -2.51836,0.0644 -1.50215,0.0289 -2.83904,-0.20586 -4.47196,-0.4423 -1.62802,-0.23572 -3.55391,-0.47329 -4.86063,-0.44658 -1.47614,0.0302 -0.98315,0.30446 -0.89076,0.57593 0.0929,0.27298 -0.2142,0.54334 -1.77183,0.57322 -1.74851,0.0335 -2.99448,-0.19899 -4.27074,-0.43837 -1.27199,-0.23857 -2.58552,-0.48472 -3.0891,-0.47445 -0.67703,0.0138 0.0131,0.26994 0.22789,0.52609 0.21592,0.25742 -0.0456,0.51477 -1.22648,0.53743 -1.37344,0.0264 -2.3274,-0.20956 -3.57425,-0.44737 -1.24286,-0.23705 -2.78043,-0.47614 -3.94704,-0.45232 -1.34645,0.0275 -1.19088,0.27579 -1.40147,0.52251 -0.21168,0.24801 -0.78999,0.49452 -2.36508,0.52487 -1.77379,0.0342 -2.80339,-0.19794 -4.08148,-0.43249 -1.27433,-0.23387 -2.80026,-0.47038 -4.20643,-0.44154 -1.57954,0.0324 -1.60835,0.30934 -1.85407,0.57965 -0.2471,0.27184 -0.70699,0.53766 -1.62926,0.5554 -1.11928,0.0215 -1.63083,-0.21674 -2.37451,-0.45835 -0.74097,-0.24072 -1.71773,-0.48511 -2.3861,-0.47143 -0.84608,0.0173 -0.64923,0.28461 -0.94467,0.55142 -0.29704,0.26827 -1.08826,0.53601 -2.41632,0.56151 -1.52642,0.0293 -2.0878,-0.2052 -2.78649,-0.4446 -0.69625,-0.23857 -1.53612,-0.48255 -2.2478,-0.46801 -0.89229,0.0182 -0.89132,0.28068 -1.34399,0.54225 -0.45513,0.263 -1.3653,0.52511 -2.65042,0.54978 -0.45863,0.33333 -1.43993,0.66666 -2.94389,1 1.36246,-0.0247 3.09462,-0.28678 4.3745,-0.54978 1.27296,-0.26157 2.09502,-0.52402 3.04448,-0.54225 1.26292,-0.0242 1.60824,0.21467 1.56728,0.45334 -0.0411,0.2395 -0.46969,0.47873 0.60509,0.45927 1.40802,-0.0255 3.03886,-0.29324 4.1772,-0.56151 1.13216,-0.26681 1.77353,-0.5341 2.6739,-0.55142 1.21078,-0.0233 1.68849,0.21609 1.6855,0.45691 -0.003,0.24171 -0.48993,0.48464 0.15937,0.47287 0.97788,-0.0177 2.27139,-0.28356 3.37095,-0.5554 1.09343,-0.27031 1.99074,-0.54726 3.67187,-0.57965 1.99003,-0.0383 3.037,0.19322 3.58865,0.42719 0.55327,0.23466 0.60641,0.47141 1.95829,0.44684 1.67027,-0.0303 3.02165,-0.27686 4.01107,-0.52487 0.98432,-0.24672 1.60738,-0.49501 3.04005,-0.52251 1.7297,-0.0332 2.77784,0.20102 3.28803,0.43817 0.51181,0.23791 0.48006,0.47839 1.41184,0.46152 1.25195,-0.0227 2.32052,-0.28001 2.91188,-0.53743 0.58842,-0.25615 0.70153,-0.51227 1.42189,-0.52609 1.01965,-0.0196 1.81988,0.22177 2.35438,0.46044 0.53629,0.23947 0.80898,0.47651 2.1429,0.45238 1.65131,-0.0299 2.80628,-0.30024 3.56942,-0.57322 0.75894,-0.27147 1.12608,-0.54575 2.69687,-0.57593 1.86765,-0.0359 3.30243,0.19692 4.2018,0.43274 0.90204,0.23653 1.26243,0.47572 2.34329,0.45614 1.39629,-0.0253 2.21334,-0.29 2.30818,-0.55066 0.0977,-0.26856 -0.55344,-0.51377 -0.55344,-0.51377 z m -72.15689,1.38764 c 0,0 -0.0879,0.0492 -2.99184,0.10489 -1.69554,0.0325 -1.99703,-0.20413 -2.39038,-0.44666 -0.39194,-0.24166 -0.88297,-0.48989 -1.55222,-0.47622 -0.85678,0.0175 -1.174,0.26332 -1.77359,0.50611 -0.60262,0.24402 -1.48702,0.48523 -2.23475,0.49963 -0.96177,0.0185 -0.89778,-0.20306 -0.99424,-0.42836 -0.0961,-0.22448 -0.35581,-0.45303 -0.78372,-0.4443 -0.6212,0.0127 -0.91542,0.25833 -1.37597,0.49871 -0.44255,0.23098 -1.11446,0.47872 -1.11446,0.47872 0,0 -0.13626,0.0492 1.25233,0.0226 0.97872,-0.0188 0.80123,0.20455 0.20378,0.42912 -0.59962,0.2254 -1.62139,0.45188 -1.16245,0.44354 0.79288,-0.0144 2.43373,-0.25561 3.80158,-0.49963 1.36097,-0.24279 2.4491,-0.48862 3.36075,-0.50611 1.2308,-0.0236 1.22154,0.2194 0.86682,0.46118 -0.35598,0.24265 -1.05762,0.48411 0.18165,0.4617 1.58524,-0.0287 3.65895,-0.30322 4.9493,-0.57332 1.31347,-0.27495 1.75741,-0.53157 1.75741,-0.53157 z"
         style="color:#000000;clip-rule:nonzero;display:inline;overflow:visible;visibility:visible;opacity:1;isolation:auto;mix-blend-mode:normal;color-interpolation:sRGB;color-interpolation-filters:linearRGB;solid-color:#000000;solid-opacity:1;fill:none;fill-opacity:1;fill-rule:nonzero;stroke:#000000;stroke-width:3.05073047;stroke-linecap:round;stroke-linejoin:round;stroke-miterlimit:4;stroke-dasharray:none;stroke-dashoffset:0;stroke-opacity:1;color-rendering:auto;image-rendering:auto;shape-rendering:auto;text-rendering:auto;enable-background:accumulate"
         inkscape:connector-curvature="0" />
      <path
         id="path4314"
         d="m 329.39685,286.25016 c 0,0 -0.0407,0.0152 -2.63472,-0.0152 -1.50568,-0.0177 -1.67025,-0.27753 -2.17779,-0.53572 -0.50908,-0.25896 -1.36075,-0.51633 -2.82909,-0.53297 -1.66358,-0.0188 -2.32795,0.22831 -3.32874,0.47654 -0.9986,0.24769 -2.3342,0.49653 -3.88174,0.47833 -1.73073,-0.0203 -2.10508,-0.28159 -2.53893,-0.53785 -0.43514,-0.25702 -0.92603,-0.50935 -1.48219,-0.51566 -0.75461,-0.009 -0.90691,0.23411 -1.50371,0.47648 -0.59542,0.24181 -1.63386,0.48329 -2.80078,0.46958 -0.64363,0.33333 -1.80994,0.66666 -3.49891,1 1.1239,0.0137 2.91962,-0.22777 4.27338,-0.46958 1.35688,-0.24237 2.27016,-0.48503 2.99794,-0.47648 1.02704,0.0121 0.96087,0.2672 0.58302,0.52425 -0.37674,0.2563 -1.06625,0.51461 0.13428,0.52926 1.49048,0.0182 3.60643,-0.23064 5.38178,-0.47833 1.77927,-0.24823 3.21869,-0.49538 4.82318,-0.47654 1.90506,0.0224 2.18268,0.28253 1.87266,0.54153 -0.30908,0.25821 -1.20294,0.51515 -0.21721,0.52716 1.27166,0.0155 3.35265,-0.23121 4.74869,-0.48095 1.42765,-0.25538 2.07888,-0.5038 2.07888,-0.5038 z m -31.24115,-0.36668 c 0,0 0.0518,-0.0336 -3.02102,-0.0696 -1.75078,-0.0205 -2.38857,-0.26463 -3.27911,-0.50669 -0.89316,-0.24276 -2.03844,-0.48358 -3.58221,-0.50108 -1.74968,-0.0198 -2.18938,0.21121 -2.73649,0.44535 -0.54593,0.23365 -1.20257,0.47059 -2.10079,0.46004 -1.08534,-0.0127 -1.44083,-0.27875 -2.08238,-0.54219 -0.64349,-0.26424 -1.57181,-0.52603 -2.30332,-0.5343 -0.92635,-0.0105 -0.78968,0.2489 -1.133,0.50826 -0.34247,0.25872 -1.16361,0.51739 -2.44852,0.50229 -0.25887,0.33333 -1.0404,0.66667 -2.3446,1 1.23757,0.0151 2.8699,-0.24357 4.02371,-0.50229 1.15669,-0.25936 1.83342,-0.51874 2.72693,-0.50826 1.20409,0.0141 1.54894,0.27874 1.35655,0.54301 -0.19181,0.26347 -0.91893,0.52651 -0.34677,0.53348 0.86516,0.0105 2.26485,-0.22639 3.54349,-0.46004 1.2814,-0.23414 2.44562,-0.46518 4.13312,-0.44535 1.98401,0.0233 2.61071,0.26696 2.73597,0.50975 0.12489,0.24209 -0.24963,0.48323 0.96498,0.49802 1.49852,0.0182 3.30945,-0.21482 4.41529,-0.45169 1.13417,-0.24294 1.47817,-0.4787 1.47817,-0.4787 z m -29.02567,-0.34068 c 0,0 -0.0164,0.0344 -2.43301,0.006 -1.41993,-0.0167 -2.08004,-0.28452 -3.11777,-0.55073 -1.04104,-0.26707 -2.45961,-0.53258 -3.89828,-0.54887 -1.63598,-0.0185 -1.69639,0.23362 -2.07942,0.48723 -0.38215,0.25301 -1.08782,0.50756 -2.50455,0.4909 -1.60216,-0.0188 -2.45744,-0.28465 -3.45397,-0.54622 -0.99962,-0.26238 -2.13805,-0.52077 -2.84753,-0.52881 -0.91449,-0.0104 -0.62048,0.22083 -0.58567,0.45343 0.0347,0.23206 -0.19044,0.46559 -0.90232,0.45724 0.1411,0.33334 -0.24048,0.66667 -1.14473,1 0.68569,0.008 1.64324,-0.22518 2.33625,-0.45724 0.69461,-0.2326 1.12562,-0.46379 2.00761,-0.45343 1.18801,0.014 1.75614,0.27522 1.9257,0.53763 0.16904,0.2616 -0.0604,0.5244 1.0045,0.5374 1.36448,0.0167 2.86844,-0.23789 4.04403,-0.4909 1.17834,-0.25361 2.02947,-0.50575 3.60737,-0.48723 1.88952,0.0222 2.71418,0.29055 2.91039,0.55764 0.19558,0.26625 -0.23432,0.53108 0.65728,0.54196 1.18776,0.0145 2.69375,-0.23758 3.52329,-0.49233 0.85984,-0.26406 0.95083,-0.51364 0.95083,-0.51364 z m -25.83227,-0.30319 c 0,0 -0.009,-0.0199 -2.56776,-0.0499 -1.49847,-0.0176 -2.46919,-0.26376 -3.56977,-0.5064 -1.10378,-0.24334 -2.33573,-0.48334 -3.10701,-0.49208 1.26142,0.33333 2.00018,0.66666 2.21627,1 1.25043,0.0147 1.97184,0.25758 2.30576,0.50096 0.33296,0.24267 0.27905,0.48582 1.23978,0.49752 1.25336,0.0153 2.47104,-0.22277 3.03597,-0.46379 0.59008,-0.25173 0.44676,-0.48628 0.44676,-0.48628 z m -12.20006,-0.1432 c 0,0 0.009,0.009 -1.32083,-0.006 -0.88677,-0.0104 -1.6192,-0.25657 -2.5975,-0.50053 -0.98107,-0.24465 -2.20722,-0.48721 -2.79643,-0.49389 -0.79993,-0.009 -0.27356,0.21925 -0.006,0.44887 0.2666,0.2291 0.27353,0.45956 -0.3621,0.4521 -0.83213,-0.01 -1.62585,-0.26739 -2.7634,-0.52347 -1.14095,-0.25684 -2.62562,-0.51221 -3.42727,-0.52127 -1.00447,-0.0114 -0.37528,0.2393 -0.29493,0.48877 0.0802,0.24888 -0.38588,0.49645 -2.13095,0.47597 -1.93566,-0.0227 -3.37677,-0.29143 -4.92262,-0.55535 -1.55085,-0.26478 -3.20424,-0.52507 -4.10134,-0.53521 -1.09937,-0.0124 -0.38001,0.24507 -0.17268,0.5021 0.20681,0.2564 -0.0966,0.51225 -1.70678,0.49333 -1.79955,-0.0212 -3.24844,-0.29014 -4.87449,-0.55515 -1.63135,-0.26588 -3.43832,-0.52803 -4.47976,-0.53982 -1.24771,-0.0141 -0.57306,0.23074 -0.0999,0.47821 0.47196,0.24685 0.74058,0.49647 0.0837,0.48875 -0.84925,-0.01 -1.91084,-0.27519 -3.4133,-0.53965 -1.50722,-0.26529 -3.45597,-0.52982 -4.58611,-0.54261 -1.33604,-0.0151 -0.6365,0.22528 -0.26743,0.46658 0.36822,0.24073 0.4059,0.48242 -0.9011,0.46709 0.8916,0.33333 1.26052,0.66667 1.10678,1 1.25893,0.0153 1.97917,-0.22636 2.36592,-0.46709 0.38765,-0.2413 0.44197,-0.48169 1.73061,-0.46658 1.60798,0.0189 2.97344,0.28634 3.64126,0.55166 0.66572,0.26449 0.63746,0.52662 0.96415,0.5306 0.63267,0.008 1.14685,-0.2419 1.44903,-0.48875 0.30294,-0.24747 0.39621,-0.49234 1.59961,-0.47821 1.52016,0.0178 2.75034,0.28292 3.54047,0.54883 0.78758,0.26505 1.13569,0.53095 2.37994,0.54614 1.55085,0.0189 2.65659,-0.23693 3.25384,-0.49333 0.59873,-0.25703 0.68693,-0.51454 1.7473,-0.5021 1.37903,0.0162 2.46067,0.27937 3.17382,0.54418 0.71086,0.26396 1.053,0.52959 2.43012,0.54638 1.68083,0.0205 2.92327,-0.22709 3.6236,-0.47597 0.70199,-0.24947 0.85888,-0.50013 1.82773,-0.48877 1.28445,0.0151 2.21197,0.27333 2.5403,0.53021 0.32736,0.25611 0.0584,0.51069 0.37404,0.51453 0.61225,0.007 1.32804,-0.223 1.77988,-0.4521 0.45289,-0.22962 0.64253,-0.45794 1.41402,-0.44887 1.07665,0.0127 1.78505,0.25812 1.99208,0.50281 0.20645,0.24399 -0.0865,0.48711 0.28331,0.49161 0.66615,0.008 1.51647,-0.24094 1.83844,-0.49102 0.34106,-0.2649 0.0853,-0.50274 0.0853,-0.50274 z"
         style="color:#000000;clip-rule:nonzero;display:inline;overflow:visible;visibility:visible;opacity:1;isolation:auto;mix-blend-mode:normal;color-interpolation:sRGB;color-interpolation-filters:linearRGB;solid-color:#000000;solid-opacity:1;fill:none;fill-opacity:1;fill-rule:nonzero;stroke:#000000;stroke-width:3.05073047;stroke-linecap:round;stroke-linejoin:round;stroke-miterlimit:4;stroke-dasharray:none;stroke-dashoffset:0;stroke-opacity:1;color-rendering:auto;image-rendering:auto;shape-rendering:auto;text-rendering:auto;enable-background:accumulate"
         inkscape:connector-curvature="0" />
      <path
         id="path4318"
         d="m 358.58801,318.0741 c 0,0 -0.10691,0.0152 -2.71946,0.006 -1.35819,-0.005 -0.58681,-0.25859 -2.07477,-0.51044 -1.49541,-0.25312 -5.25001,-0.50428 -6.92438,-0.50963 -0.89141,-0.003 -0.64279,0.0595 -0.22518,0.15415 0.4501,0.10204 0.94224,0.21467 0.92474,0.34924 -0.017,0.13101 -0.53942,0.2508 -1.42546,0.34936 -0.85289,0.0949 -1.93566,0.1571 -2.68202,0.15455 -1.57731,-0.005 -0.99193,-0.25975 -2.37555,-0.51103 -1.3905,-0.25254 -4.74352,-0.50224 -5.46906,-0.50457 -0.63192,-0.002 2.04226,0.24324 2.41368,0.48983 0.36972,0.24546 -1.56077,0.49231 -2.87526,0.48782 -1.19941,-0.004 -0.59423,-0.25778 -2.23789,-0.50935 -1.6519,-0.25283 -5.55246,-0.50369 -7.0364,-0.50844 -1.40841,-0.005 0.91631,0.22496 1.29146,0.45579 0.37358,0.22986 -1.20184,0.46116 -2.8878,0.45542 -1.58951,-0.005 -1.71759,-0.25977 -4.06059,-0.51186 -2.35489,-0.25338 -6.9242,-0.50464 -8.67819,-0.51023 -0.93204,-0.003 -0.50564,0.0596 0.21776,0.1548 0.78685,0.10353 1.65176,0.21498 2.13835,0.35146 0.47305,0.13269 0.43099,0.25209 0.0343,0.35253 -0.37918,0.096 -1.028,0.15943 -1.44646,0.158 -0.92795,-0.003 -0.7323,-0.25637 -2.70275,-0.50725 -1.98023,-0.25212 -6.12511,-0.50207 -7.02731,-0.50495 -0.50818,-0.002 0.21967,0.0615 1.14511,0.15677 0.98103,0.10096 1.96566,0.2172 2.47872,0.35036 0.50578,0.13126 0.43099,0.25114 -0.0544,0.34992 -0.46712,0.0951 -1.25746,0.15756 -1.86593,0.15548 -1.30483,-0.004 -1.30959,-0.25834 -3.39701,-0.50956 -2.09788,-0.25248 -6.27523,-0.5025 -7.21554,-0.5055 -0.83981,-0.003 2.51036,0.2461 3.53299,0.4964 1.01786,0.24912 -0.2899,0.49983 -1.66647,0.49513 -1.25458,-0.004 -1.34461,-0.25808 -3.69821,-0.5098 -2.36554,-0.253 -6.99528,-0.50406 -8.61808,-0.50925 -0.86595,-0.003 -0.38158,0.0587 0.39005,0.15215 0.83213,0.10073 1.74279,0.21175 2.25009,0.3446 0.49411,0.1294 0.45799,0.24741 0.002,0.34487 -0.43799,0.0937 -1.21102,0.15525 -1.88245,0.15295 -1.42886,-0.005 -1.73754,-0.25901 -4.07992,-0.51028 -2.3542,-0.25253 -6.73815,-0.50245 -7.61365,-0.50525 5.64961,0.33333 8.0325,0.66666 7.14868,1 1.32098,0.005 1.03686,0.25524 -1.57149,0.50779 -2.59527,0.25129 -7.516,0.50453 -6.63973,0.50774 0.62644,0.002 2.60569,-0.0592 4.88038,-0.15295 2.36565,-0.0975 4.71496,-0.21547 6.75706,-0.34487 2.09664,-0.13285 3.36195,-0.24387 4.5042,-0.3446 1.05922,-0.0934 1.78052,-0.15492 2.59214,-0.15215 2.02073,0.007 1.95948,0.25877 -0.64652,0.51178 -2.59288,0.25174 -7.72538,0.50466 -7.01093,0.50727 1.28444,0.005 7.5062,-0.24601 11.37124,-0.49513 3.88319,-0.2503 5.40947,-0.49909 6.19662,-0.4964 1.38018,0.005 0.88675,0.25553 -1.97671,0.50803 -2.8492,0.25123 -8.06841,0.50424 -7.30636,0.50703 0.56776,0.002 2.58278,-0.0604 4.91338,-0.15548 2.42163,-0.0988 4.84595,-0.21866 6.91303,-0.34992 2.09681,-0.13316 3.39053,-0.2494 4.38839,-0.35036 0.94131,-0.0952 1.4513,-0.15839 1.92766,-0.15677 1.34447,0.005 0.81984,0.25534 -2.15422,0.50748 -2.95938,0.25089 -8.36562,0.50322 -7.9552,0.50472 0.39051,10e-4 2.28223,-0.062 4.54334,-0.158 2.36536,-0.10044 4.74771,-0.21984 6.87534,-0.35253 2.18855,-0.13648 3.50804,-0.24793 4.75041,-0.35146 1.14219,-0.0952 1.94258,-0.15777 2.81641,-0.1548 2.14331,0.007 2.01733,0.25935 -0.60668,0.51274 -2.61079,0.25212 -7.71608,0.50561 -6.68798,0.50935 1.57363,0.006 7.6825,-0.22556 11.81419,-0.45542 4.14919,-0.23083 6.32222,-0.4603 7.64227,-0.45579 1.88607,0.006 1.09763,0.2581 -2.21867,0.51095 -3.2998,0.25159 -9.12301,0.5044 -8.45603,0.50684 1.2265,0.004 7.99533,-0.24236 12.43667,-0.48782 4.46175,-0.24659 6.5948,-0.49185 7.18705,-0.48983 1.17393,0.004 -0.13983,0.25452 -3.71169,0.50707 -3.55418,0.2513 -9.3704,0.5048 -8.34978,0.50853 0.69638,0.003 2.99878,-0.0597 5.7113,-0.15455 2.81795,-0.0986 5.68821,-0.21835 8.27312,-0.34936 2.65509,-0.13457 4.37053,-0.2472 5.92031,-0.34924 1.4379,-0.0947 2.41106,-0.157 3.24662,-0.15415 2.0631,0.007 1.12215,0.259 -2.35621,0.51213 -3.46103,0.25187 -9.45493,0.50495 -8.63827,0.50794 1.38112,0.005 8.63719,-0.24772 13.22654,-0.49982 4.78672,-0.26295 6.37053,-0.50651 6.37053,-0.50651 z M 275.20358,317.79 c 0,0 0.0316,-0.0238 -1.28354,-0.0283 -0.71404,-0.002 -1.17163,-0.25526 -3.93414,-0.50625 -2.77638,-0.25225 -7.85964,-0.50276 -9.13662,-0.50683 -1.17578,-0.004 2.76594,0.24395 4.54156,0.4936 1.76728,0.24847 1.36758,0.49903 0.22818,0.49516 -1.01501,-0.003 -1.75704,-0.25684 -4.60169,-0.50767 -2.85893,-0.25209 -7.81859,-0.50182 -8.58515,-0.50427 -0.44179,-10e-4 0.56581,0.062 1.88934,0.15764 1.40431,0.10144 2.85644,0.21791 3.93776,0.35173 1.06976,0.13239 1.52334,0.25177 1.56439,0.3519 0.0393,0.0958 -0.30866,0.15922 -0.61899,0.15816 -0.71397,-0.002 -1.25767,-0.25529 -3.9762,-0.50586 -2.73212,-0.25183 -7.63855,-0.50154 -8.3955,-0.50396 -0.6669,-0.002 3.45172,0.23891 5.49588,0.48173 2.0347,0.24169 1.99491,0.48528 1.21985,0.48265 -0.66247,-0.002 -1.40145,-0.25502 -4.37874,-0.50571 -2.99223,-0.25196 -8.22368,-0.50199 -9.19313,-0.50508 -0.54195,-0.002 0.426,0.061 1.72031,0.15556 1.37022,0.10013 2.8136,0.21586 3.82975,0.34789 1.00022,0.12996 1.36776,0.24952 1.18743,0.34698 -0.17412,0.0941 -0.84615,0.15565 -1.67497,0.15282 -1.74308,-0.006 -3.09884,-0.26063 -6.44852,-0.5123 -3.36686,-0.25295 -8.724,-0.50314 -9.7856,-0.50653 -0.58917,-0.002 0.38074,0.0615 1.69975,0.15712 1.39957,0.10149 2.88052,0.21811 3.94814,0.35197 1.05033,0.13169 1.46271,0.25245 1.33574,0.35135 -0.12242,0.0954 -0.73871,0.15784 -1.49697,0.15525 -1.60407,-0.005 -2.90004,-0.25993 -6.25953,-0.5116 -3.37676,-0.25296 -8.81471,-0.50336 -10.01888,-0.50722 -1.11258,-0.004 3.14248,0.23872 5.40188,0.48312 2.24888,0.24326 2.50007,0.48882 1.70929,0.48612 -0.67461,-0.002 -1.71564,-0.25509 -5.06953,-0.50606 -3.37091,-0.25223 -9.05718,-0.50276 -10.3499,-0.50689 -1.20637,-0.004 3.09402,0.23238 5.36708,0.47019 2.26286,0.23674 2.49921,0.47516 1.08206,0.47034 -1.30805,-0.004 -3.04864,-0.25838 -6.84411,-0.50955 -3.81488,-0.25245 -9.68276,-0.50237 -10.58105,-0.50523 -0.80534,-0.003 4.15442,0.24008 6.99495,0.48446 2.82723,0.24324 3.53607,0.48834 2.53932,0.48496 -0.87976,-0.003 -2.61341,-0.25615 -6.53851,-0.50707 -3.94509,-0.25219 -10.08237,-0.5023 -11.11259,-0.50558 -0.93026,-0.003 4.26612,0.24355 7.28845,0.49189 3.00797,0.24716 3.8426,0.49629 2.77382,0.49266 -0.9464,-0.003 -2.85025,-0.25648 -7.10703,-0.50803 -4.27873,-0.25283 -10.914,-0.50404 -12.66523,-0.50962 -0.93253,-0.003 0.0653,0.0608 1.63564,0.1577 1.70644,0.10533 3.55116,0.21903 5.22485,0.35795 1.6319,0.13545 2.61567,0.25654 3.11441,0.35929 0.47545,0.098 0.42623,0.1628 0.12091,0.16175 -0.7067,-0.002 -2.39411,-0.25527 -6.23791,-0.5058 -3.86333,-0.2518 -9.88319,-0.50143 -10.60254,-0.50373 7.94811,0.33333 12.62951,0.66667 14.04419,1 1.18679,0.004 2.5495,0.25451 1.46461,0.50632 -1.07942,0.25055 -4.6029,0.50251 -4.41133,0.50321 0.28492,10e-4 1.605,-0.0638 3.04949,-0.16175 1.51524,-0.10275 2.90488,-0.22384 3.92788,-0.35929 1.0492,-0.13892 1.43305,-0.25262 1.79098,-0.35795 0.32938,-0.0969 0.5811,-0.16067 1.45541,-0.1577 2.15529,0.007 4.10271,0.25936 3.41284,0.51221 -0.68633,0.25156 -4.00171,0.50393 -3.58693,0.50544 0.99761,0.004 5.04602,-0.2455 6.88254,-0.49266 1.84529,-0.24834 1.48064,-0.49486 2.35282,-0.49189 1.47814,0.005 2.94875,0.25595 1.93793,0.50817 -1.0057,0.25093 -4.48856,0.50319 -4.13512,0.50448 0.93037,0.003 5.02557,-0.24172 6.96595,-0.48496 1.9495,-0.24438 1.74575,-0.48703 2.50074,-0.48446 1.35291,0.005 2.55721,0.25534 1.41109,0.50781 -1.14029,0.25119 -4.63046,0.50422 -3.87593,0.50697 1.32266,0.005 5.75943,-0.2336 8.13677,-0.47034 2.38806,-0.23781 2.71792,-0.47405 3.84868,-0.47019 1.71989,0.006 2.72955,0.25721 1.14371,0.50947 -1.57784,0.25098 -5.74392,0.50287 -5.57835,0.50348 0.7379,0.003 5.2997,-0.24286 7.81882,-0.48612 2.53092,-0.2444 3.02459,-0.48668 4.06735,-0.48312 1.63533,0.006 2.39828,0.25681 0.80406,0.50979 -1.58608,0.25169 -5.52913,0.50524 -4.49484,0.50903 0.70749,0.003 2.54845,-0.0599 4.53988,-0.15525 2.06553,-0.0989 4.01995,-0.21966 5.55083,-0.35135 1.55608,-0.13386 2.36101,-0.25048 2.95066,-0.35197 0.55572,-0.0957 0.8276,-0.159 1.37988,-0.15712 1.50173,0.005 2.18813,0.25612 0.58413,0.5091 -1.59583,0.25168 -5.48376,0.50548 -4.31949,0.50973 0.77345,0.003 2.65193,-0.0587 4.6704,-0.15282 2.09043,-0.0975 4.06631,-0.21702 5.61341,-0.34698 1.57176,-0.13203 2.39658,-0.24776 2.98899,-0.34789 0.55958,-0.0946 0.82075,-0.15729 1.3288,-0.15556 1.41488,0.005 1.97848,0.25566 0.0196,0.50763 -1.94914,0.25072 -6.4156,0.50259 -6.25949,0.50316 0.72336,0.003 5.53769,-0.24096 8.24024,-0.48265 2.7151,-0.24282 3.32096,-0.48386 3.94609,-0.48173 1.21401,0.004 1.4582,0.25467 -0.7583,0.50651 -2.20549,0.25059 -6.86828,0.50256 -6.66275,0.50331 0.28959,0.001 1.87963,-0.0623 3.7189,-0.15816 1.92149,-0.10013 3.80786,-0.21951 5.33299,-0.3519 1.54161,-0.13382 2.37224,-0.25029 2.95625,-0.35173 0.55041,-0.0956 0.78623,-0.15905 1.2004,-0.15764 1.22344,0.004 1.52065,0.25471 -0.57416,0.50682 -2.08436,0.25085 -6.55944,0.50334 -6.07317,0.50512 1.06342,0.004 6.37425,-0.24669 9.47709,-0.49516 3.11747,-0.24965 4.03075,-0.49735 5.13304,-0.4936 1.70115,0.006 2.10627,0.25711 -0.0742,0.50938 -2.16958,0.251 -6.9179,0.50295 -6.71177,0.5037 0.77017,0.003 5.92374,-0.24127 8.7453,-0.48418 2.99867,-0.25816 3.16892,-0.48753 3.16892,-0.48753 z m -95.12435,-0.3241 c 0,0 -0.0858,-0.0172 -2.14813,-0.0242 -1.08541,-0.004 -3.32431,-0.25724 -7.63939,-0.50813 -4.33723,-0.25217 -10.74974,-0.50191 -11.53657,-0.50442 -0.69003,-0.002 4.9312,0.24167 8.20624,0.4866 3.25969,0.24379 4.17828,0.48868 2.44651,0.48279 -1.61297,-0.005 -4.34387,-0.25996 -9.20728,-0.51189 -4.8889,-0.25324 -11.91068,-0.50414 -13.45795,-0.50907 8.76633,0.33333 14.26594,0.66666 16.49882,1 1.96749,0.007 4.30905,0.25842 4.22125,0.51168 -0.0873,0.25195 -2.60116,0.50552 -1.56726,0.50928 1.61637,0.006 5.49773,-0.239 7.01635,-0.48279 1.52577,-0.24493 0.6844,-0.4888 1.33127,-0.4866 1.25271,0.004 3.00719,0.25483 2.38875,0.50702 -0.61528,0.25091 -3.6019,0.50355 -3.05909,0.50553 1.12237,0.004 4.94514,-0.24103 6.3323,-0.48527 1.56008,-0.27469 0.17418,-0.49053 0.17418,-0.49053 z m -26.44368,-0.0901 z"
         style="color:#000000;clip-rule:nonzero;display:inline;overflow:visible;visibility:visible;opacity:1;isolation:auto;mix-blend-mode:normal;color-interpolation:sRGB;color-interpolation-filters:linearRGB;solid-color:#000000;solid-opacity:1;fill:none;fill-opacity:1;fill-rule:nonzero;stroke:#000000;stroke-width:3.05073047;stroke-linecap:round;stroke-linejoin:round;stroke-miterlimit:4;stroke-dasharray:none;stroke-dashoffset:0;stroke-opacity:1;color-rendering:auto;image-rendering:auto;shape-rendering:auto;text-rendering:auto;enable-background:accumulate"
         inkscape:connector-curvature="0" />
    </g>
  </g>
</svg>
