<?xml version="1.0" encoding="UTF-8" standalone="no"?>
<!-- Created with Inkscape (http://www.inkscape.org/) -->

<svg
   xmlns:dc="http://purl.org/dc/elements/1.1/"
   xmlns:cc="http://creativecommons.org/ns#"
   xmlns:rdf="http://www.w3.org/1999/02/22-rdf-syntax-ns#"
   xmlns:svg="http://www.w3.org/2000/svg"
   xmlns="http://www.w3.org/2000/svg"
   xmlns:sodipodi="http://sodipodi.sourceforge.net/DTD/sodipodi-0.dtd"
   xmlns:inkscape="http://www.inkscape.org/namespaces/inkscape"
   version="1.0"
   width="512"
   height="512.61084"
   id="svg2367"
   inkscape:version="0.91 r13725"
   sodipodi:docname="lufthansa-kranich.svg">
  <metadata
     id="metadata3432">
    <rdf:RDF>
      <cc:Work
         rdf:about="">
        <dc:format>image/svg+xml</dc:format>
        <dc:type
           rdf:resource="http://purl.org/dc/dcmitype/StillImage" />
        <dc:title></dc:title>
      </cc:Work>
    </rdf:RDF>
  </metadata>
  <sodipodi:namedview
     pagecolor="#ffffff"
     bordercolor="#666666"
     borderopacity="1"
     objecttolerance="10"
     gridtolerance="10"
     guidetolerance="10"
     inkscape:pageopacity="0"
     inkscape:pageshadow="2"
     inkscape:window-width="1920"
     inkscape:window-height="1135"
     id="namedview3430"
     showgrid="false"
     fit-margin-top="6"
     fit-margin-left="6"
     fit-margin-right="6"
     fit-margin-bottom="6"
     inkscape:zoom="0.4289778"
     inkscape:cx="431.19684"
     inkscape:cy="78.72872"
     inkscape:window-x="0"
     inkscape:window-y="0"
     inkscape:window-maximized="1"
     inkscape:current-layer="svg2367" />
  <defs
     id="defs2369" />
  <g
     id="g3436"
     transform="matrix(3.4416302,0,0,3.4416302,-54.97371,-55.270482)">
    <path
       d="m 162.99651,90.70887 c 0,40.26695 -32.46181,72.55136 -72.72867,72.55136 -40.08951,0 -72.55132,-32.28441 -72.55132,-72.374 0,-40.97634 32.46181,-73.08348 73.79303,-73.08348 39.20255,0 71.48696,32.99401 71.48696,72.90612 z m -137.82973,0 c 0,36.00967 29.09148,64.92374 65.10106,64.92374 35.83218,0 65.10106,-28.73672 65.10106,-64.74638 0,-36.71905 -28.73672,-65.45573 -65.63322,-65.45573 -35.30007,0 -64.5689,29.44619 -64.5689,65.27837 z m 49.13619,-3.01553 -0.88691,1.7739 C 70.22308,88.75761 64.01454,86.45159 57.62859,83.61341 l -0.88691,1.59651 2.66077,1.41915 c 9.22417,4.78944 12.4171,5.85371 17.56134,5.85371 10.82063,0 18.98044,-6.03119 22.88293,-16.8517 6.56334,-1.41915 15.07791,-1.95131 25.36635,-1.95131 8.69196,0 16.14222,0.35476 25.89854,1.59643 l -2.48342,3.01566 c -4.43468,-0.53216 -12.77189,-1.0644 -18.62564,-1.0644 -7.2729,0 -11.53019,0 -14.01361,0.17736 l -1.06431,2.6609 c 5.85375,-0.35484 7.98242,-0.35484 12.5945,-0.35484 7.98241,0 14.19096,0.35484 19.33516,0.7096 l -2.48342,3.37029 c -9.22413,-0.35472 -13.30401,-0.53212 -20.22211,-0.53212 -3.72513,0 -6.56331,0.1774 -10.99799,0.35476 l -1.24171,2.66078 c 3.90253,-0.35476 9.40152,-0.53212 14.90051,-0.53212 5.499,0 11.88495,0.17736 15.61007,0.35476 l -2.48341,3.19302 c -2.66082,-0.17736 -7.62766,-0.17736 -11.53019,-0.17736 -6.20855,0 -14.19096,0.35475 -18.09349,0.88687 l -1.24171,2.30602 c 7.45026,-0.70951 12.06234,-1.06427 20.22215,-1.06427 3.19298,0 5.1442,0 8.86933,0.35476 l -2.83818,3.37028 c -4.96684,-0.35475 -6.5633,-0.35475 -8.51457,-0.35475 -13.6588,0 -22.70557,1.9513 -31.75229,7.09546 8.33721,8.33725 21.99602,14.01369 34.41311,14.01369 1.06431,0 1.59647,0 4.25729,-0.1774 l -5.8538,6.03106 C 95.05728,112.88225 89.20349,110.57623 59.0477,92.66013 47.16275,85.91943 37.40648,81.30739 29.60142,79.00137 l 1.06435,-3.72517 c 1.77387,0.35488 5.85375,1.41915 9.57888,2.83826 l 1.77387,-4.07993 32.28445,13.65881"
       style="fill:#efae00;fill-rule:nonzero;stroke:none"
       id="path5423"
       inkscape:connector-curvature="0" />
  </g>
</svg>
