<?xml version="1.0" encoding="UTF-8" standalone="no"?>
<!-- Created with Inkscape (http://www.inkscape.org/) -->

<svg
   xmlns:dc="http://purl.org/dc/elements/1.1/"
   xmlns:cc="http://creativecommons.org/ns#"
   xmlns:rdf="http://www.w3.org/1999/02/22-rdf-syntax-ns#"
   xmlns:svg="http://www.w3.org/2000/svg"
   xmlns="http://www.w3.org/2000/svg"
   xmlns:sodipodi="http://sodipodi.sourceforge.net/DTD/sodipodi-0.dtd"
   xmlns:inkscape="http://www.inkscape.org/namespaces/inkscape"
   width="512"
   height="512"
   viewBox="0 0 512.00001 512.00001"
   id="svg5363"
   version="1.1"
   inkscape:version="0.91 r13725"
   sodipodi:docname="clovis.svg">
  <defs
     id="defs5365" />
  <sodipodi:namedview
     id="base"
     pagecolor="#47a0f2"
     bordercolor="#666666"
     borderopacity="1.0"
     inkscape:pageopacity="0"
     inkscape:pageshadow="2"
     inkscape:zoom="0.98994949"
     inkscape:cx="668.99514"
     inkscape:cy="106.75876"
     inkscape:document-units="px"
     inkscape:current-layer="layer1"
     showgrid="false"
     units="px"
     fit-margin-top="6"
     fit-margin-left="6"
     fit-margin-right="6"
     fit-margin-bottom="6"
     inkscape:window-width="1920"
     inkscape:window-height="1135"
     inkscape:window-x="0"
     inkscape:window-y="0"
     inkscape:window-maximized="1"
     showguides="true"
     inkscape:guide-bbox="true">
    <sodipodi:guide
       position="442.44682,248.49753"
       orientation="0,1"
       id="guide5952" />
    <sodipodi:guide
       position="377.79706,459.61942"
       orientation="0,1"
       id="guide5954" />
    <sodipodi:guide
       position="410.12194,125.25892"
       orientation="0,1"
       id="guide5956" />
    <sodipodi:guide
       position="454.56865,26.263967"
       orientation="0,1"
       id="guide5958" />
    <sodipodi:guide
       position="251.52799,248.49753"
       orientation="1,0"
       id="guide5977" />
  </sodipodi:namedview>
  <metadata
     id="metadata5368">
    <rdf:RDF>
      <cc:Work
         rdf:about="">
        <dc:format>image/svg+xml</dc:format>
        <dc:type
           rdf:resource="http://purl.org/dc/dcmitype/StillImage" />
        <dc:title />
      </cc:Work>
    </rdf:RDF>
  </metadata>
  <g
     inkscape:label="Ebene 1"
     inkscape:groupmode="layer"
     id="layer1"
     transform="translate(782.11424,23.969541)">
    <g
       id="g6164"
       transform="matrix(18.812376,0,0,18.812376,3659.4463,-6649.5744)">
      <path
         inkscape:connector-curvature="0"
         id="path5018"
         d="m -222.73213,352.19394 c -0.0339,0.76815 -1.05785,1.02683 -1.35589,1.7468 -0.87245,-0.0567 -1.2311,1.139 -1.73337,0.0152 -0.95685,-0.25996 -1.47996,0.78945 -2.12514,1.21908 -0.1412,0.81764 -1.60848,1.09453 -1.19849,2.18833 -0.4806,0.36275 -1.75847,0.2821 -1.29463,1.26803 -0.0708,0.71264 0.10927,1.48999 -0.89875,1.29516 -0.54935,0.47438 0.20268,1.26381 -0.69058,1.5484 -0.17518,0.72124 -0.33217,2.26579 0.82883,1.85793 -0.0534,0.27061 -1.19394,0.002 -0.82002,0.88535 0.79985,1.00205 -0.51788,2.03115 0.063,3.16608 0.55995,1.29993 1.46286,2.43301 1.6189,3.89224 0.32012,1.19776 1.98752,0.67586 1.93737,2.06441 0.15538,0.93676 -0.80223,1.92055 -1.42914,2.6527 -0.83264,1.11964 -3.10032,1.44339 -3.09403,2.97248 0.29114,0.69078 1.1273,0.34669 1.70627,0.4295 6.26662,9.4e-4 12.53323,0.002 18.79985,0.003 1.26407,-1.51607 -1.12952,-1.6636 -1.80952,-2.20555 -0.39575,-0.91961 -1.30035,0.17817 -1.92455,-0.61734 -0.64571,-0.14279 -1.71179,-0.73836 -0.55195,-1.15756 0.86352,-0.57349 1.10036,-1.81119 2.20827,-1.84461 0.30618,-1.09367 -0.19312,-2.15391 0.2675,-3.35607 0.17937,-1.24004 0.0998,-2.5085 0.32252,-3.69129 -0.0337,-1.21561 0.81796,-2.3197 0.31691,-3.63183 -0.15793,-0.99682 -0.0292,-1.89743 -0.0546,-2.87488 -0.37286,-0.81125 -1.29422,-1.20198 -1.05929,-2.12854 -0.0593,-0.43201 -0.45422,-0.90661 -0.57885,-1.24551 0.41224,-1.09982 -1.64878,-0.39354 -1.06795,-1.53236 -0.2353,-0.59855 -0.74145,-0.73905 -1.10419,-1.20843 -0.94238,0.25564 -1.66135,-1.30568 -2.7944,-0.86977 -0.25591,0.92005 -0.78094,-0.59823 -1.4141,0.29408 -0.30625,0.28623 -0.78896,-1.02126 -1.06999,-1.13481 z m -5.83769,6.92441 -0.003,0.0534 0.003,-0.0534 z m -1.2868,0.10763 c 0.14843,0.10087 -0.22451,0.061 0,0 z"
         style="display:inline;fill:#ffffff;stroke:none;stroke-opacity:1" />
      <path
         inkscape:connector-curvature="0"
         id="path4984"
         d="m -226.66225,379.07452 c -0.43765,-1.50281 -0.89328,-3.01467 -0.96848,-4.58809 -0.33895,-0.81185 -0.68386,1.1095 -1.16491,1.2789 -1.00273,1.22367 -2.41064,2.00003 -3.70855,2.86335 0.54023,-0.79391 1.78685,-1.22337 2.54593,-1.95357 1.03178,-0.6671 1.4178,-1.88373 2.2122,-2.74007 -0.32123,-0.98942 -0.4676,-2.30926 -1.77764,-2.24946 -0.84228,-0.94727 -0.58866,-2.45052 -1.53162,-3.38523 -0.609,-0.72757 -0.92927,-2.46838 -0.0476,-2.86838 0.008,0.43815 -0.78452,1.35379 -0.13372,2.03458 0.48922,1.03201 1.24076,1.95712 1.37815,3.12909 -0.0735,1.04848 1.58353,1.56542 1.28107,0.16696 -0.18325,-1.11976 -0.61179,0.99109 -0.40636,-0.25008 0.26595,-0.62255 -0.35721,-1.15545 -0.32987,-1.78637 -0.0914,-0.45256 -0.29365,-1.59158 0.25621,-0.60543 0.28229,0.36582 0.48201,0.96669 -0.0313,0.50323 0.51249,1.57148 0.77105,3.22208 1.35005,4.76905 0.47313,0.91234 0.41471,2.02257 1.15695,2.83997 0.93542,1.11722 2.19048,1.9229 3.18167,2.96569 -0.91328,-0.36351 -1.49787,-1.38919 -2.39082,-1.86992 -0.51377,-0.38401 -1.31647,-1.9223 -1.58668,-1.70594 0.18799,1.21697 0.6356,2.39332 0.84016,3.59363 -0.0895,0.0506 -0.0571,-0.15911 -0.12481,-0.14191 z m 8.34551,0.0955 c -0.31487,-1.08022 0.11764,-2.12462 0.66443,-3.01379 0.45638,0.88383 0.91703,2.12752 0.67911,3.06243 -0.23708,-0.78352 -0.14229,-2.0743 -0.71504,-2.53923 -0.67922,0.65621 -0.43146,2.0174 -0.6285,2.49059 z m -0.70461,-0.0179 c -0.17047,-0.48092 0.63028,-1.9676 0.27998,-0.7034 -0.0969,0.1552 -0.0821,0.71736 -0.27998,0.7034 z m -0.58437,-0.0187 c 0.0572,-0.56055 0.87136,-1.44683 0.44789,-0.34618 -0.16756,0.52784 -0.11784,0.11529 -0.44789,0.34618 z m 3.69259,-0.2688 c -0.49562,-0.44556 -1.15779,-1.49726 -0.24304,-0.50002 0.15046,0.0887 0.99218,1.28133 0.24304,0.50002 z m -5.43297,0.0289 c -1.3214,-0.15684 -2.04552,-1.44072 -3.2714,-1.81031 -1.20766,-0.64259 -1.7775,-1.98143 -2.61141,-3.00478 -0.58156,-1.08776 0.68234,0.5909 0.88668,0.92022 0.61718,0.91586 1.36531,1.87391 2.44756,2.23209 -0.37729,-0.50015 -1.14273,-1.557 -0.92427,-1.95781 0.55739,1.50411 1.80769,2.76653 3.29322,3.3662 0.56286,0.37922 1.61976,-0.19287 1.92507,-0.0479 -0.48072,0.38097 -1.16545,0.40046 -1.74545,0.30233 z m 8.84697,-0.44604 c -0.52267,-0.22376 -1.9022,-0.45837 -1.96308,-0.71832 0.59358,0.21592 1.77448,0.42008 1.96308,0.71832 z m -17.5985,-0.0848 c -0.21862,-0.55027 0.52104,-2.05561 0.16527,-0.65809 -0.073,0.15338 -0.0503,0.57955 -0.16527,0.65809 z m 14.63221,-0.8379 c -0.46995,-0.17632 -1.71087,-0.59018 -1.63777,-0.89392 0.75738,0.42956 2.09925,0.82837 2.471,0.74082 -0.0954,0.31811 -0.59822,0.19698 -0.83323,0.1531 z m -5.25125,-0.95932 c 0.3232,-0.13022 0.32289,0.13034 0,0 z m 3.11218,-1.01849 c 0.18777,-0.61727 0.58619,-2.02036 0.96904,-2.05144 0.15799,0.39096 -0.89363,1.67471 -0.96904,2.05144 z m -9.29594,-0.0847 c -0.19629,-0.49206 0.25467,0.33828 0,0 z m 8.99281,-0.41802 c -0.16491,-0.54941 0.22775,-1.26277 0.14004,-0.30547 0.0114,0.0568 -0.0741,0.57887 -0.14004,0.30547 z m -2.97049,-0.11575 c 0.73529,-0.30393 0.94791,0.0635 0,0 z m 2.34447,-0.3078 c 0.0974,-0.52715 0.46841,-0.96959 0.18113,-0.17159 0.0616,-0.005 -0.23977,0.36381 -0.18113,0.17159 z m 1.78654,0.31468 c 0.41467,-0.67928 1.11401,-2.2771 1.85132,-1.57471 -1.03659,-0.30804 -1.13862,1.14999 -1.85132,1.57471 z m -4.31926,-1.0658 c -0.48383,0.10401 -2.04924,-0.52777 -0.80355,-0.32306 0.67309,0.21253 0.8649,-0.1097 1.67573,0.15124 0.92278,0.10806 2.05556,-1.15971 2.77522,-0.43274 -1.02958,-0.27095 -1.87448,0.80209 -2.93753,0.64193 -0.23707,-6.2e-4 -0.47383,-0.0173 -0.70987,-0.0374 z m -1.83058,-0.39593 c -0.94175,-0.63198 1.1007,0.19163 -1e-4,-5e-5 l 1e-4,5e-5 z m -2.52296,-0.0742 c -0.88471,0.0712 -2.13022,-1.02464 -1.93779,-1.58257 0.44932,1.08405 1.52983,1.51802 2.65247,1.4307 0.59301,-0.15396 1.92401,0.1593 0.55875,0.15503 -0.42311,-0.0254 -0.85735,0.074 -1.27343,-0.003 z m 4.22241,-0.01 c -0.27631,-0.087 1.10501,-0.57054 0.93205,-0.12392 0.39914,-0.34785 1.60246,-0.0855 0.50449,0.0538 -0.47661,0.0474 -0.95763,0.0834 -1.43654,0.0701 z m 4.60618,-0.14213 c -0.57572,-0.59416 0.65287,0.0222 0.13718,0.0946 l -0.13715,-0.0945 -3e-5,-8e-5 z m -5.49786,-0.11218 c -0.23208,-0.28109 0.44903,0.16763 -1e-5,0 l 1e-5,0 z m -2.50898,-0.027 c 0.46377,-0.31113 0.49993,0.0814 0,0 z m 5.49876,-0.048 c -0.0852,-0.41576 1.05712,0.16936 0,-2.5e-4 l 0,2.5e-4 z m 2.89293,-0.0455 c -0.1166,-0.26133 0.32066,0.21795 0,0 z m -4.33537,-0.0963 c 0.0985,-0.49723 0.29425,-0.0381 -7e-5,-3e-5 l 7e-5,3e-5 z m 0.51579,-0.0678 c -0.50496,-0.49567 0.57762,0.29303 0,0 z m 4.1925,0.0132 c 0.0977,-0.39273 2.00526,-0.16704 0.60782,0.007 -0.19326,-0.0123 -0.44147,0.1294 -0.60782,-0.007 z m -5.08202,-0.0974 c 0.27659,-0.62587 0.27946,0.21167 0,0 z m 3.83472,-0.0328 c -0.0646,-0.46145 0.58208,0.34415 0,0 z m -10.3847,-0.10264 c 0.11707,-0.4599 0.1083,0.44435 0,0 z m 9.67829,0.0614 c -0.42499,-0.48973 0.52297,0.21486 0,-4e-5 l 0,4e-5 z m -8.34442,-0.0909 c -0.37467,-0.7419 0.42262,0.30222 0,0 z m 10.73913,-0.084 c 0.5559,-1.25879 0.6812,-2.63942 0.638,-4.00277 0.10538,-0.84126 -0.0189,-1.59721 0.033,-2.36631 -0.0312,0.58677 0.41821,1.45209 0.30606,0.32386 0.0448,-0.47138 -0.39844,-2.06916 -0.14412,-1.86159 0.1587,0.8474 0.37105,1.6531 0.25336,2.48866 -0.43582,0.88009 -0.0154,1.98162 -0.30234,2.95017 -0.26985,0.82745 -0.0105,1.94938 -0.65656,2.52807 -0.0326,0.12701 -0.21082,0.0374 -0.12737,-0.0601 z m -6.18085,0.0612 c 0.21297,-0.1373 0.61973,0.16335 0,0 z m 5.80332,-0.11965 c -0.1525,-0.7976 0.4559,0.22593 0,0 z m -7.18457,-0.0205 c 0.23483,-0.60822 0.24888,-0.0115 0,0 z m -4.73892,-0.0358 c -0.19928,-0.66364 0.006,-0.90246 0.088,-0.0881 0.0784,0.0652 -0.0658,0.18093 -0.088,0.0881 z m 6.51356,-0.023 c -0.14292,-0.27521 0.57516,0.1344 0,0 z m -5.72007,-0.18356 c -0.0194,-0.45911 0.22964,0.29554 5e-4,8e-5 l -5e-4,-8e-5 z m 10.09111,0.0271 c -0.67596,-0.47176 0.92201,0.22277 0,0 z m -1.82288,-0.21335 c -0.70148,-0.27338 0.43519,0.0196 0,0 z m -1.87501,-0.20207 c -0.65702,-0.49785 -2.44115,-0.74038 -1.76268,-1.8532 -0.36095,1.15435 1.17934,1.15271 1.7952,1.7148 0.97983,0.18745 1.71563,-0.5923 2.11793,-1.33186 0.0137,0.31147 -0.12966,0.6634 0.188,0.16824 -0.20228,0.99971 -1.4339,1.41681 -2.33845,1.30202 z m 2.56073,-0.0644 c -0.73809,-0.37356 0.97294,0.23364 0,0 z m -9.16974,-0.1779 c 0.10503,-0.62234 0.19236,0.0944 0,0 z m 10.40669,0.0133 c -0.1863,-0.4619 0.31421,0.26569 0,0 z m 0.99296,0.002 c 0.15071,-0.50192 0.82891,-1.24143 0.32433,-0.291 -0.0646,0.01 -0.2208,0.38245 -0.32433,0.291 z m -8.49728,-0.0963 c 0.21085,-0.50044 0.42424,0.1337 0,0 z m 6.42623,-0.18796 c -0.65853,-0.49131 0.85854,0.27233 0,0 z m 1.09194,-0.18229 c -0.98122,-1.08122 0.80042,0.2796 0,0 z m -10.83818,-0.21082 c -0.26812,-0.41113 -0.10001,-2.03615 0.0546,-0.76252 0.0566,0.10748 0.11911,0.94191 -0.0546,0.76252 z m 0.63021,-0.17854 c 0.10382,-0.45957 0.0664,0.21992 0,0 z m 2.50621,-0.44265 c -0.43078,-0.33291 0.54648,0.17215 0,0 z m -5.34141,-0.23654 c -0.16524,-0.57826 -0.25663,-0.6844 0.30746,-0.357 0.10067,0.14169 -0.42492,0.88138 -0.30746,0.357 z m 8.36092,-0.13123 c 0.0114,-0.44563 0.36458,0.29182 0,0 z m 3.00792,-0.12095 c -0.28109,-0.68377 0.49639,0.51322 0,0 z m -8.97266,-0.0127 c 0.19371,-0.65399 0.5142,-0.7959 0.0934,-0.0486 0.0554,0.0308 -0.20662,0.27075 -0.0934,0.0486 z m 5.19195,-0.10285 c 0.11245,-0.40072 0.14517,0.36504 0,0 z m 4.3448,0.0798 c 0.11428,-0.39555 0.83774,0.24121 0,0 z m -11.74606,-0.53796 c -0.59227,-0.83444 0.49919,0.38204 1e-5,6e-5 l -1e-5,-6e-5 z m 10.80192,0.0711 c -0.27088,-0.45256 0.4189,0.22556 0,0 z m -9.4789,-0.0805 c -0.1456,-0.57269 0.17894,0.26469 0,0 z m 3.29741,-0.12751 c 0.4343,-0.23405 0.32603,0.15186 0,0 z m 9.83001,-0.22886 c -0.35289,-0.70086 0.37511,0.24951 0,0 z m -12.0607,0.0281 c 0.0166,-0.6656 0.88572,-1.05672 0,0 z m -3.16106,-0.12404 c -0.2177,-0.50666 -0.63182,-2.18055 -0.38324,-2.16152 0.40474,0.39767 0.21108,1.59844 0.3832,2.16128 l 4e-5,2.4e-4 z m 11.14841,-0.34186 c -0.2821,-1.04326 0.3751,-0.26276 0.11269,0.30461 l -0.0482,-0.073 -0.0644,-0.23153 0,-1.1e-4 z m -8.36094,-0.30603 c 0.17012,-0.87248 0.18061,0.49686 -3e-5,9e-5 l 3e-5,-9e-5 z m 10.44676,0.073 c -0.11051,-0.20021 0.57705,0.1401 0,0 z m -8.11603,-0.34056 c -1.31897,-0.62659 1.43569,0.31753 1.5e-4,2e-5 l -1.5e-4,-2e-5 z m -1.33238,-0.0521 c 0.33674,-0.25078 0.23721,0.14427 0,0 z m -3.37547,-0.0478 c -0.52768,-0.39563 0.045,-1.08735 0.14233,-0.17944 0.17221,0.10975 -0.0203,0.30943 -0.14233,0.17944 z m 0.96107,-0.24335 c -0.47697,-0.70606 0.0542,-0.53774 0.22245,0.10944 l -0.0273,0.0546 -0.19508,-0.16403 -3e-5,0 z m 2.79522,0.0982 c 0.003,-0.49981 1.02631,0.0218 0,0 z m -3.12645,-0.087 c -0.22831,-0.70994 0.29545,0.41937 0,0 z m 4.85996,-9.6e-4 c -0.17705,-0.31408 0.50157,0.26947 0,0 z m -6.59179,-0.0453 c -0.19192,-1.00223 0.17233,-0.25357 0,0 z m 2.45335,0.0554 c -0.16119,-0.58228 0.32964,0.11984 0,0 z m 5.86012,-9.5e-4 c -0.28993,-0.50559 0.66681,0.10561 0,0 z m 1.0403,-0.0956 c 0.0808,-0.48406 0.0883,0.43127 0,0 z m -5.21028,-0.0172 c -1.03174,-0.44794 0.49974,-0.46506 0.38358,-0.71185 -0.005,-0.24705 1.06381,0.33733 0.0375,0.25421 -0.58632,0.0737 -0.61513,0.21228 -0.27456,0.48618 l -0.14654,-0.0286 10e-6,6e-5 z m 2.85218,9.6e-4 c 0.25099,-0.3446 0.4777,0.14702 0,0 z m 4.6124,-0.19467 c -0.18751,-0.55576 0.48353,-1.5705 0.1953,-0.42583 -0.0241,0.0594 -0.13626,1.0238 -0.1953,0.42583 z m 2.93849,0.14733 c 0.4255,-0.3136 1.11982,-0.40151 0.25956,-0.003 0.13624,-0.0149 -0.44872,0.11587 -0.25956,0.003 z m -9.10924,-0.0805 c 0.58526,-0.97753 2.05194,-1.05504 2.91683,-0.43729 -1.0165,-0.49627 -1.25803,0.72748 -2.27548,0.0709 -0.25388,-0.12981 -0.47062,0.5624 -0.64135,0.36643 z m 1.18493,-0.4746 c -0.65969,-0.23401 0.0656,0.29734 0,0 z m -2.02153,0.44809 c -0.68239,-0.39948 0.68238,0.16406 0,0 z m -3.28966,-0.1919 c 0.0977,-0.19852 -0.18791,-1.51904 0.19571,-0.60134 0.0342,0.13039 -0.0409,0.67694 -0.19571,0.60134 z m -0.64108,-0.0306 c -0.12355,-0.36412 0.23571,0.0764 0,0 z m 7.96111,-0.11031 c -0.27698,-0.40173 -1.62558,-0.68936 -0.36126,-0.47869 0.17266,-0.14862 0.64328,0.67303 0.36126,0.47869 z m 6.7448,-0.082 c 0.2967,-0.22219 0.10606,0.15933 0,0 z m -5.95218,-0.13032 c 0.17488,-0.3569 0.10747,0.29058 0,0 z m 3.09469,-0.009 c -1.28825,-0.20161 1.69707,-1.03385 0.35106,-0.39429 -0.0812,0.0486 0.15935,0.51637 -0.35115,0.3942 l 9e-5,9e-5 z m -10.43803,-0.0314 c 0.11633,-0.5172 0.27682,-0.0912 0,-6e-5 l 0,6e-5 z m 8.63716,0.004 c 0.14502,-0.50065 0.36691,-0.0721 0,0 z m -6.82228,-0.11141 c -0.3112,-0.16605 0.62888,-0.16058 0.0968,-0.3827 0.0281,-1.19905 0.76039,1.08376 -0.0968,0.3827 z m 11.05345,-0.0491 c -0.51513,-0.35082 -1.19806,0.55649 -1.76772,-0.10572 0.25248,-0.4643 1.30876,0.38546 0.75456,-0.28048 0.32716,-0.55135 1.97704,0.78837 1.01316,0.3862 z m 1.03243,0.0848 c 0.0521,-0.47879 -0.52761,-1.55213 -0.0669,-1.17163 0.0754,-0.49764 -0.5079,-0.29145 -0.61875,-0.37046 -0.22967,0.25951 -1.00743,-0.59426 -0.10477,-0.28041 0.80554,-0.003 1.21524,0.0147 0.89385,0.75823 -0.0472,0.24007 0.0887,1.05417 -0.10343,1.06427 z m -6.95155,-0.0705 c -0.15282,-0.30195 0.4798,0.12125 0,0 z m -8.48781,-0.0993 c 0.0631,-0.37625 0.14437,0.28467 0,0 z m 0.38576,0.0111 c 0.0742,-0.82934 0.18704,0.1884 0,0 z m 0.75151,-0.26806 c -0.18005,-0.64856 0.17059,-1.12338 0.0639,-0.2435 0.0216,0.002 0.0698,0.56646 -0.0639,0.2435 z m 7.29008,-0.0952 c -0.45058,-0.2383 -2.14101,-0.61037 -0.72406,-0.5023 0.35691,-0.0752 1.65061,0.50253 1.04786,0.66056 l -0.13928,-0.0655 -0.18452,-0.0928 0,9e-5 z m -8.87069,0.12703 c -0.50408,-0.23386 0.51811,0.0744 0,0 z m 4.65701,0.0176 c -0.33439,-0.34389 0.73776,0.10128 0,0 z m -4.00789,-0.10047 c 0.0325,-0.73076 0.22629,0.17605 0,0 z m 4.37506,-0.0749 c 0.36288,-0.24227 0.49432,0.13651 0,0 z m -4.72001,-0.0904 c -0.10448,-0.98053 0.35373,-0.53925 0,0 z m 2.93662,0.0222 c 0.50808,-0.56352 0.69084,0.0606 0,0 z m 7.42457,-0.0266 c 0.1477,-0.40349 0.28805,0.21659 0,0 z m 0.56053,-0.0487 c 0.0144,-0.25727 1.48925,-0.0927 1.26382,-0.87439 -0.2708,-0.58053 0.90964,-0.96814 0.1519,-0.23859 -0.005,0.34061 0.22473,0.50592 -0.18668,0.7267 0.52573,-0.0873 0.88162,-0.8429 1.01497,-0.46738 0.48935,-0.004 0.77566,-0.12459 0.48415,-0.21703 0.74048,-0.0419 0.86469,0.51095 0.0193,0.28889 -0.95269,0.0966 -1.76538,0.96414 -2.74745,0.7818 z m -6.7612,-0.0466 c 0.16751,-0.61985 0.79814,-0.61246 0.11225,-0.0603 0.0643,-0.0478 -0.15745,0.18867 -0.11225,0.0603 z m 11.71437,-0.0192 c 0.0139,-0.63468 0.23156,0.1986 0,0 z m -15.1218,-0.11707 c -0.12318,-0.94424 0.42989,0.17967 0,0 z m 3.79207,0.0561 c 0.0532,-0.50179 1.95656,-0.94661 0.73426,-0.7105 0.45298,-0.4124 1.21127,-0.6111 1.66848,-0.20179 -0.47811,-0.0544 -1.83852,0.46857 -0.5882,0.27279 -0.60057,0.26265 -1.28345,0.26859 -1.81454,0.6395 z m -0.67605,-0.0368 c -0.21123,-0.28659 0.60543,-0.0727 0,0 z m 2.91403,-0.15595 c -0.48892,-0.0125 -2.61788,10e-4 -1.03913,-0.13564 0.84031,-0.0905 2.18985,-1.02603 2.44315,0.0342 -0.74322,-0.39521 -1.00285,-0.13677 -1.40402,0.10141 z m 0.90179,-0.47253 c -0.65048,-0.26917 -0.17319,0.20029 6e-5,-5e-5 l -6e-5,5e-5 z m 2.60377,0.48521 c 0.005,-0.30887 0.0996,-1.27838 0.1352,-0.29629 0.10515,0.088 0.0161,0.36082 -0.1352,0.29629 z m -0.92739,-0.0294 c 0.32341,-0.37361 1.05523,-0.13042 0.12477,0.0165 l -0.12477,-0.0166 0,6e-5 z m -8.97737,-0.0697 c 0.24514,-0.68616 0.43397,-0.14092 0,0 z m 2.81544,-0.023 c -0.19362,-0.56375 -0.0885,-1.12587 0.0789,-0.20981 0.17909,-0.14547 -0.0524,0.46163 -0.0789,0.20981 z m 5.57861,-0.11022 c -0.41358,-0.92125 0.46977,0.46737 7e-5,0 l -7e-5,0 z m -5.80062,0.0384 c -0.27993,-0.5838 0.12728,-0.46344 0.0357,0.0329 l -0.0357,-0.0329 1e-5,0 z m 5.37933,-0.13178 c -0.88732,-0.33343 0.52822,-0.43583 0.14419,0.0662 l -0.14419,-0.0663 0,5e-5 z m 8.02864,0.0467 c -0.13734,-0.48107 0.24091,-1.28739 0.16633,-0.29322 0.009,0.0567 -0.0135,0.35084 -0.16633,0.29322 z m -12.04999,-0.075 c 0.34757,-0.48109 1.13745,-0.29964 0.20234,-0.0258 -0.0231,-0.0417 -0.17842,0.12145 -0.20234,0.0258 z m -4.03764,-0.15109 c 0.16664,-0.94883 0.21013,0.35414 -2e-5,1e-5 l 2e-5,-1e-5 z m -0.73837,0.0394 c -0.88456,-0.41274 0.70745,0.1158 0,0 z m 4.49873,-0.0369 c -0.51405,-0.15411 0.89142,-0.56977 1.19615,-0.58739 0.36808,0.0883 0.9576,-0.13738 0.21016,0.18058 -0.4315,0.0539 -1.16606,0.36377 -1.40631,0.40681 z m 5.43671,-0.0628 c 0.0397,-0.4795 0.25286,0.0805 0,0 z m 2.04563,-0.0724 c 0.0678,-0.55579 0.13159,0.2241 0,0 z m 0.93073,0.026 c 0.13104,-0.62932 1.41072,-1.07401 1.7931,-0.82025 -0.80283,-0.0367 -1.26893,0.58305 -1.7931,0.82025 z m 0.7112,-0.32005 c 0.36306,-0.16479 1.47776,-0.51929 1.51135,-0.45075 0.13514,0.78119 -0.93469,0.13336 -1.50551,0.48682 l -0.006,-0.0358 -4e-5,-2.2e-4 z m 3.50944,-0.0381 c 0.007,-0.76075 0.19734,0.28997 0,0 z m -5.26785,-0.0618 c -0.29047,-0.55232 0.58335,0.0633 -8.6e-4,-6e-5 l 8.6e-4,6e-5 z m -12.37949,-0.295 c -0.0394,-1.09373 0.41963,1.04465 1.3e-4,0 l -1.3e-4,0 z m 15.96498,0.23426 c -0.53484,-0.41611 0.87233,0.21228 0,0 z m 0.56825,-0.0716 c -0.74615,-0.17638 -0.57539,-0.62653 0.0301,-0.10977 0.25589,0.0953 0.0207,0.2183 -0.0301,0.10977 z m -15.29864,-0.13675 c 0.35298,-0.61918 0.44122,0.0313 0,0 z m 1.70566,-0.0904 c 0.2042,-0.24674 0.61535,0.0956 0,3e-4 l 0,-3e-4 z m 14.63064,-0.042 c -0.24406,-0.52484 -0.283,-1.65871 0.0927,-0.51119 0.0453,0.0643 0.16467,0.76214 -0.0927,0.51119 z m -4.97161,-0.0787 c 0.12433,-0.23177 0.12271,0.22097 0,0 z m 4.47455,-0.10958 c -0.59041,-0.73062 0.48652,0.31161 0,0 z m -15.07098,-0.13325 c 0.24171,-0.3299 -0.009,0.28229 0,0 z m -1.18822,-0.1431 c -0.0718,-0.6876 0.29038,0.54378 0,0 z m 0.34391,0.0883 c 0.0591,-0.41024 0.17405,-2.01471 0.32035,-0.77831 -0.0611,0.28438 0.19095,0.86283 -0.32035,0.77831 z m 15.38604,-0.12455 c -0.38522,-0.57198 0.24199,-0.18919 0,0 z m -14.50572,-0.21629 c 0.27864,-0.74175 0.79147,-0.31948 0,0 z m 7.57065,-0.0605 c 0.18208,-0.11684 0.43785,0.12392 0,0 z m -8.77398,-0.14511 c -1.22812,-1.30547 1.06535,0.3636 0,0 z m 0.87498,-0.0909 c 0.18745,-0.48444 0.0529,0.382 0,0 z m 12.39317,-0.0506 c -0.18094,-0.34635 0.3666,0.28926 0,0 z m -5.17523,-0.0322 c -0.0752,-0.27231 0.56163,0.10365 0,0 z m -9.03229,-0.0572 c -0.39766,-0.70896 0.59808,-0.35966 0.0456,-0.0768 0.13209,0.0795 -0.0216,0.16112 -0.0456,0.0768 z m 17.58031,-0.13532 c -0.28387,-0.63906 0.15909,-1.1835 0.0804,-0.25947 -0.0304,0.0218 0.14316,0.55874 -0.0804,0.25947 z m -14.63334,-0.01 c 0.33366,-0.3987 2.04489,-0.30671 0.74707,-0.0996 -0.24603,-0.0242 -0.53198,0.12535 -0.74707,0.0996 z m -2.70266,-0.38916 c -0.46055,-0.51161 -0.035,-1.04015 -0.002,-0.24366 0.26035,0.13331 0.47008,0.47757 0.002,0.24361 l -4e-5,5e-5 z m 1.38687,-0.20061 c 0.31827,-0.45944 -0.80769,-0.3471 0.0133,-0.48055 0.10644,-0.29554 0.56013,-0.38912 0.22587,0.27151 -0.0354,0.0305 -0.29375,0.56481 -0.23918,0.20904 z m 2.99428,0.003 c -0.061,-0.66981 0.40092,-1.14565 0.20871,-0.17459 0.0308,0.0104 -0.21274,0.43883 -0.20871,0.17459 z m 11.29528,-0.0884 c 0.0646,-0.37416 0.0557,0.41329 0,0 z m -14.95899,0.0752 c -0.39025,-0.36982 0.69834,0.0831 0,0 z m 1.83163,0.007 c 0.30432,-0.51292 0.96427,-0.1863 0.0881,-0.0141 l -0.0881,0.014 0,9e-5 z m 0.92672,0.0133 c 0.38838,-0.43566 0.70939,0.1972 0,0 z m 5.71576,-0.19066 c 0.48924,-0.25218 1.15792,0.1439 0.12777,0.023 l -0.12777,-0.0229 0,-3e-5 z m 7.86465,-0.15639 c 0.0674,-0.76109 0.59981,-0.0374 0.0264,0.134 l -0.0265,-0.13403 2e-5,3e-5 z m -16.89816,-0.006 c -0.45927,-0.44448 0.37932,0.18119 0,0 z m 0.33254,-0.39014 c -0.59879,-1.04942 0.81458,0.99958 0,-1.9e-4 l 0,1.9e-4 z m 2.45686,0.20167 c 0.0401,-0.22433 0.40908,0.19537 0,0 z m 12.6993,-0.13319 c -0.21878,-0.47708 -0.56442,-1.98333 -0.0394,-0.76913 0.0276,0.16216 0.56355,1.05295 0.0394,0.76913 z m -5.34897,-0.0157 c -0.14959,-0.41996 0.3164,0.23404 0,0 z m 6.57438,-0.18234 c -0.62863,-1.36461 0.60128,0.51857 0,0 z m -16.22403,-0.1118 c -0.26794,-0.82706 0.45577,0.29404 0,0 z m 1.66989,0.0195 c 0.33734,-0.53634 1.92066,0.0704 0.639,-0.0752 -0.16647,-0.0243 -0.5223,0.17489 -0.639,0.0752 z m -0.80427,-0.0803 c 0.23541,-0.39811 1.16684,-1.82167 0.6858,-0.56995 -0.1296,0.3726 -0.35595,0.64219 -0.6858,0.56995 z m 7.11417,0.01 c -0.0146,-0.28417 0.53287,0.12989 0,0 z m -7.49007,-0.0201 c -0.14173,-0.21444 0.38963,0.0967 0,0 z m 3.38428,-0.0415 c 0.11009,-0.51418 0.32543,-0.13191 0,0 z m 5.5236,-0.14567 c 0.26665,-0.0898 0.0247,-0.0461 0,0 z m 7.18283,0.0217 c 0.045,-0.77827 0.43741,-0.20133 0,4e-5 l 0,-4e-5 z m -0.36373,-0.13654 c 0.15458,-0.36666 0.25729,0.20532 0,0 z m -14.53088,-0.0706 c 0.19179,-0.82217 0.47152,-0.19995 0,0 z m 8.13868,-0.0657 c -0.17698,-0.47152 0.46045,0.13434 0,0 z m -7.75247,-0.16783 c 0.59805,-0.17255 0.15687,0.1385 0,0 z m 7.16849,0.0104 c -0.36601,-0.32274 0.49901,0.0459 0,0 z m -9.55507,-0.0811 c -0.27813,-0.4783 0.69317,0.27558 0,0 z m 16.03094,-0.1017 c -0.67287,-0.4197 0.79705,0.17069 0,0 z m 0.43429,-0.0331 c 0.19665,-0.88215 0.51674,0.17429 0,0 z m 0.50855,-0.0331 c -0.26663,-0.69075 0.34677,0.12017 5e-5,-2e-5 l -5e-5,2e-5 z m -16.28317,-0.0584 c 0.19183,-0.21784 0.45052,0.15125 0,0 z m 1.71346,0.023 c 0.42832,-0.50233 0.84178,-0.25681 0.0614,0.013 l -0.0615,-0.013 3e-5,-5e-5 z m 12.86833,-0.16862 c -0.8404,-0.38272 0.76289,-0.0976 0,0 z m 0.55948,-0.1584 c -0.56932,-0.23146 1.11166,0.008 3e-5,0 l -3e-5,0 z m -12.52836,-0.15955 c -0.62811,-0.57285 0.84889,0.29841 0,0 z m -1.63101,0.0319 c -0.48215,-0.33371 0.87745,0.0527 0,0 z m 0.80149,-0.0215 c 0.36829,-0.24737 0.53521,-0.40607 0.0541,-0.29064 0.71165,-0.53918 0.62424,0.28151 -0.0541,0.29064 z m 13.92612,-0.0581 c -0.448,-0.44296 0.99694,0.25508 0,0 z m -11.52711,-0.0545 c 0.20612,-1.17337 0.66526,0.17076 0,0 z m 10.79716,-0.0497 c -0.85041,-0.60952 0.6536,0.16187 0,-3e-5 l 0,3e-5 z m -14.59561,-0.0148 c -0.0505,-0.24958 0.36886,0.20906 0,0 z m 0.71756,-0.032 c -1.20447,-0.27168 1.60205,-0.0992 0,2e-5 l 0,-2e-5 z m 13.07654,-0.10542 c -0.35745,-0.3645 -1.56098,-1.8676 -0.50092,-0.85611 -0.0286,0.14656 1.11007,1.11566 0.50092,0.85611 z m -10.89102,-0.0208 c 0.35089,-0.8873 0.32926,-0.01 0,0 z m -0.38336,-0.10945 c -0.0335,-0.53139 0.53088,0.27159 -1.4e-4,-3.4e-4 l 1.4e-4,3.4e-4 z m 12.5883,0.007 c 0.0362,-0.28055 0.50737,0.10742 -1e-5,7e-4 l 1e-5,-7e-4 z m -14.09323,-0.0556 c -0.73198,-0.12758 -0.51509,-0.50144 0.11072,-0.0679 0.28505,0.0533 -0.097,0.12864 -0.11072,0.0679 z m 10.75319,-0.19935 c -0.36305,-0.33763 -0.60801,-1.39411 -0.0768,-0.44339 0.0871,0.10654 0.48044,0.89682 0.0768,0.44339 z m -11.85336,-0.0699 c 0.17542,-0.55112 0.096,0.45775 0,0 z m 0.36926,-0.0314 c -0.12844,-0.66097 0.30438,0.38923 0,0 z m 3.55257,-0.0681 c 0.46927,-0.81292 0.79764,-0.3911 0.0823,0.0785 -0.10982,0.2 -0.23716,0.042 -0.0823,-0.0785 z m 11.02132,0.11996 c 0.0175,-0.16776 0.46344,0.2127 0,0 z m -0.36414,-0.014 c 0.0177,-0.27791 0.33738,0.23115 0,0 z m -13.60939,-0.0557 c -0.86874,-0.32261 -0.24213,-0.89266 -0.0848,-0.3518 -0.35094,0.0179 0.81398,0.57167 0.0848,0.3518 z m 2.59369,-4.1e-4 c -0.75887,0.11202 0.44358,-0.59286 0,0 z m 10.39645,-8.1e-4 c -0.2367,-0.21964 0.40325,0.0867 0,0 z m -12.57317,-0.0737 c -0.22043,-0.131 0.75512,-0.20433 0.0983,-0.28688 0.87009,-0.15239 0.56871,0.47484 -0.0983,0.28688 z m 1.2604,-0.15569 c 0.83984,-0.6371 0.89551,0.10826 0,0 z m -0.35789,-0.0446 c 0.37443,-0.58425 0.71702,-0.4136 0,0 z m 1.5929,-0.0516 c 0.47063,-0.81548 -0.29462,-0.13796 -0.2684,-0.30852 0.15777,-0.36986 2.08468,-0.99816 0.99716,-0.37406 -0.26152,0.15265 -0.57502,0.60621 -0.72876,0.68258 z m 10.13571,-0.0562 c -0.84255,-0.26926 0.77982,-0.3477 -0.294,-0.50287 -0.94108,-0.43703 1.05561,0.0334 0.46996,0.41882 0.6765,-0.0969 0.0851,0.25504 -0.17596,0.084 z m 0.79002,-0.12919 c 0.2187,-0.77443 0.43379,0.0923 1.1e-4,10e-6 l -1.1e-4,-10e-6 z m -13.30702,-0.14513 c -0.38398,-0.68758 0.74273,0.42608 0,0 z m 11.87164,0.0216 c -0.17471,-0.35662 0.39957,0.12078 0,0 z m -13.28297,-0.0369 c -0.24465,-0.41222 0.41625,0.16363 -1.1e-4,-10e-6 l 1.1e-4,10e-6 z m 0.80103,-0.11094 c -0.7754,-0.55341 1.08773,0.2814 9e-5,3e-5 l -9e-5,-3e-5 z m 1.32845,-0.006 c -0.50586,-0.54972 0.67678,0.17317 -4e-5,7e-5 l 4e-5,-7e-5 z m 5.47077,-0.0426 c 0.32228,-0.21485 0.97474,0.14586 0.10081,0.0326 l -0.10081,-0.0327 0,1e-4 z m 2.70112,-0.11476 c -0.007,-0.81252 0.33539,-0.36343 0.0342,0.13001 l -0.0341,-0.13001 -3e-5,0 z m 2.01122,0.0175 c -0.39061,-0.3541 -1.56707,-0.44204 -0.45183,-0.48081 0.22436,-0.0697 1.14186,0.83484 0.45183,0.48081 z m -10.78663,-0.0289 c -0.68148,-0.50125 0.11861,-0.32092 0.14189,0.0652 l -0.14181,-0.0652 -8e-5,0 z m 3.39683,0.0115 c 0.23969,-0.6388 1.71697,-0.19598 0.45805,-0.13813 -0.063,-0.0138 -0.52133,0.31864 -0.45805,0.13813 z m 9.3697,-0.0447 c -0.69832,-0.53827 0.84668,0.27095 0,0 z m -1.47103,-0.0612 c -0.56385,-0.44368 0.74156,0.32518 0,0 z m -9.71258,0.01 c -0.49875,-0.13296 -0.76035,-0.25162 -0.0423,-0.1748 0.3119,0.0147 0.29629,0.25666 0.0423,0.1748 z m -1.19765,-0.15956 c -0.18166,-0.30098 0.3917,0.14082 0,0 z m 2.07186,-0.0314 c 0.34011,-0.37151 0.31919,0.11622 0,0 z m 9.16169,-0.0236 c -0.33158,-0.26321 0.62704,0.20538 0,0 z m -11.51952,-0.19626 c -0.18329,-0.66224 0.068,-0.80694 0.1129,-0.0534 0.10194,0.14741 -0.10892,0.41261 -0.1129,0.0534 z m 0.59193,0.1192 c -0.66036,-0.48809 -0.0833,-0.58188 0.11615,0.0303 l -0.11615,-0.0304 0,5e-5 z m 7.01114,0.0369 c 0.31502,-0.52276 0.51398,-0.14597 0,0 z m 3.01601,-0.0514 c -0.54469,-0.80828 0.74287,0.33431 0,0 z m -6.02514,-0.006 c 0.66269,-0.35677 -0.0202,0.22412 0,0 z m 2.49836,-0.005 c 0.16222,-0.48856 0.092,0.29243 0,0 z m 5.93916,-0.0583 c -0.0416,-0.58641 0.2933,0.20936 0,0 z m -9.51967,-0.0597 c 0.48347,-0.20486 1.10038,-0.72937 1.48789,-0.39362 -0.50757,0.081 -0.84073,0.4289 -1.48789,0.39362 z m 6.1851,-0.10285 c 0.0495,-0.44639 1.14241,-0.11477 0.10078,0.0391 l -0.10078,-0.0391 0,-6e-5 z m 2.07616,0.0417 c -0.16076,-0.27627 0.9391,0.012 10e-6,2e-5 l -10e-6,-2e-5 z m -9.17209,-0.0463 c 0.1908,-0.42648 0.8719,0.008 0,0 z m 8.71257,-0.0211 c -0.54103,-0.0599 -1.26259,-0.83827 -0.30104,-0.3116 0.12182,0.0384 0.89172,0.46003 0.30104,0.3116 z m -6.29812,-0.0304 c 0.16217,0.0316 0.54583,-0.92451 0.31469,-0.15658 0.0168,0.15749 -0.20073,0.30203 -0.31469,0.15658 z m 7.69302,-0.0482 c 0.11714,-0.42883 0.14789,0.25585 0,0 z m -11.44689,-0.0216 c -0.33425,-0.6261 1.0657,0.11505 0.46018,-0.32066 0.32064,0.32807 1.28317,-0.31432 0.63137,0.26613 -0.35145,0.0236 -0.75643,0.12565 -1.09155,0.0545 z m 2.036,-0.022 c 0.42534,-0.28295 -1.08887,-0.30086 -0.10196,-0.301 0.40164,0.0177 1.37426,-0.11913 0.44747,0.23716 -0.10755,0.0245 -0.22917,0.1108 -0.34551,0.0638 z m 3.83595,-0.0856 c -0.15217,-0.31973 0.36389,0.169 0,0 z m 1.81587,0.0187 c -0.79442,-0.14941 -0.19248,-0.41039 0.11714,0.0153 l -0.11714,-0.0152 0,-1.2e-4 z m 0.40342,-0.0749 c -0.16461,-0.49101 0.35908,0.39588 0,0 z m -8.42811,-0.002 c 0.11499,-0.45921 0.14885,0.27055 0,0 z m 5.52843,-0.074 c -0.0121,-0.35718 0.3602,0.26456 0,0 z m -6.81354,-0.0401 c -0.0322,-0.76745 0.45951,-0.0621 0,0 z m 11.67015,0.0163 c 0.18682,-0.62619 0.21249,0.13514 0,0 z m -10.62274,-0.15563 c -0.0345,-0.81041 0.13017,0.43213 0,0 z m 8.91578,0.0612 c 0.36801,-0.39106 0.31808,0.37638 0,0 z m 2.21229,0.0192 c -0.61772,-0.42222 -0.24642,-1.982 -0.0706,-0.55581 -0.0611,0.0609 0.31751,0.60298 0.0706,0.55581 z m -5.63789,-0.11738 c -0.29667,-0.38993 0.38116,0.18783 -5e-5,-3e-5 l 5e-5,3e-5 z m -0.77165,-0.15344 c -0.5754,-0.0291 -0.78785,-0.69748 -0.049,-0.24407 0.57195,0.18047 0.9069,0.55474 0.049,0.24407 z m 3.6018,0.13811 c -0.63098,-0.33735 0.88971,0.10848 0,0 z m -1.95702,-0.0473 c -0.3359,-0.30839 0.56002,0.19237 0,0 z m -5.38143,-0.0692 c -0.23471,-0.53827 0.38373,0.0409 0.81608,0.0259 -0.25471,0.0932 -0.56528,0.0714 -0.81608,-0.0259 z m 1.15496,0.0564 c 0.31155,-0.2679 0.54143,0.0546 0,0 z m 7.85665,-0.009 c 0.38495,-0.26948 -0.0303,-1.31627 0.4437,-0.42664 0.10459,0.23816 -0.14584,0.59523 -0.4437,0.42664 z m -6.33817,-0.14234 c -0.33528,-0.28687 -0.83571,-0.79318 -0.0728,-0.29284 0.18461,0.0924 0.51301,0.6293 0.0728,0.29284 z m 1.92845,0.003 c -0.73728,-0.49713 0.27954,-0.15073 0.15359,0.0879 l -0.15363,-0.0879 4e-5,4e-5 z m 3.18565,0.0717 c 0.50377,-0.0873 1.48986,-0.7285 1.02136,-0.16662 -0.30213,0.11082 -0.69416,0.32442 -1.02136,0.16662 z m -1.29382,-0.0943 c 0.29633,-0.44123 0.23526,0.11269 0,0 z m 4.37104,-0.0125 c 0.2626,-0.34243 0.3754,0.0208 0,0 z m -0.41271,-0.077 c -0.42858,-0.61821 0.50576,0.30056 0,0 z m -12.05906,-0.0453 c 0.14748,-0.43762 0.08,0.26705 0,0 z m 2.37424,-0.0465 c -0.2552,-0.46127 1.2997,0.0559 0.2385,0.0811 l -0.0365,0.008 -0.20201,-0.089 4e-5,-4e-5 z m 4.26552,0.007 c -0.41239,-0.31703 -0.63143,-1.01964 -0.0108,-0.29619 0.0882,0.10127 0.37665,0.49334 0.0108,0.29619 z m 0.78076,-0.0775 c -0.48265,-0.51188 0.77428,0.43659 0,0 z m 1.10835,0.10957 c -0.0815,-0.28741 0.49763,0.11575 0,0 z m 1.21537,-0.0702 c 0.18638,-0.40067 0.89845,-1.52943 0.48721,-0.66128 -0.2336,0.1428 -0.13501,0.75091 -0.48721,0.66128 z m -1.95759,-0.22883 c -0.45774,-0.67062 0.46136,0.1544 0.11073,0.15111 l -0.11073,-0.15111 z m -1.73711,0.0118 c -0.57775,-0.1778 -0.58892,-1.18598 -0.19799,-0.33866 0.25071,0.0942 0.79379,0.73014 0.19799,0.33866 z m -5.37805,-0.21659 c -0.2277,-1.02531 0.45117,0.88078 0,0 z m 7.61975,0.0504 c -0.1705,-0.54437 0.45718,-0.92778 0.32382,-0.34727 -0.25081,-0.12665 -0.24312,1.03292 -0.32382,0.34727 z m -5.28713,0.10305 c -0.44468,-0.37935 1.42804,0.0896 0.1495,0.038 l -0.14963,-0.038 1.3e-4,5e-5 z m -1.35038,-0.0823 c -0.3988,-0.43108 1.04772,0.20722 0.10136,0.0676 l -0.1014,-0.0675 4e-5,-9e-5 z m 5.10812,0.0435 c -0.30758,-0.54523 0.52912,-0.0492 -8e-5,10e-5 l 8e-5,-10e-5 z m -4.50083,-0.0417 c 0.32511,-0.30004 0.30821,0.0837 0,0 z m 7.37873,-0.007 c 0.51734,-0.44324 -0.7816,-1.68717 0.13093,-0.996 0.17032,0.24227 0.15945,0.97729 -0.13093,0.996 z m -2.36553,-0.0464 c 0.0762,-0.38435 0.30008,0.2066 0,0 z m -2.42542,-0.105 c -0.21016,-0.38442 0.43467,0.32712 0,0 z m 6.33613,-0.0246 c -0.23203,-0.48966 0.27599,0.11059 0,0 z m -6.85427,-0.0972 c -0.41574,-0.27795 -0.58216,-1.29382 -0.0767,-0.3955 0.0904,0.0849 0.52285,0.73551 0.0767,0.3955 z m -3.2673,0.0319 c -0.15349,-0.33569 0.47307,0.0398 1e-5,1.2e-4 l -1e-5,-1.2e-4 z m 2.34446,-0.0469 c 0.12697,-0.23295 0.26486,-0.53771 0.41322,0.0762 -0.16276,-0.19553 -0.29052,0.12402 -0.41322,-0.0762 z m -1.10529,0.0236 c -0.46551,-0.25817 1.06393,0.10349 0,0 z m 5.40214,-0.17582 c -0.80757,-1.04134 0.65126,0.33185 0,0 z m -2.60228,0.0894 c -0.40108,-0.73333 0.11859,-0.67467 0.0361,0.0245 l -0.036,-0.0245 -1.4e-4,-2e-5 z m 1.33718,-0.0979 c -0.13629,-0.55318 0.33106,0.47795 0,0 z m 0.56101,-0.19518 c 0.0171,-0.60775 0.1935,0.53433 0,0 z m 1.89568,0.14034 c -0.16588,-0.62295 0.28647,-0.36144 0,0 z m 2.1793,-0.0719 c -0.14591,-0.77895 0.58444,0.20638 0,0 z m -3.04176,-0.10429 c -0.16792,-0.43107 0.42387,0.35332 0,0 z m -7.06661,-0.0133 c 0.036,-0.13144 0.37267,0.12872 0,0 z m 5.01032,-0.0325 c -0.54028,-0.83888 0.36506,-0.91388 0.0452,-0.34334 -0.12746,0.0188 0.19325,0.54776 -0.0452,0.34334 z m 3.17287,-0.11615 c -0.34474,-0.91069 0.42479,0.5158 0,0 z m 2.36293,0.0699 c -0.26362,-0.62426 0.24461,0.24411 0,0 z m -8.30814,-0.0799 c 0.18015,-0.24839 0.25108,0.14955 0,0 z m 3.09719,-0.0364 c -0.0929,-0.40199 0.53043,0.11127 0,0 z m 2.00818,-0.10007 c 0.23415,-0.22748 0.18575,0.19805 0,0 z m -6.43306,-0.11608 c 0.0715,-0.35481 0.11961,0.4094 0,0 z m 8.92313,-0.22728 c 0.11438,-0.84304 0.0775,0.90748 0,0 z m -5.23882,0.19818 c -0.0222,-0.73362 0.2744,-0.0143 0,0 z m -4.11307,-0.006 c 0.26615,-0.56242 0.22395,0.11212 0,0 z m 2.72457,-0.10762 c -0.21937,-0.86446 0.27928,0.40577 0,0 z m -0.47856,-0.0543 c 0.10593,-0.57806 0.0422,0.46597 0,0 z m 3.94267,0.11545 c -0.1851,-0.24361 -0.79496,-0.14975 -0.10265,-0.28586 0.1818,0.12016 0.84179,0.38217 0.10265,0.28586 z m -5.35444,-0.18117 c -0.10334,-0.60794 0.18539,0.2326 0,0 z m 6.19354,0.0222 c -0.35835,-0.3181 0.44777,0.12365 0,0 z m -2.17525,-0.0252 c -0.16402,-0.23813 0.37865,0.19423 0,0 z m -4.2997,-0.0644 c -0.13988,-0.32431 0.28703,0.27691 0,0 z m 2.95729,-0.007 c -0.0658,-0.44491 0.16037,0.29572 0,0 z m 1.77813,0.0198 c 0.32021,-0.16626 -0.76007,-0.3858 0.0208,-0.25533 0.22825,0.0273 0.21448,0.37272 -0.0208,0.25533 z m 3.39105,-0.13084 c -0.21595,-0.56965 0.34505,0.35551 0,0 z m -4.78337,-0.10867 c 0.24637,-0.33713 0.14023,0.34075 0,0 z m 2.6317,0.0439 c -0.16303,-0.29803 0.32673,0.20736 0,0 z m 0.94893,-0.0303 c -0.13586,-0.39663 0.22105,0.23611 0,0 z m -1.60085,-0.0321 c 0.3459,-0.47642 0.29387,0.0912 0,0 z m 1.82889,-0.18833 c -1.153,-0.41159 0.31574,-0.24238 0.35032,0.20748 -0.12083,-0.0622 -0.2346,-0.13702 -0.35032,-0.20748 z m -4.19204,0.0819 c -0.28945,-0.24744 0.19032,-0.47561 0.4329,-0.89327 -0.10634,0.20957 -0.0473,1.16488 -0.4329,0.89327 z m 4.50322,-0.2041 c -0.82824,-0.331 -0.0874,-0.42982 0.15826,0.0665 l -0.15826,-0.0665 0,1e-5 z m -2.13307,-0.021 c -0.46584,-0.24853 1.03172,0.0737 0,-6e-4 l 0,6e-4 z m -0.48956,-0.11281 c 0.443,-0.51693 0.87733,-0.3138 0,0 z m -1.36376,-0.0936 c 0.29649,-0.89165 0.36528,-0.16951 0,0 z m 0.49654,-0.12632 c -0.41163,-0.7308 0.44975,0.28071 0,0 z m 2.49606,-0.0747 c -0.53879,-0.3069 1.05735,0.143 0,8e-5 l 0,-8e-5 z"
         style="display:inline;fill:#000000" />
    </g>
  </g>
</svg>
