<?xml version="1.0" encoding="utf-8"?>
<!-- Generator: Adobe Illustrator 15.0.2, SVG Export Plug-In . SVG Version: 6.00 Build 0)  -->
<!DOCTYPE svg PUBLIC "-//W3C//DTD SVG 1.1//EN" "http://www.w3.org/Graphics/SVG/1.1/DTD/svg11.dtd">
<svg version="1.1" id="Layer_1" xmlns="http://www.w3.org/2000/svg" xmlns:xlink="http://www.w3.org/1999/xlink" x="0px" y="0px"
	 width="200px" height="200px" viewBox="0 0 200 200" enable-background="new 0 0 200 200" xml:space="preserve">
<path fill="none" stroke="#231F20" stroke-width="2" stroke-miterlimit="10" d="M12.297,124.632
	c-2.844-16.108-3.567-32.581-1.35-48.785c3.092-22.609,11.231-41.518,31.688-56.871C55.813,9.087,71.731,2.532,89.24,0.964
	c50.948-4.552,95.73,30.76,100.032,78.875c0,0,2.432,60.911-14.541,68.454l-102.859,43.63c0,0-42.682,13.717-48.745-5.976
	L12.297,124.632z"/>
<path fill="none" stroke="#231F20" stroke-width="2" stroke-miterlimit="10" d="M92.791,117.735c0,0,21.917-8.415,18.055-29.163
	c0,0-0.265-12.604-21.72-11.833l-79.002,7.06c-1.072,13.62-0.208,27.353,2.174,40.836l1.615,9.151
	C29.116,134.041,57.02,131.918,92.791,117.735z"/>
<circle fill="none" stroke="#231F20" stroke-width="2" stroke-miterlimit="10" cx="133.754" cy="67.456" r="12.005"/>
<path fill="none" stroke="#231F20" stroke-width="2" stroke-linecap="round" stroke-linejoin="round" stroke-miterlimit="10" d="
	M133.754,79.461c-6.632,0-12.005-5.375-12.005-12.005c0-6.629,5.373-12.005,12.005-12.005c5.654,0,10.364,3.924,11.637,9.19
	c0.285-5.525-4.448-10.026-9.988-9.583c-9.138,0.73-27.85,6-33.829,6.795c-31.041,4.12-71.147,6.709-89.674,8.185
	c-0.308,1.669-0.58,3.358-0.824,5.07c-2.351,16.477-1.651,33.249,1.243,49.635l4.224,23.917l65.145-5.821
	c0.422-0.041,12.749-1.152,13.238-1.22c15.506-2.083,21.086-10.997,28.797-24.606c5.734-10.123,15.422-28.401,19.646-42.431
	C141.181,77.527,137.707,79.461,133.754,79.461z"/>
<rect x="32.566" y="38.299" transform="matrix(0.9928 -0.1198 0.1198 0.9928 -5.1947 7.3189)" fill="none" stroke="#231F20" stroke-width="2" stroke-linecap="round" stroke-linejoin="round" stroke-miterlimit="10" width="51.449" height="17.152"/>
<path fill="none" stroke="#231F20" stroke-width="2" stroke-linecap="round" stroke-linejoin="round" stroke-miterlimit="10" d="
	M70.743,36.736c3.105-9.342,1.008-19.016-7.306-19.016c-9.198,0-16.685,11.828-17.11,21.964L70.743,36.736z"/>
<path fill="none" stroke="#231F20" stroke-width="2" stroke-linecap="round" stroke-linejoin="round" stroke-miterlimit="10" d="
	M54.618,174.767c-3.005,6.764-8.739,11.027-13.476,11.027c-4.736,0-8.575-4.264-8.575-11.027c0-9.292,6.911-19.844,15.436-19.844
	S58.748,165.475,54.618,174.767z"/>
<path fill="#231F20" d="M114.889,122.338c0,2.844-2.305,5.145-5.146,5.145c-2.84,0-5.145-2.301-5.145-5.145
	c0-2.841,2.305-5.146,5.145-5.146C112.584,117.192,114.889,119.497,114.889,122.338"/>
<path fill="#231F20" d="M125.179,84.606c0,2.844-2.305,5.145-5.145,5.145c-2.841,0-5.146-2.301-5.146-5.145
	c0-2.842,2.305-5.145,5.146-5.145C122.874,79.461,125.179,81.764,125.179,84.606"/>
</svg>
