<?xml version="1.0" encoding="utf-8"?>
<!-- Generator: Adobe Illustrator 15.0.2, SVG Export Plug-In . SVG Version: 6.00 Build 0)  -->
<!DOCTYPE svg PUBLIC "-//W3C//DTD SVG 1.1//EN" "http://www.w3.org/Graphics/SVG/1.1/DTD/svg11.dtd">
<svg version="1.1" id="Layer_1" xmlns="http://www.w3.org/2000/svg" xmlns:xlink="http://www.w3.org/1999/xlink" x="0px" y="0px"
	 width="200px" height="200px" viewBox="0 0 200 200" enable-background="new 0 0 200 200" xml:space="preserve">
<path fill="#FFFFFF" d="M64.207,151.701c0,1.1-0.892,1.988-1.989,1.988s-1.988-0.889-1.988-1.988c0-1.098,0.892-1.989,1.988-1.989
	C63.316,149.712,64.207,150.604,64.207,151.701"/>
<path fill="#FFFFFF" d="M58.242,151.701c0,1.1-0.892,1.988-1.988,1.988c-1.097,0-1.989-0.889-1.989-1.988
	c0-1.098,0.892-1.989,1.989-1.989C57.35,149.712,58.242,150.604,58.242,151.701"/>
<path fill="#FFFFFF" d="M52.275,151.701c0,1.1-0.892,1.988-1.988,1.988s-1.988-0.889-1.988-1.988c0-1.098,0.892-1.989,1.988-1.989
	S52.275,150.604,52.275,151.701"/>
<path fill="#FFFFFF" d="M107.954,151.701c0,1.1-0.891,1.988-1.988,1.988c-1.097,0-1.989-0.889-1.989-1.988
	c0-1.098,0.893-1.989,1.989-1.989C107.063,149.712,107.954,150.604,107.954,151.701"/>
<path fill="#FFFFFF" d="M101.988,151.701c0,1.1-0.891,1.988-1.988,1.988s-1.989-0.889-1.989-1.988c0-1.098,0.892-1.989,1.989-1.989
	C101.098,149.712,101.988,150.604,101.988,151.701"/>
<path fill="#FFFFFF" d="M96.023,151.701c0,1.1-0.892,1.988-1.989,1.988s-1.988-0.889-1.988-1.988c0-1.098,0.892-1.989,1.988-1.989
	S96.023,150.604,96.023,151.701"/>
<path fill="none" stroke="#FFFFFF" stroke-width="2" stroke-linecap="round" stroke-miterlimit="10" d="M95.774,57.198
	c2.008,12.25-8.432,22.689-20.679,20.679c-7.416-1.217-13.401-7.199-14.617-14.616c-2.008-12.25,8.431-22.689,20.679-20.678
	C88.576,43.8,94.557,49.782,95.774,57.198z"/>
<line fill="none" stroke="#FFFFFF" stroke-width="2" stroke-linecap="round" stroke-miterlimit="10" x1="56.252" y1="119.885" x2="56.252" y2="94.034"/>
<line fill="none" stroke="#FFFFFF" stroke-width="2" stroke-linecap="round" stroke-miterlimit="10" x1="100" y1="119.885" x2="100" y2="94.034"/>
<path fill="none" stroke="#FFFFFF" stroke-width="2" stroke-linecap="round" stroke-miterlimit="10" d="M101.988,119.885
	c6.562,0,11.932-5.367,11.932-11.931V90.37c0-10.977-6.738-20.83-16.971-24.809l-1.587-0.617
	C93.04,73.45,84.631,79.44,75.095,77.877c-6.841-1.123-12.41-6.317-14.199-12.935l-1.592,0.619
	C49.072,69.54,42.333,79.392,42.333,90.368v17.586c0,6.563,5.369,11.931,11.931,11.931h1.988v22.495
	c0,1.852-1.503,3.354-3.357,3.354h-4.336c-2.886,0-5.544,1.935-6.108,4.766c-0.753,3.799,2.173,7.165,5.848,7.165h7.954h9.943h1.988
	c3.295,0,5.966-2.669,5.966-5.965V125.85c0-1.98,1.341-3.834,3.299-4.162c2.482-0.417,4.655,1.513,4.655,3.921v26.091
	c0,3.296,2.67,5.966,5.966,5.966H100h7.693c2.887,0,5.546-1.933,6.105-4.765c0.755-3.799-2.171-7.166-5.845-7.166h-4.599
	c-1.852,0-3.355-1.503-3.355-3.355v-22.495L101.988,119.885L101.988,119.885z"/>
<path fill="none" stroke="#FFFFFF" stroke-width="2" stroke-linecap="round" stroke-linejoin="round" stroke-miterlimit="10" d="
	M60.479,63.261c-1.342-8.188,2.892-15.545,9.498-18.938H54.913c-3.653,0-6.614,2.961-6.614,6.614v22.651
	c2.851-3.51,6.601-6.314,11.004-8.026l1.592-0.621C60.746,64.385,60.572,63.838,60.479,63.261z"/>
<path fill="none" stroke="#FFFFFF" stroke-width="2" stroke-linecap="round" stroke-linejoin="round" stroke-miterlimit="10" d="
	M86.364,44.322c4.886,2.54,8.496,7.302,9.411,12.877c0.443,2.713,0.249,5.326-0.411,7.745l1.586,0.617
	c3.448,1.341,6.488,3.36,9.016,5.854V50.936c0-3.653-2.961-6.614-6.614-6.614H86.364z"/>
<path fill="none" stroke="#FFFFFF" stroke-width="2" stroke-linecap="round" stroke-miterlimit="10" d="M56.252,94.034
	c0-2.197,1.779-3.978,3.977-3.978"/>
<path fill="none" stroke="#FFFFFF" stroke-width="2" stroke-linecap="round" stroke-miterlimit="10" d="M100,94.034
	c0-2.197-1.778-3.978-3.977-3.978"/>
<circle fill="none" stroke="#FFFFFF" stroke-width="2" stroke-linecap="round" stroke-miterlimit="10" cx="85.086" cy="91.052" r="4.971"/>
<circle fill="none" stroke="#FFFFFF" stroke-width="2" stroke-linecap="round" stroke-miterlimit="10" cx="71.167" cy="100.994" r="4.972"/>
<line fill="none" stroke="#FFFFFF" stroke-width="2" stroke-linecap="round" stroke-miterlimit="10" x1="121.874" y1="157.666" x2="121.874" y2="72.161"/>
<rect x="121.874" y="48.299" fill="none" stroke="#FFFFFF" stroke-width="2" stroke-linecap="round" stroke-miterlimit="10" width="35.793" height="33.804"/>
<line fill="none" stroke="#FFFFFF" stroke-width="2" stroke-linecap="round" stroke-miterlimit="10" x1="121.874" y1="48.299" x2="121.874" y2="44.322"/>
<line fill="none" stroke="#FFFFFF" stroke-width="2" stroke-linecap="round" stroke-miterlimit="10" x1="42.333" y1="107.954" x2="56.252" y2="107.954"/>
<line fill="none" stroke="#FFFFFF" stroke-width="2" stroke-linecap="round" stroke-miterlimit="10" x1="100" y1="107.954" x2="113.92" y2="107.954"/>
<path fill="none" stroke="#FFFFFF" stroke-width="2" stroke-linecap="round" stroke-miterlimit="10" d="M96.023,60.23
	c0,5.49-8.012,9.941-17.896,9.941c-9.884,0-17.896-4.452-17.896-9.941c0-10.065,8.013-7.955,17.896-7.955
	C88.011,52.275,96.023,50.662,96.023,60.23z"/>
<line fill="none" stroke="#FFFFFF" stroke-width="2" stroke-linecap="round" stroke-miterlimit="10" x1="90.058" y1="60.23" x2="96.023" y2="60.23"/>
<line fill="none" stroke="#FFFFFF" stroke-width="2" stroke-linecap="round" stroke-miterlimit="10" x1="60.23" y1="60.23" x2="66.195" y2="60.23"/>
<path fill="none" stroke="#FFFFFF" stroke-width="2" stroke-linecap="round" stroke-miterlimit="10" d="M56.252,123.861v15.91
	c4.393,0,7.954-3.562,7.954-7.955S60.645,123.861,56.252,123.861z"/>
<path fill="none" stroke="#FFFFFF" stroke-width="2" stroke-linecap="round" stroke-miterlimit="10" d="M100,139.77v-15.908
	c-4.392,0-7.954,3.562-7.954,7.954S95.608,139.77,100,139.77z"/>
<path fill="none" stroke="#FFFFFF" stroke-width="2" stroke-linecap="round" stroke-miterlimit="10" d="M42.333,99.715l4.851-3.465
	c1.641-1.171,1.889-3.511,0.532-5.002c-1.522-1.667-3.444-3.808-4.945-5.601"/>
<path fill="none" stroke="#FFFFFF" stroke-width="2" stroke-linecap="round" stroke-miterlimit="10" d="M113.92,99.715l-4.854-3.465
	c-1.64-1.171-1.888-3.511-0.53-5.002c1.522-1.667,3.444-3.808,4.946-5.601"/>
</svg>
