<?xml version="1.0" encoding="utf-8"?>
<!-- Generator: Adobe Illustrator 15.0.2, SVG Export Plug-In . SVG Version: 6.00 Build 0)  -->
<!DOCTYPE svg PUBLIC "-//W3C//DTD SVG 1.1//EN" "http://www.w3.org/Graphics/SVG/1.1/DTD/svg11.dtd">
<svg version="1.1" id="Layer_1" xmlns="http://www.w3.org/2000/svg" xmlns:xlink="http://www.w3.org/1999/xlink" x="0px" y="0px"
	 width="200px" height="200px" viewBox="0 0 200 200" enable-background="new 0 0 200 200" xml:space="preserve">
<rect x="37.487" y="64.547" fill="none" stroke="#FFFFFF" stroke-width="2" stroke-linecap="round" stroke-miterlimit="10" width="124.025" height="27.06"/>
<path fill="none" stroke="#FFFFFF" stroke-width="2" stroke-linecap="round" stroke-miterlimit="10" d="M124.272,64.547l1.724-1.724
	c5.264-5.261,5.264-13.874,0-19.135c-5.263-5.261-13.871-5.261-19.136,0L89.321,61.229c-0.994,0.993-1.738,2.129-2.356,3.318
	H124.272z"/>
<path fill="none" stroke="#FFFFFF" stroke-width="2" stroke-linecap="round" stroke-miterlimit="10" d="M73.506,64.547h13.46
	c0.618-1.189,1.362-2.325,2.356-3.318l9.566-9.566l-7.972-7.974c-5.263-5.261-13.873-5.261-19.135,0
	c-5.261,5.261-5.261,13.874,0,19.135L73.506,64.547z"/>
<rect x="48.762" y="91.607" fill="none" stroke="#FFFFFF" stroke-width="2" stroke-linecap="round" stroke-miterlimit="10" width="103.73" height="67.65"/>
<line fill="none" stroke="#FFFFFF" stroke-width="2" stroke-linecap="round" stroke-miterlimit="10" x1="100.627" y1="64.547" x2="100.627" y2="159.258"/>
<line fill="none" stroke="#FFFFFF" stroke-width="2" stroke-linecap="round" stroke-miterlimit="10" x1="48.762" y1="123.178" x2="152.492" y2="123.178"/>
</svg>
