<?xml version="1.0" encoding="utf-8"?>
<!-- Generator: Adobe Illustrator 15.0.2, SVG Export Plug-In . SVG Version: 6.00 Build 0)  -->
<!DOCTYPE svg PUBLIC "-//W3C//DTD SVG 1.1//EN" "http://www.w3.org/Graphics/SVG/1.1/DTD/svg11.dtd">
<svg version="1.1" id="Layer_1" xmlns="http://www.w3.org/2000/svg" xmlns:xlink="http://www.w3.org/1999/xlink" x="0px" y="0px"
	 width="200px" height="200px" viewBox="0 0 200 200" enable-background="new 0 0 200 200" xml:space="preserve">
<path fill="none" stroke="#FFFFFF" stroke-width="2" stroke-miterlimit="10" d="M44.323,115.062
	c-1.8-10.193-2.257-20.618-0.854-30.872c1.957-14.308,7.107-26.273,20.053-35.989c8.339-6.258,18.413-10.406,29.493-11.398
	c32.241-2.88,60.58,19.466,63.301,49.914c0,0,1.54,38.546-9.201,43.319l-65.091,27.609c0,0-27.01,8.681-30.847-3.781L44.323,115.062
	z"/>
<path fill="none" stroke="#FFFFFF" stroke-width="2" stroke-miterlimit="10" d="M95.261,110.697c0,0,13.87-5.324,11.425-18.454
	c0,0-0.167-7.976-13.745-7.488l-49.994,4.467c-0.679,8.619-0.132,17.31,1.375,25.842l1.022,5.791
	C54.967,121.017,72.625,119.673,95.261,110.697z"/>
<circle fill="none" stroke="#FFFFFF" stroke-width="2" stroke-miterlimit="10" cx="121.184" cy="78.881" r="7.597"/>
<path fill="none" stroke="#FFFFFF" stroke-width="2" stroke-linecap="round" stroke-linejoin="round" stroke-miterlimit="10" d="
	M121.184,86.478c-4.197,0-7.597-3.401-7.597-7.597s3.399-7.597,7.597-7.597c3.578,0,6.559,2.483,7.363,5.815
	c0.181-3.496-2.813-6.344-6.32-6.064c-5.782,0.462-17.624,3.797-21.407,4.3c-19.643,2.607-45.023,4.246-56.747,5.18
	c-0.195,1.056-0.367,2.125-0.521,3.208c-1.488,10.427-1.045,21.041,0.786,31.41l2.673,15.135l41.225-3.684
	c0.267-0.025,8.067-0.729,8.377-0.771c9.812-1.318,13.344-6.959,18.223-15.571c3.629-6.405,9.76-17.973,12.433-26.851
	C125.884,85.253,123.685,86.478,121.184,86.478z"/>
<rect x="57.15" y="60.429" transform="matrix(-0.9928 0.1198 -0.1198 -0.9928 154.2194 122.4405)" fill="none" stroke="#FFFFFF" stroke-width="2" stroke-linecap="round" stroke-linejoin="round" stroke-miterlimit="10" width="32.558" height="10.854"/>
<path fill="none" stroke="#FFFFFF" stroke-width="2" stroke-linecap="round" stroke-linejoin="round" stroke-miterlimit="10" d="
	M81.309,59.44c1.965-5.912,0.638-12.033-4.624-12.033c-5.821,0-10.559,7.484-10.827,13.899L81.309,59.44z"/>
<path fill="none" stroke="#FFFFFF" stroke-width="2" stroke-linecap="round" stroke-linejoin="round" stroke-miterlimit="10" d="
	M71.105,146.789c-1.902,4.28-5.53,6.978-8.528,6.978c-2.997,0-5.427-2.698-5.427-6.978c0-5.881,4.374-12.558,9.768-12.558
	C72.313,134.231,73.718,140.908,71.105,146.789z"/>
<path fill="#FFFFFF" d="M109.245,113.611c0,1.799-1.458,3.255-3.256,3.255s-3.257-1.456-3.257-3.255
	c0-1.798,1.459-3.257,3.257-3.257S109.245,111.813,109.245,113.611"/>
<path fill="#FFFFFF" d="M115.758,89.733c0,1.8-1.459,3.256-3.257,3.256s-3.256-1.456-3.256-3.256c0-1.798,1.458-3.256,3.256-3.256
	S115.758,87.935,115.758,89.733"/>
</svg>
