<?xml version="1.0" encoding="utf-8"?>
<!-- Generator: Adobe Illustrator 15.0.2, SVG Export Plug-In . SVG Version: 6.00 Build 0)  -->
<!DOCTYPE svg PUBLIC "-//W3C//DTD SVG 1.1//EN" "http://www.w3.org/Graphics/SVG/1.1/DTD/svg11.dtd">
<svg version="1.1" id="Layer_1" xmlns="http://www.w3.org/2000/svg" xmlns:xlink="http://www.w3.org/1999/xlink" x="0px" y="0px"
	 width="178px" height="30px" viewBox="0 0 178 30" enable-background="new 0 0 178 30" xml:space="preserve">
<g id="g6737" transform="translate(-263.3037,348.46946)">
	<path id="path5423" fill="#CAD2C9" d="M293.637-333.247c0,8.408-6.778,15.148-15.186,15.148c-8.371,0-15.148-6.74-15.148-15.111
		c0-8.556,6.777-15.259,15.407-15.259C286.896-348.469,293.637-341.58,293.637-333.247z M264.859-333.247
		c0,7.519,6.074,13.555,13.592,13.555c7.481,0,13.593-6,13.593-13.519c0-7.666-6-13.667-13.705-13.667
		C270.97-346.877,264.859-340.729,264.859-333.247z M275.119-333.877l-0.186,0.37c-0.667-0.148-1.963-0.629-3.297-1.222
		l-0.185,0.334l0.555,0.296c1.926,1,2.593,1.222,3.667,1.222c2.259,0,3.962-1.26,4.777-3.519c1.371-0.296,3.149-0.407,5.296-0.407
		c1.815,0,3.371,0.074,5.408,0.333l-0.518,0.629c-0.926-0.111-2.667-0.222-3.889-0.222c-1.519,0-2.407,0-2.925,0.037l-0.222,0.556
		c1.222-0.075,1.666-0.075,2.628-0.075c1.667,0,2.964,0.075,4.038,0.149l-0.519,0.704c-1.926-0.074-2.778-0.111-4.223-0.111
		c-0.777,0-1.37,0.037-2.296,0.074l-0.259,0.556c0.815-0.075,1.963-0.111,3.111-0.111c1.148,0,2.482,0.037,3.26,0.074l-0.519,0.667
		c-0.555-0.037-1.592-0.037-2.406-0.037c-1.296,0-2.964,0.074-3.779,0.186l-0.259,0.481c1.556-0.148,2.519-0.222,4.223-0.222
		c0.666,0,1.074,0,1.852,0.074l-0.593,0.704c-1.037-0.074-1.37-0.074-1.778-0.074c-2.852,0-4.741,0.407-6.629,1.481
		c1.74,1.74,4.592,2.926,7.185,2.926c0.222,0,0.333,0,0.889-0.037l-1.223,1.259c-6.852-1.814-8.074-2.296-14.37-6.037
		c-2.481-1.408-4.519-2.37-6.148-2.851l0.222-0.778c0.371,0.074,1.223,0.297,2,0.593l0.371-0.853L275.119-333.877"/>
	<path id="path5425" fill="#CAD2C9" d="M425.858-327.099c0-2.185,1.408-3.741,4.186-4.519c0.444-0.111,1.852-0.444,4.259-0.852
		c1-0.222,1.408-0.518,1.408-1.259c0-0.815-0.852-1.334-2.111-1.334c-1.519,0-2.481,0.741-2.481,2.001h-4.333
		c0-3.296,2.592-5.26,6.926-5.26c4.519,0,6.703,1.889,6.703,5.704v7.444c0,1.26,0,1.26,0.444,2.037h-4.444l-0.259-1.222
		c-1.741,1.407-2.815,1.815-4.704,1.815C428.191-322.543,425.858-324.469,425.858-327.099 M434.562-329.728
		c-0.519,0.073-1.111,0.222-1.74,0.37c-1.557,0.407-2.296,1.037-2.296,1.962c0,0.964,0.703,1.482,1.925,1.482
		c2.333,0,3.407-1.037,3.407-3.186v-1C435.266-329.914,435.044-329.914,434.562-329.728 M410.711-327.988h4.666v0.185
		c0,1.223,1,1.963,2.593,1.963c1.37,0,2.223-0.519,2.223-1.332c0-0.853-0.778-1.371-2.63-1.668l-1.519-0.259
		c-3.444-0.593-4.926-1.852-4.926-4.148c0-3.185,2.63-5.074,6.963-5.074c3.037,0,4.926,0.815,5.889,2.593
		c0.408,0.704,0.481,0.963,0.593,2.555h-4.444c-0.111-1.37-0.704-1.889-2.148-1.889c-1.185,0-1.926,0.445-1.926,1.223
		c0,0.704,0.703,1.111,2.296,1.37l1.63,0.296c3.445,0.594,5.037,2.074,5.037,4.592c0,3.075-2.593,5.039-6.741,5.039
		C413.377-322.543,410.711-324.469,410.711-327.988 M379.451-327.099c0-2.185,1.444-3.741,4.223-4.519
		c0.444-0.111,1.852-0.407,4.222-0.852c1.037-0.222,1.444-0.518,1.444-1.259c0-0.815-0.852-1.334-2.147-1.334
		c-1.519,0-2.445,0.705-2.481,2.001h-4.334c0-3.296,2.593-5.26,6.89-5.26c4.519,0,6.777,1.889,6.777,5.704v7.444
		c0,1.26,0,1.26,0.37,2.037h-4.407l-0.26-1.222c-1.518,1.334-2.814,1.815-4.703,1.815
		C381.822-322.543,379.451-324.469,379.451-327.099 M388.191-329.728c-0.592,0.11-1.109,0.259-1.74,0.37
		c-1.556,0.407-2.296,1.037-2.296,1.962c0,0.964,0.74,1.482,1.926,1.482c2.26,0,3.37-1.037,3.37-3.186v-1
		C388.822-329.914,388.637-329.914,388.191-329.728 M329.119-325.062c-0.63-1.074-0.741-1.629-0.741-4.037v-8.593h4.777v8.408
		c0,2.147,0.593,3,2.111,3c1.556,0,2.371-1.001,2.371-3v-8.408h4.741v14.556h-4.333l-0.148-1.444
		c-1.186,1.26-2.519,1.814-4.185,1.814C331.674-322.766,329.97-323.581,329.119-325.062 M404.896-323.136v-8.259
		c0-2.148-0.629-3.037-2.11-3.037c-1.556,0-2.334,1-2.334,3.037v8.259h-4.74v-14.556h4.333l0.148,1.63
		c1.111-1.444,2.444-2.074,4.222-2.074c2.037,0,3.667,0.889,4.519,2.407c0.63,1.111,0.704,1.74,0.704,4.149v8.443H404.896
		 M373.637-323.136v-8.259c0-2.112-0.667-3.037-2.111-3.037c-1.555,0-2.333,1-2.333,3.037v8.259h-4.778v-20.259h4.778v7.333
		c0.852-1.444,2.111-2.074,3.926-2.074c2,0,3.63,0.852,4.519,2.407c0.63,1.111,0.704,1.704,0.704,4.149v8.443H373.637
		 M359.821-323.136c-2.813,0-4.111-1.333-4.111-4.26v-7.11h-1.999v-3.186h1.999v-4.592h4.742v4.592h2.703v3.186h-2.703v5.777
		c0.036,2.148,0.185,2.26,1.999,2.26h0.926v3.333H359.821 M345.415-323.136v-11.37h-2.074v-3.186h2.074v-0.444
		c0-3.852,1.445-5.259,5.148-5.259h2.593v3.222h-0.777c-1.778,0-2.223,0.407-2.223,2.037v0.444h2.814v3.186h-2.814v11.37H345.415
		 M313.859-323.136v-20.259h5.037v16.259h8.555v4H313.859"/>
</g>
</svg>
