<?xml version="1.0" encoding="utf-8"?>
<!-- Generator: Adobe Illustrator 15.0.2, SVG Export Plug-In . SVG Version: 6.00 Build 0)  -->
<!DOCTYPE svg PUBLIC "-//W3C//DTD SVG 1.1//EN" "http://www.w3.org/Graphics/SVG/1.1/DTD/svg11.dtd">
<svg version="1.1" id="Layer_1" xmlns="http://www.w3.org/2000/svg" xmlns:xlink="http://www.w3.org/1999/xlink" x="0px" y="0px"
	 width="61px" height="30px" viewBox="0 0 61 30" enable-background="new 0 0 61 30" xml:space="preserve">
<g id="layer1" transform="translate(-449.88641,-505.46578)">
	
		<path id="path108" fill="#C9D1C9" d="
		M504.252,519.446h6.025v6.025h-6.025V519.446z M486.176,519.446h6.024v6.025h-6.024V519.446z M468.101,519.446h6.025v6.025h-6.025
		V519.446z M464.266,529.114c0,1.911,0.279,3.151,0.839,3.724c0.474,0.487,1.28,0.787,2.411,0.899
		c0.336,0.028,0.911,0.041,1.722,0.041v1.675H454.72v-1.675c1.166,0,2.025-0.055,2.581-0.167c1.125-0.236,1.834-0.893,2.125-1.967
		c0.152-0.557,0.229-1.4,0.229-2.531v-21.89c-2.463,0.07-4.39,0.885-5.78,2.448c-1.321,1.495-2.127,3.784-2.42,6.868l-1.569-0.271
		l0.292-10.469h23.601l0.293,10.469l-1.571,0.271c-0.292-3.084-1.104-5.373-2.431-6.868c-1.397-1.563-3.333-2.379-5.805-2.448
		V529.114L464.266,529.114z M449.915,519.446h6.025v6.025h-6.025V519.446z"/>
</g>
</svg>
