<?xml version="1.0" encoding="utf-8"?>
<!-- Generator: Adobe Illustrator 15.0.2, SVG Export Plug-In . SVG Version: 6.00 Build 0)  -->
<!DOCTYPE svg PUBLIC "-//W3C//DTD SVG 1.1//EN" "http://www.w3.org/Graphics/SVG/1.1/DTD/svg11.dtd">
<svg version="1.1" id="Layer_1" xmlns="http://www.w3.org/2000/svg" xmlns:xlink="http://www.w3.org/1999/xlink" x="0px" y="0px"
	 width="15px" height="15px" viewBox="0 0 15 15" enable-background="new 0 0 15 15" xml:space="preserve">
<path fill="#FFFFFF" d="M13.797-0.073H1.032c-0.61,0-1.105,0.483-1.105,1.08v12.819c0,0.596,0.495,1.08,1.105,1.08h12.765
	c0.614,0,1.109-0.484,1.109-1.08V1.007C14.906,0.41,14.411-0.073,13.797-0.073 M2.147,5.542h2.224v7.147H2.147V5.542z M3.259,4.566
	c-0.713,0-1.289-0.578-1.289-1.289c0-0.711,0.575-1.289,1.289-1.289c0.711,0,1.288,0.577,1.288,1.289
	C4.547,3.989,3.97,4.566,3.259,4.566z M12.689,12.689h-2.221V9.215c0-0.829-0.012-1.896-1.153-1.896
	c-1.155,0-1.332,0.903-1.332,1.835v3.535h-2.22V5.542h2.131v0.979h0.03c0.296-0.563,1.021-1.155,2.101-1.155
	c2.25,0,2.664,1.48,2.664,3.404V12.689z"/>
</svg>
