<?xml version="1.0" encoding="utf-8"?>
<!-- Generator: Adobe Illustrator 15.0.2, SVG Export Plug-In . SVG Version: 6.00 Build 0)  -->
<!DOCTYPE svg PUBLIC "-//W3C//DTD SVG 1.1//EN" "http://www.w3.org/Graphics/SVG/1.1/DTD/svg11.dtd">
<svg version="1.1" id="Layer_1" xmlns="http://www.w3.org/2000/svg" xmlns:xlink="http://www.w3.org/1999/xlink" x="0px" y="0px"
	 width="128px" height="30px" viewBox="0 0 128 30" enable-background="new 0 0 128 30" xml:space="preserve">
<path id="path3796" fill="#CAD2C9" d="M127.297,15.638c-0.202-4.946-3.692-8.56-9.776-8.56c-6.519,0-10.838,4.595-10.838,11.112
	c0,6.519,3.966,11.073,10.601,11.073c4.831,0,9.699-2.632,10.132-9.109h-6.088c-0.508,2.474-1.097,4.122-4.044,4.122
	c-2.944,0-4.161-2.514-4.161-5.889c0-3.456,1.021-6.324,4.398-6.324c2.394,0,3.414,1.493,3.534,3.574H127.297z M126.395,21.018
	c-0.511,4.32-4.124,7.383-9.111,7.383c-4.946,0-9.697-3.142-9.697-10.21c0-5.223,3.297-10.208,9.935-10.208
	c4.713,0,7.931,2.12,8.833,6.792h-4.553c-0.474-2.356-1.964-3.574-4.28-3.574c-5.34,0-5.34,5.774-5.34,7.188
	c0,5.221,2.707,6.793,5.103,6.793c2.709,0,4.282-1.531,4.792-4.163H126.395L126.395,21.018z M97.274,20.97
	c0,2.591-2.082,3.965-4.514,3.965c-1.769,0-2.945-0.864-2.945-2.239c0-2.158,1.018-2.356,4.005-2.826
	c2.198-0.354,2.472-0.473,3.454-0.746V20.97z M98.178,17.905c-0.707,0.315-1.257,0.55-3.927,0.983l-2.239,0.352
	c-1.294,0.201-3.103,0.983-3.103,3.378c0,2.002,1.376,3.18,3.852,3.18c2.785,0,5.417-1.689,5.417-5.104V17.905L98.178,17.905z
	 M102.574,24.975c0,1.569,0.238,2.434,0.433,2.825h-4.397c-0.236-0.313-0.236-1.923-0.236-2.316
	c-2.395,1.729-4.356,2.905-7.107,2.905c-1.256,0-6.949,0-6.949-5.574c0-4.634,3.259-5.459,8.951-6.048
	c4.32-0.433,5.105-1.06,5.105-2.945c0-3.062-3.533-3.062-4.517-3.062c-3.964,0-4.358,2.905-4.358,3.181H85.22v-0.354
	c0-1.1,1.099-5.616,8.835-5.616c8.52,0,8.52,4.124,8.52,6.126V24.975L102.574,24.975z M103.518,13.978c0-2.08,0-6.91-9.346-6.91
	c-9.109,0-9.895,5.811-9.895,7.342v0.433h6.086c0.161-1.729,0.432-3.181,3.769-3.181c1.611,0,3.3,0.59,3.3,2.002
	c0,1.727-0.59,1.846-4.556,2.279c-4.046,0.51-9.464,1.137-9.464,7.028c0,1.766,0.746,6.282,7.461,6.282
	c3.612,0,5.066-1.021,6.559-2.16c0,0.472,0.201,1.295,0.432,1.608h6.479c-0.472-0.902-0.825-2.079-0.825-3.612L103.518,13.978
	L103.518,13.978z M79.417,27.8h-4.202v-2.904h-0.081c-0.786,1.1-2.631,3.493-6.479,3.493c-6.478,0-8.718-5.929-8.718-10.208
	c0-8.363,5.421-10.21,7.972-10.21c2.946,0,4.595,0.706,7.106,3.26V0.865h4.399V27.8H79.417z M80.319,0h-6.205v9.345
	c-0.98-0.863-2.512-2.276-6.203-2.276c-3.886,0-8.875,3.103-8.875,11.112c0,6.636,3.77,11.073,9.266,11.073
	c2.396,0,4.478-0.552,6.011-2.2v1.648h6.007V0L80.319,0z M74.312,18.181c0,4.947-2.436,6.086-4.438,6.086
	c-2.002,0-4.397-1.139-4.397-6.086c0-4.948,2.396-6.126,4.397-6.126C71.877,12.054,74.312,13.233,74.312,18.181L74.312,18.181z
	 M75.215,18.181c0-5.459-2.905-6.99-5.341-6.99c-2.396,0-5.341,1.531-5.341,6.99c0,5.419,2.945,6.989,5.341,6.989
	C72.31,25.17,75.215,23.6,75.215,18.181L75.215,18.181z M51.176,16.413c-0.16-1.335-0.708-5.223-4.987-5.223
	c-3.181,0-5.222,1.845-5.497,5.223H51.176L51.176,16.413z M41.634,15.51c0.433-1.335,1.1-3.456,4.555-3.456
	c2.396,0,3.455,1.454,4.085,3.456H41.634L41.634,15.51z M49.957,21.99c-0.47,0.941-0.981,2.276-3.769,2.276
	c-3.927,0-4.358-2.983-4.555-4.162h15.078v-0.201c0-6.753-2.747-12.838-10.523-12.838c-6.361,0-10.993,4.593-10.993,11.464
	c0,4.084,2.237,10.72,10.993,10.72c5.89,0,9.227-3.493,10.169-7.264h-6.401V21.99z M55.142,22.893
	c-2.122,5.143-7.265,5.496-8.954,5.496c-7.381,0-10.091-5.223-10.091-10.012c0-6.009,4.124-10.406,10.091-10.406
	c6.832,0,9.385,5.184,9.581,11.231H40.691c0.081,1.45,0.313,5.968,5.497,5.968c2.042,0,3.574-0.903,4.399-2.277H55.142
	L55.142,22.893z M1.212,8.521h4.359v3.023c1.885-2.16,4.007-3.574,6.911-3.574c3.456,0,4.516,1.768,5.538,3.416
	c1.962-2.158,3.533-3.416,6.556-3.416c4.164,0,6.52,2.395,6.52,6.519V27.8h-4.399V16.1c0-1.021,0-4.438-4.044-4.438
	c-4.319,0-4.319,4.163-4.319,5.693V27.8h-4.399V16.059c0-1.49,0-4.396-3.887-4.396c-3.22,0-4.476,2.473-4.476,6.243V27.8H1.212
	V8.521z M0.271,28.702h6.242V17.905c0-2.748,0.708-5.38,3.534-5.38c2.356,0,2.984,1.375,2.984,3.533v12.644h6.245V16.491
	c0-3.377,2.197-3.966,3.376-3.966c3.101,0,3.101,2.671,3.101,4.163v12.014h6.245V14.489c0-4.593-2.71-7.421-7.422-7.421
	c-3.022,0-4.319,0.902-6.361,2.944c-0.862-1.138-2.159-2.944-5.732-2.944c-2.277,0-4.28,0.862-5.969,2.436V7.617H0.271V28.702z"/>
</svg>
