<?xml version="1.0" encoding="utf-8"?>
<!-- Generator: Adobe Illustrator 15.0.2, SVG Export Plug-In . SVG Version: 6.00 Build 0)  -->
<!DOCTYPE svg PUBLIC "-//W3C//DTD SVG 1.1//EN" "http://www.w3.org/Graphics/SVG/1.1/DTD/svg11.dtd">
<svg version="1.1" id="Layer_1" xmlns="http://www.w3.org/2000/svg" xmlns:xlink="http://www.w3.org/1999/xlink" x="0px" y="0px"
	 width="273px" height="30px" viewBox="0 0 273 30" enable-background="new 0 0 273 30" xml:space="preserve">
<path id="path44" fill="#CAD2C9" d="M126.291,29.734c-16.18,0-21.11-4.266-21.11-9.786l0.001-19.614h10.604v18.491
	c0,4.504,4.699,5.732,11.016,5.732c4.292,0,7.504-0.129,9.878-0.417V0.334h10.605v28.111
	C143.332,29.105,135.39,29.734,126.291,29.734"/>
<path id="path46" fill="#CAD2C9" d="M31.604,29.04V17.19H10.713v11.85H0.105V0.334h10.607v11.74h20.892V0.334H42.21V29.04H31.604"/>
<path id="path48" fill="#CAD2C9" d="M171.709,6.074h28.634v-5.74h-30.858c-8.373,0-11.246,1.494-11.246,5.824V29.04h10.603
	l0.001-12.011h31.501v-5.103h-31.501l-0.001-4.087C168.841,6.786,169.447,6.074,171.709,6.074"/>
<path id="path50" fill="#CAD2C9" d="M222.127,6.074c-2.263,0-2.868,0.712-2.866,1.766l0.001,4.188h31.499v4.899h-31.499
	l-0.001,4.608c-0.004,1.054,0.604,1.765,2.866,1.765h28.634v5.74h-30.858c-8.374,0-11.248-1.494-11.248-5.822V6.158
	c0-4.33,2.874-5.824,11.248-5.824h30.858v5.74H222.127"/>
<path id="path52" fill="#CAD2C9" d="M261.484,23.644c0-1.449,0.84-1.959,3.288-1.959h4.217c2.448,0,3.287,0.51,3.287,1.959v3.438
	c0,1.448-0.839,1.959-3.287,1.959h-4.217c-2.448,0-3.288-0.511-3.288-1.959V23.644"/>
<path id="path54" fill="#CAD2C9" d="M73.903,24.975c-3.334,0-6.612-0.261-8.742-0.688c-1.512-0.24-2.162-0.807-2.162-2.09v-3.339
	c0-1.281,0.65-1.852,2.162-2.09c2.13-0.429,5.41-0.678,8.746-0.678h9.933v8.453c-2.004,0.279-5.937,0.419-9.933,0.419L73.903,24.975
	z M73.919,11.353c-6.764,0-12.893,0.604-17.121,1.351c-3.058,0.49-4.378,1.636-4.378,4.224v7.214c0,2.59,1.32,3.739,4.378,4.229
	c4.229,0.747,10.355,1.339,17.121,1.365c8.886,0.037,16.729-0.648,20.605-1.294V9.854c0-8.973-3.469-9.521-15.216-9.521H55.721
	v4.963h23.334c4.382,0,4.785,1.197,4.785,3.85v2.206H73.919"/>
</svg>
