<?xml version="1.0" encoding="utf-8"?>
<!-- Generator: Adobe Illustrator 15.0.2, SVG Export Plug-In . SVG Version: 6.00 Build 0)  -->
<!DOCTYPE svg PUBLIC "-//W3C//DTD SVG 1.1//EN" "http://www.w3.org/Graphics/SVG/1.1/DTD/svg11.dtd">
<svg version="1.1" id="Layer_1" xmlns="http://www.w3.org/2000/svg" xmlns:xlink="http://www.w3.org/1999/xlink" x="0px" y="0px"
	 width="15px" height="15px" viewBox="0 0 15 15" enable-background="new 0 0 15 15" xml:space="preserve">
<path fill="#FFFFFF" d="M13.994,0H0.817C0.366,0,0,0.366,0,0.817v13.177c0,0.451,0.366,0.818,0.817,0.818h7.095V9.076H5.981V6.841
	h1.931V5.192c0-1.913,1.168-2.955,2.874-2.955c0.817,0,1.521,0.061,1.725,0.088v2l-1.183,0c-0.929,0-1.108,0.441-1.108,1.088v1.428
	h2.214l-0.288,2.235H10.22v5.736h3.774c0.451,0,0.818-0.367,0.818-0.818V0.817C14.812,0.366,14.445,0,13.994,0"/>
</svg>
