<?xml version="1.0" encoding="utf-8"?>
<!-- Generator: Adobe Illustrator 15.0.2, SVG Export Plug-In . SVG Version: 6.00 Build 0)  -->
<!DOCTYPE svg PUBLIC "-//W3C//DTD SVG 1.1//EN" "http://www.w3.org/Graphics/SVG/1.1/DTD/svg11.dtd">
<svg version="1.1" id="Layer_1" xmlns="http://www.w3.org/2000/svg" xmlns:xlink="http://www.w3.org/1999/xlink" x="0px" y="0px"
	 width="15px" height="13px" viewBox="0 0 15 13" enable-background="new 0 0 15 13" xml:space="preserve">
<g>
	<path fill="#FFFFFF" d="M15.015,3.005c-0.067,1.463-1.088,3.464-3.063,6.005c-2.043,2.653-3.771,3.981-5.184,3.981
		c-0.876,0-1.616-0.808-2.222-2.424C4.141,9.086,3.737,7.604,3.333,6.122c-0.45-1.615-0.932-2.425-1.447-2.425
		c-0.113,0-0.506,0.236-1.179,0.708L0,3.494c0.742-0.65,1.473-1.302,2.192-1.955c0.988-0.854,1.73-1.303,2.227-1.348
		c1.167-0.113,1.887,0.686,2.158,2.397C6.868,4.433,7.071,5.581,7.184,6.03c0.337,1.53,0.708,2.296,1.113,2.296
		c0.314,0,0.787-0.496,1.417-1.49c0.628-0.993,0.966-1.749,1.011-2.268c0.09-0.857-0.247-1.287-1.011-1.287
		c-0.36,0-0.73,0.083-1.112,0.246c0.738-2.417,2.149-3.592,4.23-3.524C14.375,0.048,15.104,1.049,15.015,3.005"/>
</g>
</svg>
