<?xml version="1.0" encoding="utf-8"?>
<!-- Generator: Adobe Illustrator 15.0.2, SVG Export Plug-In . SVG Version: 6.00 Build 0)  -->
<!DOCTYPE svg PUBLIC "-//W3C//DTD SVG 1.1//EN" "http://www.w3.org/Graphics/SVG/1.1/DTD/svg11.dtd">
<svg version="1.1" id="Layer_1" xmlns="http://www.w3.org/2000/svg" xmlns:xlink="http://www.w3.org/1999/xlink" x="0px" y="0px"
	 width="17px" height="16px" viewBox="0 0 17 16" enable-background="new 0 0 17 16" xml:space="preserve">
<g>
	<path fill="#FFFFFF" d="M8,0.111C3.643,0.111,0.111,3.643,0.111,8c0,3.342,2.08,6.197,5.014,7.347
		c-0.068-0.624-0.131-1.581,0.027-2.264c0.143-0.615,0.925-3.92,0.925-3.92S5.842,8.69,5.842,7.991c0-1.098,0.635-1.916,1.427-1.916
		c0.673,0,0.999,0.504,0.999,1.111c0,0.676-0.432,1.689-0.653,2.626c-0.187,0.785,0.394,1.426,1.168,1.426
		c1.402,0,2.48-1.479,2.48-3.613c0-1.888-1.358-3.209-3.295-3.209c-2.245,0-3.563,1.683-3.563,3.423
		c0,0.679,0.262,1.406,0.587,1.801c0.065,0.077,0.074,0.146,0.054,0.226c-0.06,0.25-0.192,0.785-0.218,0.895
		c-0.035,0.145-0.115,0.175-0.264,0.104C3.578,10.407,2.962,8.968,2.962,7.81c0-2.488,1.808-4.773,5.211-4.773
		c2.737,0,4.863,1.949,4.863,4.556c0,2.72-1.714,4.907-4.092,4.907c-0.8,0-1.552-0.416-1.809-0.906c0,0-0.395,1.507-0.492,1.875
		c-0.178,0.686-0.659,1.545-0.98,2.068C6.402,15.767,7.188,15.889,8,15.889c4.357,0,7.889-3.531,7.889-7.889S12.357,0.111,8,0.111"
		/>
</g>
</svg>
