<?xml version="1.0" encoding="utf-8"?>
<!-- Generator: Adobe Illustrator 15.0.2, SVG Export Plug-In . SVG Version: 6.00 Build 0)  -->
<!DOCTYPE svg PUBLIC "-//W3C//DTD SVG 1.1//EN" "http://www.w3.org/Graphics/SVG/1.1/DTD/svg11.dtd">
<svg version="1.1" id="Layer_1" xmlns="http://www.w3.org/2000/svg" xmlns:xlink="http://www.w3.org/1999/xlink" x="0px" y="0px"
	 width="11px" height="9px" viewBox="0 0 11 9" enable-background="new 0 0 11 9" xml:space="preserve">
<g>
	<g>
		<path fill="#FFFFFF" d="M10.6,1.406c-0.39,0.172-0.809,0.289-1.249,0.342c0.448-0.27,0.794-0.695,0.956-1.203
			c-0.42,0.249-0.885,0.431-1.381,0.528C8.529,0.65,7.964,0.386,7.339,0.386c-1.202,0-2.175,0.974-2.175,2.175
			c0,0.17,0.02,0.336,0.057,0.495C3.413,2.966,1.811,2.1,0.738,0.784C0.551,1.105,0.443,1.479,0.443,1.877
			c0,0.755,0.384,1.42,0.967,1.811C1.054,3.677,0.719,3.579,0.426,3.415c0,0.009,0,0.019,0,0.027c0,1.054,0.75,1.934,1.744,2.133
			c-0.182,0.05-0.375,0.076-0.572,0.076c-0.14,0-0.277-0.014-0.409-0.039c0.276,0.864,1.08,1.493,2.031,1.51
			C2.475,7.706,1.538,8.053,0.519,8.053C0.344,8.053,0.17,8.044,0,8.023C0.962,8.641,2.105,9,3.333,9c4,0,6.187-3.314,6.187-6.187
			c0-0.095-0.002-0.189-0.007-0.282C9.939,2.225,10.309,1.842,10.6,1.406"/>
	</g>
</g>
</svg>
