<?xml version="1.0" encoding="utf-8"?>
<!-- Generator: Adobe Illustrator 15.0.2, SVG Export Plug-In . SVG Version: 6.00 Build 0)  -->
<!DOCTYPE svg PUBLIC "-//W3C//DTD SVG 1.1//EN" "http://www.w3.org/Graphics/SVG/1.1/DTD/svg11.dtd">
<svg version="1.1" id="Layer_1" xmlns="http://www.w3.org/2000/svg" xmlns:xlink="http://www.w3.org/1999/xlink" x="0px" y="0px"
	 width="13px" height="15px" viewBox="0 0 13 15" enable-background="new 0 0 13 15" xml:space="preserve">
<path fill="#FFFFFF" d="M1.166,2.971c-0.13,0-0.241,0.046-0.296,0.136C0.813,3.199,0.822,3.319,0.882,3.44l1.467,2.54
	c0.002,0.005,0.002,0.008,0,0.012L0.044,10.06c-0.061,0.121-0.058,0.241,0,0.334c0.054,0.09,0.153,0.147,0.284,0.147h2.17
	c0.324,0,0.48-0.219,0.591-0.419c0,0,2.255-3.988,2.343-4.143C5.423,5.965,3.94,3.378,3.94,3.378
	C3.832,3.186,3.668,2.971,3.336,2.971H1.166z"/>
<path id="path19375" fill="#FFFFFF" d="M10.281,0C9.957,0,9.816,0.204,9.7,0.413c0,0-4.674,8.291-4.828,8.562
	c0.009,0.016,3.082,5.655,3.082,5.655c0.108,0.193,0.274,0.415,0.607,0.415h2.167c0.13,0,0.232-0.05,0.288-0.141
	c0.057-0.091,0.057-0.215-0.005-0.333L7.954,8.983c-0.004-0.006-0.004-0.012,0-0.016l4.803-8.494
	c0.062-0.12,0.062-0.242,0.006-0.335C12.706,0.05,12.604,0,12.474,0H10.281z"/>
</svg>
