<?xml version="1.0" encoding="utf-8"?>
<!-- Generator: Adobe Illustrator 15.0.2, SVG Export Plug-In . SVG Version: 6.00 Build 0)  -->
<!DOCTYPE svg PUBLIC "-//W3C//DTD SVG 1.1//EN" "http://www.w3.org/Graphics/SVG/1.1/DTD/svg11.dtd">
<svg version="1.1" id="Layer_1" xmlns="http://www.w3.org/2000/svg" xmlns:xlink="http://www.w3.org/1999/xlink" x="0px" y="0px"
	 width="58px" height="30px" viewBox="0 0 58 30" enable-background="new 0 0 58 30" xml:space="preserve">
<g id="layer1_3_" transform="translate(-649.89646,-406.26802)">
	<g id="g20076" transform="translate(17.716521,17.668446)">
		<path id="path19828" fill="#CAD2C9" d="M671.211,400.096c-0.359-0.264-0.93-0.433-1.479-0.422c-0.604,0.01-1.174,0.2-1.575,0.518
			v-3.783h-1.869v12.341h1.869v-6.445c0-0.443,0.381-0.94,1.077-0.972c0.308-0.01,0.74,0.127,0.962,0.455
			c0.232,0.338,0.222,0.803,0.222,1.3l-0.011,5.663h1.87v-5.727C672.278,401.331,672.068,400.73,671.211,400.096"/>
		<path id="path19830" fill="#CAD2C9" d="M655.996,404.332c0,1.206-0.042,1.542-0.053,1.648c-0.063,0.677-0.348,1.385-1.13,1.385
			c-0.772,0-1.089-0.761-1.12-1.416c-0.01,0-0.053-0.411-0.053-1.617c0-1.205,0.043-1.712,0.053-1.712
			c0-0.687,0.359-1.363,1.12-1.363c0.771,0,1.12,0.676,1.13,1.353C655.943,402.621,655.996,403.128,655.996,404.332z
			 M657.802,402.874c-0.263-2.631-1.764-3.201-2.989-3.201c-1.744,0-2.8,1.109-2.991,3.201c-0.021,0.169-0.042,0.476-0.053,1.458
			c-0.01,0.718,0.042,1.311,0.053,1.458c0.117,1.954,1.237,3.148,2.991,3.148s2.873-1.215,3-3.148
			c0.011-0.138,0.042-0.74,0.042-1.458C657.856,404.005,657.834,403.128,657.802,402.874"/>
		<path id="path19832" fill="#CAD2C9" d="M675.406,403.223c0.011-0.412,0.011-0.497,0.021-0.613c0.054-0.74,0.38-1.353,1.141-1.353
			c0.898-0.01,1.109,0.867,1.142,1.353c0.021,0.264,0.031,0.433,0.031,0.613H675.406z M677.72,405.695c0,0,0,0.138-0.021,0.307
			c-0.054,0.434-0.223,1.363-1.132,1.363c-0.781,0-1.077-0.708-1.131-1.405c-0.01-0.201-0.042-0.422-0.042-1.184h4.175
			c0,0,0-0.624-0.011-0.994c0-0.147-0.011-0.39-0.043-0.908c-0.062-0.792-0.359-1.659-0.812-2.208
			c-0.519-0.655-1.258-0.993-2.136-0.993c-1.69,0-2.746,1.099-2.947,3.201c-0.021,0.19-0.054,0.455-0.054,1.458
			c0,0.718,0.043,1.321,0.054,1.458c0.105,1.923,1.246,3.148,2.947,3.148c1.691,0,2.821-1.194,2.948-3.244H677.72"/>
		<path id="path19834" fill="#CAD2C9" d="M645.852,390.111h30.41l11.622,13.609l-11.622,13.419h-30.41l-11.676-13.461
			L645.852,390.111z M676.991,388.6h-31.877l-12.933,15.025l12.944,14.93h31.867l12.891-14.877L676.991,388.6"/>
		<path id="path19836" fill="#CAD2C9" d="M646.233,398.088h0.876c0.962,0,1.49,0.507,1.511,1.416c0,0.074,0.011,0.147,0.011,0.285
			c0,0.169,0,0.222-0.011,0.296c-0.052,0.539-0.295,1.479-1.415,1.479h-0.972V398.088z M650.66,407.977l-0.19-3.021
			c-0.085-1.353-0.433-2.155-1.141-2.568c0.506-0.306,1.162-1.057,1.151-2.63c0-2.388-1.49-3.233-3.243-3.255h-2.854v12.246h1.839
			l0.011-5.6h1.024c0.592,0,1.257,0.518,1.363,1.976l0.191,2.863c0.021,0.412,0.095,0.761,0.095,0.761h1.849
			C650.755,408.749,650.671,408.412,650.66,407.977"/>
		<path id="path19838" fill="#CAD2C9" d="M663.266,405.61c0,0.139-0.011,0.254-0.021,0.339c-0.054,0.687-0.285,1.416-1.13,1.416
			c-0.771,0-1.078-0.792-1.142-1.374c-0.032-0.348-0.021-0.623-0.032-1.659c-0.01-1.205,0.032-1.521,0.053-1.712
			c0.063-0.771,0.359-1.363,1.12-1.363c0.792-0.01,1.12,0.676,1.13,1.353c0,0.01,0.021,0.169,0.031,0.528h1.85
			c0-0.127-0.011-0.232-0.011-0.285c-0.211-2.558-1.775-3.18-3-3.18c-1.744,0-2.8,1.109-2.99,3.201
			c-0.022,0.169-0.042,0.476-0.053,1.458c-0.01,0.718,0.042,1.311,0.053,1.458c0.115,1.954,1.237,3.148,2.99,3.148
			c1.817,0.011,2.821-1.1,3-3.148c0-0.074,0.011-0.127,0.011-0.181H663.266"/>
	</g>
</g>
</svg>
