<?xml version="1.0" encoding="utf-8"?>
<!-- Generator: Adobe Illustrator 15.0.2, SVG Export Plug-In . SVG Version: 6.00 Build 0)  -->
<!DOCTYPE svg PUBLIC "-//W3C//DTD SVG 1.1//EN" "http://www.w3.org/Graphics/SVG/1.1/DTD/svg11.dtd">
<svg version="1.1" id="Layer_1" xmlns="http://www.w3.org/2000/svg" xmlns:xlink="http://www.w3.org/1999/xlink" x="0px" y="0px"
	 width="111px" height="30px" viewBox="0 0 111 30" enable-background="new 0 0 111 30" xml:space="preserve">
<g id="layer1_1_">
	<path id="rect4492" fill="#CAD2C9" d="M95.125,0c-7.983,0-14.5,6.291-14.882,14.18h9.198c0.379-2.802,2.768-4.97,5.671-4.97
		c0.59,0,1.158,0.098,1.693,0.263c0.005,0.001,0.01-0.001,0.014,0c2.337,0.726,4.041,2.898,4.041,5.471
		c0,3.166-2.582,5.747-5.748,5.747c-2.595,0-4.775-1.735-5.482-4.103h-9.312c0.839,7.435,7.148,13.225,14.807,13.225
		c8.229,0,14.907-6.678,14.907-14.906C110.032,6.679,103.354,0,95.125,0z M0,0.503v3.475v4.957v2.157v8.433v9.7h9.901v-9.7h13.426
		v-2.936l0,0V14.18l0,0v-3.088H9.901V8.935h13.426V0.503H0z M32.312,0.503l-4.53,13.677h8.344l1.129-4.894l1.116,4.894h8.344
		L42.186,0.503h-2.924h-4.027H32.312z M54.269,0.503V14.18h10.227V8.921h2.985c1.491,0,2.687,1.209,2.687,2.698v0.213
		c0,1.014-0.558,1.89-1.38,2.347h8.796c0.846-0.968,1.267-2.293,1.267-3.853c0-5.72-4.469-9.824-10.188-9.824H54.269z
		 M26.977,16.589l-4.203,12.698h9.888l2.911-12.698H26.977z M38.924,16.589l2.911,12.698h9.888l-4.205-12.698H38.924z
		 M54.269,16.589v12.636h10.227V16.739l6.237,12.485h11.844L74.66,16.589H54.269z"/>
</g>
</svg>
