<?xml version="1.0" encoding="utf-8"?>
<!-- Generator: Adobe Illustrator 15.0.2, SVG Export Plug-In . SVG Version: 6.00 Build 0)  -->
<!DOCTYPE svg PUBLIC "-//W3C//DTD SVG 1.1//EN" "http://www.w3.org/Graphics/SVG/1.1/DTD/svg11.dtd">
<svg version="1.1" id="Layer_1" xmlns="http://www.w3.org/2000/svg" xmlns:xlink="http://www.w3.org/1999/xlink" x="0px" y="0px"
	 width="127px" height="30px" viewBox="0 0 127 30" enable-background="new 0 0 127 30" xml:space="preserve">
<path id="path9291" fill="#CAD2C9" d="M21.65,10.454H6.757V7.318H21.65V10.454z M21.521,22.474h-3.319v-9.669h3.319V22.474z
	 M15.85,22.474h-3.318v-9.669h3.318V22.474z M10.206,22.474H6.888v-9.669h3.318V22.474z M14.19,0C5.965,0-0.703,6.668-0.703,14.894
	S5.965,29.787,14.19,29.787s14.894-6.668,14.894-14.894S22.416,0,14.19,0"/>
<path id="path9307" fill="#CAD2C9" d="M120.976,13.523c1.576,0,1.877,1.308,1.946,2.582h-3.724
	C119.23,14.965,119.567,13.523,120.976,13.523z M121.177,20.866c-1.677,0-1.979-1.441-1.979-2.849h6.977
	c0-3.389-1.208-6.406-5.131-6.406c-3.388,0-5.098,2.75-5.098,5.869c0,3.252,1.943,5.298,5.196,5.298c2.215,0,4.494-0.938,4.662-3.42
	h-2.816C122.786,20.363,122.217,20.866,121.177,20.866 M108.298,13.857h-2.348V9.699h2.381c1.343,0,2.449,0.569,2.449,2.046
	C110.78,13.254,109.674,13.857,108.298,13.857L108.298,13.857z M110.914,14.965c1.879-0.537,3.287-1.677,3.287-3.756
	c0-2.919-2.717-3.891-5.232-3.891h-6.271v15.159h3.253V16.34h2.55c2.918,0,2.213,4.058,2.682,6.138h3.556
	C113.127,19.626,115.074,15.77,110.914,14.965 M96.091,14.696h-2.817c-0.067-0.771-0.772-1.173-1.509-1.173
	c-0.671,0-1.644,0.201-1.61,1.072c0.033,0.671,0.771,0.872,1.308,1.006l1.208,0.303c1.845,0.402,3.958,1.174,3.958,3.387
	c0,2.683-2.752,3.487-4.965,3.487c-2.18,0-4.326-0.972-4.494-3.319h2.918c0.101,0.938,0.839,1.407,1.745,1.407
	c0.805,0,1.843-0.334,1.843-1.307c0-2.012-6.305-0.57-6.305-4.662c0-2.481,2.482-3.286,4.562-3.286c1.912,0,3.824,0.771,4.125,2.851
	L96.091,14.696 M85.728,14.696H82.91c-0.068-0.771-0.771-1.173-1.51-1.173c-0.671,0-1.644,0.201-1.61,1.072
	c0.034,0.671,0.772,0.872,1.31,1.006l1.207,0.303c1.845,0.402,3.957,1.174,3.957,3.387c0,2.683-2.75,3.487-4.963,3.487
	c-2.181,0-4.326-0.972-4.495-3.319h2.918c0.101,0.938,0.839,1.407,1.744,1.407c0.805,0,1.845-0.334,1.845-1.307
	c0-2.012-6.306-0.57-6.306-4.662c0-2.481,2.482-3.286,4.562-3.286c1.912,0,3.823,0.771,4.125,2.851L85.728,14.696 M71.809,9.935
	h3.354V7.318h-3.354V9.935z M71.909,22.478h3.152V11.913h-3.152V22.478z M63.021,22.478l-1.508-5.031
	c-0.337-1.106-0.537-2.214-0.772-3.32c-0.169,0.806-0.301,1.611-0.537,2.382l-0.234,0.839l-1.408,5.131h-3.723l-3.455-10.564h3.556
	l1.477,5.533l0.201,0.771l0.167,0.739c0.066,0.437,0.134,0.872,0.201,1.308c0.167-1.274,0.47-2.481,0.805-3.688l1.308-4.662h3.622
	l1.375,4.862c0.336,1.141,0.57,2.28,0.738,3.455l0.101-0.604c0.134-1.005,0.401-1.978,0.704-2.984l1.308-4.729h3.389l-3.623,10.564
	H63.021 M50.177,11.577h-3.119c-0.033-1.476-1.107-2.314-2.549-2.314c-1.241,0-2.683,0.469-2.683,1.946
	c0,3.354,8.786,1.14,8.786,6.64c0,3.389-2.918,4.93-6.003,4.93c-3.522,0-6.439-1.239-6.405-5.097h3.32
	c0,1.677,0.905,2.816,2.683,2.816c1.308,0,3.053-0.469,3.053-2.045c0-3.521-8.653-1.141-8.653-6.809
	c0-3.354,3.118-4.662,6.003-4.662C47.661,6.982,49.975,8.459,50.177,11.577"/>
</svg>
