<?xml version="1.0" encoding="utf-8"?>
<!-- Generator: Adobe Illustrator 15.0.2, SVG Export Plug-In . SVG Version: 6.00 Build 0)  -->
<!DOCTYPE svg PUBLIC "-//W3C//DTD SVG 1.1//EN" "http://www.w3.org/Graphics/SVG/1.1/DTD/svg11.dtd">
<svg version="1.1" id="Layer_1" xmlns="http://www.w3.org/2000/svg" xmlns:xlink="http://www.w3.org/1999/xlink" x="0px" y="0px"
	 width="85px" height="30px" viewBox="0 0 85 30" enable-background="new 0 0 85 30" xml:space="preserve">
<g>
	<path fill-rule="evenodd" clip-rule="evenodd" fill="#C9D1C9" d="M10.251,23.666c3.116-1.356,7.939-8.943,8.894-11.004
		c-0.553,0-3.166,0.051-3.166,2.463c-0.402,0-0.804-0.453-0.804-1.056c0-0.954,1.005-1.96,4.321-1.96
		c1.357-2.262,3.568-5.275,5.024-6.331c0.604-0.401,0.654-0.302,0.251,0.101c-0.452,0.653-1.156,1.658-1.859,2.863
		c-1.206,1.961-2.462,4.624-4.02,7.236c-1.457,2.412-3.115,4.372-4.824,5.829c-1.608,1.306-3.215,2.109-4.17,2.311
		C9.498,24.22,9.548,23.917,10.251,23.666L10.251,23.666z M33.264,1.256c-1.91,0-3.768,0.703-5.326,1.96
		C25.979,2.412,22.109,0,17.939,0c-5.025,0-8.19,3.166-8.19,6.582c0,2.764,2.362,4.674,5.025,4.674c3.97,0,4.522-2.865,4.522-3.166
		c0-0.201-0.05-0.604-0.251-0.703c-0.101-0.051-0.201-0.051-0.201,0.05c0,1.056-2.061,3.267-4.573,3.267
		c-5.778,0-3.417-10.201,2.964-10.201c3.518,0,7.236,2.312,9.898,3.518c-1.708,1.809-3.517,4.321-6.13,9.547
		c-3.618,7.136-8.341,11.557-13.617,11.557c-2.864,0-5.829-1.858-5.829-6.431c0-7.738,10.25-9.849,10.25-1.909
		c0,3.215-2.261,4.924-4.121,4.975c-2.11,0-2.562-1.308-2.562-2.563c0-2.612,1.307-3.115,0.653-3.115
		c-2.311,0-2.813,6.08,2.211,6.08c3.215,0,5.175-2.814,5.226-5.628c0.05-2.613-1.658-5.176-5.678-5.176
		c-4.975,0-7.588,3.618-7.538,7.186c0,3.517,2.513,7.034,7.789,7.034c4.221,0,6.934-1.809,9.296-4.02
		c2.613-2.411,4.221-5.577,5.577-8.692c0.502,0.101,1.457,0.201,1.809,0.101c-0.151,0.402-0.251,1.457,0.101,1.457
		c0.15,0,0.05-0.302,0.301-0.854c0.352-0.703,1.005-1.055,2.261-1.909c0.553-0.401,0.302-0.954-0.251-0.954
		c-1.105,0-1.608,1.758-2.914,1.758c-0.352-0.051-0.804-0.1-1.056-0.15c0.805-2.061,2.915-6.281,4.824-7.989
		c0.804,0.352,3.567,1.708,5.527,1.708C37.987,6.029,38.641,1.256,33.264,1.256L33.264,1.256z M33.214,1.658
		c3.969,0,4.121,3.518,0.352,3.518c-1.909,0-3.869-1.105-5.024-1.608C29.797,2.463,31.506,1.658,33.214,1.658L33.214,1.658z
		 M84.918,11.306v0.301l-4.472,0.151c0,0-1.508,2.211-2.864,4.271c-0.201,0.25-1.105,1.658-1.608,2.512
		c-0.803,1.457-2.812,4.674-0.803,5.427c0.251,0.101,0.753,0.352,0.603,0.553c-0.252,0.201-0.653,0.352-1.056,0.352
		c-3.818,0-1.205-4.974,0.303-6.934l0,0c-0.452,0.502-2.162,2.713-3.92,2.713c-0.904,0-1.407-0.552-1.407-1.256
		c0-2.01,3.87-5.175,2.312-5.175c-0.251,0-0.604,0.2-1.105,0.502c-1.357,0.904-2.16,1.859-2.764,2.663
		c-1.155,1.558-2.262,3.165-2.262,3.165l-1.707,0.05c0,0,3.114-4.673,3.165-4.772c-0.804,0.703-2.362,1.206-3.165,0.251
		c-0.152,1.809-2.664,4.724-4.674,4.724c-1.708,0-2.11-1.709-1.658-3.065c-1.307,1.658-2.612,2.863-3.919,2.863
		c-0.653,0-1.307-0.501-1.307-1.406c0-1.457,2.562-3.668,2.562-4.622c0-0.151-0.05-0.352-0.301-0.352
		c-0.453,0-1.005,0.301-1.658,0.803c-1.307,1.105-1.81,1.96-2.814,3.518c-0.452,0.653-0.402,0.653-1.356,2.01h-1.708
		c0,0,3.114-4.673,3.417-5.125c0.25-0.352,0.854-1.256,0.15-1.256c-1.105,0-2.965,1.658-4.472,3.718
		c-0.604,0.904-1.81,2.663-1.81,2.663h-1.708l3.165-4.723c-0.201,0.1-0.954,0.402-1.557,0.402c-0.504,0-0.955-0.252-0.955-0.955
		c0-0.754,0.604-1.105,0.904-1.206l0,0c-1.508,0.05-3.618,2.06-5.678,5.125c-0.553,0.804-0.905,1.356-0.905,1.356h-1.708
		c0,0,0.754-1.105,1.659-2.462l0,0c-0.152,0.1-2.261,2.512-3.568,2.512c-1.156,0-1.458-1.205-1.256-2.21c0,0-1.558,2.21-3.065,2.21
		c-1.105,0-1.558-1.104-1.457-2.06c0,0,0,0.05-0.051,0.05c-0.201,0.353-1.457,2.061-3.015,2.01c-3.467,0-0.905-6.782,3.166-6.782
		c1.055,0,1.608,0.402,1.608,1.307c0.251-0.402,0.854-1.258,0.854-1.258h1.708c0,0-1.759,2.613-2.613,3.971
		c-0.653,0.954-1.055,2.312-0.201,2.312c1.457,0,2.863-2.211,4.02-3.97c0.854-1.257,1.558-2.312,1.558-2.312h1.708
		c0,0-1.608,2.412-2.764,4.172c-0.905,1.256-0.804,2.11-0.201,2.11c1.206,0,3.969-2.764,5.376-4.925
		c0.552-0.804,0.904-1.357,0.904-1.357h1.709l-1.206,1.76v0.051c1.255-1.257,2.612-1.96,3.316-1.96c1.558,0,1.407,1.606,0.653,2.11
		c0.352-0.102,1.205-0.252,1.658-0.955l0.703-1.006h1.759l-1.156,1.659l0,0c1.357-1.356,2.462-1.708,3.166-1.708
		c1.759,0,0.954,1.708,0.954,1.708l0,0c0.252-0.302,1.508-1.708,2.965-1.708c0.904,0,1.257,0.402,1.257,1.104
		c0.05,0.955-0.805,2.061-1.91,3.869c-0.302,0.503-0.854,1.308-0.2,1.308c1.607,0,4.471-4.172,4.522-4.271
		c1.005-1.357,2.261-2.211,3.817-2.211c0.905,0,1.407,0.703,1.609,1.457c0.854,2.361,3.315,0.452,4.119-0.704
		c0.102-0.149,0.251-0.352,0.353-0.503h1.708l-1.155,1.76c0.201-0.201,1.708-1.809,3.215-1.809c0.955,0,1.157,0.703,1.157,1.256
		c0,1.205-1.458,2.813-2.011,3.97c-0.604,1.105-0.102,1.406,1.105,0.604c1.508-1.005,2.915-2.814,4.572-5.177
		c0.604-0.854,1.307-1.858,1.859-2.662c-1.657,0-15.477,0.301-15.477,0.301l-0.753-0.754l16.53-0.05c0,0,1.509-2.513,2.765-2.513
		c0.1,0,0.1,0,0.1,0c0.201,0,0.102,0.101,0,0.252c-0.553,0.854-1.507,2.261-1.507,2.261H84.918L84.918,11.306z M25.526,20.1
		c1.909,0,5.577-5.779,3.417-5.779C27.235,14.32,23.466,20.1,25.526,20.1L25.526,20.1z M37.686,10.803
		c-0.552,0-0.954,0.402-0.954,0.955c0,0.503,0.402,0.904,0.954,0.904c0.503,0,0.905-0.401,0.905-0.904
		C38.59,11.205,38.188,10.803,37.686,10.803L37.686,10.803z M59.946,16.531c-1.057,1.558-1.559,3.267-1.006,3.618
		c0.553,0.401,1.96-0.653,3.015-2.262c1.055-1.558,1.558-3.267,0.955-3.618C62.357,13.867,61.001,14.923,59.946,16.531
		L59.946,16.531z"/>
	
		<line fill="none" stroke="#C9D1C9" stroke-width="0.6498" stroke-linecap="round" stroke-miterlimit="2.6131" x1="21.406" y1="23.666" x2="67.231" y2="23.666"/>
	<path fill-rule="evenodd" clip-rule="evenodd" fill="#C9D1C9" d="M21.104,28.089c0.05,0,0.05,0,0.05-0.052v-0.05
		c0-0.603,0-0.703,0-0.854c-0.05-0.151-0.05-0.201-0.201-0.201c-0.05,0-0.101-0.051-0.151-0.051c-0.05,0-0.1,0-0.1,0
		c0-0.05,0.05-0.05,0.1-0.05c0.251,0,0.503,0,0.604,0c0.1,0,0.402,0,0.553,0c0.05,0,0.1,0,0.1,0.05c0,0-0.05,0-0.1,0
		c-0.05,0-0.05,0.051-0.101,0.051c-0.151,0-0.151,0.05-0.151,0.201c-0.05,0.15-0.05,0.251-0.05,0.854v0.703
		c0,0.352,0,0.654,0.05,0.804c0,0.151,0.05,0.202,0.151,0.253c0.05,0,0.15,0,0.201,0s0.101,0,0.101,0.05c0,0-0.05,0-0.101,0
		c-0.251,0-0.553,0-0.653,0c-0.101,0-0.352,0-0.553,0c-0.051,0-0.051,0-0.051,0c0-0.05,0-0.05,0.051-0.05c0.05,0,0.101,0,0.15,0
		c0.101-0.051,0.101-0.102,0.101-0.253c0.05-0.149,0.05-0.452,0.05-0.804V28.34c0-0.051,0-0.051-0.05-0.051h-1.608
		c0,0-0.05,0-0.05,0.051v0.351c0,0.352,0,0.654,0.05,0.804c0,0.151,0.05,0.202,0.151,0.253c0.05,0,0.15,0,0.201,0
		s0.101,0,0.101,0.05c0,0-0.05,0-0.101,0c-0.251,0-0.552,0-0.653,0c-0.101,0-0.352,0-0.553,0c-0.05,0-0.05,0-0.05,0
		c0-0.05,0-0.05,0.05-0.05c0.05,0,0.101,0,0.151,0c0.1-0.051,0.1-0.102,0.1-0.253c0.05-0.149,0.05-0.452,0.05-0.804v-0.703
		c0-0.603,0-0.703,0-0.854c0-0.151-0.05-0.201-0.201-0.201c-0.051,0-0.101-0.051-0.151-0.051s-0.101,0-0.101,0
		c0-0.05,0.05-0.05,0.101-0.05c0.251,0,0.502,0,0.603,0c0.101,0,0.401,0,0.553,0c0.05,0,0.1,0,0.1,0.05c0,0-0.05,0-0.1,0
		c0,0-0.05,0.051-0.101,0.051c-0.151,0-0.151,0.05-0.151,0.201c-0.05,0.15-0.05,0.251-0.05,0.854v0.05
		c0,0.052,0.05,0.052,0.05,0.052H21.104L21.104,28.089z"/>
	<path fill-rule="evenodd" clip-rule="evenodd" fill="#C9D1C9" d="M22.913,28.34c0-0.704,0.503-1.559,1.759-1.559
		c1.105,0,1.759,0.554,1.759,1.458s-0.704,1.607-1.759,1.607C23.416,29.847,22.913,29.042,22.913,28.34L22.913,28.34z M25.828,28.39
		c0-0.854-0.553-1.407-1.256-1.407c-0.502,0-1.056,0.251-1.056,1.206c0,0.854,0.502,1.457,1.307,1.457
		C25.125,29.646,25.828,29.546,25.828,28.39L25.828,28.39z"/>
	<path fill-rule="evenodd" clip-rule="evenodd" fill="#C9D1C9" d="M28.29,27.032l-0.653,0.052c-0.251,0-0.352,0-0.402,0.1
		c-0.05,0.05-0.101,0.101-0.101,0.151c0,0,0,0.05-0.05,0.05c0,0,0-0.05,0-0.101s0.05-0.402,0.05-0.452
		c0.051-0.051,0.051-0.051,0.051-0.051c0.05,0,0.101,0.051,0.201,0.051c0.101,0,0.302,0,0.402,0h1.708
		c0.251,0,0.352-0.051,0.402-0.051s0.05,0.051,0.05,0.101c0,0.101,0,0.352,0,0.453c0,0.05-0.05,0.05-0.05,0.05
		c-0.05,0-0.05,0-0.05-0.05v-0.051c0-0.101-0.151-0.2-0.502-0.2l-0.553-0.052v1.658c0,0.352,0,0.654,0.05,0.804
		c0,0.151,0,0.202,0.15,0.253c0.05,0,0.151,0,0.201,0c0.05,0,0.101,0,0.101,0.05c0,0-0.051,0-0.101,0c-0.302,0-0.553,0-0.653,0
		s-0.402,0-0.553,0c-0.05,0-0.101,0-0.101,0c0-0.05,0.05-0.05,0.101-0.05s0.101,0,0.151,0c0.05-0.051,0.101-0.102,0.101-0.253
		c0.05-0.149,0.05-0.452,0.05-0.804V27.032L28.29,27.032z"/>
	<path fill-rule="evenodd" clip-rule="evenodd" fill="#C9D1C9" d="M31.104,27.987c0-0.603,0-0.703,0-0.854
		c0-0.151-0.05-0.201-0.151-0.201c-0.05,0-0.15-0.051-0.201-0.051c-0.05,0-0.05,0-0.05,0c0-0.05,0-0.05,0.1-0.05
		c0.201,0,0.502,0,0.603,0c0.151,0,0.955,0,1.056,0c0.1,0,0.15,0,0.201,0l0.05-0.051c0.05,0,0.05,0.051,0.05,0.051
		c0,0.05-0.05,0.101-0.05,0.252c0,0.05,0,0.2-0.05,0.251c0,0.05,0,0.05,0,0.05c-0.051,0-0.051,0-0.051-0.05c0,0,0-0.102-0.05-0.151
		c0-0.05-0.05-0.1-0.252-0.1c-0.1-0.052-0.552-0.052-0.603-0.052s-0.05,0-0.05,0.052v1.005c0,0,0,0.05,0.05,0.05
		c0.101,0,0.553,0,0.653,0c0.101-0.05,0.201-0.05,0.201-0.102c0.05,0,0.05-0.05,0.101-0.05c0,0,0,0,0,0.05c0,0,0,0.102,0,0.303
		c-0.051,0.05-0.051,0.201-0.051,0.251s0,0.05-0.05,0.05l0,0c0-0.05,0-0.1-0.05-0.15c0-0.101-0.05-0.15-0.202-0.15
		c-0.1,0-0.501,0-0.603,0c-0.05,0-0.05,0-0.05,0v0.351c0,0.102,0,0.453,0,0.604c0,0.252,0.101,0.302,0.503,0.302
		c0.1,0,0.302,0,0.402-0.05c0.101-0.052,0.15-0.102,0.201-0.252c0-0.05,0-0.1,0.05-0.1c0.051,0,0.051,0.05,0.051,0.1
		c0,0.101-0.051,0.352-0.051,0.453c-0.05,0.1-0.1,0.1-0.25,0.1c-0.653,0-0.955-0.05-1.207-0.05c-0.05,0-0.352,0-0.502,0
		c-0.05,0-0.1,0-0.1,0c0-0.05,0-0.05,0.05-0.05c0.101,0,0.15,0,0.201,0c0.051-0.051,0.101-0.102,0.101-0.253
		c0-0.149,0-0.452,0-0.804V27.987L31.104,27.987z"/>
	<path fill-rule="evenodd" clip-rule="evenodd" fill="#C9D1C9" d="M34.822,28.69c0,0.504,0,0.754,0.1,0.804
		c0.051,0.102,0.152,0.102,0.503,0.102c0.201,0,0.402,0,0.503-0.102c0.05-0.05,0.101-0.149,0.101-0.25c0,0,0-0.05,0.05-0.05
		c0,0,0.05,0,0.05,0.05s-0.05,0.352-0.1,0.452c0,0.101-0.051,0.15-0.251,0.15c-0.603,0-0.905-0.05-1.256-0.05
		c-0.1,0-0.352,0-0.502,0c-0.05,0-0.1,0-0.1,0c0-0.05,0-0.05,0.05-0.05c0.101,0,0.151,0,0.151,0c0.1-0.051,0.1-0.102,0.151-0.253
		c0-0.149,0-0.452,0-0.804v-0.703c0-0.603,0-0.703,0-0.854c0-0.151-0.051-0.201-0.201-0.201c0,0-0.05-0.051-0.101-0.051
		c-0.05,0-0.101,0-0.101,0c0-0.05,0.051-0.05,0.101-0.05c0.201,0,0.453,0,0.604,0c0.1,0,0.401,0,0.552,0c0.05,0,0.1,0,0.1,0.05
		c0,0-0.05,0-0.1,0c-0.05,0-0.101,0.051-0.151,0.051c-0.101,0-0.15,0.05-0.15,0.201c0,0.15,0,0.251,0,0.854V28.69L34.822,28.69z"/>
	<path fill-rule="evenodd" clip-rule="evenodd" fill="#C9D1C9" d="M37.133,29.747c-0.05,0-0.1-0.051-0.1-0.102
		c0-0.251,0.05-0.451,0.05-0.553c0-0.051,0-0.101,0.05-0.101c0.05,0,0.05,0.05,0.05,0.101s0,0.102,0.051,0.201
		c0.05,0.302,0.302,0.402,0.604,0.402c0.351,0,0.552-0.252,0.552-0.452c0-0.202-0.05-0.402-0.402-0.653l-0.201-0.151
		c-0.502-0.301-0.653-0.603-0.653-0.904c0-0.451,0.402-0.754,1.005-0.754c0.251,0,0.452,0.051,0.552,0.051
		c0.05,0,0.05,0.05,0.05,0.05c0,0.051,0,0.202,0,0.503c0,0.05,0,0.101-0.05,0.101c-0.05,0-0.05,0-0.05-0.051
		c0-0.05,0-0.201-0.101-0.301c-0.05-0.05-0.201-0.151-0.453-0.151c-0.352,0-0.502,0.151-0.502,0.402c0,0.15,0.1,0.302,0.453,0.553
		l0.101,0.1c0.502,0.353,0.703,0.604,0.703,1.005c0,0.202-0.101,0.504-0.402,0.654c-0.201,0.15-0.452,0.15-0.703,0.15
		C37.536,29.847,37.335,29.847,37.133,29.747L37.133,29.747z"/>
	<path fill-rule="evenodd" clip-rule="evenodd" fill="#C9D1C9" d="M42.158,28.089c-0.201-0.252-0.251-0.402-0.251-0.604
		c0-0.302,0.302-0.704,1.056-0.704c0.201,0,0.402,0.051,0.502,0.101c0.102,0,0.102,0.051,0.102,0.101
		c0,0.102-0.051,0.402-0.051,0.503c-0.051,0.05-0.051,0.05-0.051,0.05c-0.05,0-0.05,0-0.05-0.05c0-0.15-0.05-0.252-0.1-0.352
		c-0.101-0.102-0.252-0.201-0.503-0.201c-0.151,0-0.452,0.151-0.452,0.452c0,0.402,0.352,0.704,0.703,1.055
		c0.151,0.151,0.653,0.603,0.753,0.653c0.102-0.101,0.201-0.352,0.201-0.603c0-0.051,0-0.15-0.05-0.201
		c-0.101-0.05-0.151-0.05-0.251-0.05h-0.051c0-0.051,0.051-0.051,0.102-0.051c0.1,0,0.25,0,0.502,0c0.101,0,0.15,0.051,0.15,0.101
		c0,0.302-0.201,0.653-0.452,0.905c0.302,0.25,0.503,0.352,0.603,0.401c0.152,0.101,0.402,0.151,0.453,0.151
		c0.05,0,0.05,0,0.05,0.05c0,0,0,0-0.101,0H44.62c-0.451,0-0.604-0.05-1.005-0.303c-0.101,0.151-0.401,0.353-1.005,0.353
		c-0.905,0-1.156-0.502-1.156-0.854C41.455,28.541,41.906,28.188,42.158,28.089L42.158,28.089z M43.464,29.395
		c-0.25-0.2-0.652-0.603-0.753-0.704c-0.101-0.1-0.402-0.401-0.452-0.502c-0.151,0.101-0.302,0.302-0.302,0.604
		c0,0.502,0.352,0.804,0.804,0.804C43.112,29.596,43.364,29.444,43.464,29.395L43.464,29.395z"/>
	<path fill-rule="evenodd" clip-rule="evenodd" fill="#C9D1C9" d="M47.283,27.987c0-0.603,0-0.703,0-0.854
		c0-0.151-0.05-0.201-0.151-0.201c-0.05,0-0.15-0.051-0.2-0.051s-0.05,0-0.05,0c0-0.05,0-0.05,0.1-0.05c0.2,0,0.453,0,0.553,0
		c0.151,0,0.503,0,0.603,0c0.303,0,0.554,0.05,0.805,0.15c0.101,0.102,0.302,0.302,0.302,0.553c0,0.302-0.15,0.554-0.603,0.904
		c0.401,0.402,0.703,0.755,0.953,1.005c0.202,0.252,0.402,0.252,0.453,0.303c0.051,0,0.101,0,0.15,0c0,0,0.05,0,0.05,0.05
		c0,0-0.05,0-0.1,0h-0.401c-0.252,0-0.353,0-0.452-0.05c-0.201-0.102-0.353-0.303-0.604-0.604c-0.151-0.201-0.352-0.453-0.401-0.553
		c-0.051,0-0.051,0-0.102,0h-0.352h-0.05v0.05c0,0.401,0,0.704,0.05,0.854c0,0.151,0.051,0.202,0.15,0.253c0.051,0,0.15,0,0.201,0
		s0.051,0,0.051,0.05c0,0,0,0-0.051,0c-0.251,0-0.604,0-0.653,0c-0.1,0-0.353,0-0.502,0c-0.051,0-0.101,0-0.101,0
		c0-0.05,0-0.05,0.05-0.05c0.101,0,0.15,0,0.15,0c0.102-0.051,0.151-0.102,0.151-0.253c0-0.149,0-0.452,0-0.804V27.987
		L47.283,27.987z M47.786,28.289c0,0.051,0,0.051,0.05,0.051c0.101,0.05,0.201,0.05,0.352,0.05c0.151,0,0.201,0,0.302-0.05
		c0.1-0.101,0.251-0.251,0.251-0.604c0-0.553-0.401-0.704-0.653-0.704c-0.15,0-0.2,0-0.251,0c-0.05,0-0.05,0.052-0.05,0.052V28.289
		L47.786,28.289z"/>
	<path fill-rule="evenodd" clip-rule="evenodd" fill="#C9D1C9" d="M51.001,27.987c0-0.603,0-0.703,0-0.854
		c0-0.151-0.05-0.201-0.2-0.201c0,0-0.101-0.051-0.151-0.051c-0.05,0-0.05,0-0.05,0c0-0.05,0-0.05,0.05-0.05
		c0.252,0,0.503,0,0.654,0c0.1,0,0.954,0,1.055,0c0.05,0,0.15,0,0.15,0c0.051,0,0.051-0.051,0.101-0.051v0.051
		c0,0.05,0,0.101,0,0.252c0,0.05-0.05,0.2-0.05,0.251c0,0.05,0,0.05-0.051,0.05c0,0,0,0,0-0.05c0,0-0.05-0.102-0.05-0.151
		c-0.051-0.05-0.051-0.1-0.301-0.1c-0.052-0.052-0.504-0.052-0.604-0.052c0,0,0,0,0,0.052v1.005v0.05c0.1,0,0.604,0,0.703,0
		c0.101-0.05,0.15-0.05,0.201-0.102c0.05,0,0.05-0.05,0.05-0.05c0.051,0,0.051,0,0.051,0.05c0,0-0.051,0.102-0.051,0.303
		c0,0.05,0,0.201,0,0.251s0,0.05-0.05,0.05h-0.051c0-0.05,0-0.1,0-0.15c0-0.101-0.101-0.15-0.25-0.15c-0.052,0-0.504,0-0.604,0l0,0
		v0.351c0,0.102,0,0.453,0,0.604c0,0.252,0.05,0.302,0.502,0.302c0.102,0,0.302,0,0.402-0.05c0.101-0.052,0.15-0.102,0.2-0.252
		c0-0.05,0-0.1,0.051-0.1c0,0,0,0.05,0,0.1c0,0.101,0,0.352-0.051,0.453c0,0.1-0.05,0.1-0.2,0.1c-0.653,0-0.955-0.05-1.206-0.05
		c-0.101,0-0.352,0-0.553,0c-0.051,0-0.051,0-0.051,0c0-0.05,0-0.05,0.051-0.05s0.101,0,0.15,0c0.101-0.051,0.101-0.102,0.15-0.253
		c0-0.149,0-0.452,0-0.804V27.987L51.001,27.987z"/>
	<path fill-rule="evenodd" clip-rule="evenodd" fill="#C9D1C9" d="M54.116,29.747c-0.05,0-0.1-0.051-0.1-0.102
		c0-0.251,0.05-0.451,0.05-0.553c0-0.051,0-0.101,0.05-0.101c0.051,0,0.051,0.05,0.051,0.101s0,0.102,0,0.201
		c0.101,0.302,0.352,0.402,0.653,0.402c0.352,0,0.553-0.252,0.553-0.452c0-0.202-0.05-0.402-0.402-0.653l-0.201-0.151
		c-0.502-0.301-0.653-0.603-0.653-0.904c0-0.451,0.402-0.754,1.006-0.754c0.251,0,0.451,0.051,0.553,0.051
		c0.051,0,0.051,0.05,0.051,0.05c0,0.051,0,0.202,0,0.503c0,0.05,0,0.101-0.051,0.101c-0.05,0-0.05,0-0.05-0.051
		c0-0.05,0-0.201-0.102-0.301c-0.05-0.05-0.2-0.151-0.452-0.151c-0.352,0-0.503,0.151-0.503,0.402c0,0.15,0.102,0.302,0.453,0.553
		l0.101,0.1c0.503,0.353,0.703,0.604,0.703,1.005c0,0.202-0.1,0.504-0.401,0.654c-0.201,0.15-0.453,0.15-0.704,0.15
		S54.318,29.847,54.116,29.747L54.116,29.747z"/>
	<path fill-rule="evenodd" clip-rule="evenodd" fill="#C9D1C9" d="M57.03,28.34c0-0.704,0.453-1.559,1.76-1.559
		c1.055,0,1.708,0.554,1.708,1.458s-0.703,1.607-1.758,1.607C57.483,29.847,57.03,29.042,57.03,28.34L57.03,28.34z M59.896,28.39
		c0-0.854-0.553-1.407-1.257-1.407c-0.502,0-1.055,0.251-1.055,1.206c0,0.854,0.503,1.457,1.306,1.457
		C59.192,29.646,59.896,29.546,59.896,28.39L59.896,28.39z"/>
	<path fill-rule="evenodd" clip-rule="evenodd" fill="#C9D1C9" d="M61.704,27.987c0-0.603,0-0.703,0-0.854
		c0-0.151-0.05-0.201-0.201-0.201c0,0-0.101-0.051-0.15-0.051s-0.05,0-0.05,0c0-0.05,0-0.05,0.05-0.05c0.252,0,0.503,0,0.603,0
		c0.151,0,0.453,0,0.603,0c0.252,0,0.554,0.05,0.805,0.15c0.101,0.102,0.251,0.302,0.251,0.553c0,0.302-0.101,0.554-0.552,0.904
		c0.401,0.402,0.703,0.755,0.953,1.005c0.202,0.252,0.402,0.252,0.453,0.303c0.051,0,0.101,0,0.101,0c0.05,0,0.05,0,0.05,0.05
		c0,0,0,0-0.05,0h-0.401c-0.252,0-0.353,0-0.452-0.05c-0.202-0.102-0.353-0.303-0.604-0.604c-0.151-0.201-0.352-0.453-0.402-0.553
		c-0.05,0-0.05,0-0.101,0h-0.352c-0.05,0-0.05,0-0.05,0v0.05c0,0.401,0,0.704,0.05,0.854c0,0.151,0,0.202,0.151,0.253
		c0.05,0,0.149,0,0.2,0s0.051,0,0.051,0.05c0,0-0.051,0-0.102,0c-0.25,0-0.552,0-0.603,0c-0.1,0-0.351,0-0.502,0
		c-0.101,0-0.101,0-0.101,0c0-0.05,0-0.05,0.05-0.05c0.101,0,0.15,0,0.15,0c0.102-0.051,0.102-0.102,0.151-0.253
		c0-0.149,0-0.452,0-0.804V27.987L61.704,27.987z M62.207,28.289c0,0.051,0,0.051,0.05,0.051c0.101,0.05,0.201,0.05,0.301,0.05
		c0.202,0,0.252,0,0.303-0.05c0.149-0.101,0.251-0.251,0.251-0.604c0-0.553-0.402-0.704-0.653-0.704c-0.101,0-0.15,0-0.201,0
		c-0.05,0-0.05,0.052-0.05,0.052V28.289L62.207,28.289z"/>
	<path fill-rule="evenodd" clip-rule="evenodd" fill="#C9D1C9" d="M65.725,27.032l-0.604,0.052c-0.252,0-0.352,0-0.401,0.1
		c-0.051,0.05-0.102,0.101-0.102,0.151c0,0,0,0.05-0.05,0.05c0,0-0.05-0.05-0.05-0.101s0.1-0.402,0.1-0.452
		c0-0.051,0.051-0.051,0.051-0.051c0.051,0,0.101,0.051,0.2,0.051c0.101,0,0.252,0,0.402,0h1.709c0.251,0,0.352-0.051,0.401-0.051
		c0.051,0,0.051,0.051,0.051,0.101c0,0.101-0.051,0.352-0.051,0.453c0,0.05,0,0.05,0,0.05c-0.05,0-0.05,0-0.05-0.05v-0.051
		c-0.051-0.101-0.15-0.2-0.503-0.2l-0.553-0.052v1.658c0,0.352,0,0.654,0,0.804c0.051,0.151,0.051,0.202,0.201,0.253
		c0.051,0,0.151,0,0.201,0c0.051,0,0.051,0,0.051,0.05c0,0,0,0-0.051,0c-0.302,0-0.552,0-0.703,0c-0.102,0-0.353,0-0.502,0
		c-0.052,0-0.102,0-0.102,0c0-0.05,0-0.05,0.05-0.05c0.102,0,0.151,0,0.151,0c0.101-0.051,0.151-0.102,0.151-0.253
		c0-0.149,0-0.452,0-0.804V27.032L65.725,27.032z"/>
	<path fill-rule="evenodd" clip-rule="evenodd" fill="#C9D1C9" d="M68.286,29.747c-0.1,0-0.1-0.051-0.1-0.102
		c0-0.251,0.05-0.451,0.05-0.553c0-0.051,0-0.101,0.05-0.101c0,0,0.051,0.05,0.051,0.101s0,0.102,0,0.201
		c0.101,0.302,0.352,0.402,0.603,0.402c0.402,0,0.603-0.252,0.603-0.452c0-0.202-0.1-0.402-0.451-0.653l-0.151-0.151
		c-0.502-0.301-0.653-0.603-0.653-0.904c0-0.451,0.402-0.754,1.006-0.754c0.25,0,0.452,0.051,0.553,0.051
		c0.05,0,0.05,0.05,0.05,0.05c0,0.051,0,0.202,0,0.503c0,0.05-0.05,0.101-0.05,0.101c-0.051,0-0.051,0-0.051-0.051
		c0-0.05-0.05-0.201-0.101-0.301c-0.1-0.05-0.201-0.151-0.502-0.151c-0.302,0-0.503,0.151-0.503,0.402
		c0,0.15,0.101,0.302,0.452,0.553l0.151,0.1c0.502,0.353,0.702,0.604,0.702,1.005c0,0.202-0.1,0.504-0.4,0.654
		c-0.252,0.15-0.453,0.15-0.704,0.15S68.438,29.847,68.286,29.747L68.286,29.747z"/>
</g>
</svg>
