<?xml version="1.0" encoding="utf-8"?>
<!-- Generator: Adobe Illustrator 15.0.2, SVG Export Plug-In . SVG Version: 6.00 Build 0)  -->
<!DOCTYPE svg PUBLIC "-//W3C//DTD SVG 1.1//EN" "http://www.w3.org/Graphics/SVG/1.1/DTD/svg11.dtd">
<svg version="1.1" id="Layer_1" xmlns="http://www.w3.org/2000/svg" xmlns:xlink="http://www.w3.org/1999/xlink" x="0px" y="0px"
	 width="102px" height="30px" viewBox="0 0 102 30" enable-background="new 0 0 102 30" xml:space="preserve">
<g id="Ebene_x0020_1" transform="translate(-6.041939e-2,0.147204)">
	<path id="path2006" fill="#C9D1C9" d="M69.577,10.826c0,3.309-2.062,7.655-3.551,10.527c-2.341,4.52-5.507,7.228-10.655,7.546
		c-4.55,0.283-14.833,1.072-13.031-6.595c0.781-3.319,2.517-6.243,3.583-9.449c3.581-7.146,12.594-8.508,19.755-6.722
		C68.1,7.015,69.39,8.195,69.577,10.826L69.577,10.826z M57.559,11.144c-3.681,0-4.129,5.137-4.819,7.896
		c-0.174,1.042-1.341,4.534,0.539,4.534c4.425,0.89,4.836-3.964,5.58-7.198c0.274-1.189,0.816-3.187,0.571-4.407
		C59.431,11.06,58.164,11.204,57.559,11.144L57.559,11.144z M32.224,11.365c-0.454,8.701-6.565,8.023-13.825,7.99
		c-2.759-0.011-5.58-0.189-8.308-0.189c-1.006,1.021,1.907,4.117,2.727,4.629c2.798,1.743,6.309,0.995,8.562-1.269
		c1.21,0,14.199-1.697,9.703,2.791c-2.176,1.936-5.255,3.08-8.055,3.741C14.122,31.165-5.117,26.045,1.372,13.49
		C5.807,6.189,15.415,2.197,23.346,0.141c0.739-0.147,1.468-0.262,2.22-0.317C31.208-0.598,32.224,7.189,32.224,11.365
		L32.224,11.365z M23.949,10.667c0-0.786,0.032-1.618-0.222-2.377c-0.871-3.51-10.008,3.983-11.098,5.073
		c-0.137,0.274-0.033,0.19,0.159,0.285c3.032,0,6.072-0.032,9.101-0.032C23.882,13.287,23.949,12.681,23.949,10.667L23.949,10.667z
		 M41.547,15.139c-0.688,1.385-0.534,3.201-1.935,4.249c-1.915,1.433-6.739,1.437-5.676-2.029c1.007-3.295,2.91-4.697,6.374-3.837
		C41.155,13.805,41.354,14.365,41.547,15.139L41.547,15.139z M101.856,10.859c0,0.887-0.186,1.801-0.38,2.663
		c-1.146,5.06-2.99,9.873-4.63,14.744c-1.504,1.505-4.631,0.686-6.247-0.285c-0.809-0.808,1.201-4.933,1.522-5.93
		c0.492-1.53,3.183-7.176,0.919-8.308c-0.728,0-1.307,0.096-2.029,0.285c-6.772,2.372-11.58,9.267-16.456,14.143
		c-2.113,1.064-3.631,0.792-5.708-0.254c-0.205-0.206-0.105-0.533-0.063-0.792c1.571-6.563,4.057-13.069,6.754-19.247
		c0.425-1.262,4.786-0.795,5.866-0.254c0,1.396-0.146,3.741,1.871,3.741c4.525-0.499,15.616-10.323,18.423-1.902
		C101.777,9.939,101.856,10.369,101.856,10.859L101.856,10.859z"/>
</g>
</svg>
