<?xml version="1.0" encoding="UTF-8" standalone="no"?>
<!-- Generator: Adobe Illustrator 16.0.0, SVG Export Plug-In . SVG Version: 6.00 Build 0)  -->

<svg
   xmlns:dc="http://purl.org/dc/elements/1.1/"
   xmlns:cc="http://creativecommons.org/ns#"
   xmlns:rdf="http://www.w3.org/1999/02/22-rdf-syntax-ns#"
   xmlns:svg="http://www.w3.org/2000/svg"
   xmlns="http://www.w3.org/2000/svg"
   xmlns:sodipodi="http://sodipodi.sourceforge.net/DTD/sodipodi-0.dtd"
   xmlns:inkscape="http://www.inkscape.org/namespaces/inkscape"
   version="1.1"
   id="US_UK_Download_on_the"
   x="0px"
   y="0px"
   width="135px"
   height="40px"
   viewBox="0 0 135 40"
   enable-background="new 0 0 135 40"
   xml:space="preserve"
   inkscape:version="0.91 r13725"
   sodipodi:docname="web-app.svg"><metadata
     id="metadata4342"><rdf:RDF><cc:Work
         rdf:about=""><dc:format>image/svg+xml</dc:format><dc:type
           rdf:resource="http://purl.org/dc/dcmitype/StillImage" /><dc:title></dc:title></cc:Work></rdf:RDF></metadata><defs
     id="defs4340" /><sodipodi:namedview
     pagecolor="#ffffff"
     bordercolor="#666666"
     borderopacity="1"
     objecttolerance="10"
     gridtolerance="10"
     guidetolerance="10"
     inkscape:pageopacity="0"
     inkscape:pageshadow="2"
     inkscape:window-width="3440"
     inkscape:window-height="1411"
     id="namedview4338"
     showgrid="false"
     inkscape:zoom="2.6101852"
     inkscape:cx="185.41115"
     inkscape:cy="148.32999"
     inkscape:window-x="0"
     inkscape:window-y="0"
     inkscape:window-maximized="1"
     inkscape:current-layer="US_UK_Download_on_the" /><path
     style="fill:#a6a6a6"
     inkscape:connector-curvature="0"
     id="path4278"
     d="M 130.197,40 4.729,40 C 2.122,40 0,37.872 0,35.267 L 0,4.726 C 0,2.12 2.122,0 4.729,0 L 130.197,0 C 132.803,0 135,2.12 135,4.726 l 0,30.541 C 135,37.872 132.803,40 130.197,40 l 0,0 z" /><path
     inkscape:connector-curvature="0"
     id="path4280"
     d="m 134.032,35.268 c 0,2.116 -1.714,3.83 -3.834,3.83 l -125.469,0 c -2.119,0 -3.839,-1.714 -3.839,-3.83 l 0,-30.543 C 0.89,2.61 2.61,0.89 4.729,0.89 l 125.468,0 c 2.121,0 3.834,1.72 3.834,3.835 l 0.001,30.543 0,0 z" /><g
     id="g4386"
     transform="translate(7.3143787,0.5738035)"><text
       sodipodi:linespacing="125%"
       id="text4344"
       y="14.535123"
       x="38.866379"
       style="font-style:normal;font-variant:normal;font-weight:normal;font-stretch:normal;font-size:25px;line-height:125%;font-family:'Source Sans Pro';-inkscape-font-specification:'Source Sans Pro, Normal';text-align:start;letter-spacing:0px;word-spacing:0px;writing-mode:lr-tb;text-anchor:start;fill:#ffffff;fill-opacity:1;stroke:none;stroke-width:1px;stroke-linecap:butt;stroke-linejoin:miter;stroke-opacity:1"
       xml:space="preserve"><tspan
         style="font-style:normal;font-variant:normal;font-weight:normal;font-stretch:normal;font-size:12.5px;line-height:125%;font-family:'Source Sans Pro';-inkscape-font-specification:'Source Sans Pro';text-align:start;writing-mode:lr-tb;text-anchor:start;fill:#ffffff"
         id="tspan4348"
         y="14.535123"
         x="38.866379"
         sodipodi:role="line">Launch the</tspan></text>
<text
       sodipodi:linespacing="125%"
       id="text4352"
       y="31.941597"
       x="39.576054"
       style="font-style:normal;font-variant:normal;font-weight:normal;font-stretch:normal;font-size:18.05755806px;line-height:125%;font-family:'Source Sans Pro';-inkscape-font-specification:'Source Sans Pro, Normal';text-align:start;letter-spacing:0px;word-spacing:0px;writing-mode:lr-tb;text-anchor:start;fill:#ffffff;fill-opacity:1;stroke:none;stroke-width:1px;stroke-linecap:butt;stroke-linejoin:miter;stroke-opacity:1"
       xml:space="preserve"><tspan
         y="31.941597"
         x="39.576054"
         id="tspan4354"
         sodipodi:role="line">Web App</tspan></text>
</g><path
     inkscape:connector-curvature="0"
     d="m 33.374574,27.96139 c 1.348327,0 2.439247,-1.103177 2.439247,-2.451504 l 0.01226,-13.483277 c 0,-1.348327 -1.103177,-2.4515043 -2.451504,-2.4515043 l -19.612039,0 c -1.348328,0 -2.451505,1.1031773 -2.451505,2.4515043 l 0,13.483277 c 0,1.348327 1.103177,2.451504 2.451505,2.451504 l -4.9030102,0 c 0,1.348328 1.1031772,2.451505 2.4515052,2.451505 l 24.515048,0 c 1.348328,0 2.451505,-1.103177 2.451505,-2.451505 l -4.903009,0 z m -19.612039,-15.934781 19.612039,0 0,13.483277 -19.612039,0 0,-13.483277 z m 9.806019,17.160534 c -0.674164,0 -1.225752,-0.551589 -1.225752,-1.225753 0,-0.674163 0.551588,-1.225752 1.225752,-1.225752 0.674164,0 1.225753,0.551589 1.225753,1.225752 0,0.674164 -0.551589,1.225753 -1.225753,1.225753 z"
     id="path4462"
     style="fill:#ffffff" /></svg>